<svg width="24" height="24" viewBox="0 0 24 24" fill="none" xmlns="http://www.w3.org/2000/svg">
<mask id="mask0" mask-type="alpha" maskUnits="userSpaceOnUse" x="0" y="0" width="24" height="24">
<path d="M0 0H23.9994V23.8541H0V0Z" fill="white"/>
</mask>
<g mask="url(#mask0)">
<path fill-rule="evenodd" clip-rule="evenodd" d="M23.9989 11.999C23.9989 5.3713 18.6261 -0.00146484 11.9985 -0.00146484C5.37082 -0.00146484 -0.00195312 5.3713 -0.00195312 11.999C-0.00195312 17.9887 4.38643 22.9533 10.1234 23.8536V15.4678H7.07642V11.999H10.1234V9.35512C10.1234 6.34751 11.915 4.6862 14.6561 4.6862C15.9691 4.6862 17.3424 4.92059 17.3424 4.92059V7.87382H15.8292C14.3384 7.87382 13.8735 8.79886 13.8735 9.74787V11.999H17.2018L16.6697 15.4678H13.8735V23.8536C19.6105 22.9533 23.9989 17.9887 23.9989 11.999Z" fill="#98A7B1"/>
</g>
</svg>
