<svg width="284" height="101" viewBox="0 0 284 101" fill="none" xmlns="http://www.w3.org/2000/svg">
<path fill-rule="evenodd" clip-rule="evenodd" d="M33.5388 22.1765V57.1481C33.5388 59.6197 35.1307 61.3879 37.4576 61.3879C39.6607 61.3879 41.3735 59.6197 41.3735 57.1481V22.1765C41.3735 19.7059 39.6607 17.9417 37.4576 17.9417C35.1307 17.9417 33.5388 19.7059 33.5388 22.1765Z" fill="#0091D1"/>
<mask id="mask0" mask-type="alpha" maskUnits="userSpaceOnUse" x="0" y="6" width="75" height="70">
<path d="M0 6.28638H74.794V75.34H0V6.28638Z" fill="white"/>
</mask>
<g mask="url(#mask0)">
<path fill-rule="evenodd" clip-rule="evenodd" d="M51.1659 9.81494C51.1659 11.4059 52.1456 12.4658 53.6167 13.5258C62.1845 19.1762 67.0811 28.3592 67.0811 38.4268C67.0811 46.9045 64.0211 54.4995 58.2656 60.1499C52.7588 65.626 45.2916 68.8069 37.4568 68.8069C29.4982 68.8069 22.035 65.626 16.5252 60.1499C10.8926 54.4995 7.71071 46.9045 7.71071 38.4268C7.71071 28.3592 12.6073 19.1762 21.297 13.5258C22.768 12.4658 23.7477 11.4059 23.7477 9.81494C23.7477 7.52068 21.7853 6.28638 20.0736 6.28638C19.3385 6.28638 18.7283 6.28638 17.3801 7.16406C6.48731 14.2321 -0.000213623 25.7123 -0.000213623 38.2515C-0.000213623 48.6717 3.9137 58.2064 10.8926 64.9207C17.8724 71.6301 27.2951 75.34 37.4568 75.34C47.7394 75.34 57.1641 71.6301 64.0211 64.9207C71.0009 57.8547 74.794 48.4944 74.794 38.2515C74.794 25.7123 68.3055 14.2321 57.5326 7.16406C56.1844 6.28638 55.5751 6.28638 54.8431 6.28638C52.7588 6.28638 51.1659 7.69503 51.1659 9.81494Z" fill="#0091D1"/>
</g>
<path fill-rule="evenodd" clip-rule="evenodd" d="M32.4397 5.75251C32.4397 8.57873 34.6418 10.8769 37.4572 10.8769C40.1516 10.8769 42.4766 8.57873 42.4766 5.75251C42.4766 3.10658 40.1516 0.807373 37.4572 0.807373C34.6418 0.807373 32.4397 3.10658 32.4397 5.75251Z" fill="#0091D1"/>
<path fill-rule="evenodd" clip-rule="evenodd" d="M91.0736 22.7058C90.5823 22.7058 90.3396 22.8881 90.3396 23.4151V56.4441C90.3396 56.9721 90.5823 57.3238 91.0736 57.3238H96.7063C97.1946 57.3238 97.3155 56.9721 97.3155 56.4441V23.4151C97.3155 22.8881 96.949 22.7058 96.7063 22.7058H91.0736Z" fill="#0091D1"/>
<path fill-rule="evenodd" clip-rule="evenodd" d="M105.642 22.7058C105.15 22.7058 104.785 23.0624 104.785 23.4151V56.6184C104.785 56.9721 105.15 57.3238 105.642 57.3238H111.152C111.641 57.3238 112.007 57.1474 112.007 56.6184V29.4212C112.007 29.2458 112.007 29.2458 112.251 29.2458H119.72C125.718 29.2458 127.921 31.3608 127.921 37.3679V56.6184C127.921 57.1474 128.165 57.3238 128.654 57.3238H134.163C134.653 57.3238 134.897 57.1474 134.897 56.6184V35.7769C134.897 27.3013 129.633 22.7058 120.087 22.7058H105.642Z" fill="#0091D1"/>
<path fill-rule="evenodd" clip-rule="evenodd" d="M142.735 22.7058H152.522C164.644 22.7058 171.625 29.0685 171.625 40.0148C171.625 46.3745 169.049 57.3238 151.788 57.3238H142.735C142.244 57.3238 141.999 56.9721 141.999 56.6184V23.4151C141.999 23.0624 142.244 22.7058 142.735 22.7058ZM149.1 50.2607C149.1 50.438 149.221 50.6133 149.344 50.6133H153.996C160.483 50.6133 164.155 46.7311 164.155 40.0148C164.155 33.3064 160.483 29.4212 154.117 29.4212H149.344C149.221 29.4212 149.1 29.5975 149.1 29.7699V50.2607Z" fill="#0091D1"/>
<path fill-rule="evenodd" clip-rule="evenodd" d="M176.275 40.1924C176.275 46.2004 177.988 50.7929 181.414 53.7915C184.596 56.6177 189.004 58.2086 194.758 58.2086C197.82 58.2086 201.858 57.5004 204.061 56.6177C204.554 56.4434 204.795 56.2641 204.795 55.7331L204.675 50.7929C204.675 50.4373 204.675 50.0826 204.305 49.9053C204.185 49.73 203.943 49.73 203.695 49.9053C200.758 51.1416 197.941 51.6746 195.248 51.6746C188.269 51.6746 183.986 48.4967 183.742 43.0186H204.675C205.285 43.0186 205.774 42.8432 205.897 42.6669C206.265 42.134 206.388 41.4316 206.388 38.7808C206.388 28.5348 200.634 21.8264 191.699 21.8264C182.395 21.8264 176.275 29.2461 176.275 40.1924ZM191.453 28.1832C193.656 28.1832 195.612 28.8895 197.084 30.3031C198.553 31.891 199.41 34.1883 199.41 36.6628V36.8372H183.498C183.742 31.5394 186.923 28.1832 191.453 28.1832Z" fill="#0091D1"/>
<path fill-rule="evenodd" clip-rule="evenodd" d="M211.162 32.7764C211.162 38.2495 213.976 41.4304 220.835 43.0183L224.872 44.0803C228.423 44.7876 229.524 45.8426 229.524 47.7861C229.524 50.2607 226.953 51.8496 222.426 51.8496C217.405 51.8496 213.855 50.6114 212.144 49.9031C211.895 49.7297 211.652 49.7297 211.529 49.9031C211.284 50.0854 211.284 50.2607 211.284 50.436L211.162 55.5595C211.162 56.2628 211.284 56.4431 212.144 56.7968C214.098 57.3238 218.386 58.2064 221.567 58.2064C234.787 58.2064 236.743 51.3187 236.743 47.2582C236.743 42.1327 233.81 39.1322 227.198 37.5452L223.893 36.6626C219.367 35.6026 218.386 34.188 218.386 32.0681C218.386 30.1265 219.981 28.0066 224.383 28.0066C227.319 28.0066 231.362 28.7129 233.93 29.2458C234.176 29.4212 234.541 29.4212 234.787 29.2458C234.91 29.0685 234.91 28.8892 234.91 28.7129L235.032 23.9451C235.032 23.2388 234.541 23.0624 234.051 22.8891C231.851 22.3561 227.808 21.8271 224.383 21.8271C216.304 21.8271 211.162 26.063 211.162 32.7764Z" fill="#0091D1"/>
<path fill-rule="evenodd" clip-rule="evenodd" d="M243.478 22.7058C242.991 22.7058 242.744 22.8881 242.744 23.4151V56.4441C242.744 56.9721 242.991 57.3238 243.478 57.3238H249.111C249.597 57.3238 249.845 56.9721 249.845 56.4441V23.4151C249.845 22.8881 249.478 22.7058 249.111 22.7058H243.478Z" fill="#0091D1"/>
<mask id="mask1" mask-type="alpha" maskUnits="userSpaceOnUse" x="255" y="22" width="26" height="36">
<path d="M255.351 22.7058H280.08V57.3238H255.351V22.7058Z" fill="white"/>
</mask>
<g mask="url(#mask1)">
<path fill-rule="evenodd" clip-rule="evenodd" d="M255.965 22.7058C255.598 22.7058 255.351 22.8881 255.351 23.4151V28.5346C255.351 28.8902 255.598 29.2458 255.965 29.2458H263.922C264.042 29.2458 264.165 29.4212 264.165 29.4212V56.6184C264.165 57.1474 264.533 57.3238 264.779 57.3238H270.654C271.024 57.3238 271.267 57.1474 271.267 56.6184V29.4212C271.267 29.2458 271.388 29.2458 271.514 29.2458H279.47C279.834 29.2458 280.08 28.8902 280.08 28.5346V23.4151C280.08 22.8881 279.834 22.7058 279.47 22.7058H255.965Z" fill="#0091D1"/>
</g>
<path fill-rule="evenodd" clip-rule="evenodd" d="M145.714 92.1988H155.485V94.9785H142.232V74.1162H145.714V92.1988Z" fill="#0091D1"/>
<mask id="mask2" mask-type="alpha" maskUnits="userSpaceOnUse" x="0" y="0" width="281" height="101">
<path d="M0 100.939H280.08V0.807129H0V100.939Z" fill="white"/>
</mask>
<g mask="url(#mask2)">
<path fill-rule="evenodd" clip-rule="evenodd" d="M158.867 94.9787H162.349V79.4756H158.867V94.9787ZM158.867 75.6776H162.349V72.6255H158.867V75.6776Z" fill="#0091D1"/>
<path fill-rule="evenodd" clip-rule="evenodd" d="M167.935 94.978V82.0545H165.572V79.4749H167.935V77.6691C167.935 75.9603 168.401 74.6417 169.332 73.7145C170.263 72.7883 171.569 72.3247 173.252 72.3247C173.586 72.3247 173.925 72.3505 174.269 72.403C174.613 72.4565 174.999 72.5298 175.429 72.6259L175.07 75.3193C174.88 75.2807 174.668 75.248 174.434 75.2193C174.199 75.1896 173.949 75.1767 173.681 75.1767C172.927 75.1767 172.36 75.3907 171.983 75.8206C171.607 76.2515 171.417 76.8667 171.417 77.6691V79.4749H174.297V82.0545H171.417V94.978H167.935Z" fill="#0091D1"/>
<path fill-rule="evenodd" clip-rule="evenodd" d="M183.495 81.9824C182.588 81.9824 181.863 82.3093 181.318 82.9641C180.773 83.6189 180.434 84.4708 180.3 85.5219L180.329 85.5932H186.391V85.3208C186.391 84.3272 186.158 83.5228 185.695 82.9067C185.231 82.2905 184.498 81.9824 183.495 81.9824ZM183.868 95.2794C181.604 95.2794 179.835 94.5662 178.558 93.1377C177.284 91.7092 176.647 89.8578 176.647 87.5843V87.0117C176.647 84.7383 177.284 82.864 178.558 81.389C179.835 79.912 181.479 79.18 183.495 79.1888C185.576 79.1888 187.154 79.8308 188.224 81.1156C189.293 82.4004 189.829 84.1182 189.829 86.2678V88.143H180.243L180.213 88.2153C180.253 89.4863 180.587 90.5185 181.217 91.311C181.847 92.1045 182.798 92.5007 184.068 92.5007C185.015 92.5007 185.833 92.3848 186.525 92.156C187.219 91.9272 187.861 91.5973 188.453 91.1674L189.585 93.4448C188.992 93.9619 188.21 94.3968 187.234 94.7494C186.261 95.1021 185.138 95.2794 183.868 95.2794Z" fill="#0091D1"/>
<path fill-rule="evenodd" clip-rule="evenodd" d="M211.19 87.4418C211.19 85.8558 210.892 84.5591 210.294 83.5506C209.698 82.5442 208.806 82.0399 207.622 82.0399C206.896 82.0399 206.279 82.1945 205.773 82.5045C205.267 82.8156 204.862 83.2485 204.556 83.8022V90.8088C204.862 91.3537 205.267 91.7707 205.773 92.063C206.279 92.3542 206.906 92.5008 207.651 92.5008C208.834 92.5008 209.722 92.063 210.308 91.1892C210.897 90.3145 211.19 89.1654 211.19 87.7419V87.4418ZM214.658 87.7419C214.658 89.9975 214.128 91.8163 213.067 93.2022C212.007 94.587 210.532 95.2795 208.639 95.2795C207.76 95.2795 206.982 95.122 206.304 94.807C205.625 94.4919 205.043 94.0283 204.556 93.4171V100.939H201.075V79.4752H204.011L204.354 81.4238C204.851 80.6977 205.452 80.1439 206.153 79.7615C206.856 79.3792 207.669 79.189 208.596 79.189C210.507 79.189 211.994 79.9448 213.061 81.4594C214.126 82.9731 214.658 84.9672 214.658 87.4418V87.7419Z" fill="#0091D1"/>
<path fill-rule="evenodd" clip-rule="evenodd" d="M225.976 82.6128L224.487 82.5553C223.808 82.5553 223.242 82.698 222.787 82.9843C222.335 83.2715 221.983 83.6777 221.735 84.2037V94.9776H218.253V79.4745H221.434L221.664 81.7242C222.056 80.9317 222.558 80.3106 223.175 79.8618C223.792 79.4121 224.501 79.1882 225.302 79.1882C225.513 79.1882 225.708 79.2041 225.891 79.2387C226.072 79.2724 226.238 79.3121 226.391 79.3596L225.976 82.6128Z" fill="#0091D1"/>
<path fill-rule="evenodd" clip-rule="evenodd" d="M231.95 87.3841C231.95 88.9027 232.247 90.135 232.84 91.081C233.431 92.0271 234.348 92.4996 235.59 92.4996C236.802 92.4996 237.712 92.0241 238.319 91.0741C238.926 90.1241 239.229 88.8938 239.229 87.3841V87.0839C239.229 85.6029 238.926 84.3825 238.319 83.4216C237.712 82.4617 236.793 81.9813 235.562 81.9813C234.348 81.9813 233.443 82.4617 232.847 83.4216C232.249 84.3825 231.95 85.6029 231.95 87.0839V87.3841ZM228.468 87.0839C228.468 84.7718 229.1 82.8778 230.367 81.4018C231.633 79.9257 233.364 79.1887 235.562 79.1887C237.787 79.1887 239.532 79.9257 240.798 81.4018C242.064 82.8778 242.696 84.7718 242.696 87.0839V87.3841C242.696 89.715 242.064 91.614 240.798 93.0801C239.532 94.5462 237.797 95.2792 235.59 95.2792C233.374 95.2792 231.633 94.5442 230.367 93.0731C229.1 91.6011 228.468 89.7051 228.468 87.3841V87.0839Z" fill="#0091D1"/>
<path fill-rule="evenodd" clip-rule="evenodd" d="M249.13 87.3841C249.13 88.9027 249.425 90.135 250.018 91.081C250.611 92.0271 251.527 92.4996 252.768 92.4996C253.982 92.4996 254.892 92.0241 255.498 91.0741C256.106 90.1241 256.409 88.8938 256.409 87.3841V87.0839C256.409 85.6029 256.106 84.3825 255.498 83.4216C254.892 82.4617 253.973 81.9813 252.74 81.9813C251.527 81.9813 250.622 82.4617 250.025 83.4216C249.428 84.3825 249.13 85.6029 249.13 87.0839V87.3841ZM245.648 87.0839C245.648 84.7718 246.28 82.8778 247.546 81.4018C248.812 79.9257 250.542 79.1887 252.74 79.1887C254.965 79.1887 256.711 79.9257 257.977 81.4018C259.242 82.8778 259.876 84.7718 259.876 87.0839V87.3841C259.876 89.715 259.242 91.614 257.977 93.0801C256.711 94.5462 254.976 95.2792 252.768 95.2792C250.553 95.2792 248.812 94.5442 247.546 93.0731C246.28 91.6011 245.648 89.7051 245.648 87.3841V87.0839Z" fill="#0091D1"/>
<path fill-rule="evenodd" clip-rule="evenodd" d="M264.603 94.978V82.0545H262.24V79.4749H264.603V77.6691C264.603 75.9603 265.069 74.6417 266 73.7145C266.931 72.7883 268.237 72.3247 269.919 72.3247C270.254 72.3247 270.592 72.3505 270.936 72.403C271.281 72.4565 271.667 72.5298 272.096 72.6259L271.737 75.3193C271.547 75.2807 271.335 75.248 271.102 75.2193C270.867 75.1896 270.617 75.1767 270.349 75.1767C269.595 75.1767 269.028 75.3907 268.651 75.8206C268.274 76.2515 268.085 76.8667 268.085 77.6691V79.4749H270.965V82.0545H268.085V94.978H264.603Z" fill="#0091D1"/>
<path fill-rule="evenodd" clip-rule="evenodd" d="M274.317 94.9778H277.784V91.6404H274.317V94.9778Z" fill="#0091D1"/>
</g>
</svg>
