<svg width="134" height="134" viewBox="0 0 134 134" fill="none" xmlns="http://www.w3.org/2000/svg">
<path d="M67 3.44473C83.9825 3.44473 99.9316 10.0586 111.954 22.0807C123.976 34.1028 130.59 50.0519 130.59 67.0344C130.59 84.017 123.976 99.9661 111.954 111.988C99.9316 124.01 83.9825 130.624 67 130.624C50.0175 130.624 34.0684 124.01 22.0463 111.988C10.0586 99.9661 3.44473 83.9825 3.44473 67.0344C3.44473 50.0864 10.0586 34.1028 22.0807 22.0807C34.0684 10.0586 50.0519 3.44473 67 3.44473ZM67 0C30.0036 0 0 30.0036 0 67C0 103.996 30.0036 134 67 134C103.996 134 134 103.996 134 67C134 30.0036 104.031 0 67 0Z" fill="white"/>
<path d="M50.8101 79.6432C54.2893 79.6432 57.8029 79.6432 61.2821 79.6432C63.7623 79.6432 65.0713 81.09 64.9679 83.5358C64.3134 96.2124 56.0116 105.651 43.6106 107.856C30.8307 110.129 17.7751 101.345 15.0193 88.6684C11.4368 72.1337 23.7001 57.1836 40.5448 57.6314C47.7443 57.8381 53.807 60.8005 58.6296 66.1399C59.8008 67.4144 60.1109 68.8612 59.1808 70.3769C58.354 71.7203 57.0795 72.0304 55.5983 71.7203C54.7371 71.5481 54.2204 70.9625 53.6692 70.3769C48.1232 64.3831 40.0625 62.5229 32.6908 65.4854C25.3191 68.4478 20.6687 75.6473 20.8754 83.7424C21.1165 92.5954 28.626 100.691 37.4101 101.552C46.9175 102.482 55.6672 96.5224 57.8718 87.6694C58.0096 87.0494 58.2163 86.1193 58.2163 86.1193C58.2163 86.1193 57.2173 86.1193 56.5972 86.1193H39.7525C37.789 86.1193 36.4111 84.7414 36.4111 82.9502C36.3767 81.1589 37.7546 79.7466 39.6836 79.6432C40.8204 79.5743 41.9571 79.6432 43.1283 79.6432C45.643 79.6432 48.2265 79.6432 50.8101 79.6432Z" fill="white"/>
<path d="M95.0404 64.1413C105.409 64.1413 113.814 72.5809 113.814 82.9151C113.814 93.2493 105.375 101.689 95.0404 101.689C84.7063 101.689 76.2667 93.2493 76.2667 82.9151C76.2667 72.5809 84.7063 64.1413 95.0404 64.1413ZM95.0404 57.5963C81.0548 57.5963 69.7217 68.9295 69.7217 82.9151C69.7217 96.9007 81.0548 108.234 95.0404 108.234C109.026 108.234 120.359 96.9007 120.359 82.9151C120.359 68.9295 109.026 57.5963 95.0404 57.5963Z" fill="white"/>
<path d="M94.5247 33.4496C95.3859 33.4496 96.1093 34.1386 96.1093 35.0342V48.6753C96.1093 49.6743 96.3504 50.8455 95.1103 51.3278C93.7668 51.8445 93.1468 50.7766 92.4578 49.9843C89.5298 46.6085 86.6363 43.2327 83.3982 39.4779V49.8121C83.3982 50.7077 82.6748 51.4311 81.7792 51.4311C80.8836 51.4311 80.1602 50.7077 80.1602 49.8121C80.1602 45.8507 80.1602 37.4455 80.1602 35.4476C80.1602 34.6208 80.2291 33.8286 81.1591 33.4841C82.0892 33.1396 82.6748 33.6219 83.226 34.2764C85.844 37.3077 88.4275 40.3391 91.0455 43.3705C91.5622 43.9561 92.0789 44.5417 92.9746 45.5406C92.9746 43.1293 92.9746 37.7211 92.9746 35.0342C92.9746 34.1386 93.6635 33.4496 94.5247 33.4496Z" fill="white"/>
<path d="M57.3216 40.8203V35.1709C57.3216 34.2753 56.5982 33.5519 55.7026 33.5519C54.807 33.5519 54.0836 34.2753 54.0836 35.1709V43.955C54.0492 46.9519 52.499 48.5365 49.7088 48.502C46.953 48.5365 45.3684 46.9519 45.334 43.955V35.1709C45.334 34.2753 44.6106 33.5519 43.715 33.5519C42.8193 33.5519 42.0959 34.2753 42.0959 35.1709V40.8203C42.0959 42.4737 41.8893 44.9539 42.4749 46.7796C43.3705 49.5354 45.5062 51.1544 48.6409 51.43C48.7787 51.43 48.8821 51.43 49.0198 51.43C49.0887 51.43 49.1576 51.43 49.261 51.43C49.3988 51.43 49.5366 51.43 49.6743 51.43C49.8121 51.43 49.9499 51.43 50.0877 51.43C50.1566 51.43 50.2599 51.43 50.3288 51.43C50.4666 51.43 50.57 51.43 50.7078 51.43C53.8425 51.1544 56.0126 49.5354 56.8738 46.7796C57.5283 44.9195 57.3561 42.4393 57.3216 40.8203Z" fill="white"/>
<path d="M38.6852 35.0335C38.6852 34.1379 37.9618 33.4145 37.0662 33.4145H22.8395C21.9438 33.4145 21.2549 34.1379 21.2549 35.0335C21.2549 35.9291 21.9783 36.6525 22.8739 36.6525H28.3855V49.8803C28.3855 50.7415 29.1089 51.4649 29.9701 51.4649C30.8312 51.4649 31.5546 50.7415 31.5546 49.8803V36.6525H37.1006C37.9618 36.6525 38.6852 35.9291 38.6852 35.0335Z" fill="white"/>
<path d="M90.6655 82.8118C90.6655 80.6416 90.6655 78.4715 90.6655 76.3013C90.6655 75.6812 90.5966 74.9923 91.2511 74.6134C91.94 74.2344 92.4567 74.7167 92.939 75.0612C95.867 77.2658 98.7606 79.4704 101.689 81.675C102.825 82.5362 102.756 83.2941 101.654 84.1208C98.7262 86.3254 95.7981 88.5301 92.9046 90.7347C92.3878 91.1136 91.8022 91.5614 91.1822 91.2514C90.5621 90.9069 90.6655 90.1835 90.6655 89.529C90.631 87.29 90.631 85.0509 90.6655 82.8118Z" fill="#F7941F"/>
<path fill-rule="evenodd" clip-rule="evenodd" d="M62.8324 33.5519C61.9368 33.5519 61.2134 34.2753 61.2134 35.1709L61.1445 50.2244C61.1445 51.0856 61.8335 51.7745 62.6947 51.7745C63.5558 51.7745 64.2448 51.0856 64.2448 50.2244V44.6095H68.034C71.3754 44.6095 71.7887 44.9884 72.0299 48.2264C72.1332 49.7077 72.5466 51.0511 74.0967 51.6712C74.7857 51.9467 75.4746 51.8434 75.9569 51.2233C76.3702 50.7411 76.4391 50.0177 75.9913 49.6388C75.1228 48.8668 75.0954 47.8846 75.0675 46.8884C75.0655 46.8177 75.0635 46.747 75.0612 46.6763C74.9923 45.6084 74.7512 44.6095 74.0278 43.8172C73.7867 43.5416 73.4422 43.1282 73.4422 43.1282L74.0967 42.4737C75.7157 40.7514 75.9569 38.6845 75.0612 36.5832C74.1656 34.4475 72.3055 33.6208 70.1008 33.5519H62.8324ZM64.2795 41.923H69.6533C71.1689 41.923 72.409 40.6829 72.409 39.2016C72.409 37.686 71.1689 36.4459 69.6533 36.4459H64.2795V41.923Z" fill="white"/>
<path d="M114.056 45.4713L111.3 42.0266C112.092 41.5443 112.781 40.9587 113.332 40.2698C113.883 39.5808 114.159 38.7196 114.159 37.6862C114.159 36.9973 114.056 36.4117 113.815 35.8605C113.573 35.3438 113.263 34.896 112.885 34.5515C112.506 34.207 112.023 33.9315 111.507 33.7592C110.99 33.587 110.404 33.4836 109.784 33.4836C109.233 33.4836 108.716 33.587 108.234 33.7592C107.717 33.9315 107.304 34.207 106.891 34.5515C106.512 34.896 106.202 35.3094 105.961 35.8261C105.719 36.3083 105.616 36.8595 105.616 37.4795C105.616 38.2374 105.754 38.9263 106.064 39.4775C106.34 40.0631 106.718 40.6142 107.166 41.1998C106.718 41.441 105.788 41.9921 105.341 42.3022C104.893 42.6122 104.376 42.9911 103.997 43.4045C103.549 43.8867 103.377 44.1623 103.101 44.7479C102.964 45.0579 102.791 45.7124 102.757 46.298C102.688 47.0903 102.791 47.7104 103.067 48.296C103.343 48.9505 103.722 49.5016 104.169 49.9495C104.548 50.3284 105.237 50.7417 105.823 50.9484C106.512 51.224 107.476 51.4651 108.751 51.4651C109.646 51.4651 110.645 51.2929 111.369 50.9484C112.092 50.604 112.609 50.3628 113.401 49.7083C113.436 49.6739 113.47 49.6394 113.505 49.605C114.366 50.6728 115.709 51.3962 117.225 51.3962C118.224 51.3962 119.154 51.0862 119.946 50.5351C120.738 49.9839 120.704 48.8471 119.912 48.3304L119.808 48.2615C119.361 47.986 118.809 48.0204 118.396 48.3304C118.052 48.5716 117.638 48.7094 117.225 48.7094C116.501 48.7094 115.847 48.3304 115.468 47.7448C115.468 47.7448 116.846 46.1258 117.638 44.9202C117.983 44.369 117.879 43.6456 117.397 43.2322C116.777 42.7155 115.881 42.8878 115.468 43.5767C115.02 44.2656 114.435 45.0235 114.056 45.4713ZM108.923 36.2394C109.199 35.9638 109.543 35.8261 109.922 35.8261C110.301 35.8261 110.645 35.9983 110.955 36.3083C111.231 36.6184 111.403 37.0317 111.403 37.4795C111.403 38.0996 111.231 38.5818 110.921 38.9608C110.611 39.3397 110.232 39.6497 109.784 39.9597C109.474 39.5464 109.199 39.2019 108.923 38.7541C108.682 38.3407 108.51 37.8929 108.51 37.3417C108.51 36.8939 108.647 36.515 108.923 36.2394ZM110.542 48.3993C109.922 48.606 109.405 48.7782 108.854 48.7782C108.544 48.7782 107.924 48.7094 107.649 48.606C107.373 48.4682 107.132 48.3304 106.925 48.1237C106.718 47.9171 106.546 47.6759 106.408 47.3659C106.271 47.0559 106.202 46.7459 106.236 46.4014C106.236 46.0569 106.305 45.7813 106.408 45.5058C106.546 45.1957 106.718 44.9546 106.925 44.7135C107.132 44.4723 107.545 44.1623 107.821 43.9901C108.096 43.8178 108.544 43.6111 108.82 43.4734L112.023 47.607C111.748 47.8137 110.852 48.296 110.542 48.3993Z" fill="white"/>
</svg>
