<svg xmlns="http://www.w3.org/2000/svg" viewBox="0 0 51.763 51" xml:space="preserve"><path d="M25.977 0C12.045 0 .73 11.315.73 25.162c0 4.391 1.182 8.613 3.378 12.497L.393 51l13.594-3.631c3.969 2.111 8.106 3.293 11.99 3.293 13.763 0 25.416-11.652 25.416-25.5S39.994 0 25.977 0zm0 48.974c-3.715 0-7.684-1.182-11.483-3.293l-.338-.169-11.399 3.124 3.124-11.23-.169-.338C3.601 33.437 2.419 29.3 2.419 25.162c0-12.919 10.555-23.474 23.558-23.474 13.088 0 23.727 10.555 23.727 23.474S38.812 48.974 25.977 48.974z"/><path d="m38.643 29.806-5.32-2.449c-.76-.338-1.52-.084-2.026.507l-2.026 2.618c-1.52-.591-5.742-2.449-8.19-7.008l1.858-2.195a1.697 1.697 0 0 0 .253-1.773l-2.28-5.404c-.253-.591-.76-1.013-1.435-1.013l-1.604-.084c-.676 0-1.435.169-1.942.676-.76.676-2.195 2.111-2.618 4.053-.591 2.786.338 6.079 2.702 9.288 1.435 2.026 5.826 8.022 14.27 10.386a8.553 8.553 0 0 0 2.449.338c1.435 0 2.786-.422 3.969-1.098 1.351-.844 2.28-2.28 2.618-3.8l.253-1.182c.166-.762-.256-1.522-.931-1.86zm-1.098 2.618c-.253 1.098-.929 2.111-1.858 2.702-1.435.929-3.124 1.098-4.982.591-7.853-2.195-11.99-7.853-13.341-9.71-2.026-2.786-2.871-5.657-2.364-7.937.338-1.52 1.435-2.618 2.111-3.209.169-.169.422-.253.676-.253l1.689.169 2.28 5.32-2.026 2.28a1.565 1.565 0 0 0-.169 1.604c2.786 5.404 7.853 7.515 9.372 8.022.591.169 1.182 0 1.604-.507l2.026-2.702 5.32 2.449-.338 1.181z"/></svg>