<svg width="33" height="22" viewBox="0 0 33 22" fill="none" xmlns="http://www.w3.org/2000/svg">
<path fill-rule="evenodd" clip-rule="evenodd" d="M13.125 15.6429V6.35711L21.75 11.0002L13.125 15.6429ZM32.3104 3.43537C31.9309 2.08308 30.8126 1.01821 29.3929 0.656806C26.8194 0 16.5 0 16.5 0C16.5 0 6.18056 0 3.60713 0.656806C2.18738 1.01821 1.06912 2.08308 0.689625 3.43537C0 5.88624 0 11 0 11C0 11 0 16.1136 0.689625 18.5646C1.06912 19.9169 2.18738 20.9818 3.60713 21.3434C6.18056 22 16.5 22 16.5 22C16.5 22 26.8194 22 29.3929 21.3434C30.8126 20.9818 31.9309 19.9169 32.3104 18.5646C33 16.1136 33 11 33 11C33 11 33 5.88624 32.3104 3.43537Z" fill="#98A7B1"/>
</svg>
