<svg xmlns="http://www.w3.org/2000/svg" xmlns:xlink="http://www.w3.org/1999/xlink" width="25" height="25" viewBox="0 0 25 25">
  <defs>
    <clipPath id="clip-BK-Info_1">
      <rect width="25" height="25"/>
    </clipPath>
  </defs>
  <g id="BK-Info_1" data-name="BK-Info – 1" clip-path="url(#clip-BK-Info_1)">
    <rect width="25" height="25" fill="#fff"/>
    <g id="info-circle" transform="translate(0 0)">
      <path id="Pfad_3" data-name="Pfad 3" d="M12.5,23.437A10.937,10.937,0,1,1,23.437,12.5,10.937,10.937,0,0,1,12.5,23.437ZM12.5,25A12.5,12.5,0,1,0,0,12.5,12.5,12.5,0,0,0,12.5,25Z" fill="#707070"/>
      <path id="Pfad_4" data-name="Pfad 4" d="M10.3,8.325l-3.578.448-.128.594.7.13c.459.109.55.275.45.733L6.591,15.648c-.3,1.4.164,2.061,1.262,2.061a3.236,3.236,0,0,0,2.289-.934l.137-.65a1.731,1.731,0,0,1-1.072.384c-.43,0-.586-.3-.475-.833Zm.109-3.262A1.562,1.562,0,1,1,8.844,3.5,1.562,1.562,0,0,1,10.406,5.062Z" transform="translate(3.656 1.969)" fill="#707070"/>
    </g>
  </g>
</svg>
