<?xml version="1.0" encoding="UTF-8"?>
<svg width="50px" height="50px" viewBox="0 0 50 50" version="1.1" xmlns="http://www.w3.org/2000/svg" xmlns:xlink="http://www.w3.org/1999/xlink">
    <title>CTA - Where to buy Copy</title>
    <g id="Pagina-di-prodotto-v2" stroke="none" stroke-width="1" fill="none" fill-rule="evenodd">
        <g id="PDP/Mob_Sticky-details2" transform="translate(-305.000000, -30.000000)">
            <g id="CTA---Where-to-buy-Copy" transform="translate(305.000000, 30.000000)">
                <rect id="Rectangle" fill="#b24c24" x="0" y="0" width="50" height="50" rx="5"></rect>
                <polyline id="Stroke-1" stroke="#FFFFFF" stroke-linecap="round" stroke-linejoin="round" points="17.3967304 32.5826882 31.8331684 32.5826882 35.7142857 22.0267417 14.6023927 22.0267417"></polyline>
                <polyline id="Stroke-3" stroke="#FFFFFF" stroke-linecap="round" stroke-linejoin="round" points="10.2040816 19.3877551 13.0157034 19.3877551 17.2413793 32.5826882"></polyline>
                <path d="M22.5193526,38.3007388 C22.5193526,39.5151868 21.534781,40.4996481 20.320197,40.4996481 C19.1056131,40.4996481 18.1210415,39.5151868 18.1210415,38.3007388 C18.1210415,37.0857984 19.1056131,36.1013371 20.320197,36.1013371 C21.534781,36.1013371 22.5193526,37.0857984 22.5193526,38.3007388 Z" id="Stroke-5" stroke="#FFFFFF" stroke-linecap="round" stroke-linejoin="round"></path>
                <path d="M32.1956369,38.3007388 C32.1956369,39.5151868 31.2110653,40.4996481 29.9964814,40.4996481 C28.7818974,40.4996481 27.7973258,39.5151868 27.7973258,38.3007388 C27.7973258,37.0857984 28.7818974,36.1013371 29.9964814,36.1013371 C31.2110653,36.1013371 32.1956369,37.0857984 32.1956369,38.3007388 Z" id="Stroke-5" stroke="#FFFFFF" stroke-linecap="round" stroke-linejoin="round"></path>
                <circle id="Oval" fill="#FFFFFF" cx="31.6326531" cy="19.3877551" r="10.2040816"></circle>
                <text id="+" font-family="MyriadPro-Black, Myriad Pro" font-size="12" font-weight="700" letter-spacing="1.84615418" fill="#b24c24">
                    <tspan x="28.1539841" y="22.3877551">+</tspan>
                </text>
            </g>
        </g>
    </g>
</svg>