<svg width="69" height="13" viewBox="0 0 69 13" fill="none" xmlns="http://www.w3.org/2000/svg">
<path fill-rule="evenodd" clip-rule="evenodd" d="M50.2444 8.0502C49.1494 8.0502 48.9173 7.07857 48.9173 5.95617C48.9173 4.75001 49.1827 3.82864 50.2941 3.82864C51.0108 3.82864 51.3353 4.23919 51.4749 4.85053L52.7534 4.36684C52.4137 3.31257 51.6415 2.73975 50.2776 2.73975C48.3199 2.73975 47.5237 3.89565 47.5071 5.95617C47.5071 7.88255 48.2205 9.13909 50.2444 9.13909C51.6584 9.13909 52.424 8.52526 52.7574 7.49888L51.468 7.01094C51.3155 7.63602 50.9663 8.0502 50.2444 8.0502Z" fill="#b24c24"/>
<path fill-rule="evenodd" clip-rule="evenodd" d="M55.1047 8.99442V0.125L53.7332 0.242266V8.99442H55.1047Z" fill="#b24c24"/>
<path fill-rule="evenodd" clip-rule="evenodd" d="M61.1482 2.95184V8.99127L60.134 8.98852L60.0178 8.53633C59.6031 8.77086 58.84 9.07228 58.1601 9.07228C56.9159 9.07228 56.0037 8.15116 56.0037 5.93999V2.94922H57.3803V6.19127C57.3803 7.43081 57.878 7.7491 58.7738 7.7491C59.1221 7.7491 59.4537 7.68209 59.7737 7.56483V3.09786L61.1482 2.95184Z" fill="#b24c24"/>
<mask id="mask0" mask-type="alpha" maskUnits="userSpaceOnUse" x="62" y="0" width="6" height="10">
<path fill-rule="evenodd" clip-rule="evenodd" d="M62.1765 0.125H67.195V9.13894H62.1765V0.125Z" fill="white"/>
</mask>
<g mask="url(#mask0)">
<path fill-rule="evenodd" clip-rule="evenodd" d="M62.1765 9.05743H63.177L63.2899 8.6175C63.6933 8.84565 64.4356 9.13894 65.0973 9.13894C66.3076 9.13894 67.1951 8.2427 67.1951 6.09179C67.1951 3.98976 66.2591 2.94687 64.71 2.94687C64.1451 2.94687 63.5158 3.07727 63.5158 3.07727V0.125L62.1765 0.242266V9.05743ZM63.5158 4.15278C63.887 4.13641 64.0968 4.13641 64.4841 4.13641C65.3071 4.13641 65.8558 4.57634 65.8558 6.3362C65.8558 7.54198 65.3716 7.85152 64.5002 7.85152C64.1613 7.85152 63.8386 7.78651 63.5158 7.67237V4.15278Z" fill="#b24c24"/>
</g>
<path fill-rule="evenodd" clip-rule="evenodd" d="M11.9275 0.242266L13.3043 0.125V2.28579L13.271 3.08964H13.3209C13.9511 2.85524 14.4653 2.73797 15.0957 2.73797C16.2071 2.73797 16.9535 3.24041 16.9535 5.16679V9.00242H15.5767V5.26718C15.5767 4.11153 15.0128 3.96076 14.3824 3.96076C13.9844 3.96076 13.6526 4.04452 13.3043 4.14503V9.00242H11.9275V0.242266Z" fill="#231F20"/>
<path fill-rule="evenodd" clip-rule="evenodd" d="M18.8279 0.325928C19.5411 0.325928 19.6572 0.744733 19.6572 1.21367C19.6572 1.68273 19.5078 2.10141 18.8279 2.10141C18.1478 2.10141 18.0151 1.66598 18.0151 1.21367C18.0151 0.744733 18.1478 0.325928 18.8279 0.325928ZM18.1478 9.00233H19.5245V2.82163H18.1478V9.00233Z" fill="#231F20"/>
<path fill-rule="evenodd" clip-rule="evenodd" d="M20.6854 2.8218H21.6143L21.7968 3.32436H21.8797C22.2447 3.00607 22.8086 2.73804 23.5717 2.73804C23.6546 2.73804 23.7541 2.73804 23.8536 2.75491V4.11159C23.6048 4.07809 23.3394 4.02783 23.074 4.02783C22.6926 4.02783 22.394 4.11159 22.0456 4.27912V9.00249H20.6689V2.8218H20.6854Z" fill="#231F20"/>
<mask id="mask1" mask-type="alpha" maskUnits="userSpaceOnUse" x="24" y="0" width="2" height="10">
<path fill-rule="evenodd" clip-rule="evenodd" d="M24.4509 0.125H25.8276V9.0025H24.4509V0.125Z" fill="white"/>
</mask>
<g mask="url(#mask1)">
<path fill-rule="evenodd" clip-rule="evenodd" d="M24.4509 9.00255V0.242391L25.8276 0.125V9.00255H24.4509Z" fill="#231F20"/>
</g>
<path fill-rule="evenodd" clip-rule="evenodd" d="M35.4979 2.73804C37.4387 2.73804 38.185 3.89382 38.185 5.95409C38.185 7.88034 37.4884 9.13663 35.4646 9.13663C33.4411 9.13663 32.7278 7.88034 32.7278 5.95409C32.7444 3.89382 33.5406 2.73804 35.4979 2.73804ZM36.7918 5.95409C36.7918 4.78156 36.6093 3.82681 35.5145 3.82681C34.4031 3.82681 34.1378 4.74805 34.1378 5.95409C34.1378 7.07636 34.37 8.04786 35.4646 8.04786C36.5429 8.04786 36.7918 7.12662 36.7918 5.95409Z" fill="#231F20"/>
<path fill-rule="evenodd" clip-rule="evenodd" d="M41.6518 2.73804C43.5926 2.73804 44.3391 3.89382 44.3391 5.95409C44.3391 7.88034 43.6423 9.13663 41.6187 9.13663C39.5951 9.13663 38.8818 7.88034 38.8818 5.95409C38.8985 3.89382 39.6946 2.73804 41.6518 2.73804ZM42.9457 5.95409C42.9457 4.78156 42.7632 3.82681 41.6685 3.82681C40.5571 3.82681 40.2916 4.74805 40.2916 5.95409C40.2916 7.07636 40.5241 8.04786 41.6187 8.04786C42.6968 8.04786 42.9457 7.12662 42.9457 5.95409Z" fill="#231F20"/>
<mask id="mask2" mask-type="alpha" maskUnits="userSpaceOnUse" x="45" y="0" width="2" height="10">
<path fill-rule="evenodd" clip-rule="evenodd" d="M45.2344 0.125H46.6112V9.0025H45.2344V0.125Z" fill="white"/>
</mask>
<g mask="url(#mask2)">
<path fill-rule="evenodd" clip-rule="evenodd" d="M45.2344 9.00255V0.242391L46.6112 0.125V9.00255H45.2344Z" fill="#231F20"/>
</g>
<mask id="mask3" mask-type="alpha" maskUnits="userSpaceOnUse" x="26" y="2" width="7" height="10">
<path fill-rule="evenodd" clip-rule="evenodd" d="M26.8557 2.73779H32.0144V11.9504H26.8557V2.73779Z" fill="white"/>
</mask>
<g mask="url(#mask3)">
<path fill-rule="evenodd" clip-rule="evenodd" d="M26.8557 2.82155H27.8841L28.0002 3.27386C28.4149 3.03933 29.178 2.73779 29.8581 2.73779C31.1021 2.73779 32.0144 3.65904 32.0144 5.87008C32.0144 8.03087 31.0523 9.10288 29.4599 9.10288C28.8794 9.10288 28.2325 8.96887 28.2325 8.96887V11.7996L26.8557 11.9504V2.82155ZM28.2325 7.86335C28.6139 7.8801 28.8296 7.8801 29.2278 7.8801C30.0736 7.8801 30.6376 7.42791 30.6376 5.6188C30.6376 4.37939 30.14 4.06109 29.2443 4.06109C28.896 4.06109 28.5642 4.1281 28.2325 4.24537V7.86335Z" fill="#231F20"/>
</g>
<mask id="mask4" mask-type="alpha" maskUnits="userSpaceOnUse" x="0" y="0" width="12" height="9">
<path fill-rule="evenodd" clip-rule="evenodd" d="M0 0.221191H11.1991V8.98573H0V0.221191Z" fill="white"/>
</mask>
<g mask="url(#mask4)">
<path fill-rule="evenodd" clip-rule="evenodd" d="M9.80567 0.221191L8.05532 6.59853L6.30483 0.221191H4.9114L3.14392 6.59853L1.41056 0.221191H0L2.4472 8.98573H3.87476L5.62512 2.62513L7.34147 8.98573H8.76903L11.1991 0.221191H9.80567Z" fill="#231F20"/>
</g>
</svg>
