<?xml version="1.0" encoding="utf-8"?>
<!-- Generator: Adobe Illustrator 26.0.3, SVG Export Plug-In . SVG Version: 6.00 Build 0)  -->
<svg version="1.1" id="Layer_1" xmlns="http://www.w3.org/2000/svg" xmlns:xlink="http://www.w3.org/1999/xlink" x="0px" y="0px"
viewBox="0 0 50 50" style="enable-background:new 0 0 50 50;" xml:space="preserve">
<style type="text/css">
.st0{fill:#97C969;}
</style>
<g>
<path class="st0" d="M0.39,29.36c0.17-0.62,0.65-1.11,1.31-1.33c0.83-0.27,1.54-0.04,2.14,0.55c1.08,1.07,2.15,2.15,3.22,3.22
c2.24,2.24,4.48,4.47,6.71,6.72c0.28,0.28,0.41,0.29,0.69,0C24.93,28.05,35.41,17.58,45.89,7.1c0.6-0.6,1.24-0.99,2.13-0.76
c1.4,0.37,1.96,2.03,1.04,3.15c-0.12,0.15-0.26,0.28-0.39,0.42C37.71,20.87,26.74,31.84,15.78,42.8c-1.13,1.13-2.19,1.13-3.31,0.01
c-3.73-3.73-7.46-7.46-11.2-11.18c-0.36-0.36-0.63-0.77-0.88-1.2C0.3,30.03,0.28,29.77,0.39,29.36z"/>
</g>
</svg>
