<svg width="32" height="32" viewBox="0 0 32 32" fill="none" xmlns="http://www.w3.org/2000/svg">
<path d="M30 1.57C30.24 1.57 30.43 1.76 30.43 2V30C30.43 30.24 30.24 30.43 30 30.43H2C1.76 30.43 1.57 30.24 1.57 30V2C1.57 1.76 1.76 1.57 2 1.57H30ZM30 0H2C0.9 0 0 0.9 0 2V30C0 31.1 0.9 32 2 32H30C31.1 32 32 31.1 32 30V2C32 0.9 31.1 0 30 0Z" fill="#EDAC09"/>
<path d="M16.02 22.5C18.4943 22.5 20.5 20.4943 20.5 18.02C20.5 15.5458 18.4943 13.54 16.02 13.54C13.5458 13.54 11.54 15.5458 11.54 18.02C11.54 20.4943 13.5458 22.5 16.02 22.5Z" stroke="#EDAC09" stroke-width="0.8839" stroke-miterlimit="3.864" stroke-linecap="round" stroke-linejoin="round"/>
<g opacity="0.5">
<path opacity="0.5" d="M8.65039 11.5699V18.4799C8.65039 22.2999 11.9504 25.3899 16.0204 25.3899C20.0904 25.3899 23.3904 22.2999 23.3904 18.4799V11.5699" stroke="#EDAC09" stroke-miterlimit="3.864" stroke-linecap="round" stroke-linejoin="round"/>
<path opacity="0.5" d="M27.7705 11.11H4.73047" stroke="#EDAC09" stroke-miterlimit="3.864" stroke-linecap="round" stroke-linejoin="round"/>
<g opacity="0.5">
<path opacity="0.5" d="M28 5.12H4.5V28.16H28V5.12Z" stroke="#EDAC09" stroke-miterlimit="3.864" stroke-linecap="round" stroke-linejoin="round"/>
<path opacity="0.5" d="M25.7002 28.62V31.38" stroke="#EDAC09" stroke-miterlimit="3.864" stroke-linecap="round" stroke-linejoin="round"/>
<path opacity="0.5" d="M6.33984 28.62V31.38" stroke="#EDAC09" stroke-miterlimit="3.864" stroke-linecap="round" stroke-linejoin="round"/>
</g>
</g>
<path d="M16.0196 8.79996C16.5277 8.79996 16.9396 8.38806 16.9396 7.87996C16.9396 7.37186 16.5277 6.95996 16.0196 6.95996C15.5115 6.95996 15.0996 7.37186 15.0996 7.87996C15.0996 8.38806 15.5115 8.79996 16.0196 8.79996Z" fill="#EDAC09"/>
</svg>
