<svg xmlns="http://www.w3.org/2000/svg" width="34" height="34" viewBox="0 0 34 34">
    <path fill="#000" fill-rule="nonzero" d="M0 16.996c0 3.683 1.211 7.296 3.43 10.236l.227.302-.143.362c-.518 1.3-1.292 2.355-2.298 3.097-.286.215-.419.582-.346.959.073.374.316.63.66.685.523.085 1.066.124 1.594.124 1.7 0 3.225-.409 4.568-1.215l.257-.155.254.155A16.943 16.943 0 0 0 16.997 34C26.417 34 34 26.337 34 17.005S26.425 0 17.006 0C7.586.001 0 7.664 0 16.996zM17 .752c8.892 0 16.21 7.225 16.21 16.206 0 8.566-6.706 15.554-15.036 16.18l-1.172.032c-3.141 0-6.191-.907-8.823-2.62a.288.288 0 0 0-.165-.047.33.33 0 0 0-.175.056l.008-.008c-1.436.987-3.15 1.452-4.99 1.374l-1.342-.056.999-1.025c.848-.873 1.494-1.977 1.936-3.333a.439.439 0 0 0-.067-.388A16.006 16.006 0 0 1 .79 16.959C.79 7.977 8.108.753 17 .753l-.002-.001zm.106 15.322a.779.779 0 0 0-.79.79c0 .444.347.791.79.791.444 0 .791-.347.791-.792a.779.779 0 0 0-.79-.79zm-6.036 0a.779.779 0 0 0-.79.79c0 .444.346.791.79.791.444 0 .79-.347.79-.792a.779.779 0 0 0-.79-.79zm11.86 0a.779.779 0 0 0-.79.79c0 .444.346.791.79.791.444 0 .79-.347.79-.792a.779.779 0 0 0-.79-.79z"></path>
</svg>