<svg width="24" height="24" viewBox="0 0 24 24" fill="none" xmlns="http://www.w3.org/2000/svg">
<path d="M18 7.84502C19.6569 7.84502 21 6.52789 21 4.90313C21 3.27837 19.6569 1.96124 18 1.96124C16.3431 1.96124 15 3.27837 15 4.90313C15 6.52789 16.3431 7.84502 18 7.84502Z" fill="#F3FAFD" stroke="#0090D0" stroke-width="1.5" stroke-linecap="round" stroke-linejoin="round"/>
<path d="M6 14.7095C7.65685 14.7095 9 13.3923 9 11.7676C9 10.1428 7.65685 8.82568 6 8.82568C4.34315 8.82568 3 10.1428 3 11.7676C3 13.3923 4.34315 14.7095 6 14.7095Z" fill="#F3FAFD" stroke="#0090D0" stroke-width="1.5" stroke-linecap="round" stroke-linejoin="round"/>
<path d="M18 21.5738C19.6569 21.5738 21 20.2567 21 18.632C21 17.0072 19.6569 15.6901 18 15.6901C16.3431 15.6901 15 17.0072 15 18.632C15 20.2567 16.3431 21.5738 18 21.5738Z" fill="#F3FAFD" stroke="#0090D0" stroke-width="1.5" stroke-linecap="round" stroke-linejoin="round"/>
<path d="M8.58997 13.2483L15.42 17.1512" stroke="#0090D0" stroke-width="1.5" stroke-linecap="round" stroke-linejoin="round"/>
<path d="M15.41 6.38391L8.58997 10.2868" stroke="#0090D0" stroke-width="1.5" stroke-linecap="round" stroke-linejoin="round"/>
</svg>
