<svg width="5" height="18" viewBox="0 0 5 18" fill="none" xmlns="http://www.w3.org/2000/svg">
<path d="M0.893281 10.5588H3.50856C3.60313 10.5588 3.68374 10.4952 3.68839 10.4162L4.4015 0.159676C4.40461 0.117819 4.386 0.0775127 4.3519 0.0480579C4.31779 0.0170528 4.27128 0 4.22168 0H0.178614C0.129006 0 0.0824982 0.0170528 0.0483926 0.0480579C0.0158372 0.0775127 -0.00276542 0.11937 0.000335083 0.159676L0.713452 10.4162C0.718102 10.4952 0.797165 10.5588 0.893281 10.5588ZM0.0840483 15.9506C0.0840483 15.5723 0.138308 15.2529 0.246825 14.991C0.355343 14.729 0.505718 14.5181 0.699499 14.3585C0.891731 14.1972 1.11962 14.081 1.38161 14.0081C1.64205 13.9368 1.9211 13.8996 2.2203 13.8996C2.50244 13.8996 2.76909 13.9368 3.02333 14.0081C3.27602 14.081 3.49926 14.1972 3.69304 14.3585C3.88527 14.5181 4.03875 14.729 4.15191 14.991C4.26508 15.2529 4.32089 15.5723 4.32089 15.9506C4.32089 16.3118 4.26508 16.6203 4.15191 16.8776C4.03875 17.1365 3.88682 17.3489 3.69304 17.5179C3.49926 17.6868 3.27757 17.8078 3.02333 17.8853C2.76909 17.9612 2.50244 18 2.2203 18C1.92265 18 1.6436 17.9612 1.38161 17.8853C1.11962 17.8078 0.891731 17.6853 0.699499 17.5179C0.507268 17.3473 0.355343 17.1365 0.246825 16.8776C0.138308 16.6218 0.0840483 16.3118 0.0840483 15.9506Z" fill="#EDB112"/>
</svg>
