<svg width="27" height="24" viewBox="0 0 27 24" fill="none" xmlns="http://www.w3.org/2000/svg">
<path fill-rule="evenodd" clip-rule="evenodd" d="M22.6667 20C22.6667 20.736 22.0693 21.3333 21.3333 21.3333C20.5973 21.3333 20 20.736 20 20C20 19.264 20.5973 18.6667 21.3333 18.6667C22.0693 18.6667 22.6667 19.264 22.6667 20ZM13.3333 16H2.66667L2.688 2.66667H17.3333L17.312 16H13.3333ZM6.66667 20C6.66667 20.736 6.06933 21.3333 5.33333 21.3333C4.59733 21.3333 4 20.736 4 20C4 19.264 4.59733 18.6667 5.33333 18.6667C6.06933 18.6667 6.66667 19.264 6.66667 20ZM24 12.64V16H20V9.44133L24 12.64ZM26.1667 10.9587L20 6.02533V2.66667C20 1.196 18.916 0 17.5827 0H2.416C1.084 0 0 1.196 0 2.66667V16C0 17.164 0.684 18.1453 1.628 18.5093C1.44133 18.9707 1.33333 19.472 1.33333 20C1.33333 22.2053 3.128 24 5.33333 24C7.53867 24 9.33333 22.2053 9.33333 20C9.33333 19.5293 9.23733 19.0853 9.08667 18.6667H13.3333H17.58C17.4293 19.0853 17.3333 19.5293 17.3333 20C17.3333 22.2053 19.128 24 21.3333 24C23.5387 24 25.3333 22.2053 25.3333 20C25.3333 19.5293 25.2373 19.0853 25.0867 18.6667H25.3333C26.0707 18.6667 26.6667 18.0707 26.6667 17.3333V12C26.6667 11.5947 26.4827 11.212 26.1667 10.9587Z" fill="#EDAC09"/>
</svg>