<svg width="22" height="24" viewBox="0 0 22 24" fill="none" xmlns="http://www.w3.org/2000/svg">
<path fill-rule="evenodd" clip-rule="evenodd" d="M10.9636 2.43332L2.43636 7.23052V7.40715C2.43636 13.1813 5.56222 18.5279 10.5957 21.3602L10.9636 21.5673L11.3315 21.3602C16.365 18.5279 19.4909 13.1813 19.4909 7.40715V7.23052L10.9636 2.43332ZM10.9636 24C10.5507 24 10.1377 23.8977 9.77103 23.6906L9.40192 23.4823C3.60216 20.2212 0 14.0609 0 7.40715V7.23052C0 6.35464 0.475091 5.5409 1.24011 5.10844L9.76982 0.311246C10.5068 -0.102936 11.4217 -0.104154 12.1562 0.310028L20.6847 5.10723C21.4522 5.5409 21.9273 6.35464 21.9273 7.23052V7.40715C21.9273 14.0609 18.3251 20.2212 12.5253 23.4823L12.1574 23.6894C11.7896 23.8965 11.3766 24 10.9636 24Z" fill="#EDAC09"/>
</svg>
