<?xml version="1.0" standalone="no"?>
<!DOCTYPE svg PUBLIC "-//W3C//DTD SVG 1.1//EN" "http://www.w3.org/Graphics/SVG/1.1/DTD/svg11.dtd" >
<svg xmlns="http://www.w3.org/2000/svg" xmlns:xlink="http://www.w3.org/1999/xlink" version="1.1">
<metadata></metadata>
<defs>
<font id="hotpointregular" horiz-adv-x="1253" >
<font-face units-per-em="2048" ascent="1577" descent="-471" />
<missing-glyph horiz-adv-x="528" />
<glyph unicode="&#xfb01;" horiz-adv-x="1153" d="M37 969q0 26 16.5 41.5t40.5 15.5h152v211q0 128 74.5 199t199.5 71q24 0 48.5 -3.5t49.5 -11.5t40.5 -23t15.5 -35q0 -25 -15.5 -41.5t-37.5 -16.5q-13 0 -53 11.5t-64 11.5q-65 0 -100 -43t-35 -119v-211h227q24 0 40.5 -16.5t16.5 -40.5q0 -25 -16.5 -41.5 t-40.5 -16.5h-227v-850q0 -26 -18 -43.5t-44 -17.5q-27 0 -44 17t-17 44v850h-152q-23 0 -40 17.5t-17 40.5zM834 1278v20q0 36 23 56t65 20q82 0 82 -76v-20q0 -37 -22 -56.5t-62 -19.5q-41 0 -63.5 19.5t-22.5 56.5zM858 63v924q0 26 18.5 45t43.5 19q27 0 44 -18.5 t17 -45.5v-924q0 -26 -17.5 -44.5t-43.5 -18.5t-44 18.5t-18 44.5z" />
<glyph unicode="&#xfb02;" horiz-adv-x="1171" d="M37 969q0 26 16.5 41.5t40.5 15.5h152v211q0 128 74.5 199t199.5 71q24 0 48.5 -3.5t49.5 -11.5t40.5 -23t15.5 -35q0 -25 -15.5 -41.5t-37.5 -16.5q-13 0 -53 11.5t-64 11.5q-65 0 -100 -43t-35 -119v-211h227q24 0 40.5 -16.5t16.5 -40.5q0 -25 -16.5 -41.5 t-40.5 -16.5h-227v-850q0 -26 -18 -43.5t-44 -17.5q-27 0 -44 17t-17 44v850h-152q-23 0 -40 17.5t-17 40.5zM874 61v1393q0 26 19 44t45 18t42.5 -17.5t16.5 -44.5v-1393q0 -26 -17.5 -43.5t-43.5 -17.5t-44 17.5t-18 43.5z" />
<glyph horiz-adv-x="0" />
<glyph horiz-adv-x="682" />
<glyph unicode=" "  horiz-adv-x="528" />
<glyph unicode="&#x09;" horiz-adv-x="528" />
<glyph unicode="&#xa0;" horiz-adv-x="528" />
<glyph unicode="!" horiz-adv-x="499" d="M172 78v45q0 36 18.5 57t53.5 21h12q35 0 53.5 -21t18.5 -57v-45q0 -36 -18.5 -57t-53.5 -21h-12q-35 0 -53.5 21t-18.5 57zM186 1350q-2 37 14 60.5t50 23.5t49.5 -23t13.5 -61l-22 -906q-3 -43 -41 -43t-41 43z" />
<glyph unicode="&#x22;" horiz-adv-x="821" d="M131 944l51 436q9 54 62 54h65q52 -3 35 -58l-129 -442q-14 -43 -57 -43q-33 0 -27 53zM518 944l53 436q9 54 62 54h65q52 -3 35 -58l-131 -442q-11 -43 -55 -43q-35 0 -29 53z" />
<glyph unicode="#" horiz-adv-x="1382" d="M70 436q0 26 19 43t48 17h187l77 450h-182q-29 0 -48 19.5t-19 48.5q0 26 18.5 42.5t46.5 16.5h207l53 307q3 24 19.5 39t40.5 15q32 0 50.5 -24t12.5 -58l-49 -279h401l54 307q4 25 21 39.5t40 14.5q32 0 49.5 -24t11.5 -58l-47 -279h164q28 0 47 -19t19 -48 q0 -26 -19 -43t-47 -17h-186l-78 -450h184q28 0 47 -19t19 -47q0 -26 -19 -42.5t-47 -16.5h-204l-56 -318q-3 -25 -19.5 -39t-41.5 -14q-32 0 -50 24.5t-12 59.5l49 287h-401l-55 -318q-3 -24 -20 -38.5t-42 -14.5q-31 0 -48.5 24.5t-12.5 59.5l49 287h-164q-29 0 -48 18.5 t-19 46.5zM451 496h403l76 450h-400z" />
<glyph unicode="$" horiz-adv-x="1132" d="M68 231q0 24 19 45t44 21q22 0 43 -21q147 -156 348 -174v574q-73 23 -125 44.5t-107 56t-89 74.5t-56 99t-22 131q0 150 109 251t290 118v158q0 26 17 43.5t45 17.5q27 0 44 -17t17 -44v-156q108 -9 201.5 -50.5t152.5 -109.5q29 -37 29 -59q0 -24 -19.5 -43t-45.5 -19 q-18 0 -33 15q-48 57 -123.5 95.5t-161.5 47.5v-557q74 -22 126.5 -43t107.5 -56t88.5 -76.5t55 -104t21.5 -140.5q0 -143 -110.5 -246t-288.5 -122v-232q0 -26 -17.5 -43.5t-43.5 -17.5q-28 0 -45 17.5t-17 43.5v230q-129 7 -231.5 56t-200.5 144q-22 22 -22 49zM250 1085 q0 -54 20.5 -98t60 -76t84.5 -55t107 -45v518q-123 -14 -197.5 -78.5t-74.5 -165.5zM645 104q122 15 197.5 82.5t75.5 165.5q-3 107 -73 172t-200 113v-533z" />
<glyph unicode="%" horiz-adv-x="1558" d="M78 1073q0 104 31 188t96 136.5t155 52.5q132 0 205.5 -108t73.5 -267q0 -157 -75.5 -265t-207.5 -108t-205 106.5t-73 264.5zM193 1075q0 -120 43 -193t124 -73q82 0 123 72.5t41 191.5q0 121 -43.5 195.5t-124.5 74.5q-82 0 -122.5 -74t-40.5 -194zM274 49q0 15 11 33 l876 1331q20 27 47 27q23 0 40.5 -15.5t17.5 -40.5q0 -14 -11 -32l-876 -1332q-19 -26 -47 -26q-23 0 -40.5 15t-17.5 40zM920 354q0 104 31 188t96 136.5t155 52.5q133 0 207 -107.5t74 -267.5q0 -157 -76 -265.5t-207 -108.5t-205.5 107.5t-74.5 264.5zM1034 356 q0 -119 44 -192.5t124 -73.5q84 0 125 72.5t41 191.5q0 121 -43.5 196t-124.5 75q-84 0 -125 -74.5t-41 -194.5z" />
<glyph unicode="&#x26;" horiz-adv-x="1404" d="M94 446q0 135 78 249t229 173q-86 136 -86 250q0 146 104.5 241t280.5 95q140 0 239 -52.5t140 -133.5q11 -22 11 -39q0 -20 -16.5 -35.5t-41.5 -15.5q-32 0 -45 22q-95 141 -287 141q-123 0 -189.5 -60.5t-66.5 -162.5q0 -150 238 -416q155 -173 375 -360q73 122 98 266 q7 43 55 43q28 0 44.5 -21t13.5 -50q-24 -166 -119 -312q78 -64 197 -153q26 -20 26 -52q0 -21 -14.5 -39t-40.5 -18q-20 0 -37 10q-118 90 -205 160q-186 -196 -485 -196q-107 0 -201 39.5t-157.5 105t-100.5 149.5t-37 172zM221 463q0 -70 25 -135t71.5 -116.5t121 -82.5 t165.5 -31q236 0 381 152q-224 182 -414 399q-66 76 -104 127q-127 -39 -186.5 -122.5t-59.5 -190.5z" />
<glyph unicode="'" horiz-adv-x="434" d="M131 944l51 436q9 54 62 54h65q26 -1 35 -17t0 -41l-129 -442q-11 -43 -57 -43q-33 0 -27 53z" />
<glyph unicode="(" horiz-adv-x="733" d="M98 526q0 282 137 523t386 389q11 8 28 8q22 0 37.5 -17t15.5 -38q0 -31 -26 -48q-213 -124 -334 -346.5t-121 -470.5q0 -252 119.5 -476.5t335.5 -342.5q24 -12 24 -45q0 -23 -13.5 -39t-37.5 -16q-18 0 -31 8q-250 127 -385 374t-135 537z" />
<glyph unicode=")" horiz-adv-x="733" d="M31 -336q0 30 26 47q213 124 334 346.5t121 470.5q0 252 -119.5 477t-335.5 343q-24 12 -24 45q0 23 13.5 39t37.5 16q18 0 31 -8q168 -86 286.5 -231t176 -318t57.5 -363q0 -282 -137 -524t-385 -387q-11 -8 -29 -8q-22 0 -37.5 17t-15.5 38z" />
<glyph unicode="*" horiz-adv-x="790" d="M121.5 1011q6.5 18 28.5 29l174 82q6 2 6 7t-6 6l-174 84q-22 9 -28.5 28.5t5.5 38.5q10 19 29.5 22.5t38.5 -8.5l157 -110q6 -4 10.5 -2t2.5 8l-15 190q-2 22 11.5 37t35.5 15q20 0 32.5 -15t10.5 -37l-14 -190q-2 -6 2 -8t8 2l160 108q19 13 38 9t30 -23 q11 -21 4.5 -38.5t-27.5 -26.5l-176 -84q-6 -1 -6 -6t6 -7l176 -82q21 -10 27.5 -29t-4.5 -38q-10 -19 -29.5 -23t-38.5 8l-160 111q-5 3 -8 0.5t-2 -8.5l14 -191q2 -22 -11.5 -36.5t-35.5 -14.5q-20 0 -32.5 14.5t-10.5 36.5l15 191q1 6 -3 8.5t-10 -0.5l-157 -111 q-19 -12 -39.5 -8t-30.5 23q-10 20 -3.5 38z" />
<glyph unicode="+" horiz-adv-x="1095" d="M66 526q0 25 17.5 41.5t43.5 16.5h354v372q0 29 19.5 47.5t48.5 18.5t46 -18t17 -46v-374h359q26 0 43.5 -18t17.5 -44q0 -24 -17.5 -40.5t-43.5 -16.5h-359v-375q0 -29 -18 -48t-47 -19q-28 0 -47 18.5t-19 46.5v377h-354q-26 0 -43.5 17.5t-17.5 43.5z" />
<glyph unicode="," horiz-adv-x="448" d="M98 -199q0 20 9.5 29t32 15.5t32.5 11.5q28 15 43.5 42.5t15.5 59.5q0 24 -12 37.5t-33 13.5q-34 0 -55 -18q-27 24 -25 55q1 34 38.5 60t78.5 26q53 0 86 -34t33 -93q0 -89 -62.5 -169.5t-127.5 -80.5q-54 0 -54 45z" />
<glyph unicode="-" horiz-adv-x="851" d="M143 535q0 26 17.5 42.5t44.5 16.5h442q26 0 43 -18t17 -46q0 -25 -17 -41t-43 -16h-442q-26 0 -44 18t-18 44z" />
<glyph unicode="." horiz-adv-x="425" d="M135 80v43q0 36 18.5 57t53.5 21h12q35 0 53.5 -21t18.5 -57v-43q0 -37 -18.5 -58.5t-53.5 -21.5h-12q-35 0 -53.5 21.5t-18.5 58.5z" />
<glyph unicode="/" horiz-adv-x="1116" d="M49 -207q0 16 6 31l893 1763q24 49 66 49q22 0 38.5 -15t16.5 -40q0 -19 -10 -37l-891 -1765q-22 -45 -62 -45q-25 0 -41 17t-16 42z" />
<glyph unicode="0" horiz-adv-x="1232" d="M121 717q0 213 53.5 376.5t167 262t274.5 98.5q121 0 217 -56.5t156 -156.5t91.5 -233t31.5 -291q0 -157 -31.5 -290t-91.5 -233.5t-156 -157t-217 -56.5q-161 0 -274.5 99t-167 262.5t-53.5 375.5zM252 717q0 -282 94 -446.5t270 -164.5t270.5 164.5t94.5 446.5 q0 283 -94.5 447.5t-270.5 164.5t-270 -164.5t-94 -447.5z" />
<glyph unicode="1" horiz-adv-x="718" d="M33 1165q0 32 33 52l346 208q24 12 49 9q23 -1 38 -19t15 -43v-1311q0 -26 -18.5 -43.5t-46.5 -17.5q-29 0 -47.5 17.5t-18.5 43.5v1199l-256 -152q-13 -8 -29 -8q-27 0 -46 20.5t-19 44.5z" />
<glyph unicode="2" horiz-adv-x="1081" d="M86 1159q0 17 29 62q56 112 161.5 172.5t231.5 60.5q208 0 324 -112t116 -295q0 -113 -61 -230.5t-203 -273.5l-377 -424h629q26 0 42.5 -17.5t16.5 -42.5q0 -26 -16.5 -42.5t-42.5 -16.5h-766q-29 0 -48.5 16t-19.5 45q0 23 17 43l473 523q117 123 172 220t55 191 q0 139 -84.5 219t-234.5 80q-98 0 -178 -48t-119 -146q-19 -37 -51 -37q-23 0 -44.5 16.5t-21.5 36.5z" />
<glyph unicode="3" horiz-adv-x="1054" d="M74 1376q0 25 17 41.5t42 16.5h688q32 0 48 -20t16 -44t-21 -45l-377 -418h15q85 0 162.5 -30t138 -86t97 -142.5t36.5 -191.5q0 -140 -68 -250t-182.5 -168.5t-253.5 -58.5q-190 0 -307 114q-29 18 -29 49q0 25 18.5 46.5t43.5 21.5q23 0 49 -23q89 -92 237 -92 q154 0 260.5 100.5t106.5 256.5q0 68 -20.5 125t-54.5 95t-79.5 64.5t-95.5 38.5t-102 12q-25 0 -64.5 -7t-48.5 -7q-26 0 -40.5 17.5t-14.5 44.5q0 26 18 47l393 434h-569q-25 0 -42 16.5t-17 42.5z" />
<glyph unicode="4" horiz-adv-x="1091" d="M35 506q0 24 14 41l658 862q20 25 53 25q26 0 42.5 -17.5t16.5 -44.5v-815h139q25 0 42.5 -16.5t17.5 -40.5q0 -25 -17.5 -41.5t-42.5 -16.5h-139v-381q0 -26 -17.5 -43.5t-43.5 -17.5t-44 17.5t-18 43.5v381h-600q-24 0 -42.5 19.5t-18.5 44.5zM203 557h493v651z" />
<glyph unicode="5" horiz-adv-x="1093" d="M121 160q0 22 17 40.5t42 18.5q21 0 45 -18q109 -86 242 -86q177 0 288 104t111 270q0 155 -100.5 251t-267.5 96q-51 0 -105 -14.5t-89.5 -32t-66.5 -32t-42 -14.5q-37 0 -56.5 25t-13.5 57l88 557q3 20 21.5 36t44.5 16h616q25 0 42 -18t17 -44q0 -25 -17 -42t-42 -17 h-573l-70 -424q120 63 274 63q199 0 331 -129t132 -329q0 -219 -146 -358.5t-376 -139.5q-189 0 -320 110q-26 19 -26 54z" />
<glyph unicode="6" horiz-adv-x="1101" d="M109 492q0 101 25 213.5t77 229.5t124 220t175.5 188t222.5 130q16 4 25 4q28 0 46.5 -16t18.5 -48q0 -43 -49 -59q-164 -68 -307 -237t-197 -361q60 70 147 110.5t187 40.5q120 0 218.5 -67t152 -174t53.5 -228t-57.5 -226t-161.5 -168.5t-231 -63.5q-115 0 -207 43.5 t-148 116.5t-85 163t-29 189zM233 432q0 -138 93.5 -236t248.5 -98q142 0 234 95t92 245q0 92 -35 170.5t-109 129t-173 50.5q-159 0 -255 -103t-96 -253z" />
<glyph unicode="7" horiz-adv-x="933" d="M20 1376q0 25 17.5 41.5t42.5 16.5h754q28 0 43.5 -16t15.5 -42q0 -10 -6 -28l-563 -1313q-7 -18 -24 -29.5t-36 -11.5q-24 0 -43.5 16.5t-19.5 40.5q0 16 6 31l530 1235h-657q-25 0 -42.5 16.5t-17.5 42.5z" />
<glyph unicode="8" horiz-adv-x="1114" d="M119 383q0 118 64.5 206.5t162.5 137.5q-83 45 -138.5 129t-55.5 188q0 164 118 277t287 113t287.5 -113t118.5 -277q0 -107 -56 -189t-139 -126q101 -49 166 -140t65 -206q0 -166 -128.5 -282.5t-313.5 -116.5t-311.5 116t-126.5 283zM244 383q0 -122 87 -201.5 t226 -79.5t227 79.5t88 201.5q0 121 -93 204t-222 83q-128 0 -220.5 -83t-92.5 -204zM279 1044q0 -120 82 -197t196 -77t196.5 77t82.5 197t-78 196.5t-201 76.5t-200.5 -76.5t-77.5 -196.5z" />
<glyph unicode="9" horiz-adv-x="1101" d="M74 997q0 121 57.5 226t161.5 169t231 64q115 0 207 -43.5t148 -116.5t85 -163t29 -189q0 -127 -40.5 -267.5t-116 -275t-197.5 -246.5t-270 -169q-16 -4 -25 -4q-27 0 -46 18t-19 45q0 43 49 59q167 71 309.5 230.5t193.5 345.5q-61 -68 -147 -108t-186 -40 q-120 0 -218.5 66t-152 172t-53.5 227zM201 997q0 -92 35 -169.5t108.5 -127t173.5 -49.5q159 0 254.5 101.5t95.5 251.5q0 138 -93.5 235.5t-248.5 97.5q-142 0 -233.5 -95t-91.5 -245z" />
<glyph unicode=":" horiz-adv-x="448" d="M145 78v45q0 36 19 57t55 21h12q35 0 53.5 -21t18.5 -57v-45q0 -36 -18.5 -57t-53.5 -21h-12q-36 0 -55 21t-19 57zM145 932v43q0 37 19 58.5t55 21.5h12q35 0 53.5 -21.5t18.5 -58.5v-43q0 -36 -18.5 -57t-53.5 -21h-12q-36 0 -55 21t-19 57z" />
<glyph unicode=";" horiz-adv-x="581" d="M166 -199q0 20 9.5 29t32 15.5t32.5 11.5q28 15 43.5 42.5t15.5 59.5q0 24 -12 37.5t-33 13.5q-34 0 -55 -18q-27 24 -25 55q1 34 38.5 60t78.5 26q53 0 86 -34t33 -93q0 -89 -62.5 -169.5t-128.5 -80.5q-53 0 -53 45zM221 932v43q0 37 21.5 58.5t58.5 21.5h12 q35 0 56.5 -21.5t21.5 -58.5v-43q0 -35 -21.5 -56.5t-56.5 -21.5h-12q-37 0 -58.5 21.5t-21.5 56.5z" />
<glyph unicode="&#x3c;" horiz-adv-x="1046" d="M63 502q0 44 52 69l704 402q26 16 49 16q24 1 43 -17t19 -40q0 -37 -37 -55l-674 -379l666 -375q27 -13 38 -27t11 -35q0 -25 -16.5 -43t-38.5 -18q-18 0 -54 20l-716 410q-46 22 -46 72z" />
<glyph unicode="=" horiz-adv-x="1089" d="M154 319q0 25 17.5 41.5t45.5 16.5h655q27 0 45.5 -17.5t18.5 -42.5t-18 -42t-46 -17h-655q-28 0 -45.5 17.5t-17.5 43.5zM154 694q0 25 17.5 41.5t45.5 16.5h655q28 0 46 -18t18 -44q0 -24 -18.5 -40.5t-45.5 -16.5h-655q-28 0 -45.5 17.5t-17.5 43.5z" />
<glyph unicode="&#x3e;" horiz-adv-x="1058" d="M113 59q0 22 10.5 35t36.5 27l680 368l-686 385q-37 18 -37 58q0 23 18 40.5t41 16.5q19 0 51 -18l719 -406q51 -30 51 -71q0 -47 -45 -72l-731 -404q-29 -18 -51 -18q-23 0 -40 18.5t-17 40.5z" />
<glyph unicode="?" horiz-adv-x="968" d="M62.5 1274q-3.5 26 15.5 49q66 85 166.5 134.5t212.5 49.5q180 0 303 -120t123 -316q0 -161 -115 -285t-281 -139v-203q0 -26 -16.5 -43.5t-42.5 -17.5q-28 0 -44.5 17.5t-14.5 43.5v244q0 27 17.5 45.5t43.5 18.5q140 8 233 96.5t93 222.5q0 139 -85.5 228.5 t-213.5 89.5q-84 0 -158 -38.5t-125 -103.5q-37 -43 -82 -14q-26 15 -29.5 41zM356 78v45q0 36 18.5 57t53.5 21h12q36 0 55 -21t19 -57v-45q0 -36 -19 -57t-55 -21h-12q-35 0 -53.5 21t-18.5 57z" />
<glyph unicode="@" horiz-adv-x="2025" d="M102 422q0 234 86 430t234.5 326.5t349 203t428.5 72.5q170 0 307.5 -51t225.5 -139t135 -204t47 -249q0 -168 -61.5 -328t-174.5 -265t-247 -105q-96 0 -151.5 55t-43.5 145l6 52q-69 -121 -172.5 -186.5t-214.5 -65.5q-131 0 -216 97.5t-85 240.5q0 77 24 160t69 159.5 t104.5 138t137 98.5t159.5 37q102 0 173.5 -55.5t100.5 -146.5l20 131q7 55 64 55q65 0 53 -74l-96 -614q-10 -64 18.5 -97.5t71.5 -33.5q94 0 178 89t132 228t48 285q0 244 -167 394.5t-445 150.5q-210 0 -391.5 -64.5t-315.5 -182t-211 -295t-77 -392.5q0 -101 23 -193.5 t74.5 -177.5t127 -147.5t188.5 -99.5t250 -37q81 0 144.5 8t126 30t91 35t99.5 47q46 20 62 -22q17 -42 -33 -66q-66 -32 -98 -46t-100.5 -39t-139.5 -35.5t-152 -10.5q-160 0 -290.5 43t-217.5 115t-146.5 170t-85.5 204.5t-26 221.5zM678 455q0 -110 56.5 -174t139.5 -64 q93 0 188.5 64.5t158 169t65.5 211.5q15 125 -50.5 201.5t-182.5 76.5q-83 0 -156 -47.5t-119.5 -120.5t-73 -157t-26.5 -160z" />
<glyph unicode="A" horiz-adv-x="1296" d="M45 51q-2 7 2 25l541 1323q16 41 61 41q44 0 60 -41l538 -1317q4 -16 4 -25q0 -27 -17.5 -43t-43.5 -16q-44 0 -60 41l-153 375h-666l-151 -375q-15 -41 -56 -41q-56 0 -59 53zM358 535h570l-287 700z" />
<glyph unicode="B" horiz-adv-x="1357" d="M205 61v1311q0 26 17.5 44t43.5 18h541q171 0 271 -94t100 -253q0 -113 -55.5 -204.5t-155.5 -130.5q125 -30 203.5 -120.5t78.5 -238.5q0 -100 -34.5 -176.5t-95 -123t-137 -70t-165.5 -23.5h-551q-26 0 -43.5 17.5t-17.5 43.5zM336 121h475q138 0 222.5 69t84.5 207 q0 140 -85.5 208.5t-225.5 68.5h-471v-553zM336 795h459q112 2 182 74t70 204q0 110 -67 175t-187 65h-457v-518z" />
<glyph unicode="C" horiz-adv-x="1359" d="M109 717q0 158 54.5 295t149.5 233.5t228.5 151.5t287.5 55q113 0 222 -33t198 -92q31 -19 31 -51q0 -27 -17.5 -46.5t-41.5 -19.5q-16 0 -43 17q-152 102 -349 102q-262 0 -425.5 -169.5t-163.5 -442.5q0 -279 164.5 -447t424.5 -168q182 0 355 107q15 10 35 10 q26 0 43.5 -19t17.5 -46q0 -34 -29 -50q-78 -53 -194 -88.5t-228 -35.5q-202 0 -365.5 90.5t-259 260t-95.5 386.5z" />
<glyph unicode="D" horiz-adv-x="1501" d="M205 61v1311q0 26 17.5 44t43.5 18h522q119 0 218.5 -38t169 -105t117.5 -158t70.5 -196t22.5 -220q0 -150 -37 -278t-108.5 -227t-187.5 -155.5t-265 -56.5h-522q-26 0 -43.5 17.5t-17.5 43.5zM334 121h434q101 0 183 30.5t138 84t94 129t55 163.5t17 189q0 97 -17 183 t-55 162.5t-94 131.5t-138 87t-183 32h-434v-1192z" />
<glyph unicode="E" horiz-adv-x="1181" d="M205 61v1311q0 26 17.5 44t43.5 18h752q26 0 43.5 -18t17.5 -44t-17.5 -42.5t-43.5 -16.5h-684v-514h592q26 0 43.5 -18t17.5 -44q0 -27 -17 -43t-44 -16h-592v-557h684q26 0 43.5 -18.5t17.5 -43.5q0 -26 -17.5 -42.5t-43.5 -16.5h-752q-26 0 -43.5 17.5t-17.5 43.5z " />
<glyph unicode="F" horiz-adv-x="1122" d="M205 61v1311q0 26 17.5 44t43.5 18h746q26 0 43.5 -18t17.5 -44q0 -25 -17.5 -42t-43.5 -17h-682v-514h590q26 0 43.5 -17t17.5 -43t-17.5 -42.5t-43.5 -16.5h-590v-619q0 -26 -18 -43.5t-44 -17.5q-29 0 -46 17t-17 44z" />
<glyph unicode="G" horiz-adv-x="1433" d="M106 717q0 157 56.5 294t154 234t234.5 153t293 56q228 0 391 -102q29 -17 29 -52q0 -28 -18 -45.5t-40 -17.5q-17 0 -37 10q-155 84 -325 84q-130 0 -243 -46.5t-192.5 -127.5t-125 -195t-45.5 -245q0 -174 77.5 -314.5t216.5 -220.5t312 -80q87 0 176.5 24.5 t159.5 66.5v407h-324q-26 0 -43.5 18t-17.5 44q0 27 17 44t44 17h391q27 0 44.5 -17.5t17.5 -43.5v-494q0 -36 -31 -55q-196 -133 -434 -133q-208 0 -377 95.5t-265 264.5t-96 377z" />
<glyph unicode="H" horiz-adv-x="1499" d="M205 63v1307q0 28 18 46t47 18q27 0 45.5 -18.5t18.5 -45.5v-577h831v577q0 27 19.5 45.5t46.5 18.5q28 0 45.5 -18t17.5 -46v-1307q-2 -28 -19.5 -45.5t-45.5 -17.5q-27 0 -45.5 18t-18.5 45v611h-831v-611q-1 -27 -20 -45t-46 -18q-29 0 -46 17.5t-17 45.5z" />
<glyph unicode="I" horiz-adv-x="540" d="M205 66v1304q0 28 18 46t47 18q28 0 47 -18t19 -46v-1304q0 -29 -19 -47.5t-47 -18.5q-29 0 -47 18.5t-18 47.5z" />
<glyph unicode="J" horiz-adv-x="1079" d="M47 272q0 25 18.5 41.5t40.5 16.5q34 0 58 -35q41 -89 113.5 -141t164.5 -52q141 0 229.5 87.5t88.5 228.5v954q0 26 19.5 44t47.5 18q27 0 44.5 -17.5t17.5 -44.5v-954q0 -191 -125.5 -314.5t-321.5 -123.5q-126 0 -229 71t-158 189q-8 13 -8 32z" />
<glyph unicode="K" horiz-adv-x="1335" d="M205 63v1307q0 28 18 46t47 18q28 0 46 -18t18 -46v-743l827 782q18 21 45 21q25 0 42.5 -18.5t17.5 -41.5q0 -24 -19 -43l-536 -502l573 -725q14 -21 14 -43q0 -30 -21.5 -47.5t-47.5 -17.5t-45 22l-572 719l-278 -262v-408q-2 -28 -20 -45.5t-46 -17.5q-29 0 -46 17.5 t-17 45.5z" />
<glyph unicode="L" horiz-adv-x="1089" d="M205 61v1311q-2 26 17 44t48 18q26 0 44 -18t20 -44v-1251h663q26 0 44 -17t18 -43q0 -27 -17.5 -44t-44.5 -17h-731q-27 0 -44 17t-17 44z" />
<glyph unicode="M" horiz-adv-x="1718" d="M205 61v1311q0 24 17 43t44 19q38 0 56 -27l536 -805l541 805q21 27 49 27h6q25 0 42 -18t17 -44v-1311q0 -26 -18.5 -43.5t-44.5 -17.5q-29 0 -47.5 17.5t-18.5 43.5v1127l-481 -729q-20 -28 -47 -25q-29 -3 -49 25l-481 733v-1131q0 -26 -18 -43.5t-44 -17.5 t-42.5 17.5t-16.5 43.5z" />
<glyph unicode="N" horiz-adv-x="1515" d="M205 66v1302q0 30 17.5 48t43.5 18q35 0 56 -25l860 -1153v1114q0 28 18 46t47 18q28 0 46 -18t18 -46v-1304q0 -30 -18.5 -48t-45.5 -18q-34 0 -55 31l-860 1153v-1118q0 -29 -18 -47.5t-46 -18.5t-45.5 18.5t-17.5 47.5z" />
<glyph unicode="O" horiz-adv-x="1591" d="M109 717q0 212 88 380.5t244.5 262.5t353.5 94q198 0 355 -94t245 -262.5t88 -380.5q0 -211 -88 -379.5t-245 -263t-355 -94.5q-197 0 -354 94.5t-244.5 263t-87.5 379.5zM240 717q0 -271 155 -443t400 -172t401 172t156 443t-156 442.5t-401 171.5t-400 -171.5 t-155 -442.5z" />
<glyph unicode="P" horiz-adv-x="1226" d="M205 63v1309q0 26 17.5 44t43.5 18h475q182 0 295 -114t113 -294q0 -181 -113.5 -300.5t-294.5 -119.5h-405v-543q0 -26 -19.5 -44.5t-46.5 -18.5q-29 0 -47 18t-18 45zM336 727h412q125 0 200.5 83.5t75.5 215.5q0 131 -75 209t-201 78h-412v-586z" />
<glyph unicode="Q" horiz-adv-x="1591" d="M109 717q0 212 88 380.5t244.5 262.5t353.5 94q198 0 355 -94t245 -262.5t88 -380.5q0 -275 -146 -471.5t-385 -249.5l-215 -72q54 -6 108.5 -26t100 -43t93.5 -45t106.5 -37t120.5 -15q115 0 215 66q15 9 34.5 26t34 26t29.5 9q24 0 39.5 -15.5t15.5 -39.5 q0 -45 -61 -89t-147.5 -70.5t-163.5 -26.5q-90 0 -166 18t-129 44t-101.5 52t-106 44t-120.5 18q-41 0 -92.5 -23.5t-73.5 -23.5q-26 0 -43.5 18t-17.5 43q0 41 34 53l269 97q-132 14 -244.5 75t-192 156t-124.5 224.5t-45 277.5zM240 717q0 -271 155 -443t400 -172t401 172 t156 443t-156 442.5t-401 171.5t-400 -171.5t-155 -442.5z" />
<glyph unicode="R" horiz-adv-x="1386" d="M205 61v1311q0 26 17.5 44t43.5 18h543q188 0 302 -106.5t114 -276.5q0 -277 -250 -373q99 -31 153.5 -110t55.5 -201q1 -132 16 -181.5t51 -72.5q33 -22 33 -56q0 -21 -17 -38t-44 -17q-29 0 -56 16q-57 34 -81 100.5t-27 219.5q-1 82 -26.5 139t-68.5 85.5t-86.5 40 t-95.5 11.5h-448v-553q0 -26 -19 -43.5t-47 -17.5t-45.5 17.5t-17.5 43.5zM334 731h475q122 9 203.5 91.5t81.5 219.5q0 119 -82 195t-217 76h-461v-582z" />
<glyph unicode="S" horiz-adv-x="1167" d="M84 231q0 24 19 45t44 21q22 0 43 -21q164 -176 402 -176q148 0 245 69.5t97 182.5q-1 54 -22 98.5t-51.5 75.5t-82.5 58.5t-99.5 45.5t-117.5 40q-77 23 -131.5 44.5t-113 56t-94.5 75t-59.5 101t-23.5 134.5q0 164 129 268.5t338 104.5q124 0 234 -42.5t176 -119.5 q28 -36 28 -59q0 -24 -19.5 -43t-45.5 -19q-18 0 -33 15q-57 66 -148 106.5t-192 40.5q-150 0 -245 -66.5t-95 -181.5q0 -50 20 -92.5t49.5 -71.5t79 -55.5t93 -43t106.5 -36.5q60 -18 101 -31.5t92 -35t84.5 -43.5t68.5 -54.5t55 -70t33 -88.5t13 -111q0 -157 -130.5 -264 t-332.5 -108h-6q-148 0 -262 48q-116 49 -224 154q-22 22 -22 49z" />
<glyph unicode="T" horiz-adv-x="1157" d="M31 1374q0 26 17.5 43t43.5 17h973q27 0 45 -17t18 -43q0 -27 -18 -43t-45 -16h-422v-1254q0 -26 -18.5 -43.5t-46.5 -17.5t-46 17.5t-18 43.5v1254h-422q-26 0 -43.5 16.5t-17.5 42.5z" />
<glyph unicode="U" horiz-adv-x="1447" d="M186 524v848q0 27 18 44.5t48 17.5q25 0 43 -18t18 -44v-848q0 -176 121 -298t291 -122q171 0 293.5 122t122.5 298v848q0 27 16.5 44.5t42.5 17.5q27 0 44.5 -17.5t17.5 -44.5v-848q0 -150 -71.5 -274.5t-195 -196t-270.5 -71.5q-149 0 -273 71.5t-195 196t-71 274.5z " />
<glyph unicode="V" horiz-adv-x="1310" d="M45 1376q0 26 19 43t42 17q45 0 62 -45l489 -1178l492 1182q15 41 55 41q27 0 45.5 -17t18.5 -41q0 -12 -6 -30l-549 -1307q-15 -41 -60 -41q-18 0 -33.5 10.5t-21.5 28.5l-545 1304q-8 13 -8 33z" />
<glyph unicode="W" horiz-adv-x="1951" d="M49 1374q0 29 20.5 46.5t47.5 17.5q19 0 35 -10.5t22 -28.5l404 -1174l342 860q16 39 54 39h5h5q36 0 52 -39l342 -858l400 1172q12 39 59 39q28 0 47 -16.5t19 -45.5q0 -6 -5 -26l-452 -1311q-6 -18 -21.5 -28.5t-33.5 -10.5q-45 0 -62 39l-354 874l-352 -874 q-17 -39 -64 -39q-18 0 -33.5 10.5t-19.5 28.5l-453 1311q-4 16 -4 24z" />
<glyph unicode="X" horiz-adv-x="1226" d="M63 47q0 17 17 41l459 625l-463 628q-13 19 -13 37q0 26 19 44t43 18q32 0 51 -25l442 -600l439 598q20 27 49 27q24 0 41.5 -15.5t17.5 -38.5q0 -17 -14 -38l-463 -629l463 -627q12 -18 12 -37q0 -28 -18.5 -45.5t-42.5 -17.5q-31 0 -51 26l-443 600l-438 -598 q-19 -28 -49 -28q-25 0 -41.5 17.5t-16.5 37.5z" />
<glyph unicode="Y" horiz-adv-x="1191" d="M61 1380q0 25 21 43.5t45 18.5q28 0 51 -29l422 -577l416 577q19 29 51 29q26 0 43.5 -19.5t17.5 -42.5q0 -21 -12 -39l-457 -630v-650q0 -26 -17.5 -43.5t-43.5 -17.5q-28 0 -45.5 17.5t-17.5 43.5v652l-459 624q-15 21 -15 43z" />
<glyph unicode="Z" horiz-adv-x="1232" d="M49 63q0 20 14 37l920 1217h-819q-27 0 -44.5 16.5t-17.5 42.5q0 25 18 41.5t44 16.5h932q30 0 48.5 -18t18.5 -44q0 -19 -12 -37l-918 -1218h861q26 0 43.5 -17t17.5 -41q0 -26 -17.5 -42.5t-43.5 -16.5h-981q-27 0 -45.5 19.5t-18.5 43.5z" />
<glyph unicode="[" horiz-adv-x="806" d="M197 -334v1712q0 23 16 39.5t39 16.5h465q25 0 40 -15t15 -39q0 -23 -15 -38t-40 -15h-400v-1606h400q24 0 39.5 -16.5t15.5 -40.5q0 -22 -15.5 -37.5t-39.5 -15.5h-465q-23 0 -39 16t-16 39z" />
<glyph unicode="\" horiz-adv-x="1128" d="M47 1593q0 22 16 37t39 15q19 0 32.5 -6.5t19 -14.5t14.5 -25l903 -1789q8 -13 8 -31q0 -23 -17.5 -37t-39.5 -14q-43 0 -64 43l-903 1790q-8 12 -8 32z" />
<glyph unicode="]" horiz-adv-x="806" d="M35 -336q0 23 16 38t39 15h402v1606h-402q-23 0 -39 17t-16 40q0 22 16 38t39 16h465q24 0 39.5 -16t15.5 -40v-1712q0 -24 -15.5 -39.5t-39.5 -15.5h-465q-23 0 -39 15t-16 38z" />
<glyph unicode="^" horiz-adv-x="1003" d="M90 872q0 20 16 46l316 567q26 49 80 49q32 0 50.5 -11t33.5 -38l315 -570q14 -25 14 -43q0 -25 -17 -43t-44 -18q-42 0 -66 43l-284 528l-291 -528q-21 -43 -63 -43q-26 0 -43 17.5t-17 43.5z" />
<glyph unicode="_" horiz-adv-x="1130" d="M0 -272q0 24 16 38.5t43 14.5h1012q27 0 43 -14.5t16 -40.5q0 -23 -16.5 -38.5t-42.5 -15.5h-1012q-26 0 -42.5 16t-16.5 40z" />
<glyph unicode="`" horiz-adv-x="462" d="M84 1386q0 28 17 44t44 16q38 0 64 -35l139 -182q17 -20 17 -33q0 -15 -11 -26t-28 -11q-23 0 -52 25l-161 149q-29 23 -29 53z" />
<glyph unicode="a" d="M100 528q0 233 139 388t343 155q122 0 223.5 -64t155.5 -161v141q0 27 17 45.5t44 18.5t44 -18t17 -46v-926q0 -26 -17.5 -43.5t-43.5 -17.5t-43.5 17.5t-17.5 43.5v146q-52 -97 -155.5 -162t-225.5 -65q-135 0 -245 71t-172.5 197t-62.5 280zM223 528 q0 -187 105.5 -310.5t267.5 -123.5t267.5 123.5t105.5 310.5q0 182 -106 305t-267 123t-267 -121t-106 -307z" />
<glyph unicode="b" d="M172 57v1395q0 26 17.5 43.5t43.5 17.5q27 0 44.5 -17.5t17.5 -43.5v-604q57 102 157 162.5t220 60.5q206 0 343.5 -154t137.5 -389q0 -234 -138 -391t-341 -157q-119 0 -218.5 59.5t-160.5 155.5v-138q0 -27 -17.5 -45t-44.5 -18q-26 0 -43.5 18.5t-17.5 44.5zM287 528 q0 -187 104.5 -310.5t267.5 -123.5q161 0 267 124.5t106 309.5q0 186 -106 307t-267 121q-164 0 -268 -120t-104 -308z" />
<glyph unicode="c" horiz-adv-x="1064" d="M98 526q0 148 65 272t185.5 198.5t272.5 74.5q96 0 179.5 -22t133 -59t49.5 -79q0 -23 -14.5 -41t-38.5 -18q-22 0 -37.5 10.5t-35.5 30t-42 31.5q-70 32 -186 32q-173 0 -290.5 -124t-117.5 -306q0 -187 113.5 -309.5t290.5 -122.5q116 0 204 47q20 12 40 30t33.5 27 t29.5 9q26 0 40.5 -15t14.5 -40t-28.5 -54.5t-76 -56t-120 -44t-150.5 -17.5q-228 0 -371 154.5t-143 391.5z" />
<glyph unicode="d" horiz-adv-x="1255" d="M100 528q0 233 139 388t343 155q122 0 223.5 -64t155.5 -161v608q0 27 17 44.5t44 17.5t44 -17.5t17 -44.5v-1393q0 -26 -17.5 -43.5t-43.5 -17.5q-27 0 -44 17t-17 44v146q-52 -97 -155.5 -162t-225.5 -65q-135 0 -245 71t-172.5 197t-62.5 280zM223 528 q0 -187 105.5 -310.5t267.5 -123.5t267.5 123.5t105.5 310.5q0 182 -106 305t-267 123t-267 -121t-106 -307z" />
<glyph unicode="e" horiz-adv-x="1150" d="M100 518q0 126 40.5 232.5t107.5 175.5t153 107t179 38q92 0 176 -32.5t150 -93t107 -154t44 -207.5q-2 -25 -20 -42.5t-44 -17.5h-774q2 -188 113.5 -309t300.5 -121q98 0 176 41.5t125 104.5q21 18 45 18q21 0 36 -16t15 -37q0 -26 -20 -43q-64 -79 -164 -130.5 t-211 -51.5q-238 0 -386.5 148.5t-148.5 389.5zM229 635h699v16q-10 93 -63 163t-127.5 104t-157.5 34q-75 0 -145.5 -32t-128.5 -106t-77 -179z" />
<glyph unicode="f" horiz-adv-x="677" d="M37 969q0 26 16.5 41.5t40.5 15.5h152v211q0 128 74.5 199t199.5 71q24 0 48.5 -3.5t49.5 -11.5t40.5 -23t15.5 -35q0 -25 -15.5 -41.5t-37.5 -16.5q-13 0 -53 11.5t-64 11.5q-65 0 -100 -43t-35 -119v-211h227q24 0 40.5 -16.5t16.5 -40.5q0 -25 -16.5 -41.5 t-40.5 -16.5h-227v-850q0 -26 -18 -43.5t-44 -17.5q-27 0 -44 17t-17 44v850h-152q-23 0 -40 17.5t-17 40.5z" />
<glyph unicode="g" horiz-adv-x="1288" d="M100 526q0 234 142.5 389.5t355.5 155.5q128 0 234.5 -63.5t160.5 -153.5v129q0 26 18 45t44 19q27 0 44 -18t17 -46v-887q0 -239 -143 -372.5t-371 -133.5q-110 0 -224 39.5t-124 85.5q-15 17 -15 35.5t17 30.5q10 6 21.5 6t21 -3.5t31.5 -13.5t37 -16q129 -49 239 -49 q181 0 284 104t103 279v127q-34 -74 -98.5 -128.5t-140 -80.5t-154.5 -26q-214 0 -357 155t-143 391zM221 526q0 -186 110.5 -309t280.5 -123q169 0 280.5 121t111.5 311q0 189 -111.5 309.5t-280.5 120.5q-170 0 -280.5 -122.5t-110.5 -307.5z" />
<glyph unicode="h" horiz-adv-x="1173" d="M172 61v1393q0 26 17.5 44t43.5 18q27 0 44.5 -17.5t17.5 -44.5v-602q55 88 153 145.5t203 57.5q94 0 165 -32.5t113.5 -90t63.5 -130.5t21 -161v-580q0 -26 -18 -43.5t-44 -17.5t-43.5 17.5t-17.5 43.5v580q0 134 -63 216.5t-197 82.5q-131 0 -233.5 -89t-102.5 -210 v-580q0 -26 -18 -43.5t-44 -17.5t-43.5 17.5t-17.5 43.5z" />
<glyph unicode="i" horiz-adv-x="464" d="M145 1278v20q0 36 23 56t65 20q82 0 82 -76v-20q0 -37 -22 -56.5t-62 -19.5q-41 0 -63.5 19.5t-22.5 56.5zM170 63v924q0 26 18 45t43 19q27 0 44.5 -18.5t17.5 -45.5v-924q0 -26 -18 -44.5t-44 -18.5t-43.5 18.5t-17.5 44.5z" />
<glyph unicode="j" horiz-adv-x="473" d="M-51 -340q0 47 55 57q75 15 124.5 67t49.5 140v1063q0 26 18 45t44 19q27 0 44 -18.5t17 -45.5v-1081q0 -73 -24.5 -131.5t-66.5 -94.5t-90.5 -57.5t-103.5 -28.5q-29 -3 -48 14t-19 44v8zM154 1280v20q0 36 23 56t65 20q82 0 82 -76v-20q0 -37 -22 -56.5t-62 -19.5 q-41 0 -63.5 19.5t-22.5 56.5z" />
<glyph unicode="k" horiz-adv-x="1052" d="M172 61v1393q0 26 17.5 44t43.5 18q27 0 44.5 -17.5t17.5 -44.5v-934l592 510q21 21 43 21q23 0 41 -19t18 -43q0 -28 -22 -47l-420 -358l442 -475q21 -21 21 -48t-21.5 -44t-42.5 -17q-25 0 -45 23l-450 479l-156 -133v-308q0 -27 -17.5 -44t-44.5 -17q-26 0 -43.5 17.5 t-17.5 43.5z" />
<glyph unicode="l" horiz-adv-x="468" d="M172 61v1393q0 26 19 44t45 18t42.5 -17.5t16.5 -44.5v-1393q0 -26 -18 -43.5t-44 -17.5t-43.5 17.5t-17.5 43.5z" />
<glyph unicode="m" horiz-adv-x="1875" d="M170 61v918q0 26 17.5 43.5t43.5 17.5q27 0 44.5 -17t17.5 -44v-121q56 86 150.5 141.5t197.5 55.5q120 0 206 -57.5t124 -168.5q43 91 157.5 158.5t231.5 67.5q93 0 163.5 -32t112 -89t62 -130.5t20.5 -162.5v-580q0 -26 -17.5 -43.5t-43.5 -17.5q-27 0 -44.5 17 t-17.5 44v574q0 136 -64.5 220.5t-199.5 84.5q-131 0 -232.5 -90.5t-101.5 -214.5v-574q0 -27 -17 -44t-44 -17q-28 0 -45 17t-17 44v580q0 133 -61.5 216t-191.5 83q-128 0 -228 -89t-100 -210v-580q0 -26 -18 -43.5t-44 -17.5t-43.5 17.5t-17.5 43.5z" />
<glyph unicode="n" horiz-adv-x="1191" d="M170 63v924q0 26 18 45t43 19q26 0 44 -19t18 -45v-121q57 91 157 148t214 57q179 0 273.5 -110t94.5 -297v-601q0 -26 -17.5 -44.5t-43.5 -18.5q-25 0 -43.5 18.5t-18.5 44.5v594q0 133 -66.5 216t-201.5 83q-89 0 -168 -42.5t-129.5 -123t-50.5 -180.5v-547 q0 -26 -18 -44.5t-44 -18.5q-25 0 -43 18.5t-18 44.5z" />
<glyph unicode="o" horiz-adv-x="1232" d="M98 524q0 234 149 390.5t369 156.5q146 0 264.5 -71t186.5 -196.5t68 -279.5q0 -234 -148.5 -389t-370.5 -155q-145 0 -263.5 70t-186.5 195t-68 279zM221 524q0 -185 113.5 -307.5t281.5 -122.5q170 0 283 122t113 308q0 187 -112.5 309.5t-283.5 122.5 q-168 0 -281.5 -123t-113.5 -309z" />
<glyph unicode="p" horiz-adv-x="1251" d="M170 -348v1335q0 27 17.5 45.5t43.5 18.5q27 0 44.5 -18.5t17.5 -45.5v-141q55 98 155 153.5t222 55.5q206 0 343.5 -151t137.5 -382q0 -232 -137.5 -384t-341.5 -152q-119 0 -218.5 57.5t-160.5 151.5v-543q0 -27 -17.5 -44.5t-44.5 -17.5q-26 0 -43.5 18t-17.5 44z M285 522q0 -184 104 -303t268 -119q161 0 267 119.5t106 302.5q0 181 -106 299.5t-267 118.5q-164 0 -268 -117.5t-104 -300.5z" />
<glyph unicode="q" d="M100 528q0 233 139 388t343 155q122 0 223.5 -64t155.5 -161v141q0 27 17 45.5t44 18.5t44 -18t17 -46v-1335q0 -26 -17.5 -44t-43.5 -18q-27 0 -44 17.5t-17 44.5v555q-52 -97 -155.5 -162t-225.5 -65q-135 0 -245 71t-172.5 197t-62.5 280zM223 528 q0 -187 105.5 -310.5t267.5 -123.5t267.5 123.5t105.5 310.5q0 182 -106 305t-267 123t-267 -121t-106 -307z" />
<glyph unicode="r" horiz-adv-x="786" d="M170 61v918q0 26 17.5 43.5t43.5 17.5q27 0 44.5 -17t17.5 -44v-186q44 119 140.5 198t225.5 80q43 0 76 -16.5t33 -48.5q0 -30 -16 -47t-39 -17q-11 0 -41.5 10.5t-55.5 10.5q-76 0 -151.5 -57.5t-123.5 -150.5t-48 -188v-506q0 -26 -18 -43.5t-44 -17.5t-43.5 17.5 t-17.5 43.5z" />
<glyph unicode="s" horiz-adv-x="954" d="M98 166q-16 25 -16 44q0 25 27 42q15 14 37 12t40 -20q121 -160 322 -160q97 0 170.5 46.5t73.5 133.5q0 37 -15 67t-37.5 50t-59 37t-68.5 27t-78 22q-63 16 -110 32t-96.5 42.5t-81.5 58t-52.5 77.5t-20.5 103q0 127 101.5 209t254.5 82q88 0 177 -34t155 -107 q18 -18 18 -42t-20 -42q-17 -12 -39 -11.5t-35 15.5q-101 113 -262 113q-97 0 -165 -46t-68 -135q2 -35 17.5 -63t39 -48t61.5 -37.5t74.5 -29t89.5 -24.5q61 -16 102.5 -30t88.5 -39t75 -55.5t47 -78t19 -107.5q0 -133 -105 -211.5t-263 -78.5q-252 0 -398 186z" />
<glyph unicode="t" horiz-adv-x="659" d="M31 987q0 24 16.5 40.5t40.5 16.5h150v226q0 26 17.5 43.5t43.5 17.5q27 0 44 -17t17 -44v-226h205q25 0 42.5 -17t17.5 -40q0 -24 -17.5 -40.5t-42.5 -16.5h-205v-688q0 -79 29.5 -106t77.5 -28q9 0 27.5 5.5t31.5 5.5q18 0 31.5 -15t13.5 -36q0 -29 -33 -48.5 t-77 -19.5h-7q-20 0 -32 0.5t-37 4.5t-42 12.5t-38.5 26t-35 41.5t-22.5 63t-9 88v694h-150q-23 0 -40 17t-17 40z" />
<glyph unicode="u" horiz-adv-x="1161" d="M160 401v586q0 27 17.5 45.5t43.5 18.5t44 -19t18 -45v-586q0 -147 78 -224t219 -77q143 0 222 77t79 224v586q0 27 17 45.5t44 18.5q26 0 44 -19t18 -45v-586q0 -200 -113 -307.5t-311 -107.5q-196 0 -308 107.5t-112 307.5z" />
<glyph unicode="v" horiz-adv-x="1040" d="M53 991q0 24 16.5 42t45.5 18q44 0 59 -41l348 -811l350 811q15 41 60 41q21 0 39 -16t18 -38q0 -8 -8 -32l-401 -926q-7 -17 -23 -28t-33 -11h-6q-40 0 -55 39l-404 924q-6 24 -6 28z" />
<glyph unicode="w" horiz-adv-x="1505" d="M55 989q0 27 17.5 44.5t46.5 17.5q43 0 55 -41l272 -801l244 614q14 39 58 39q43 0 55 -39l256 -606l268 793q15 41 57 41q26 0 44.5 -17.5t17.5 -46.5q0 -8 -4 -24l-318 -924q-16 -39 -55 -39h-6q-35 0 -55 39l-267 631l-239 -631q-7 -17 -23 -28t-33 -11 q-20 -2 -37.5 9t-23.5 30l-326 924q-4 16 -4 26z" />
<glyph unicode="x" horiz-adv-x="997" d="M72 995q0 26 19 44t44 18q31 0 49 -27l320 -412l307 412q21 27 51 27q27 0 43.5 -15.5t16.5 -37.5q0 -19 -17 -39l-332 -437l338 -436q13 -19 13 -37q0 -26 -19 -44.5t-43 -18.5q-29 0 -51 28l-313 404l-314 -406q-18 -24 -49 -24q-23 0 -41 15t-18 40q0 22 14 39 l336 428l-342 442q-12 15 -12 37z" />
<glyph unicode="y" horiz-adv-x="1171" d="M160 375v612q0 27 17 45.5t44 18.5t44.5 -18.5t17.5 -45.5v-594q0 -299 266 -299q129 0 229.5 90.5t100.5 208.5v594q0 27 17 45.5t44 18.5t44 -18.5t17 -45.5v-887q0 -122 -37.5 -219.5t-103.5 -160.5t-155.5 -96.5t-194.5 -33.5q-172 0 -285 70q-45 23 -45 59 q0 25 15 42.5t38 17.5q17 0 37 -10q39 -25 103 -46.5t137 -21.5q168 0 269.5 107t101.5 290v68q-51 -85 -147.5 -135.5t-205.5 -50.5q-182 0 -275 106t-93 289z" />
<glyph unicode="z" horiz-adv-x="925" d="M57 59q0 25 19 47l606 830h-514q-25 0 -42 16t-17 41t17 41.5t42 16.5h629q24 0 40.5 -18.5t16.5 -43.5q0 -24 -16 -45l-609 -829h553q26 0 43 -17t17 -41q0 -25 -17 -41t-43 -16h-665q-26 0 -43 19t-17 40z" />
<glyph unicode="{" horiz-adv-x="780" d="M0 520q0 22 16 36.5t39 14.5h13q229 3 229 297l-2 174q0 76 18.5 136t49.5 101t81.5 73t105 52.5t130.5 39.5q35 9 51.5 -5.5t16.5 -37.5q0 -36 -41 -49q-94 -29 -150.5 -57t-89 -67.5t-43 -85.5t-10.5 -118l2 -168q0 -129 -51 -221t-138 -115q91 -30 140 -120.5 t49 -217.5l-2 -170q0 -72 10.5 -117.5t42.5 -85t88.5 -68t151.5 -56.5q20 -6 30.5 -22t7.5 -36q-2 -16 -14.5 -27.5t-30.5 -11.5q-3 0 -9 1t-9 1q-118 26 -196 63.5t-119 90.5t-56.5 111t-15.5 139l2 174q0 63 -12.5 114.5t-38.5 94t-72 66t-108 24.5h-11q-23 0 -39 15 t-16 38z" />
<glyph unicode="|" horiz-adv-x="516" d="M197 -309v1855q0 27 17 44.5t44 17.5t44 -17.5t17 -44.5v-1855q0 -26 -17.5 -44t-43.5 -18q-27 0 -44 17.5t-17 44.5z" />
<glyph unicode="}" horiz-adv-x="778" d="M33 -362q0 36 41 49q94 29 150.5 57t89 67.5t43 85t10.5 117.5l-2 168q0 130 51.5 222.5t140.5 115.5q-93 27 -142.5 117t-49.5 221l2 168q0 72 -11 117.5t-43 85.5t-88.5 68.5t-150.5 56.5q-44 13 -41 57q3 16 16 27.5t31 11.5q3 0 9 -1t9 -1q118 -26 196 -63.5 t119 -90.5t56.5 -111t15.5 -139l-2 -174q0 -85 21 -149t74.5 -106t134.5 -42h12q22 0 37.5 -16t15.5 -39q0 -22 -15.5 -36.5t-37.5 -14.5h-12q-64 -1 -110 -24.5t-71.5 -66t-37 -93t-11.5 -113.5l2 -174q0 -77 -17 -130t-65.5 -100t-117 -84.5t-187.5 -89.5q-6 -2 -18 -2 q-24 0 -35.5 15t-11.5 33z" />
<glyph unicode="~" horiz-adv-x="1046" d="M152 494q0 66 49.5 119t140.5 53q62 0 202 -58.5t183 -58.5q60 0 66 78q-1 23 12 37t35 14q23 0 39 -15t16 -40q0 -81 -47 -130t-135 -49q-56 0 -197 57.5t-186 57.5q-61 0 -78 -76q0 -22 -13.5 -34.5t-33.5 -12.5q-23 0 -38 15t-15 43z" />
<glyph unicode="&#xa1;" horiz-adv-x="466" d="M156 924v45q0 36 18.5 57t52.5 21h13q34 0 52.5 -21t18.5 -57v-45q0 -36 -18.5 -57t-52.5 -21h-13q-34 0 -52.5 21t-18.5 57zM170 -303l23 905q3 43 40 43q38 0 41 -43l23 -905q2 -37 -14 -60.5t-50 -23.5t-49.5 23t-13.5 61z" />
<glyph unicode="&#xa2;" horiz-adv-x="1089" d="M102 711q0 204 121 356t316 182v111q0 27 17 44t44 17q26 0 44 -17.5t18 -43.5v-105q135 -8 230 -54t95 -105q0 -24 -15.5 -42t-41.5 -18q-22 0 -36.5 9.5t-34.5 29.5t-40 33q-55 31 -164 37v-873q104 5 179 54q18 12 37.5 31t33.5 27.5t31 8.5q24 0 38.5 -16t14.5 -41 q0 -51 -95 -106.5t-232 -63.5v-105q0 -26 -18 -43.5t-46 -17.5q-26 0 -42.5 17.5t-16.5 43.5v109q-197 26 -317 175.5t-120 365.5zM225 711q0 -167 87.5 -284.5t230.5 -145.5v856q-138 -30 -228 -147.5t-90 -278.5z" />
<glyph unicode="&#xa3;" horiz-adv-x="1327" d="M88 20q0 49 53 64q21 6 75.5 22t80.5 23q74 93 74 233q0 30 -3 60t-11 68t-12.5 57t-18.5 69t-17 62h-151q-26 0 -44 16t-18 41t18 41.5t44 16.5h125q-21 100 -21 184q0 216 121 346.5t326 130.5q112 0 212.5 -37t161.5 -106q43 -40 43 -70q0 -24 -20.5 -43.5 t-46.5 -19.5t-41 18q-54 65 -133.5 102t-173.5 37q-147 0 -234.5 -99.5t-87.5 -258.5q0 -81 21 -184h497q26 0 44 -17.5t18 -42.5q0 -24 -17.5 -39.5t-44.5 -15.5h-469q5 -18 17 -62.5t17.5 -66t13.5 -56t11 -62.5t3 -54q0 -119 -64 -221q18 2 58 2q89 0 262.5 -44 t240.5 -44q100 0 162 49q22 22 51 22q26 0 40 -17t14 -38q0 -48 -62 -76q-96 -57 -203 -57q-84 0 -263 45.5t-255 46.5q-46 0 -96.5 -9t-101 -23t-52.5 -15q-21 -4 -52.5 -17.5t-41.5 -13.5q-22 0 -35.5 16t-13.5 37z" />
<glyph unicode="&#xa4;" horiz-adv-x="1073" d="M141 305q0 20 21 41l96 92q-47 77 -47 176q0 95 49 179l-98 90q-21 25 -21 43q0 21 19.5 42t42.5 21q21 0 41 -20l94 -86q86 67 199 67q112 0 198 -67l92 86q18 18 41 18q22 0 42 -19.5t20 -41.5q0 -18 -21 -43l-96 -88q51 -79 51 -181q0 -97 -49 -178l92 -90 q23 -20 23 -41q0 -22 -20 -42.5t-42 -20.5q-24 0 -41 20l-92 86q-88 -69 -198 -69q-113 0 -201 69l-92 -86q-20 -20 -41 -20q-22 0 -42 20t-20 43zM326 612q0 -96 61 -162.5t150 -66.5q90 0 151.5 66.5t61.5 162.5q0 97 -61.5 165.5t-151.5 68.5q-89 0 -150 -68.5 t-61 -165.5z" />
<glyph unicode="&#xa5;" horiz-adv-x="1200" d="M66 1380q0 25 21.5 43.5t45.5 18.5q32 0 51 -29l420 -590l416 590q19 29 51 29q26 0 44 -19.5t18 -42.5q0 -20 -13 -39l-452 -630v-11l286 -2q27 0 45.5 -16.5t18.5 -40.5t-18.5 -40.5t-45.5 -16.5l-286 2v-160l286 -2q28 0 46 -15.5t18 -41.5q0 -25 -18 -40.5t-46 -15.5 l-286 2v-252q0 -26 -19 -43.5t-47 -17.5q-29 0 -47 17t-18 44v254l-279 2q-27 0 -45 16t-18 40q0 26 18 41.5t45 15.5l279 -2v160l-279 2q-28 0 -45.5 16t-17.5 41t17.5 41.5t45.5 16.5l279 -3v11l-457 624q-14 20 -14 43z" />
<glyph unicode="&#xa6;" horiz-adv-x="524" d="M201 -309v708q0 27 17 44.5t44 17.5t44.5 -17.5t17.5 -44.5v-708q0 -26 -18 -44t-44 -18q-27 0 -44 17.5t-17 44.5zM203 838v708q0 27 17 44.5t44 17.5q26 0 44 -18t18 -44v-708q0 -26 -18 -44t-46 -18q-26 0 -42.5 17.5t-16.5 44.5z" />
<glyph unicode="&#xa7;" horiz-adv-x="1085" d="M88 -61q0 22 17.5 38.5t41.5 16.5q27 0 46 -19q138 -143 335 -143q32 0 63 3.5t70 17t67.5 35t48.5 62.5t20 95q0 80 -86 135.5t-250 102.5q-169 48 -255.5 125t-86.5 202q0 54 20.5 106.5t74 101.5t132.5 71q-137 81 -137 235q0 70 25.5 127.5t65.5 93.5t91.5 60.5 t102 34t98.5 8.5q181 -3 313 -131q19 -15 19 -39t-16.5 -42.5t-45.5 -18.5q-15 0 -28 10q-115 100 -250 100q-64 0 -119 -18.5t-94 -63t-39 -108.5q0 -32 12.5 -61t29.5 -50t46.5 -40.5t52 -31t57.5 -24t52 -17.5t46 -13q7 -2 11 -3q181 -48 270 -124t86 -202 q-3 -97 -62.5 -166.5t-170.5 -99.5q83 -53 120.5 -108.5t37.5 -137.5q0 -151 -105 -247.5t-283 -96.5q-126 0 -241.5 49.5t-173.5 110.5q-31 31 -29 64zM248 621q0 -69 57 -120t187 -93l147 -33q103 0 168 56.5t65 131.5q0 73 -54 118t-177 83l-174 39q-85 5 -152 -49.5 t-67 -132.5z" />
<glyph unicode="&#xa8;" horiz-adv-x="819" d="M150 1311v20q0 38 22.5 60t60.5 22q40 0 62 -22t22 -60v-20q0 -40 -22 -61t-62 -21q-39 0 -61 21.5t-22 60.5zM502 1311v20q0 38 23 60t63 22q38 0 60 -22t22 -60v-20q0 -40 -22 -61t-62 -21t-62 22t-22 60z" />
<glyph unicode="&#xa9;" horiz-adv-x="1656" d="M106 717q0 153 57 288t154.5 230t230.5 150t281 55q146 0 279 -55t230 -150t154.5 -230t57.5 -288q0 -152 -57.5 -287t-154.5 -230t-230 -150.5t-279 -55.5q-148 0 -281 55.5t-230.5 150.5t-154.5 230t-57 287zM207 717q0 -177 84 -321t226 -224t312 -80t312.5 80 t226.5 224t84 321q0 132 -49.5 249t-133.5 199.5t-198.5 130t-241.5 47.5q-169 0 -311.5 -80.5t-226.5 -225t-84 -320.5zM451 717q0 171 115 287t300 116q136 0 234 -67q20 -12 24 -35.5t-10 -42.5q-12 -17 -32.5 -20t-37.5 8q-85 53 -178 53q-142 0 -224.5 -84t-82.5 -215 q0 -134 82 -216.5t225 -82.5q91 0 178 51q17 10 38 7t32 -19q15 -19 11 -41.5t-23 -36.5q-107 -66 -236 -66q-183 0 -299 114.5t-116 289.5z" />
<glyph unicode="&#xaa;" horiz-adv-x="841" d="M106 1143q0 136 78 227.5t199 91.5q138 0 197 -112v36q0 20 16 36t41 16q24 0 39.5 -15.5t15.5 -36.5v-514q0 -23 -15.5 -37t-39.5 -14q-26 0 -41.5 14.5t-15.5 36.5v58q-34 -56 -92.5 -92.5t-125.5 -36.5q-122 0 -189 97t-67 245zM219 1143q0 -106 44.5 -175t129.5 -69 q87 0 141 64t54 174q0 106 -50.5 166.5t-134.5 60.5q-76 0 -130 -64t-54 -157z" />
<glyph unicode="&#xab;" horiz-adv-x="1015" d="M96 528q0 16 15 39l268 359q19 26 47 26q24 0 41.5 -15.5t17.5 -39.5q0 -21 -18 -43l-238 -326l240 -325q16 -19 16 -39q0 -29 -19.5 -45.5t-41.5 -16.5q-28 0 -47 25l-266 360q-15 22 -15 41zM508 528q0 18 14 39l269 359q19 26 47 26q24 0 41.5 -15.5t17.5 -39.5 q0 -21 -18 -43l-238 -326l240 -325q16 -19 16 -39q0 -29 -19.5 -45.5t-41.5 -16.5q-29 0 -48 25l-266 360q-14 21 -14 41z" />
<glyph unicode="&#xac;" horiz-adv-x="1419" d="M133 758q0 25 17.5 43t42.5 18h1001q28 0 47 -18t19 -45v-426q0 -28 -18.5 -47t-47.5 -19q-28 0 -47 19t-19 47v366h-935q-25 0 -42.5 17.5t-17.5 44.5z" />
<glyph unicode="&#xad;" horiz-adv-x="851" d="M143 535q0 26 17.5 42.5t44.5 16.5h442q26 0 43 -18t17 -46q0 -25 -17 -41t-43 -16h-442q-26 0 -44 18t-18 44z" />
<glyph unicode="&#xae;" horiz-adv-x="1163" d="M123 989q0 128 62 234t167 165.5t230 59.5t230 -59.5t166.5 -165.5t61.5 -234q0 -196 -133.5 -327.5t-324.5 -131.5t-325 131.5t-134 327.5zM213 989q0 -161 106 -266t263 -105q156 0 260 104.5t104 266.5t-104 266.5t-260 104.5q-157 0 -263 -105t-106 -266zM418 782 v418q0 12 10 22.5t23 10.5h149q168 0 168 -139q0 -90 -100 -119q27 -14 45.5 -44t19.5 -65q0 -55 25 -63q24 -9 16 -33q-4 -17 -21.5 -24.5t-41.5 -4.5q-27 3 -45.5 33t-18.5 84q0 36 -17 58t-52 22h-76v-156q0 -15 -12 -27t-29 -12q-18 0 -30.5 12t-12.5 27zM502 1014h86 q42 0 69 19t27 54q0 66 -88 66h-94v-139z" />
<glyph unicode="&#xaf;" horiz-adv-x="811" d="M102 1231q0 55 58 55h491q58 0 58 -55q0 -53 -58 -53h-491q-58 0 -58 53z" />
<glyph unicode="&#xb0;" horiz-adv-x="772" d="M100 1153q0 122 82 208.5t203 86.5q124 0 205.5 -85.5t81.5 -207.5q0 -121 -82.5 -208t-204.5 -87q-120 0 -202.5 86.5t-82.5 206.5zM207 1153q0 -77 51.5 -134.5t126.5 -57.5q76 0 128 58t52 136t-52 136.5t-128 58.5q-75 0 -126.5 -58.5t-51.5 -138.5z" />
<glyph unicode="&#xb1;" horiz-adv-x="1114" d="M119 61q0 24 17.5 41t43.5 17h754q27 0 44 -16.5t17 -45.5q0 -27 -17 -42t-44 -15h-752q-28 0 -45.5 17.5t-17.5 43.5zM129 621q0 24 17 39.5t44 15.5h308v254q0 29 18.5 48t46.5 19q29 0 47.5 -18.5t18.5 -46.5v-256h295q26 0 43.5 -17t17.5 -43q0 -25 -17.5 -41 t-43.5 -16h-295v-240q0 -29 -19 -47t-47 -18q-29 0 -47 17.5t-18 45.5v242h-308q-26 0 -43.5 18t-17.5 44z" />
<glyph unicode="&#xb2;" horiz-adv-x="620" d="M88 1053q0 21 25 49l168 182q13 18 41.5 51t43.5 52.5t28.5 48t13.5 53.5q0 35 -26.5 58.5t-74.5 23.5q-39 0 -72.5 -22t-46.5 -62q-14 -31 -45 -31q-23 0 -37 11.5t-14 29.5q0 22 16 51t43.5 57t73 47t97.5 19q95 0 146.5 -53.5t51.5 -124.5q0 -40 -16.5 -79t-34 -62 t-51.5 -61.5t-47 -55.5l-127 -139h235q22 0 36.5 -13t14.5 -34q0 -22 -14.5 -36t-36.5 -14h-338q-53 0 -53 54z" />
<glyph unicode="&#xb3;" horiz-adv-x="622" d="M84 1081q0 23 13 38.5t34 15.5q4 0 7.5 -1t6.5 -2t7 -3.5t6.5 -4.5t8.5 -6l9 -6q50 -31 107 -31q60 0 102.5 34t42.5 87q0 49 -34 76t-89 27q-18 0 -55 -9t-45 -10q-22 -4 -37.5 10.5t-15.5 34.5q0 25 12 37l194 184h-202q-23 0 -38.5 15t-15.5 37t15.5 35.5t38.5 13.5 h299q22 0 37 -13.5t16 -35.5q6 -25 -14 -45l-179 -166q6 2 15 2q92 0 148.5 -48t56.5 -143q0 -99 -73 -161t-173 -62q-112 0 -180 55q-25 16 -25 45z" />
<glyph unicode="&#xb4;" horiz-adv-x="575" d="M158 1255q0 12 10 29l125 195q23 45 69 45q30 0 48.5 -17t17.5 -47q0 -24 -20 -47l-154 -162q-32 -32 -64 -32q-12 0 -22 10.5t-10 25.5z" />
<glyph unicode="&#xb5;" horiz-adv-x="1210" d="M193 -252v1245q0 26 17.5 44t43.5 18q27 0 44 -17.5t17 -44.5v-590q0 -136 62 -220.5t192 -84.5q125 0 226.5 95t101.5 210v590q0 26 17.5 44t43.5 18t44 -18t18 -44v-932q0 -26 -18 -43.5t-44 -17.5q-27 0 -44 17t-17 44v132q-38 -82 -132 -147.5t-206 -65.5 q-71 0 -140 34.5t-104 94.5v-361q0 -28 -16 -44.5t-45 -16.5q-28 0 -44.5 16.5t-16.5 44.5z" />
<glyph unicode="&#xb6;" horiz-adv-x="1265" d="M74 997q0 246 127.5 341.5t439.5 95.5h367q22 0 36.5 -15t14.5 -37v-1323q0 -28 -14.5 -43.5t-38.5 -15.5q-23 0 -38.5 15.5t-15.5 43.5v1274h-188v-1212q0 -110 -68 -177t-176 -67q-60 0 -109 22t-57 50q-8 14 -2 34.5t25 30.5q25 12 61 -6q43 -26 80 -26q61 0 99 43 t38 108v418h-69q-278 4 -395 106t-117 340z" />
<glyph unicode="&#xb7;" horiz-adv-x="460" d="M145 592v45q0 35 21.5 56.5t56.5 21.5h15q35 0 56 -21.5t21 -56.5v-45q0 -35 -21 -56.5t-56 -21.5h-15q-35 0 -56.5 21.5t-21.5 56.5z" />
<glyph unicode="&#xb8;" horiz-adv-x="569" d="M74 -229q0 22 14 36l178 224h78l-131 -285q-15 -41 -53 -41q-24 0 -55 20.5t-31 45.5z" />
<glyph unicode="&#xb9;" horiz-adv-x="462" d="M59 1499q0 28 29 47l156 94q24 12 41 9q22 -3 35.5 -19t13.5 -39l2 -536q0 -23 -15.5 -39.5t-37.5 -16.5q-23 0 -37.5 16t-14.5 40l-2 458l-86 -55q-20 -10 -34 -10q-21 0 -35.5 15.5t-14.5 35.5z" />
<glyph unicode="&#xba;" horiz-adv-x="823" d="M102 1124q0 140 88 235t220 95q134 0 223.5 -95t89.5 -235q0 -138 -89 -229.5t-224 -91.5q-132 0 -220 91.5t-88 229.5zM209 1124q0 -96 55 -158.5t146 -62.5q93 0 149.5 62.5t56.5 158.5q0 100 -56 164t-150 64q-91 0 -146 -64t-55 -164z" />
<glyph unicode="&#xbb;" horiz-adv-x="1001" d="M119 891q0 28 19.5 44.5t41.5 16.5q26 0 47 -24l267 -361q14 -17 14 -41q0 -22 -14 -39l-269 -358q-20 -27 -47 -27q-23 0 -40 15.5t-17 40.5q0 24 16 43l240 327l-242 322q-16 22 -16 41zM516 891q0 28 20 44.5t42 16.5q26 0 47 -24l266 -361q14 -17 14 -41 q0 -22 -14 -39l-268 -358q-20 -27 -48 -27q-23 0 -40 15.5t-17 40.5q0 23 17 43l239 327l-242 322q-16 22 -16 41z" />
<glyph unicode="&#xbc;" horiz-adv-x="2187" d="M57 1288q0 28 29 47l156 95q22 11 41 8q22 -3 35.5 -19t13.5 -39l2 -536q0 -23 -15.5 -39.5t-37.5 -16.5q-23 0 -37.5 16t-14.5 40l-2 459l-86 -56q-20 -10 -35 -10q-21 0 -35 15.5t-14 35.5zM500 49q0 16 10 33l876 1331q20 27 48 27q23 0 40 -15.5t17 -40.5 q0 -15 -10 -32l-877 -1332q-20 -26 -47 -26q-23 0 -40 15t-17 40zM1595 211q0 21 13 39l293 373q17 22 49 22q25 0 40 -16t15 -41v-338h68q23 0 37 -13t14 -34q0 -23 -14 -36t-37 -13h-68v-111q0 -23 -14 -38t-37 -15q-22 0 -37.5 15t-15.5 38v111h-248q-24 0 -41 16.5 t-17 40.5zM1724 250h177v221z" />
<glyph unicode="&#xbd;" horiz-adv-x="2166" d="M57 1288q0 28 29 47l156 95q22 11 41 8q22 -3 35.5 -19t13.5 -39l2 -536q0 -23 -15.5 -39.5t-37.5 -16.5q-23 0 -37.5 16t-14.5 40l-2 459l-86 -56q-20 -10 -35 -10q-21 0 -35 15.5t-14 35.5zM500 49q0 16 10 33l876 1331q20 27 48 27q23 0 40 -15.5t17 -40.5 q0 -15 -10 -32l-877 -1332q-20 -26 -47 -26q-23 0 -40 15t-17 40zM1640 53q0 21 25 49l168 183q14 18 42 51t43 52.5t28.5 47.5t13.5 53q0 35 -26 58.5t-74 23.5q-39 0 -72.5 -22t-46.5 -62q-13 -30 -45 -30q-23 0 -37 11.5t-14 29.5q0 53 65 113.5t164 60.5q95 0 147 -53.5 t52 -124.5q0 -40 -16.5 -79t-34 -62t-51.5 -61.5t-48 -55.5l-127 -140h236q22 0 36.5 -13t14.5 -34q0 -22 -14.5 -35.5t-36.5 -13.5h-338q-54 0 -54 53z" />
<glyph unicode="&#xbe;" horiz-adv-x="2353" d="M82 870q0 23 13 38.5t34 15.5q4 0 7.5 -1t6.5 -2t7 -3.5t6.5 -4.5t8.5 -6l9 -6q50 -31 107 -31q60 0 102.5 34t42.5 87q0 49 -34 76t-89 27q-18 0 -55 -9t-45 -10q-22 -4 -37.5 10.5t-15.5 34.5q0 25 12 37l194 184h-202q-23 0 -38.5 15t-15.5 37t15.5 35.5t38.5 13.5 h299q22 0 37 -13.5t16 -35.5q6 -25 -14 -45l-179 -166q6 2 15 2q91 0 147.5 -48t56.5 -143q0 -99 -73 -161t-172 -62q-113 0 -181 55q-24 15 -24 45zM670 49q0 16 10 33l876 1331q20 27 48 27q23 0 40 -15.5t17 -40.5q0 -15 -10 -32l-877 -1332q-20 -26 -47 -26 q-23 0 -40 15t-17 40zM1765 211q0 21 13 39l293 373q17 22 49 22q25 0 40 -16t15 -41v-338h68q23 0 37 -13t14 -34q0 -23 -14 -36t-37 -13h-68v-111q0 -23 -14 -38t-37 -15q-22 0 -37.5 15t-15.5 38v111h-248q-24 0 -41 16.5t-17 40.5zM1894 250h177v221z" />
<glyph unicode="&#xbf;" horiz-adv-x="956" d="M80 53q0 161 114.5 285t280.5 139v203q0 26 17 43.5t43 17.5q28 0 44.5 -17.5t14.5 -43.5v-244q0 -26 -18 -44.5t-44 -18.5q-140 -8 -232.5 -96.5t-92.5 -223.5q0 -139 85.5 -228t213.5 -89q84 0 157.5 38t124.5 103q37 43 82 14q26 -15 30 -41t-15 -49 q-66 -85 -166.5 -134.5t-212.5 -49.5q-180 0 -303 120t-123 316zM449 1001v46q0 36 18.5 56.5t54.5 20.5h13q35 0 53 -20.5t18 -56.5v-46q0 -36 -18 -56.5t-53 -20.5h-13q-36 0 -54.5 20.5t-18.5 56.5z" />
<glyph unicode="&#xc0;" horiz-adv-x="1296" d="M45 51q-2 7 2 25l541 1323q16 41 61 41q44 0 60 -41l538 -1317q4 -16 4 -25q0 -27 -17.5 -43t-43.5 -16q-44 0 -60 41l-153 375h-666l-151 -375q-15 -41 -56 -41q-56 0 -59 53zM358 535h570l-287 700zM365 1706q0 26 17.5 43.5t43.5 17.5q33 0 59 -22l183 -141 q20 -20 20 -37q0 -16 -10 -26.5t-29 -10.5q-17 0 -45 12l-198 100q-41 21 -41 64z" />
<glyph unicode="&#xc1;" horiz-adv-x="1296" d="M45 51q-2 7 2 25l541 1323q16 41 61 41q44 0 60 -41l538 -1317q4 -16 4 -25q0 -27 -17.5 -43t-43.5 -16q-44 0 -60 41l-153 375h-666l-151 -375q-15 -41 -56 -41q-56 0 -59 53zM358 535h570l-287 700zM616 1565q0 16 21 37l182 141q26 22 60 22q27 0 44 -17t17 -44 q0 -42 -39 -64l-201 -100q-28 -12 -45 -12q-19 0 -29 10.5t-10 26.5z" />
<glyph unicode="&#xc2;" horiz-adv-x="1296" d="M45 51q-2 7 2 25l541 1323q16 41 61 41q44 0 60 -41l538 -1317q4 -16 4 -25q0 -27 -17.5 -43t-43.5 -16q-44 0 -60 41l-153 375h-666l-151 -375q-15 -41 -56 -41q-56 0 -59 53zM358 535h570l-287 700zM395 1589q0 15 17 35l157 168q30 35 68 35h22q35 0 70 -35l156 -166 q16 -19 16 -35q0 -11 -10 -20.5t-23 -9.5q-22 0 -55 26l-170 123l-158 -125q-37 -26 -55 -26q-14 0 -24.5 9.5t-10.5 20.5z" />
<glyph unicode="&#xc3;" horiz-adv-x="1296" d="M45 51q-2 7 2 25l541 1323q16 41 61 41q44 0 60 -41l538 -1317q4 -16 4 -25q0 -27 -17.5 -43t-43.5 -16q-44 0 -60 41l-153 375h-666l-151 -375q-15 -41 -56 -41q-56 0 -59 53zM338 1669q13 64 62.5 100.5t115.5 36.5q42 0 98.5 -29.5t107.5 -59t79 -29.5q29 0 46.5 21.5 t20.5 57.5q-3 23 10 38.5t35 15.5q30 0 42.5 -24t7.5 -64q-12 -68 -56 -107t-110 -39q-41 0 -97.5 29.5t-108.5 58.5t-81 29t-50 -20t-30 -60q0 -22 -13 -33.5t-32 -11.5q-28 0 -40.5 23.5t-6.5 66.5zM358 535h570l-287 700z" />
<glyph unicode="&#xc4;" horiz-adv-x="1296" d="M45 51q-2 7 2 25l541 1323q16 41 61 41q44 0 60 -41l538 -1317q4 -16 4 -25q0 -27 -17.5 -43t-43.5 -16q-44 0 -60 41l-153 375h-666l-151 -375q-15 -41 -56 -41q-56 0 -59 53zM358 535h570l-287 700zM389 1669v21q0 38 23.5 60t62.5 22q40 0 62 -22t22 -60v-21 q0 -39 -23 -60.5t-63 -21.5t-62 22t-22 60zM741 1669v21q0 38 23 60t63 22t62 -22t22 -60v-21q0 -39 -23 -60.5t-63 -21.5t-62 22t-22 60z" />
<glyph unicode="&#xc5;" horiz-adv-x="1296" d="M45 51q-2 7 2 25l528 1294q-60 22 -97.5 72.5t-37.5 113.5q0 83 62.5 142t146.5 59t146.5 -59t62.5 -142q0 -63 -38.5 -114.5t-98.5 -73.5l526 -1286q4 -16 4 -25q0 -27 -17.5 -43t-43.5 -16q-44 0 -60 41l-153 375h-666l-151 -375q-15 -41 -56 -41q-56 0 -59 53z M358 535h570l-287 700zM532 1556q0 -47 34.5 -80.5t82.5 -33.5q49 0 84 33.5t35 80.5q0 49 -35.5 83t-83.5 34t-82.5 -34t-34.5 -83z" />
<glyph unicode="&#xc6;" horiz-adv-x="1863" d="M-8 55q-3 20 10 39l920 1313q21 27 55 27h723q26 0 43.5 -18t17.5 -44t-17.5 -42.5t-43.5 -16.5h-662v-518h570q26 0 43.5 -17t17.5 -43q0 -27 -17 -43t-44 -16h-570v-555h662q26 0 43.5 -18.5t17.5 -43.5q0 -26 -17.5 -42.5t-43.5 -16.5h-725q-27 0 -45.5 17.5 t-18.5 43.5v285h-587l-226 -323q-18 -27 -49 -27q-23 0 -40 17t-17 42zM406 465h505v729z" />
<glyph unicode="&#xc7;" horiz-adv-x="1359" d="M109 717q0 158 54.5 295t149.5 233.5t228.5 151.5t287.5 55q113 0 222 -33t198 -92q31 -19 31 -51q0 -27 -17.5 -46.5t-41.5 -19.5q-16 0 -43 17q-152 102 -349 102q-262 0 -425.5 -169.5t-163.5 -442.5q0 -279 164.5 -447t424.5 -168q182 0 355 107q15 10 35 10 q26 0 43.5 -19t17.5 -46q0 -34 -29 -50q-71 -49 -177 -83.5t-210 -40.5l-108 -234q-15 -41 -54 -41q-24 0 -55 20.5t-31 45.5q0 21 15 36l139 175q-141 10 -262.5 67.5t-209.5 151.5t-138.5 227.5t-50.5 288.5z" />
<glyph unicode="&#xc8;" horiz-adv-x="1181" d="M205 61v1311q0 26 17.5 44t43.5 18h752q26 0 43.5 -18t17.5 -44t-17.5 -42.5t-43.5 -16.5h-684v-514h592q26 0 43.5 -18t17.5 -44q0 -27 -17 -43t-44 -16h-592v-557h684q26 0 43.5 -18.5t17.5 -43.5q0 -26 -17.5 -42.5t-43.5 -16.5h-752q-26 0 -43.5 17.5t-17.5 43.5z M379 1706q0 26 17.5 43.5t43.5 17.5q34 0 60 -22l182 -141q20 -20 20 -37q0 -37 -38 -37q-18 0 -46 12l-198 100q-41 21 -41 64z" />
<glyph unicode="&#xc9;" horiz-adv-x="1181" d="M205 61v1311q0 26 17.5 44t43.5 18h752q26 0 43.5 -18t17.5 -44t-17.5 -42.5t-43.5 -16.5h-684v-514h592q26 0 43.5 -18t17.5 -44q0 -27 -17 -43t-44 -16h-592v-557h684q26 0 43.5 -18.5t17.5 -43.5q0 -26 -17.5 -42.5t-43.5 -16.5h-752q-26 0 -43.5 17.5t-17.5 43.5z M631 1565q0 17 20 37l183 141q26 22 59 22q27 0 44 -17t17 -44q0 -42 -39 -64l-200 -100q-28 -12 -45 -12q-19 0 -29 10.5t-10 26.5z" />
<glyph unicode="&#xca;" horiz-adv-x="1181" d="M205 61v1311q0 26 17.5 44t43.5 18h752q26 0 43.5 -18t17.5 -44t-17.5 -42.5t-43.5 -16.5h-684v-514h592q26 0 43.5 -18t17.5 -44q0 -27 -17 -43t-44 -16h-592v-557h684q26 0 43.5 -18.5t17.5 -43.5q0 -26 -17.5 -42.5t-43.5 -16.5h-752q-26 0 -43.5 17.5t-17.5 43.5z M410 1589q0 16 16 35l158 168q30 35 67 35h23q22 0 36 -8t33 -27l156 -166q16 -19 16 -35q0 -11 -9.5 -20.5t-22.5 -9.5q-23 0 -56 26l-170 123l-157 -125q-37 -26 -56 -26q-14 0 -24 9.5t-10 20.5z" />
<glyph unicode="&#xcb;" horiz-adv-x="1181" d="M205 61v1311q0 26 17.5 44t43.5 18h752q26 0 43.5 -18t17.5 -44t-17.5 -42.5t-43.5 -16.5h-684v-514h592q26 0 43.5 -18t17.5 -44q0 -27 -17 -43t-44 -16h-592v-557h684q26 0 43.5 -18.5t17.5 -43.5q0 -26 -17.5 -42.5t-43.5 -16.5h-752q-26 0 -43.5 17.5t-17.5 43.5z M403 1669v21q0 38 23.5 60t62.5 22q40 0 62 -22t22 -60v-21q0 -39 -23 -60.5t-63 -21.5t-62 22t-22 60zM756 1669v21q0 38 23 60t63 22t62 -22t22 -60v-21q0 -39 -23 -60.5t-63 -21.5t-62 22t-22 60z" />
<glyph unicode="&#xcc;" horiz-adv-x="540" d="M-16 1706q0 26 17.5 43.5t43.5 17.5q33 0 59 -22l183 -141q20 -20 20 -37q0 -16 -10 -26.5t-29 -10.5q-17 0 -45 12l-198 100q-41 21 -41 64zM205 66v1304q0 28 18 46t47 18q28 0 47 -18t19 -46v-1304q0 -29 -19 -47.5t-47 -18.5q-29 0 -47 18.5t-18 47.5z" />
<glyph unicode="&#xcd;" horiz-adv-x="540" d="M205 66v1304q0 28 18 46t47 18q28 0 47 -18t19 -46v-1304q0 -29 -19 -47.5t-47 -18.5q-29 0 -47 18.5t-18 47.5zM238 1565q0 17 20 37l182 141q26 22 60 22q27 0 44 -17t17 -44q0 -42 -39 -64l-200 -100q-28 -12 -46 -12q-38 0 -38 37z" />
<glyph unicode="&#xce;" horiz-adv-x="540" d="M14 1589q0 15 17 35l157 168q30 35 68 35h23q22 0 36 -8t33 -27l156 -166q16 -19 16 -35q0 -11 -10 -20.5t-23 -9.5q-23 0 -55 26l-170 123l-158 -125q-37 -26 -55 -26q-14 0 -24.5 9.5t-10.5 20.5zM205 66v1304q0 28 18 46t47 18q28 0 47 -18t19 -46v-1304 q0 -29 -19 -47.5t-47 -18.5q-29 0 -47 18.5t-18 47.5z" />
<glyph unicode="&#xcf;" horiz-adv-x="540" d="M8 1669v21q0 38 23.5 60t62.5 22q40 0 62 -22t22 -60v-21q0 -39 -23 -60.5t-63 -21.5t-62 22t-22 60zM205 66v1304q0 28 18 46t47 18q28 0 47 -18t19 -46v-1304q0 -29 -19 -47.5t-47 -18.5q-29 0 -47 18.5t-18 47.5zM360 1669v21q0 38 23 60t63 22t62 -22t22 -60v-21 q0 -39 -23 -60.5t-63 -21.5t-62 22t-22 60z" />
<glyph unicode="&#xd0;" horiz-adv-x="1511" d="M57 721q0 25 17 40t45 15h96v596q0 26 17.5 44t43.5 18h523q119 0 218.5 -38t169 -105t117.5 -158t70.5 -196t22.5 -220q0 -150 -37 -278t-108.5 -227t-187.5 -155.5t-265 -56.5h-523q-26 0 -43.5 17.5t-17.5 43.5v601h-96q-28 0 -45 16t-17 43zM344 121h434 q101 0 183 30.5t138.5 84t94 129t55 163.5t17.5 189q0 97 -17 183t-55 162.5t-94 131.5t-138.5 87t-183.5 32h-434v-537h111q28 0 44.5 -15.5t16.5 -41.5t-16.5 -41.5t-44.5 -15.5h-111v-541z" />
<glyph unicode="&#xd1;" horiz-adv-x="1515" d="M205 66v1302q0 30 17.5 48t43.5 18q35 0 56 -25l860 -1153v1114q0 28 18 46t47 18q28 0 46 -18t18 -46v-1304q0 -30 -18.5 -48t-45.5 -18q-34 0 -55 31l-860 1153v-1118q0 -29 -18 -47.5t-46 -18.5t-45.5 18.5t-17.5 47.5zM446 1669q13 64 62.5 100.5t116.5 36.5 q42 0 98.5 -29.5t107 -59t78.5 -29.5q29 0 47 21.5t21 57.5q-3 23 10 38.5t35 15.5q59 0 49 -88q-12 -68 -56 -107t-110 -39q-41 0 -97.5 29.5t-108.5 58.5t-81 29q-62 0 -79 -80q0 -22 -13 -33.5t-32 -11.5q-28 0 -41 24t-7 66z" />
<glyph unicode="&#xd2;" horiz-adv-x="1591" d="M109 717q0 212 88 380.5t244.5 262.5t353.5 94q198 0 355 -94t245 -262.5t88 -380.5q0 -211 -88 -379.5t-245 -263t-355 -94.5q-197 0 -354 94.5t-244.5 263t-87.5 379.5zM240 717q0 -271 155 -443t400 -172t401 172t156 443t-156 442.5t-401 171.5t-400 -171.5 t-155 -442.5zM510 1706q0 26 17.5 43.5t43.5 17.5q34 0 60 -22l182 -141q21 -21 21 -37t-10 -26.5t-29 -10.5q-17 0 -45 12l-199 100q-41 21 -41 64z" />
<glyph unicode="&#xd3;" horiz-adv-x="1591" d="M109 717q0 212 88 380.5t244.5 262.5t353.5 94q198 0 355 -94t245 -262.5t88 -380.5q0 -211 -88 -379.5t-245 -263t-355 -94.5q-197 0 -354 94.5t-244.5 263t-87.5 379.5zM240 717q0 -271 155 -443t400 -172t401 172t156 443t-156 442.5t-401 171.5t-400 -171.5 t-155 -442.5zM764 1565q0 17 20 37l183 141q26 22 59 22q27 0 44 -17t17 -44q0 -43 -38 -64l-201 -100q-28 -12 -45 -12q-19 0 -29 10.5t-10 26.5z" />
<glyph unicode="&#xd4;" horiz-adv-x="1591" d="M109 717q0 212 88 380.5t244.5 262.5t353.5 94q198 0 355 -94t245 -262.5t88 -380.5q0 -211 -88 -379.5t-245 -263t-355 -94.5q-197 0 -354 94.5t-244.5 263t-87.5 379.5zM240 717q0 -271 155 -443t400 -172t401 172t156 443t-156 442.5t-401 171.5t-400 -171.5 t-155 -442.5zM541 1589q0 16 16 35l158 168q30 35 67 35h23q22 0 36 -8t33 -27l156 -166q17 -20 17 -35q0 -11 -10 -20.5t-23 -9.5q-23 0 -56 26l-170 123l-157 -125q-37 -26 -56 -26q-14 0 -24 9.5t-10 20.5z" />
<glyph unicode="&#xd5;" horiz-adv-x="1591" d="M109 717q0 212 88 380.5t244.5 262.5t353.5 94q198 0 355 -94t245 -262.5t88 -380.5q0 -211 -88 -379.5t-245 -263t-355 -94.5q-197 0 -354 94.5t-244.5 263t-87.5 379.5zM240 717q0 -271 155 -443t400 -172t401 172t156 443t-156 442.5t-401 171.5t-400 -171.5 t-155 -442.5zM485 1669q13 64 62.5 100.5t116.5 36.5q42 0 98.5 -29.5t107 -59t78.5 -29.5q29 0 47 21.5t21 57.5q-3 23 10 38.5t35 15.5q59 0 49 -88q-12 -68 -56 -107t-110 -39q-41 0 -97.5 29.5t-108.5 58.5t-81 29q-62 0 -79 -80q0 -22 -13.5 -33.5t-32.5 -11.5 q-28 0 -40.5 23.5t-6.5 66.5z" />
<glyph unicode="&#xd6;" horiz-adv-x="1591" d="M109 717q0 212 88 380.5t244.5 262.5t353.5 94q198 0 355 -94t245 -262.5t88 -380.5q0 -211 -88 -379.5t-245 -263t-355 -94.5q-197 0 -354 94.5t-244.5 263t-87.5 379.5zM240 717q0 -271 155 -443t400 -172t401 172t156 443t-156 442.5t-401 171.5t-400 -171.5 t-155 -442.5zM535 1669v21q0 38 23.5 60t62.5 22q40 0 62 -22t22 -60v-21q0 -39 -23.5 -60.5t-63.5 -21.5t-61.5 21.5t-21.5 60.5zM887 1669v21q0 38 23 60t63 22t62 -22t22 -60v-21q0 -39 -23 -60.5t-63 -21.5t-62 22t-22 60z" />
<glyph unicode="&#xd7;" horiz-adv-x="1013" d="M133 213q0 24 19 43l270 268l-254 260q-16 19 -16 43q0 25 16 42.5t39 17.5q27 0 45 -21l252 -260l268 266q22 19 45 19q24 0 42 -18t18 -42q0 -23 -19 -45l-268 -266l258 -266q20 -17 20 -43q0 -28 -18.5 -43.5t-40.5 -15.5t-43 18l-260 268l-268 -266q-20 -20 -45 -20 q-23 0 -41.5 18t-18.5 43z" />
<glyph unicode="&#xd8;" horiz-adv-x="1597" d="M117 6q0 20 14 37l150 180q-164 200 -164 494q0 212 88 380.5t244.5 262.5t353.5 94q223 0 395 -121l105 127q21 27 53 27q21 0 37 -14t16 -35q0 -22 -16 -41l-111 -133q100 -101 154.5 -241.5t54.5 -305.5q0 -211 -88 -379.5t-245 -263t-355 -94.5q-264 0 -447 163 l-129 -155q-27 -35 -59 -35q-20 0 -35.5 15.5t-15.5 37.5zM248 717q0 -233 114 -393l754 911q-135 96 -313 96q-245 0 -400 -171.5t-155 -442.5zM436 240q147 -138 367 -138q245 0 401 172t156 443q0 272 -160 446z" />
<glyph unicode="&#xd9;" horiz-adv-x="1447" d="M186 524v848q0 27 18 44.5t48 17.5q25 0 43 -18t18 -44v-848q0 -176 121 -298t291 -122q171 0 293.5 122t122.5 298v848q0 27 16.5 44.5t42.5 17.5q27 0 44.5 -17.5t17.5 -44.5v-848q0 -150 -71.5 -274.5t-195 -196t-270.5 -71.5q-149 0 -273 71.5t-195 196t-71 274.5z M440 1706q0 26 18 43.5t44 17.5q33 0 59 -22l182 -141q21 -21 21 -37t-10 -26.5t-29 -10.5q-17 0 -45 12l-199 100q-41 21 -41 64z" />
<glyph unicode="&#xda;" horiz-adv-x="1447" d="M186 524v848q0 27 18 44.5t48 17.5q25 0 43 -18t18 -44v-848q0 -176 121 -298t291 -122q171 0 293.5 122t122.5 298v848q0 27 16.5 44.5t42.5 17.5q27 0 44.5 -17.5t17.5 -44.5v-848q0 -150 -71.5 -274.5t-195 -196t-270.5 -71.5q-149 0 -273 71.5t-195 196t-71 274.5z M692 1565q0 16 21 37l182 141q26 22 59 22q28 0 45 -17.5t17 -43.5q0 -42 -39 -64l-201 -100q-28 -12 -45 -12q-19 0 -29 10.5t-10 26.5z" />
<glyph unicode="&#xdb;" horiz-adv-x="1447" d="M186 524v848q0 27 18 44.5t48 17.5q25 0 43 -18t18 -44v-848q0 -176 121 -298t291 -122q171 0 293.5 122t122.5 298v848q0 27 16.5 44.5t42.5 17.5q27 0 44.5 -17.5t17.5 -44.5v-848q0 -150 -71.5 -274.5t-195 -196t-270.5 -71.5q-149 0 -273 71.5t-195 196t-71 274.5z M469 1589q0 16 16 35l158 168q30 35 68 35h22q35 0 70 -35l155 -166q17 -20 17 -35q0 -11 -10 -20.5t-23 -9.5q-22 0 -55 26l-170 123l-158 -125q-37 -26 -55 -26q-14 0 -24.5 9.5t-10.5 20.5z" />
<glyph unicode="&#xdc;" horiz-adv-x="1447" d="M186 524v848q0 27 18 44.5t48 17.5q25 0 43 -18t18 -44v-848q0 -176 121 -298t291 -122q171 0 293.5 122t122.5 298v848q0 27 16.5 44.5t42.5 17.5q27 0 44.5 -17.5t17.5 -44.5v-848q0 -150 -71.5 -274.5t-195 -196t-270.5 -71.5q-149 0 -273 71.5t-195 196t-71 274.5z M465 1669v21q0 38 23.5 60t62.5 22q40 0 62 -22t22 -60v-21q0 -39 -23 -60.5t-63 -21.5t-62 22t-22 60zM817 1669v21q0 38 23 60t63 22t62 -22t22 -60v-21q0 -39 -23 -60.5t-63 -21.5t-62 22t-22 60z" />
<glyph unicode="&#xdd;" horiz-adv-x="1191" d="M61 1380q0 25 21 43.5t45 18.5q28 0 51 -29l422 -577l416 577q19 29 51 29q26 0 43.5 -19.5t17.5 -42.5q0 -21 -12 -39l-457 -630v-650q0 -26 -17.5 -43.5t-43.5 -17.5q-28 0 -45.5 17.5t-17.5 43.5v652l-459 624q-15 21 -15 43zM563 1565q0 16 21 37l182 141 q26 22 59 22q27 0 44.5 -17.5t17.5 -43.5q0 -42 -39 -64l-201 -100q-28 -12 -45 -12q-19 0 -29 10.5t-10 26.5z" />
<glyph unicode="&#xde;" horiz-adv-x="1218" d="M205 61v1393q0 26 18.5 44t44.5 18t43 -18t17 -44v-240h407q172 0 282.5 -115t110.5 -294q0 -178 -112 -298t-281 -120h-407v-326q0 -26 -18 -43.5t-44 -17.5q-27 0 -44 17t-17 44zM328 510h407q119 0 192.5 83.5t73.5 211.5t-73 207.5t-193 79.5h-407v-582z" />
<glyph unicode="&#xdf;" horiz-adv-x="1257" d="M68 969q0 25 17.5 41t43.5 16h94q1 67 16 132t48 126t80.5 107t118.5 74t157 28q170 0 262 -85t92 -210q0 -70 -48.5 -146.5t-129.5 -105.5q148 -49 244 -172.5t96 -300.5q0 -213 -128.5 -353t-313.5 -140q-136 0 -201 53q-21 14 -24 36.5t16 43.5q33 44 82 4 q58 -35 129 -35q128 0 222.5 106.5t94.5 268.5q0 76 -19.5 139.5t-51.5 106.5t-76.5 77t-90 53t-96.5 31q-57 15 -57 64q0 44 41 57q91 23 139.5 83.5t48.5 121.5q0 78 -63 131t-172 53q-62 0 -112.5 -21t-83.5 -56t-55.5 -82t-32 -96.5t-9.5 -102.5l-4 -955 q0 -28 -16 -44.5t-45 -16.5q-28 0 -45 16.5t-17 44.5l4 848h-94q-26 0 -43.5 17.5t-17.5 42.5z" />
<glyph unicode="&#xe0;" d="M100 528q0 233 139 388t343 155q122 0 223.5 -64t155.5 -161v141q0 27 17 45.5t44 18.5t44 -18t17 -46v-926q0 -26 -17.5 -43.5t-43.5 -17.5t-43.5 17.5t-17.5 43.5v146q-52 -97 -155.5 -162t-225.5 -65q-135 0 -245 71t-172.5 197t-62.5 280zM223 528 q0 -187 105.5 -310.5t267.5 -123.5t267.5 123.5t105.5 310.5q0 182 -106 305t-267 123t-267 -121t-106 -307zM371 1370q0 28 17 44t44 16q38 0 64 -35l139 -183q16 -19 16 -32q0 -15 -11 -26t-28 -11q-23 0 -51 24l-162 150q-28 22 -28 53z" />
<glyph unicode="&#xe1;" d="M100 528q0 233 139 388t343 155q122 0 223.5 -64t155.5 -161v141q0 27 17 45.5t44 18.5t44 -18t17 -46v-926q0 -26 -17.5 -43.5t-43.5 -17.5t-43.5 17.5t-17.5 43.5v146q-52 -97 -155.5 -162t-225.5 -65q-135 0 -245 71t-172.5 197t-62.5 280zM223 528 q0 -187 105.5 -310.5t267.5 -123.5t267.5 123.5t105.5 310.5q0 182 -106 305t-267 123t-267 -121t-106 -307zM551 1165q0 12 10 29l125 195q23 45 70 45q30 0 48 -17t17 -47q0 -24 -20 -47l-154 -162q-33 -33 -63 -33q-12 0 -22.5 11t-10.5 26z" />
<glyph unicode="&#xe2;" d="M100 528q0 233 139 388t343 155q122 0 223.5 -64t155.5 -161v141q0 27 17 45.5t44 18.5t44 -18t17 -46v-926q0 -26 -17.5 -43.5t-43.5 -17.5t-43.5 17.5t-17.5 43.5v146q-52 -97 -155.5 -162t-225.5 -65q-135 0 -245 71t-172.5 197t-62.5 280zM223 528 q0 -187 105.5 -310.5t267.5 -123.5t267.5 123.5t105.5 310.5q0 182 -106 305t-267 123t-267 -121t-106 -307zM365 1210q0 17 16 33l149 164q22 35 68 35h33q44 0 65 -35l148 -162q14 -17 14 -35q0 -11 -10 -20.5t-23 -9.5q-24 0 -55 28l-162 129l-155 -131q-35 -28 -54 -28 q-15 0 -24.5 10t-9.5 22z" />
<glyph unicode="&#xe3;" d="M100 528q0 233 139 388t343 155q122 0 223.5 -64t155.5 -161v141q0 27 17 45.5t44 18.5t44 -18t17 -46v-926q0 -26 -17.5 -43.5t-43.5 -17.5t-43.5 17.5t-17.5 43.5v146q-52 -97 -155.5 -162t-225.5 -65q-135 0 -245 71t-172.5 197t-62.5 280zM223 528 q0 -187 105.5 -310.5t267.5 -123.5t267.5 123.5t105.5 310.5q0 182 -106 305t-267 123t-267 -121t-106 -307zM299 1278q13 65 63.5 102t120.5 37q42 0 96.5 -30t103.5 -59.5t77 -29.5q59 0 65 78q-1 23 12 37t35 14q62 0 52 -86q-12 -68 -59 -106.5t-120 -38.5q-36 0 -90 29 t-105 57.5t-81 28.5q-61 0 -78 -76q0 -22 -13.5 -33.5t-33.5 -11.5q-60 0 -45 88z" />
<glyph unicode="&#xe4;" d="M100 528q0 233 139 388t343 155q122 0 223.5 -64t155.5 -161v141q0 27 17 45.5t44 18.5t44 -18t17 -46v-926q0 -26 -17.5 -43.5t-43.5 -17.5t-43.5 17.5t-17.5 43.5v146q-52 -97 -155.5 -162t-225.5 -65q-135 0 -245 71t-172.5 197t-62.5 280zM223 528 q0 -187 105.5 -310.5t267.5 -123.5t267.5 123.5t105.5 310.5q0 182 -106 305t-267 123t-267 -121t-106 -307zM332 1292v21q0 38 23 60t61 22q40 0 62 -22t22 -60v-21q0 -40 -22 -61t-62 -21t-62 22t-22 60zM684 1292v21q0 38 23 60t63 22q38 0 60 -22t22 -60v-21 q0 -40 -22 -61t-62 -21t-62 22t-22 60z" />
<glyph unicode="&#xe5;" d="M100 528q0 233 139 388t343 155q122 0 223.5 -64t155.5 -161v141q0 27 17 45.5t44 18.5t44 -18t17 -46v-926q0 -26 -17.5 -43.5t-43.5 -17.5t-43.5 17.5t-17.5 43.5v146q-52 -97 -155.5 -162t-225.5 -65q-135 0 -245 71t-172.5 197t-62.5 280zM223 528 q0 -187 105.5 -310.5t267.5 -123.5t267.5 123.5t105.5 310.5q0 182 -106 305t-267 123t-267 -121t-106 -307zM401 1337q0 83 62.5 142t146.5 59t146.5 -59t62.5 -142q0 -82 -62.5 -141t-146.5 -59t-146.5 59t-62.5 141zM494 1337q0 -48 33.5 -81t82.5 -33t84 33.5t35 80.5 q0 49 -35.5 83t-83.5 34q-49 0 -82.5 -33.5t-33.5 -83.5z" />
<glyph unicode="&#xe6;" horiz-adv-x="1839" d="M98 289q0 162 134.5 254t394.5 92h168v113q0 50 -15.5 88t-39 60.5t-57.5 36.5t-65.5 18.5t-68.5 4.5q-98 0 -188 -53t-142 -125q-21 -24 -49 -24q-22 0 -36.5 15.5t-14.5 37.5t12 39q71 92 183.5 158.5t236.5 66.5q128 0 222.5 -46t123.5 -148q66 93 164.5 143.5 t206.5 50.5q92 0 176.5 -32.5t150.5 -93t106.5 -154t43.5 -207.5q-2 -25 -19.5 -42.5t-42.5 -17.5h-776q2 -187 114 -308.5t300 -121.5q99 0 177.5 41.5t125.5 104.5q18 18 43 18q21 0 36 -16t15 -37q0 -23 -20 -43q-64 -79 -163.5 -130.5t-209.5 -51.5q-152 0 -271.5 63 t-187.5 176q-179 -239 -440 -239q-59 0 -116.5 19.5t-105 56t-77 97.5t-29.5 136zM221 295q0 -97 65 -149t148 -52q121 0 230 74t153 158q-29 95 -29 192v6h-165q-195 0 -298.5 -62t-103.5 -167zM918 635h698v16q-13 138 -116 219.5t-232 81.5q-75 0 -145 -32t-128 -106 t-77 -179z" />
<glyph unicode="&#xe7;" horiz-adv-x="1064" d="M98 526q0 148 65 272t185.5 198.5t272.5 74.5q96 0 179.5 -22t133 -59t49.5 -79q0 -23 -14.5 -41t-38.5 -18q-22 0 -37.5 10.5t-35.5 30t-42 31.5q-70 32 -186 32q-173 0 -290.5 -124t-117.5 -306q0 -187 113.5 -309.5t290.5 -122.5q116 0 204 47q20 12 40 30t33.5 27 t29.5 9q26 0 40.5 -15t14.5 -40q0 -51 -99.5 -107.5t-238.5 -64.5l-108 -234q-18 -41 -54 -41q-25 0 -56.5 20t-31.5 46q0 21 15 36l139 175q-205 22 -330 172.5t-125 371.5z" />
<glyph unicode="&#xe8;" horiz-adv-x="1150" d="M100 518q0 126 40.5 232.5t107.5 175.5t153 107t179 38q92 0 176 -32.5t150 -93t107 -154t44 -207.5q-2 -25 -20 -42.5t-44 -17.5h-774q2 -188 113.5 -309t300.5 -121q98 0 176 41.5t125 104.5q21 18 45 18q21 0 36 -16t15 -37q0 -26 -20 -43q-64 -79 -164 -130.5 t-211 -51.5q-238 0 -386.5 148.5t-148.5 389.5zM229 635h699v16q-10 93 -63 163t-127.5 104t-157.5 34q-75 0 -145.5 -32t-128.5 -106t-77 -179zM350 1370q0 28 17.5 44t44.5 16q37 0 63 -35l139 -183q17 -20 17 -32q0 -15 -11 -26t-28 -11q-23 0 -51 24l-162 150 q-29 23 -29 53z" />
<glyph unicode="&#xe9;" horiz-adv-x="1150" d="M100 518q0 126 40.5 232.5t107.5 175.5t153 107t179 38q92 0 176 -32.5t150 -93t107 -154t44 -207.5q-2 -25 -20 -42.5t-44 -17.5h-774q2 -188 113.5 -309t300.5 -121q98 0 176 41.5t125 104.5q21 18 45 18q21 0 36 -16t15 -37q0 -26 -20 -43q-64 -79 -164 -130.5 t-211 -51.5q-238 0 -386.5 148.5t-148.5 389.5zM229 635h699v16q-10 93 -63 163t-127.5 104t-157.5 34q-75 0 -145.5 -32t-128.5 -106t-77 -179zM530 1165q0 11 11 29l125 195q23 45 69 45q30 0 48.5 -17t17.5 -47q0 -22 -21 -47l-153 -162q-33 -33 -64 -33q-12 0 -22.5 11 t-10.5 26z" />
<glyph unicode="&#xea;" horiz-adv-x="1150" d="M100 518q0 126 40.5 232.5t107.5 175.5t153 107t179 38q92 0 176 -32.5t150 -93t107 -154t44 -207.5q-2 -25 -20 -42.5t-44 -17.5h-774q2 -188 113.5 -309t300.5 -121q98 0 176 41.5t125 104.5q21 18 45 18q21 0 36 -16t15 -37q0 -26 -20 -43q-64 -79 -164 -130.5 t-211 -51.5q-238 0 -386.5 148.5t-148.5 389.5zM229 635h699v16q-10 93 -63 163t-127.5 104t-157.5 34q-75 0 -145.5 -32t-128.5 -106t-77 -179zM344 1210q0 17 16 33l150 164q22 35 68 35h32q45 0 66 -35l147 -162q15 -18 15 -35q0 -11 -10 -20.5t-23 -9.5q-24 0 -55 28 l-162 129l-156 -131q-35 -28 -53 -28q-15 0 -25 10t-10 22z" />
<glyph unicode="&#xeb;" horiz-adv-x="1150" d="M100 518q0 126 40.5 232.5t107.5 175.5t153 107t179 38q92 0 176 -32.5t150 -93t107 -154t44 -207.5q-2 -25 -20 -42.5t-44 -17.5h-774q2 -188 113.5 -309t300.5 -121q98 0 176 41.5t125 104.5q21 18 45 18q21 0 36 -16t15 -37q0 -26 -20 -43q-64 -79 -164 -130.5 t-211 -51.5q-238 0 -386.5 148.5t-148.5 389.5zM229 635h699v16q-10 93 -63 163t-127.5 104t-157.5 34q-75 0 -145.5 -32t-128.5 -106t-77 -179zM311 1292v21q0 38 23 60t61 22q40 0 62 -22t22 -60v-21q0 -40 -22 -61t-62 -21t-62 22t-22 60zM664 1292v21q0 38 23 60t63 22 q38 0 59.5 -22t21.5 -60v-21q0 -40 -21.5 -61t-61.5 -21t-62 22t-22 60z" />
<glyph unicode="&#xec;" horiz-adv-x="464" d="M-6 1370q0 28 17 44t44 16q38 0 64 -35l139 -183q16 -19 16 -32q0 -15 -10.5 -26t-27.5 -11q-24 0 -52 24l-161 150q-29 23 -29 53zM170 63v924q0 26 18 45t43 19q27 0 44.5 -18.5t17.5 -45.5v-924q0 -26 -18 -44.5t-44 -18.5t-43.5 18.5t-17.5 44.5z" />
<glyph unicode="&#xed;" horiz-adv-x="464" d="M170 63v924q0 26 18 45t43 19q27 0 44.5 -18.5t17.5 -45.5v-924q0 -26 -18 -44.5t-44 -18.5t-43.5 18.5t-17.5 44.5zM174 1165q0 12 10 29l125 195q23 45 70 45q30 0 48 -17t17 -47q0 -24 -20 -47l-154 -162q-33 -33 -63 -33q-12 0 -22.5 11t-10.5 26z" />
<glyph unicode="&#xee;" horiz-adv-x="464" d="M-12 1210q0 17 16 33l150 164q22 35 67 35h33q44 0 65 -35l148 -162q14 -17 14 -35q0 -11 -9.5 -20.5t-22.5 -9.5q-25 0 -56 28l-162 129l-155 -131q-35 -28 -53 -28q-15 0 -25 10t-10 22zM170 63v924q0 26 18 45t43 19q27 0 44.5 -18.5t17.5 -45.5v-924q0 -26 -18 -44.5 t-44 -18.5t-43.5 18.5t-17.5 44.5z" />
<glyph unicode="&#xef;" horiz-adv-x="464" d="M-45 1292v21q0 38 23 60t61 22q40 0 62 -22t22 -60v-21q0 -40 -22 -61t-62 -21t-62 22t-22 60zM170 63v924q0 26 18 45t43 19q27 0 44.5 -18.5t17.5 -45.5v-924q0 -26 -18 -44.5t-44 -18.5t-43.5 18.5t-17.5 44.5zM307 1292v21q0 38 23 60t63 22q38 0 60 -22t22 -60v-21 q0 -40 -22 -61t-62 -21t-62 22t-22 60z" />
<glyph unicode="&#xf0;" horiz-adv-x="1181" d="M98 535q0 108 39 206t103.5 168t152 111t182.5 41q195 0 314 -156q-53 189 -160 307l-276 -92q-26 -8 -46 0t-26 31q-6 24 4.5 42t34.5 24l219 73q-103 77 -238 103q-51 16 -51 59q0 28 13.5 46t39.5 18q17 0 27 -5q193 -44 334 -176l170 56q24 8 44 0t26 -31 q7 -25 -3.5 -42.5t-35.5 -23.5l-123 -43q115 -143 172 -326.5t57 -342.5q0 -258 -140.5 -423t-346.5 -165q-132 0 -244.5 73.5t-177 198t-64.5 269.5zM221 535q0 -112 49 -209t132.5 -155t181.5 -58q150 0 257 125.5t107 296.5q0 107 -47.5 200.5t-132 150t-184.5 56.5 q-152 0 -257.5 -118.5t-105.5 -288.5z" />
<glyph unicode="&#xf1;" horiz-adv-x="1191" d="M170 63v924q0 26 18 45t43 19q26 0 44 -19t18 -45v-121q57 91 157 148t214 57q179 0 273.5 -110t94.5 -297v-601q0 -26 -17.5 -44.5t-43.5 -18.5q-25 0 -43.5 18.5t-18.5 44.5v594q0 133 -66.5 216t-201.5 83q-89 0 -168 -42.5t-129.5 -123t-50.5 -180.5v-547 q0 -26 -18 -44.5t-44 -18.5q-25 0 -43 18.5t-18 44.5zM293 1278q13 65 63.5 102t120.5 37q42 0 96.5 -30t103.5 -59.5t77 -29.5q59 0 65 78q-1 23 12 37t35 14q62 0 52 -86q-12 -68 -59 -106.5t-120 -38.5q-36 0 -90 29t-105 57.5t-81 28.5q-61 0 -78 -76q0 -22 -13.5 -33.5 t-33.5 -11.5q-60 0 -45 88z" />
<glyph unicode="&#xf2;" horiz-adv-x="1232" d="M98 524q0 234 149 390.5t369 156.5q146 0 264.5 -71t186.5 -196.5t68 -279.5q0 -234 -148.5 -389t-370.5 -155q-145 0 -263.5 70t-186.5 195t-68 279zM221 524q0 -185 113.5 -307.5t281.5 -122.5q170 0 283 122t113 308q0 187 -112.5 309.5t-283.5 122.5 q-168 0 -281.5 -123t-113.5 -309zM379 1386q0 28 17 44t44 16q38 0 64 -35l139 -182q16 -19 16 -33q0 -15 -10.5 -26t-27.5 -11q-23 0 -52 25l-161 149q-29 23 -29 53z" />
<glyph unicode="&#xf3;" horiz-adv-x="1232" d="M98 524q0 234 149 390.5t369 156.5q146 0 264.5 -71t186.5 -196.5t68 -279.5q0 -234 -148.5 -389t-370.5 -155q-145 0 -263.5 70t-186.5 195t-68 279zM221 524q0 -185 113.5 -307.5t281.5 -122.5q170 0 283 122t113 308q0 187 -112.5 309.5t-283.5 122.5 q-168 0 -281.5 -123t-113.5 -309zM559 1182q0 11 10 28l125 195q23 45 70 45q30 0 48 -17t17 -47q0 -24 -20 -47l-154 -161q-33 -33 -63 -33q-12 0 -22.5 11t-10.5 26z" />
<glyph unicode="&#xf4;" horiz-adv-x="1232" d="M98 524q0 234 149 390.5t369 156.5q146 0 264.5 -71t186.5 -196.5t68 -279.5q0 -234 -148.5 -389t-370.5 -155q-145 0 -263.5 70t-186.5 195t-68 279zM221 524q0 -185 113.5 -307.5t281.5 -122.5q170 0 283 122t113 308q0 187 -112.5 309.5t-283.5 122.5 q-168 0 -281.5 -123t-113.5 -309zM373 1225q0 16 16 32l150 164q22 35 67 35h33q45 0 66 -35l147 -161q14 -17 14 -35q0 -11 -9.5 -21t-22.5 -10q-24 0 -56 29l-162 129l-155 -131q-2 -2 -8 -6.5t-8 -6.5t-6.5 -5t-7.5 -4.5l-7 -3.5t-8 -2.5t-8 -0.5q-14 0 -24.5 10 t-10.5 23z" />
<glyph unicode="&#xf5;" horiz-adv-x="1232" d="M98 524q0 234 149 390.5t369 156.5q146 0 264.5 -71t186.5 -196.5t68 -279.5q0 -234 -148.5 -389t-370.5 -155q-145 0 -263.5 70t-186.5 195t-68 279zM221 524q0 -185 113.5 -307.5t281.5 -122.5q170 0 283 122t113 308q0 187 -112.5 309.5t-283.5 122.5 q-168 0 -281.5 -123t-113.5 -309zM307 1294q13 65 64 102.5t121 37.5q42 0 96 -30t103 -59.5t77 -29.5q60 0 66 78q-1 23 12 37t35 14q61 0 51 -86q-12 -68 -58.5 -107t-119.5 -39q-36 0 -90.5 29t-105.5 57.5t-81 28.5q-61 0 -78 -76q0 -22 -13.5 -33.5t-33.5 -11.5 q-60 0 -45 88z" />
<glyph unicode="&#xf6;" horiz-adv-x="1232" d="M98 524q0 234 149 390.5t369 156.5q146 0 264.5 -71t186.5 -196.5t68 -279.5q0 -234 -148.5 -389t-370.5 -155q-145 0 -263.5 70t-186.5 195t-68 279zM221 524q0 -185 113.5 -307.5t281.5 -122.5q170 0 283 122t113 308q0 187 -112.5 309.5t-283.5 122.5 q-168 0 -281.5 -123t-113.5 -309zM340 1309v20q0 38 23 60t61 22q40 0 62 -22t22 -60v-20q0 -40 -22 -61t-62 -21t-62 22t-22 60zM692 1309v20q0 38 23 60t63 22q38 0 60 -22t22 -60v-20q0 -40 -22 -61t-62 -21t-62 22t-22 60z" />
<glyph unicode="&#xf7;" horiz-adv-x="1218" d="M135 451q0 25 18 41t46 16h821q27 0 45 -17t18 -42t-18 -42.5t-45 -17.5h-821q-28 0 -46 18t-18 44zM506 90q0 38 27 65t65 27t66 -27t28 -65t-28 -65t-66 -27t-65 27t-27 65zM506 799q0 40 27 68t65 28t66 -28t28 -68q0 -38 -28 -65t-66 -27t-65 27t-27 65z" />
<glyph unicode="&#xf8;" horiz-adv-x="1243" d="M86 0q0 22 14 39l119 139q-110 145 -110 346q0 234 149 390.5t369 156.5q155 0 282 -84l86 100q21 21 43 21t40 -16t18 -39q0 -24 -15 -39l-84 -99q148 -158 148 -391q0 -234 -148 -389t-370 -155q-190 0 -328 116l-113 -131q-20 -20 -43 -20t-40 16.5t-17 38.5zM231 524 q0 -141 70 -250l533 623q-89 59 -207 59q-168 0 -282 -123t-114 -309zM375 186q110 -92 252 -92q170 0 282.5 122t112.5 308q0 176 -102 299z" />
<glyph unicode="&#xf9;" horiz-adv-x="1161" d="M160 401v586q0 27 17.5 45.5t43.5 18.5t44 -19t18 -45v-586q0 -147 78 -224t219 -77q143 0 222 77t79 224v586q0 27 17 45.5t44 18.5q26 0 44 -19t18 -45v-586q0 -200 -113 -307.5t-311 -107.5q-196 0 -308 107.5t-112 307.5zM344 1370q0 28 17.5 44t44.5 16q37 0 63 -35 l139 -183q17 -20 17 -32q0 -15 -11 -26t-28 -11q-23 0 -51 24l-162 150q-29 23 -29 53z" />
<glyph unicode="&#xfa;" horiz-adv-x="1161" d="M160 401v586q0 27 17.5 45.5t43.5 18.5t44 -19t18 -45v-586q0 -147 78 -224t219 -77q143 0 222 77t79 224v586q0 27 17 45.5t44 18.5q26 0 44 -19t18 -45v-586q0 -200 -113 -307.5t-311 -107.5q-196 0 -308 107.5t-112 307.5zM524 1165q0 11 11 29l124 195q23 45 70 45 q30 0 48.5 -17t17.5 -47q0 -22 -21 -47l-153 -162q-33 -33 -64 -33q-12 0 -22.5 11t-10.5 26z" />
<glyph unicode="&#xfb;" horiz-adv-x="1161" d="M160 401v586q0 27 17.5 45.5t43.5 18.5t44 -19t18 -45v-586q0 -147 78 -224t219 -77q143 0 222 77t79 224v586q0 27 17 45.5t44 18.5q26 0 44 -19t18 -45v-586q0 -200 -113 -307.5t-311 -107.5q-196 0 -308 107.5t-112 307.5zM338 1210q0 17 16 33l150 164q22 35 67 35 h33q45 0 66 -35l147 -162q14 -17 14 -35q0 -11 -9.5 -20.5t-22.5 -9.5q-25 0 -56 28l-161 129l-156 -131q-35 -28 -53 -28q-15 0 -25 10t-10 22z" />
<glyph unicode="&#xfc;" horiz-adv-x="1161" d="M160 401v586q0 27 17.5 45.5t43.5 18.5t44 -19t18 -45v-586q0 -147 78 -224t219 -77q143 0 222 77t79 224v586q0 27 17 45.5t44 18.5q26 0 44 -19t18 -45v-586q0 -200 -113 -307.5t-311 -107.5q-196 0 -308 107.5t-112 307.5zM305 1292v21q0 38 23 60t61 22q40 0 62 -22 t22 -60v-21q0 -40 -22 -61t-62 -21t-62 22t-22 60zM657 1292v21q0 38 23 60t63 22q38 0 60 -22t22 -60v-21q0 -40 -22 -61t-62 -21t-62 22t-22 60z" />
<glyph unicode="&#xfd;" horiz-adv-x="1171" d="M160 375v612q0 27 17 45.5t44 18.5t44.5 -18.5t17.5 -45.5v-594q0 -299 266 -299q129 0 229.5 90.5t100.5 208.5v594q0 27 17 45.5t44 18.5t44 -18.5t17 -45.5v-887q0 -122 -37.5 -219.5t-103.5 -160.5t-155.5 -96.5t-194.5 -33.5q-172 0 -285 70q-45 23 -45 59 q0 25 15 42.5t38 17.5q17 0 37 -10q39 -25 103 -46.5t137 -21.5q168 0 269.5 107t101.5 290v68q-51 -85 -147.5 -135.5t-205.5 -50.5q-182 0 -275 106t-93 289zM522 1165q0 12 10 29l125 195q23 45 70 45q30 0 48.5 -17t17.5 -47q0 -22 -21 -47l-154 -162q-33 -33 -63 -33 q-12 0 -22.5 11t-10.5 26z" />
<glyph unicode="&#xfe;" d="M174 -348v1802q0 27 17.5 44.5t44.5 17.5q26 0 43.5 -18t17.5 -44v-606q54 97 154.5 152t220.5 55q206 0 343.5 -151t137.5 -382q0 -232 -137 -384t-342 -152q-118 0 -217 56.5t-160 150.5v-541q0 -26 -17.5 -44t-43.5 -18t-44 18t-18 44zM287 522q0 -184 105 -303 t270 -119q161 0 266.5 119.5t105.5 302.5q0 181 -105.5 299.5t-266.5 118.5q-165 0 -270 -117.5t-105 -300.5z" />
<glyph unicode="&#xff;" horiz-adv-x="1171" d="M160 375v612q0 27 17 45.5t44 18.5t44.5 -18.5t17.5 -45.5v-594q0 -299 266 -299q129 0 229.5 90.5t100.5 208.5v594q0 27 17 45.5t44 18.5t44 -18.5t17 -45.5v-887q0 -122 -37.5 -219.5t-103.5 -160.5t-155.5 -96.5t-194.5 -33.5q-172 0 -285 70q-45 23 -45 59 q0 25 15 42.5t38 17.5q17 0 37 -10q39 -25 103 -46.5t137 -21.5q168 0 269.5 107t101.5 290v68q-51 -85 -147.5 -135.5t-205.5 -50.5q-182 0 -275 106t-93 289zM303 1292v21q0 38 23 60t61 22q40 0 62 -22t22 -60v-21q0 -40 -22 -61t-62 -21t-62 22t-22 60zM655 1292v21 q0 38 23 60t63 22q38 0 60 -22t22 -60v-21q0 -40 -22 -61t-62 -21t-62 22t-22 60z" />
<glyph unicode="&#x152;" horiz-adv-x="2048" d="M115 717q0 115 22.5 220t70.5 196t117.5 158t169 105t218.5 38h1173q26 0 44 -18t18 -44q0 -27 -17.5 -44t-44.5 -17h-669v-510h577q26 0 43.5 -18.5t17.5 -45.5q0 -26 -17.5 -42.5t-43.5 -16.5h-577v-555h669q26 0 44 -18t18 -44q0 -27 -17.5 -44t-44.5 -17h-1173 q-149 0 -265 56.5t-187.5 155.5t-108.5 227t-37 278zM238 717q0 -127 28.5 -232.5t86.5 -187.5t154 -128t222 -46h363v1188h-363q-126 0 -222 -48t-153.5 -131.5t-86.5 -188t-29 -226.5z" />
<glyph unicode="&#x153;" horiz-adv-x="2068" d="M98 524q0 234 149 390.5t369 156.5q152 0 273 -76.5t186 -208.5q62 134 176.5 209.5t247.5 75.5q92 0 176 -32.5t150 -93t107 -154t44 -207.5q-2 -25 -19.5 -42.5t-43.5 -17.5h-774q2 -188 113 -309t300 -121q98 0 176 41.5t125 104.5q21 18 45 18q21 0 36.5 -16 t15.5 -37q0 -25 -21 -43q-64 -79 -164 -130.5t-211 -51.5q-166 0 -290.5 74.5t-188.5 207.5q-65 -130 -186.5 -206t-272.5 -76q-145 0 -263.5 70t-186.5 195t-68 279zM221 524q0 -185 113.5 -307.5t281.5 -122.5q170 0 283 122t113 308q0 187 -112.5 309.5t-283.5 122.5 q-168 0 -281.5 -123t-113.5 -309zM1149 635h698v16q-10 93 -63 163t-127.5 104t-157.5 34q-75 0 -145 -32t-128 -106t-77 -179z" />
<glyph unicode="&#x178;" horiz-adv-x="1191" d="M61 1380q0 25 21 43.5t45 18.5q28 0 51 -29l422 -577l416 577q19 29 51 29q26 0 43.5 -19.5t17.5 -42.5q0 -21 -12 -39l-457 -630v-650q0 -26 -17.5 -43.5t-43.5 -17.5q-28 0 -45.5 17.5t-17.5 43.5v652l-459 624q-15 21 -15 43zM334 1669v21q0 38 23.5 60t62.5 22 q40 0 62 -22t22 -60v-21q0 -39 -23 -60.5t-63 -21.5t-62 22t-22 60zM686 1669v21q0 38 23 60t63 22t62 -22t22 -60v-21q0 -39 -23 -60.5t-63 -21.5t-62 22t-22 60z" />
<glyph unicode="&#x2c6;" horiz-adv-x="706" d="M102 1227q0 16 17 33l149 163q22 35 68 35h33q44 0 65 -35l148 -161q14 -17 14 -35q0 -11 -10 -21t-23 -10q-23 0 -55 29l-162 129l-156 -131q-2 -2 -8 -6.5t-8 -6.5t-6.5 -5t-7.5 -4.5l-7 -3.5t-8 -2.5t-8 -0.5q-15 0 -25 10t-10 23z" />
<glyph unicode="&#x2dc;" horiz-adv-x="921" d="M145 1262q0 61 50 116.5t141 55.5q48 0 146 -58.5t132 -58.5q28 0 45.5 20.5t20.5 55.5q-3 23 10.5 38t36.5 15q21 0 37 -15.5t16 -39.5q0 -75 -47.5 -127t-132.5 -52q-46 0 -144.5 56.5t-131.5 56.5q-64 0 -78 -74q0 -22 -13.5 -34.5t-33.5 -12.5q-24 0 -39 15t-15 43z " />
<glyph unicode="&#x2000;" horiz-adv-x="913" />
<glyph unicode="&#x2001;" horiz-adv-x="1827" />
<glyph unicode="&#x2002;" horiz-adv-x="913" />
<glyph unicode="&#x2003;" horiz-adv-x="1827" />
<glyph unicode="&#x2004;" horiz-adv-x="609" />
<glyph unicode="&#x2005;" horiz-adv-x="456" />
<glyph unicode="&#x2006;" horiz-adv-x="304" />
<glyph unicode="&#x2007;" horiz-adv-x="304" />
<glyph unicode="&#x2008;" horiz-adv-x="228" />
<glyph unicode="&#x2009;" horiz-adv-x="365" />
<glyph unicode="&#x200a;" horiz-adv-x="101" />
<glyph unicode="&#x2010;" horiz-adv-x="851" d="M143 535q0 26 17.5 42.5t44.5 16.5h442q26 0 43 -18t17 -46q0 -25 -17 -41t-43 -16h-442q-26 0 -44 18t-18 44z" />
<glyph unicode="&#x2011;" horiz-adv-x="851" d="M143 535q0 26 17.5 42.5t44.5 16.5h442q26 0 43 -18t17 -46q0 -25 -17 -41t-43 -16h-442q-26 0 -44 18t-18 44z" />
<glyph unicode="&#x2012;" horiz-adv-x="851" d="M143 535q0 26 17.5 42.5t44.5 16.5h442q26 0 43 -18t17 -46q0 -25 -17 -41t-43 -16h-442q-26 0 -44 18t-18 44z" />
<glyph unicode="&#x2013;" horiz-adv-x="1099" d="M145 537q0 27 18 43t46 16h682q28 0 45.5 -16t17.5 -43q0 -26 -17.5 -43t-45.5 -17h-682q-28 0 -46 17t-18 43z" />
<glyph unicode="&#x2014;" horiz-adv-x="1771" d="M145 541q0 27 18 44t46 17h1354q28 0 45.5 -16.5t17.5 -44.5t-17.5 -46t-45.5 -18h-1354q-28 0 -46 18t-18 46z" />
<glyph unicode="&#x2018;" horiz-adv-x="466" d="M109 1200q0 90 62.5 169t129.5 79q51 0 51 -45q0 -20 -8.5 -28.5t-31.5 -15t-33 -11.5q-27 -15 -42.5 -43t-15.5 -60q0 -22 12 -36.5t33 -14.5q31 0 53 18q27 -24 27 -55q-3 -33 -39.5 -58.5t-77.5 -25.5q-55 0 -87.5 34t-32.5 93z" />
<glyph unicode="&#x2019;" horiz-adv-x="468" d="M129 1118q0 20 8.5 28.5t32.5 16t33 11.5q27 15 42 42.5t15 59.5q0 22 -12 36.5t-33 14.5q-31 0 -53 -18q-27 24 -27 55q3 33 39.5 58.5t77.5 25.5q55 0 88 -34t33 -93q0 -89 -63 -168.5t-130 -79.5q-51 0 -51 45z" />
<glyph unicode="&#x201a;" horiz-adv-x="448" d="M98 -199q0 20 9.5 29t32 15.5t32.5 11.5q28 15 43.5 42.5t15.5 59.5q0 24 -12 37.5t-33 13.5q-34 0 -55 -18q-27 24 -25 55q1 34 38.5 60t78.5 26q53 0 86 -34t33 -93q0 -89 -62.5 -169.5t-127.5 -80.5q-54 0 -54 45z" />
<glyph unicode="&#x201c;" horiz-adv-x="796" d="M111 1196q0 90 62.5 169t129.5 79q51 0 51 -45q0 -15 -7 -24.5t-15 -13t-24.5 -8.5t-26.5 -10q-27 -15 -42.5 -43t-15.5 -59q0 -22 12 -36.5t33 -14.5q32 0 54 18q26 -23 26 -55q-3 -33 -39.5 -58.5t-77.5 -25.5q-55 0 -87.5 34t-32.5 93zM438 1196q0 89 63 168.5 t130 79.5q51 0 51 -45q0 -20 -8.5 -28.5t-32.5 -16t-33 -11.5q-27 -15 -42 -42.5t-15 -59.5q0 -22 12 -36.5t33 -14.5q31 0 53 18q27 -24 27 -55q-3 -33 -39.5 -58.5t-77.5 -25.5q-55 0 -88 34t-33 93z" />
<glyph unicode="&#x201d;" horiz-adv-x="800" d="M129 1108q0 15 7 24.5t15.5 12.5t25 8t26.5 10q27 15 42 43t15 60q0 22 -12 36.5t-33 14.5q-30 0 -53 -19q-27 24 -27 56q3 33 39.5 58.5t77.5 25.5q55 0 88 -34t33 -93q0 -89 -63 -168.5t-130 -79.5q-51 0 -51 45zM457 1108q0 20 8.5 28.5t31.5 15t33 11.5 q27 15 42.5 43t15.5 60q0 22 -12 36.5t-33 14.5q-31 0 -54 -19q-26 23 -26 56q3 33 39.5 58.5t77.5 25.5q55 0 87.5 -34t32.5 -93q0 -90 -62.5 -169t-129.5 -79q-51 0 -51 45z" />
<glyph unicode="&#x201e;" horiz-adv-x="739" d="M98 -199q0 20 9.5 29t32 15.5t32.5 11.5q28 15 43.5 42.5t15.5 59.5q0 24 -12 37.5t-33 13.5q-34 0 -55 -18q-27 24 -25 55q1 34 38.5 60t78.5 26q53 0 86 -34t33 -93q0 -89 -62.5 -169.5t-127.5 -80.5q-54 0 -54 45zM391 -199q0 20 9.5 29t32 15.5t32.5 11.5 q28 15 43.5 42.5t15.5 59.5q0 24 -12 37.5t-33 13.5q-34 0 -55 -18q-27 24 -25 55q1 34 38.5 60t78.5 26q53 0 86 -34t33 -93q0 -89 -62.5 -169.5t-128.5 -80.5q-53 0 -53 45z" />
<glyph unicode="&#x2022;" horiz-adv-x="849" d="M162 721q0 108 78 185t186 77t185 -77t77 -185t-77 -185t-185 -77q-109 0 -186.5 76.5t-77.5 185.5z" />
<glyph unicode="&#x2026;" horiz-adv-x="1200" d="M135 80v43q0 36 18.5 57t53.5 21h12q35 0 53.5 -21t18.5 -57v-43q0 -37 -18.5 -58.5t-53.5 -21.5h-12q-35 0 -53.5 21.5t-18.5 58.5zM516 80v43q0 36 18.5 57t53.5 21h12q35 0 53.5 -21t18.5 -57v-43q0 -37 -18.5 -58.5t-53.5 -21.5h-12q-35 0 -53.5 21.5t-18.5 58.5z M909 80v43q0 36 18.5 57t53.5 21h12q35 0 53.5 -21t18.5 -57v-43q0 -37 -18.5 -58.5t-53.5 -21.5h-12q-35 0 -53.5 21.5t-18.5 58.5z" />
<glyph unicode="&#x202f;" horiz-adv-x="365" />
<glyph unicode="&#x2039;" horiz-adv-x="604" d="M96 528q0 16 15 39l268 359q19 26 47 26q24 0 41.5 -15.5t17.5 -39.5q0 -21 -18 -43l-238 -326l240 -325q16 -19 16 -39q0 -29 -19.5 -45.5t-41.5 -16.5q-28 0 -47 25l-266 360q-15 22 -15 41z" />
<glyph unicode="&#x203a;" horiz-adv-x="604" d="M119 891q0 28 19.5 44.5t41.5 16.5q26 0 47 -24l267 -361q14 -17 14 -41q0 -22 -14 -39l-269 -358q-20 -27 -47 -27q-23 0 -40 15.5t-17 40.5q0 24 16 43l240 327l-242 322q-16 22 -16 41z" />
<glyph unicode="&#x205f;" horiz-adv-x="456" />
<glyph unicode="&#x20ac;" horiz-adv-x="1441" d="M70 547q0 26 18 42.5t45 16.5l123 -2q-6 55 -6 113q0 31 2 45l-119 2q-27 0 -45 16.5t-18 42.5t18 43t45 17l133 -2q50 254 233.5 412.5t430.5 158.5q102 0 201 -33t178 -92q26 -15 30.5 -41t-14.5 -51q-31 -39 -80 -12q-143 108 -315 108q-198 0 -345.5 -123 t-193.5 -327l414 -4q27 0 45 -17t18 -43t-18 -42.5t-45 -16.5l-430 4q-2 -14 -2 -45q0 -66 8 -113l424 -4q27 0 45 -16.5t18 -42.5t-18 -43t-45 -17l-395 4q58 -179 198.5 -282t321.5 -103q171 0 313 107q21 13 44 9.5t38 -23.5q18 -23 14 -49t-28 -40q-72 -53 -177 -88.5 t-204 -35.5q-229 0 -407 137.5t-242 367.5l-148 2q-27 0 -45 17t-18 43z" />
<glyph unicode="&#x2122;" horiz-adv-x="1654" d="M66 1384q0 24 14 37t37 13h461q21 0 36 -13t15 -37t-13.5 -37.5t-37.5 -13.5h-187v-565q0 -22 -14.5 -36.5t-38.5 -14.5q-23 0 -37 14.5t-14 36.5v565h-170q-22 0 -36.5 14.5t-14.5 36.5zM760 748v634q0 21 14.5 36.5t36.5 15.5q39 0 59 -29l244 -422l258 422 q22 33 64 29q23 -1 36 -15.5t13 -36.5v-634q0 -21 -16.5 -36.5t-38.5 -15.5q-26 0 -42 15t-16 37v477l-217 -369q-11 -20 -45 -20q-33 0 -43 20l-199 354v-462q-3 -23 -17 -37.5t-36 -14.5q-25 0 -40 15t-15 37z" />
<glyph unicode="&#x25fc;" horiz-adv-x="1054" d="M0 0v1055h1055v-1055h-1055z" />
<glyph unicode="&#xfb03;" horiz-adv-x="1875" d="M37 969q0 26 16.5 41.5t40.5 15.5h152v211q0 128 74.5 199t199.5 71q24 0 48.5 -3.5t49.5 -11.5t40.5 -23t15.5 -35q0 -25 -15.5 -41.5t-37.5 -16.5q-13 0 -53 11.5t-64 11.5q-65 0 -100 -43t-35 -119v-211h227q24 0 40.5 -16.5t16.5 -40.5q0 -25 -16.5 -41.5 t-40.5 -16.5h-227v-850q0 -26 -18 -43.5t-44 -17.5q-27 0 -44 17t-17 44v850h-152q-23 0 -40 17.5t-17 40.5zM760 969q0 26 16.5 41.5t40.5 15.5h152v211q0 128 74.5 199t199.5 71q24 0 48.5 -3.5t49.5 -11.5t40.5 -23t15.5 -35q0 -24 -16 -41t-38 -17q-13 0 -52 11.5 t-64 11.5q-65 0 -100 -43t-35 -119v-211h227q24 0 40.5 -16.5t16.5 -40.5q0 -25 -17 -41.5t-40 -16.5h-227v-850q0 -26 -18 -43.5t-44 -17.5q-27 0 -44 17t-17 44v850h-152q-23 0 -40 17.5t-17 40.5zM1556 1278v20q0 36 23.5 56t65.5 20q81 0 81 -76v-20q0 -37 -22 -56.5 t-62 -19.5q-41 0 -63.5 19.5t-22.5 56.5zM1581 63v924q0 26 18 45t43 19q27 0 44.5 -18.5t17.5 -45.5v-924q0 -26 -18 -44.5t-44 -18.5t-43.5 18.5t-17.5 44.5z" />
<glyph unicode="&#xfb04;" horiz-adv-x="1894" d="M37 969q0 26 16.5 41.5t40.5 15.5h152v211q0 128 74.5 199t199.5 71q24 0 48.5 -3.5t49.5 -11.5t40.5 -23t15.5 -35q0 -25 -15.5 -41.5t-37.5 -16.5q-13 0 -53 11.5t-64 11.5q-65 0 -100 -43t-35 -119v-211h227q24 0 40.5 -16.5t16.5 -40.5q0 -25 -16.5 -41.5 t-40.5 -16.5h-227v-850q0 -26 -18 -43.5t-44 -17.5q-27 0 -44 17t-17 44v850h-152q-23 0 -40 17.5t-17 40.5zM760 969q0 26 16.5 41.5t40.5 15.5h152v211q0 128 74.5 199t199.5 71q24 0 48.5 -3.5t49.5 -11.5t40.5 -23t15.5 -35q0 -24 -16 -41t-38 -17q-13 0 -52 11.5 t-64 11.5q-65 0 -100 -43t-35 -119v-211h227q24 0 40.5 -16.5t16.5 -40.5q0 -25 -17 -41.5t-40 -16.5h-227v-850q0 -26 -18 -43.5t-44 -17.5q-27 0 -44 17t-17 44v850h-152q-23 0 -40 17.5t-17 40.5zM1597 61v1393q0 26 19 44t45 18t42.5 -17.5t16.5 -44.5v-1393 q0 -26 -17.5 -43.5t-43.5 -17.5t-44 17.5t-18 43.5z" />
</font>
</defs>
</svg>
