<svg width="12" height="12" viewBox="0 0 12 12" fill="none" xmlns="http://www.w3.org/2000/svg">
<path fill-rule="evenodd" clip-rule="evenodd" d="M9.24 11.9885C4.1448 11.9885 0 7.8477 0 2.75736C0 1.23662 1.2384 0 2.76 0C2.916 0 3.0702 0.0131874 3.2196 0.0389628C3.3654 0.0623404 3.5124 0.0995049 3.6546 0.148658C3.8502 0.216393 3.9966 0.380037 4.0428 0.581444L4.8648 4.15643C4.9098 4.35304 4.8528 4.55924 4.713 4.7055C4.6308 4.79062 4.629 4.79242 3.885 5.18145C4.4874 6.4846 5.5344 7.52701 6.813 8.10845C7.2024 7.36456 7.2048 7.36216 7.29 7.28064C7.437 7.14038 7.644 7.08583 7.8402 7.12899L11.4186 7.9496C11.6196 7.99576 11.7834 8.14202 11.8512 8.33683C11.9004 8.4783 11.937 8.62456 11.9616 8.77501C11.9868 8.92307 12 9.07652 12 9.23118C12 10.7519 10.7622 11.9885 9.24 11.9885Z" fill="#231F20"/>
</svg>
