<svg xmlns="http://www.w3.org/2000/svg" viewBox="0 0 43 43">
  <defs>
    <style>
      .cls-1 {
        fill: #00004c;
      }
    </style>
  </defs>
  <title>diamond</title>
  <g id="Layer_2" data-name="Layer 2">
    <path class="cls-1"
      d="M43.12,14.29,36,3.58a.49.49,0,0,0-.4-.21H6.23a.47.47,0,0,0-.42.25L-.14,14.33a.47.47,0,0,0,.05.53l20.63,24.6a.49.49,0,0,0,.36.17h0a.48.48,0,0,0,.36-.16l21.82-24.6A.48.48,0,0,0,43.12,14.29Zm-1.29-.21h-11L28.07,4.32h7.26ZM11.05,15l8.37,21.61L1.3,15Zm18.68,0L20.9,37.83,12.07,15ZM12,14.08l2.72-9.76H27.08l2.72,9.76ZM30.75,15H41.66L22.29,36.87ZM6.51,4.32h7.23L11,14.08H1.09Z">
    </path>
  </g>
</svg>
