<svg width="18" height="20" viewBox="0 0 18 20" fill="none" xmlns="http://www.w3.org/2000/svg">
<path d="M9.39783 16.8831C9.62056 16.8831 9.83416 16.9715 9.99165 17.129C10.1491 17.2865 10.2376 17.5001 10.2376 17.7229C10.2376 17.9456 10.1491 18.1592 9.99165 18.3167C9.83416 18.4742 9.62056 18.5626 9.39783 18.5626C9.17511 18.5626 8.96151 18.4742 8.80402 18.3167C8.64653 18.1592 8.55805 17.9456 8.55805 17.7229C8.55805 17.5001 8.64653 17.2865 8.80402 17.129C8.96151 16.9715 9.17511 16.8831 9.39783 16.8831ZM9.39783 16.8831V9.32502M2.28319 5.373L9.15262 9.18897C9.22749 9.23059 9.31175 9.25243 9.39741 9.25243C9.48308 9.25243 9.56733 9.23059 9.64221 9.18897L16.536 5.35956M1.83978 5.96588C2.06251 5.96588 2.27611 5.87741 2.4336 5.71992C2.59109 5.56243 2.67957 5.34882 2.67957 5.1261C2.67957 4.90338 2.59109 4.68977 2.4336 4.53228C2.27611 4.37479 2.06251 4.28632 1.83978 4.28632C1.61706 4.28632 1.40346 4.37479 1.24597 4.53228C1.08848 4.68977 1 4.90338 1 5.1261C1 5.34882 1.08848 5.56243 1.24597 5.71992C1.40346 5.87741 1.61706 5.96588 1.83978 5.96588ZM1.83978 14.3637C2.06251 14.3637 2.27611 14.2752 2.4336 14.1178C2.59109 13.9603 2.67957 13.7467 2.67957 13.5239C2.67957 13.3012 2.59109 13.0876 2.4336 12.9301C2.27611 12.7726 2.06251 12.6842 1.83978 12.6842C1.61706 12.6842 1.40346 12.7726 1.24597 12.9301C1.08848 13.0876 1 13.3012 1 13.5239C1 13.7467 1.08848 13.9603 1.24597 14.1178C1.40346 14.2752 1.61706 14.3637 1.83978 14.3637ZM16.9559 5.42254V13.2275C16.9559 13.3175 16.9319 13.4058 16.8863 13.4833C16.8406 13.5608 16.7751 13.6247 16.6964 13.6684L9.64221 17.5868C9.56744 17.6283 9.48334 17.65 9.39783 17.65C9.31233 17.65 9.22823 17.6283 9.15346 17.5868L2.09928 13.6684C2.0206 13.6247 1.95505 13.5608 1.90941 13.4833C1.86378 13.4058 1.83974 13.3175 1.83978 13.2275V5.42254C1.83989 5.33272 1.864 5.24457 1.90963 5.1672C1.95525 5.08983 2.02073 5.02606 2.09928 4.9825L9.15346 1.06323C9.22823 1.02176 9.31233 1 9.39783 1C9.48334 1 9.56744 1.02176 9.64221 1.06323L16.6964 4.9825C16.7749 5.02606 16.8404 5.08983 16.886 5.1672C16.9317 5.24457 16.9558 5.33272 16.9559 5.42254Z" stroke="#FDC100" stroke-width="1.13971" stroke-linecap="round" stroke-linejoin="round"/>
</svg>
