<?xml version="1.0" encoding="utf-8"?>
<!-- Generator: Adobe Illustrator 25.4.1, SVG Export Plug-In . SVG Version: 6.00 Build 0)  -->
<svg version="1.1" id="Livello_1" xmlns="http://www.w3.org/2000/svg" xmlns:xlink="http://www.w3.org/1999/xlink" x="0px" y="0px"
	 viewBox="0 0 384 195.3" style="enable-background:new 0 0 384 195.3;" xml:space="preserve">
<style type="text/css">
	.st0{fill:#6F6F6E;}
	.st1{fill:#E3032E;}
	.st2{fill:url(#SVGID_1_);}
	.st3{fill:url(#SVGID_00000168808829467475428190000015609817177472665019_);}
	.st4{opacity:0.2;clip-path:url(#SVGID_00000112616234942694573860000012430564291092645766_);fill:#FFFFFF;}
</style>
<g>
	<g>
		<path class="st0" d="M47.8,87.7c0,12.9-8.4,20.4-22.9,20.4H9.5v18.6H2.8V68h22.1C39.4,68,47.8,75.2,47.8,87.7z M41.3,87.9
			c0-9-6.1-13.7-16.7-13.7H9.5v27.7h15.1C35.2,101.9,41.3,97.1,41.3,87.9z"/>
		<path class="st0" d="M82.1,126.7v-6.9c-3.5,4.8-9.1,7.1-16.2,7.1c-9.1,0-15-5.8-15-13.3c0-7.7,6.1-12.6,16.5-12.7h14.5v-2.8
			c0-6.5-4-10.4-11.8-10.4c-4.9,0-9.4,1.8-14,5.1l-2.8-4.6c5.7-3.8,10.5-6,18-6c10.9,0,16.9,5.8,17,15.2l0.1,29.2H82.1z M82,111.5
			v-5.4H68.3c-7.4,0-11.2,2.3-11.2,7.2c0,4.9,3.9,8.1,10.2,8.1C74.6,121.5,80.3,117.8,82,111.5z"/>
		<path class="st0" d="M138.2,82.6v39.5c0,12.9-8.8,21.1-22.2,21.1c-7-0.1-12.8-2.3-18.1-6.5l3-4.8c4.4,3.6,9,5.5,14.8,5.6
			c9.6,0,15.9-6,15.9-15.3v-6.7c-3.1,5.9-8.8,9.2-16.3,9.2c-11.9,0-20.1-8.8-20.1-21.3c0-12.4,8.1-21.1,20-21.1
			c7.5-0.1,13.3,3.4,16.4,9.2v-9H138.2z M131.7,103.6c0-9.2-6.3-15.9-15.1-15.9c-8.9,0-15.1,6.6-15.2,15.9
			c0.1,9.1,6.3,15.8,15.2,15.8C125.4,119.4,131.7,112.8,131.7,103.6z"/>
		<path class="st0" d="M190.1,104.6c0,13.2-9.3,22.4-22.4,22.4c-13.2,0-22.4-9.2-22.4-22.4c0-13.1,9.2-22.2,22.4-22.2
			C180.8,82.3,190.1,91.5,190.1,104.6z M151.8,104.6c0,9.9,6.5,16.6,15.9,16.6c9.2,0,15.9-6.7,15.9-16.6c0-9.7-6.6-16.5-15.9-16.5
			C158.4,88.1,151.8,94.9,151.8,104.6z"/>
		<path class="st1" d="M252.5,97.3c0,17.3-12.8,29.4-31.4,29.4h-24.4V68h24.9C239.8,68,252.5,80,252.5,97.3z M239,97.4
			c0-10.8-7.6-18.3-17.6-18.3H210v36.4h12C231.8,115.5,239,108.2,239,97.4z"/>
		<path class="st1" d="M272.8,68v58.7h-13.3V68H272.8z"/>
		<path class="st1" d="M296.5,68v47.1h25.2v11.6h-38.4V68H296.5z"/>
	</g>
</g>
<g>
	<g>
		<path class="st0" d="M17.8,165.6c0,4.4-2.9,7.5-7.1,7.5c-2.7,0-4.7-1.2-5.8-3.3v3.2H2.7V152h2.2v9.3c1.1-2.1,3.1-3.3,5.8-3.3
			C14.9,158,17.8,161.1,17.8,165.6z M15.6,165.5c0-3.2-2.2-5.6-5.3-5.6c-3.1,0-5.4,2.4-5.4,5.6c0,3.3,2.2,5.6,5.4,5.6
			C13.4,171.1,15.6,168.8,15.6,165.5z"/>
		<path class="st0" d="M20.4,178.6c-1.2,0-2.2-0.3-3.1-1.1l0.9-1.8c0.7,0.5,1.4,0.7,2.1,0.7c1.2,0,2.1-0.7,2.7-2.2l0.6-1.4
			l-6.2-14.8h2.3l5,12.4l4.7-12.4h2.3l-6.9,17.1C23.9,177.4,22.4,178.6,20.4,178.6z"/>
	</g>
</g>
<g>
	<path class="st1" d="M61.8,177.9c-0.4,1.5-1,2.7-2.1,3.7c-1.1,1.1-2.8,2.1-4.8,2.4c-1,0.2-1.6,0.3-2.7,0.3c-7.2,0-10.9-5-10.9-11.8
		c0-6.7,3.5-12.1,10.7-12.1c2.5,0,4.3,0.5,5.9,1.5c1.8,1.1,3.1,2.7,3.7,3.5l4.8-2.3c-2.9-4.4-7.6-6.3-13.6-6.3
		c-10.4,0-17,5.9-17,15.6c0,9.3,5.7,15.5,16.5,15.5c7.2,0,14.4-3,15.2-10H61.8z"/>
	<g>
		<g>
			<g>
				<path class="st1" d="M83.4,188.2c-8.8,0-13.7-4.2-13.7-11.8c0-7.5,5-11.8,13.7-11.8c8.8,0,13.7,4.2,13.7,11.8
					C97.2,184.1,92.3,188.2,83.4,188.2L83.4,188.2z M83.4,167.9c-5.4,0-8.9,3.4-8.9,8.6c0,5.2,3.5,8.6,8.9,8.6
					c5.4,0,8.9-3.4,8.9-8.6C92.4,171.2,88.9,167.9,83.4,167.9L83.4,167.9z"/>
			</g>
			<g>
				<path class="st1" d="M107.3,187.4h-4.5v-18.8h-5.7v-3.2h5.7v-1.1c0-6,2.5-8.6,8-8.6c1.3,0,2.8,0.1,4,0.3l0.1,0v3.2l-0.2,0
					c-0.5-0.1-1.6-0.3-2.8-0.3c-3.3,0-4.6,1.3-4.6,4.7v1.8h7v3.2h-7V187.4L107.3,187.4z"/>
			</g>
		</g>
		<g>
			<g>
				<path class="st1" d="M161.4,160.5h-4.5v-4.6h4.5V160.5L161.4,160.5z"/>
			</g>
			<g>
				<path class="st1" d="M161.4,187.4h-4.5v-19.9l4.3-2h0.2V187.4L161.4,187.4z"/>
			</g>
		</g>
		<g>
			<g>
				<path class="st1" d="M122.5,160.5H118v-4.6h4.5V160.5L122.5,160.5z"/>
			</g>
			<g>
				<path class="st1" d="M122.5,187.4H118v-19.9l4.5-2.1V187.4L122.5,187.4z"/>
			</g>
		</g>
		<g>
			<g>
				<path class="st1" d="M176.4,188.2c-5.6,0-9.4-1.8-10.7-5l-0.1-0.1l4.4-2.1l0,0.2c0.4,2.5,2.7,3.7,6.8,3.7c4.5,0,6.9-1.3,6.9-3.6
					c0-2.1-3.2-2.6-6.9-3.2c-5-0.8-10.6-1.7-10.6-6.7c0-4.4,3.9-6.9,10.7-6.9c3.6,0,8.4,0.7,10.1,4.1l0.1,0.1l-4,1.9l-0.1-0.1
					c-0.7-1.9-2.6-2.7-5.9-2.7c-3.8,0-6.3,1.3-6.3,3.1c0,1.4,1.4,2.3,4.5,2.9l7.2,1.3c4.2,0.8,6.1,2.6,6.1,5.8
					C188.6,185.9,184.6,188.2,176.4,188.2L176.4,188.2z"/>
			</g>
		</g>
		<g>
			<path class="st1" d="M138.3,188.2c-7,0-12.2-5.1-12.2-11.8c0-6.7,5.3-11.8,12.2-11.8c4,0,7,1.1,9.4,3.5V158l4.3-2h0.2v26.2
				c0,1.4,0.1,3.1,0.2,5.1l0,0.2h-4.5l0-0.1c-0.1-0.8-0.2-1.7-0.2-2.7C145.5,186.9,142.1,188.2,138.3,188.2L138.3,188.2z
				 M139.3,167.9c-5.1,0-8.4,3.4-8.4,8.6c0,5.2,3.3,8.6,8.4,8.6c5.1,0,8.4-3.4,8.4-8.6C147.7,171.2,144.4,167.9,139.3,167.9
				L139.3,167.9z"/>
		</g>
	</g>
</g>
<linearGradient id="SVGID_1_" gradientUnits="userSpaceOnUse" x1="351.9458" y1="135.3899" x2="218.7612" y2="60.1976">
	<stop  offset="0" style="stop-color:#F29100"/>
	<stop  offset="0.4205" style="stop-color:#F29100"/>
	<stop  offset="1" style="stop-color:#FFCB00"/>
</linearGradient>
<path class="st2" d="M285.2,1.4c-37.5,0-70,21.4-85.9,52.7h22.3c13.9-20.2,37.1-33.5,63.5-33.5c42.5,0,77,34.5,77,77
	c0,42.5-34.5,77-77,77c-26.4,0-49.6-13.3-63.5-33.5h-22.3c15.9,31.3,48.4,52.7,85.9,52.7c53.2,0,96.3-43.1,96.3-96.3
	S338.4,1.4,285.2,1.4z"/>
<linearGradient id="SVGID_00000175291514252850922990000003885547177973314980_" gradientUnits="userSpaceOnUse" x1="211.0153" y1="176.4166" x2="355.8814" y2="139.1884">
	<stop  offset="0" style="stop-color:#E3032E"/>
	<stop  offset="1" style="stop-color:#E3032E;stop-opacity:0"/>
</linearGradient>
<path style="fill:url(#SVGID_00000175291514252850922990000003885547177973314980_);" d="M362.3,97.7c0,42.5-34.5,77-77,77
	c-26.4,0-49.6-13.3-63.5-33.5h-22.3c15.9,31.3,48.4,52.7,85.9,52.7c53.2,0,96.3-43.1,96.3-96.3"/>
<g>
	<defs>
		<path id="SVGID_00000048487464754956283990000014873688483009225646_" d="M285.2,1.4c-37.5,0-70,21.4-85.9,52.7h22.3
			c13.9-20.2,37.1-33.5,63.5-33.5c42.5,0,77,34.5,77,77c0,42.5-34.5,77-77,77c-26.4,0-49.6-13.3-63.5-33.5h-22.3
			c15.9,31.3,48.4,52.7,85.9,52.7c53.2,0,96.3-43.1,96.3-96.3S338.4,1.4,285.2,1.4z"/>
	</defs>
	<clipPath id="SVGID_00000123439543309937139140000012720958975024722079_">
		<use xlink:href="#SVGID_00000048487464754956283990000014873688483009225646_"  style="overflow:visible;"/>
	</clipPath>
	
		<circle style="opacity:0.2;clip-path:url(#SVGID_00000123439543309937139140000012720958975024722079_);fill:#FFFFFF;" cx="295.3" cy="97.6" r="84.2"/>
</g>
</svg>
