<?xml version="1.0" encoding="UTF-8" standalone="no"?>
<svg
   xmlns:dc="http://purl.org/dc/elements/1.1/"
   xmlns:cc="http://creativecommons.org/ns#"
   xmlns:rdf="http://www.w3.org/1999/02/22-rdf-syntax-ns#"
   xmlns:svg="http://www.w3.org/2000/svg"
   xmlns="http://www.w3.org/2000/svg"
   id="svg14"
   preserveAspectRatio="xMidYMid meet"
   viewBox="0 0 1028.000000 578.000000"
   height="578.000000pt"
   width="1028.000000pt"
   version="1.0">
  <defs
     id="defs18" />
  <metadata
     id="metadata2">
Created by potrace 1.16, written by Peter Selinger 2001-2019
<rdf:RDF>
  <cc:Work
     rdf:about="">
    <dc:format>image/svg+xml</dc:format>
    <dc:type
       rdf:resource="http://purl.org/dc/dcmitype/StillImage" />
  </cc:Work>
</rdf:RDF>
</metadata>
  <g
     id="g12"
     stroke="none"
     fill="#FF4438"
     transform="translate(0.000000,578.000000) scale(0.100000,-0.100000)">
    <path
       id="path4"
       d="M0 2890 l0 -2890 5140 0 5140 0 0 2890 0 2890 -5140 0 -5140 0 0 -2890z m5683 1862 c490 -490 627 -633 627 -652 0 -19 -137 -162 -627 -652 l-628 -628 -385 0 c-405 0 -410 1 -410 44 0 14 200 221 607 628 l608 608 -613 613 c-336 337 -612 616 -612 620 0 5 5 17 10 28 10 18 25 19 403 19 l392 0 628 -628z m115 616 c28 -28 10 -55 -133 -198 l-145 -145 -170 170 c-94 93 -170 173 -170 177 0 14 604 10 618 -4z m-1033 -678 l209 -209 -193 -187 -193 -187 194 -194 193 -193 -213 -212 -212 -213 -395 395 c-257 257 -395 402 -395 415 0 20 765 795 785 795 6 0 104 -94 220 -210z m903 -1663 c139 -141 157 -168 130 -195 -13 -13 -618 -18 -618 -5 0 9 332 343 340 343 3 0 70 -64 148 -143z m-1340 -744 c3 -100 2 -103 -20 -108 -119 -27 -155 -35 -165 -35 -10 0 -13 28 -13 105 0 100 1 105 23 110 12 3 49 12 82 19 93 22 90 25 93 -91z m-778 -163 l0 -150 185 0 185 0 0 -85 0 -85 -185 0 -186 0 3 -362 c3 -397 4 -399 64 -426 34 -16 126 -15 199 2 41 10 62 11 66 4 8 -12 22 -148 17 -154 -15 -14 -149 -37 -223 -38 -113 -1 -173 16 -229 65 -78 69 -80 78 -84 522 l-3 387 -70 0 -69 0 0 85 0 85 70 0 70 0 0 134 0 133 68 16 c37 8 79 15 95 16 l27 1 0 -150z m-1760 -130 c29 -6 70 -15 92 -20 l38 -11 0 -89 c0 -58 -4 -90 -11 -90 -6 0 -45 9 -87 19 -110 27 -199 34 -273 21 -112 -20 -149 -56 -149 -141 0 -60 51 -107 156 -144 231 -82 309 -124 360 -190 73 -96 70 -260 -7 -371 -92 -135 -316 -180 -639 -131 l-75 12 -3 93 c-2 59 1 92 8 92 5 0 52 -7 102 -16 134 -24 300 -24 360 -1 69 27 98 66 98 132 0 48 -4 58 -34 88 -33 33 -67 49 -256 123 -121 47 -191 93 -230 152 -40 60 -53 113 -47 187 10 138 111 240 275 279 68 17 248 20 322 6z m1001 -18 c119 -47 191 -149 206 -292 5 -41 7 -242 5 -447 l-2 -372 -58 -12 c-31 -6 -73 -12 -92 -13 l-35 -1 -3 73 -3 72 -45 -30 c-163 -113 -345 -145 -467 -84 -44 22 -105 82 -127 124 -64 124 -39 296 55 378 77 68 153 93 380 122 232 30 209 17 202 111 -7 109 -35 164 -100 198 -41 21 -61 24 -145 24 -101 -1 -204 -19 -291 -52 -28 -10 -53 -16 -55 -13 -3 6 -17 136 -18 167 0 6 26 18 58 28 113 34 206 46 344 43 111 -2 145 -6 191 -24z m1537 -539 l-3 -568 -75 -17 c-41 -9 -85 -17 -97 -17 l-23 -1 0 569 0 568 68 16 c37 8 82 15 100 16 l32 1 -2 -567z m937 545 l50 -14 3 -92 c1 -51 1 -92 -2 -92 -2 0 -44 10 -93 21 -122 30 -270 31 -335 2 -108 -49 -117 -168 -15 -227 23 -14 97 -45 164 -70 145 -53 210 -87 260 -135 53 -51 76 -112 76 -197 -1 -175 -90 -281 -276 -331 -100 -27 -384 -19 -489 13 -15 5 -18 18 -18 95 0 100 -1 99 85 79 151 -36 360 -32 430 8 69 40 84 145 30 202 -33 34 -75 55 -222 110 -238 90 -313 168 -313 331 0 61 5 85 26 127 42 84 123 143 244 177 68 18 318 14 395 -7z m555 -43 c0 -36 2 -65 4 -65 2 0 28 16 58 35 105 70 217 99 353 93 79 -3 102 -8 157 -36 173 -85 255 -266 245 -537 -8 -205 -55 -331 -163 -442 -120 -123 -297 -177 -509 -155 -60 6 -120 14 -132 18 l-23 6 0 -275 0 -275 -69 -16 c-39 -9 -84 -16 -101 -16 l-30 0 2 848 3 847 65 17 c36 9 82 16 103 17 l37 1 0 -65z m1617 41 c110 -35 190 -125 217 -245 13 -58 16 -141 16 -470 l0 -401 -22 -5 c-86 -19 -116 -25 -140 -25 l-28 0 0 75 0 75 -75 -49 c-135 -88 -283 -120 -400 -87 -80 24 -166 108 -189 186 -36 119 -12 243 60 320 76 81 158 107 463 146 l133 17 -4 92 c-3 79 -8 98 -30 132 -14 22 -43 48 -65 59 -79 39 -300 25 -437 -27 -28 -10 -52 -19 -53 -19 -2 0 -10 56 -18 127 l-7 52 64 19 c34 11 97 25 138 32 41 6 82 13 90 15 39 9 240 -4 287 -19z m739 -432 c71 -234 134 -425 139 -425 5 0 75 191 155 425 l145 426 112 0 112 0 -33 -92 c-440 -1212 -443 -1221 -520 -1337 -63 -94 -254 -271 -293 -271 -7 0 -39 38 -100 121 -10 13 0 26 71 82 98 78 162 158 216 272 l39 83 -125 358 c-69 198 -159 455 -200 572 l-73 212 112 0 112 0 131 -426z" />
    <path
       id="path6"
       d="M2655 1349 c-192 -29 -223 -38 -260 -71 -64 -56 -70 -159 -13 -224 39 -45 90 -58 166 -44 58 10 181 63 233 101 l29 20 0 120 c0 107 -2 119 -17 118 -10 -1 -72 -9 -138 -20z" />
    <path
       id="path8"
       d="M6091 1819 c-65 -11 -160 -56 -224 -104 l-47 -36 0 -328 0 -329 102 -12 c277 -34 427 39 495 240 25 76 25 299 0 382 -45 147 -164 216 -326 187z" />
    <path
       id="path10"
       d="M7295 1343 c-225 -34 -281 -66 -292 -166 -7 -62 12 -112 55 -145 31 -24 44 -27 106 -26 80 0 153 26 249 87 l57 37 0 120 c0 66 -3 119 -7 119 -5 -1 -80 -12 -168 -26z" />
  </g>
</svg>
