<svg width="85" height="29" viewBox="0 0 85 29" fill="none" xmlns="http://www.w3.org/2000/svg">
<path fill-rule="evenodd" clip-rule="evenodd" d="M18.3633 3L15.1027 14.6219L11.7944 3H9.18149L5.89728 14.6219L2.63701 3H0L4.57877 19H7.23973L10.524 7.37807L13.7605 19H16.4212L21 3H18.3633Z" fill="#231F20"/>
<path fill-rule="evenodd" clip-rule="evenodd" d="M21.2183 3.11513L23.7363 2.90967V6.81329L23.6904 8.27435H23.7822C24.9494 7.84048 25.8883 7.63508 27.0327 7.63508C29.0702 7.63508 30.4434 8.54844 30.4434 12.041V19.0042H27.9254V12.2465C27.9254 10.1463 26.8953 9.87238 25.7282 9.87238C24.9953 9.87238 24.3773 10.0324 23.7363 10.215V19.0042H21.2183V3.11513Z" fill="#231F20"/>
<mask id="mask0" mask-type="alpha" maskUnits="userSpaceOnUse" x="0" y="0" width="85" height="29">
<path fill-rule="evenodd" clip-rule="evenodd" d="M0 28.2565H85V0.0107422H0V28.2565Z" fill="white"/>
</mask>
<g mask="url(#mask0)">
<path fill-rule="evenodd" clip-rule="evenodd" d="M32.6402 19.0037H35.1582V7.79463H32.6402V19.0037ZM33.8992 3.27441C35.2041 3.27441 35.4101 4.02785 35.4101 4.87258C35.4101 5.71725 35.1352 6.49356 33.8992 6.49356C32.6631 6.49356 32.4111 5.71725 32.4111 4.87258C32.4111 4.02785 32.6402 3.27441 33.8992 3.27441Z" fill="#231F20"/>
<path fill-rule="evenodd" clip-rule="evenodd" d="M37.2861 7.79475H39.0031L39.3465 8.70784H39.5069C40.1706 8.13726 41.2233 7.63477 42.5971 7.63477C42.7572 7.63477 42.9402 7.63477 43.1233 7.65771V10.1231C42.666 10.055 42.185 9.9863 41.7041 9.9863C41.0173 9.9863 40.4681 10.146 39.8042 10.4428V19.0039H37.2861V7.79475Z" fill="#231F20"/>
<path fill-rule="evenodd" clip-rule="evenodd" d="M44.1987 19.0042V3.11513L46.7168 2.90967V19.0042H44.1987Z" fill="#231F20"/>
<path fill-rule="evenodd" clip-rule="evenodd" d="M66.997 13.4559C66.997 11.3333 66.6532 9.59832 64.639 9.59832C62.602 9.59832 62.0981 11.2646 62.0981 13.4559C62.0981 15.4877 62.5101 17.2458 64.5248 17.2458C66.5391 17.2458 66.997 15.5793 66.997 13.4559ZM64.6161 7.63477C68.1872 7.63477 69.561 9.73502 69.561 13.4559C69.561 16.9488 68.279 19.2321 64.5702 19.2321C60.862 19.2321 59.5571 16.9488 59.5571 13.4559C59.5571 9.73502 61.045 7.63477 64.6161 7.63477Z" fill="#231F20"/>
<path fill-rule="evenodd" clip-rule="evenodd" d="M78.2876 13.4559C78.2876 11.3333 77.9438 9.59832 75.9296 9.59832C73.8925 9.59832 73.3886 11.2646 73.3886 13.4559C73.3886 15.4877 73.8007 17.2458 75.8154 17.2458C77.8297 17.2458 78.2876 15.5793 78.2876 13.4559ZM75.9066 7.63477C79.4777 7.63477 80.8515 9.73502 80.8515 13.4559C80.8515 16.9488 79.5695 19.2321 75.8608 19.2321C72.1526 19.2321 70.8477 16.9488 70.8477 13.4559C70.8477 9.73502 72.3356 7.63477 75.9066 7.63477Z" fill="#231F20"/>
<path fill-rule="evenodd" clip-rule="evenodd" d="M82.4819 19.0042V3.11513L85 2.90967V19.0042H82.4819Z" fill="#231F20"/>
<path fill-rule="evenodd" clip-rule="evenodd" d="M51.2949 16.9264C52.0042 16.9488 52.3938 16.9716 53.126 16.9716C54.6823 16.9716 55.7129 16.1498 55.7129 12.8849C55.7129 10.6478 54.797 10.055 53.149 10.055C52.508 10.055 51.9129 10.1682 51.2949 10.3743V16.9264ZM48.7769 7.79441H50.6768L50.8829 8.61627C51.6387 8.20534 53.0341 7.63477 54.2938 7.63477C56.5823 7.63477 58.2533 9.30129 58.2533 13.2958C58.2533 17.2228 56.4905 19.1635 53.561 19.1635C52.4826 19.1635 51.2949 18.9351 51.2949 18.9351V24.0715L48.7769 24.3455V7.79441Z" fill="#231F20"/>
<path fill-rule="evenodd" clip-rule="evenodd" d="M61.2426 0.907575C59.3595 -1.2683 53.3846 0.64432 46.7168 5.24662V6.40641C52.589 2.24363 57.7655 0.322869 59.248 2.03601C61.0991 4.17502 56.4943 11.1715 48.9617 17.6545C41.4284 24.138 33.8183 27.6532 31.9675 25.5141C31.0062 24.403 31.7901 21.9819 33.8183 19.0041H32.6393C30.1279 22.7392 29.1865 25.8772 30.4759 27.3673C32.8266 30.084 41.6193 26.3674 50.1131 19.0577C58.6061 11.7481 63.593 3.62409 61.2426 0.907575Z" fill="#EDB011"/>
</g>
</svg>
