<svg xmlns="http://www.w3.org/2000/svg" viewBox="0 0 541.38 306" style="
    margin-right: 30px;
    height: 40px;
">
    <defs>
        <style>.cls-1,.cls-2{fill:none;stroke-miterlimit:10;stroke-width:17px;}.cls-1{stroke:#000;}.cls-2{stroke:#edb112;}</style>
    </defs>
    <g id="Layer_2" data-name="Layer 2">
        <g id="Layer_1-2" data-name="Layer 1">
            <line class="cls-1" x1="133.38" y1="256.5" x2="88.19" y2="256.5"></line>
            <line class="cls-1" x1="369.38" y1="256.5" x2="218.38" y2="256.5"></line>
            <path class="cls-1" d="M88.19,8.5H279.06a26.47,26.47,0,0,1,22.16,12l1.32,2a26.5,26.5,0,0,0,22.17,12h78.7a26.48,26.48,0,0,1,18.73,7.76l103,103A26.53,26.53,0,0,1,532.88,164V230A26.48,26.48,0,0,1,506.4,256.5h-52"></path>
            <line class="cls-2" y1="57.78" x2="155" y2="57.78"></line>
            <line class="cls-2" x1="40" y1="109.35" x2="155" y2="109.35"></line>
            <circle class="cls-2" cx="411.88" cy="255" r="42.5"></circle>
            <circle class="cls-2" cx="175.88" cy="255" r="42.5"></circle>
            <path class="cls-1" d="M307.38,59.5v76.23a24,24,0,0,1-24,24h-102"></path>
        </g>
    </g>
</svg>
