<svg width="25" height="25" viewBox="0 0 25 25" fill="none" xmlns="http://www.w3.org/2000/svg">
<g clip-path="url(#clip0_1_6)">
<path fill-rule="evenodd" clip-rule="evenodd" d="M12.5 1.562C10.337 1.5622 8.22253 2.20379 6.4241 3.40564C4.62568 4.60748 3.22401 6.31562 2.39634 8.31406C1.56867 10.3125 1.35216 12.5115 1.7742 14.633C2.19624 16.7544 3.23787 18.7031 4.76737 20.2326C6.29688 21.7621 8.24557 22.8038 10.3671 23.2258C12.4885 23.6478 14.6875 23.4313 16.6859 22.6037C18.6844 21.776 20.3925 20.3743 21.5944 18.5759C22.7962 16.7775 23.4378 14.6631 23.438 12.5C23.4381 11.0636 23.1553 9.64117 22.6057 8.31406C22.056 6.98694 21.2503 5.78109 20.2346 4.76538C19.2189 3.74966 18.0131 2.94398 16.6859 2.39434C15.3588 1.8447 13.9364 1.56187 12.5 1.562V1.562ZM12.5 25C10.0277 25 7.61099 24.2669 5.55537 22.8934C3.49976 21.5199 1.8976 19.5676 0.951505 17.2835C0.00540972 14.9995 -0.242131 12.4861 0.240184 10.0614C0.722499 7.63661 1.91301 5.40932 3.66116 3.66117C5.40932 1.91301 7.63661 0.722501 10.0614 0.240186C12.4861 -0.242129 14.9995 0.00541234 17.2835 0.951508C19.5676 1.8976 21.5199 3.49976 22.8934 5.55537C24.2669 7.61099 25 10.0277 25 12.5C25 15.8152 23.683 18.9946 21.3388 21.3388C18.9946 23.683 15.8152 25 12.5 25ZM17.969 13.281C18.1761 13.281 18.3748 13.1987 18.5212 13.0523C18.6677 12.9058 18.75 12.7071 18.75 12.5C18.75 12.2929 18.6677 12.0942 18.5212 11.9478C18.3748 11.8013 18.1761 11.719 17.969 11.719L8.918 11.719L12.272 8.365C12.3446 8.29238 12.4022 8.20617 12.4415 8.11128C12.4808 8.0164 12.5011 7.9147 12.5011 7.812C12.5011 7.7093 12.4808 7.6076 12.4415 7.51272C12.4022 7.41784 12.3446 7.33162 12.272 7.259C12.1994 7.18638 12.1132 7.12878 12.0183 7.08947C11.9234 7.05017 11.8217 7.02994 11.719 7.02994C11.6163 7.02994 11.5146 7.05017 11.4197 7.08947C11.3248 7.12878 11.2386 7.18638 11.166 7.259L6.479 11.946C6.40625 12.0186 6.34853 12.1047 6.30915 12.1996C6.26977 12.2945 6.2495 12.3963 6.2495 12.499C6.2495 12.6017 6.26977 12.7035 6.30915 12.7984C6.34853 12.8933 6.40625 12.9795 6.479 13.052L11.166 17.739C11.3127 17.8857 11.5116 17.9681 11.719 17.9681C11.9264 17.9681 12.1253 17.8857 12.272 17.739C12.4187 17.5923 12.5011 17.3934 12.5011 17.186C12.5011 16.9786 12.4187 16.7797 12.272 16.633L8.917 13.28L17.969 13.281Z" fill="#007d69"/>
</g>
<defs>
<clipPath id="clip0_1_6">
<rect width="25" height="25" fill="white" transform="translate(25) rotate(90)"/>
</clipPath>
</defs>
</svg>
