<svg width="25" height="25" viewBox="0 0 25 25" fill="none" xmlns="http://www.w3.org/2000/svg">
<g clip-path="url(#clip0_1_2)">
<path fill-rule="evenodd" clip-rule="evenodd" d="M12.5 23.438C14.663 23.4378 16.7775 22.7962 18.5759 21.5944C20.3743 20.3925 21.776 18.6844 22.6037 16.6859C23.4313 14.6875 23.6478 12.4885 23.2258 10.3671C22.8038 8.24557 21.7621 6.29688 20.2326 4.76737C18.7031 3.23787 16.7544 2.19624 14.6329 1.7742C12.5115 1.35216 10.3125 1.56867 8.31405 2.39634C6.31562 3.22401 4.60748 4.62568 3.40563 6.42411C2.20378 8.22253 1.5622 10.337 1.562 12.5C1.56187 13.9364 1.8447 15.3588 2.39434 16.6859C2.94398 18.0131 3.74966 19.2189 4.76537 20.2346C5.78109 21.2503 6.98694 22.056 8.31405 22.6057C9.64117 23.1553 11.0636 23.4381 12.5 23.438V23.438ZM12.5 4.07282e-07C14.9723 2.99216e-07 17.389 0.733113 19.4446 2.10663C21.5002 3.48015 23.1024 5.43238 24.0485 7.71646C24.9946 10.0005 25.2421 12.5139 24.7598 14.9386C24.2775 17.3634 23.087 19.5907 21.3388 21.3388C19.5907 23.087 17.3634 24.2775 14.9386 24.7598C12.5139 25.2421 10.0005 24.9946 7.71646 24.0485C5.43238 23.1024 3.48015 21.5002 2.10663 19.4446C0.733113 17.389 5.15348e-07 14.9723 4.07282e-07 12.5C2.62369e-07 9.18479 1.31696 6.00537 3.66117 3.66117C6.00537 1.31696 9.18479 5.52194e-07 12.5 4.07282e-07ZM7.031 11.719C6.82387 11.719 6.62522 11.8013 6.47875 11.9477C6.33228 12.0942 6.25 12.2929 6.25 12.5C6.25 12.7071 6.33228 12.9058 6.47875 13.0523C6.62522 13.1987 6.82387 13.281 7.031 13.281L16.082 13.281L12.728 16.635C12.6554 16.7076 12.5978 16.7938 12.5585 16.8887C12.5192 16.9836 12.4989 17.0853 12.4989 17.188C12.4989 17.2907 12.5192 17.3924 12.5585 17.4873C12.5978 17.5822 12.6554 17.6684 12.728 17.741C12.8006 17.8136 12.8868 17.8712 12.9817 17.9105C13.0766 17.9498 13.1783 17.9701 13.281 17.9701C13.3837 17.9701 13.4854 17.9498 13.5803 17.9105C13.6752 17.8712 13.7614 17.8136 13.834 17.741L18.521 13.054C18.5937 12.9814 18.6515 12.8953 18.6908 12.8004C18.7302 12.7055 18.7505 12.6037 18.7505 12.501C18.7505 12.3983 18.7302 12.2965 18.6908 12.2016C18.6515 12.1067 18.5937 12.0206 18.521 11.948L13.834 7.261C13.6873 7.11434 13.4884 7.03194 13.281 7.03194C13.0736 7.03194 12.8747 7.11434 12.728 7.261C12.5813 7.40766 12.4989 7.60658 12.4989 7.814C12.4989 8.02141 12.5813 8.22034 12.728 8.367L16.083 11.72L7.031 11.719Z" fill="#007d69"/>
</g>
<defs>
<clipPath id="clip0_1_2">
<rect width="25" height="25" fill="white" transform="translate(9.53674e-07 25) rotate(-90)"/>
</clipPath>
</defs>
</svg>
