<svg width="97" height="32" viewBox="0 0 97 32" fill="none" xmlns="http://www.w3.org/2000/svg">
<path d="M22.6776 3.46486L17.7331 21.5176H14.8598L11.3648 8.40469L7.81817 21.5176H4.94451L0 3.46486H2.84766L6.36834 16.5778L9.91498 3.46486H12.7366L16.3093 16.5778L19.8303 3.46486H22.6776Z" fill="#231F20"/>
<path d="M23.9961 3.51678L26.8438 3.28399V7.7064L26.7919 9.36162H26.8957C28.2157 8.8702 29.2775 8.63741 30.5718 8.63741C32.876 8.63741 34.429 9.67227 34.429 13.6289V21.5176H31.5813V13.8617C31.5813 11.4824 30.4163 11.1722 29.0964 11.1722C28.2676 11.1722 27.5687 11.3533 26.8438 11.5602V21.5176H23.9961V3.51678Z" fill="#231F20"/>
<path d="M36.9094 8.81865H39.7571V21.5176H36.9094V8.81865ZM38.3332 3.69765C39.809 3.69765 40.0419 4.55118 40.0419 5.50819C40.0419 6.46513 39.7312 7.34467 38.3332 7.34467C36.9354 7.34467 36.6504 6.46513 36.6504 5.50819C36.6504 4.55118 36.9094 3.69765 38.3332 3.69765Z" fill="#231F20"/>
<path d="M42.166 8.81866H44.1077L44.4961 9.85314H44.6776C45.428 9.2067 46.6186 8.63742 48.1722 8.63742C48.3533 8.63742 48.5603 8.63742 48.7674 8.66342V11.4564C48.2501 11.3794 47.7063 11.3016 47.1625 11.3016C46.3856 11.3016 45.7645 11.4824 45.0137 11.8188V21.5176H42.166V8.81866Z" fill="#231F20"/>
<path d="M49.9844 21.5176V3.51678L52.8321 3.28399V21.5176H49.9844Z" fill="#231F20"/>
<path d="M75.7693 15.2333C75.7693 12.8286 75.3806 10.863 73.1027 10.863C70.7989 10.863 70.2291 12.7508 70.2291 15.2333C70.2291 17.5351 70.6951 19.5269 72.9736 19.5269C75.2515 19.5269 75.7693 17.6389 75.7693 15.2333ZM73.0768 8.63845C77.1154 8.63845 78.6693 11.0179 78.6693 15.2333C78.6693 19.1903 77.2192 21.7773 73.0249 21.7773C68.8312 21.7773 67.3555 19.1903 67.3555 15.2333C67.3555 11.0179 69.0382 8.63845 73.0768 8.63845Z" fill="#231F20"/>
<path d="M88.5349 15.2333C88.5349 12.8286 88.1464 10.863 85.8689 10.863C83.5648 10.863 82.9946 12.7508 82.9946 15.2333C82.9946 17.5351 83.461 19.5269 85.7392 19.5269C88.0174 19.5269 88.5349 17.6389 88.5349 15.2333ZM85.843 8.63845C89.8812 8.63845 91.4351 11.0179 91.4351 15.2333C91.4351 19.1903 89.985 21.7773 85.7911 21.7773C81.5972 21.7773 80.1211 19.1903 80.1211 15.2333C80.1211 11.0179 81.804 8.63845 85.843 8.63845Z" fill="#231F20"/>
<path d="M93.2793 21.5176V3.51678L96.1269 3.28399V21.5176H93.2793Z" fill="#231F20"/>
<path d="M58.004 19.1631C58.8061 19.1884 59.2468 19.2144 60.0749 19.2144C61.8348 19.2144 63.0004 18.2833 63.0004 14.5845C63.0004 12.0501 61.9646 11.3784 60.1008 11.3784C59.3758 11.3784 58.7029 11.5068 58.004 11.7402V19.1631ZM55.1562 8.81736H57.305L57.538 9.74844C58.3928 9.28294 59.9709 8.63649 61.3955 8.63649C63.9836 8.63649 65.8734 10.5245 65.8734 15.05C65.8734 19.499 63.8797 21.6975 60.5668 21.6975C59.3472 21.6975 58.004 21.4389 58.004 21.4389V27.2578L55.1562 27.5684V8.81736Z" fill="#231F20"/>
<path d="M69.2622 1.01604C67.1327 -1.44904 60.3755 0.717752 52.8348 5.93178V7.24572C59.4758 2.52967 65.3299 0.353659 67.0066 2.29452C69.1 4.71781 63.8925 12.6442 55.3737 19.9889C46.8542 27.334 38.2477 31.3165 36.1547 28.8931C35.0675 27.6343 35.954 24.8914 38.2477 21.5178H36.9145C34.0743 25.7493 33.0096 29.3045 34.4679 30.9926C37.1262 34.0704 47.0701 29.8597 56.6759 21.5786C66.2807 13.2975 71.9203 4.09356 69.2622 1.01604Z" fill="#EDAC09"/>
</svg>
