<svg width="170" height="150" viewBox="0 0 170 150" fill="none" xmlns="http://www.w3.org/2000/svg">
<g clip-path="url(#clip0_16:9)">
<path d="M19.2051 18.6923C11.3082 26.8153 6.87861 37.7826 6.87861 49.2115C6.87861 60.6405 11.3082 71.6078 19.2051 79.7308L79.64 142.154C82.53 145.125 87.3184 145.24 90.35 142.413L151.119 79.8058C159.023 71.6865 163.457 60.7178 163.457 49.2865C163.457 37.8553 159.023 26.8866 151.119 18.7673C134.669 1.80577 107.293 1.80577 90.843 18.7673L89.1997 20.4404C88.671 20.9792 88.0428 21.4062 87.3513 21.6966C86.6597 21.987 85.9185 22.1352 85.1705 22.1325C84.4224 22.1298 83.6823 21.9764 82.9927 21.681C82.3032 21.3856 81.678 20.9542 81.153 20.4115L79.4814 18.6865C71.259 10.2115 60.294 6 49.346 6C38.3924 6 27.433 10.2115 19.2051 18.6923V18.6923Z" stroke="#505050" stroke-width="12"/>
</g>
<defs>
<clipPath id="clip0_16:9">
<rect width="170" height="150" fill="white"/>
</clipPath>
</defs>
</svg>
