<svg xmlns="http://www.w3.org/2000/svg" width="30" height="33" viewBox="0 0 30 33">
    <g fill="none" fill-rule="evenodd" stroke="#1D1D1B" stroke-linecap="round" stroke-width="1.2">
        <path d="M11.59 23.227c-2.503-1.262-4.178-3.776-4.414-6.625-.235-2.849 1.002-5.616 3.263-7.292M19.778 9.32a8.194 8.194 0 0 1 3.206 5.5 8.302 8.302 0 0 1-1.661 6.177M15.104 5.456V13"></path>
        <path stroke-linejoin="round" d="M21.323 20.997l7.587-4.094c.045-.463.072-.963.072-1.453C28.98 8.81 24.495 3.058 18.176 1.588 11.858.118 5.387 3.324 2.588 9.311c-2.8 5.986-1.183 13.161 3.895 17.285l9.637-6.357 2.52 2.202 2.678-1.444M27.916 23.297h-.04l-9.543 3.613-1.856-2.165-8.13 3.96.037.028c3.085 2.635 7.231 3.562 11.107 2.483 3.876-1.08 6.994-4.029 8.353-7.9l.072-.02z"></path>
    </g>
</svg>
