<svg xmlns="http://www.w3.org/2000/svg" width="32" height="29" viewBox="0 0 32 29">
    <g fill="none" fill-rule="evenodd" stroke="#000" stroke-width="1.2">
        <g transform="translate(0 1)">
            <rect width="24.8" height="17.8" x=".6" y="4.1" rx="2"></rect>
            <path stroke-linejoin="round" d="M10 3.5v-3h6v3"></path>
            <rect width="2.8" height="3.8" x="11.6" y="10.1" rx="1"></rect>
            <path stroke-linecap="square" d="M1.423 12h10.119M14.458 12H25"></path>
        </g>
        <path fill="#FFF" fill-rule="nonzero" stroke-linejoin="round" d="M27.94 9.776a4.5 4.5 0 0 0-4.802 1.11c-1.36 1.404-1.69 3.463-.994 5.188l-8.628 8.9a1.848 1.848 0 0 0 0 2.562c.688.71 1.795.71 2.483 0l8.628-8.9a4.501 4.501 0 0 0 5.029-1.026c1.3-1.34 1.653-3.278 1.077-4.953l-2.474 2.552-2.172-.64-.621-2.242 2.473-2.551z"></path>
    </g>
</svg>
