<svg xmlns="http://www.w3.org/2000/svg" width="28" height="31" viewBox="0 0 28 31">
    <g fill="none" fill-rule="evenodd" stroke="#000" stroke-width="1.2">
        <path stroke-linecap="round" d="M7.75 1v4.726M20.286 1v4.726"></path>
        <path stroke-linecap="square" d="M3.804 3.354H7.06"></path>
        <g stroke-linecap="round">
            <path d="M4.55 3.349H2.627c-.871 0-1.578.723-1.578 1.614v23.311c0 .892.707 1.615 1.578 1.615h22.781c.872 0 1.578-.723 1.578-1.615V4.964c0-.892-.706-1.615-1.578-1.615h-1.923l-2.028.004-1.171-.047M1.049 9.763H26.36"></path>
        </g>
        <path stroke-linecap="round" d="M10.161 3.306h7.714"></path>
        <g stroke-linecap="round">
            <path d="M11.125 16.371l6.268 6.29M11.125 22.661l6.268-6.29"></path>
        </g>
    </g>
</svg>
