<svg xmlns="http://www.w3.org/2000/svg" width="36" height="36" viewBox="0 0 36 36">
    <g fill="none" fill-rule="evenodd" stroke="#000" stroke-width=".8">
        <path d="M32.159 13.485C30.606 6.32 24.856 1 18 1 9.952 1 3.429 8.33 3.429 17.37"></path>
        <path fill="#F9F9F9" fill-rule="nonzero" d="M19.214 35c-.67 0-1.214-.564-1.214-1.26 0-.695.544-1.259 1.214-1.259.67 0 1.215.564 1.215 1.26 0 .695-.544 1.259-1.215 1.259zM35 16.111v5.037c0 2.087-1.631 3.778-3.643 3.778-.67 0-1.214-.564-1.214-1.26V13.594c0-.696.544-1.26 1.214-1.26 2.012 0 3.643 1.692 3.643 3.778zm-34 0c0-2.086 1.631-3.778 3.643-3.778.67 0 1.214.564 1.214 1.26v10.074c0 .695-.544 1.259-1.214 1.259C2.63 24.926 1 23.235 1 21.148v-5.037z"></path>
        <path d="M20.104 33.74c5.337 0 10.674-3.777 11.86-8.814"></path>
    </g>
</svg>