<svg xmlns="http://www.w3.org/2000/svg" width="31" height="32" viewBox="0 0 31 32">
    <g fill="none" fill-rule="evenodd" stroke="#000" transform="translate(1 1)">
        <g fill-rule="nonzero" transform="translate(0 8.276)">
            <path stroke-linejoin="round" stroke-width="1.26" d="M14.337 1.114c-1.406 0-3.093.557-4.217 1.393C8.495.4 6.606.29 6.224.29h-.09a.84.84 0 0 0-.793.835v2.696c-1.5.795-2.44 2.135-2.822 4.022h-1.35a.838.838 0 0 0-.843.836v3.253c0 .462.377.835.843.835h1.102c.546 1.671 1.726 3.197 3.396 4.373v3.052a1.4 1.4 0 0 0 1.406 1.393h2.361a1.4 1.4 0 0 0 1.406-1.393v-.924c2.21.423 4.509.35 6.634-.19v1.114a1.4 1.4 0 0 0 1.405 1.393h2.362a1.4 1.4 0 0 0 1.405-1.393v-3.726c1.867-1.621 2.89-3.682 2.89-5.838 0-4.913-4.689-9.514-11.2-9.514z"></path>
            <ellipse cx="6.87" cy="8.477" fill="#000" stroke-width=".525" rx="1" ry="1"></ellipse>
        </g>
        <path stroke-linecap="round" stroke-width="1.26" d="M25.552 18.307c.154.857 1.015 1.423 1.924 1.265.909-.158 1.521-.98 1.368-1.837a1.542 1.542 0 0 0-.75-1.057"></path>
        <circle cx="14.483" cy="3.103" r="3.103" fill="#FFF" stroke-width="1.155"></circle>
        <path stroke-linecap="round" stroke-width="1.155" d="M12.414 13.448c1.38-1.034 2.758-1.034 4.138 0"></path>
    </g>
</svg>
