<svg width="87" height="46" viewBox="0 0 87 46" fill="none" xmlns="http://www.w3.org/2000/svg">
<path d="M15.1575 17.116V12.076H10.0895V8.212H15.1575V3.172H19.1335V8.212H24.2015V12.076H19.1335V17.116H15.1575ZM31.0797 20V4.628L27.6637 5.468L26.7677 1.94L32.3957 0.259999H35.3357V20H31.0797ZM54.4002 17.452C52.7762 19.3747 50.6762 20.336 48.1002 20.336C45.5242 20.336 43.4335 19.3747 41.8282 17.452C40.2229 15.5293 39.4202 13.112 39.4202 10.2C39.4202 7.30667 40.2322 4.89867 41.8562 2.976C43.4802 1.03467 45.5802 0.0639997 48.1562 0.0639997C50.7135 0.0639997 52.7949 1.02533 54.4002 2.948C56.0242 4.87067 56.8362 7.288 56.8362 10.2C56.8362 13.0933 56.0242 15.5107 54.4002 17.452ZM45.0202 14.68C45.8229 15.856 46.8682 16.444 48.1562 16.444C49.4442 16.444 50.4709 15.8653 51.2362 14.708C52.0202 13.532 52.4122 12.0293 52.4122 10.2C52.4122 8.408 52.0109 6.924 51.2082 5.748C50.4055 4.55333 49.3695 3.956 48.1002 3.956C46.8309 3.956 45.8042 4.544 45.0202 5.72C44.2362 6.87733 43.8442 8.37067 43.8442 10.2C43.8442 12.0107 44.2362 13.504 45.0202 14.68ZM74.8533 17.452C73.2293 19.3747 71.1293 20.336 68.5533 20.336C65.9773 20.336 63.8867 19.3747 62.2813 17.452C60.676 15.5293 59.8733 13.112 59.8733 10.2C59.8733 7.30667 60.6853 4.89867 62.3093 2.976C63.9333 1.03467 66.0333 0.0639997 68.6093 0.0639997C71.1667 0.0639997 73.248 1.02533 74.8533 2.948C76.4773 4.87067 77.2893 7.288 77.2893 10.2C77.2893 13.0933 76.4773 15.5107 74.8533 17.452ZM65.4733 14.68C66.276 15.856 67.3213 16.444 68.6093 16.444C69.8973 16.444 70.924 15.8653 71.6893 14.708C72.4733 13.532 72.8653 12.0293 72.8653 10.2C72.8653 8.408 72.464 6.924 71.6613 5.748C70.8587 4.55333 69.8227 3.956 68.5533 3.956C67.284 3.956 66.2573 4.544 65.4733 5.72C64.6893 6.87733 64.2973 8.37067 64.2973 10.2C64.2973 12.0107 64.6893 13.504 65.4733 14.68Z" fill="#EDAC09"/>
<path d="M6.955 40.24C5.36833 40.24 4.095 39.72 3.135 38.68C2.18833 37.6267 1.715 36.2067 1.715 34.42C1.715 33.7667 1.72833 33.2133 1.755 32.76C1.78167 32.2933 1.835 31.78 1.915 31.22C1.995 30.66 2.12167 30.18 2.295 29.78C2.46833 29.38 2.68833 28.9867 2.955 28.6C3.235 28.2133 3.595 27.8867 4.035 27.62C4.475 27.3533 4.98833 27.1533 5.575 27.02L11.335 25.66L11.635 26.96L6.035 28.34C4.995 28.6067 4.24833 29.0333 3.795 29.62C3.355 30.1933 3.095 30.9933 3.015 32.02C3.895 30.5267 5.32167 29.78 7.295 29.78C8.655 29.78 9.82167 30.2867 10.795 31.3C11.7683 32.3 12.255 33.5067 12.255 34.92C12.255 36.3867 11.7483 37.64 10.735 38.68C9.72167 39.72 8.46167 40.24 6.955 40.24ZM6.995 38.86C8.04833 38.86 8.92167 38.4867 9.615 37.74C10.3083 36.98 10.655 36.0533 10.655 34.96C10.655 33.88 10.295 32.96 9.575 32.2C8.86833 31.44 7.995 31.06 6.955 31.06C5.90167 31.06 5.02833 31.44 4.335 32.2C3.64167 32.9467 3.295 33.8667 3.295 34.96C3.295 36.04 3.64833 36.96 4.355 37.72C5.075 38.48 5.955 38.86 6.995 38.86ZM23.6242 38.66C22.5842 39.7133 21.2976 40.24 19.7642 40.24C18.2309 40.24 16.9509 39.7133 15.9242 38.66C14.9109 37.6067 14.4042 36.3333 14.4042 34.84C14.4042 33.36 14.9176 32.0933 15.9442 31.04C16.9842 29.9733 18.2709 29.44 19.8042 29.44C21.3376 29.44 22.6176 29.9667 23.6442 31.02C24.6709 32.0733 25.1842 33.3467 25.1842 34.84C25.1842 36.32 24.6642 37.5933 23.6242 38.66ZM19.8042 38.86C20.9109 38.86 21.8176 38.4733 22.5242 37.7C23.2442 36.9267 23.6042 35.9733 23.6042 34.84C23.6042 33.72 23.2309 32.7667 22.4842 31.98C21.7509 31.1933 20.8442 30.8 19.7642 30.8C18.6576 30.8 17.7509 31.1933 17.0442 31.98C16.3376 32.7533 15.9842 33.7067 15.9842 34.84C15.9842 35.96 16.3509 36.9133 17.0842 37.7C17.8176 38.4733 18.7242 38.86 19.8042 38.86ZM27.9739 40V29.66H29.5139V34.12H35.4739V29.66H37.0139V40H35.4739V35.48H29.5139V40H27.9739ZM42.0544 43.26C41.3077 43.26 40.5744 43.0867 39.8544 42.74L40.3744 41.52C40.8677 41.7733 41.4077 41.9 41.9944 41.9C42.461 41.9 42.8544 41.7533 43.1744 41.46C43.4944 41.18 43.8077 40.68 44.1144 39.96L39.4144 29.66H41.1144L44.8744 38.28L48.1944 29.66H49.8344L45.4944 40.34C45.0544 41.3933 44.5677 42.14 44.0344 42.58C43.501 43.0333 42.841 43.26 42.0544 43.26ZM56.9308 40.24C55.4374 40.24 54.1774 39.7133 53.1508 38.66C52.1374 37.5933 51.6308 36.32 51.6308 34.84C51.6308 33.36 52.1374 32.0933 53.1508 31.04C54.1774 29.9733 55.4374 29.44 56.9308 29.44C58.5308 29.44 59.9108 30.0533 61.0708 31.28L60.0908 32.32C59.1308 31.3067 58.0708 30.8 56.9108 30.8C55.8708 30.8 54.9908 31.1933 54.2708 31.98C53.5641 32.7533 53.2108 33.7067 53.2108 34.84C53.2108 35.96 53.5708 36.9133 54.2908 37.7C55.0241 38.4733 55.9308 38.86 57.0108 38.86C58.1174 38.86 59.1574 38.34 60.1308 37.3L61.1508 38.24C59.9508 39.5733 58.5441 40.24 56.9308 40.24ZM72.2766 38.66C71.2366 39.7133 69.9499 40.24 68.4166 40.24C66.8832 40.24 65.6032 39.7133 64.5766 38.66C63.5632 37.6067 63.0566 36.3333 63.0566 34.84C63.0566 33.36 63.5699 32.0933 64.5966 31.04C65.6366 29.9733 66.9232 29.44 68.4566 29.44C69.9899 29.44 71.2699 29.9667 72.2966 31.02C73.3232 32.0733 73.8366 33.3467 73.8366 34.84C73.8366 36.32 73.3166 37.5933 72.2766 38.66ZM68.4566 38.86C69.5632 38.86 70.4699 38.4733 71.1766 37.7C71.8966 36.9267 72.2566 35.9733 72.2566 34.84C72.2566 33.72 71.8832 32.7667 71.1366 31.98C70.4032 31.1933 69.4966 30.8 68.4166 30.8C67.3099 30.8 66.4032 31.1933 65.6966 31.98C64.9899 32.7533 64.6366 33.7067 64.6366 34.84C64.6366 35.96 65.0032 36.9133 65.7366 37.7C66.4699 38.4733 67.3766 38.86 68.4566 38.86ZM76.6263 40V29.66H81.6263C82.6529 29.66 83.4729 29.8933 84.0863 30.36C84.6996 30.8267 85.0062 31.4533 85.0062 32.24C85.0062 33.3467 84.4329 34.14 83.2863 34.62C84.8063 35.0333 85.5663 35.8867 85.5663 37.18C85.5663 38.0467 85.2263 38.7333 84.5463 39.24C83.8663 39.7467 82.9529 40 81.8063 40H76.6263ZM78.1663 38.68H81.6063C82.3396 38.68 82.9196 38.5267 83.3463 38.22C83.7729 37.9133 83.9863 37.4867 83.9863 36.94C83.9863 36.4333 83.7596 36.04 83.3063 35.76C82.8663 35.48 82.2329 35.34 81.4063 35.34H78.1663V38.68ZM78.1663 34.1H81.3463C81.9863 34.1 82.4929 33.96 82.8663 33.68C83.2529 33.3867 83.4463 32.9733 83.4463 32.44C83.4463 32 83.2663 31.6467 82.9063 31.38C82.5463 31.1133 82.0396 30.98 81.3863 30.98H78.1663V34.1Z" fill="#231F20"/>
</svg>
