<svg width="125" height="20" viewBox="0 0 125 20" fill="none" xmlns="http://www.w3.org/2000/svg">
<g clip-path="url(#clip0)">
<path d="M99.424 1.5C94.0065 1.5 89.3265 6.7584 87.742 14.5729C87.742 14.6094 87.742 14.6825 87.705 14.7555C87.705 14.8285 87.705 14.8651 87.668 14.9016V15.1207H87.8895C88.0735 15.1207 88.5895 15.1207 88.774 14.646C91.8325 8.29205 95.407 5.0421 99.387 5.0421C103.33 5.0421 107.125 8.7668 109.594 15.0111L109.705 15.2667L109.889 15.0842C110.332 14.646 111.105 13.9156 111.105 13.1488V13.1123C109.226 6.1376 104.546 1.5 99.424 1.5Z" fill="black"/>
<path d="M25.1689 1.5C24.4688 1.5 23.7686 1.90168 23.7686 2.74156C23.7686 2.99717 23.9897 3.39886 24.3582 4.20222C24.5793 4.64042 24.8373 5.15165 25.0584 5.6629L25.2058 6.02805L25.3532 5.6629C25.5743 5.18815 25.7954 4.67693 26.0165 4.27525C26.385 3.54492 26.6061 3.03369 26.6061 2.74156C26.643 1.97471 26.0902 1.5 25.1689 1.5Z" fill="black"/>
<path d="M35.2681 1.82861C31.9883 1.82861 29.2982 2.48591 27.3451 3.76399L27.0871 3.94657L29.0034 4.896L29.0771 4.78645C30.33 3.98309 31.8041 3.17972 34.7522 3.17972C40.2062 3.17972 41.4223 6.2106 41.6802 7.70775H41.6434C41.0169 7.89035 40.2062 8.14595 38.8795 8.14595C38.3267 8.14595 37.9582 7.9999 37.4792 7.8173C36.8527 7.5982 36.0788 7.3061 34.7522 7.3061C33.6098 7.3061 32.6885 7.5252 31.9883 7.7443L31.8778 7.7808V9.5336L32.0989 9.46055C32.7254 9.278 33.6835 8.98585 34.789 8.98585C35.784 8.98585 36.3368 9.16845 36.9264 9.38755C37.4792 9.60665 38.0688 9.82575 38.9164 9.82575C40.1325 9.82575 41.0169 9.64315 41.7539 9.42405C41.7539 9.5701 41.7539 9.64315 41.7539 9.67965C41.6065 10.9942 40.6484 13.9886 34.789 13.9886C31.3619 13.9886 30.1458 13.2948 29.0034 12.4549H28.856L27.0503 13.5504L27.3082 13.6965C29.0402 14.7554 30.9565 15.4128 35.2681 15.4128C41.2011 15.4128 45.3653 12.747 45.3653 8.94935C45.3653 4.93252 40.9432 1.82861 35.2681 1.82861Z" fill="black"/>
<path d="M45.8066 6.3568H49.6392V15.1208H52.7345V6.3568H56.4565V4.82312H45.8066V6.3568Z" fill="black"/>
<path d="M80.0417 4.6405C76.1357 4.6405 73.9242 5.5169 73.7032 7.0871H73.6662V7.7809H76.8727V7.59835C76.8727 6.868 77.1307 6.1742 80.2262 6.1742C83.4322 6.1742 83.4322 6.868 83.4322 7.59835V8.8399H79.2312C73.4452 8.8399 73.0032 11.396 73.0032 12.1629C73.0032 13.9522 74.9932 15.0843 78.1622 15.0843H86.4907V7.5253C86.4907 5.0787 84.3167 4.6405 80.0417 4.6405ZM83.4322 10.4101V13.5506H78.8627C76.5407 13.5506 76.2827 12.6742 76.2827 12.0534C76.2827 10.9944 77.3147 10.4101 79.1202 10.4101H83.4322Z" fill="black"/>
<path d="M119.326 8.83995H115.383V4.82312H112.25V15.1208H120.1C123.121 15.1208 125.001 13.8792 125.001 11.9073C125.001 9.97195 122.937 8.83995 119.326 8.83995ZM121.868 11.9438C121.868 12.7472 121.574 13.5871 119.436 13.5871H115.383V10.4466H119.252C120.984 10.4101 121.868 10.9213 121.868 11.9438Z" fill="black"/>
<path d="M11.7556 1.5C6.33845 1.5 1.65831 6.7584 0.0737025 14.5729C0.0737025 14.6094 0.0737025 14.6825 0.0368513 14.7555C0.0368513 14.8285 0.0368513 14.8651 0 14.9016V15.1207H0.221108C0.405365 15.1207 0.921285 15.1207 1.10554 14.646C4.20105 8.25555 7.77565 5.0421 11.7556 5.0421C15.6618 5.0421 19.4944 8.7668 21.9634 15.0111L22.0739 15.2667L22.2582 15.0842C22.7004 14.646 23.4743 13.9156 23.4743 13.1488V13.1123C21.558 6.1376 16.841 1.5 11.7556 1.5Z" fill="black"/>
<path d="M71.4901 4.82312L65.9256 12.4916L60.8401 4.82312H57.4866L64.1936 14.9017L61.2456 18.9915H63.4936L73.7381 4.82312H71.4901Z" fill="black"/>
</g>
<defs>
<clipPath id="clip0">
<rect width="125" height="20" fill="white"/>
</clipPath>
</defs>
</svg>
