<svg width="100" height="16" viewBox="0 0 100 16" fill="none" xmlns="http://www.w3.org/2000/svg">
<path fill-rule="evenodd" clip-rule="evenodd" d="M38.5536 0.35541L32.9859 10.0763C32.8708 10.2833 31.7706 11.9565 29.539 12.1088C27.3165 12.2123 25.4369 10.1171 25.4734 7.86665C25.5459 5.62716 27.2191 3.83764 29.4507 3.80171C31.3504 3.83825 32.7423 5.29836 32.7204 5.30384C33.1253 5.65577 33.389 5.90968 33.6922 6.36452L35.7247 2.82932C35.3612 2.44755 35.2071 2.28254 34.7529 1.94582C33.5984 0.911324 31.9088 0.0856722 29.539 0.00164578C27.2514 -0.0452386 24.9528 0.907065 23.1761 3.18309C22.0832 4.64015 21.6423 5.94196 21.5857 7.86665C21.6113 10.1141 22.4266 11.9395 23.6182 13.2577C25.6592 15.3913 28.1294 15.904 29.4513 15.9094C31.3492 15.826 32.7308 15.3681 34.0466 14.4944C34.4588 14.2088 34.9088 13.8258 35.3721 13.3454H38.9073V15.5551H42.5308V0.35541H38.5536ZM38.9073 10.1646H36.9631L38.9073 6.71829V10.1646ZM46.0995 15.6446V3.95211H43.2359V0.419345H52.8027V3.95211H49.874V15.6446H46.0995ZM61.1025 9.81935H57.2409V15.6446H53.4664V0.419345H57.2409V6.20073H61.1025V0.419345H64.8989V15.6446H61.1025V9.81935ZM96.2268 0.419345V8.8774L90.5647 0.419345H87.1586V5.56322C86.7732 4.39294 86.1028 3.31156 85.1548 2.3897C83.6575 0.933246 81.7048 0.141083 79.6437 0.141083C77.4529 0.141083 75.5447 0.890622 74.0255 2.36839C72.507 3.84555 71.6825 5.77268 71.6825 7.87213C71.6825 9.54291 72.0917 11.0128 72.8991 12.2829H70.0117V0.419345H66.2585V15.644H74.4152V14.0359C75.8461 15.2811 77.6058 15.9222 79.6218 15.9222C81.7693 15.9222 83.8091 15.0862 85.3064 13.5451C86.1617 12.6762 86.7965 11.6152 87.158 10.4508V15.644H90.9325V7.1646L96.681 15.6446H100V0.419345H96.2268ZM79.6224 12.1538C77.4962 12.1538 75.566 10.3119 75.566 7.91414C75.566 5.68683 77.3665 3.90949 79.6662 3.90949C81.8351 3.90949 83.6362 5.68683 83.6362 7.91414C83.6362 10.3972 81.8357 12.1538 79.6224 12.1538Z" fill="black"/>
<path fill-rule="evenodd" clip-rule="evenodd" d="M21.5857 3.71287V0.354858H13.1903V6.6197C12.9364 4.80644 12.2112 3.32501 11.0422 2.23876C9.43654 0.739676 7.72313 0.418794 5.27175 0.418794H0V15.6434H5.79235C7.9612 15.6434 9.41523 15.3426 11.0641 13.7583C12.2289 12.6264 12.9395 11.1955 13.1903 9.50704V15.5545H21.5863V12.2854H16.9021V9.45712H20.9676V6.18678H16.9021V3.71226H21.5857V3.71287ZM5.29367 12.3037H3.7751V3.69521H5.27175C8.04827 3.69521 9.54553 5.23692 9.54553 7.97813C9.54492 10.9757 8.17858 12.3037 5.29367 12.3037Z" fill="black"/>
</svg>
