<svg width="26" height="25" viewBox="0 0 26 25" fill="none" xmlns="http://www.w3.org/2000/svg">
<path d="M13.1774 0C9.76828 0 9.31373 0 8.06373 0.113636C6.7001 0.113636 5.791 0.340909 4.99555 0.681818C4.2001 1.02273 3.51828 1.36364 2.72282 2.15909C2.041 2.84091 1.7001 3.52273 1.35919 4.31818C1.01828 5.11364 0.791005 6.02273 0.791005 7.38636C0.677368 8.63636 0.677368 9.09091 0.677368 12.5C0.677368 15.9091 0.677368 16.3636 0.791005 17.6136C0.791005 18.9773 1.01828 19.8864 1.35919 20.6818C1.7001 21.4773 2.041 22.1591 2.72282 22.9545C3.51828 23.6364 4.2001 23.9773 4.99555 24.3182C5.791 24.6591 6.7001 24.8864 8.06373 24.8864C9.31373 25 9.76828 25 13.1774 25C16.5865 25 17.041 25 18.291 24.8864C19.6546 24.8864 20.5637 24.6591 21.3592 24.3182C22.1546 23.9773 22.8365 23.6364 23.5183 22.9545C24.3137 22.1591 24.6546 21.4773 24.9955 20.6818C25.3365 19.8864 25.5637 18.9773 25.5637 17.6136C25.6774 16.3636 25.6774 15.9091 25.6774 12.5C25.6774 9.09091 25.6774 8.63636 25.5637 7.38636C25.5637 6.02273 25.3365 5.11364 24.9955 4.31818C24.6546 3.52273 24.3137 2.84091 23.5183 2.15909C22.8365 1.36364 22.1546 1.02273 21.3592 0.681818C20.5637 0.340909 19.6546 0.113636 18.291 0.113636C17.041 0 16.5865 0 13.1774 0ZM13.1774 2.27273C16.4728 2.27273 16.9274 2.27273 18.1774 2.38636C19.4274 2.38636 20.1092 2.61364 20.5637 2.72727C21.1319 2.95455 21.5865 3.29545 21.9274 3.75C22.3819 4.09091 22.7228 4.54545 22.9501 5.11364C23.0637 5.56818 23.291 6.25 23.291 7.5C23.4046 8.75 23.4046 9.20455 23.4046 12.5C23.4046 15.7955 23.4046 16.25 23.291 17.5C23.291 18.75 23.0637 19.4318 22.9501 19.8864C22.7228 20.4545 22.3819 20.9091 21.9274 21.3636C21.5865 21.7045 21.1319 22.0455 20.5637 22.2727C20.1092 22.3864 19.4274 22.6136 18.1774 22.7273H8.17737C6.92737 22.6136 6.24555 22.3864 5.791 22.2727C5.22282 22.0455 4.76828 21.7045 4.31373 21.3636C3.97282 20.9091 3.63191 20.4545 3.40464 19.8864C3.291 19.4318 3.06373 18.75 2.9501 17.5V12.5V7.5C3.06373 6.25 3.291 5.56818 3.40464 5.11364C3.63191 4.54545 3.97282 4.09091 4.31373 3.75C4.76828 3.29545 5.22282 2.95455 5.791 2.72727C6.24555 2.61364 6.92737 2.38636 8.17737 2.38636C9.42737 2.27273 9.88191 2.27273 13.1774 2.27273ZM12.9501 5.79545C9.42737 5.79545 6.47282 8.75 6.47282 12.2727C6.47282 15.7955 9.42737 18.75 12.9501 18.75C16.4728 18.75 19.4274 15.7955 19.4274 12.2727C19.4274 8.75 16.4728 5.79545 12.9501 5.79545V5.79545ZM12.9501 16.4773C10.6774 16.4773 8.74555 14.5455 8.74555 12.2727C8.74555 10 10.6774 8.06818 12.9501 8.06818C15.2228 8.06818 17.1546 10 17.1546 12.2727C17.1546 14.5455 15.2228 16.4773 12.9501 16.4773ZM20.3365 7.61364C21.3592 7.61364 22.1546 6.81818 22.1546 5.79545C22.1546 4.77273 21.3592 3.97727 20.3365 3.97727C19.3137 3.97727 18.5183 4.77273 18.5183 5.79545C18.5183 6.81818 19.3137 7.61364 20.3365 7.61364V7.61364Z" fill="white"/>
</svg>
