<svg width="320" height="30" viewBox="0 0 320 30" fill="none" xmlns="http://www.w3.org/2000/svg">
<path d="M151.661 26.831C151.661 27.4734 151.411 28.0894 150.967 28.5436C150.522 28.9978 149.919 29.253 149.291 29.253H113.938C113.31 29.253 112.707 28.9978 112.262 28.5436C111.818 28.0894 111.568 27.4734 111.568 26.831V3.423C111.568 3.10485 111.629 2.7898 111.748 2.49583C111.867 2.20187 112.042 1.93475 112.262 1.70974C112.482 1.48473 112.743 1.30624 113.031 1.18446C113.319 1.06268 113.627 1 113.938 1H149.291C149.919 1 150.522 1.25517 150.967 1.70939C151.411 2.1636 151.661 2.77965 151.661 3.422V26.832V26.831V26.831Z" fill="#306FC5"/>
<path d="M116.285 10.2431L116.874 11.7391H115.695L116.285 10.2431ZM115.62 9.24807L113.819 13.5231H114.991L115.323 12.6671H117.254L117.585 13.5231H118.781L116.984 9.24807H115.62V9.24807ZM118.905 13.5221V9.24707L120.571 9.25207L121.54 12.0091L122.484 9.24707H124.136V13.5221H123.09V10.3721L121.981 13.5221H121.064L119.951 10.3721V13.5221H118.905V13.5221ZM124.852 13.5221V9.24707H128.266V10.2031H125.91V10.9341H128.21V11.8351H125.91V12.5951H128.266V13.5221H124.852V13.5221ZM129.918 10.2041H131.114C131.401 10.2041 131.609 10.4331 131.609 10.6541C131.609 10.9381 131.339 11.1041 131.13 11.1041H129.918V10.2041V10.2041ZM128.871 9.24807V13.5231H129.918V12.0051H130.358L131.613 13.5231H132.891L131.514 11.9481C131.832 11.9158 132.126 11.763 132.338 11.5199C132.551 11.2768 132.666 10.961 132.662 10.6351C132.662 9.73507 131.971 9.24807 131.2 9.24807H128.871Z" fill="white"/>
<path d="M133.09 13.5231H134.158V9.24807H133.09V13.5231ZM136.691 13.5221H136.461C135.345 13.5221 134.668 12.6251 134.668 11.4021C134.668 10.1501 135.337 9.24707 136.746 9.24707H137.901V10.2591H136.703C136.132 10.2591 135.728 10.7151 135.728 11.4131C135.728 12.2411 136.189 12.5881 136.856 12.5881H137.13L136.69 13.5221H136.691V13.5221ZM139.633 10.2431L140.221 11.7391H139.043L139.633 10.2431V10.2431ZM138.967 9.24807L137.166 13.5231H138.34L138.671 12.6671H140.602L140.932 13.5231H142.13L140.331 9.24807H138.966H138.967V9.24807ZM142.251 13.5221V9.24707H143.582L145.279 11.9331V9.24707H146.326V13.5221H145.039L143.297 10.7651V13.5221H142.251V13.5221ZM121.438 21.0061V16.7301H124.852V17.6861H122.496V18.4181H124.797V19.3181H122.497V20.0761H124.852V21.0061H121.438V21.0061ZM138.166 21.0061V16.7301H141.58V17.6861H139.224V18.4181H141.514V19.3181H139.224V20.0761H141.58V21.0061H138.166V21.0061ZM124.986 21.0061L126.646 18.8931L124.945 16.7301H126.263L127.277 18.0671L128.295 16.7301H129.56L127.881 18.8661L129.545 21.0061H128.228L127.243 19.6891L126.284 21.0061H124.986V21.0061ZM130.744 17.6971H131.904C132.205 17.6971 132.42 17.8851 132.42 18.1891C132.42 18.4751 132.206 18.6811 131.901 18.6811H130.744V17.6971V17.6971ZM129.671 16.7301V21.0071H130.744V19.6561H131.845C132.778 19.6561 133.483 19.1511 133.483 18.1691C133.483 17.3541 132.929 16.7291 131.981 16.7291H129.671V16.7301V16.7301ZM134.984 17.6861H136.18C136.466 17.6861 136.676 17.9161 136.676 18.1361C136.676 18.4191 136.405 18.5861 136.195 18.5861H134.984V17.6861V17.6861ZM133.937 16.7291V21.0051H134.984V19.4861H135.424L136.679 21.0061H137.958L136.581 19.4301C136.898 19.3976 137.192 19.2447 137.405 19.0017C137.617 18.7586 137.733 18.443 137.729 18.1171C137.729 17.2171 137.037 16.7291 136.266 16.7291H133.937V16.7291ZM142.064 21.0061V20.0761H144.159C144.468 20.0761 144.602 19.9061 144.602 19.7181C144.602 19.5381 144.469 19.3581 144.159 19.3581H143.212C142.39 19.3581 141.931 18.8441 141.931 18.0761C141.931 17.3901 142.351 16.7301 143.573 16.7301H145.611L145.17 17.6921H143.408C143.071 17.6921 142.968 17.8721 142.968 18.0441C142.968 18.2211 143.096 18.4171 143.352 18.4171H144.345C145.261 18.4171 145.658 18.9481 145.658 19.6441C145.658 20.3921 145.216 21.0061 144.294 21.0061H142.064V21.0061ZM145.904 21.0061V20.0761H147.91C148.219 20.0761 148.352 19.9061 148.352 19.7181C148.352 19.5381 148.219 19.3581 147.909 19.3581H147.052C146.23 19.3581 145.771 18.8441 145.771 18.0761C145.771 17.3901 146.191 16.7301 147.413 16.7301H149.409L148.969 17.6921H147.247C146.911 17.6921 146.807 17.8721 146.807 18.0441C146.807 18.2211 146.935 18.4171 147.193 18.4171H148.095C149.012 18.4171 149.409 18.9481 149.409 19.6441C149.409 20.3921 148.966 21.0061 148.045 21.0061H145.904V21.0061Z" fill="white"/>
<path d="M95.8772 26.7182C95.8772 27.3606 95.6275 27.9766 95.183 28.4308C94.7384 28.885 94.1355 29.1402 93.5069 29.1402H58.1545C57.5259 29.1402 56.923 28.885 56.4784 28.4308C56.0339 27.9766 55.7842 27.3606 55.7842 26.7182V3.31021C55.7841 2.99206 55.8453 2.67701 55.9643 2.38304C56.0834 2.08907 56.258 1.82196 56.4781 1.59695C56.6982 1.37194 56.9596 1.19345 57.2472 1.07167C57.5348 0.949887 57.8432 0.887207 58.1545 0.887207H93.5069C94.1355 0.887207 94.7384 1.14238 95.183 1.59659C95.6275 2.05081 95.8772 2.66685 95.8772 3.30921V26.7192V26.7182V26.7182Z" fill="white"/>
<path d="M72.6415 15.0702C72.6405 13.8078 72.9198 12.5616 73.4581 11.4253C73.9965 10.2891 74.78 9.29239 75.7497 8.51016C74.5434 7.53573 73.0928 6.92821 71.5642 6.75721C70.0356 6.5862 68.4908 6.85862 67.1067 7.54326C65.7226 8.2279 64.5553 9.29706 63.7383 10.6283C62.9214 11.9595 62.488 13.4989 62.4878 15.0702C62.4881 16.6415 62.9216 18.181 63.7386 19.5122C64.5556 20.8435 65.7231 21.9126 67.1074 22.5972C68.4916 23.2817 70.0365 23.554 71.5652 23.3828C73.0939 23.2116 74.5444 22.6038 75.7507 21.6292C74.7811 20.8472 73.9977 19.8509 73.4593 18.715C72.921 17.5791 72.6417 16.3332 72.6424 15.0712" fill="#E20D17"/>
<path d="M72.6416 15.0698C72.6408 16.3319 72.9201 17.5777 73.4585 18.7136C73.9969 19.8495 74.7803 20.8458 75.7499 21.6278C76.7194 20.8458 77.5028 19.8495 78.0412 18.7136C78.5796 17.5777 78.8589 16.3319 78.8581 15.0698C78.859 13.8074 78.5798 12.5612 78.0414 11.425C77.5031 10.2887 76.7196 9.292 75.7499 8.50977C74.7802 9.292 73.9967 10.2887 73.4583 11.425C72.9199 12.5612 72.6407 13.8074 72.6416 15.0698" fill="#EA610A"/>
<path d="M80.8283 6.70508C78.9101 6.70508 77.1466 7.38108 75.751 8.51108C76.7208 9.29321 77.5044 10.2899 78.0427 11.4262C78.5811 12.5624 78.8603 13.8087 78.8592 15.0711C78.86 16.3329 78.5807 17.5784 78.0423 18.714C77.5039 19.8495 76.7205 20.8456 75.751 21.6271C77.1946 22.799 78.9845 23.4361 80.8283 23.4341C82.9994 23.4341 85.0815 22.5528 86.6167 20.9842C88.1519 19.4155 89.0144 17.288 89.0144 15.0696C89.0144 12.8512 88.1519 10.7236 86.6167 9.15498C85.0815 7.58634 82.9994 6.70508 80.8283 6.70508" fill="#F59E00"/>
<path d="M263.229 26.83C263.229 27.4724 262.979 28.0884 262.535 28.5426C262.09 28.9968 261.487 29.252 260.858 29.252H225.506C224.877 29.252 224.275 28.9968 223.83 28.5426C223.385 28.0884 223.136 27.4724 223.136 26.83V3.42202C223.136 3.10388 223.197 2.78882 223.316 2.49486C223.435 2.20089 223.61 1.93377 223.83 1.70876C224.05 1.48375 224.311 1.30526 224.599 1.18348C224.886 1.0617 225.195 0.999023 225.506 0.999023H260.858C261.487 0.999023 262.09 1.2542 262.535 1.70841C262.979 2.16262 263.229 2.77867 263.229 3.42102V26.831V26.83V26.83Z" fill="#F5E425"/>
<path d="M263.229 26.83C263.229 27.4724 262.979 28.0884 262.535 28.5426C262.09 28.9968 261.487 29.252 260.858 29.252H225.506C224.877 29.252 224.275 28.9968 223.83 28.5426C223.385 28.0884 223.136 27.4724 223.136 26.83V3.42202C223.136 3.10388 223.197 2.78882 223.316 2.49486C223.435 2.20089 223.61 1.93377 223.83 1.70876C224.05 1.48375 224.311 1.30526 224.599 1.18348C224.886 1.0617 225.195 0.999023 225.506 0.999023H260.858C261.487 0.999023 262.09 1.2542 262.535 1.70841C262.979 2.16262 263.229 2.77867 263.229 3.42102V26.831V26.83V26.83Z" fill="#F5E425"/>
<path d="M227.699 15.3299C227.649 15.5699 227.633 15.8159 227.652 16.0599C227.672 16.2919 227.728 16.4929 227.824 16.6659C227.918 16.8379 228.045 16.9759 228.209 17.0779C228.371 17.1799 228.571 17.2309 228.806 17.2309C229.068 17.2309 229.31 17.1769 229.53 17.0679C229.749 16.9618 229.944 16.8114 230.104 16.6259C230.268 16.4389 230.403 16.2219 230.511 15.9739C230.619 15.7259 230.697 15.4579 230.742 15.1719C230.858 14.5999 230.805 14.1599 230.584 13.8519C230.365 13.5469 230.038 13.3919 229.602 13.3919C229.362 13.3919 229.138 13.4419 228.93 13.5419C228.72 13.6419 228.535 13.7769 228.372 13.9489C228.204 14.1301 228.064 14.3369 227.957 14.5619C227.84 14.8059 227.754 15.0639 227.699 15.3299V15.3299ZM226.859 19.3689H226.343L227.656 13.0429H228.17L228.007 13.8399H228.025C228.129 13.6916 228.253 13.5589 228.394 13.4459C228.535 13.3289 228.685 13.2319 228.839 13.1559C228.993 13.0809 229.149 13.0219 229.307 12.9809C229.464 12.9399 229.614 12.9199 229.757 12.9199C230.117 12.9199 230.413 12.9799 230.641 13.1039C230.869 13.2259 231.04 13.3939 231.154 13.6079C231.268 13.8209 231.333 14.0739 231.348 14.3659C231.362 14.6579 231.334 14.9709 231.267 15.3039C231.198 15.6183 231.094 15.9236 230.957 16.2139C230.82 16.5069 230.647 16.7619 230.438 16.9809C230.229 17.2005 229.982 17.3788 229.71 17.5069C229.42 17.6412 229.105 17.7084 228.787 17.7039C228.487 17.7076 228.191 17.6336 227.926 17.4889C227.673 17.3546 227.479 17.1279 227.382 16.8539L226.859 19.3689V19.3689Z" fill="#004EAC"/>
<path d="M227.794 15.3498C227.746 15.58 227.731 15.8161 227.748 16.0508C227.768 16.2678 227.821 16.4578 227.909 16.6168C227.994 16.7738 228.112 16.8998 228.261 16.9928C228.407 17.0838 228.59 17.1308 228.805 17.1308C229.05 17.1308 229.282 17.0788 229.487 16.9788C229.695 16.8768 229.879 16.7358 230.031 16.5598C230.192 16.3728 230.324 16.1613 230.422 15.9328C230.527 15.6928 230.603 15.4308 230.647 15.1558C230.755 14.6118 230.709 14.1938 230.506 13.9118C230.303 13.6288 230.009 13.4928 229.603 13.4928C229.378 13.4928 229.165 13.5388 228.971 13.6328C228.773 13.7265 228.594 13.8571 228.442 14.0178C228.28 14.1913 228.146 14.3897 228.044 14.6058C227.931 14.8418 227.848 15.0918 227.794 15.3488V15.3498V15.3498ZM228.805 17.3298C228.553 17.3298 228.336 17.2728 228.158 17.1608C227.982 17.0521 227.837 16.8975 227.738 16.7128C227.632 16.5144 227.57 16.2951 227.555 16.0698C227.535 15.8158 227.551 15.5598 227.604 15.3098V15.3078C227.662 15.0278 227.75 14.7618 227.868 14.5178C227.985 14.2738 228.132 14.0588 228.302 13.8788C228.471 13.7008 228.668 13.5568 228.889 13.4518C229.109 13.3468 229.349 13.2928 229.603 13.2928C230.068 13.2928 230.425 13.4628 230.663 13.7928C230.898 14.1228 230.956 14.5938 230.838 15.1928C230.793 15.4754 230.714 15.751 230.6 16.0128C230.494 16.2602 230.352 16.4896 230.177 16.6928C230.007 16.8875 229.801 17.0456 229.571 17.1578C229.331 17.2729 229.07 17.3313 228.805 17.3288V17.3298V17.3298ZM226.463 19.2698H226.779L227.355 16.4998L227.471 16.8198C227.567 17.0778 227.731 17.2698 227.971 17.4008C228.215 17.5368 228.489 17.6048 228.787 17.6048C229.108 17.6048 229.403 17.5408 229.668 17.4158C229.934 17.2898 230.17 17.1198 230.367 16.9108C230.569 16.7008 230.737 16.4518 230.868 16.1708C231.001 15.8878 231.103 15.5888 231.17 15.2808C231.237 14.9578 231.263 14.6518 231.248 14.3708C231.242 14.1214 231.181 13.8767 231.069 13.6548C230.96 13.455 230.795 13.2935 230.594 13.1918C230.382 13.0768 230.099 13.0188 229.756 13.0188C229.621 13.0188 229.478 13.0388 229.33 13.0768C229.01 13.1591 228.71 13.3113 228.453 13.5228C228.318 13.6328 228.201 13.7588 228.103 13.8978L228.073 13.9388H227.904L227.912 13.8198L228.049 13.1408H227.736L226.463 19.2698ZM226.937 19.4668H226.223L227.575 12.9428H228.29L228.172 13.5108C228.355 13.3298 228.566 13.1798 228.795 13.0668C228.951 12.9903 229.114 12.929 229.282 12.8838C229.437 12.8427 229.596 12.8212 229.756 12.8198C230.131 12.8198 230.444 12.8858 230.685 13.0158C230.929 13.1468 231.115 13.3298 231.239 13.5588C231.36 13.7858 231.429 14.0548 231.444 14.3608C231.459 14.6588 231.43 14.9828 231.361 15.3228C231.29 15.6458 231.184 15.9588 231.044 16.2568C230.904 16.5568 230.723 16.8238 230.507 17.0488C230.292 17.2758 230.037 17.4598 229.75 17.5968C229.447 17.7368 229.119 17.8068 228.787 17.8028C228.457 17.8028 228.151 17.7268 227.879 17.5768C227.693 17.4758 227.535 17.329 227.419 17.1498L226.937 19.4668V19.4668ZM235.426 15.3118C235.477 15.0428 235.499 14.7918 235.494 14.5578C235.494 14.3478 235.449 14.1398 235.361 13.9488C235.278 13.7772 235.147 13.635 234.984 13.5408C234.814 13.4428 234.592 13.3928 234.318 13.3928C234.051 13.3928 233.809 13.4468 233.594 13.5548C233.379 13.6648 233.193 13.8058 233.033 13.9848C232.871 14.1666 232.738 14.373 232.638 14.5968C232.536 14.8288 232.459 15.0668 232.407 15.3118C232.352 15.566 232.332 15.8269 232.347 16.0868C232.364 16.3238 232.419 16.5268 232.511 16.6968C232.601 16.8668 232.731 16.9968 232.9 17.0898C233.068 17.1838 233.276 17.2308 233.523 17.2308C233.79 17.2308 234.031 17.1758 234.247 17.0678C234.461 16.9598 234.646 16.8158 234.804 16.6348C234.96 16.4548 235.09 16.2488 235.194 16.0208C235.296 15.7928 235.373 15.5568 235.426 15.3118V15.3118ZM233.419 17.7038C233.155 17.7023 232.895 17.6487 232.652 17.5458C232.43 17.4497 232.238 17.2955 232.094 17.0988C231.94 16.8784 231.841 16.6225 231.807 16.3538C231.761 16.0558 231.778 15.7078 231.858 15.3118C231.926 14.9788 232.034 14.6668 232.18 14.3778C232.32 14.0973 232.504 13.8417 232.724 13.6208C232.941 13.4048 233.192 13.2338 233.475 13.1078C233.757 12.9818 234.071 12.9188 234.414 12.9188C234.763 12.9188 235.052 12.9818 235.283 13.1088C235.515 13.2338 235.693 13.4028 235.819 13.6158C235.945 13.8298 236.019 14.0828 236.043 14.3758C236.065 14.6658 236.043 14.9788 235.974 15.3118C235.906 15.6549 235.787 15.9854 235.622 16.2918C235.471 16.573 235.277 16.8275 235.047 17.0458C234.829 17.2536 234.575 17.4187 234.298 17.5328C234.019 17.6468 233.72 17.7048 233.419 17.7038V17.7038Z" fill="#004EAC"/>
<path d="M234.318 13.4929C234.067 13.4929 233.839 13.5429 233.637 13.6429C233.436 13.7445 233.256 13.8836 233.105 14.0529C232.951 14.2229 232.824 14.4199 232.727 14.6389C232.626 14.8639 232.551 15.0969 232.502 15.3329C232.447 15.6009 232.428 15.8529 232.443 16.0809C232.46 16.3009 232.511 16.4929 232.595 16.6479C232.678 16.8029 232.793 16.9179 232.946 17.0039C233.1 17.0889 233.293 17.1319 233.523 17.1319C233.773 17.1319 234.002 17.0799 234.204 16.9789C234.406 16.8779 234.583 16.7389 234.73 16.5689C234.884 16.3923 235.01 16.1935 235.106 15.9789C235.205 15.7589 235.281 15.5289 235.33 15.2919C235.379 15.0319 235.402 14.7859 235.397 14.5599C235.397 14.3639 235.355 14.1699 235.275 13.9929C235.2 13.8392 235.082 13.7122 234.935 13.6289C234.782 13.5389 234.575 13.4929 234.318 13.4929V13.4929ZM233.523 17.3299C233.261 17.3299 233.035 17.2789 232.853 17.1789C232.673 17.0794 232.524 16.9287 232.425 16.7449C232.327 16.5639 232.268 16.3449 232.249 16.0949C232.234 15.8249 232.254 15.5549 232.311 15.2919C232.364 15.0419 232.444 14.7949 232.549 14.5559C232.656 14.3189 232.793 14.1039 232.96 13.9159C233.128 13.7309 233.326 13.5799 233.552 13.4659C233.779 13.3509 234.038 13.2939 234.318 13.2939C234.609 13.2939 234.849 13.3479 235.032 13.4559C235.218 13.5649 235.358 13.7159 235.448 13.9049C235.536 14.0889 235.585 14.3069 235.592 14.5549C235.597 14.7949 235.572 15.0549 235.521 15.3309V15.3329C235.468 15.5842 235.388 15.8287 235.281 16.0619C235.179 16.2945 235.042 16.5099 234.876 16.7009C234.71 16.8899 234.514 17.0449 234.289 17.1579C234.05 17.2743 233.788 17.3332 233.523 17.3299V17.3299ZM234.413 13.0189C234.086 13.0189 233.782 13.0789 233.513 13.1989C233.242 13.3189 233 13.4849 232.792 13.6929C232.578 13.9059 232.4 14.1529 232.266 14.4249C232.123 14.7116 232.017 15.0166 231.953 15.3319C231.875 15.7149 231.859 16.0539 231.902 16.3389C231.945 16.6189 232.036 16.8549 232.171 17.0389C232.306 17.2229 232.481 17.3629 232.69 17.4539C232.903 17.5489 233.149 17.5979 233.42 17.6039C233.714 17.6039 233.997 17.5499 234.261 17.4409C234.527 17.3317 234.772 17.173 234.982 16.9729C235.196 16.7699 235.383 16.5249 235.537 16.2449C235.692 15.9639 235.807 15.6429 235.879 15.2919C235.945 14.9699 235.968 14.6619 235.945 14.3819C235.931 14.1305 235.86 13.8859 235.737 13.6679C235.616 13.4668 235.443 13.3036 235.237 13.1959C235.022 13.0789 234.745 13.0189 234.414 13.0189H234.413V13.0189ZM233.419 17.8039H233.416C233.14 17.8024 232.867 17.746 232.613 17.6379C232.376 17.534 232.17 17.3685 232.016 17.1579C231.853 16.9246 231.748 16.6541 231.711 16.3699C231.662 16.0599 231.681 15.6979 231.764 15.2919C231.831 14.9581 231.942 14.6351 232.094 14.3319C232.243 14.0359 232.433 13.7719 232.657 13.5499C232.881 13.3269 233.143 13.1469 233.437 13.0169C233.746 12.8829 234.079 12.8169 234.414 12.8199C234.776 12.8199 235.085 12.8879 235.329 13.0199C235.574 13.1539 235.768 13.3379 235.903 13.5649C236.037 13.7909 236.115 14.0599 236.14 14.3669C236.163 14.6669 236.139 14.9909 236.069 15.3319C235.999 15.6854 235.877 16.0259 235.707 16.3419C235.545 16.6399 235.344 16.9019 235.114 17.1199C234.886 17.3357 234.622 17.5072 234.334 17.6259C234.045 17.7439 233.737 17.8039 233.419 17.8039V17.8039ZM236.823 16.1619C236.829 16.5539 236.919 16.8289 237.092 16.9899C237.268 17.1499 237.548 17.2299 237.938 17.2299C238.107 17.2328 238.276 17.2092 238.439 17.1599C238.585 17.1139 238.711 17.0519 238.816 16.9729C238.922 16.8929 239.007 16.8049 239.074 16.7049C239.137 16.6094 239.182 16.5026 239.207 16.3899C239.252 16.1679 239.217 16.0029 239.099 15.8939C238.961 15.7751 238.798 15.6888 238.624 15.6409C238.409 15.5758 238.192 15.5231 237.972 15.4829C237.751 15.4433 237.535 15.3772 237.329 15.2859C237.146 15.2081 236.989 15.077 236.879 14.9089C236.773 14.7459 236.751 14.5149 236.813 14.2169C236.894 13.8369 237.094 13.5259 237.414 13.2829C237.735 13.0409 238.143 12.9199 238.64 12.9199C239.121 12.9199 239.487 13.0299 239.738 13.2489C239.99 13.4679 240.096 13.8339 240.055 14.3489H239.533C239.555 13.9979 239.475 13.7509 239.292 13.6079C239.109 13.4649 238.858 13.3929 238.538 13.3929C238.212 13.3929 237.946 13.4649 237.744 13.6079C237.648 13.6718 237.566 13.7548 237.502 13.8518C237.438 13.9489 237.394 14.0581 237.372 14.1729C237.337 14.3249 237.352 14.4499 237.414 14.5499C237.477 14.6489 237.571 14.7299 237.689 14.7949C237.809 14.8589 237.948 14.9139 238.11 14.9569C238.269 15.0009 238.434 15.0449 238.602 15.0889C238.77 15.1329 238.933 15.1829 239.091 15.2419C239.248 15.3009 239.383 15.3779 239.498 15.4739C239.612 15.569 239.698 15.6952 239.746 15.8379C239.798 15.9839 239.801 16.1649 239.756 16.3809C239.714 16.5891 239.627 16.7851 239.501 16.9549C239.376 17.1238 239.219 17.2653 239.04 17.3709C238.854 17.4809 238.644 17.5649 238.413 17.6209C238.17 17.6775 237.921 17.7053 237.671 17.7039C237.409 17.7039 237.184 17.6639 236.999 17.5859C236.825 17.5155 236.671 17.403 236.549 17.2579C236.434 17.1152 236.353 16.9466 236.314 16.7659C236.271 16.5675 236.266 16.3623 236.299 16.1619H236.823V16.1619Z" fill="#004EAC"/>
<path d="M236.384 16.2612C236.365 16.4212 236.372 16.5852 236.407 16.7432C236.446 16.9132 236.518 17.0652 236.623 17.1932C236.729 17.3232 236.868 17.4232 237.036 17.4932C237.21 17.5682 237.423 17.6052 237.672 17.6052C237.927 17.6052 238.168 17.5772 238.391 17.5232C238.613 17.4702 238.814 17.3902 238.99 17.2842C239.164 17.1822 239.309 17.0502 239.424 16.8942C239.539 16.7402 239.618 16.5612 239.661 16.3602C239.702 16.1622 239.7 15.9972 239.656 15.8702C239.612 15.7451 239.536 15.6345 239.436 15.5502C239.322 15.4567 239.194 15.384 239.057 15.3352C238.9 15.2771 238.74 15.2271 238.578 15.1852C238.412 15.1432 238.248 15.0982 238.083 15.0522C237.931 15.0117 237.783 14.9547 237.643 14.8822C237.517 14.8185 237.41 14.7223 237.332 14.6032C237.255 14.4812 237.236 14.3282 237.277 14.1502C237.301 14.0235 237.35 13.903 237.421 13.7959C237.492 13.6887 237.583 13.5971 237.689 13.5262C237.908 13.3712 238.194 13.2932 238.537 13.2932C238.878 13.2932 239.152 13.3732 239.351 13.5282C239.541 13.6782 239.635 13.9192 239.633 14.2482H239.964C239.984 13.8182 239.886 13.5082 239.675 13.3232C239.442 13.1212 239.094 13.0192 238.641 13.0192C238.166 13.0192 237.774 13.1342 237.472 13.3632C237.169 13.5932 236.984 13.8782 236.909 14.2382C236.852 14.5062 236.87 14.7132 236.96 14.8532C237.059 15.0066 237.202 15.1258 237.369 15.1952C237.555 15.2792 237.763 15.3432 237.989 15.3852C238.224 15.4282 238.446 15.4832 238.651 15.5452C238.862 15.6102 239.035 15.7022 239.165 15.8202C239.308 15.9532 239.354 16.1532 239.302 16.4102C239.275 16.5356 239.226 16.6545 239.155 16.7602C239.081 16.8702 238.986 16.9682 238.873 17.0532C238.75 17.1432 238.613 17.2102 238.468 17.2552C238.314 17.3052 238.135 17.3292 237.937 17.3292C237.526 17.3292 237.22 17.2402 237.028 17.0642C236.849 16.8982 236.748 16.6282 236.729 16.2612H236.384V16.2612ZM237.671 17.8032C237.398 17.8032 237.159 17.7602 236.962 17.6772C236.773 17.6007 236.605 17.4785 236.473 17.3212C236.349 17.1662 236.262 16.9837 236.219 16.7882C236.173 16.5773 236.167 16.3592 236.203 16.1462L236.217 16.0622H236.918L236.92 16.1592C236.925 16.5202 237.006 16.7742 237.158 16.9162C237.313 17.0592 237.576 17.1312 237.937 17.1312C238.116 17.1312 238.275 17.1112 238.409 17.0662C238.543 17.0232 238.661 16.9642 238.759 16.8912C238.851 16.8249 238.93 16.7426 238.994 16.6482C239.051 16.5638 239.091 16.4686 239.112 16.3682C239.151 16.1832 239.124 16.0512 239.034 15.9682C238.907 15.8586 238.756 15.7793 238.595 15.7362C238.385 15.6712 238.17 15.6191 237.954 15.5802C237.725 15.5392 237.502 15.4708 237.289 15.3762C237.089 15.2912 236.917 15.1471 236.797 14.9622C236.677 14.7772 236.65 14.5182 236.719 14.1962C236.804 13.7922 237.018 13.4582 237.357 13.2022C237.692 12.9482 238.124 12.8202 238.641 12.8202C239.141 12.8202 239.532 12.9402 239.802 13.1722C240.077 13.4122 240.195 13.8122 240.154 14.3562L240.145 14.4472H239.428L239.435 14.3412C239.456 14.0282 239.387 13.8072 239.233 13.6862C239.069 13.5572 238.835 13.4922 238.538 13.4922C238.233 13.4922 237.985 13.5582 237.799 13.6892C237.714 13.7459 237.64 13.8197 237.583 13.9061C237.526 13.9925 237.486 14.0898 237.467 14.1922C237.437 14.3222 237.447 14.4192 237.496 14.4952C237.556 14.5852 237.639 14.6592 237.735 14.7072C237.846 14.7672 237.98 14.8192 238.134 14.8602C238.294 14.9042 238.458 14.9502 238.625 14.9912C238.797 15.0352 238.964 15.0882 239.124 15.1492C239.291 15.2102 239.438 15.2932 239.56 15.3962C239.687 15.5062 239.781 15.6422 239.838 15.8032C239.897 15.9682 239.9 16.1632 239.85 16.4032C239.805 16.6247 239.712 16.8333 239.579 17.0142C239.446 17.1942 239.279 17.3442 239.088 17.4562C238.885 17.5762 238.664 17.6642 238.435 17.7172C238.185 17.7762 237.929 17.8051 237.672 17.8032H237.671V17.8032ZM241.865 17.5982C241.777 17.6162 241.689 17.6362 241.603 17.6602C241.487 17.6897 241.367 17.7041 241.247 17.7032C240.99 17.7032 240.81 17.6382 240.703 17.5062C240.597 17.3742 240.58 17.1402 240.647 16.8012L241.332 13.4812H240.706L240.802 13.0422H241.428L241.692 11.7822H242.209L241.942 13.0422H242.774L242.68 13.4802H241.848L241.205 16.5912C241.185 16.6874 241.168 16.7841 241.153 16.8812C241.141 16.9479 241.146 17.0166 241.166 17.0812C241.185 17.1332 241.227 17.1752 241.277 17.1962C241.356 17.2232 241.439 17.2352 241.522 17.2312C241.591 17.2312 241.661 17.2252 241.732 17.2132C241.805 17.2017 241.878 17.1871 241.951 17.1692L241.865 17.5992V17.5982V17.5982Z" fill="#004EAC"/>
<path d="M240.827 13.3802H241.454L240.742 16.8212C240.682 17.1242 240.694 17.3402 240.778 17.4442C240.865 17.5512 241.023 17.6062 241.248 17.6062C241.361 17.6062 241.473 17.5902 241.581 17.5642C241.648 17.5455 241.716 17.5288 241.783 17.5142L241.827 17.2982L241.748 17.3122C241.523 17.3462 241.345 17.3322 241.239 17.2882C241.202 17.2727 241.168 17.2497 241.14 17.2205C241.112 17.1912 241.09 17.1564 241.075 17.1182C241.048 17.0371 241.042 16.9504 241.056 16.8662C241.068 16.7822 241.087 16.6852 241.109 16.5702L241.769 13.3802H242.601L242.653 13.1412H241.822L242.087 11.8812H241.772L241.505 13.1412H240.879L240.827 13.3812V13.3802V13.3802ZM241.248 17.8032C240.96 17.8032 240.753 17.7252 240.628 17.5702C240.501 17.4132 240.477 17.1542 240.552 16.7802L241.213 13.5802H240.587L240.724 12.9442H241.35L241.615 11.6812H242.33L242.063 12.9442H242.895L242.758 13.5792H241.927L241.299 16.6102C241.278 16.7202 241.26 16.8142 241.25 16.8952C241.24 16.9449 241.242 16.9964 241.256 17.0452C241.261 17.0586 241.269 17.0709 241.279 17.0812C241.29 17.0915 241.302 17.0996 241.315 17.1052C241.344 17.1162 241.403 17.1312 241.522 17.1312C241.659 17.1258 241.795 17.1057 241.928 17.0712L242.075 17.0372L241.948 17.6862L241.882 17.6962C241.797 17.714 241.712 17.734 241.628 17.7562C241.503 17.7876 241.375 17.8034 241.247 17.8032H241.248V17.8032ZM246.23 14.9972C246.275 14.7742 246.288 14.5662 246.268 14.3702C246.253 14.1907 246.199 14.0171 246.109 13.8622C246.02 13.7158 245.892 13.5975 245.741 13.5202C245.559 13.4304 245.359 13.3869 245.157 13.3932C244.94 13.3906 244.725 13.4349 244.527 13.5232C244.336 13.611 244.161 13.7299 244.008 13.8752C243.851 14.0252 243.714 14.1952 243.605 14.3842C243.49 14.5762 243.399 14.7802 243.331 14.9972H246.23V14.9972ZM243.235 15.4342C243.186 15.6802 243.166 15.9122 243.186 16.1322C243.196 16.3322 243.252 16.5272 243.348 16.7012C243.438 16.8612 243.57 16.9902 243.738 17.0862C243.907 17.1832 244.114 17.2312 244.36 17.2312C244.697 17.2312 245.004 17.1412 245.282 16.9592C245.559 16.7782 245.772 16.5212 245.921 16.1882H246.495C246.389 16.3992 246.264 16.6 246.123 16.7882C245.984 16.9709 245.82 17.1331 245.637 17.2702C245.45 17.4102 245.241 17.5182 245.02 17.5902C244.773 17.6685 244.515 17.7069 244.257 17.7042C243.902 17.7042 243.609 17.6432 243.379 17.5202C243.158 17.4076 242.973 17.2331 242.846 17.0172C242.719 16.7872 242.647 16.5272 242.636 16.2632C242.62 15.9732 242.646 15.6632 242.713 15.3302C242.78 15.0027 242.893 14.6869 243.048 14.3922C243.202 14.1012 243.39 13.8452 243.609 13.6262C243.83 13.4062 244.078 13.2342 244.355 13.1082C244.632 12.9822 244.932 12.9202 245.252 12.9202C245.864 12.9202 246.299 13.1352 246.559 13.5642C246.82 13.9932 246.861 14.6172 246.684 15.4342H243.235V15.4342Z" fill="#004EAC"/>
<path d="M243.467 14.897H246.148C246.179 14.715 246.187 14.541 246.171 14.379C246.157 14.2148 246.107 14.0559 246.025 13.914C245.945 13.7826 245.831 13.6768 245.695 13.609C245.404 13.453 244.919 13.453 244.566 13.615C244.385 13.6973 244.219 13.8095 244.073 13.947C243.927 14.087 243.796 14.252 243.689 14.435C243.601 14.581 243.527 14.736 243.467 14.897V14.897ZM246.307 15.097H243.197L243.238 14.967C243.308 14.743 243.404 14.53 243.522 14.332C243.636 14.1359 243.777 13.9575 243.94 13.802C244.103 13.648 244.287 13.525 244.486 13.433C244.689 13.341 244.914 13.293 245.157 13.293C245.402 13.293 245.612 13.34 245.784 13.433C245.96 13.523 246.097 13.651 246.191 13.81C246.284 13.963 246.342 14.148 246.364 14.36C246.384 14.564 246.371 14.786 246.324 15.017L246.307 15.097V15.097ZM245.251 13.019C244.945 13.019 244.658 13.08 244.393 13.199C244.127 13.3202 243.884 13.4888 243.676 13.697C243.46 13.9149 243.276 14.1651 243.133 14.439C242.983 14.722 242.875 15.029 242.808 15.349C242.744 15.6462 242.718 15.9509 242.733 16.255C242.749 16.529 242.815 16.767 242.929 16.966C243.042 17.162 243.207 17.318 243.423 17.431C243.639 17.546 243.92 17.605 244.256 17.605C244.522 17.605 244.769 17.568 244.99 17.496C245.207 17.423 245.405 17.32 245.579 17.19C245.753 17.06 245.909 16.904 246.045 16.727C246.148 16.59 246.245 16.442 246.332 16.287H245.981C245.826 16.609 245.609 16.863 245.333 17.043C245.042 17.233 244.714 17.33 244.359 17.33C244.098 17.33 243.873 17.277 243.691 17.173C243.514 17.0742 243.366 16.9284 243.263 16.751C243.16 16.5631 243.1 16.3539 243.087 16.139C243.07 15.914 243.087 15.669 243.141 15.414L243.156 15.335H246.603C246.755 14.585 246.712 14.007 246.476 13.616C246.232 13.214 245.831 13.019 245.251 13.019V13.019ZM244.256 17.803C243.888 17.803 243.577 17.738 243.333 17.608C243.096 17.4871 242.898 17.2998 242.762 17.068C242.626 16.8234 242.549 16.5491 242.538 16.268C242.524 15.9461 242.551 15.6237 242.618 15.309C242.688 14.969 242.804 14.644 242.961 14.344C243.119 14.045 243.314 13.78 243.541 13.554C243.766 13.3301 244.028 13.1483 244.314 13.017C244.604 12.887 244.918 12.82 245.251 12.82C245.895 12.82 246.363 13.053 246.641 13.512C246.914 13.962 246.959 14.616 246.778 15.457L246.761 15.534H243.316C243.28 15.7283 243.269 15.9267 243.283 16.124C243.296 16.326 243.347 16.502 243.431 16.651C243.515 16.7989 243.637 16.9201 243.785 17.001C243.962 17.0934 244.16 17.1381 244.359 17.131C244.676 17.131 244.97 17.045 245.23 16.876C245.496 16.6972 245.705 16.4436 245.832 16.146L245.858 16.088H246.653L246.581 16.232C246.473 16.449 246.346 16.656 246.199 16.849C246.052 17.041 245.883 17.209 245.694 17.35C245.498 17.496 245.28 17.6091 245.049 17.685C244.792 17.7651 244.525 17.8049 244.256 17.803V17.803ZM249.853 13.88C249.423 13.88 249.08 14.09 248.833 14.51C248.69 14.7746 248.588 15.0604 248.531 15.357C248.42 15.899 248.481 16.279 248.716 16.499C248.858 16.628 249.044 16.692 249.273 16.692C249.605 16.692 249.886 16.561 250.115 16.297C250.344 16.035 250.502 15.687 250.591 15.249C250.667 14.89 250.653 14.571 250.55 14.295C250.447 14.02 250.215 13.88 249.854 13.88H249.853ZM251.835 15.19C251.666 16.01 251.354 16.637 250.904 17.069C250.452 17.499 249.943 17.714 249.374 17.714C249.011 17.714 248.728 17.621 248.528 17.436C248.4 17.3093 248.3 17.1558 248.235 16.986L247.728 19.416H246.548L247.9 12.918H249.043L248.9 13.607C249.049 13.4243 249.221 13.2629 249.411 13.127C249.709 12.9218 250.06 12.8131 250.419 12.815C250.953 12.815 251.363 13.017 251.649 13.419C251.935 13.819 251.997 14.411 251.835 15.19Z" fill="#004EAC"/>
<path d="M249.854 13.9798C249.455 13.9798 249.147 14.1698 248.916 14.5598C248.779 14.8148 248.681 15.0898 248.626 15.3768C248.524 15.8788 248.575 16.2318 248.781 16.4248C248.903 16.5348 249.07 16.5908 249.273 16.5908C249.58 16.5908 249.831 16.4738 250.041 16.2318C250.259 15.9818 250.411 15.6458 250.497 15.2288C250.568 14.8888 250.554 14.5868 250.457 14.3308C250.369 14.0938 250.173 13.9808 249.855 13.9808L249.854 13.9798V13.9798ZM249.273 16.7908C249.047 16.7998 248.825 16.722 248.652 16.5728C248.389 16.3278 248.318 15.9128 248.436 15.3358C248.512 14.9838 248.617 14.6878 248.75 14.4588C249.017 14.0088 249.388 13.7808 249.855 13.7808C250.258 13.7808 250.522 13.9418 250.641 14.2588C250.751 14.5518 250.766 14.8928 250.687 15.2708C250.595 15.7208 250.427 16.0878 250.188 16.3638C249.96 16.6378 249.626 16.7938 249.273 16.7908V16.7908ZM246.667 19.3168H247.649L248.204 16.6638L248.324 16.9468C248.402 17.1288 248.49 17.2688 248.593 17.3618C248.774 17.5298 249.037 17.6138 249.374 17.6138C249.915 17.6138 250.407 17.4058 250.838 16.9948C251.271 16.5808 251.575 15.9668 251.74 15.1678C251.895 14.4208 251.838 13.8518 251.571 13.4758C251.302 13.0978 250.925 12.9158 250.42 12.9158C250.08 12.9138 249.748 13.0162 249.466 13.2098C249.283 13.3398 249.119 13.4948 248.975 13.6698L248.728 13.9648L248.923 13.0158H247.978L246.667 19.3168ZM247.807 19.5168H246.427L247.821 12.8178H249.162L249.066 13.2848C249.164 13.1908 249.261 13.1108 249.357 13.0448C249.678 12.8268 250.037 12.7148 250.42 12.7148C250.984 12.7148 251.424 12.9318 251.728 13.3598C252.03 13.7828 252.098 14.4058 251.93 15.2098C251.756 16.0478 251.433 16.6978 250.97 17.1398C250.502 17.5858 249.965 17.8128 249.374 17.8128C248.987 17.8128 248.681 17.7098 248.462 17.5088C248.389 17.44 248.326 17.3617 248.274 17.2758L247.807 19.5158V19.5168V19.5168ZM254.975 15.3138C254.895 15.3604 254.81 15.3996 254.723 15.4308C254.64 15.4608 254.529 15.4888 254.389 15.5148L254.113 15.5658C253.85 15.6118 253.658 15.6678 253.535 15.7328C253.437 15.7829 253.351 15.8558 253.285 15.9457C253.218 16.0357 253.173 16.1401 253.154 16.2508C253.11 16.4588 253.134 16.6088 253.227 16.7018C253.279 16.7497 253.339 16.7868 253.405 16.8108C253.47 16.8348 253.54 16.8454 253.61 16.8418C253.867 16.8418 254.12 16.7638 254.368 16.6098C254.617 16.4558 254.789 16.1748 254.883 15.7668L254.975 15.3138V15.3138ZM254.368 14.7448C254.538 14.7293 254.706 14.693 254.867 14.6368C255.05 14.5638 255.159 14.4478 255.194 14.2918C255.233 14.0998 255.194 13.9678 255.08 13.8948C254.965 13.8228 254.783 13.7858 254.532 13.7858C254.25 13.7858 254.034 13.8578 253.887 13.9998C253.773 14.1226 253.687 14.2685 253.632 14.4278H252.479C252.591 14.0198 252.773 13.6848 253.023 13.4218C253.427 13.0118 254.012 12.8058 254.779 12.8058C255.279 12.8058 255.7 12.9078 256.048 13.1098C256.393 13.3128 256.508 13.6948 256.39 14.2568L255.942 16.3968C255.912 16.5438 255.878 16.7238 255.842 16.9348C255.817 17.0948 255.818 17.2028 255.845 17.2598C255.876 17.3221 255.927 17.3717 255.989 17.4008L255.956 17.5808H254.657C254.641 17.4935 254.634 17.4046 254.637 17.3158C254.64 17.2214 254.648 17.1273 254.662 17.0338C254.458 17.215 254.235 17.3714 253.996 17.4998C253.705 17.6508 253.399 17.7258 253.076 17.7258C252.661 17.7258 252.345 17.6058 252.127 17.3658C251.907 17.1238 251.843 16.7828 251.935 16.3398C252.056 15.7668 252.358 15.3518 252.843 15.0948C253.11 14.9558 253.48 14.8558 253.953 14.7958L254.368 14.7458V14.7448V14.7448Z" fill="#004EAC"/>
<path d="M254.84 15.492C254.813 15.5039 254.785 15.5149 254.757 15.525C254.642 15.5628 254.525 15.5922 254.407 15.613L254.131 15.665C253.88 15.707 253.695 15.76 253.58 15.821C253.494 15.8646 253.42 15.928 253.362 16.0061C253.305 16.0842 253.267 16.1749 253.25 16.271C253.214 16.444 253.229 16.565 253.296 16.631C253.339 16.6697 253.388 16.6993 253.443 16.7182C253.497 16.737 253.554 16.7448 253.611 16.741C253.848 16.741 254.086 16.669 254.318 16.525C254.543 16.387 254.7 16.123 254.788 15.744L254.84 15.492V15.492ZM253.61 16.94C253.528 16.9441 253.446 16.9315 253.368 16.9028C253.291 16.8742 253.22 16.83 253.16 16.773C253.042 16.656 253.008 16.473 253.06 16.23C253.083 16.1051 253.133 15.9873 253.208 15.8858C253.283 15.7843 253.379 15.7019 253.49 15.645C253.625 15.574 253.828 15.514 254.097 15.469L254.371 15.418C254.505 15.392 254.614 15.366 254.693 15.338C254.774 15.308 254.853 15.271 254.928 15.227L255.114 15.117L254.98 15.787C254.878 16.223 254.69 16.527 254.419 16.694C254.177 16.8511 253.897 16.9363 253.611 16.94H253.61V16.94ZM254.38 14.844L253.965 14.894C253.506 14.953 253.145 15.05 252.889 15.184C252.425 15.429 252.145 15.814 252.03 16.361C251.944 16.773 251.999 17.08 252.198 17.298C252.399 17.518 252.687 17.628 253.075 17.628C253.382 17.628 253.676 17.555 253.951 17.412C254.181 17.289 254.399 17.137 254.597 16.959L254.793 16.784L254.759 17.048C254.745 17.148 254.736 17.238 254.735 17.318C254.732 17.371 254.735 17.425 254.741 17.482H255.876L255.881 17.451C255.828 17.4134 255.785 17.3624 255.757 17.303C255.72 17.225 255.718 17.103 255.747 16.92C255.783 16.706 255.816 16.525 255.847 16.376L256.296 14.236C256.404 13.716 256.307 13.376 256 13.196C255.67 13.005 255.26 12.906 254.78 12.906C254.042 12.906 253.474 13.103 253.092 13.493C252.872 13.7307 252.708 14.0167 252.613 14.329H253.566C253.625 14.181 253.711 14.0455 253.818 13.929C253.987 13.768 254.225 13.686 254.533 13.686C254.802 13.686 254.998 13.726 255.131 13.811C255.236 13.879 255.348 14.019 255.288 14.311C255.246 14.504 255.117 14.643 254.902 14.73C254.733 14.789 254.559 14.827 254.381 14.844H254.38V14.844ZM253.075 17.826C252.635 17.826 252.292 17.693 252.054 17.432C251.814 17.167 251.743 16.792 251.841 16.319C251.966 15.719 252.289 15.278 252.8 15.007C253.076 14.862 253.46 14.757 253.943 14.697L254.357 14.646C254.575 14.619 254.735 14.585 254.831 14.546C254.983 14.484 255.071 14.393 255.098 14.269C255.139 14.076 255.078 14.012 255.028 13.979C254.96 13.936 254.819 13.886 254.532 13.886C254.277 13.886 254.084 13.948 253.954 14.072C253.852 14.1851 253.773 14.3186 253.723 14.464L253.698 14.528H252.351L252.388 14.402C252.502 13.98 252.694 13.627 252.954 13.352C253.375 12.925 253.99 12.708 254.78 12.708C255.293 12.708 255.736 12.814 256.096 13.024C256.482 13.249 256.613 13.671 256.487 14.278L256.038 16.417C256.009 16.564 255.974 16.743 255.938 16.952C255.909 17.144 255.925 17.205 255.932 17.218C255.955 17.2606 255.991 17.2943 256.034 17.314L256.097 17.347L256.036 17.681H254.576L254.562 17.599C254.541 17.488 254.535 17.3747 254.543 17.262C254.385 17.3853 254.217 17.4944 254.04 17.588C253.737 17.746 253.412 17.826 253.076 17.826H253.075V17.826ZM256.541 18.475L256.691 18.485C256.806 18.49 256.918 18.485 257.026 18.471C257.128 18.4586 257.227 18.4249 257.315 18.372C257.396 18.324 257.481 18.223 257.575 18.069C257.666 17.914 257.71 17.821 257.703 17.787L257.043 12.917H258.37L258.65 16.357L260.309 12.917H261.577L259.056 17.504C258.571 18.388 258.219 18.937 257.999 19.149C257.781 19.362 257.407 19.467 256.88 19.467C256.772 19.467 256.688 19.467 256.624 19.465C256.529 19.4624 256.434 19.4577 256.339 19.451L256.541 18.475V18.475Z" fill="#004EAC"/>
<path d="M256.458 19.3589C256.597 19.3679 256.738 19.3709 256.878 19.3689C257.377 19.3689 257.734 19.2699 257.932 19.0769C258.145 18.8729 258.493 18.3259 258.97 17.4549L261.411 13.0159H260.369L258.582 16.7229L258.279 13.0159H257.153L257.799 17.7719C257.809 17.8269 257.789 17.9009 257.657 18.1209C257.556 18.2899 257.46 18.3999 257.364 18.4579C257.264 18.5182 257.153 18.5564 257.038 18.5699C256.92 18.5849 256.803 18.5899 256.686 18.5829L256.619 18.5789L256.458 19.3589ZM256.878 19.5669L256.623 19.5649C256.556 19.5639 256.46 19.5579 256.332 19.5499L256.221 19.5429L256.462 18.3729L256.695 18.3839C256.803 18.3889 256.91 18.3849 257.013 18.3729C257.102 18.3629 257.187 18.3329 257.263 18.2879C257.312 18.2589 257.388 18.1899 257.492 18.0169C257.597 17.8399 257.607 17.7929 257.608 17.7879L256.93 12.8179H258.46L258.718 15.9919L260.248 12.8179H261.743L259.14 17.5519C258.647 18.4529 258.295 18.9999 258.066 19.2209C257.826 19.4539 257.438 19.5669 256.879 19.5669H256.878Z" fill="#004EAC"/>
<path d="M207.445 26.83C207.445 27.4724 207.195 28.0884 206.751 28.5426C206.306 28.9968 205.703 29.252 205.075 29.252H169.722C169.094 29.252 168.491 28.9968 168.046 28.5426C167.602 28.0884 167.352 27.4724 167.352 26.83V3.42202C167.352 3.10388 167.413 2.78882 167.532 2.49486C167.651 2.20089 167.826 1.93377 168.046 1.70876C168.266 1.48375 168.527 1.30526 168.815 1.18348C169.103 1.0617 169.411 0.999023 169.722 0.999023H205.075C205.703 0.999023 206.306 1.2542 206.751 1.70841C207.195 2.16262 207.445 2.77867 207.445 3.42102V26.831V26.83V26.83Z" fill="#005A9B"/>
<path d="M179.181 16.623C182.99 14.955 188.336 13.443 195.415 14.957L195.49 13.122C188.02 12.289 182.661 14.72 179.181 16.442V16.623Z" fill="#FAA929"/>
<path d="M172.303 17.9722H175.892V19.0762H173.662L173.648 20.0972H175.87V21.1572H173.639L173.649 22.1772H175.847V23.2832H172.304L172.303 17.9722V17.9722ZM176.794 17.5272H178.101L178.106 23.2832H176.799L176.794 17.5272ZM181.636 20.8652C181.636 20.4672 181.449 20.1052 181.012 20.1052C180.599 20.1052 180.284 20.4812 180.2 20.8652H181.636ZM182.597 22.8452C182.154 23.2292 181.478 23.4212 180.878 23.4212C179.502 23.4212 178.88 22.4242 178.88 21.4332C178.88 20.2662 179.736 19.2772 180.915 19.2772C182.357 19.2772 182.807 20.3202 182.807 21.6472H180.187C180.187 21.9472 180.373 22.4542 181.095 22.4542C181.554 22.4542 181.809 22.3162 182.161 22.0702L182.597 22.8452ZM186.774 23.0222C186.414 23.2522 185.82 23.4202 185.384 23.4202C184.182 23.4202 183.319 22.7142 183.319 21.4412C183.319 20.1362 184.175 19.2772 185.466 19.2772C185.916 19.2772 186.459 19.4222 186.751 19.6142L186.33 20.4892C186.135 20.4052 185.925 20.3352 185.714 20.3352C185.061 20.3352 184.626 20.7352 184.626 21.3722C184.626 21.9242 185.045 22.3622 185.602 22.3622C185.85 22.3622 186.098 22.2472 186.307 22.1392L186.774 23.0222V23.0222ZM187.256 19.4152H187.847L187.842 18.1032H189.105L189.074 19.4152H190.148L190.126 20.3822H189.052C189.052 20.9192 189.013 21.4872 189.013 21.8172C189.013 22.1552 189.097 22.3162 189.39 22.3162C189.57 22.3162 189.721 22.2242 189.869 22.1322L190.156 23.0372C189.767 23.2808 189.321 23.4134 188.864 23.4212C187.805 23.4212 187.752 22.7382 187.752 21.8482C187.752 21.3722 187.79 20.8962 187.79 20.3822H187.227L187.256 19.4152V19.4152ZM190.818 19.4152H192.123V19.9602H192.14C192.334 19.6302 192.59 19.3082 193.101 19.3082C193.244 19.3082 193.393 19.3232 193.53 19.3532L193.355 20.6732C193.205 20.6239 193.048 20.5983 192.889 20.5972C192.454 20.5972 192.116 20.9732 192.116 21.0502L192.095 23.2832H190.786L190.818 19.4152V19.4152ZM195.896 22.4082C196.519 22.4082 196.706 21.8552 196.706 21.3482C196.706 20.8432 196.519 20.2902 195.896 20.2902C195.272 20.2902 195.085 20.8432 195.085 21.3482C195.085 21.8552 195.272 22.4082 195.896 22.4082ZM195.896 19.2772C197.292 19.2772 198.014 20.1822 198.014 21.3472C198.014 22.5152 197.292 23.4212 195.896 23.4212C194.498 23.4212 193.777 22.5152 193.777 21.3482C193.777 20.1822 194.498 19.2772 195.896 19.2772V19.2772ZM198.724 19.4152H200.031V19.8372C200.332 19.5372 200.789 19.2772 201.254 19.2772C202.059 19.2772 202.495 19.7292 202.495 20.7892C202.495 21.5792 202.487 22.4312 202.479 23.2832H201.173C201.181 22.5382 201.189 21.7862 201.189 20.9882C201.189 20.6742 201.105 20.4282 200.714 20.4282C200.503 20.4282 200.204 20.6122 200.031 20.7812L200.024 23.2832H198.693L198.724 19.4152V19.4152ZM183.053 11.4472L184.704 5.88518H186.177L184.527 11.4472H183.053ZM182.394 5.88618L181.069 8.24418C180.732 8.86218 180.535 9.17418 180.44 9.56418H180.42C180.443 9.06918 180.375 8.46218 180.369 8.11818L180.223 5.88618H177.744L177.717 6.03618C178.354 6.03618 178.732 6.36318 178.836 7.03218L179.319 11.4472H180.846L183.932 5.88718H182.395L182.394 5.88618ZM193.682 8.16618C193.665 7.75618 193.653 7.19718 193.679 6.85918H193.658C193.568 7.13618 193.182 7.96418 193.013 8.37318L192.465 9.59118L193.757 9.59218L193.682 8.16618V8.16618ZM193.851 11.4472L193.811 10.6202H191.971L191.595 11.4472H189.995L192.895 5.89518H194.859L195.35 11.4472H193.851V11.4472ZM187.724 11.6062C186.939 11.6145 186.168 11.3928 185.502 10.9672L186.202 9.87318C186.645 10.1262 186.992 10.4182 187.791 10.4182C188.048 10.4182 188.296 10.3492 188.437 10.1002C188.642 9.73918 188.39 9.54318 187.814 9.21018L187.53 9.02218C186.677 8.42618 186.308 7.86118 186.709 6.87318C186.967 6.24118 187.644 5.76318 188.762 5.76318C189.534 5.76318 190.256 6.10318 190.678 6.43618L189.87 7.40318C189.459 7.06418 189.119 6.89218 188.728 6.89218C188.418 6.89218 188.182 7.01418 188.1 7.17918C187.947 7.49018 188.15 7.70218 188.599 7.98618L188.936 8.20618C189.973 8.87418 190.219 9.57318 189.958 10.2282C189.512 11.3542 188.638 11.6062 187.724 11.6062Z" fill="white"/>
<path d="M40.093 26.83C40.093 27.4724 39.8433 28.0884 39.3988 28.5426C38.9543 28.9968 38.3514 29.252 37.7227 29.252H2.37033C1.74168 29.252 1.13878 28.9968 0.694254 28.5426C0.249731 28.0884 2.02055e-07 27.4724 2.02055e-07 26.83V3.42202C-0.000128352 3.10388 0.0610872 2.78882 0.18015 2.49486C0.299213 2.20089 0.47379 1.93377 0.693908 1.70876C0.914026 1.48375 1.17537 1.30526 1.46302 1.18348C1.75066 1.0617 2.05897 0.999023 2.37033 0.999023H37.7227C38.3514 0.999023 38.9543 1.2542 39.3988 1.70841C39.8433 2.16262 40.093 2.77867 40.093 3.42102V26.831V26.83V26.83Z" fill="white"/>
<path d="M10.5371 15.207L9.74734 11.337C9.61326 10.804 9.22082 10.645 8.72953 10.624H5.1114L5.0791 10.8C7.89766 11.498 9.76202 13.183 10.5371 15.206" fill="#F79F1A"/>
<path d="M18.9227 10.7019H16.5837L15.1245 19.4589H17.4586L18.9227 10.7019V10.7019ZM11.9624 19.4499L15.6403 10.7079H13.1643L10.8781 16.6799L10.6334 15.7789C10.1852 14.6939 8.90411 13.1329 7.39893 12.1489L9.49034 19.4529L11.9624 19.4499V19.4499ZM25.5914 16.5959C25.6002 15.6019 24.9758 14.8429 23.6291 14.2169C22.811 13.8119 22.3118 13.5419 22.3187 13.1319C22.3187 12.7699 22.7405 12.3799 23.6556 12.3799C24.2545 12.3659 24.8495 12.4799 25.4035 12.7149L25.6148 12.8149L25.9319 10.9169C25.2602 10.6706 24.5513 10.5471 23.8376 10.5519C21.5299 10.5519 19.9043 11.7389 19.8896 13.4419C19.875 14.6999 21.0513 15.4019 21.937 15.8219C22.8462 16.2469 23.1515 16.5219 23.1447 16.9049C23.1398 17.4919 22.4205 17.7589 21.7491 17.7589C20.8135 17.7589 20.3183 17.6269 19.5491 17.2999L19.2506 17.1599L18.9227 19.1219C19.4678 19.3659 20.4759 19.5779 21.523 19.5869C23.9785 19.5869 25.5737 18.4149 25.5914 16.5969V16.5959V16.5959ZM29.9699 13.9049C29.9582 13.9289 30.1637 13.3989 30.2802 13.0689L30.4387 13.8249L30.9789 16.3539H29.0412C29.234 15.8499 29.9709 13.9039 29.9709 13.9039L29.9699 13.9049V13.9049ZM28.3688 18.1459L31.3596 18.1489C31.4301 18.4539 31.6444 19.4619 31.6444 19.4619H33.8122L31.9204 10.7099H30.1167C29.5559 10.7099 29.14 10.8659 28.8934 11.4349L25.424 19.4609H27.8785C27.8785 19.4609 28.2778 18.3809 28.3688 18.1449V18.1459Z" fill="#005A9B"/>
<path d="M37.571 1H2.36152C2.05129 0.999869 1.74406 1.06223 1.45743 1.18351C1.17079 1.30479 0.910368 1.48261 0.691042 1.70681C0.471716 1.93101 0.297792 2.19719 0.179218 2.49012C0.0606434 2.78306 -0.000256461 3.097 8.11741e-07 3.414V5.917H39.9325V3.413C39.9327 3.09608 39.8717 2.78225 39.753 2.48943C39.6344 2.19661 39.4605 1.93055 39.2411 1.70646C39.0218 1.48236 38.7615 1.30463 38.4749 1.18341C38.1883 1.06219 37.8812 0.999869 37.571 1" fill="#005A9B"/>
<path d="M37.571 29.1401H2.36152C2.05145 29.1402 1.74439 29.0779 1.45788 28.9568C1.17137 28.8356 0.911034 28.658 0.691733 28.434C0.472433 28.21 0.298469 27.9441 0.179779 27.6514C0.0610897 27.3587 -2.66489e-08 27.0449 0 26.7281L0 24.2251H39.9325V26.7281C39.9325 27.0449 39.8714 27.3587 39.7528 27.6514C39.6341 27.9441 39.4601 28.21 39.2408 28.434C39.0215 28.658 38.7612 28.8356 38.4747 28.9568C38.1881 29.0779 37.8811 29.1402 37.571 29.1401" fill="#F79F1A"/>
<mask id="mask0" mask-type="alpha" maskUnits="userSpaceOnUse" x="279" y="0" width="41" height="29">
<path d="M279.409 0H319.535V28.2H279.409V0Z" fill="white"/>
</mask>
<g mask="url(#mask0)">
<path fill-rule="evenodd" clip-rule="evenodd" d="M319.535 25.8C319.535 27.1 318.458 28.2 317.186 28.2H281.758C280.486 28.2 279.409 27.1 279.409 25.8V2.4C279.409 1.1 280.486 0 281.758 0H317.088C318.36 0 319.437 1.1 319.437 2.4L319.535 25.8V25.8Z" fill="#005A9B"/>
</g>
<path fill-rule="evenodd" clip-rule="evenodd" d="M319.535 25.8C319.535 27.1 318.458 28.2 317.186 28.2H281.758C280.486 28.2 279.409 27.1 279.409 25.8V2.4C279.409 1.1 280.486 0 281.758 0H317.088C318.36 0 319.437 1.1 319.437 2.4L319.535 25.8V25.8Z" fill="#EFEFEF"/>
<path fill-rule="evenodd" clip-rule="evenodd" d="M286.456 9.74805H283.813C283.617 9.74805 283.52 9.84805 283.422 10.048L282.345 17.048C282.345 17.148 282.443 17.348 282.541 17.348H283.813C284.009 17.348 284.107 17.248 284.205 17.048L284.498 15.148C284.498 14.948 284.694 14.848 284.89 14.848H285.771C287.532 14.848 288.511 13.948 288.804 12.248C288.902 11.448 288.804 10.948 288.511 10.448C288.021 10.048 287.336 9.74805 286.456 9.74805V9.74805ZM286.749 12.348C286.651 13.348 285.868 13.348 285.183 13.348H284.792L285.085 11.548C285.085 11.448 285.183 11.348 285.281 11.348H285.477C285.966 11.348 286.456 11.348 286.651 11.648C286.749 11.748 286.847 11.948 286.749 12.348ZM294.383 12.348H293.111C293.013 12.348 292.915 12.448 292.915 12.548L292.817 12.948L292.719 12.848C292.425 12.448 291.838 12.348 291.251 12.348C289.881 12.348 288.609 13.448 288.413 14.948C288.315 15.748 288.511 16.448 288.902 16.948C289.294 17.448 289.881 17.648 290.468 17.648C291.643 17.648 292.23 16.948 292.23 16.948L292.132 17.348C292.132 17.448 292.23 17.648 292.328 17.648H293.502C293.698 17.648 293.796 17.548 293.893 17.348L294.579 12.848C294.676 12.448 294.579 12.348 294.383 12.348V12.348ZM292.621 14.848C292.523 15.548 291.936 16.048 291.153 16.048C290.762 16.048 290.468 15.948 290.272 15.648C290.077 15.448 289.979 15.048 290.077 14.748C290.175 14.048 290.762 13.448 291.545 13.448C291.936 13.448 292.23 13.548 292.425 13.848C292.621 14.148 292.719 14.448 292.621 14.848V14.848ZM301.233 12.348H299.961C299.863 12.348 299.765 12.448 299.668 12.548L297.906 15.248L297.123 12.648C297.123 12.448 296.927 12.348 296.732 12.348H295.459C295.264 12.348 295.166 12.548 295.264 12.648L296.634 16.848L295.264 18.748C295.166 18.948 295.264 19.148 295.459 19.148H296.732C296.829 19.148 296.927 19.048 297.025 18.948L301.331 12.648C301.527 12.548 301.429 12.348 301.233 12.348" fill="#253B80"/>
<path fill-rule="evenodd" clip-rule="evenodd" d="M305.442 9.74805H302.8C302.604 9.74805 302.506 9.84805 302.408 10.048L301.332 17.048C301.332 17.148 301.429 17.348 301.527 17.348H302.897C302.995 17.348 303.093 17.248 303.191 17.148L303.485 15.148C303.485 14.948 303.68 14.848 303.876 14.848H304.757C306.518 14.848 307.497 13.948 307.791 12.248C307.889 11.448 307.791 10.948 307.497 10.448C307.008 10.048 306.323 9.74805 305.442 9.74805V9.74805ZM305.736 12.348C305.638 13.348 304.855 13.348 304.17 13.348H303.778L304.072 11.548C304.072 11.448 304.17 11.348 304.268 11.348H304.463C304.953 11.348 305.442 11.348 305.638 11.648C305.736 11.748 305.833 11.948 305.736 12.348ZM313.467 12.348H312.195C312.097 12.348 311.999 12.448 311.999 12.548L311.901 12.948L311.803 12.848C311.51 12.448 310.922 12.348 310.335 12.348C308.965 12.348 307.693 13.448 307.497 14.948C307.399 15.748 307.595 16.448 307.986 16.948C308.378 17.448 308.965 17.648 309.552 17.648C310.727 17.648 311.314 16.948 311.314 16.948L311.216 17.348C311.216 17.448 311.314 17.648 311.412 17.648H312.586C312.782 17.648 312.88 17.548 312.978 17.348L313.663 12.848C313.663 12.448 313.565 12.348 313.467 12.348ZM311.608 14.848C311.51 15.548 310.922 16.048 310.14 16.048C309.748 16.048 309.454 15.948 309.259 15.648C309.063 15.448 308.965 15.048 309.063 14.748C309.161 14.048 309.748 13.448 310.531 13.448C310.922 13.448 311.216 13.548 311.412 13.848C311.608 14.148 311.705 14.448 311.608 14.848V14.848ZM314.935 9.94805L313.858 17.048C313.858 17.148 313.956 17.348 314.054 17.348H315.131C315.326 17.348 315.424 17.248 315.522 17.048L316.599 10.048C316.599 9.94805 316.501 9.74805 316.403 9.74805H315.131C315.033 9.74805 314.935 9.84805 314.935 9.94805" fill="#179BD7"/>
</svg>
