<?xml version="1.0" encoding="utf-8"?>
<!-- Generator: Adobe Illustrator 25.3.1, SVG Export Plug-In . SVG Version: 6.00 Build 0)  -->
<svg version="1.1" id="Layer_1" xmlns="http://www.w3.org/2000/svg" xmlns:xlink="http://www.w3.org/1999/xlink" x="0px" y="0px"
	 viewBox="0 0 512 512" style="enable-background:new 0 0 512 512;" xml:space="preserve">
<style type="text/css">
	.st0{fill:#AEAEAE;}
</style>
<g>
	<g>
		<g>
			<path class="st0" d="M256,10c135.6,0,246,110.3,246,246c0,135.6-110.3,246-246,246c-23,0-45.8-3.2-67.8-9.5
				c11.5-18.5,19.8-36.4,24-51.8c2.6-9.3,13.3-51.8,16.5-64.5c11.9,18.5,39.1,28.4,59.9,28.4c19.7,0,38.2-4.3,55.1-12.9
				c16.4-8.3,30.9-20.4,42.9-35.9c11.9-15.3,21.1-33.5,27.4-54.1c6.4-20.9,9.6-43.8,9.6-68.1c0-70.4-59.1-143.2-158.1-143.2
				c-40.4,0-83.8,13.9-116.2,37.1c-18.9,13.6-33.9,30-44.4,48.7c-11.8,21-17.7,44.6-17.7,70.2c0,47.6,18.8,82.5,51.5,95.9
				c0.9,0.4,1.8,0.6,2.7,0.8l9.9,1.9l1.7-9.4c0-0.1,0.1-0.3,0.1-0.4c0.9-3.5,2.8-11,4.2-16.4l0.3-1l0.6-2.4c0.9-3.3,1.1-5.3,0.8-7.2
				l-0.2-1.1l-0.4-1c-0.5-1.2-1.3-2.7-4-5.9c-10.7-12.7-16-28.3-16-47.6c0-32.3,12.2-62,34.3-83.5c22.2-21.6,52.7-33.5,86-33.5
				c30.7,0,56.4,8.8,74.3,25.5c17.8,16.5,27.1,39.9,27.1,67.9c0,36.8-8.3,70.4-23.4,94.7c-14.2,22.8-33.2,35.4-53.6,35.4
				c-12.6,0-23.9-5.2-31.1-14.4c-6.9-8.7-9.2-19.9-6.4-31.5c2.7-11.4,6.3-23.1,9.8-34.4l0-0.1c6.2-20.1,12-39,12-53.6
				c0-17.8-9.1-38.6-34.8-38.6c-14,0-26.8,7.2-36,20.3c-8.5,12-13.2,28.1-13.2,45.2c0,20.7,6.3,35.8,7.8,39.3
				c-1.9,8.1-27.2,115.2-31.7,134.4c-3.6,15.4-5.1,33.8-4.4,54.8C66.9,440.6,10,352.8,10,256C10,120.3,120.4,10,256,10 M256,0
				C114.8,0,0,114.8,0,256c0,101.6,60.1,193.6,153.2,234.4l12.5,5.5l-0.6-13.6c-0.8-21.1,0.5-39.4,4.1-54.5
				c4.8-20.1,31.8-134.9,31.8-134.9l0.7-3l-1.3-2.7c-0.1-0.1-7-14.5-7-35.3c0-31.1,17.2-55.5,39.2-55.5c23,0,24.8,21.9,24.8,28.6
				c0,13.1-5.6,31.4-11.6,50.7c-3.6,11.5-7.2,23.4-10,35.1c-3.5,14.6-0.5,28.8,8.3,40c9.1,11.5,23.3,18.2,39,18.2
				c49.6,0,87-60.2,87-140.1c0-62.8-43.8-103.3-111.5-103.3c-74.3,0-130.3,54.6-130.3,127c0,21.8,6,39.5,18.3,54.1
				c2,2.3,2.3,3.1,2.4,3.2c0,0.1,0,0.7-0.6,3l-0.6,2.5c-1.3,5.2-3.4,13.6-4.4,17.3c-0.1,0.3-0.2,0.5-0.2,0.7c-0.2,0-0.4-0.1-0.7-0.2
				c-28.8-11.7-45.3-43.3-45.3-86.6c0-100.7,98.4-146,168.3-146c92.7,0,148.1,67.7,148.1,133.2c0,94.8-51.4,161.1-125,161.1
				c-24.5,0-46.1-13.3-52.9-26.2l-10.4-19.8l-5.5,21.7c-0.1,0.6-14.4,57.1-17.3,67.8c-4.1,14.9-12.4,32.5-23.9,50.7l-6,9.5l10.8,3.2
				c23.5,7,47.9,10.5,72.5,10.5c141.1,0,256-114.8,256-256C511.9,114.8,397.1,0,256,0L256,0z"/>
		</g>
	</g>
</g>
</svg>
