<?xml version="1.0" encoding="utf-8"?>
<!-- Generator: Adobe Illustrator 25.3.1, SVG Export Plug-In . SVG Version: 6.00 Build 0)  -->
<svg version="1.1" id="Layer_1" xmlns="http://www.w3.org/2000/svg" xmlns:xlink="http://www.w3.org/1999/xlink" x="0px" y="0px"
	 viewBox="0 0 512 512" style="enable-background:new 0 0 512 512;" xml:space="preserve">
<style type="text/css">
	.st0{fill:#AEAEAE;}
</style>
<g>
	<path class="st0" d="M256,10c33.2,0,65.4,6.5,95.7,19.3c29.3,12.4,55.6,30.1,78.2,52.7c22.6,22.6,40.3,48.9,52.7,78.2
		c12.8,30.3,19.3,62.5,19.3,95.7s-6.5,65.4-19.3,95.7c-12.4,29.3-30.1,55.6-52.7,78.2c-22.6,22.6-48.9,40.3-78.2,52.7
		C321.4,495.5,289.2,502,256,502s-65.4-6.5-95.7-19.3c-29.3-12.4-55.6-30.1-78.2-52.7c-22.6-22.6-40.3-48.9-52.7-78.2
		C16.5,321.4,10,289.2,10,256s6.5-65.4,19.3-95.7c12.4-29.3,30.1-55.6,52.7-78.2c22.6-22.6,48.9-40.3,78.2-52.7
		C190.6,16.5,222.8,10,256,10 M360.1,149.3c-12.6-11.3-29-17.6-46-17.6c-37.9,0-68.8,30.8-68.8,68.8c0,0.8,0,1.6,0,2.4
		c-18.2-2.3-35.6-7.7-51.9-16.1c-19.3-10-36.1-23.6-49.9-40.5l-9.1-11.2l-7.3,12.5c-6.1,10.5-9.3,22.4-9.3,34.6
		c0,9.9,2.1,19.4,6,28.2l-5.9-3.3l-0.5,16.4c0,0.4,0,0.7,0,1.1c0,17.4,6.6,33.6,17.6,45.9l-1.7-0.3l5.1,16.1
		c6.2,19.4,20.5,34.6,38.5,42.2c-14.5,7-30.5,10.7-47,10.7c-4.3,0-8.7-0.3-12.8-0.7L73.8,333l36.6,23.4c28.6,18.3,61.6,28,95.5,28
		c0,0,0,0,0,0l0,0c27.3,0,52.8-5.4,75.9-16.1c21.2-9.8,40-23.9,55.7-41.7c29-32.8,45.6-76.3,45.6-119.3c0-0.9,0-1.8,0-2.7
		c10.7-8.4,19.9-18.4,27.5-29.7l19.2-28.7l-30.2,13.4c1.7-3.3,3.2-6.8,4.3-10.5l8-25.1l-22.7,13.4
		C380.1,142.7,370.3,146.7,360.1,149.3 M256,0C114.6,0,0,114.6,0,256s114.6,256,256,256s256-114.6,256-256S397.4,0,256,0L256,0z
		 M256.9,213.8c-1-4.3-1.5-8.8-1.5-13.4c0-32.4,26.3-58.8,58.8-58.8c16.9,0,32.2,7.1,42.9,18.6c13.4-2.6,26-7.5,37.3-14.3
		c-4.4,13.7-13.7,25.2-25.8,32.5c11.9-1.4,23.2-4.6,33.7-9.3c-7.9,11.8-17.8,22.1-29.3,30.4c0.1,2.5,0.2,5.1,0.2,7.6
		c0,77.6-59.1,167.2-167.2,167.2h0h0c-33.2,0-64.1-9.7-90.1-26.4c4.6,0.5,9.3,0.8,14,0.8c27.5,0,52.9-9.4,73-25.2
		c-25.7-0.5-47.4-17.5-54.9-40.8c3.6,0.7,7.3,1.1,11,1.1c5.4,0,10.6-0.7,15.5-2.1c-26.9-5.4-47.1-29.1-47.1-57.6c0-0.3,0-0.5,0-0.8
		c7.9,4.4,17,7.1,26.6,7.3c-15.8-10.5-26.1-28.5-26.1-48.9c0-10.8,2.9-20.9,8-29.5C164.7,187.9,208,211.3,256.9,213.8L256.9,213.8z"
		/>
</g>
</svg>
