<svg fill="none" width="20" height="20" viewBox="0 0 32 32" class=" vtex-minicart-2-x-cartIcon" xmlns="http://www.w3.org/2000/svg" xmlns:xlink="http://www.w3.org/1999/xlink">
<use href="#hpa-cart" xlink:href="#hpa-cart">



<g id="hpa-cart">
      <g fill="none" fill-rule="evenodd" stroke-linecap="round" stroke-linejoin="round">
        <g stroke="#ffffff">
          <g>
            <g>
              <path
                d="M8.177 15.15L24.588 15.15 29 4.04 5 4.04M0 0L3.196 0 8 15.15M14 21.715c0 1.395-1.12 2.525-2.5 2.525S9 23.11 9 21.715s1.12-2.525 2.5-2.525 2.5 1.13 2.5 2.525zM25 21.715c0 1.395-1.12 2.525-2.5 2.525S20 23.11 20 21.715s1.12-2.525 2.5-2.525 2.5 1.13 2.5 2.525z"
                transform="translate(-1300 -38) translate(1301 39.39)" />
            </g>
          </g>
        </g>
      </g>
    </g>


</use></svg>
