<?xml version="1.0" encoding="utf-8"?>
<!-- Generator: Adobe Illustrator 23.0.5, SVG Export Plug-In . SVG Version: 6.00 Build 0)  -->
<svg width="25" height="25" version="1.1" id="Livello_1" xmlns="http://www.w3.org/2000/svg" xmlns:xlink="http://www.w3.org/1999/xlink" x="0px" y="0px"
	 viewBox="0 0 20 20" style="enable-background:new 0 0 20 20;" xml:space="preserve">
<style type="text/css">
	.st0{fill:none;stroke:#000000;stroke-linecap:round;stroke-linejoin:round;}
	.st1{fill:none;stroke:#FFFFFF;stroke-width:1.3;stroke-linecap:round;stroke-linejoin:round;}
</style>
<g>
	<g id="hpa-cart">
		<g>
			<g>
				<g>
					<g>
						<path class="st0" d="M5.7,10.3H16l2.8-6.9h-15 M0.6,0.9h2l3,9.5 M9.4,14.4c0,0.9-0.7,1.6-1.6,1.6s-1.6-0.7-1.6-1.6
							c0-0.9,0.7-1.6,1.6-1.6S9.4,13.6,9.4,14.4z M16.3,14.4c0,0.9-0.7,1.6-1.6,1.6s-1.6-0.7-1.6-1.6c0-0.9,0.7-1.6,1.6-1.6
							S16.3,13.6,16.3,14.4z"/>
					</g>
				</g>
			</g>
		</g>
	</g>
	<g>
		<g>
			<g>
				<g>
					<g>
						<path class="st1" d="M5.7,10.3H16l2.8-6.9h-15 M0.6,0.9h2l3,9.5 M9.4,14.4c0,0.9-0.7,1.6-1.6,1.6s-1.6-0.7-1.6-1.6
							c0-0.9,0.7-1.6,1.6-1.6S9.4,13.6,9.4,14.4z M16.3,14.4c0,0.9-0.7,1.6-1.6,1.6s-1.6-0.7-1.6-1.6c0-0.9,0.7-1.6,1.6-1.6
							S16.3,13.6,16.3,14.4z"/>
					</g>
				</g>
			</g>
		</g>
	</g>
</g>
</svg>
