<svg enable-background="new 0 0 598.7 177.1" viewBox="0 0 598.7 177.1" xmlns="http://www.w3.org/2000/svg">
  <g fill="#231f20">
    <path
      d="m162 124.2c1.2.6 2.5.9 3.8.9s2-.5 2-1.2-.7-1.1-2.3-1.7c-2.5-.9-4.1-2.2-4.1-4.4 0-2.6 2.2-4.5 5.9-4.5 1.3 0 2.7.2 3.9.8l-.8 3.1c-1-.5-2.1-.7-3.2-.7-1.2 0-1.8.4-1.8 1.1s.8 1 2.6 1.7c2.6 1 3.8 2.4 3.8 4.4 0 2.5-2 4.7-6.2 4.7-1.5 0-2.9-.3-4.3-.9z">
    </path>
    <path d="m195 116.8h-3.7v-3.3h11.4v3.3h-3.8v11.2h-3.9z"></path>
    <path
      d="m226.7 124.7-.8 3.4h-4.1l4.2-14.5h5.2l4.3 14.5h-4.2l-1-3.4zm3.2-3-.7-2.6c-.2-.8-.5-2-.7-2.9-.2.9-.4 2.1-.6 2.9l-.6 2.6z">
    </path>
    <path d="m259.1 128v-5.9l-4.6-8.7h4.5l1.2 3.3c.4 1 .7 1.8 1 2.7.3-.9.6-1.7 1-2.7l1.2-3.3h4.4l-4.8 8.5v6z"></path>
    <path
      d="m310.6 124.2c1.2.6 2.5.9 3.8.9s2-.5 2-1.2-.6-1.1-2.3-1.7c-2.4-.9-4.1-2.2-4.1-4.4 0-2.6 2.2-4.5 5.9-4.5 1.3 0 2.7.2 3.9.8l-.8 3.1c-1-.5-2.1-.7-3.2-.7-1.2 0-1.8.4-1.8 1.1s.8 1 2.6 1.7c2.6 1 3.8 2.4 3.8 4.4 0 2.5-2 4.7-6.2 4.7-1.5 0-2.9-.3-4.3-.9z">
    </path>
    <path
      d="m344.5 124.7-.8 3.4h-4l4.2-14.5h5.2l4.4 14.5h-4.2l-1-3.4zm3.2-3-.7-2.6c-.2-.8-.5-2-.7-2.9-.2.9-.4 2.1-.6 2.9l-.6 2.6z">
    </path>
    <path d="m373.6 113.5h9.3v3.2h-5.4v2.7h5.1v3.1h-5.1v5.5h-3.9z"></path>
    <path d="m412.8 122.2h-5.2v2.7h5.9v3.2h-9.8v-14.5h9.4v3.2h-5.5v2.3h5.2z"></path>
    <path d="m427.1 130.6c.8-2.1 1.3-4.3 1.7-6.6l3.9-.2c-.7 2.3-1.8 4.5-3 6.6z"></path>
    <path
      d="m5.7 170c1.2.6 2.5.9 3.8.9s2-.5 2-1.2-.7-1.1-2.3-1.7c-2.4-.9-4.1-2.2-4.1-4.4 0-2.6 2.2-4.5 5.9-4.5 1.3 0 2.7.2 3.9.8l-.8 3.1c-1-.5-2.1-.7-3.2-.7-1.2 0-1.8.4-1.8 1.1 0 .6.8 1 2.6 1.7 2.6 1 3.8 2.4 3.8 4.4 0 2.5-2 4.7-6.2 4.7-1.5 0-2.9-.3-4.3-.9z">
    </path>
    <path d="m45 168h-5.2v2.7h5.9v3.2h-9.8v-14.5h9.4v3.2h-5.5v2.3h5.2z"></path>
    <path
      d="m66.2 173.9v-14.5h4.6l2.3 4.5c.9 1.6 1.6 3.4 2.3 5.1h.1c-.2-2-.3-4.1-.3-6.1v-3.4h3.6v14.5h-4.1l-2.5-4.9c-.8-1.5-1.7-3.5-2.4-5.3h-.1c.1 2 .1 4.2.1 6.5v3.6z">
    </path>
    <path
      d="m99.9 170c1.2.6 2.5.9 3.8.9s2-.5 2-1.2-.7-1.1-2.3-1.7c-2.4-.9-4.1-2.2-4.1-4.4 0-2.6 2.2-4.5 5.9-4.5 1.3 0 2.7.2 3.9.8l-.8 3.1c-1-.5-2.1-.7-3.2-.7-1.2 0-1.8.4-1.8 1.1 0 .6.8 1 2.6 1.7 2.6 1 3.8 2.4 3.8 4.4 0 2.5-2 4.7-6.2 4.7-1.5 0-2.9-.3-4.3-.9z">
    </path>
    <path d="m134.1 159.3v14.5h-3.9v-14.5z"></path>
    <path
      d="m155.1 173.9v-14.5h4.6l2.3 4.5c.9 1.6 1.6 3.4 2.3 5.1-.2-2-.3-4.1-.3-6.1v-3.4h3.6v14.5h-4.1l-2.5-5c-.9-1.7-1.7-3.5-2.4-5.3h-.1c.1 2 .1 4.2.1 6.5v3.6z">
    </path>
    <path
      d="m201.2 173.2c-1.6.5-3.3.8-5 .8-2.8 0-4.8-.7-6.1-2-1.4-1.4-2.1-3.3-2.1-5.2 0-5.1 3.8-7.6 8.5-7.6 1.4-.1 2.9.2 4.2.7l-.8 3.1c-1.1-.5-2.3-.7-3.5-.7-2.4 0-4.4 1.2-4.4 4.2-.2 2.2 1.4 4.1 3.6 4.3h.5c.4 0 .8 0 1.2-.1v-2.5h-2v-3h5.7z">
    </path>
    <path d="m247.4 162.6h-3.7v-3.3h11.4v3.3h-3.8v11.3h-3.9z"></path>
    <path d="m279.1 159.3v5.4h4.7v-5.4h3.9v14.5h-3.9v-5.8h-4.7v5.8h-3.9v-14.5z"></path>
    <path d="m317.9 168h-5.2v2.7h5.9v3.2h-9.8v-14.5h9.4v3.2h-5.5v2.3h5.2z"></path>
    <path
      d="m361.6 159.5c1.5-.2 3.1-.3 4.6-.3 2.8 0 4.5.4 6 1.4 1.8 1.3 2.8 3.4 2.7 5.6.1 2.3-.8 4.5-2.5 6-1.6 1.2-4 1.8-6.8 1.8-1.3 0-2.6-.1-3.9-.2zm3.9 11.5h.8c2.5 0 4.4-1.4 4.4-4.6 0-2.8-1.7-4.2-4-4.2-.4 0-.8 0-1.2.1z">
    </path>
    <path d="m399.2 159.3v14.5h-3.9v-14.5z"></path>
    <path
      d="m420.5 170c1.2.6 2.5.9 3.8.9s2-.5 2-1.2-.7-1.1-2.3-1.7c-2.5-.9-4.1-2.2-4.1-4.4 0-2.6 2.2-4.5 5.9-4.5 1.3 0 2.7.2 3.9.8l-.8 3.1c-1-.5-2.1-.7-3.2-.7-1.2 0-1.8.4-1.8 1.1 0 .6.8 1 2.6 1.7 2.6 1 3.8 2.4 3.8 4.4 0 2.5-2 4.7-6.2 4.7-1.5 0-2.9-.3-4.3-.9z">
    </path>
    <path d="m453.5 162.6h-3.7v-3.3h11.4v3.3h-3.8v11.3h-3.9z"></path>
    <path
      d="m485.1 170.5-.8 3.4h-4.1l4.2-14.5h5.2l4.3 14.5h-4.2l-.9-3.4zm3.2-2.9-.7-2.6c-.2-.8-.5-2-.7-2.9-.2.9-.4 2.1-.6 2.9l-.6 2.6z">
    </path>
    <path
      d="m514.2 173.9v-14.5h4.6l2.3 4.5c.9 1.6 1.6 3.4 2.3 5.1h.1c-.2-2-.3-4.1-.3-6.1v-3.4h3.6v14.5h-4.1l-2.5-4.9c-.8-1.5-1.7-3.5-2.4-5.3h-.1c.1 2 .1 4.2.1 6.5v3.6z">
    </path>
    <path
      d="m558.6 173.5c-1.2.4-2.4.6-3.7.6-5.4 0-7.8-3.4-7.8-7.3 0-5.1 3.8-7.7 8.1-7.7 1.2-.1 2.5.2 3.6.7l-.8 3.1c-.9-.4-1.8-.5-2.7-.5-2.4 0-4.3 2-4.3 4.3 0 2.4 2 4.3 4.3 4.3.9 0 1.8-.1 2.6-.4z">
    </path>
    <path d="m588.2 168h-5.2v2.7h5.9v3.2h-9.9v-14.5h9.4v3.2h-5.5v2.3h5.2z"></path>
    <path d="m214 11.5-14.4 52.4h-8.3l-10.1-38-10.3 38h-8.3l-14.3-52.4h8.3l10.2 38 10.3-38h8.2l10.4 38 10.2-38z"></path>
    <path
      d="m217.8 11.6 8.3-.7v12.8l-.1 4.8h.3c3.4-1.4 7-2.1 10.7-2.1 6.7 0 11.2 3 11.2 14.5v22.9h-8.3v-22.2c0-6.9-3.4-7.8-7.2-7.8-2.2.1-4.4.4-6.5 1.1v28.9h-8.3z">
    </path>
    <path d="m259.4 12.2c4.3 0 5 2.5 5 5.3s-.9 5.3-5 5.3-4.9-2.6-4.9-5.3.8-5.3 4.9-5.3zm-4.1 14.9h8.3v36.8h-8.3z">
    </path>
    <path
      d="m270.6 27h5.6l1.1 3h.5c2.8-2.4 6.4-3.6 10.1-3.5.6 0 1.2 0 1.7.1v8.1c-1.5-.3-3.1-.4-4.7-.4-2.2 0-4.3.5-6.2 1.5v28.1h-8.3v-36.9z">
    </path>
    <path d="m293.2 63.9v-52.3l8.3-.7v52.9h-8.3z"></path>
    <path
      d="m360.2 26.5c11.7 0 16.2 6.9 16.2 19.2 0 11.5-4.2 19-16.4 19s-16.4-7.5-16.4-19c0-12.3 4.9-19.2 16.6-19.2zm7.8 19.1c0-7-1.1-12.7-7.7-12.7s-8.3 5.5-8.3 12.7c0 6.7 1.3 12.5 8 12.5s8-5.5 8-12.5z">
    </path>
    <path
      d="m397.2 26.5c11.7 0 16.2 6.9 16.2 19.2 0 11.5-4.2 19-16.4 19s-16.4-7.5-16.4-19c0-12.3 4.9-19.2 16.6-19.2zm7.8 19.1c0-7-1.1-12.7-7.7-12.7s-8.3 5.5-8.3 12.7c0 6.7 1.4 12.5 8 12.5 6.5 0 8-5.5 8-12.5z">
    </path>
    <path d="m418.8 63.9v-52.3l8.3-.7v52.9h-8.3z"></path>
    <path
      d="m308.2 27h6.2l.7 2.7c2.5-1.4 7.1-3.2 11.2-3.2 7.5 0 13 5.5 13 18.6 0 12.9-5.8 19.3-15.4 19.3-2.5 0-5-.3-7.4-.8v16.9l-8.3.9zm8.3 30.1c2.3.1 3.6.2 6 .2 5.1 0 8.5-2.7 8.5-13.4 0-7.4-3-9.3-8.4-9.3-2.1 0-4.1.4-6.1 1.1z">
    </path>
  </g>
  <path
    d="m349.1 4.4c-6.2-7.2-25.8-.9-47.7 14.3v3.8c19.3-13.7 36.2-20 41.1-14.4 6.1 7-9 30.1-33.7 51.4s-49.7 32.9-55.7 25.8c-3.2-3.6-.6-11.6 6.1-21.5h-3.9c-8.2 12.3-11.3 22.6-7.1 27.5 7.7 8.9 36.6-3.3 64.4-27.3 27.8-23.9 44.2-50.7 36.5-59.6z"
    fill="#eeb111"></path>
</svg>
