<svg id="Livello_1" data-name="Livello 1" xmlns="http://www.w3.org/2000/svg" xmlns:xlink="http://www.w3.org/1999/xlink" viewBox="0 0 317.54 28.62"><defs><mask id="mask" x="277.41" y="0.16" width="40.13" height="28.2" maskUnits="userSpaceOnUse"><g transform="translate(0 -0.84)"><g id="mask0"><path d="M277.41,1h40.13V29.2H277.41Z" fill="#fff"/></g></g></mask></defs><title>payments-methods</title><path d="M150.86,27a2.47,2.47,0,0,1-.69,1.71,2.36,2.36,0,0,1-1.68.71H113.14a2.34,2.34,0,0,1-1.67-.71,2.44,2.44,0,0,1-.7-1.71V3.58a2.44,2.44,0,0,1,.18-.93,2.58,2.58,0,0,1,.52-.79,2.45,2.45,0,0,1,.76-.52,2.39,2.39,0,0,1,.91-.19h35.35a2.36,2.36,0,0,1,1.68.71,2.48,2.48,0,0,1,.69,1.72V27Z" transform="translate(0 -0.84)" fill="#fff" stroke="#000" stroke-miterlimit="10" stroke-width="0.1"/><path d="M206.66,26.83a2.46,2.46,0,0,1-.69,1.71,2.34,2.34,0,0,1-1.68.71H168.94a2.34,2.34,0,0,1-1.68-.71,2.46,2.46,0,0,1-.69-1.71V3.42a2.39,2.39,0,0,1,.18-.92,2.34,2.34,0,0,1,.51-.79,2.41,2.41,0,0,1,.77-.53,2.38,2.38,0,0,1,.91-.18h35.35a2.38,2.38,0,0,1,1.68.71,2.46,2.46,0,0,1,.69,1.71V26.83Z" transform="translate(0 -0.84)" fill="#306fc5"/><path d="M171.29,10.24l.58,1.5h-1.18Zm-.67-1-1.8,4.27H170l.33-.85h1.93l.33.85h1.2L172,9.25Zm3.28,4.27V9.25h1.67l1,2.76.94-2.76h1.66v4.27h-1V10.37L177,13.52h-.92L175,10.37v3.15Zm5.95,0V9.25h3.42v.95h-2.36v.73h2.3v.91h-2.3v.76h2.36v.92Zm5.07-3.32h1.19a.49.49,0,0,1,.5.45.47.47,0,0,1-.48.45h-1.21v-.9Zm-1-.95v4.27h1V12h.44l1.25,1.51h1.28L186.51,12a1.27,1.27,0,0,0,.83-.43,1.29,1.29,0,0,0,.32-.88,1.37,1.37,0,0,0-1.46-1.39Z" transform="translate(0 -0.84)" fill="#fff"/><path d="M188.09,13.52h1.07V9.25h-1.07Zm3.6,0h-.23c-1.11,0-1.79-.89-1.79-2.12a1.94,1.94,0,0,1,2.08-2.15h1.15v1h-1.2a1,1,0,0,0-1,1.15,1,1,0,0,0,1.13,1.18h.27l-.44.93Zm2.94-3.28.59,1.5H194l.59-1.5Zm-.66-1-1.8,4.27h1.17l.33-.85h1.93l.33.85h1.2l-1.8-4.27Zm3.28,4.27V9.25h1.33l1.7,2.68V9.25h1.05v4.27H200l-1.74-2.75v2.75ZM176.44,21V16.73h3.41v1H177.5v.73h2.3v.9h-2.3v.76h2.35V21Zm16.73,0V16.73h3.41v1h-2.36v.73h2.29v.9h-2.29v.76h2.36V21ZM180,21l1.66-2.12-1.71-2.16h1.32l1,1.34,1-1.34h1.27l-1.68,2.14L184.54,21h-1.31l-1-1.32-1,1.32Zm5.75-3.31h1.16a.48.48,0,0,1,.52.49.48.48,0,0,1-.52.49h-1.16v-1Zm-1.07-1V21h1.07V19.66h1.11a1.46,1.46,0,0,0,1.63-1.49,1.39,1.39,0,0,0-1.5-1.44Zm5.31,1h1.2a.45.45,0,1,1,0,.9H190v-.9Zm-1-1V21h1V19.49h.44L191.68,21H193l-1.38-1.58a1.25,1.25,0,0,0,.82-.43,1.3,1.3,0,0,0,.33-.88,1.37,1.37,0,0,0-1.46-1.39ZM197.06,21v-.93h2.1c.31,0,.44-.17.44-.36s-.13-.36-.44-.36h-.95a1.19,1.19,0,0,1-1.28-1.28c0-.69.42-1.35,1.64-1.35h2l-.44,1h-1.76c-.34,0-.44.18-.44.35a.37.37,0,0,0,.38.38h1a1.16,1.16,0,0,1,1.31,1.22A1.27,1.27,0,0,1,199.29,21Zm3.84,0v-.93h2c.31,0,.44-.17.44-.36s-.13-.36-.44-.36h-.86a1.19,1.19,0,0,1-1.28-1.28c0-.69.42-1.35,1.64-1.35h2l-.44,1h-1.72c-.34,0-.44.18-.44.35a.37.37,0,0,0,.38.38h.91a1.16,1.16,0,0,1,1.31,1.22A1.27,1.27,0,0,1,203,21Z" transform="translate(0 -0.84)" fill="#fff"/><path d="M95.88,26.72a2.42,2.42,0,0,1-.7,1.71,2.34,2.34,0,0,1-1.67.71H58.15a2.36,2.36,0,0,1-1.67-.71,2.42,2.42,0,0,1-.7-1.71V3.31A2.7,2.7,0,0,1,56,2.38a2.42,2.42,0,0,1,.52-.78,2.26,2.26,0,0,1,.77-.53,2.3,2.3,0,0,1,.9-.18H93.51a2.3,2.3,0,0,1,1.67.71,2.42,2.42,0,0,1,.7,1.71V26.72Z" transform="translate(0 -0.84)" fill="#fff" stroke="#000" stroke-miterlimit="10" stroke-width="0.1"/><path d="M72.64,15.07a8.46,8.46,0,0,1,.82-3.64,8.29,8.29,0,0,1,2.29-2.92,8.07,8.07,0,0,0-8.64-1,8.29,8.29,0,0,0-3.37,3.09,8.51,8.51,0,0,0,0,8.88,8.29,8.29,0,0,0,3.37,3.09,8.06,8.06,0,0,0,8.64-1,8.29,8.29,0,0,1-2.29-2.92,8.46,8.46,0,0,1-.82-3.64" transform="translate(0 -0.84)" fill="#e20d17"/><path d="M72.64,15.07a8.46,8.46,0,0,0,.82,3.64,8.29,8.29,0,0,0,2.29,2.92A8.29,8.29,0,0,0,78,18.71a8.51,8.51,0,0,0,0-7.29,8.35,8.35,0,0,0-2.29-2.91,8.35,8.35,0,0,0-2.29,2.91,8.54,8.54,0,0,0-.82,3.65" transform="translate(0 -0.84)" fill="#ea610a"/><path d="M80.83,6.71a8,8,0,0,0-5.08,1.8A8.29,8.29,0,0,1,78,11.43a8.49,8.49,0,0,1,0,7.28,8.29,8.29,0,0,1-2.29,2.92,8,8,0,0,0,5.08,1.8A8.11,8.11,0,0,0,86.62,21a8.51,8.51,0,0,0,0-11.83,8.14,8.14,0,0,0-5.79-2.44" transform="translate(0 -0.84)" fill="#f59e00"/><path d="M262.45,26.83a2.42,2.42,0,0,1-.7,1.71,2.32,2.32,0,0,1-1.68.71H224.72a2.3,2.3,0,0,1-1.67-.71,2.42,2.42,0,0,1-.7-1.71V3.42a2.48,2.48,0,0,1,.18-.93,2.48,2.48,0,0,1,1.29-1.31,2.3,2.3,0,0,1,.9-.18h35.35a2.32,2.32,0,0,1,1.68.71,2.42,2.42,0,0,1,.7,1.71V26.83Z" transform="translate(0 -0.84)" fill="#005a9b"/><path d="M234.18,16.62A25.54,25.54,0,0,1,250.41,15l.08-1.84a28,28,0,0,0-16.31,3.32Z" transform="translate(0 -0.84)" fill="#faa929"/><path d="M227.3,18h3.59v1.11h-2.23v1h2.22v1.06h-2.23v1h2.2v1.1H227.3V18Zm4.49-.44h1.31v5.75H231.8Zm4.85,3.34c0-.4-.19-.76-.63-.76a.9.9,0,0,0-.81.76Zm1,2a2.76,2.76,0,0,1-1.72.57,1.89,1.89,0,0,1-2-2,2.08,2.08,0,0,1,2-2.15c1.45,0,1.9,1,1.9,2.37h-2.62a.8.8,0,0,0,.91.8,1.62,1.62,0,0,0,1.06-.38Zm4.17.17a2.91,2.91,0,0,1-1.39.4,1.89,1.89,0,0,1-2.06-2,2,2,0,0,1,2.15-2.16,2.63,2.63,0,0,1,1.28.33l-.42.88a1.66,1.66,0,0,0-.62-.15,1,1,0,0,0-1.08,1,1,1,0,0,0,1,1,1.6,1.6,0,0,0,.71-.22l.46.88Zm.49-3.6h.59V18.1h1.26l0,1.32h1.08l0,1h-1.08c0,.54,0,1.11,0,1.44s.09.5.38.5a1,1,0,0,0,.48-.19l.29.91a2.59,2.59,0,0,1-1.3.38c-1.06,0-1.11-.68-1.11-1.57,0-.48,0-1,0-1.47h-.56l0-1Zm3.56,0h1.3V20h0a1.07,1.07,0,0,1,1-.65,2.09,2.09,0,0,1,.43,0l-.18,1.32a1.39,1.39,0,0,0-.46-.07.9.9,0,0,0-.77.45l0,2.23h-1.31l0-3.86Zm5.08,3c.62,0,.81-.55.81-1.06s-.19-1.06-.81-1.06-.81.55-.81,1.06S250.27,22.41,250.9,22.41Zm0-3.13A2,2,0,0,1,253,21.35a2.12,2.12,0,0,1-4.23,0,2,2,0,0,1,2.12-2.07Zm2.82.14H255v.42a1.83,1.83,0,0,1,1.22-.56c.81,0,1.24.45,1.24,1.51,0,.79,0,1.64,0,2.49h-1.31c0-.74,0-1.49,0-2.29,0-.32-.09-.56-.48-.56a1.18,1.18,0,0,0-.68.35v2.5h-1.33l0-3.86Zm-15.67-8,1.65-5.56h1.48l-1.65,5.56Zm-.66-5.56-1.32,2.35a5.94,5.94,0,0,0-.63,1.32h0c0-.49,0-1.1,0-1.44l-.15-2.23h-2.48l0,.15a1,1,0,0,1,1.12,1l.48,4.42h1.53l3.08-5.56h-1.54Zm11.29,2.28a11.43,11.43,0,0,1,0-1.31h0c-.09.28-.48,1.1-.65,1.51l-.55,1.22h1.3l-.08-1.42Zm.17,3.28,0-.83H247l-.37.83H245L247.9,5.9h2l.49,5.55Zm-6.13.16A4.18,4.18,0,0,1,240.5,11l.7-1.1a2.66,2.66,0,0,0,1.59.55.68.68,0,0,0,.65-.32c.2-.36-.05-.56-.63-.89L242.53,9c-.85-.59-1.22-1.16-.82-2.15a2,2,0,0,1,2-1.11,3.23,3.23,0,0,1,1.92.68l-.81,1a1.76,1.76,0,0,0-1.14-.51.67.67,0,0,0-.63.29c-.15.31.05.52.5.81l.34.22c1,.66,1.28,1.36,1,2A2.14,2.14,0,0,1,242.72,11.61Z" transform="translate(0 -0.84)" fill="#fff"/><path d="M40.09,26.83a2.46,2.46,0,0,1-.69,1.71,2.34,2.34,0,0,1-1.68.71H2.37a2.34,2.34,0,0,1-1.68-.71A2.46,2.46,0,0,1,0,26.83V3.42a2.48,2.48,0,0,1,.18-.93,2.4,2.4,0,0,1,.51-.78,2.52,2.52,0,0,1,.77-.53A2.38,2.38,0,0,1,2.37,1H37.72a2.34,2.34,0,0,1,1.68.71,2.46,2.46,0,0,1,.69,1.71V26.83Z" transform="translate(0 -0.84)" fill="#fff"/><path d="M10.54,15.21l-.79-3.87a1,1,0,0,0-1-.72H5.11l0,.18a7.48,7.48,0,0,1,5.46,4.41" transform="translate(0 -0.84)" fill="#f79f1a"/><path d="M18.92,10.7H16.58l-1.46,8.76h2.34l1.46-8.76Zm-7,8.75,3.68-8.74H13.16l-2.28,6-.25-.9A9.18,9.18,0,0,0,7.4,12.15l2.09,7.3ZM25.59,16.6c0-1-.61-1.76-2-2.38-.82-.41-1.32-.68-1.31-1.09s.42-.75,1.34-.75a4.34,4.34,0,0,1,1.74.33l.21.1.32-1.89a6,6,0,0,0-2.09-.37c-2.31,0-3.94,1.19-3.95,2.89,0,1.26,1.16,2,2.05,2.38s1.21.7,1.2,1.08c0,.59-.72.86-1.39.86a4.77,4.77,0,0,1-2.2-.46l-.3-.14-.33,2a7.15,7.15,0,0,0,2.6.47c2.46,0,4.05-1.18,4.07-3ZM30,13.9l.31-.83.16.75L31,16.35H29L30,13.9Zm-1.6,4.25h3c.07.3.28,1.31.28,1.31h2.17l-1.89-8.75h-1.8a1.18,1.18,0,0,0-1.23.72l-3.47,8h2.46l.49-1.32Z" transform="translate(0 -0.84)" fill="#005a9b"/><path d="M37.57,1H2.36a2.3,2.3,0,0,0-.9.18,2.26,2.26,0,0,0-.77.53,2.4,2.4,0,0,0-.51.78A2.43,2.43,0,0,0,0,3.41V5.92H39.93V3.41a2.43,2.43,0,0,0-.18-.92,2.4,2.4,0,0,0-.51-.78,2.26,2.26,0,0,0-.77-.53,2.3,2.3,0,0,0-.9-.18" transform="translate(0 -0.84)" fill="#005a9b"/><path d="M37.57,29.14H2.36a2.3,2.3,0,0,1-.9-.18,2.26,2.26,0,0,1-.77-.53,2.4,2.4,0,0,1-.51-.78A2.43,2.43,0,0,1,0,26.73v-2.5H39.93v2.5a2.43,2.43,0,0,1-.18.92,2.4,2.4,0,0,1-.51.78,2.26,2.26,0,0,1-.77.53,2.3,2.3,0,0,1-.9.18" transform="translate(0 -0.84)" fill="#f79f1a"/><g mask="url(#mask)"><path d="M317.54,26.8a2.41,2.41,0,0,1-2.35,2.4H279.76a2.41,2.41,0,0,1-2.35-2.4V3.4A2.41,2.41,0,0,1,279.76,1h35.33a2.41,2.41,0,0,1,2.35,2.4l.1,23.4Z" transform="translate(0 -0.84)" fill="#005a9b" fill-rule="evenodd"/></g><path d="M317.54,26.8a2.41,2.41,0,0,1-2.35,2.4H279.76a2.41,2.41,0,0,1-2.35-2.4V3.4A2.41,2.41,0,0,1,279.76,1h35.33a2.41,2.41,0,0,1,2.35,2.4l.1,23.4Z" transform="translate(0 -0.84)" fill="#efefef" fill-rule="evenodd"/><path d="M284.46,10.75h-2.65c-.19,0-.29.1-.39.3l-1.07,7c0,.1.09.3.19.3h1.27c.2,0,.3-.1.39-.3l.3-1.9c0-.2.19-.3.39-.3h.88a2.79,2.79,0,0,0,3-2.6,2.62,2.62,0,0,0-.29-1.8,3.17,3.17,0,0,0-2.05-.7Zm.29,2.6c-.1,1-.88,1-1.57,1h-.39l.29-1.8a.22.22,0,0,1,.2-.2h.2c.49,0,1,0,1.17.3C284.75,12.75,284.85,13,284.75,13.35Zm7.63,0h-1.27a.21.21,0,0,0-.19.2l-.1.4-.1-.1a1.78,1.78,0,0,0-1.47-.5,3,3,0,0,0-2.84,2.6,2.72,2.72,0,0,0,.49,2,1.93,1.93,0,0,0,1.57.7,2.37,2.37,0,0,0,1.76-.7l-.1.4c0,.1.1.3.2.3h1.17c.2,0,.3-.1.39-.3l.69-4.5c.1-.4,0-.5-.2-.5Zm-1.76,2.5a1.41,1.41,0,0,1-1.47,1.2,1,1,0,0,1-.88-.4,1,1,0,0,1-.19-.9,1.48,1.48,0,0,1,1.47-1.3.92.92,0,0,1,.87.4,1.16,1.16,0,0,1,.2,1Zm8.61-2.5H298c-.1,0-.19.1-.29.2l-1.76,2.7-.79-2.6c0-.2-.19-.3-.39-.3h-1.27c-.2,0-.29.2-.2.3l1.37,4.2-1.37,1.9c-.09.2,0,.4.2.4h1.27c.1,0,.2-.1.29-.2l4.31-6.3c.2-.1.1-.3-.1-.3" transform="translate(0 -0.84)" fill="#253b80" fill-rule="evenodd"/><path d="M303.44,10.75H300.8c-.2,0-.29.1-.39.3l-1.08,7c0,.1.1.3.2.3h1.37c.09,0,.19-.1.29-.2l.29-2c0-.2.2-.3.4-.3h.88a2.79,2.79,0,0,0,3-2.6,2.62,2.62,0,0,0-.29-1.8,3.2,3.2,0,0,0-2.06-.7Zm.3,2.6c-.1,1-.88,1-1.57,1h-.39l.29-1.8a.22.22,0,0,1,.2-.2h.19c.49,0,1,0,1.18.3C303.74,12.75,303.83,13,303.74,13.35Zm7.73,0H310.2a.22.22,0,0,0-.2.2l-.1.4-.1-.1a1.77,1.77,0,0,0-1.47-.5A2.94,2.94,0,0,0,305.5,16a2.68,2.68,0,0,0,.49,2,1.91,1.91,0,0,0,1.56.7,2.34,2.34,0,0,0,1.76-.7l-.09.4c0,.1.09.3.19.3h1.18c.19,0,.29-.1.39-.3l.68-4.5C311.66,13.45,311.57,13.35,311.47,13.35Zm-1.86,2.5a1.42,1.42,0,0,1-1.47,1.2.94.94,0,0,1-.88-.4,1,1,0,0,1-.2-.9,1.5,1.5,0,0,1,1.47-1.3.94.94,0,0,1,.88.4,1.2,1.2,0,0,1,.2,1Zm3.32-4.9-1.07,7.1c0,.1.1.3.19.3h1.08c.2,0,.29-.1.39-.3l1.08-7c0-.1-.1-.3-.2-.3h-1.27a.22.22,0,0,0-.2.2" transform="translate(0 -0.84)" fill="#179bd7" fill-rule="evenodd"/><path d="M144,20.07v-.32h-.08l-.1.22-.1-.22h-.08v.32h.06v-.24l.09.21h.06l.09-.21v.24Zm-.53,0v-.26h.11v-.06h-.27v.06h.1v.26Z" transform="translate(0 -0.84)" fill="#0099df"/><path d="M134.56,21.44h-7.17V8.54h7.17Z" transform="translate(0 -0.84)" fill="#6c6bbd"/><path d="M127.85,15A8.17,8.17,0,0,1,131,8.54a8.2,8.2,0,1,0,0,12.9A8.17,8.17,0,0,1,127.85,15" transform="translate(0 -0.84)" fill="#eb001b"/><path d="M144.24,15A8.2,8.2,0,0,1,131,21.44a8.21,8.21,0,0,0,0-12.9A8.2,8.2,0,0,1,144.24,15" transform="translate(0 -0.84)" fill="#0099df"/><path d="M137,25.08a1.06,1.06,0,0,1,.34.06l-.15.44a.77.77,0,0,0-.29,0c-.31,0-.47.2-.47.56v1.22h-.47V25.13h.47v.27a.64.64,0,0,1,.57-.32m-1.75.49h-.77v1c0,.22.07.36.31.36a.9.9,0,0,0,.42-.12l.14.41a1.17,1.17,0,0,1-.6.17c-.56,0-.75-.31-.75-.81v-1h-.44v-.44H134v-.66h.48v.66h.77Zm-6.06.46a.56.56,0,0,1,.58-.53.54.54,0,0,1,.55.53Zm1.62.19a1,1,0,0,0-1-1.14,1.06,1.06,0,0,0-1.09,1.14,1.08,1.08,0,0,0,1.12,1.14,1.32,1.32,0,0,0,.89-.3l-.23-.35a1,1,0,0,1-.63.23.61.61,0,0,1-.66-.54h1.62a1,1,0,0,0,0-.18m2.08-.53a1.41,1.41,0,0,0-.68-.19c-.26,0-.41.1-.41.26s.16.18.37.21l.22,0c.47.07.76.27.76.65s-.36.72-1,.72a1.57,1.57,0,0,1-.94-.29l.22-.37a1.12,1.12,0,0,0,.72.23c.33,0,.5-.09.5-.26s-.12-.19-.38-.23l-.23,0c-.48-.07-.75-.29-.75-.64s.36-.7.91-.7a1.66,1.66,0,0,1,.89.23Zm5.84-.16a.86.86,0,0,0-.27,0,.74.74,0,0,0-.22.14.88.88,0,0,0-.14.23.81.81,0,0,0,0,.56.88.88,0,0,0,.14.23,1,1,0,0,0,.22.14.86.86,0,0,0,.27.05.76.76,0,0,0,.27-.05.69.69,0,0,0,.22-.14.91.91,0,0,0,.15-.23.81.81,0,0,0,0-.56.91.91,0,0,0-.15-.23.55.55,0,0,0-.22-.14.76.76,0,0,0-.27,0m0-.45a1.19,1.19,0,0,1,.47.09,1.23,1.23,0,0,1,.38.24,1.13,1.13,0,0,1,.24.36,1.22,1.22,0,0,1,0,.92,1.13,1.13,0,0,1-.24.36,1.23,1.23,0,0,1-.38.24,1.19,1.19,0,0,1-.47.09,1.23,1.23,0,0,1-.47-.09,1.31,1.31,0,0,1-.37-.24,1.13,1.13,0,0,1-.24-.36,1.22,1.22,0,0,1,0-.92,1.13,1.13,0,0,1,.24-.36,1.31,1.31,0,0,1,.37-.24,1.23,1.23,0,0,1,.47-.09M126.4,26.22a.66.66,0,1,1,1.32,0,.66.66,0,1,1-1.32,0m1.76,0V25.13h-.47v.27a.82.82,0,0,0-.69-.32,1.15,1.15,0,0,0,0,2.29.85.85,0,0,0,.69-.32v.26h.47Zm-2.67,1.09V25.94a.8.8,0,0,0-.85-.86.83.83,0,0,0-.77.39.78.78,0,0,0-.72-.39.71.71,0,0,0-.63.32v-.27H122v2.18h.48V26.1a.51.51,0,0,1,.53-.57c.32,0,.48.2.48.57v1.21H124V26.1a.51.51,0,0,1,.53-.57c.32,0,.48.2.48.57v1.21Z" transform="translate(0 -0.84)" fill="#231f20"/><path d="M140.4,27.15v.05h.08v0a0,0,0,0,1,0,0h-.08Zm0,0,.06,0s0,0,0,0a.09.09,0,0,1,0,0l-.05,0,.06.07h-.05l-.06-.07h0v.07h0v-.2Zm0,.27h.06l.06,0,0,0a.19.19,0,0,0,0-.07.14.14,0,0,0,0-.06l0-.06s0,0-.06,0l-.06,0-.07,0a.09.09,0,0,0-.05,0l0,.06a.13.13,0,0,0,0,.06.17.17,0,0,0,0,.07.29.29,0,0,0,.09.09h.07m0-.39.08,0a.26.26,0,0,1,.12.12.19.19,0,0,1,0,.08.29.29,0,0,1,0,.09l0,.06a.18.18,0,0,1-.07.05l-.08,0-.09,0a.18.18,0,0,1-.07-.05l-.05-.06a.28.28,0,0,1,0-.09.19.19,0,0,1,0-.08l.05-.07a.18.18,0,0,1,.07,0l.09,0" transform="translate(0 -0.84)" fill="#231f20"/></svg>