<svg width="265" height="30" xmlns="http://www.w3.org/2000/svg" fill="none">

 <mask height="29" width="41" y="0" x="279" maskUnits="userSpaceOnUse" mask-type="alpha" id="mask0">
  <path id="svg_1" fill="white" d="m279.409,0l40.126,0l0,28.2l-40.126,0l0,-28.2z"/>
 </mask>
 <g>
  <title>Layer 1</title>
  <path id="svg_2" fill="#306FC5" d="m151.661,26.831c0,0.6424 -0.25,1.2584 -0.694,1.7126c-0.445,0.4542 -1.048,0.7094 -1.676,0.7094l-35.353,0c-0.628,0 -1.231,-0.2552 -1.676,-0.7094c-0.444,-0.4542 -0.694,-1.0702 -0.694,-1.7126l0,-23.408c0,-0.31815 0.061,-0.6332 0.18,-0.92717c0.119,-0.29396 0.294,-0.56108 0.514,-0.78609c0.22,-0.22501 0.481,-0.4035 0.769,-0.52528c0.288,-0.12178 0.596,-0.18446 0.907,-0.18446l35.353,0c0.628,0 1.231,0.25517 1.676,0.70939c0.444,0.45421 0.694,1.07026 0.694,1.71261l0,23.41l0,-0.001l0,0z"/>
  <path id="svg_3" fill="white" d="m116.285,10.2431l0.589,1.496l-1.179,0l0.59,-1.496zm-0.665,-0.99503l-1.801,4.27503l1.172,0l0.332,-0.856l1.931,0l0.331,0.856l1.196,0l-1.797,-4.27503l-1.364,0l0,0zm3.285,4.27403l0,-4.27503l1.666,0.005l0.969,2.75703l0.944,-2.76203l1.652,0l0,4.27503l-1.046,0l0,-3.15l-1.109,3.15l-0.917,0l-1.113,-3.15l0,3.15l-1.046,0l0,0zm5.947,0l0,-4.27503l3.414,0l0,0.95603l-2.356,0l0,0.731l2.3,0l0,0.901l-2.3,0l0,0.76l2.356,0l0,0.927l-3.414,0l0,0zm5.066,-3.318l1.196,0c0.287,0 0.495,0.229 0.495,0.45c0,0.284 -0.27,0.45 -0.479,0.45l-1.212,0l0,-0.9l0,0zm-1.047,-0.95603l0,4.27503l1.047,0l0,-1.518l0.44,0l1.255,1.518l1.278,0l-1.377,-1.575c0.318,-0.0323 0.612,-0.1851 0.824,-0.4282c0.213,-0.2431 0.328,-0.5589 0.324,-0.8848c0,-0.90003 -0.691,-1.38703 -1.462,-1.38703l-2.329,0z"/>
  <path id="svg_4" fill="white" d="m133.09,13.5231l1.068,0l0,-4.27503l-1.068,0l0,4.27503zm3.601,-0.001l-0.23,0c-1.116,0 -1.793,-0.897 -1.793,-2.12c0,-1.252 0.669,-2.15503 2.078,-2.15503l1.155,0l0,1.01203l-1.198,0c-0.571,0 -0.975,0.456 -0.975,1.154c0,0.828 0.461,1.175 1.128,1.175l0.274,0l-0.44,0.934l0.001,0l0,0zm2.942,-3.279l0.588,1.496l-1.178,0l0.59,-1.496l0,0zm-0.666,-0.99503l-1.801,4.27503l1.174,0l0.331,-0.856l1.931,0l0.33,0.856l1.198,0l-1.799,-4.27503l-1.365,0l0.001,0l0,0zm3.284,4.27403l0,-4.27503l1.331,0l1.697,2.68603l0,-2.68603l1.047,0l0,4.27503l-1.287,0l-1.742,-2.757l0,2.757l-1.046,0l0,0zm-20.813,7.484l0,-4.276l3.414,0l0,0.956l-2.356,0l0,0.732l2.301,0l0,0.9l-2.3,0l0,0.758l2.355,0l0,0.93l-3.414,0l0,0zm16.728,0l0,-4.276l3.414,0l0,0.956l-2.356,0l0,0.732l2.29,0l0,0.9l-2.29,0l0,0.758l2.356,0l0,0.93l-3.414,0l0,0zm-13.18,0l1.66,-2.113l-1.701,-2.163l1.318,0l1.014,1.337l1.018,-1.337l1.265,0l-1.679,2.136l1.664,2.14l-1.317,0l-0.985,-1.317l-0.959,1.317l-1.298,0l0,0zm5.758,-3.309l1.16,0c0.301,0 0.516,0.188 0.516,0.492c0,0.286 -0.214,0.492 -0.519,0.492l-1.157,0l0,-0.984l0,0zm-1.073,-0.967l0,4.277l1.073,0l0,-1.351l1.101,0c0.933,0 1.638,-0.505 1.638,-1.487c0,-0.815 -0.554,-1.44 -1.502,-1.44l-2.31,0l0,0.001l0,0zm5.313,0.956l1.196,0c0.286,0 0.496,0.23 0.496,0.45c0,0.283 -0.271,0.45 -0.481,0.45l-1.211,0l0,-0.9l0,0zm-1.047,-0.957l0,4.276l1.047,0l0,-1.519l0.44,0l1.255,1.52l1.279,0l-1.377,-1.576c0.317,-0.0325 0.611,-0.1854 0.824,-0.4284c0.212,-0.2431 0.328,-0.5587 0.324,-0.8846c0,-0.9 -0.692,-1.388 -1.463,-1.388l-2.329,0l0,0zm8.127,4.277l0,-0.93l2.095,0c0.309,0 0.443,-0.17 0.443,-0.358c0,-0.18 -0.133,-0.36 -0.443,-0.36l-0.947,0c-0.822,0 -1.281,-0.514 -1.281,-1.282c0,-0.686 0.42,-1.346 1.642,-1.346l2.038,0l-0.441,0.962l-1.762,0c-0.337,0 -0.44,0.18 -0.44,0.352c0,0.177 0.128,0.373 0.384,0.373l0.993,0c0.916,0 1.313,0.531 1.313,1.227c0,0.748 -0.442,1.362 -1.364,1.362l-2.23,0l0,0zm3.84,0l0,-0.93l2.006,0c0.309,0 0.442,-0.17 0.442,-0.358c0,-0.18 -0.133,-0.36 -0.443,-0.36l-0.857,0c-0.822,0 -1.281,-0.514 -1.281,-1.282c0,-0.686 0.42,-1.346 1.642,-1.346l1.996,0l-0.44,0.962l-1.722,0c-0.336,0 -0.44,0.18 -0.44,0.352c0,0.177 0.128,0.373 0.386,0.373l0.902,0c0.917,0 1.314,0.531 1.314,1.227c0,0.748 -0.443,1.362 -1.364,1.362l-2.141,0l0,0z"/>
  <path id="svg_5" fill="white" d="m95.8772,26.7182c0,0.6424 -0.2497,1.2584 -0.6942,1.7126c-0.4446,0.4542 -1.0475,0.7094 -1.6761,0.7094l-35.3524,0c-0.6286,0 -1.2315,-0.2552 -1.6761,-0.7094c-0.4445,-0.4542 -0.6942,-1.0702 -0.6942,-1.7126l0,-23.40799c-0.0001,-0.31815 0.0611,-0.6332 0.1801,-0.92717c0.1191,-0.29397 0.2937,-0.56108 0.5138,-0.78609c0.2201,-0.22501 0.4815,-0.4035 0.7691,-0.52528c0.2876,-0.12178 0.596,-0.18446 0.9073,-0.18446l35.3524,0c0.6286,0 1.2315,0.25517 1.6761,0.70938c0.4445,0.45422 0.6942,1.07026 0.6942,1.71262l0,23.40999l0,-0.001l0,0z"/>
  <path id="svg_6" fill="#E20D17" d="m72.6415,15.0702c-0.001,-1.2624 0.2783,-2.5086 0.8166,-3.6449c0.5384,-1.1362 1.3219,-2.13291 2.2916,-2.91514c-1.2063,-0.97443 -2.6569,-1.58195 -4.1855,-1.75295c-1.5286,-0.17101 -3.0734,0.10141 -4.4575,0.78605c-1.3841,0.68464 -2.5514,1.7538 -3.3684,3.08504c-0.8169,1.3312 -1.2503,2.8706 -1.2505,4.4419c0.0003,1.5713 0.4338,3.1108 1.2508,4.442c0.817,1.3313 1.9845,2.4004 3.3688,3.085c1.3842,0.6845 2.9291,0.9568 4.4578,0.7856c1.5287,-0.1712 2.9792,-0.779 4.1855,-1.7536c-0.9696,-0.782 -1.753,-1.7783 -2.2914,-2.9142c-0.5383,-1.1359 -0.8176,-2.3818 -0.8169,-3.6438"/>
  <path id="svg_7" fill="#EA610A" d="m72.6416,15.0698c-0.0008,1.2621 0.2785,2.5079 0.8169,3.6438c0.5384,1.1359 1.3218,2.1322 2.2914,2.9142c0.9695,-0.782 1.7529,-1.7783 2.2913,-2.9142c0.5384,-1.1359 0.8177,-2.3817 0.8169,-3.6438c0.0009,-1.2624 -0.2783,-2.5086 -0.8167,-3.6448c-0.5383,-1.1363 -1.3218,-2.133 -2.2915,-2.91523c-0.9697,0.78223 -1.7532,1.77893 -2.2916,2.91523c-0.5384,1.1362 -0.8176,2.3824 -0.8167,3.6448"/>
  <path id="svg_8" fill="#F59E00" d="m80.8283,6.70508c-1.9182,0 -3.6817,0.676 -5.0773,1.806c0.9698,0.78213 1.7534,1.77882 2.2917,2.91512c0.5384,1.1362 0.8176,2.3825 0.8165,3.6449c0.0008,1.2618 -0.2785,2.5073 -0.8169,3.6429c-0.5384,1.1355 -1.3218,2.1316 -2.2913,2.9131c1.4436,1.1719 3.2335,1.809 5.0773,1.807c2.1711,0 4.2532,-0.8813 5.7884,-2.4499c1.5352,-1.5687 2.3977,-3.6962 2.3977,-5.9146c0,-2.2184 -0.8625,-4.346 -2.3977,-5.91462c-1.5352,-1.56864 -3.6173,-2.4499 -5.7884,-2.4499"/>
  <path id="svg_20" fill="#005A9B" d="m207.445,26.83c0,0.6424 -0.25,1.2584 -0.694,1.7126c-0.445,0.4542 -1.048,0.7094 -1.676,0.7094l-35.353,0c-0.628,0 -1.231,-0.2552 -1.676,-0.7094c-0.444,-0.4542 -0.694,-1.0702 -0.694,-1.7126l0,-23.40798c0,-0.31814 0.061,-0.6332 0.18,-0.92716c0.119,-0.29397 0.294,-0.56109 0.514,-0.7861c0.22,-0.22501 0.481,-0.4035 0.769,-0.52528c0.288,-0.12178 0.596,-0.18446 0.907,-0.18446l35.353,0c0.628,0 1.231,0.25518 1.676,0.70939c0.444,0.45421 0.694,1.07026 0.694,1.71261l0,23.40998l0,-0.001l0,0z"/>
  <path id="svg_21" fill="#FAA929" d="m179.181,16.623c3.809,-1.668 9.155,-3.18 16.234,-1.666l0.075,-1.835c-7.47,-0.833 -12.829,1.598 -16.309,3.32l0,0.181z"/>
  <path id="svg_22" fill="white" d="m172.303,17.9722l3.589,0l0,1.104l-2.23,0l-0.014,1.021l2.222,0l0,1.06l-2.231,0l0.01,1.02l2.198,0l0,1.106l-3.543,0l-0.001,-5.311l0,0zm4.491,-0.445l1.307,0l0.005,5.756l-1.307,0l-0.005,-5.756zm4.842,3.338c0,-0.398 -0.187,-0.76 -0.624,-0.76c-0.413,0 -0.728,0.376 -0.812,0.76l1.436,0zm0.961,1.98c-0.443,0.384 -1.119,0.576 -1.719,0.576c-1.376,0 -1.998,-0.997 -1.998,-1.988c0,-1.167 0.856,-2.156 2.035,-2.156c1.442,0 1.892,1.043 1.892,2.37l-2.62,0c0,0.3 0.186,0.807 0.908,0.807c0.459,0 0.714,-0.138 1.066,-0.384l0.436,0.775zm4.177,0.177c-0.36,0.23 -0.954,0.398 -1.39,0.398c-1.202,0 -2.065,-0.706 -2.065,-1.979c0,-1.305 0.856,-2.164 2.147,-2.164c0.45,0 0.993,0.145 1.285,0.337l-0.421,0.875c-0.195,-0.084 -0.405,-0.154 -0.616,-0.154c-0.653,0 -1.088,0.4 -1.088,1.037c0,0.552 0.419,0.99 0.976,0.99c0.248,0 0.496,-0.115 0.705,-0.223l0.467,0.883l0,0zm0.482,-3.607l0.591,0l-0.005,-1.312l1.263,0l-0.031,1.312l1.074,0l-0.022,0.967l-1.074,0c0,0.537 -0.039,1.105 -0.039,1.435c0,0.338 0.084,0.499 0.377,0.499c0.18,0 0.331,-0.092 0.479,-0.184l0.287,0.905c-0.389,0.2436 -0.835,0.3762 -1.292,0.384c-1.059,0 -1.112,-0.683 -1.112,-1.573c0,-0.476 0.038,-0.952 0.038,-1.466l-0.563,0l0.029,-0.967l0,0zm3.562,0l1.305,0l0,0.545l0.017,0c0.194,-0.33 0.45,-0.652 0.961,-0.652c0.143,0 0.292,0.015 0.429,0.045l-0.175,1.32c-0.15,-0.0493 -0.307,-0.0749 -0.466,-0.076c-0.435,0 -0.773,0.376 -0.773,0.453l-0.021,2.233l-1.309,0l0.032,-3.868l0,0zm5.078,2.993c0.623,0 0.81,-0.553 0.81,-1.06c0,-0.505 -0.187,-1.058 -0.81,-1.058c-0.624,0 -0.811,0.553 -0.811,1.058c0,0.507 0.187,1.06 0.811,1.06zm0,-3.131c1.396,0 2.118,0.905 2.118,2.07c0,1.168 -0.722,2.074 -2.118,2.074c-1.398,0 -2.119,-0.906 -2.119,-2.073c0,-1.166 0.721,-2.071 2.119,-2.071l0,0zm2.828,0.138l1.307,0l0,0.422c0.301,-0.3 0.758,-0.56 1.223,-0.56c0.805,0 1.241,0.452 1.241,1.512c0,0.79 -0.008,1.642 -0.016,2.494l-1.306,0c0.008,-0.745 0.016,-1.497 0.016,-2.295c0,-0.314 -0.084,-0.56 -0.475,-0.56c-0.211,0 -0.51,0.184 -0.683,0.353l-0.007,2.502l-1.331,0l0.031,-3.868l0,0zm-15.671,-7.968l1.651,-5.56202l1.473,0l-1.65,5.56202l-1.474,0zm-0.659,-5.56102l-1.325,2.358c-0.337,0.618 -0.534,0.93 -0.629,1.32l-0.02,0c0.023,-0.495 -0.045,-1.102 -0.051,-1.446l-0.146,-2.232l-2.479,0l-0.027,0.15c0.637,0 1.015,0.327 1.119,0.996l0.483,4.41502l1.527,0l3.086,-5.56002l-1.537,0l-0.001,-0.001zm11.288,2.28c-0.017,-0.41 -0.029,-0.969 -0.003,-1.307l-0.021,0c-0.09,0.277 -0.476,1.105 -0.645,1.514l-0.548,1.218l1.292,0.001l-0.075,-1.426l0,0zm0.169,3.28102l-0.04,-0.827l-1.84,0l-0.376,0.827l-1.6,0l2.9,-5.55202l1.964,0l0.491,5.55202l-1.499,0l0,0zm-6.127,0.159c-0.785,0.0083 -1.556,-0.2134 -2.222,-0.639l0.7,-1.09402c0.443,0.25302 0.79,0.54502 1.589,0.54502c0.257,0 0.505,-0.069 0.646,-0.318c0.205,-0.36102 -0.047,-0.55702 -0.623,-0.89002l-0.284,-0.188c-0.853,-0.596 -1.222,-1.161 -0.821,-2.149c0.258,-0.632 0.935,-1.11 2.053,-1.11c0.772,0 1.494,0.34 1.916,0.673l-0.808,0.967c-0.411,-0.339 -0.751,-0.511 -1.142,-0.511c-0.31,0 -0.546,0.122 -0.628,0.287c-0.153,0.311 0.05,0.523 0.499,0.807l0.337,0.22c1.037,0.668 1.283,1.367 1.022,2.02202c-0.446,1.126 -1.32,1.378 -2.234,1.378z"/>
  <path id="svg_23" fill="white" d="m40.093,26.83c0,0.6424 -0.2497,1.2584 -0.6942,1.7126c-0.4445,0.4542 -1.0474,0.7094 -1.6761,0.7094l-35.35237,0c-0.62865,0 -1.23155,-0.2552 -1.67608,-0.7094c-0.44452,-0.4542 -0.69425,-1.0702 -0.69425,-1.7126l0,-23.40798c-0.00013,-0.31814 0.06109,-0.6332 0.18015,-0.92716c0.11906,-0.29397 0.29364,-0.56109 0.51376,-0.7861c0.22012,-0.22501 0.48146,-0.4035 0.76911,-0.52528c0.28764,-0.12178 0.59595,-0.18446 0.90731,-0.18446l35.35237,0c0.6287,0 1.2316,0.25518 1.6761,0.70939c0.4445,0.45421 0.6942,1.07026 0.6942,1.71261l0,23.40998l0,-0.001l0,0z"/>
  <path id="svg_24" fill="#F79F1A" d="m10.5371,15.207l-0.78976,-3.87c-0.13408,-0.533 -0.52652,-0.692 -1.01781,-0.713l-3.61813,0l-0.0323,0.176c2.81856,0.698 4.68292,2.383 5.458,4.406"/>
  <path id="svg_25" fill="#005A9B" d="m18.9227,10.7019l-2.339,0l-1.4592,8.757l2.3341,0l1.4641,-8.757l0,0zm-6.9603,8.748l3.6779,-8.742l-2.476,0l-2.2862,5.972l-0.2447,-0.901c-0.4482,-1.085 -1.72929,-2.646 -3.23447,-3.63l2.09141,7.304l2.47206,-0.003l0,0zm13.629,-2.854c0.0088,-0.994 -0.6156,-1.753 -1.9623,-2.379c-0.8181,-0.405 -1.3173,-0.675 -1.3104,-1.085c0,-0.362 0.4218,-0.752 1.3369,-0.752c0.5989,-0.014 1.1939,0.1 1.7479,0.335l0.2113,0.1l0.3171,-1.898c-0.6717,-0.2463 -1.3806,-0.3698 -2.0943,-0.365c-2.3077,0 -3.9333,1.187 -3.948,2.89c-0.0146,1.258 1.1617,1.96 2.0474,2.38c0.9092,0.425 1.2145,0.7 1.2077,1.083c-0.0049,0.587 -0.7242,0.854 -1.3956,0.854c-0.9356,0 -1.4308,-0.132 -2.2,-0.459l-0.2985,-0.14l-0.3279,1.962c0.5451,0.244 1.5532,0.456 2.6003,0.465c2.4555,0 4.0507,-1.172 4.0684,-2.99l0,-0.001l0,0zm4.3785,-2.691c-0.0117,0.024 0.1938,-0.506 0.3103,-0.836l0.1585,0.756l0.5402,2.529l-1.9377,0c0.1928,-0.504 0.9297,-2.45 0.9297,-2.45l-0.001,0.001l0,0zm-1.6011,4.241l2.9908,0.003c0.0705,0.305 0.2848,1.313 0.2848,1.313l2.1678,0l-1.8918,-8.752l-1.8037,0c-0.5608,0 -0.9767,0.156 -1.2233,0.725l-3.4694,8.026l2.4545,0c0,0 0.3993,-1.08 0.4903,-1.316l0,0.001z"/>
  <path id="svg_26" fill="#005A9B" d="m37.571,1l-35.20948,0c-0.31023,-0.00013 -0.61746,0.06223 -0.90409,0.18351c-0.28664,0.12128 -0.54706,0.2991 -0.76639,0.5233c-0.21932,0.2242 -0.39325,0.49038 -0.51182,0.78331c-0.11858,0.29294 -0.17948,0.60688 -0.17922,0.92388l0,2.503l39.9325,0l0,-2.504c0.0002,-0.31692 -0.0608,-0.63075 -0.1795,-0.92357c-0.1186,-0.29282 -0.2925,-0.55888 -0.5119,-0.78297c-0.2193,-0.2241 -0.4796,-0.40183 -0.7662,-0.52305c-0.2866,-0.12122 -0.5937,-0.18354 -0.9039,-0.18341"/>
  <path id="svg_27" fill="#F79F1A" d="m37.571,29.1401l-35.20948,0c-0.31007,0.0001 -0.61713,-0.0622 -0.90364,-0.1833c-0.28651,-0.1212 -0.54685,-0.2988 -0.76615,-0.5228c-0.2193,-0.224 -0.39326,-0.4899 -0.51195,-0.7826c-0.11869,-0.2927 -0.17978,-0.6065 -0.17978,-0.9233l0,-2.503l39.9325,0l0,2.503c0,0.3168 -0.0611,0.6306 -0.1797,0.9233c-0.1187,0.2927 -0.2927,0.5586 -0.512,0.7826c-0.2193,0.224 -0.4796,0.4016 -0.7661,0.5228c-0.2866,0.1211 -0.5936,0.1834 -0.9037,0.1833"/>
  <g id="svg_28" mask="url(#mask0)">
   <path id="svg_29" fill="#005A9B" d="m261.8427,26.76154c0,1.3 -1.077,2.4 -2.349,2.4l-35.428,0c-1.272,0 -2.349,-1.1 -2.349,-2.4l0,-23.4c0,-1.3 1.077,-2.4 2.349,-2.4l35.33,0c1.272,0 2.349,1.1 2.349,2.4l0.098,23.4l0,0z" clip-rule="evenodd" fill-rule="evenodd"/>
  </g>
  <path id="svg_30" fill="#EFEFEF" d="m261.8427,26.76154c0,1.3 -1.077,2.4 -2.349,2.4l-35.428,0c-1.272,0 -2.349,-1.1 -2.349,-2.4l0,-23.4c0,-1.3 1.077,-2.4 2.349,-2.4l35.33,0c1.272,0 2.349,1.1 2.349,2.4l0.098,23.4l0,0z" clip-rule="evenodd" fill-rule="evenodd"/>
  <path id="svg_31" fill="#253B80" d="m228.7637,10.70959l-2.643,0c-0.196,0 -0.293,0.1 -0.391,0.29995l-1.077,7c0,0.1 0.098,0.3 0.196,0.3l1.272,0c0.196,0 0.294,-0.1 0.392,-0.3l0.293,-1.9c0,-0.2 0.196,-0.3 0.392,-0.3l0.881,0c1.761,0 2.74,-0.9 3.033,-2.6c0.098,-0.8 0,-1.3 -0.293,-1.8c-0.49,-0.4 -1.175,-0.69995 -2.055,-0.69995l0,0zm0.293,2.59995c-0.098,1 -0.881,1 -1.566,1l-0.391,0l0.293,-1.8c0,-0.1 0.098,-0.2 0.196,-0.2l0.196,0c0.489,0 0.979,0 1.174,0.3c0.098,0.1 0.196,0.3 0.098,0.7zm7.634,0l-1.272,0c-0.098,0 -0.196,0.1 -0.196,0.2l-0.098,0.4l-0.098,-0.1c-0.294,-0.4 -0.881,-0.5 -1.468,-0.5c-1.37,0 -2.642,1.1 -2.838,2.6c-0.098,0.8 0.098,1.5 0.489,2c0.392,0.5 0.979,0.7 1.566,0.7c1.175,0 1.762,-0.7 1.762,-0.7l-0.098,0.4c0,0.1 0.098,0.3 0.196,0.3l1.174,0c0.196,0 0.294,-0.1 0.391,-0.3l0.686,-4.5c0.097,-0.4 0,-0.5 -0.196,-0.5l0,0zm-1.762,2.5c-0.098,0.7 -0.685,1.2 -1.468,1.2c-0.391,0 -0.685,-0.1 -0.881,-0.4c-0.195,-0.2 -0.293,-0.6 -0.195,-0.9c0.098,-0.7 0.685,-1.3 1.468,-1.3c0.391,0 0.685,0.1 0.88,0.4c0.196,0.3 0.294,0.6 0.196,1l0,0zm8.612,-2.5l-1.272,0c-0.098,0 -0.196,0.1 -0.293,0.2l-1.762,2.7l-0.783,-2.6c0,-0.2 -0.196,-0.3 -0.391,-0.3l-1.273,0c-0.195,0 -0.293,0.2 -0.195,0.3l1.37,4.2l-1.37,1.9c-0.098,0.2 0,0.4 0.195,0.4l1.273,0c0.097,0 0.195,-0.1 0.293,-0.2l4.306,-6.3c0.196,-0.1 0.098,-0.3 -0.098,-0.3" clip-rule="evenodd" fill-rule="evenodd"/>
  <path id="svg_32" fill="#179BD7" d="m247.7497,10.70959l-2.642,0c-0.196,0 -0.294,0.1 -0.392,0.29995l-1.076,7c0,0.1 0.097,0.3 0.195,0.3l1.37,0c0.098,0 0.196,-0.1 0.294,-0.2l0.294,-2c0,-0.2 0.195,-0.3 0.391,-0.3l0.881,0c1.761,0 2.74,-0.9 3.034,-2.6c0.098,-0.8 0,-1.3 -0.294,-1.8c-0.489,-0.4 -1.174,-0.69995 -2.055,-0.69995l0,0zm0.294,2.59995c-0.098,1 -0.881,1 -1.566,1l-0.392,0l0.294,-1.8c0,-0.1 0.098,-0.2 0.196,-0.2l0.195,0c0.49,0 0.979,0 1.175,0.3c0.098,0.1 0.195,0.3 0.098,0.7zm7.731,0l-1.272,0c-0.098,0 -0.196,0.1 -0.196,0.2l-0.098,0.4l-0.098,-0.1c-0.293,-0.4 -0.881,-0.5 -1.468,-0.5c-1.37,0 -2.642,1.1 -2.838,2.6c-0.098,0.8 0.098,1.5 0.489,2c0.392,0.5 0.979,0.7 1.566,0.7c1.175,0 1.762,-0.7 1.762,-0.7l-0.098,0.4c0,0.1 0.098,0.3 0.196,0.3l1.174,0c0.196,0 0.294,-0.1 0.392,-0.3l0.685,-4.5c0,-0.4 -0.098,-0.5 -0.196,-0.5zm-1.859,2.5c-0.098,0.7 -0.686,1.2 -1.468,1.2c-0.392,0 -0.686,-0.1 -0.881,-0.4c-0.196,-0.2 -0.294,-0.6 -0.196,-0.9c0.098,-0.7 0.685,-1.3 1.468,-1.3c0.391,0 0.685,0.1 0.881,0.4c0.196,0.3 0.293,0.6 0.196,1l0,0zm3.327,-4.89995l-1.077,7.09995c0,0.1 0.098,0.3 0.196,0.3l1.077,0c0.195,0 0.293,-0.1 0.391,-0.3l1.077,-7c0,-0.09995 -0.098,-0.29995 -0.196,-0.29995l-1.272,0c-0.098,0 -0.196,0.1 -0.196,0.2" clip-rule="evenodd" fill-rule="evenodd"/>
 </g>
</svg>