<svg width="22" height="26" viewBox="0 0 22 26" fill="none" xmlns="http://www.w3.org/2000/svg">
<path d="M9.30971 17.1954C8.60065 20.7763 7.73469 24.2072 5.17143 26C4.37959 20.5896 6.33262 16.5265 7.24057 12.2129C5.69396 9.70505 7.42587 4.65749 10.6896 5.90195C14.7043 7.43123 7.21216 15.2265 12.2423 16.2003C17.4924 17.2167 19.6369 7.42413 16.3806 4.24031C11.6766 -0.356976 2.68598 4.13513 3.79159 10.7179C4.05965 12.3275 5.78661 12.8156 4.48089 15.0374C1.47044 14.3945 0.571134 12.1065 0.687253 9.05741C0.87255 4.0654 5.34437 0.570754 9.82731 0.0873888C15.4974 -0.523613 20.8191 2.09176 21.5541 7.23032C22.3818 13.0283 18.9945 19.3085 12.9316 18.8571C11.2887 18.7342 10.5969 17.9506 9.30971 17.1966V17.1954Z" fill="white"/>
</svg>
