<svg xmlns="http://www.w3.org/2000/svg" data-name="Layer 1" fill="#B24C24" width="512" height="512" style=""><rect id="backgroundrect" width="100%" height="100%" x="0" y="0" fill="none" stroke="none"/><title>heart-other</title><g class="currentLayer" style=""><title>Layer 1</title><path d="M256,489.24a5.69,5.69,0,0,1-4.13-1.78L41.15,265A141.37,141.37,0,0,1,0,165C0,86.56,63.8,22.76,142.22,22.76A141.94,141.94,0,0,1,256,79.71a141.94,141.94,0,0,1,113.78-57C448.2,22.76,512,86.56,512,165A141.38,141.38,0,0,1,470.81,265L260.13,487.47A5.69,5.69,0,0,1,256,489.24ZM142.22,34.13C70.07,34.13,11.38,92.83,11.38,165A130.09,130.09,0,0,0,49.28,257l.08.09L256,475.28,462.63,257.13a130.18,130.18,0,0,0,38-92.16c0-72.14-58.69-130.84-130.84-130.84a130.66,130.66,0,0,0-109,58.58,5.9,5.9,0,0,1-9.48,0A130.66,130.66,0,0,0,142.22,34.13Z" id="svg_1" class="" fill-opacity="1" fill="#b24c24"/><path fill="#b24c24" fill-opacity="1" stroke="none" stroke-opacity="1" stroke-width="1" stroke-dasharray="none" stroke-linejoin="miter" stroke-linecap="butt" stroke-dashoffset="" fill-rule="nonzero" opacity="1" marker-start="" marker-mid="" marker-end="" id="svg_2" d="M85.68748257821369,116.29373505175991 " style="color: rgb(178, 76, 36);"/><path fill="#b24c24" fill-opacity="1" stroke="none" stroke-opacity="1" stroke-width="1" stroke-dasharray="none" stroke-linejoin="miter" stroke-linecap="butt" stroke-dashoffset="" fill-rule="nonzero" opacity="1" marker-start="" marker-mid="" marker-end="" d="M134,289 C134,212.75690607734805 189.04419889502762,151 257,151 C324.95580110497235,151 380,212.75690607734805 380,289 C380,365.24309392265195 324.95580110497235,427 257,427 C189.04419889502762,427 134,365.24309392265195 134,289 Z" id="svg_3"/><path fill="#b24c24" fill-opacity="1" stroke="none" stroke-opacity="1" stroke-width="1" stroke-dasharray="none" stroke-linejoin="miter" stroke-linecap="butt" stroke-dashoffset="" fill-rule="nonzero" opacity="1" marker-start="" marker-mid="" marker-end="" d="M33,139 C33,109.1657458563536 103.70718232044199,85 191,85 C278.292817679558,85 349,109.1657458563536 349,139 C349,168.8342541436464 278.292817679558,193 191,193 C103.70718232044199,193 33,168.8342541436464 33,139 Z" id="svg_5"/><path fill="#b24c24" fill-opacity="1" stroke="none" stroke-opacity="1" stroke-width="1" stroke-dasharray="none" stroke-linejoin="miter" stroke-linecap="butt" stroke-dashoffset="" fill-rule="nonzero" opacity="1" marker-start="" marker-mid="" marker-end="" d="M223,142.5 C223,110.17955801104972 247.1657458563536,84 277,84 C306.83425414364643,84 331,110.17955801104972 331,142.5 C331,174.82044198895028 306.83425414364643,201 277,201 C247.1657458563536,201 223,174.82044198895028 223,142.5 Z" id="svg_7"/><path fill="#b24c24" fill-opacity="1" stroke="none" stroke-opacity="1" stroke-width="1" stroke-dasharray="none" stroke-linejoin="miter" stroke-linecap="butt" stroke-dashoffset="" fill-rule="nonzero" opacity="1" marker-start="" marker-mid="" marker-end="" d="M295,78 C295,52.585635359116026 327.8922651933702,32 368.5,32 C409.1077348066298,32 442,52.585635359116026 442,78 C442,103.41436464088397 409.1077348066298,124 368.5,124 C327.8922651933702,124 295,103.41436464088397 295,78 Z" id="svg_9"/><path fill="#b24c24" fill-opacity="1" stroke="none" stroke-opacity="1" stroke-width="1" stroke-dasharray="none" stroke-linejoin="miter" stroke-linecap="butt" stroke-dashoffset="" fill-rule="nonzero" opacity="1" marker-start="" marker-mid="" marker-end="" d="M273,84 C273,74.60773480662984 281.9502762430939,67 293,67 C304.0497237569061,67 313,74.60773480662984 313,84 C313,93.39226519337016 304.0497237569061,101 293,101 C281.9502762430939,101 273,93.39226519337016 273,84 Z" id="svg_11"/><path fill="#b24c24" fill-opacity="1" stroke="none" stroke-opacity="1" stroke-width="1" stroke-dasharray="none" stroke-linejoin="miter" stroke-linecap="butt" stroke-dashoffset="" fill-rule="nonzero" opacity="1" marker-start="" marker-mid="" marker-end="" d="M282,56.5 C282,54.01381215469613 288.0414364640884,52 295.5,52 C302.9585635359116,52 309,54.01381215469613 309,56.5 C309,58.98618784530387 302.9585635359116,61 295.5,61 C288.0414364640884,61 282,58.98618784530387 282,56.5 Z" id="svg_13"/><path fill="#b24c24" fill-opacity="1" stroke="none" stroke-opacity="1" stroke-width="1" stroke-dasharray="none" stroke-linejoin="miter" stroke-linecap="butt" stroke-dashoffset="" fill-rule="nonzero" opacity="1" marker-start="" marker-mid="" marker-end="" d="M264,86.5 C264,74.06906077348066 276.5303867403315,64 292,64 C307.4696132596685,64 320,74.06906077348066 320,86.5 C320,98.93093922651934 307.4696132596685,109 292,109 C276.5303867403315,109 264,98.93093922651934 264,86.5 Z" id="svg_15"/><path fill="#b24c24" fill-opacity="1" stroke="none" stroke-opacity="1" stroke-width="1" stroke-dasharray="none" stroke-linejoin="miter" stroke-linecap="butt" stroke-dashoffset="" fill-rule="nonzero" opacity="1" marker-start="" marker-mid="" marker-end="" d="M282,68 C282,58.607734806629836 292.06906077348066,51 304.5,51 C316.93093922651934,51 327,58.607734806629836 327,68 C327,77.39226519337016 316.93093922651934,85 304.5,85 C292.06906077348066,85 282,77.39226519337016 282,68 Z" id="svg_17"/><path fill="#b24c24" fill-opacity="1" stroke="none" stroke-opacity="1" stroke-width="1" stroke-dasharray="none" stroke-linejoin="miter" stroke-linecap="butt" stroke-dashoffset="" fill-rule="nonzero" opacity="1" marker-start="" marker-mid="" marker-end="" d="M305,60 C305,51.71270718232044 310.37016574585635,45 317,45 C323.62983425414365,45 329,51.71270718232044 329,60 C329,68.28729281767956 323.62983425414365,75 317,75 C310.37016574585635,75 305,68.28729281767956 305,60 Z" id="svg_19"/><path fill="#b24c24" fill-opacity="1" stroke="none" stroke-opacity="1" stroke-width="1" stroke-dasharray="none" stroke-linejoin="miter" stroke-linecap="butt" stroke-dashoffset="" fill-rule="nonzero" opacity="1" marker-start="" marker-mid="" marker-end="" d="M305,56 C305,50.47513812154696 313.0552486187845,46 323,46 C332.9447513812155,46 341,50.47513812154696 341,56 C341,61.52486187845304 332.9447513812155,66 323,66 C313.0552486187845,66 305,61.52486187845304 305,56 Z" id="svg_21"/><path fill="#b24c24" fill-opacity="1" stroke="none" stroke-opacity="1" stroke-width="1" stroke-dasharray="none" stroke-linejoin="miter" stroke-linecap="butt" stroke-dashoffset="" fill-rule="nonzero" opacity="1" marker-start="" marker-mid="" marker-end="" d="M70,117.5 C70,82.4171270718232 112.96132596685084,54 166,54 C219.03867403314916,54 262,82.4171270718232 262,117.5 C262,152.5828729281768 219.03867403314916,181 166,181 C112.96132596685084,181 70,152.5828729281768 70,117.5 Z" id="svg_23"/><path fill="#b24c24" fill-opacity="1" stroke="none" stroke-opacity="1" stroke-width="1" stroke-dasharray="none" stroke-linejoin="miter" stroke-linecap="butt" stroke-dashoffset="" fill-rule="nonzero" opacity="1" marker-start="" marker-mid="" marker-end="" d="M95,81.5 C95,55.80939226519337 127.89226519337016,35 168.5,35 C209.10773480662982,35 242,55.80939226519337 242,81.5 C242,107.19060773480663 209.10773480662982,128 168.5,128 C127.89226519337016,128 95,107.19060773480663 95,81.5 Z" id="svg_25"/><path fill="#b24c24" fill-opacity="1" stroke="none" stroke-opacity="1" stroke-width="1" stroke-dasharray="none" stroke-linejoin="miter" stroke-linecap="butt" stroke-dashoffset="" fill-rule="nonzero" opacity="1" marker-start="" marker-mid="" marker-end="" d="M16,196 C16,148.48618784530387 62.5414364640884,110 120,110 C177.4585635359116,110 224,148.48618784530387 224,196 C224,243.51381215469613 177.4585635359116,282 120,282 C62.5414364640884,282 16,243.51381215469613 16,196 Z" id="svg_27"/><path fill="#b24c24" fill-opacity="1" stroke="none" stroke-opacity="1" stroke-width="1" stroke-dasharray="none" stroke-linejoin="miter" stroke-linecap="butt" stroke-dashoffset="" fill-rule="nonzero" opacity="1" marker-start="" marker-mid="" marker-end="" d="M95,288.5 C95,256.73204419889504 112.45303867403315,231 134,231 C155.54696132596686,231 173,256.73204419889504 173,288.5 C173,320.26795580110496 155.54696132596686,346 134,346 C112.45303867403315,346 95,320.26795580110496 95,288.5 Z" id="svg_29"/><path fill="#b24c24" fill-opacity="1" stroke="none" stroke-opacity="1" stroke-width="1" stroke-dasharray="none" stroke-linejoin="miter" stroke-linecap="butt" stroke-dashoffset="" fill-rule="nonzero" opacity="1" marker-start="" marker-mid="" marker-end="" d="M52,269 C52,256.292817679558 76.38950276243094,246 106.5,246 C136.61049723756906,246 161,256.292817679558 161,269 C161,281.707182320442 136.61049723756906,292 106.5,292 C76.38950276243094,292 52,281.707182320442 52,269 Z" id="svg_31"/><path fill="#b24c24" fill-opacity="1" stroke="none" stroke-opacity="1" stroke-width="1" stroke-dasharray="none" stroke-linejoin="miter" stroke-linecap="butt" stroke-dashoffset="" fill-rule="nonzero" opacity="1" marker-start="" marker-mid="" marker-end="" d="M77,278.5 C77,263.3066298342541 89.30662983425414,251 104.5,251 C119.69337016574586,251 132,263.3066298342541 132,278.5 C132,293.6933701657459 119.69337016574586,306 104.5,306 C89.30662983425414,306 77,293.6933701657459 77,278.5 Z" id="svg_33"/><path fill="#b24c24" fill-opacity="1" stroke="none" stroke-opacity="1" stroke-width="1" stroke-dasharray="none" stroke-linejoin="miter" stroke-linecap="butt" stroke-dashoffset="" fill-rule="nonzero" opacity="1" marker-start="" marker-mid="" marker-end="" d="M88,293.5 C88,282.72651933701655 91.80386740331491,274 96.5,274 C101.19613259668509,274 105,282.72651933701655 105,293.5 C105,304.27348066298345 101.19613259668509,313 96.5,313 C91.80386740331491,313 88,304.27348066298345 88,293.5 Z" id="svg_35"/><path fill="#b24c24" fill-opacity="1" stroke="none" stroke-opacity="1" stroke-width="1" stroke-dasharray="none" stroke-linejoin="miter" stroke-linecap="butt" stroke-dashoffset="" fill-rule="nonzero" opacity="1" marker-start="" marker-mid="" marker-end="" d="M137,354 C137,339.6353591160221 145.72651933701658,328 156.5,328 C167.27348066298342,328 176,339.6353591160221 176,354 C176,368.3646408839779 167.27348066298342,380 156.5,380 C145.72651933701658,380 137,368.3646408839779 137,354 Z" id="svg_37"/><path fill="#b24c24" fill-opacity="1" stroke="none" stroke-opacity="1" stroke-width="1" stroke-dasharray="none" stroke-linejoin="miter" stroke-linecap="butt" stroke-dashoffset="" fill-rule="nonzero" opacity="1" marker-start="" marker-mid="" marker-end="" d="M124,341.5 C124,335.146408839779 128.6988950276243,330 134.5,330 C140.3011049723757,330 145,335.146408839779 145,341.5 C145,347.853591160221 140.3011049723757,353 134.5,353 C128.6988950276243,353 124,347.853591160221 124,341.5 Z" id="svg_39"/><path fill="#b24c24" fill-opacity="1" stroke="none" stroke-opacity="1" stroke-width="1" stroke-dasharray="none" stroke-linejoin="miter" stroke-linecap="butt" stroke-dashoffset="" fill-rule="nonzero" opacity="1" marker-start="" marker-mid="" marker-end="" d="M188,402.5 C188,388.9640883977901 208.36187845303868,378 233.5,378 C258.6381215469613,378 279,388.9640883977901 279,402.5 C279,416.0359116022099 258.6381215469613,427 233.5,427 C208.36187845303868,427 188,416.0359116022099 188,402.5 Z" id="svg_41"/><path fill="#b24c24" fill-opacity="1" stroke="none" stroke-opacity="1" stroke-width="1" stroke-dasharray="none" stroke-linejoin="miter" stroke-linecap="butt" stroke-dashoffset="" fill-rule="nonzero" opacity="1" marker-start="" marker-mid="" marker-end="" d="M182,398.5 C182,393.80386740331494 184.90883977900552,390 188.5,390 C192.09116022099448,390 195,393.80386740331494 195,398.5 C195,403.19613259668506 192.09116022099448,407 188.5,407 C184.90883977900552,407 182,403.19613259668506 182,398.5 Z" id="svg_43"/><path fill="#b24c24" fill-opacity="1" stroke="none" stroke-opacity="1" stroke-width="1" stroke-dasharray="none" stroke-linejoin="miter" stroke-linecap="butt" stroke-dashoffset="" fill-rule="nonzero" opacity="1" marker-start="" marker-mid="" marker-end="" d="M231,433.5 C231,415.54419889502765 239.95027624309392,401 251,401 C262.0497237569061,401 271,415.54419889502765 271,433.5 C271,451.45580110497235 262.0497237569061,466 251,466 C239.95027624309392,466 231,451.45580110497235 231,433.5 Z" id="svg_45"/><path fill="#b24c24" fill-opacity="1" stroke="none" stroke-opacity="1" stroke-width="1" stroke-dasharray="none" stroke-linejoin="miter" stroke-linecap="butt" stroke-dashoffset="" fill-rule="nonzero" opacity="1" marker-start="" marker-mid="" marker-end="" d="M240,448.5 C240,431.6491712707182 247.38397790055248,418 256.5,418 C265.6160220994475,418 273,431.6491712707182 273,448.5 C273,465.3508287292818 265.6160220994475,479 256.5,479 C247.38397790055248,479 240,465.3508287292818 240,448.5 Z" id="svg_47"/><path fill="#b24c24" fill-opacity="1" stroke="none" stroke-opacity="1" stroke-width="1" stroke-dasharray="none" stroke-linejoin="miter" stroke-linecap="butt" stroke-dashoffset="" fill-rule="nonzero" opacity="1" marker-start="" marker-mid="" marker-end="" d="M206,427 C206,421.47513812154693 218.30662983425415,417 233.5,417 C248.69337016574585,417 261,421.47513812154693 261,427 C261,432.52486187845307 248.69337016574585,437 233.5,437 C218.30662983425415,437 206,432.52486187845307 206,427 Z" id="svg_49"/><path fill="#b24c24" fill-opacity="1" stroke="none" stroke-opacity="1" stroke-width="1" stroke-dasharray="none" stroke-linejoin="miter" stroke-linecap="butt" stroke-dashoffset="" fill-rule="nonzero" opacity="1" marker-start="" marker-mid="" marker-end="" d="M207,422.5 C207,417.80386740331494 209.46132596685084,414 212.5,414 C215.53867403314916,414 218,417.80386740331494 218,422.5 C218,427.19613259668506 215.53867403314916,431 212.5,431 C209.46132596685084,431 207,427.19613259668506 207,422.5 Z" id="svg_51"/><path fill="#b24c24" fill-opacity="1" stroke="none" stroke-opacity="1" stroke-width="1" stroke-dasharray="none" stroke-linejoin="miter" stroke-linecap="butt" stroke-dashoffset="" fill-rule="nonzero" opacity="1" marker-start="" marker-mid="" marker-end="" d="M220,445.5 C220,439.146408839779 225.5939226519337,434 232.5,434 C239.4060773480663,434 245,439.146408839779 245,445.5 C245,451.853591160221 239.4060773480663,457 232.5,457 C225.5939226519337,457 220,451.853591160221 220,445.5 Z" id="svg_53"/><path fill="#b24c24" fill-opacity="1" stroke="none" stroke-opacity="1" stroke-width="1" stroke-dasharray="none" stroke-linejoin="miter" stroke-linecap="butt" stroke-dashoffset="" fill-rule="nonzero" opacity="1" marker-start="" marker-mid="" marker-end="" d="M211,432.5 C211,425.5939226519337 215.47513812154696,420 221,420 C226.52486187845304,420 231,425.5939226519337 231,432.5 C231,439.4060773480663 226.52486187845304,445 221,445 C215.47513812154696,445 211,439.4060773480663 211,432.5 Z" id="svg_55"/><path fill="#b24c24" fill-opacity="1" stroke="none" stroke-opacity="1" stroke-width="1" stroke-dasharray="none" stroke-linejoin="miter" stroke-linecap="butt" stroke-dashoffset="" fill-rule="nonzero" opacity="1" marker-start="" marker-mid="" marker-end="" d="M204,421.5 C204,417.9088397790055 206.01381215469613,415 208.5,415 C210.98618784530387,415 213,417.9088397790055 213,421.5 C213,425.0911602209945 210.98618784530387,428 208.5,428 C206.01381215469613,428 204,425.0911602209945 204,421.5 Z" id="svg_57"/><path fill="#b24c24" fill-opacity="1" stroke="none" stroke-opacity="1" stroke-width="1" stroke-dasharray="none" stroke-linejoin="miter" stroke-linecap="butt" stroke-dashoffset="" fill-rule="nonzero" opacity="1" marker-start="" marker-mid="" marker-end="" d="M260,436.5 C260,417.99171270718233 263.80386740331494,403 268.5,403 C273.19613259668506,403 277,417.99171270718233 277,436.5 C277,455.00828729281767 273.19613259668506,470 268.5,470 C263.80386740331494,470 260,455.00828729281767 260,436.5 Z" id="svg_59"/><path fill="#b24c24" fill-opacity="1" stroke="none" stroke-opacity="1" stroke-width="1" stroke-dasharray="none" stroke-linejoin="miter" stroke-linecap="butt" stroke-dashoffset="" fill-rule="nonzero" opacity="1" marker-start="" marker-mid="" marker-end="" d="M263,431 C263,414.9779005524862 269.0414364640884,402 276.5,402 C283.9585635359116,402 290,414.9779005524862 290,431 C290,447.0220994475138 283.9585635359116,460 276.5,460 C269.0414364640884,460 263,447.0220994475138 263,431 Z" id="svg_61"/><path fill="#b24c24" fill-opacity="1" stroke="none" stroke-opacity="1" stroke-width="1" stroke-dasharray="none" stroke-linejoin="miter" stroke-linecap="butt" stroke-dashoffset="" fill-rule="nonzero" opacity="1" marker-start="" marker-mid="" marker-end="" d="M277,418.5 C277,402.20165745856355 281.2513812154696,389 286.5,389 C291.7486187845304,389 296,402.20165745856355 296,418.5 C296,434.79834254143645 291.7486187845304,448 286.5,448 C281.2513812154696,448 277,434.79834254143645 277,418.5 Z" id="svg_63"/><path fill="#b24c24" fill-opacity="1" stroke="none" stroke-opacity="1" stroke-width="1" stroke-dasharray="none" stroke-linejoin="miter" stroke-linecap="butt" stroke-dashoffset="" fill-rule="nonzero" opacity="1" marker-start="" marker-mid="" marker-end="" d="M284,418.5 C284,407.1740331491713 288.47513812154693,398 294,398 C299.52486187845307,398 304,407.1740331491713 304,418.5 C304,429.8259668508287 299.52486187845307,439 294,439 C288.47513812154693,439 284,429.8259668508287 284,418.5 Z" id="svg_65"/><path fill="#b24c24" fill-opacity="1" stroke="none" stroke-opacity="1" stroke-width="1" stroke-dasharray="none" stroke-linejoin="miter" stroke-linecap="butt" stroke-dashoffset="" fill-rule="nonzero" opacity="1" marker-start="" marker-mid="" marker-end="" d="M301,419.5 C301,414.2513812154696 301.4475138121547,410 302,410 C302.5524861878453,410 303,414.2513812154696 303,419.5 C303,424.7486187845304 302.5524861878453,429 302,429 C301.4475138121547,429 301,424.7486187845304 301,419.5 Z" id="svg_67"/><path fill="#b24c24" fill-opacity="1" stroke="none" stroke-opacity="1" stroke-width="1" stroke-dasharray="none" stroke-linejoin="miter" stroke-linecap="butt" stroke-dashoffset="" fill-rule="nonzero" opacity="1" marker-start="" marker-mid="" marker-end="" d="M294,415 C294,406.71270718232046 299.81767955801104,400 307,400 C314.18232044198896,400 320,406.71270718232046 320,415 C320,423.28729281767954 314.18232044198896,430 307,430 C299.81767955801104,430 294,423.28729281767954 294,415 Z" id="svg_69"/><path fill="#b24c24" fill-opacity="1" stroke="none" stroke-opacity="1" stroke-width="1" stroke-dasharray="none" stroke-linejoin="miter" stroke-linecap="butt" stroke-dashoffset="" fill-rule="nonzero" opacity="1" marker-start="" marker-mid="" marker-end="" d="M314,408.5 C314,403.80386740331494 314.67127071823205,400 315.5,400 C316.32872928176795,400 317,403.80386740331494 317,408.5 C317,413.19613259668506 316.32872928176795,417 315.5,417 C314.67127071823205,417 314,413.19613259668506 314,408.5 Z" id="svg_71"/><path fill="#b24c24" fill-opacity="1" stroke="none" stroke-opacity="1" stroke-width="1" stroke-dasharray="none" stroke-linejoin="miter" stroke-linecap="butt" stroke-dashoffset="" fill-rule="nonzero" opacity="1" marker-start="" marker-mid="" marker-end="" d="M313,403 C313,398.58011049723757 315.68508287292815,395 319,395 C322.31491712707185,395 325,398.58011049723757 325,403 C325,407.41988950276243 322.31491712707185,411 319,411 C315.68508287292815,411 313,407.41988950276243 313,403 Z" id="svg_73"/><path fill="#b24c24" fill-opacity="1" stroke="none" stroke-opacity="1" stroke-width="1" stroke-dasharray="none" stroke-linejoin="miter" stroke-linecap="butt" stroke-dashoffset="" fill-rule="nonzero" opacity="1" marker-start="" marker-mid="" marker-end="" d="M322,196.5 C322,138.21270718232046 359.3674033149171,91 405.5,91 C451.6325966850829,91 489,138.21270718232046 489,196.5 C489,254.78729281767954 451.6325966850829,302 405.5,302 C359.3674033149171,302 322,254.78729281767954 322,196.5 Z" id="svg_75"/><path fill="#b24c24" fill-opacity="1" stroke="none" stroke-opacity="1" stroke-width="1" stroke-dasharray="none" stroke-linejoin="miter" stroke-linecap="butt" stroke-dashoffset="" fill-rule="nonzero" opacity="1" marker-start="" marker-mid="" marker-end="" d="M302,153.5 C302,110.68232044198895 320.5718232044199,76 343.5,76 C366.4281767955801,76 385,110.68232044198895 385,153.5 C385,196.31767955801104 366.4281767955801,231 343.5,231 C320.5718232044199,231 302,196.31767955801104 302,153.5 Z" id="svg_77"/><path fill="#b24c24" fill-opacity="1" stroke="none" stroke-opacity="1" stroke-width="1" stroke-dasharray="none" stroke-linejoin="miter" stroke-linecap="butt" stroke-dashoffset="" fill-rule="nonzero" opacity="1" marker-start="" marker-mid="" marker-end="" d="M301,49 C301,47.34254143646409 302.3425414364641,46 304,46 C305.6574585635359,46 307,47.34254143646409 307,49 C307,50.65745856353591 305.6574585635359,52 304,52 C302.3425414364641,52 301,50.65745856353591 301,49 Z" id="svg_79"/><path fill="#b24c24" fill-opacity="1" stroke="none" stroke-opacity="1" stroke-width="1" stroke-dasharray="none" stroke-linejoin="miter" stroke-linecap="butt" stroke-dashoffset="" fill-rule="nonzero" opacity="1" marker-start="" marker-mid="" marker-end="" d="M305,56.5 C305,52.35635359116022 309.02762430939225,49 314,49 C318.97237569060775,49 323,52.35635359116022 323,56.5 C323,60.64364640883978 318.97237569060775,64 314,64 C309.02762430939225,64 305,60.64364640883978 305,56.5 Z" id="svg_81"/><path fill="#b24c24" fill-opacity="1" stroke="none" stroke-opacity="1" stroke-width="1" stroke-dasharray="none" stroke-linejoin="miter" stroke-linecap="butt" stroke-dashoffset="" fill-rule="nonzero" opacity="1" marker-start="" marker-mid="" marker-end="" d="M304,53.5 C304,47.69889502762431 308.47513812154693,43 314,43 C319.52486187845307,43 324,47.69889502762431 324,53.5 C324,59.30110497237569 319.52486187845307,64 314,64 C308.47513812154693,64 304,59.30110497237569 304,53.5 Z" id="svg_83"/><path fill="#b24c24" fill-opacity="1" stroke="none" stroke-opacity="1" stroke-width="1" stroke-dasharray="none" stroke-linejoin="miter" stroke-linecap="butt" stroke-dashoffset="" fill-rule="nonzero" opacity="1" marker-start="" marker-mid="" marker-end="" d="M383,88 C383,62.585635359116026 397.76795580110496,42 416,42 C434.23204419889504,42 449,62.585635359116026 449,88 C449,113.41436464088397 434.23204419889504,134 416,134 C397.76795580110496,134 383,113.41436464088397 383,88 Z" id="svg_85"/><path fill="#b24c24" fill-opacity="1" stroke="none" stroke-opacity="1" stroke-width="1" stroke-dasharray="none" stroke-linejoin="miter" stroke-linecap="butt" stroke-dashoffset="" fill-rule="nonzero" opacity="1" marker-start="" marker-mid="" marker-end="" d="M406,45.5 C406,39.146408839779006 408.01381215469615,34 410.5,34 C412.98618784530385,34 415,39.146408839779006 415,45.5 C415,51.853591160220994 412.98618784530385,57 410.5,57 C408.01381215469615,57 406,51.853591160220994 406,45.5 Z" id="svg_87"/><path fill="#b24c24" fill-opacity="1" stroke="none" stroke-opacity="1" stroke-width="1" stroke-dasharray="none" stroke-linejoin="miter" stroke-linecap="butt" stroke-dashoffset="" fill-rule="nonzero" opacity="1" marker-start="" marker-mid="" marker-end="" d="M430,119 C430,91.37569060773481 443.20165745856355,69 459.5,69 C475.79834254143645,69 489,91.37569060773481 489,119 C489,146.6243093922652 475.79834254143645,169 459.5,169 C443.20165745856355,169 430,146.6243093922652 430,119 Z" id="svg_89"/><path fill="#b24c24" fill-opacity="1" stroke="none" stroke-opacity="1" stroke-width="1" stroke-dasharray="none" stroke-linejoin="miter" stroke-linecap="butt" stroke-dashoffset="" fill-rule="nonzero" opacity="1" marker-start="" marker-mid="" marker-end="" d="M431,78 C431,67.50276243093923 439.0552486187845,59 449,59 C458.9447513812155,59 467,67.50276243093923 467,78 C467,88.49723756906077 458.9447513812155,97 449,97 C439.0552486187845,97 431,88.49723756906077 431,78 Z" id="svg_4"/><path fill="#b24c24" fill-opacity="1" stroke="none" stroke-opacity="1" stroke-width="1" stroke-dasharray="none" stroke-linejoin="miter" stroke-linecap="butt" stroke-dashoffset="" fill-rule="nonzero" opacity="1" marker-start="" marker-mid="" marker-end="" d="M431,61 C431,55.47513812154696 433.9088397790055,51 437.5,51 C441.0911602209945,51 444,55.47513812154696 444,61 C444,66.52486187845304 441.0911602209945,71 437.5,71 C433.9088397790055,71 431,66.52486187845304 431,61 Z" id="svg_8"/><path fill="#b24c24" fill-opacity="1" stroke="none" stroke-opacity="1" stroke-width="1" stroke-dasharray="none" stroke-linejoin="miter" stroke-linecap="butt" stroke-dashoffset="" fill-rule="nonzero" opacity="1" marker-start="" marker-mid="" marker-end="" d="M435,59 C435,54.58011049723757 437.9088397790055,51 441.5,51 C445.0911602209945,51 448,54.58011049723757 448,59 C448,63.41988950276243 445.0911602209945,67 441.5,67 C437.9088397790055,67 435,63.41988950276243 435,59 Z" id="svg_12"/><path fill="#b24c24" fill-opacity="1" stroke="none" stroke-opacity="1" stroke-width="1" stroke-dasharray="none" stroke-linejoin="miter" stroke-linecap="butt" stroke-dashoffset="" fill-rule="nonzero" opacity="1" marker-start="" marker-mid="" marker-end="" d="M467,174.5 C467,146.04696132596686 474.3839779005525,123 483.5,123 C492.6160220994475,123 500,146.04696132596686 500,174.5 C500,202.95303867403314 492.6160220994475,226 483.5,226 C474.3839779005525,226 467,202.95303867403314 467,174.5 Z" id="svg_16"/><path fill="#b24c24" fill-opacity="1" stroke="none" stroke-opacity="1" stroke-width="1" stroke-dasharray="none" stroke-linejoin="miter" stroke-linecap="butt" stroke-dashoffset="" fill-rule="nonzero" opacity="1" marker-start="" marker-mid="" marker-end="" d="M471,125.5 C471,111.96408839779005 476.81767955801104,101 484,101 C491.18232044198896,101 497,111.96408839779005 497,125.5 C497,139.03591160220995 491.18232044198896,150 484,150 C476.81767955801104,150 471,139.03591160220995 471,125.5 Z" id="svg_20"/><path fill="#b24c24" fill-opacity="1" stroke="none" stroke-opacity="1" stroke-width="1" stroke-dasharray="none" stroke-linejoin="miter" stroke-linecap="butt" stroke-dashoffset="" fill-rule="nonzero" opacity="1" marker-start="" marker-mid="" marker-end="" d="M480,151.5 C480,135.20165745856355 484.9226519337017,122 491,122 C497.0773480662983,122 502,135.20165745856355 502,151.5 C502,167.79834254143645 497.0773480662983,181 491,181 C484.9226519337017,181 480,167.79834254143645 480,151.5 Z" id="svg_24"/><path fill="#b24c24" fill-opacity="1" stroke="none" stroke-opacity="1" stroke-width="1" stroke-dasharray="none" stroke-linejoin="miter" stroke-linecap="butt" stroke-dashoffset="" fill-rule="nonzero" opacity="1" marker-start="" marker-mid="" marker-end="" d="M480,165.5 C480,163.56629834254144 484.9226519337017,162 491,162 C497.0773480662983,162 502,163.56629834254144 502,165.5 C502,167.43370165745856 497.0773480662983,169 491,169 C484.9226519337017,169 480,167.43370165745856 480,165.5 Z" id="svg_28"/><path fill="#b24c24" fill-opacity="1" stroke="none" stroke-opacity="1" stroke-width="1" stroke-dasharray="none" stroke-linejoin="miter" stroke-linecap="butt" stroke-dashoffset="" fill-rule="nonzero" opacity="1" marker-start="" marker-mid="" marker-end="" d="M489,168 C489,154.7403314917127 491.9088397790055,144 495.5,144 C499.0911602209945,144 502,154.7403314917127 502,168 C502,181.2596685082873 499.0911602209945,192 495.5,192 C491.9088397790055,192 489,181.2596685082873 489,168 Z" id="svg_32"/><path fill="#b24c24" fill-opacity="1" stroke="none" stroke-opacity="1" stroke-width="1" stroke-dasharray="none" stroke-linejoin="miter" stroke-linecap="butt" stroke-dashoffset="" fill-rule="nonzero" opacity="1" marker-start="" marker-mid="" marker-end="" d="M317,336 C317,316.11049723756906 331.3204419889503,300 349,300 C366.6795580110497,300 381,316.11049723756906 381,336 C381,355.88950276243094 366.6795580110497,372 349,372 C331.3204419889503,372 317,355.88950276243094 317,336 Z" id="svg_36"/><path fill="#b24c24" fill-opacity="1" stroke="none" stroke-opacity="1" stroke-width="1" stroke-dasharray="none" stroke-linejoin="miter" stroke-linecap="butt" stroke-dashoffset="" fill-rule="nonzero" opacity="1" marker-start="" marker-mid="" marker-end="" d="M380,298.5 C380,283.85911602209944 387.8314917127072,272 397.5,272 C407.1685082872928,272 415,283.85911602209944 415,298.5 C415,313.14088397790056 407.1685082872928,325 397.5,325 C387.8314917127072,325 380,313.14088397790056 380,298.5 Z" id="svg_40"/><path fill="#b24c24" fill-opacity="1" stroke="none" stroke-opacity="1" stroke-width="1" stroke-dasharray="none" stroke-linejoin="miter" stroke-linecap="butt" stroke-dashoffset="" fill-rule="nonzero" opacity="1" marker-start="" marker-mid="" marker-end="" d="M351,318.5 C351,304.41160220994476 362.1878453038674,293 376,293 C389.8121546961326,293 401,304.41160220994476 401,318.5 C401,332.58839779005524 389.8121546961326,344 376,344 C362.1878453038674,344 351,332.58839779005524 351,318.5 Z" id="svg_44"/><path fill="#b24c24" fill-opacity="1" stroke="none" stroke-opacity="1" stroke-width="1" stroke-dasharray="none" stroke-linejoin="miter" stroke-linecap="butt" stroke-dashoffset="" fill-rule="nonzero" opacity="1" marker-start="" marker-mid="" marker-end="" d="M393,300.5 C393,291.93646408839777 399.71270718232046,285 408,285 C416.28729281767954,285 423,291.93646408839777 423,300.5 C423,309.06353591160223 416.28729281767954,316 408,316 C399.71270718232046,316 393,309.06353591160223 393,300.5 Z" id="svg_48"/><path fill="#b24c24" fill-opacity="1" stroke="none" stroke-opacity="1" stroke-width="1" stroke-dasharray="none" stroke-linejoin="miter" stroke-linecap="butt" stroke-dashoffset="" fill-rule="nonzero" opacity="1" marker-start="" marker-mid="" marker-end="" d="M375,341.5 C375,337.3563535911602 376.5662983425414,334 378.5,334 C380.4337016574586,334 382,337.3563535911602 382,341.5 C382,345.6436464088398 380.4337016574586,349 378.5,349 C376.5662983425414,349 375,345.6436464088398 375,341.5 Z" id="svg_52"/><path fill="#b24c24" fill-opacity="1" stroke="none" stroke-opacity="1" stroke-width="1" stroke-dasharray="none" stroke-linejoin="miter" stroke-linecap="butt" stroke-dashoffset="" fill-rule="nonzero" opacity="1" marker-start="" marker-mid="" marker-end="" d="M37,99.5 C37,76.01933701657458 56.46685082872928,57 80.5,57 C104.53314917127072,57 124,76.01933701657458 124,99.5 C124,122.98066298342542 104.53314917127072,142 80.5,142 C56.46685082872928,142 37,122.98066298342542 37,99.5 Z" id="svg_56"/><path fill="#b24c24" fill-opacity="1" stroke="none" stroke-opacity="1" stroke-width="1" stroke-dasharray="none" stroke-linejoin="miter" stroke-linecap="butt" stroke-dashoffset="" fill-rule="nonzero" opacity="1" marker-start="" marker-mid="" marker-end="" d="M57,66 C57,52.187845303867405 75.57182320441989,41 98.5,41 C121.42817679558011,41 140,52.187845303867405 140,66 C140,79.8121546961326 121.42817679558011,91 98.5,91 C75.57182320441989,91 57,79.8121546961326 57,66 Z" id="svg_60"/><path fill="#b24c24" fill-opacity="1" stroke="none" stroke-opacity="1" stroke-width="1" stroke-dasharray="none" stroke-linejoin="miter" stroke-linecap="butt" stroke-dashoffset="" fill-rule="nonzero" opacity="1" marker-start="" marker-mid="" marker-end="" d="M97,45 C97,37.81767955801105 111.99171270718232,32 130.5,32 C149.00828729281767,32 164,37.81767955801105 164,45 C164,52.18232044198895 149.00828729281767,58 130.5,58 C111.99171270718232,58 97,52.18232044198895 97,45 Z" id="svg_64"/><path fill="#b24c24" fill-opacity="1" stroke="none" stroke-opacity="1" stroke-width="1" stroke-dasharray="none" stroke-linejoin="miter" stroke-linecap="butt" stroke-dashoffset="" fill-rule="nonzero" opacity="1" marker-start="" marker-mid="" marker-end="" d="M144,41 C144,34.92265193370166 150.26519337016575,30 158,30 C165.73480662983425,30 172,34.92265193370166 172,41 C172,47.07734806629834 165.73480662983425,52 158,52 C150.26519337016575,52 144,47.07734806629834 144,41 Z" id="svg_68"/><path fill="#b24c24" fill-opacity="1" stroke="none" stroke-opacity="1" stroke-width="1" stroke-dasharray="none" stroke-linejoin="miter" stroke-linecap="butt" stroke-dashoffset="" fill-rule="nonzero" opacity="1" marker-start="" marker-mid="" marker-end="" d="M11,154 C11,130.79558011049724 22.85911602209945,112 37.5,112 C52.14088397790055,112 64,130.79558011049724 64,154 C64,177.20441988950276 52.14088397790055,196 37.5,196 C22.85911602209945,196 11,177.20441988950276 11,154 Z" id="svg_72"/><path fill="#b24c24" fill-opacity="1" stroke="none" stroke-opacity="1" stroke-width="1" stroke-dasharray="none" stroke-linejoin="miter" stroke-linecap="butt" stroke-dashoffset="" fill-rule="nonzero" opacity="1" marker-start="" marker-mid="" marker-end="" d="M27,102.5 C27,90.06906077348066 33.26519337016575,80 41,80 C48.73480662983425,80 55,90.06906077348066 55,102.5 C55,114.93093922651934 48.73480662983425,125 41,125 C33.26519337016575,125 27,114.93093922651934 27,102.5 Z" id="svg_76"/><path fill="#b24c24" fill-opacity="1" stroke="none" stroke-opacity="1" stroke-width="1" stroke-dasharray="none" stroke-linejoin="miter" stroke-linecap="butt" stroke-dashoffset="" fill-rule="nonzero" opacity="1" marker-start="" marker-mid="" marker-end="" d="M18,115.5 C18,106.38397790055248 24.712707182320443,99 33,99 C41.28729281767956,99 48,106.38397790055248 48,115.5 C48,124.61602209944752 41.28729281767956,132 33,132 C24.712707182320443,132 18,124.61602209944752 18,115.5 Z" id="svg_80"/><path fill="#b24c24" fill-opacity="1" stroke="none" stroke-opacity="1" stroke-width="1" stroke-dasharray="none" stroke-linejoin="miter" stroke-linecap="butt" stroke-dashoffset="" fill-rule="nonzero" opacity="1" marker-start="" marker-mid="" marker-end="" d="M14,128.5 C14,121.5939226519337 18.69889502762431,116 24.5,116 C30.30110497237569,116 35,121.5939226519337 35,128.5 C35,135.4060773480663 30.30110497237569,141 24.5,141 C18.69889502762431,141 14,135.4060773480663 14,128.5 Z" id="svg_84"/><path fill="#b24c24" fill-opacity="1" stroke="none" stroke-opacity="1" stroke-width="1" stroke-dasharray="none" stroke-linejoin="miter" stroke-linecap="butt" stroke-dashoffset="" fill-rule="nonzero" opacity="1" marker-start="" marker-mid="" marker-end="" d="M8,179 C8,164.08287292817678 16.27900552486188,152 26.5,152 C36.72099447513812,152 45,164.08287292817678 45,179 C45,193.91712707182322 36.72099447513812,206 26.5,206 C16.27900552486188,206 8,193.91712707182322 8,179 Z" id="svg_88"/><path fill="#b24c24" fill-opacity="1" stroke="none" stroke-opacity="1" stroke-width="1" stroke-dasharray="none" stroke-linejoin="miter" stroke-linecap="butt" stroke-dashoffset="" fill-rule="nonzero" opacity="1" marker-start="" marker-mid="" marker-end="" d="M6,166 C6,161.58011049723757 9.132596685082873,158 13,158 C16.867403314917127,158 20,161.58011049723757 20,166 C20,170.41988950276243 16.867403314917127,174 13,174 C9.132596685082873,174 6,170.41988950276243 6,166 Z" id="svg_91"/></g></svg>