<svg xmlns="http://www.w3.org/2000/svg" width="24" height="24" viewBox="0 0 24 24">
  <g stroke="#ffffff">
    <path fill-rule="evenodd" d="M23.148 19.732l-1.322-1.322c-.664-.664-1.745-.666-2.41-.001l-.917.917c-.664.664-.663 1.745.002 2.41l1.32 1.321c-1.21.175-2.437-.22-3.324-1.107-1.117-1.118-1.455-2.786-.86-4.251.062-.153.02-.321-.09-.431l-3.332-3.332-.01.01-2.146-2.154L6.73 8.451c-.11-.109-.276-.15-.428-.088-1.465.595-3.134.257-4.251-.86C1.165 6.617.769 5.39.943 4.178l1.322 1.321c.322.322.75.5 1.205.5.456 0 .884-.177 1.205-.498l.917-.917c.322-.322.499-.75.498-1.205 0-.455-.178-.883-.5-1.205L4.268.852c1.21-.176 2.439.22 3.326 1.108 1.115 1.115 1.453 2.778.863 4.24l-.008.026c-.013.038-.02.075-.022.113l-.002.025c0 .044.01.088.025.129l.005.018c.02.047.048.09.085.126v.001l.001.001.001.001 3.565 3.565-.018.017.566.56 6.71-6.708v-.002c.036-.036.064-.078.083-.125l.004-.008c.017-.043.026-.089.027-.136v-.018-.019l-.083-1.202L22.408.893l.7.699-1.672 3.012-1.202-.084H20.2c-.111 0-.212.048-.283.126l-6.698 6.697.566.56.01-.01 2.561 2.562 1.003 1.003.002.002h.002c.006.008.016.01.023.016.031.027.065.053.103.069.006.003.012.003.018.005.04.015.084.025.129.025l.007.002.019-.003c.037-.002.075-.01.112-.022.008-.004.017-.005.026-.009 1.462-.59 3.125-.25 4.24.864.888.887 1.284 2.115 1.108 3.325m-11.58-3.76l-7.05 7.05c-.234.234-.642.233-.876 0L.978 20.358c-.117-.117-.18-.273-.18-.438 0-.166.064-.321.18-.438l7.05-7.05c.117-.117.272-.182.438-.182.165 0 .32.065.437.18l2.665 2.665c.117.118.181.273.181.439 0 .165-.064.32-.181.438m6.176-1.256L14.36 11.33l6.002-6.002 1.272.089h.028c.144 0 .278-.077.348-.204l1.94-3.497c.087-.156.06-.35-.066-.476L22.76.117c-.126-.126-.32-.153-.475-.067l-3.498 1.94c-.135.076-.214.223-.204.377l.09 1.272-6.003 6.002-3.386-3.385c.581-1.698.154-3.58-1.127-4.86C6.893.132 5.054-.308 3.356.248l-.017.008-.018.008c-.044.02-.084.045-.117.077l-.006.004-.005.008c-.032.034-.059.073-.077.117l-.007.017c-.016.042-.024.086-.026.131v.019c.002.037.006.076.018.114l.008.017.008.018c.02.044.046.083.077.116.003.002.003.004.004.006l1.829 1.83c.172.17.267.399.267.641s-.095.47-.266.64l-.917.918c-.17.171-.398.266-.64.266s-.47-.096-.642-.267L.999 3.107c0-.002-.003-.002-.005-.004C.96 3.071.92 3.045.877 3.026L.86 3.018.842 3.01c-.038-.012-.076-.017-.114-.017H.709c-.045 0-.089.01-.13.025l-.019.007c-.043.019-.082.045-.116.077l-.008.005-.004.007c-.032.033-.057.071-.077.115-.002.007-.006.012-.008.02l-.008.016C-.215 4.964.224 6.804 1.487 8.066c.904.905 2.107 1.384 3.335 1.384.51 0 1.024-.088 1.524-.259l2.277 2.278c-.052-.006-.103-.015-.157-.015-.379 0-.734.147-1.002.415l-7.05 7.05C.148 19.185 0 19.541 0 19.92c0 .378.147.734.415 1.002l2.663 2.663c.268.268.624.415 1.002.415.379 0 .734-.147 1.002-.415l7.05-7.049c.267-.268.414-.624.414-1.002 0-.053-.01-.105-.015-.158l2.276 2.276c-.581 1.699-.154 3.58 1.127 4.861.901.902 2.098 1.384 3.326 1.384.492 0 .989-.077 1.474-.236.007-.002.012-.006.018-.008l.018-.008c.044-.019.084-.045.117-.077l.005-.004c.003-.002.004-.005.006-.008.032-.034.058-.073.077-.116l.007-.018c.016-.041.024-.085.026-.13v-.02c-.002-.037-.006-.076-.019-.113l-.008-.018-.007-.018c-.02-.044-.046-.084-.078-.117l-.004-.005-1.828-1.829c-.354-.354-.355-.93-.001-1.283l.917-.917c.353-.354.929-.353 1.283.001l1.828 1.829.006.003c.033.033.073.058.117.078.006.003.011.006.018.008.005.002.01.006.017.008.041.014.083.02.124.02.048 0 .093-.011.137-.027.013-.005.024-.012.037-.019.031-.015.06-.034.087-.058.007-.005.015-.007.02-.013.006-.006.008-.013.013-.02.023-.024.042-.053.057-.085.007-.014.016-.026.02-.04l.008-.013c.556-1.697.116-3.537-1.148-4.801-1.28-1.28-3.162-1.707-4.86-1.127" opacity=".8"></path>
  </g>
</svg>
