<svg width="12" height="12" viewBox="0 0 12 12" fill="none" xmlns="http://www.w3.org/2000/svg">
    <path d="M1.96715 9.68188C1.45186 9.18419 1.04084 8.58886 0.758086 7.93063C0.47533 7.2724 0.326497 6.56444 0.320272 5.84807C0.314047 5.1317 0.450554 4.42127 0.721829 3.75822C0.993104 3.09517 1.39371 2.49279 1.90028 1.98622C2.40685 1.47965 3.00923 1.07904 3.67228 0.807766C4.33533 0.536492 5.04576 0.399985 5.76213 0.40621C6.4785 0.412435 7.18646 0.561267 7.84469 0.844024C8.50293 1.12678 9.09826 1.5378 9.59594 2.05309C10.5787 3.07064 11.1225 4.43347 11.1102 5.84807C11.0979 7.26267 10.5305 8.61585 9.53022 9.61616C8.52991 10.6165 7.17673 11.1839 5.76213 11.1962C4.34753 11.2085 2.9847 10.6647 1.96715 9.68188ZM8.83522 8.92116C9.64511 8.11128 10.1001 7.01284 10.1001 5.86749C10.1001 4.72214 9.64511 3.6237 8.83522 2.81381C8.02534 2.00393 6.9269 1.54894 5.78155 1.54894C4.6362 1.54894 3.53776 2.00393 2.72788 2.81381C1.91799 3.6237 1.463 4.72214 1.463 5.86749C1.463 7.01284 1.91799 8.11128 2.72788 8.92116C3.53776 9.73104 4.6362 10.186 5.78155 10.186C6.9269 10.186 8.02534 9.73104 8.83522 8.92116ZM5.24203 5.32797H6.32107V8.56508H5.24203V5.32797ZM5.24203 3.16989H6.32107V4.24893H5.24203V3.16989Z" fill="#F1BC2A"/>
</svg>
    