<svg width="12" height="10" viewBox="0 0 12 10" fill="none" xmlns="http://www.w3.org/2000/svg">
<path d="M0.812668 4.50875H5.68868V5.32142H0.812668V4.50875ZM0 2.47708H4.06334V3.28975H0V2.47708Z" fill="#FDC100"/>
<path d="M11.3444 4.75499L10.1254 1.91065C10.0942 1.83754 10.0421 1.77523 9.97571 1.73146C9.90932 1.68768 9.83154 1.66437 9.75202 1.66441H8.53302V0.851742C8.53302 0.743976 8.49021 0.640623 8.41401 0.564421C8.3378 0.488218 8.23445 0.445408 8.12668 0.445408H1.62534V1.25808H7.72035V6.36001C7.5352 6.46752 7.37316 6.61063 7.24358 6.78107C7.11401 6.95152 7.01945 7.14593 6.96538 7.35309H4.41198C4.31308 6.97006 4.07788 6.63624 3.75046 6.41421C3.42305 6.19219 3.0259 6.0972 2.63345 6.14704C2.24101 6.19689 1.88022 6.38815 1.6187 6.68498C1.35719 6.98181 1.21291 7.36383 1.21291 7.75943C1.21291 8.15502 1.35719 8.53704 1.6187 8.83387C1.88022 9.1307 2.24101 9.32196 2.63345 9.37181C3.0259 9.42165 3.42305 9.32666 3.75046 9.10464C4.07788 8.88261 4.31308 8.54879 4.41198 8.16576H6.96538C7.05377 8.51449 7.25592 8.82379 7.53985 9.04473C7.82377 9.26567 8.17326 9.38563 8.53302 9.38563C8.89278 9.38563 9.24226 9.26567 9.52619 9.04473C9.81011 8.82379 10.0123 8.51449 10.1007 8.16576H10.971C11.0788 8.16576 11.1821 8.12295 11.2583 8.04675C11.3345 7.97055 11.3774 7.86719 11.3774 7.75943V4.91509C11.3774 4.86004 11.3662 4.80556 11.3444 4.75499ZM2.84434 8.57209C2.68361 8.57209 2.52649 8.52443 2.39285 8.43513C2.2592 8.34584 2.15504 8.21892 2.09353 8.07042C2.03202 7.92192 2.01593 7.75852 2.04729 7.60088C2.07864 7.44324 2.15604 7.29844 2.2697 7.18478C2.38335 7.07113 2.52815 6.99373 2.6858 6.96237C2.84344 6.93102 3.00684 6.94711 3.15533 7.00862C3.30383 7.07013 3.43075 7.17429 3.52005 7.30793C3.60935 7.44157 3.65701 7.59869 3.65701 7.75943C3.65679 7.97489 3.5711 8.18147 3.41875 8.33383C3.26639 8.48619 3.05981 8.57188 2.84434 8.57209ZM8.53302 2.47708H9.48384L10.355 4.50875H8.53302V2.47708ZM8.53302 8.57209C8.37229 8.57209 8.21517 8.52443 8.08152 8.43513C7.94788 8.34584 7.84372 8.21892 7.78221 8.07042C7.7207 7.92192 7.70461 7.75852 7.73596 7.60088C7.76732 7.44324 7.84472 7.29844 7.95837 7.18478C8.07203 7.07113 8.21683 6.99373 8.37447 6.96237C8.53212 6.93102 8.69552 6.94711 8.84401 7.00862C8.99251 7.07013 9.11943 7.17429 9.20873 7.30793C9.29802 7.44157 9.34569 7.59869 9.34569 7.75943C9.34547 7.97489 9.25978 8.18147 9.10742 8.33383C8.95506 8.48619 8.74848 8.57188 8.53302 8.57209ZM10.5647 7.35309H10.1007C10.0111 7.00504 9.80868 6.69653 9.52498 6.47592C9.24128 6.25531 8.89239 6.13509 8.53302 6.13409V5.32142H10.5647V7.35309Z" fill="#FDC100"/>
</svg>
