<svg width="11" height="12" viewBox="0 0 11 12" fill="none" xmlns="http://www.w3.org/2000/svg">
<path d="M0.641667 11.4156C0.539815 11.4156 0.43287 11.4132 0.320833 11.4083C0.208796 11.403 0.101852 11.3953 0 11.3851V7.81009L3.05556 7.19898L4.82778 8.9712C5.60185 8.50269 6.31237 7.94759 6.95933 7.30593C7.60589 6.66426 8.14305 5.97676 8.57083 5.24343L6.82917 3.48648L7.39444 0.415649H10.9694C10.9898 0.517501 11 0.624446 11 0.736483V1.05732C11 2.37121 10.7071 3.65189 10.1212 4.89937C9.53578 6.14726 8.7617 7.255 7.799 8.22259C6.8367 9.19019 5.73182 9.96426 4.48433 10.5448C3.23644 11.1254 1.95556 11.4156 0.641667 11.4156Z" fill="#FDC100"/>
</svg>
