<svg width="12" height="15" viewBox="0 0 12 15" fill="none" xmlns="http://www.w3.org/2000/svg">
<path fill-rule="evenodd" clip-rule="evenodd" d="M3.25487 2.36623C2.68892 2.75871 2.22655 3.28254 1.90736 3.89284C1.58818 4.50314 1.42169 5.18172 1.42217 5.87045C1.42217 7.38554 2.211 8.71669 3.40373 9.47518C3.89485 9.78616 4.28452 10.3503 4.25892 11.0301V11.0377L4.10343 14.2015C4.10046 14.2959 4.07873 14.3887 4.0395 14.4746C4.00028 14.5605 3.94434 14.6377 3.87496 14.7017C3.80558 14.7657 3.72414 14.8153 3.6354 14.8475C3.54666 14.8798 3.45239 14.894 3.35809 14.8894C3.26379 14.8848 3.17135 14.8615 3.08616 14.8208C3.00097 14.7801 2.92474 14.7228 2.86192 14.6523C2.79909 14.5819 2.75093 14.4996 2.72024 14.4103C2.68955 14.321 2.67694 14.2265 2.68316 14.1323L2.8377 10.9751C2.8396 10.8945 2.7903 10.7703 2.64144 10.6755C1.83172 10.1623 1.16494 9.45259 0.703117 8.61248C0.241292 7.77238 -0.000578092 6.82913 1.03755e-06 5.87045C-0.000351479 4.95433 0.220782 4.05169 0.644556 3.23947C1.06833 2.42725 1.68218 1.72952 2.43381 1.20573C2.6636 1.04034 2.938 0.948228 3.22104 0.941461C3.50408 0.934693 3.78257 1.01359 4.02 1.16781C4.45803 1.44845 4.74057 1.9519 4.74057 2.51698V5.19065C4.74057 5.2684 4.77944 5.34235 4.84486 5.38597L5.55594 5.8695C5.59514 5.896 5.64137 5.91016 5.68868 5.91016C5.73599 5.91016 5.78222 5.896 5.82142 5.8695L6.5325 5.38597C6.5646 5.36427 6.59089 5.33503 6.60907 5.30082C6.62726 5.2666 6.63677 5.22845 6.63679 5.18971V2.51698C6.63679 1.9519 6.91933 1.44845 7.35736 1.16781C7.59479 1.01359 7.87328 0.934693 8.15632 0.941461C8.43936 0.948228 8.71376 1.04034 8.94355 1.20573C9.69517 1.72952 10.309 2.42725 10.7328 3.23947C11.1566 4.05169 11.3777 4.95433 11.3774 5.87045C11.3779 6.82913 11.1361 7.77238 10.6742 8.61248C10.2124 9.45259 9.54564 10.1623 8.73591 10.6755C8.58706 10.7703 8.53776 10.8936 8.53965 10.9741L8.6942 14.1314C8.70028 14.2255 8.68759 14.3198 8.65686 14.409C8.62614 14.4981 8.57799 14.5802 8.51522 14.6506C8.45245 14.721 8.37631 14.7781 8.29124 14.8188C8.20616 14.8595 8.11385 14.8828 8.01968 14.8875C7.9255 14.8921 7.83134 14.878 7.74268 14.8459C7.65401 14.8138 7.57261 14.7644 7.50321 14.7006C7.43381 14.6368 7.3778 14.5598 7.33844 14.4741C7.29907 14.3884 7.27714 14.2958 7.27392 14.2015L7.11843 11.0301C7.09283 10.3503 7.48251 9.78616 7.97363 9.47518C8.58121 9.09029 9.08152 8.55792 9.42799 7.92765C9.77446 7.29737 9.95582 6.58968 9.95519 5.87045C9.95567 5.18172 9.78918 4.50314 9.47 3.89284C9.15081 3.28254 8.68844 2.75871 8.12249 2.36623C8.09973 2.38234 8.05896 2.42975 8.05896 2.51792V5.18971C8.05899 5.46051 7.99273 5.72721 7.86597 5.96651C7.73921 6.20582 7.5558 6.41046 7.33176 6.56257L6.62067 7.04611C6.34571 7.2328 6.02103 7.3326 5.68868 7.3326C5.35633 7.3326 5.03164 7.2328 4.75668 7.04611L4.0456 6.56257C3.82155 6.41046 3.63815 6.20582 3.51139 5.96651C3.38463 5.72721 3.31837 5.46051 3.3184 5.18971V2.51698C3.3184 2.42975 3.27763 2.38234 3.25487 2.36623Z" fill="#FDC100"/>
</svg>
