<svg width="13" height="11" viewBox="0 0 13 11" fill="none" xmlns="http://www.w3.org/2000/svg">
<path d="M4.79245 8.98687C4.79245 9.68504 4.22647 10.251 3.5283 10.251C2.83013 10.251 2.26415 9.68504 2.26415 8.98687M4.79245 8.98687C4.79245 8.2887 4.22647 7.72272 3.5283 7.72272C2.83013 7.72272 2.26415 8.2887 2.26415 8.98687M4.79245 8.98687H8.58491M2.26415 8.98687H1V2.03404C1 1.8664 1.06659 1.70563 1.18513 1.5871C1.30367 1.46856 1.46444 1.40197 1.63208 1.40197H7.32075V5.19442H4.16038M11.1132 8.98687C11.1132 9.68504 10.5472 10.251 9.84906 10.251C9.15088 10.251 8.58491 9.68504 8.58491 8.98687M11.1132 8.98687C11.1132 8.2887 10.5472 7.72272 9.84906 7.72272C9.15088 7.72272 8.58491 8.2887 8.58491 8.98687M11.1132 8.98687H12.3774V5.19442L10.4811 2.03404H7.32075M4.16038 5.19442L5.42453 6.45857M4.16038 5.19442L5.42453 3.93027" stroke="#FDC100" stroke-width="1.13774" stroke-linecap="round" stroke-linejoin="round"/>
</svg>
