<svg width="32" height="32" viewBox="0 0 32 32" fill="none" xmlns="http://www.w3.org/2000/svg">
<path d="M30 2V30H2V2H30ZM30 0H2C0.9 0 0 0.9 0 2V30C0 31.1 0.9 32 2 32H30C31.1 32 32 31.1 32 30V2C32 0.9 31.1 0 30 0Z" fill="#EDAC09"/>
<path d="M9 17C10.65 17 12 18.35 12 20C12 21.65 10.65 23 9 23C7.35 23 6 21.65 6 20C6 18.35 7.35 17 9 17ZM9 16C6.79 16 5 17.79 5 20C5 22.21 6.79 24 9 24C11.21 24 13 22.21 13 20C13 17.79 11.21 16 9 16Z" fill="#EDAC09"/>
<path d="M16 29C16.5523 29 17 28.5523 17 28C17 27.4477 16.5523 27 16 27C15.4477 27 15 27.4477 15 28C15 28.5523 15.4477 29 16 29Z" fill="#EDAC09"/>
<path d="M23 29C23.5523 29 24 28.5523 24 28C24 27.4477 23.5523 27 23 27C22.4477 27 22 27.4477 22 28C22 28.5523 22.4477 29 23 29Z" fill="#EDAC09"/>
<path d="M9 29C9.55228 29 10 28.5523 10 28C10 27.4477 9.55228 27 9 27C8.44772 27 8 27.4477 8 28C8 28.5523 8.44772 29 9 29Z" fill="#EDAC09"/>
<path d="M23 17C24.65 17 26 18.35 26 20C26 21.65 24.65 23 23 23C21.35 23 20 21.65 20 20C20 18.35 21.35 17 23 17ZM23 16C20.79 16 19 17.79 19 20C19 22.21 20.79 24 23 24C25.21 24 27 22.21 27 20C27 17.79 25.21 16 23 16Z" fill="#EDAC09"/>
<path opacity="0.5" d="M9 15V14" stroke="#EDAC09" stroke-miterlimit="3.864" stroke-linecap="round" stroke-linejoin="round"/>
<path opacity="0.5" d="M23 15V14" stroke="#EDAC09" stroke-miterlimit="3.864" stroke-linecap="round" stroke-linejoin="round"/>
<path opacity="0.5" d="M14.8691 7.5H17.1191" stroke="#EDAC09" stroke-miterlimit="3.864" stroke-linecap="round" stroke-linejoin="round"/>
<path opacity="0.5" d="M14.8691 21.5H17.1191" stroke="#EDAC09" stroke-miterlimit="3.864" stroke-linecap="round" stroke-linejoin="round"/>
<path d="M23 6C24.65 6 26 7.35 26 9C26 10.65 24.65 12 23 12C21.35 12 20 10.65 20 9C20 7.35 21.35 6 23 6ZM23 5C20.79 5 19 6.79 19 9C19 11.21 20.79 13 23 13C25.21 13 27 11.21 27 9C27 6.79 25.21 5 23 5Z" fill="#EDAC09"/>
<path d="M9 6C10.65 6 12 7.35 12 9C12 10.65 10.65 12 9 12C7.35 12 6 10.65 6 9C6 7.35 7.35 6 9 6ZM9 5C6.79 5 5 6.79 5 9C5 11.21 6.79 13 9 13C11.21 13 13 11.21 13 9C13 6.79 11.21 5 9 5Z" fill="#EDAC09"/>
</svg>
