<svg xmlns="http://www.w3.org/2000/svg" width="25" height="25" viewBox="0 0 25 25" fill="none" style="&#10;">
    <path fill-rule="evenodd" clip-rule="evenodd" d="M23.6201 0H1.38106C1.19841 0.00097896 1.01775 0.0375299 0.849424 0.107559C0.681103 0.177589 0.528427 0.27972 0.400142 0.408104C0.271857 0.536488 0.170483 0.688601 0.101828 0.855732C0.0331724 1.02286 -0.00141579 1.20172 4.44336e-05 1.38207V23.6179C-0.00141591 23.7982 0.0331337 23.9769 0.101716 24.144C0.170299 24.3111 0.271568 24.4631 0.39973 24.5915C0.527891 24.7199 0.68043 24.822 0.848617 24.8921C1.0168 24.9622 1.19734 24.9989 1.37989 25H13.3535V15.318H10.0952V11.5449H13.3535V8.76293C13.3535 5.53406 15.3259 3.77652 18.2063 3.77652C19.1791 3.77306 20.1507 3.82259 21.1176 3.92509V7.29908H19.1196C17.5531 7.29908 17.2498 8.04367 17.2498 9.13551V11.5438H20.9858L20.4994 15.318H17.2498V24.9971H23.6201C23.8027 24.996 23.9832 24.9593 24.1514 24.8892C24.3196 24.8191 24.4721 24.717 24.6003 24.5886C24.7284 24.4602 24.8297 24.3082 24.8983 24.1411C24.9669 23.9741 25.0014 23.7953 25 23.615V1.38207C25.0014 1.20182 24.9669 1.02305 24.8983 0.855996C24.8297 0.688941 24.7284 0.536878 24.6003 0.40851C24.4721 0.280141 24.3196 0.177985 24.1514 0.107889C23.9832 0.037792 23.8027 0.00112984 23.6201 0V0Z" fill="white"/>
    </svg>