<svg width="96" height="23" viewBox="0 0 96 23" fill="none" xmlns="http://www.w3.org/2000/svg">
<path d="M15.1855 11.3279C15.1855 15.5862 17.2745 17.7555 21.4524 17.7555C25.5901 17.7555 27.7192 15.5862 27.7192 11.3279C27.7192 7.06968 25.6303 4.90039 21.4524 4.90039C17.2745 4.90039 15.1855 7.06968 15.1855 11.3279ZM18.2386 11.3279C18.2386 8.51588 19.1224 7.39106 21.4524 7.39106C23.7824 7.39106 24.6662 8.47571 24.6662 11.3279C24.6662 14.14 23.7824 15.2648 21.4524 15.2648C19.1224 15.2648 18.2386 14.1801 18.2386 11.3279Z" fill="black"/>
<path d="M53.0664 11.3279C53.0664 15.5862 55.1955 17.7555 59.3333 17.7555C63.471 17.7555 65.6001 15.5862 65.6001 11.3279C65.6001 7.06968 63.5111 4.90039 59.3333 4.90039C55.1955 4.90039 53.0664 7.06968 53.0664 11.3279ZM56.1195 11.3279C56.1195 8.51588 57.0033 7.39106 59.2931 7.39106C61.6231 7.39106 62.5068 8.47571 62.5068 11.3279C62.5068 14.14 61.6231 15.2648 59.2931 15.2648C57.0033 15.2648 56.1195 14.1801 56.1195 11.3279Z" fill="black"/>
<path d="M88.0176 2.25035V13.9003C88.0176 16.2704 89.4236 17.5157 92.1553 17.5157H94.8067C95.4896 17.5157 95.7708 16.9132 95.7708 16.3507C95.7708 15.7482 95.4494 15.1456 94.8067 15.1456H93.2801C91.8741 15.1456 91.151 15.0652 91.151 13.4182V7.7941H94.6058C95.2887 7.7941 95.5699 7.19151 95.5699 6.58893C95.5699 6.02652 95.2485 5.42394 94.6058 5.42394H91.151V2.25035C91.151 1.44691 90.5886 0.964844 89.6646 0.964844C88.9014 0.964844 88.0176 1.28622 88.0176 2.25035Z" fill="black"/>
<path d="M30.0488 2.25035V13.9003C30.0488 16.2704 31.495 17.5157 34.1866 17.5157H36.8379C37.5208 17.5157 37.802 16.9132 37.802 16.3507C37.802 15.7482 37.4807 15.1456 36.8379 15.1456H35.3114C33.9053 15.1456 33.1823 15.0652 33.1823 13.4182V7.7941H36.637C37.32 7.7941 37.6012 7.19151 37.6012 6.58893C37.6012 6.02652 37.2798 5.42394 36.637 5.42394H33.1823V2.25035C33.1823 1.44691 32.6198 0.964844 31.6557 0.964844C30.8924 0.964844 30.0488 1.28622 30.0488 2.25035Z" fill="black"/>
<path d="M78.8577 5.18164C75.2824 5.18164 73.7559 6.58766 73.7559 9.92195V16.229C73.7559 17.0324 74.3183 17.4743 75.3226 17.4743C76.2867 17.4743 76.8893 16.9922 76.8893 16.229V10.1228C76.8893 8.35524 77.2107 7.79283 79.1389 7.79283H80.0227C81.951 7.79283 82.2723 8.35524 82.2723 10.1228V16.229C82.2723 17.0324 82.8348 17.4743 83.8391 17.4743C84.8032 17.4743 85.4058 16.9922 85.4058 16.229V9.92195C85.4058 6.58766 83.8792 5.18164 80.3039 5.18164H78.8577Z" fill="black"/>
<path d="M67.9316 6.50843V16.1497C67.9316 17.154 68.7351 17.5156 69.4984 17.5156C70.2616 17.5156 71.0651 17.154 71.0651 16.1497V6.50843C71.0651 5.50413 70.2616 5.14258 69.4984 5.14258C68.7351 5.14258 67.9316 5.50413 67.9316 6.50843Z" fill="black"/>
<path d="M67.7305 1.76757C67.7305 2.7317 68.5339 3.53514 69.498 3.53514C70.4622 3.53514 71.2656 2.7317 71.2656 1.76757C71.2656 0.803441 70.4622 0 69.498 0C68.5339 0 67.7305 0.803441 67.7305 1.76757Z" fill="black"/>
<path d="M41.3783 5.54188C40.1732 5.82308 39.4902 6.58635 39.4902 7.91203V21.2893C39.4902 22.2535 40.2937 22.5748 41.0569 22.5748C41.8202 22.5748 42.6237 22.2535 42.6237 21.2893V17.3926C43.3468 17.5533 44.0297 17.6337 44.8733 17.6337C46.7614 17.6337 47.7657 17.3123 48.8503 16.6695C50.4572 15.7054 51.3812 13.9378 51.3812 11.5275C51.3812 7.34962 49.252 5.2205 45.034 5.2205C43.869 5.18033 42.463 5.30085 41.3783 5.54188ZM42.6237 14.9421V7.91203C43.2664 7.79152 44.0698 7.71117 44.8331 7.71117C47.2836 7.71117 48.2879 8.63513 48.2879 11.2061C48.2879 14.1387 47.4443 15.143 44.7929 15.143C44.0297 15.143 43.1459 15.1028 42.6237 14.9421Z" fill="black"/>
<path d="M9.76181 1.88707V7.55133H3.09325V1.88707C3.09325 1.08363 2.53084 0.601562 1.60688 0.601562C0.883786 0.601562 0 0.922939 0 1.88707V16.2285C0 17.0319 0.562409 17.514 1.52654 17.514C2.28981 17.514 3.13342 17.1926 3.13342 16.2285V10.3634H9.80199V16.1883C9.80199 16.9918 10.3644 17.4738 11.3285 17.4738C12.0516 17.4738 12.9354 17.1525 12.9354 16.1883V1.88707C12.9354 1.08363 12.373 0.601562 11.4089 0.601562C10.6054 0.601562 9.76181 0.922939 9.76181 1.88707Z" fill="black"/>
</svg>
