<svg width="106" height="121" viewBox="0 0 106 121" fill="none" xmlns="http://www.w3.org/2000/svg">
<path d="M7.506 108.836C7.50534 110.315 7.79608 111.78 8.3616 113.146C8.92713 114.513 9.75636 115.755 10.8019 116.801C11.8475 117.847 13.0889 118.676 14.4552 119.243C15.8215 119.809 17.286 120.1 18.765 120.1H86.318C89.3041 120.1 92.1678 118.914 94.2793 116.802C96.3908 114.691 97.577 111.827 97.577 108.841V30.024H7.506V108.836ZM71.306 48.788C71.306 47.7927 71.7014 46.8381 72.4052 46.1343C73.1091 45.4304 74.0636 45.035 75.059 45.035C76.0544 45.035 77.0089 45.4304 77.7128 46.1343C78.4166 46.8381 78.812 47.7927 78.812 48.788V101.33C78.812 102.325 78.4166 103.28 77.7128 103.984C77.0089 104.688 76.0544 105.083 75.059 105.083C74.0636 105.083 73.1091 104.688 72.4052 103.984C71.7014 103.28 71.306 102.325 71.306 101.33V48.788ZM48.788 48.788C48.788 47.7927 49.1834 46.8381 49.8872 46.1343C50.5911 45.4304 51.5456 45.035 52.541 45.035C53.5364 45.035 54.4909 45.4304 55.1948 46.1343C55.8986 46.8381 56.294 47.7927 56.294 48.788V101.33C56.294 102.325 55.8986 103.28 55.1948 103.984C54.4909 104.688 53.5364 105.083 52.541 105.083C51.5456 105.083 50.5911 104.688 49.8872 103.984C49.1834 103.28 48.788 102.325 48.788 101.33V48.788ZM26.27 48.788C26.27 48.2952 26.3671 47.8072 26.5557 47.3518C26.7443 46.8965 27.0207 46.4828 27.3692 46.1343C27.7177 45.7858 28.1315 45.5093 28.5868 45.3207C29.0421 45.1321 29.5301 45.035 30.023 45.035C30.5159 45.035 31.0039 45.1321 31.4592 45.3207C31.9145 45.5093 32.3283 45.7858 32.6768 46.1343C33.0253 46.4828 33.3017 46.8965 33.4903 47.3518C33.6789 47.8072 33.776 48.2952 33.776 48.788V101.33C33.776 102.325 33.3806 103.28 32.6768 103.984C31.9729 104.688 31.0184 105.083 30.023 105.083C29.0276 105.083 28.0731 104.688 27.3692 103.984C26.6654 103.28 26.27 102.325 26.27 101.33V48.788ZM101.33 7.50604H73.183L70.983 3.12004C70.5157 2.18145 69.7954 1.39204 68.9035 0.840791C68.0116 0.289537 66.9835 -0.00165201 65.935 4.14926e-05H39.125C38.0797 -0.00399489 37.0543 0.286537 36.1665 0.838348C35.2786 1.39016 34.5642 2.18093 34.105 3.12004L31.9 7.50604H3.753C2.75764 7.50604 1.80305 7.90145 1.09923 8.60527C0.395404 9.30909 0 10.2637 0 11.259L0 18.765C0 19.7604 0.395404 20.715 1.09923 21.4188C1.80305 22.1226 2.75764 22.518 3.753 22.518H101.33C102.325 22.518 103.28 22.1226 103.984 21.4188C104.688 20.715 105.083 19.7604 105.083 18.765V11.259C105.083 10.2637 104.688 9.30909 103.984 8.60527C103.28 7.90145 102.325 7.50604 101.33 7.50604Z" fill="#0D436B"/>
</svg>
