<svg version="1.1" id="Ebene_1" xmlns="http://www.w3.org/2000/svg" xmlns:xlink="http://www.w3.org/1999/xlink" x="0px" y="0px" viewBox="0 0 56.7 56.7" style="enable-background:new 0 0 56.7 56.7;" xml:space="preserve">
<style type="text/css">
	.st0{fill:#197C83;}
</style>
<g>
	<path class="st0" d="M56.1,14.8c-0.6-0.8-1.5-1.3-2.5-1.3H19.9c-1,0-1.9,0.5-2.5,1.3c-0.6,0.8-0.8,1.8-0.5,2.8L20,27.6
		c0.4,1.3,1.6,2.3,3,2.3h27.4c1.4,0,2.6-0.9,3-2.2l3.1-10.2C56.8,16.6,56.7,15.6,56.1,14.8z M55.2,17.1l-3.1,10.2
		c-0.2,0.7-0.9,1.2-1.6,1.2H23c-0.8,0-1.4-0.5-1.6-1.2l-3.1-10.1c-0.2-0.5-0.1-1.1,0.3-1.5c0.3-0.4,0.8-0.7,1.3-0.7h33.7
		c0.5,0,1,0.2,1.3,0.7C55.2,16.1,55.3,16.6,55.2,17.1z"></path>
	<path class="st0" d="M9.3,11.3c-0.4-1.2-1.5-2-2.8-2H0.7C0.3,9.4,0,9.7,0,10.1c0,0.4,0.3,0.7,0.7,0.7h5.8c0.6,0,1.2,0.4,1.4,1
		l6.5,19c1,3,3.8,4.9,6.9,4.9h30.1c0.4,0,0.7-0.3,0.7-0.7c0-0.4-0.3-0.7-0.7-0.7H21.3c-2.5,0-4.7-1.6-5.5-4L9.3,11.3z"></path>
	<path class="st0" d="M51.4,47.3c2.2,0,4-1.8,4-4s-1.8-4-4-4s-4,1.8-4,4S49.2,47.3,51.4,47.3z M51.4,40.8c1.4,0,2.5,1.1,2.5,2.5
		s-1.1,2.5-2.5,2.5s-2.5-1.1-2.5-2.5S50,40.8,51.4,40.8z"></path>
	<path class="st0" d="M21,39.4c-2.2,0-4,1.8-4,4s1.8,4,4,4c2.2,0,4-1.8,4-4S23.2,39.4,21,39.4z M21,45.9c-1.4,0-2.5-1.1-2.5-2.5
		s1.1-2.5,2.5-2.5c1.4,0,2.5,1.1,2.5,2.5S22.4,45.9,21,45.9z"></path>
</g>
<desc>Created with Sketch.</desc>
</svg>