<svg width="106" height="28" viewBox="0 0 106 28" fill="none" xmlns="http://www.w3.org/2000/svg">
<path d="M14.0349 22.7107C13.2319 22.7107 12.6209 22.0823 12.6209 21.2269V7.99501C12.6209 7.13965 13.2319 6.51122 14.0349 6.51122C14.8379 6.51122 15.4489 7.13965 15.4489 7.99501V21.2269C15.4663 22.0648 14.8379 22.7107 14.0349 22.7107ZM20.581 2.05985C20.8604 2.05985 21.0873 2.12968 21.5586 2.42643C25.3117 4.81796 28.0698 9.07731 28.0698 14.0524C28.0698 17.9102 26.6209 21.4539 24.0025 24.0549C21.419 26.6035 17.8753 28 14.0175 28C10.1771 28 6.66833 26.586 4.03242 24.0549C1.39651 21.5062 0 17.9277 0 14.0524C0 9.07731 2.77556 4.81796 6.51122 2.42643C7 2.11222 7.20948 2.05985 7.48878 2.05985C8.16958 2.05985 8.79801 2.56609 8.79801 3.33416C8.79801 3.92768 8.46633 4.29426 7.90773 4.69576C4.71322 6.80798 2.77556 10.1945 2.77556 14.1222C2.77556 17.3167 3.96259 20.2494 6.10973 22.3965C8.20449 24.4738 10.9801 25.6259 14.0349 25.6259C17.0898 25.6259 19.8653 24.4738 21.9601 22.3965C24.1247 20.2494 25.2943 17.3167 25.2943 14.1222C25.2943 10.1945 23.3566 6.80798 20.1621 4.66085C19.586 4.25935 19.2718 3.89277 19.2718 3.29925C19.2718 2.54863 19.8828 2.05985 20.581 2.05985ZM15.8678 1.83292C15.8678 2.84539 15.0299 3.66584 14.0349 3.66584C13.0224 3.66584 12.202 2.82793 12.202 1.83292C12.202 0.837905 13.0399 0 14.0349 0C15.0474 0 15.8678 0.837905 15.8678 1.83292Z" fill="#0063C0"/>
<path d="M36.3977 21.1911H34.2855C34.1284 21.1911 34.0586 21.1213 34.0586 20.9468V8.50037C34.0586 8.34326 34.1284 8.27344 34.2855 8.27344H36.3977C36.5199 8.27344 36.5898 8.34326 36.5898 8.50037V20.9642C36.5898 21.1388 36.5199 21.1911 36.3977 21.1911Z" fill="#0063C0"/>
<path d="M50.5014 21.1911H48.4416C48.2845 21.1911 48.2146 21.1213 48.2146 20.9642V13.7024C48.2146 11.4156 47.2894 10.5777 45.055 10.5777H42.2446C42.1398 10.5777 42.07 10.665 42.07 10.7522V20.9642C42.07 21.1213 42.0002 21.1911 41.8431 21.1911H39.7308C39.5912 21.1911 39.5039 21.1213 39.5039 20.9642V8.50037C39.5039 8.34326 39.5912 8.27344 39.7308 8.27344H45.2121C48.6161 8.27344 50.7109 9.89688 50.7109 13.1263V20.9817C50.7283 21.1388 50.6585 21.1911 50.5014 21.1911Z" fill="#0063C0"/>
<path d="M53.5391 8.50037C53.5391 8.34326 53.6263 8.27344 53.766 8.27344H57.4493C62.5291 8.27344 64.5889 11.2061 64.5889 14.7148C64.5889 18.2934 62.5815 21.1911 57.1874 21.1911H53.766C53.6438 21.1911 53.5391 21.1213 53.5391 20.9642V8.50037ZM56.2623 18.7996H58.0079C60.7311 18.7996 61.9181 17.0016 61.9181 14.7323C61.9181 12.463 60.7136 10.665 58.0603 10.665H56.2623C56.1575 10.665 56.0877 10.7522 56.0877 10.8395V18.6076C56.0877 18.7123 56.1575 18.7996 56.2623 18.7996Z" fill="#0063C0"/>
<path d="M77.5242 15.6743C77.4544 15.7616 77.2798 15.7791 77.1227 15.7791H69.1277C69.215 17.9437 70.8734 19.1831 73.5616 19.1831C74.836 19.1831 75.9357 18.8339 76.7562 18.5023C76.9831 18.415 77.0355 18.5197 77.0355 18.7816L77.0704 20.6319C77.0704 20.789 77.0355 20.8763 76.826 20.9462C76.023 21.2604 74.5392 21.4873 73.3522 21.4873C71.24 21.4873 69.5292 20.9462 68.3597 19.8639C67.0853 18.7292 66.4395 17.001 66.4395 14.8015C66.4395 10.7167 68.7611 7.90625 72.2001 7.90625C75.7437 7.90625 77.6988 10.612 77.6988 14.2604C77.7163 15.3077 77.6639 15.5172 77.5242 15.6743ZM75.1676 13.597C75.22 11.6245 74.0679 10.193 72.1302 10.193C70.3671 10.193 69.1452 11.5721 69.0754 13.597H75.1676Z" fill="#0063C0"/>
<path d="M83.4594 21.5049C82.3073 21.5049 80.7362 21.243 79.9158 20.9812C79.6539 20.8939 79.6016 20.8241 79.6016 20.6321L79.6539 18.6944C79.6539 18.5373 79.7238 18.4675 79.8983 18.5373C80.841 18.9388 82.22 19.253 83.8085 19.253C85.9033 19.253 86.5317 18.45 86.5317 17.6645C86.5317 16.8789 86.0779 16.5124 84.7163 16.1807L83.1801 15.8141C80.7711 15.2206 79.6016 14.1732 79.6016 11.9912C79.6016 9.73929 81.2774 7.92383 84.5417 7.92383C85.8509 7.92383 87.3871 8.15076 88.1901 8.34278C88.3647 8.39515 88.4694 8.43006 88.4694 8.65699V10.4725C88.4694 10.647 88.3647 10.6645 88.1552 10.6296C87.2125 10.4026 85.6938 10.1757 84.5243 10.1757C82.8659 10.1757 82.2026 10.9612 82.2026 11.7642C82.2026 12.6021 82.6215 13.1433 84.3497 13.5622L85.5891 13.8764C87.9632 14.47 89.1502 15.5173 89.1502 17.5074C89.1677 19.7592 87.5617 21.5049 83.4594 21.5049Z" fill="#0063C0"/>
<path d="M93.8626 21.1911H91.7504C91.5933 21.1911 91.5234 21.1213 91.5234 20.9468V8.50037C91.5234 8.34326 91.5933 8.27344 91.7504 8.27344H93.8626C94.0022 8.27344 94.0546 8.34326 94.0546 8.50037V20.9642C94.0546 21.1388 94.0022 21.1911 93.8626 21.1911Z" fill="#0063C0"/>
<path d="M105.332 10.5951H102.347C102.242 10.5951 102.172 10.6824 102.172 10.7697V21.034C102.172 21.1388 102.102 21.2086 101.997 21.2086H99.7979C99.7106 21.2086 99.6233 21.1388 99.6233 21.034V10.7697C99.6233 10.6824 99.5535 10.5951 99.4662 10.5951H96.4812C96.3765 10.5951 96.3066 10.5253 96.3066 10.438V8.448C96.3066 8.34326 96.3765 8.27344 96.4812 8.27344H105.349C105.436 8.27344 105.524 8.34326 105.524 8.448V10.438C105.506 10.5253 105.419 10.5951 105.332 10.5951Z" fill="#0063C0"/>
</svg>
