<svg width="16" height="16" viewBox="0 0 16 16" fill="none" xmlns="http://www.w3.org/2000/svg">
<path fill-rule="evenodd" clip-rule="evenodd" d="M7.52907 0C7.01142 0 6.58789 0.423529 6.58789 0.941176V15.0588C6.58789 15.5765 7.01142 16 7.52907 16C8.04671 16 8.47024 15.5765 8.47024 15.0588V0.941176C8.47024 0.423529 8.04671 0 7.52907 0Z" fill="#231F20"/>
<path fill-rule="evenodd" clip-rule="evenodd" d="M14.1179 7.5293C13.6003 7.5293 13.1768 7.95283 13.1768 8.47047V15.0587C13.1768 15.5764 13.6003 15.9999 14.1179 15.9999C14.6356 15.9999 15.0591 15.5764 15.0591 15.0587V8.47047C15.0591 7.95283 14.6356 7.5293 14.1179 7.5293Z" fill="#231F20"/>
<path fill-rule="evenodd" clip-rule="evenodd" d="M0.941177 3.76465C0.423529 3.76465 0 4.18818 0 4.70582V15.0588C0 15.5764 0.423529 15.9999 0.941177 15.9999C1.45882 15.9999 1.88235 15.5764 1.88235 15.0588V4.70582C1.88235 4.18818 1.45882 3.76465 0.941177 3.76465Z" fill="#231F20"/>
</svg>
