<svg width="154" height="17" viewBox="0 0 154 17" fill="none" xmlns="http://www.w3.org/2000/svg">
<path d="M39.6055 13.4144C38.5384 13.4144 37.6542 12.5607 37.6542 11.4631C37.6542 11.4631 37.6542 10.2131 37.6542 8.62763H40.8251V5.97509H37.6542C37.6542 4.02379 37.6542 2.31641 37.6542 2.31641H31.404C31.404 2.31641 31.404 3.96281 31.404 5.97509H29.5137V8.62763H31.404C31.404 10.3045 31.404 11.7985 31.404 12.4388C31.404 12.5302 31.404 12.5607 31.404 12.5607C31.404 14.451 33.5077 16.006 36.1298 16.006C38.386 16.006 39.9714 15.3962 40.8251 14.9998V12.9571C40.4897 13.262 40.0629 13.4144 39.6055 13.4144Z" fill="#CC0000"/>
<path d="M27.5018 5.97852H21.3125V15.4606H27.5018V5.97852Z" fill="#CC0000"/>
<path d="M24.3919 4.6046C26.0993 4.6046 27.4713 3.59847 27.4713 2.31793C27.4713 1.06788 26.0993 0.03125 24.3919 0.03125C22.6845 0.03125 21.3125 1.03739 21.3125 2.31793C21.3125 3.56798 22.6845 4.6046 24.3919 4.6046Z" fill="#CC0000"/>
<path d="M81.3459 11.524H90.0658C90.0658 11.524 90.3097 9.23734 89.1816 7.80436C87.9621 6.24942 85.5229 5.36523 82.8094 5.36523C80.0959 5.36523 75.0957 6.03599 75.0957 10.7923C75.0957 15.5486 79.791 16.0974 82.8094 16.0974C88.5718 16.0974 89.9134 14.7559 89.9134 14.7559V12.835C89.9134 12.835 87.4133 13.7497 84.2424 13.7497C81.0411 13.6582 81.3459 11.8594 81.3459 11.524ZM81.3764 9.29832V8.96294C81.3764 8.10925 82.0472 7.43849 82.9009 7.43849C83.7546 7.43849 84.4253 8.10925 84.4253 8.96294V9.29832V9.32881H81.3764V9.29832Z" fill="#CC0000"/>
<path d="M67.8385 5.67035C66.4055 5.67035 65.0945 6.34111 64.2713 6.9204V0.914062H58.082V15.4573H62.2285H64.2408V10.8535C64.2408 9.99979 64.9116 9.32903 65.7653 9.32903C66.619 9.32903 67.2897 9.99979 67.2897 10.8535V15.4573H72.9607C72.9607 15.3049 72.9607 9.9693 72.9607 9.9693C72.9912 8.93267 71.8021 5.67035 67.8385 5.67035Z" fill="#CC0000"/>
<path d="M102.169 5.67188C100.736 5.67188 99.4246 6.34263 98.6014 6.92192V5.97677H92.4121V15.4588H96.5586H98.5709V10.855C98.5709 10.0013 99.2416 9.33056 100.095 9.33056C100.949 9.33056 101.62 10.0013 101.62 10.855V15.4588H107.321C107.321 15.3064 107.321 9.97083 107.321 9.97083C107.321 8.9342 106.132 5.67188 102.169 5.67188Z" fill="#CC0000"/>
<path d="M136.133 5.97656H129.943V15.4586H136.133V5.97656Z" fill="#CC0000"/>
<path d="M133.054 4.6046C134.761 4.6046 136.133 3.59847 136.133 2.31793C136.133 1.06788 134.761 0.03125 133.054 0.03125C131.347 0.03125 129.975 1.03739 129.975 2.31793C129.975 3.56798 131.347 4.6046 133.054 4.6046Z" fill="#CC0000"/>
<path d="M120.797 15.4579H128.206L121.559 0H114.15L114.943 1.82934L109.059 15.4579H112.778L113.937 12.7444H119.638L120.797 15.4579ZM115.4 9.32964L116.772 6.12829L118.144 9.32964H115.4Z" fill="#CC0000"/>
<path d="M16.3421 8.01861C15.9153 6.98199 15.0006 6.21976 13.903 5.97585L18.08 0H12.531L8.78084 5.36607C8.50644 5.73194 8.0491 5.97585 7.56128 5.97585C7.40883 5.97585 7.28688 5.97585 7.2259 5.97585V0H0V15.4579H7.2259V10.0614C7.53079 9.90893 7.86617 9.84795 8.20155 9.84795C9.14671 9.84795 9.96991 10.4272 10.3053 11.2504L12.1346 15.4579H12.3481H19.5435L16.3421 8.01861Z" fill="#CC0000"/>
<path d="M52.2886 12.6533C50.2458 12.6533 48.5689 12.013 48.5689 10.6715C48.5689 9.33 50.2153 8.68973 52.2886 8.68973C53.5082 8.68973 54.5753 8.90315 55.2765 9.39098V6.64697C53.9045 5.76278 52.0142 5.33594 49.9409 5.33594C45.7944 5.33594 42.4102 7.07381 42.4102 10.702C42.4102 14.3302 45.7944 16.0681 49.9409 16.0681C52.0142 16.0681 53.9045 15.6412 55.2765 14.757V12.013C54.5753 12.4399 53.5082 12.6533 52.2886 12.6533Z" fill="#CC0000"/>
<path d="M147.81 0.884766V6.22034C146.834 5.70203 145.767 5.30567 144.334 5.30567C140.767 5.30567 138.145 6.95208 138.145 10.3973C138.145 13.8426 140.736 15.489 144.334 15.489C145.736 15.489 146.834 15.0926 147.81 14.5743V15.4585H153.999V0.884766H147.81ZM146.133 12.2267C145.035 12.2267 144.364 11.4035 144.364 10.3973C144.364 9.3912 145.035 8.568 146.133 8.568C146.773 8.568 147.413 8.8424 147.81 9.26925V11.4949C147.413 11.9218 146.773 12.2267 146.133 12.2267Z" fill="#CC0000"/>
</svg>
