<svg width="33" height="21" viewBox="0 0 33 21" fill="none" xmlns="http://www.w3.org/2000/svg">
<path opacity="0.5" d="M14.5049 5.50171H18.5061" stroke="#EDAC09" stroke-miterlimit="3.864" stroke-linecap="round" stroke-linejoin="round"/>
<path d="M30.0093 2.00062V11.0034H2.00062V2.00062H30.0093ZM30.3994 0H1.6105C0.720223 0 0 0.720223 0 1.6105V11.3935C0 12.2838 0.720223 13.004 1.6105 13.004H30.3894C31.2797 13.004 31.9999 12.2838 31.9999 11.3935V1.6105C32.0099 0.720223 31.2897 0 30.3994 0Z" fill="#EDAC09"/>
<path d="M31.5096 8.50269H0.5" stroke="#EDAC09" stroke-miterlimit="3.864" stroke-linecap="square" stroke-linejoin="round"/>
<path opacity="0.5" d="M14.5044 15.5048C15.0546 16.0549 15.0546 16.9552 14.5044 17.5054C13.9543 18.0555 13.9543 18.9558 14.5044 19.506" stroke="#EDAC09" stroke-miterlimit="3.864" stroke-linecap="round" stroke-linejoin="round"/>
<path opacity="0.5" d="M11.5044 15.5048C12.0546 16.0549 12.0546 16.9552 11.5044 17.5054C10.9543 18.0555 10.9543 18.9558 11.5044 19.506" stroke="#EDAC09" stroke-miterlimit="3.864" stroke-linecap="round" stroke-linejoin="round"/>
<path opacity="0.5" d="M17.5054 15.5048C18.0556 16.0549 18.0556 16.9552 17.5054 17.5054C16.9552 18.0555 16.9552 18.9558 17.5054 19.506" stroke="#EDAC09" stroke-miterlimit="3.864" stroke-linecap="round" stroke-linejoin="round"/>
<path opacity="0.5" d="M20.5064 15.5048C21.0565 16.0549 21.0565 16.9552 20.5064 17.5054C19.9562 18.0555 19.9562 18.9558 20.5064 19.506" stroke="#EDAC09" stroke-miterlimit="3.864" stroke-linecap="round" stroke-linejoin="round"/>
</svg>
