<svg width="13" height="15" viewBox="0 0 13 15" fill="none" xmlns="http://www.w3.org/2000/svg">
<mask id="path-1-inside-1" fill="white">
<path fill-rule="evenodd" clip-rule="evenodd" d="M6.00573 0C2.69432 0 0 2.6655 0 5.94225C0 10.0477 5.2918 14.6265 5.51702 14.8193C5.65815 14.94 5.83157 15 6.00573 15C6.1799 15 6.35332 14.94 6.49445 14.8193C6.71967 14.6265 12.0115 10.0477 12.0115 5.94225C12.0115 2.6655 9.31715 0 6.00573 0Z"/>
</mask>
<path fill-rule="evenodd" clip-rule="evenodd" d="M6.00573 0C2.69432 0 0 2.6655 0 5.94225C0 10.0477 5.2918 14.6265 5.51702 14.8193C5.65815 14.94 5.83157 15 6.00573 15C6.1799 15 6.35332 14.94 6.49445 14.8193C6.71967 14.6265 12.0115 10.0477 12.0115 5.94225C12.0115 2.6655 9.31715 0 6.00573 0Z" fill="white"/>
<path d="M5.51702 14.8193L4.86679 15.579L4.86692 15.5791L5.51702 14.8193ZM6.49445 14.8193L7.14455 15.5791L7.14468 15.579L6.49445 14.8193ZM6.00573 -1C2.15212 -1 -1 2.10319 -1 5.94225H1C1 3.22781 3.23652 1 6.00573 1V-1ZM-1 5.94225C-1 8.36416 0.526135 10.7709 1.89444 12.4743C3.30102 14.2253 4.73265 15.4642 4.86679 15.579L6.16724 14.0595C6.07617 13.9816 4.74929 12.8347 3.45367 11.2218C2.11977 9.56122 1 7.62584 1 5.94225H-1ZM4.86692 15.5791C5.19469 15.8595 5.6005 16 6.00573 16V14C6.06263 14 6.12161 14.0205 6.16712 14.0594L4.86692 15.5791ZM6.00573 16C6.41097 16 6.81678 15.8595 7.14455 15.5791L5.84435 14.0594C5.88986 14.0205 5.94883 14 6.00573 14V16ZM7.14468 15.579C7.27882 15.4642 8.71044 14.2253 10.117 12.4743C11.4853 10.7709 13.0115 8.36416 13.0115 5.94225H11.0115C11.0115 7.62584 9.8917 9.56122 8.5578 11.2218C7.26218 12.8347 5.9353 13.9816 5.84423 14.0595L7.14468 15.579ZM13.0115 5.94225C13.0115 2.10319 9.85935 -1 6.00573 -1V1C8.77494 1 11.0115 3.22781 11.0115 5.94225H13.0115Z" fill="black" mask="url(#path-1-inside-1)"/>
<mask id="path-3-inside-2" fill="white">
<path fill-rule="evenodd" clip-rule="evenodd" d="M6.0058 8.25007C4.55692 8.25007 3.3783 7.07257 3.3783 5.62507C3.3783 4.17756 4.55692 3.00006 6.0058 3.00006C7.45469 3.00006 8.63331 4.17756 8.63331 5.62507C8.63331 7.07257 7.45469 8.25007 6.0058 8.25007Z"/>
</mask>
<path d="M6.0058 7.25007C5.10831 7.25007 4.3783 6.51939 4.3783 5.62507H2.3783C2.3783 7.62575 4.00553 9.25007 6.0058 9.25007V7.25007ZM4.3783 5.62507C4.3783 4.73075 5.10831 4.00006 6.0058 4.00006V2.00006C4.00553 2.00006 2.3783 3.62438 2.3783 5.62507H4.3783ZM6.0058 4.00006C6.9033 4.00006 7.63331 4.73075 7.63331 5.62507H9.63331C9.63331 3.62438 8.00607 2.00006 6.0058 2.00006V4.00006ZM7.63331 5.62507C7.63331 6.51939 6.9033 7.25007 6.0058 7.25007V9.25007C8.00607 9.25007 9.63331 7.62575 9.63331 5.62507H7.63331Z" fill="black" mask="url(#path-3-inside-2)"/>
</svg>
