<svg width="128" height="43" viewBox="0 0 128 43" fill="none" xmlns="http://www.w3.org/2000/svg">
<path d="M87.3653 36.179C87.1207 36.2263 86.6896 36.3071 86.3059 36.3071C84.9909 36.3071 84.2461 35.7547 84.2461 34.2493C84.2461 32.6858 85.2356 32.1333 86.4805 32.1333C86.8642 32.1333 87.1207 32.2034 87.318 32.2614V33.0001C87.1725 32.9592 86.766 32.8893 86.4632 32.8893C85.7412 32.8893 85.1709 33.0001 85.1709 34.2203C85.1709 35.424 85.7648 35.5575 86.4168 35.5575C86.766 35.5575 87.0507 35.4876 87.3653 35.424V36.179Z" fill="white"/>
<path d="M91.0664 34.2148C91.0664 33.1336 90.7117 32.8021 90.1351 32.8021C89.5477 32.8021 89.193 33.1918 89.1748 34.2148C89.1576 35.2378 89.5304 35.633 90.1179 35.633C90.7 35.633 91.0664 35.2959 91.0664 34.2148ZM88.25 34.2203C88.25 32.6739 89.0002 32.1333 90.1297 32.1333C91.2583 32.1333 91.9912 32.7094 91.9912 34.2203C91.9912 35.7257 91.2528 36.3071 90.1179 36.3071C88.9894 36.3071 88.25 35.7437 88.25 34.2203Z" fill="white"/>
<path d="M94.2685 34.1449C94.6995 34.1449 95.0833 34.0167 95.0833 33.4999C95.0833 32.9883 94.7814 32.9012 94.2804 32.9012H93.9956V34.1449H94.2685ZM93.1172 32.1915H94.2457C95.4907 32.1915 96.0027 32.5232 96.0027 33.4643C96.0027 34.2321 95.6072 34.4356 95.1415 34.5755V34.6446L95.2643 34.6682C95.6889 34.8254 95.9391 35.6331 96.201 36.1391V36.249H95.2288C95.0369 35.7085 94.8332 34.8889 94.4258 34.7727H93.9956V36.249H93.1172V32.1915Z" fill="white"/>
<path d="M98.1128 34.2321H98.4329C98.9449 34.2321 99.2005 34.0694 99.2005 33.5635C99.2005 33.052 98.9449 32.9065 98.4739 32.9065H98.1128V34.2321ZM97.2344 32.1915H98.3401C99.5388 32.1915 100.12 32.4651 100.12 33.5053C100.12 34.5465 99.4278 34.8481 98.5548 34.8481H98.1128V36.249H97.2344V32.1915Z" fill="white"/>
<path d="M103.695 34.2148C103.695 33.1336 103.34 32.8021 102.764 32.8021C102.176 32.8021 101.822 33.1918 101.803 34.2148C101.786 35.2378 102.159 35.633 102.747 35.633C103.329 35.633 103.695 35.2959 103.695 34.2148ZM100.879 34.2203C100.879 32.6739 101.63 32.1333 102.758 32.1333C103.887 32.1333 104.62 32.7094 104.62 34.2203C104.62 35.7257 103.882 36.3071 102.747 36.3071C101.618 36.3071 100.879 35.7437 100.879 34.2203Z" fill="white"/>
<path d="M106.897 34.1449C107.329 34.1449 107.712 34.0167 107.712 33.4999C107.712 32.9883 107.41 32.9012 106.909 32.9012H106.625V34.1449H106.897ZM105.746 32.1915H106.875C108.12 32.1915 108.632 32.5232 108.632 33.4643C108.632 34.2321 108.236 34.4356 107.771 34.5755V34.6446L107.894 34.6682C108.318 34.8254 108.568 35.6331 108.83 36.1391V36.249H107.858C107.666 35.7085 107.462 34.8889 107.055 34.7727H106.625V36.249H105.746V32.1915Z" fill="white"/>
<path d="M111.88 34.7554L111.473 33.3544L111.426 33.1274H111.368L111.322 33.3544L110.897 34.7554H111.88ZM109.523 36.1564L110.973 32.1625H111.834L113.352 36.1564V36.249H112.38L112.043 35.3423H110.769L110.471 36.249H109.523V36.1564Z" fill="white"/>
<path d="M114.848 32.8893L113.707 32.9184V32.1915H116.874V32.9184L115.727 32.8893V36.249H114.848V32.8893Z" fill="white"/>
<path d="M117.805 36.249H118.683V32.1916H117.805V36.249Z" fill="white"/>
<path d="M122.542 34.2148C122.542 33.1336 122.187 32.8021 121.611 32.8021C121.024 32.8021 120.668 33.1918 120.651 34.2148C120.634 35.2378 121.006 35.633 121.594 35.633C122.175 35.633 122.542 35.2959 122.542 34.2148ZM119.727 34.2203C119.727 32.6739 120.476 32.1333 121.605 32.1333C122.734 32.1333 123.467 32.7094 123.467 34.2203C123.467 35.7257 122.728 36.3071 121.594 36.3071C120.465 36.3071 119.727 35.7437 119.727 34.2203Z" fill="white"/>
<path d="M124.59 32.1915H125.357L126.858 34.3247L127.068 34.6737H127.12V32.1915H127.999V36.249H127.248L125.706 34.0341L125.532 33.7378H125.469V36.249H124.59V32.1915Z" fill="white"/>
<path d="M30.1844 4.6121L23.6032 28.6407H19.7788L15.1269 11.1872L10.4062 28.6407H6.58127L0 4.6121H3.79031L8.47642 22.0658L13.1971 4.6121H16.9528L21.7081 22.0658L26.3946 4.6121H30.1844Z" fill="white"/>
<path d="M31.9375 4.68121L35.7278 4.37136V10.2577L35.6587 12.4609H35.797C37.554 11.8067 38.9671 11.4969 40.69 11.4969C43.7569 11.4969 45.824 12.8743 45.824 18.1408V28.6407H42.0337V18.4505C42.0337 15.2837 40.483 14.8707 38.7262 14.8707C37.623 14.8707 36.6927 15.1119 35.7278 15.3872V28.6407H31.9375V4.68121Z" fill="white"/>
<path d="M49.1338 11.7381H52.9242V28.6407H49.1338V11.7381ZM51.029 4.92194C52.9933 4.92194 53.3033 6.05803 53.3033 7.33183C53.3033 8.60554 52.8896 9.77623 51.029 9.77623C49.1684 9.77623 48.7891 8.60554 48.7891 7.33183C48.7891 6.05803 49.1338 4.92194 51.029 4.92194Z" fill="white"/>
<path d="M56.125 11.7382H58.7095L59.2265 13.1151H59.4679C60.4668 12.2546 62.0515 11.4969 64.1194 11.4969C64.3604 11.4969 64.636 11.4969 64.9116 11.5315V15.2491C64.223 15.1465 63.4992 15.043 62.7754 15.043C61.7414 15.043 60.9147 15.2837 59.9153 15.7314V28.6407H56.125V11.7382Z" fill="white"/>
<path d="M66.5312 28.6407V4.68121L70.3217 4.37136V28.6407H66.5312Z" fill="white"/>
<path d="M100.848 20.2749C100.848 17.0742 100.33 14.4578 97.2982 14.4578C94.2318 14.4578 93.4733 16.9706 93.4733 20.2749C93.4733 23.3386 94.0936 25.9898 97.1263 25.9898C100.158 25.9898 100.848 23.4768 100.848 20.2749ZM97.2637 11.497C102.639 11.497 104.707 14.6641 104.707 20.2749C104.707 25.5418 102.777 28.9852 97.1946 28.9852C91.6127 28.9852 89.6484 25.5418 89.6484 20.2749C89.6484 14.6641 91.8882 11.497 97.2637 11.497Z" fill="white"/>
<path d="M117.844 20.2749C117.844 17.0742 117.326 14.4578 114.295 14.4578C111.228 14.4578 110.469 16.9706 110.469 20.2749C110.469 23.3386 111.09 25.9898 114.122 25.9898C117.155 25.9898 117.844 23.4768 117.844 20.2749ZM114.261 11.497C119.636 11.497 121.704 14.6641 121.704 20.2749C121.704 25.5418 119.774 28.9852 114.191 28.9852C108.609 28.9852 106.645 25.5418 106.645 20.2749C106.645 14.6641 108.885 11.497 114.261 11.497Z" fill="white"/>
<path d="M124.156 28.6407V4.68121L127.946 4.37136V28.6407H124.156Z" fill="white"/>
<path d="M77.2123 25.5082C78.28 25.5418 78.8664 25.5764 79.9687 25.5764C82.3112 25.5764 83.8627 24.3371 83.8627 19.4139C83.8627 16.0405 82.484 15.1465 80.0032 15.1465C79.0382 15.1465 78.1425 15.3173 77.2123 15.628V25.5082ZM73.4219 11.7377H76.282L76.592 12.977C77.7298 12.3574 79.8303 11.4969 81.7264 11.4969C85.1713 11.4969 87.6867 14.0099 87.6867 20.0335C87.6867 25.9552 85.033 28.8815 80.6234 28.8815C79.0001 28.8815 77.2123 28.5372 77.2123 28.5372V36.2824L73.4219 36.6957V11.7377Z" fill="white"/>
<path d="M92.1871 1.35236C89.3527 -1.92872 80.3587 0.955334 70.3218 7.89535V9.64423C79.1611 3.36705 86.9532 0.470715 89.1848 3.05405C91.9712 6.27952 85.0399 16.8298 73.7011 26.6057C62.3614 36.3823 50.906 41.6831 48.1201 38.4575C46.6731 36.782 47.853 33.1311 50.906 28.6408H49.1314C45.351 34.273 43.934 39.005 45.8749 41.252C49.4133 45.3485 62.6488 39.7441 75.4344 28.7217C88.2186 17.6993 95.7251 5.44862 92.1871 1.35236Z" fill="#EDAC09"/>
</svg>
