<svg width="22" height="20" viewBox="0 0 22 20" fill="none" xmlns="http://www.w3.org/2000/svg">
<path d="M1 1H3.22222L3.52525 4.33333M3.52525 4.33333L4.136 11.0515C4.2456 12.2571 5.29996 13.1532 6.50742 13.0669L18.1008 12.2388C19.1443 12.1643 19.9945 11.3721 20.1424 10.3365L21 4.33333H3.52525ZM8.77778 17.6667C8.77778 18.2803 8.28032 18.7778 7.66667 18.7778C7.05302 18.7778 6.55556 18.2803 6.55556 17.6667C6.55556 17.053 7.05302 16.5556 7.66667 16.5556C8.28032 16.5556 8.77778 17.053 8.77778 17.6667ZM17.6667 17.6667C17.6667 18.2803 17.1692 18.7778 16.5556 18.7778C15.9419 18.7778 15.4444 18.2803 15.4444 17.6667C15.4444 17.053 15.9419 16.5556 16.5556 16.5556C17.1692 16.5556 17.6667 17.053 17.6667 17.6667Z" stroke="#134468" stroke-width="2" stroke-linecap="round" stroke-linejoin="round"/>
</svg>
