<svg xmlns="http://www.w3.org/2000/svg" width="31" height="30" viewBox="0 0 31 30">
    <g fill="none" fill-rule="evenodd" stroke="#000" transform="translate(1 1)">
        <g stroke-width="1.224">
            <path d="M26.576 10.663C25.252 4.543 20.348 0 14.5 0 7.636 0 2.071 6.26 2.071 13.98"></path>
            <path fill="#F9F9F9" fill-rule="nonzero" d="M29 12.905v4.302c0 1.782-1.391 3.226-3.107 3.226-.572 0-1.036-.481-1.036-1.075v-8.604c0-.593.464-1.075 1.036-1.075 1.716 0 3.107 1.444 3.107 3.226zm-29 0C0 11.123 1.391 9.68 3.107 9.68c.572 0 1.036.482 1.036 1.075v8.604c0 .594-.464 1.075-1.036 1.075C1.391 20.433 0 18.99 0 17.207v-4.302z"></path>
            <path stroke-linecap="round" d="M16.054 24.889c3.728 0 7.457-1.778 8.285-4.148"></path>
        </g>
        <g stroke-linecap="round" stroke-linejoin="round" stroke-width="1.224">
            <path d="M4.143 15.3v-2.373c.02-3.708 3.315-6.705 7.371-6.705h5.972c4.07 0 7.371 3.017 7.371 6.74v2.594"></path>
            <path d="M14.5 28C8.78 28 4.143 23.301 4.143 17.505v-2.137c4.439.825 13.782-2.114 16.224-2.924.947 1.065 2.959 3.119 4.49 3.127v1.926c0 2.387-.807 4.702-2.286 6.56l-1.413 1.499A10.21 10.21 0 0 1 14.5 28z"></path>
        </g>
        <ellipse cx="15.018" cy="24.889" stroke-width="1.02" rx="1" ry="1"></ellipse>
    </g>
</svg>
