<svg version="1.2" xmlns="http://www.w3.org/2000/svg" viewBox="0 0 318 29" width="318" height="29"><defs><clipPath clipPathUnits="userSpaceOnUse" id="cp1"><path d="m0 0h317.54v28.62h-317.54z"/></clipPath></defs><style>.a{fill:#fff;stroke:#000;stroke-width:.4}.b{fill:#e20d17}.c{fill:#ea610a}.d{fill:#f59e00}.e{fill:#005a9b}.f{fill:#faa929}.g{fill:#fff}.h{fill:#f79f1a}.i{fill:#efefef}.j{fill:#253b80}.k{fill:#179bd7}.l{fill:#0099df}.m{fill:#6c6bbd}.n{fill:#eb001b}.o{fill:#231f20}</style><g clip-path="url(#cp1)"><path class="a" d="m150.9 26.2c0 0.6-0.3 1.2-0.7 1.7q-0.4 0.3-0.8 0.5-0.4 0.2-0.9 0.2h-35.4q-0.4 0-0.9-0.2-0.4-0.2-0.7-0.5c-0.5-0.5-0.7-1.1-0.7-1.7v-23.5q0-0.4 0.1-0.9 0.2-0.4 0.6-0.8 0.3-0.3 0.7-0.5 0.5-0.2 0.9-0.2h35.4q0.5 0 0.9 0.2 0.4 0.2 0.8 0.5c0.4 0.5 0.7 1.1 0.7 1.7z"/><path class="a" d="m95.9 25.9c0 0.6-0.3 1.2-0.7 1.7q-0.3 0.3-0.8 0.5-0.4 0.2-0.9 0.2h-35.4q-0.4 0-0.9-0.2-0.4-0.2-0.7-0.5c-0.5-0.5-0.7-1.1-0.7-1.7v-23.4q0-0.5 0.2-1 0.2-0.4 0.5-0.7 0.3-0.4 0.8-0.6 0.4-0.2 0.9-0.1h35.3q0.5-0.1 0.9 0.1 0.5 0.2 0.8 0.6c0.4 0.4 0.7 1 0.7 1.7z"/><path class="b" d="m72.6 14.2c0-1.2 0.3-2.5 0.9-3.6 0.5-1.1 1.3-2.1 2.2-2.9-1.1-1-2.6-1.6-4.1-1.8-1.6-0.2-3.1 0.1-4.5 0.8-1.4 0.7-2.5 1.7-3.4 3.1-0.8 1.3-1.2 2.8-1.2 4.4 0 1.6 0.4 3.1 1.2 4.4 0.9 1.4 2 2.4 3.4 3.1 1.4 0.7 2.9 1 4.5 0.8 1.5-0.2 3-0.8 4.1-1.8-0.9-0.8-1.7-1.8-2.2-2.9-0.6-1.1-0.9-2.4-0.9-3.6"/><path class="c" d="m72.6 14.2c0 1.3 0.3 2.5 0.9 3.7 0.5 1.1 1.3 2.1 2.3 2.9 0.9-0.8 1.7-1.8 2.2-2.9 0.5-1.2 0.8-2.4 0.8-3.7 0-1.2-0.3-2.5-0.8-3.6-0.5-1.1-1.3-2.1-2.3-2.9-1 0.8-1.7 1.8-2.3 2.9-0.5 1.1-0.8 2.4-0.8 3.6"/><path class="d" d="m80.8 5.9c-1.8 0-3.6 0.6-5 1.8 0.9 0.8 1.7 1.8 2.2 2.9 0.5 1.1 0.8 2.4 0.8 3.6 0 1.3-0.3 2.5-0.8 3.7-0.5 1.1-1.3 2.1-2.3 2.9 1.4 1.2 3.2 1.8 5.1 1.8 1.1 0 2.1-0.2 3.2-0.6 1-0.5 1.9-1.1 2.6-1.8 1.6-1.6 2.4-3.7 2.4-6 0-2.2-0.8-4.3-2.4-5.9-0.7-0.7-1.6-1.4-2.6-1.8-1-0.4-2.1-0.6-3.2-0.6"/><path class="e" d="m206.4 26c0.1 0.6-0.2 1.2-0.7 1.7q-0.3 0.3-0.7 0.5-0.5 0.2-0.9 0.2h-35.4q-0.5 0-0.9-0.2-0.4-0.2-0.7-0.5c-0.5-0.5-0.8-1.1-0.8-1.7v-23.4q0.1-0.5 0.2-1c0.3-0.5 0.7-1 1.3-1.3q0.5-0.1 0.9-0.1h35.4q0.4 0 0.9 0.1 0.4 0.2 0.7 0.6c0.5 0.4 0.8 1 0.7 1.7z"/><path class="f" d="m178.2 15.8c5.1-2.3 10.8-2.9 16.2-1.6l0.1-1.9c-5.7-0.6-11.3 0.6-16.3 3.3z"/><path fill-rule="evenodd" class="g" d="m171.3 17.2h3.6v1.1h-2.2v1h2.2v1h-2.3v1h2.2v1.1h-3.5zm4.5-0.4h1.3v5.7h-1.3zm5.8 5.4c-0.4 0.4-1 0.6-1.7 0.6q-0.4 0-0.8-0.2-0.3-0.1-0.6-0.4-0.3-0.3-0.5-0.7-0.1-0.3-0.1-0.7c0-0.6 0.2-1.1 0.6-1.5 0.4-0.4 0.9-0.7 1.4-0.7 1.5 0 1.9 1 1.9 2.4h-2.6q0 0.1 0.1 0.3 0.1 0.2 0.2 0.3 0.1 0.1 0.3 0.1 0.1 0.1 0.3 0.1c0.4 0 0.8-0.2 1.1-0.4zm-1-2c0-0.4-0.2-0.8-0.7-0.8q-0.3 0.1-0.5 0.3-0.2 0.2-0.3 0.5zm5.2 2.2q-0.6 0.3-1.4 0.4-0.4 0-0.8-0.1-0.4-0.2-0.7-0.5-0.3-0.3-0.4-0.6-0.2-0.4-0.1-0.8-0.1-0.5 0.1-0.9 0.1-0.4 0.4-0.7 0.3-0.3 0.8-0.5 0.4-0.1 0.8-0.1 0.7 0 1.3 0.3l-0.4 0.9q-0.3-0.1-0.6-0.1-0.3-0.1-0.5 0-0.2 0.1-0.3 0.2-0.2 0.2-0.2 0.4-0.1 0.2-0.1 0.4 0 0.4 0.3 0.7 0.3 0.3 0.7 0.3 0.4-0.1 0.7-0.3l0.4 0.9zm0.6-3.6h-0.1zm0.6 0.1v-1.4h1.3v1.3h1v1h-1c0 0.6 0 1.1 0 1.5 0 0.3 0 0.5 0.3 0.5q0.3-0.1 0.5-0.2l0.3 0.9q-0.6 0.3-1.3 0.4c-1.1 0-1.1-0.7-1.1-1.6 0-0.5 0-1 0-1.5h-0.6v-0.9zm3-0.1v0.1zm1.3 0v0.6q0.1-0.3 0.4-0.5 0.3-0.2 0.6-0.2 0.2 0 0.4 0l-0.2 1.3q-0.2-0.1-0.4 0-0.3 0-0.5 0.1-0.2 0.1-0.3 0.3v2.2h-1.3v-3.8zm3.8-0.1q0.4 0 0.8 0.1 0.3 0.2 0.6 0.5 0.3 0.2 0.5 0.6 0.1 0.4 0.1 0.8c0 0.5-0.2 1-0.6 1.4-0.4 0.4-0.9 0.6-1.5 0.6-0.5 0-1-0.2-1.4-0.6-0.4-0.4-0.7-0.9-0.7-1.4q0-0.4 0.2-0.8 0.1-0.4 0.4-0.7 0.3-0.3 0.7-0.4 0.4-0.2 0.8-0.2zm0 3.2c0.7 0 0.8-0.6 0.8-1.1 0-0.5-0.1-1.1-0.8-1.1-0.6 0-0.8 0.6-0.8 1.1 0 0.5 0.2 1 0.8 1zm4.1-3v0.4c0.3-0.3 0.7-0.5 1.2-0.5 0.8 0 1.2 0.4 1.2 1.5q0 1.2 0 2.5h-1.3q0-1.1 0-2.3c0-0.3-0.1-0.6-0.5-0.6q-0.4 0.1-0.7 0.4v2.5h-1.3v-3.9zm-16.9-8l1.7-5.5h1.4l-1.6 5.5zm-0.6-5.5h1.6l-3.1 5.5h-1.6l-0.4-4.4q0-0.2-0.1-0.4-0.1-0.2-0.3-0.4-0.1-0.1-0.3-0.2-0.2 0-0.5 0v-0.1h2.5l0.2 2.2c0 0.3 0 0.9 0 1.4q0.2-0.7 0.6-1.3l1.3-2.3zm11.4 5.5v-0.8h-1.9l-0.4 0.8h-1.6l2.9-5.6h2l0.5 5.6zm-0.2-3.3q0-0.7 0-1.3c-0.1 0.3-0.5 1.1-0.6 1.5l-0.6 1.2h1.3l-0.1-1.4zm-5.9 3.4c-0.8 0-1.6-0.2-2.3-0.6l0.7-1.1c0.5 0.3 1 0.5 1.6 0.5q0.2 0.1 0.4 0 0.2-0.1 0.3-0.3c0.2-0.3-0.1-0.5-0.7-0.9l-0.2-0.2c-0.9-0.6-1.3-1.2-0.9-2.2q0.3-0.5 0.9-0.8 0.5-0.3 1.1-0.3c0.7 0 1.4 0.3 2 0.7l-0.9 1c-0.3-0.3-0.7-0.5-1.1-0.5q-0.2 0-0.4 0.1-0.1 0-0.2 0.2c-0.2 0.3 0 0.5 0.5 0.8l0.3 0.2c1 0.7 1.3 1.4 1 2-0.2 0.5-0.5 0.8-0.8 1.1-0.4 0.2-0.9 0.3-1.4 0.3z"/><path class="g" d="m40.1 26c0 0.6-0.3 1.2-0.7 1.7q-0.3 0.3-0.8 0.5-0.4 0.2-0.9 0.2h-35.3q-0.5 0-0.9-0.2-0.5-0.2-0.8-0.5c-0.5-0.5-0.7-1.1-0.7-1.7v-23.4q0-0.5 0.2-1 0.2-0.4 0.5-0.7 0.3-0.4 0.8-0.6 0.4-0.1 0.9-0.1h35.3q0.5 0 0.9 0.1 0.5 0.2 0.8 0.6c0.4 0.4 0.7 1 0.7 1.7z"/><path class="h" d="m10.5 14.4l-0.8-3.9q0-0.3-0.3-0.5-0.3-0.2-0.7-0.2h-3.6v0.2c1.2 0.2 2.3 0.7 3.3 1.5 0.9 0.8 1.7 1.7 2.2 2.9"/><path fill-rule="evenodd" class="e" d="m17.5 18.6h-2.4l1.5-8.7h2.3zm-8-0.1l-2-7.3c1.3 1 2.5 2.2 3.2 3.7l0.2 0.9 2.3-6h2.5l-3.7 8.7zm16-2.8c0 1.8-1.6 3-4 3q-1.4 0-2.6-0.4l0.3-2 0.3 0.1c0.7 0.3 1.4 0.5 2.2 0.5 0.7 0 1.4-0.3 1.4-0.9 0-0.4-0.3-0.7-1.2-1.1-0.9-0.4-2.1-1.1-2.1-2.4 0-1.7 1.7-2.9 4-2.9q1.1 0 2.1 0.4l-0.3 1.9-0.3-0.1q-0.8-0.3-1.7-0.3c-0.9 0-1.3 0.3-1.3 0.7 0 0.4 0.5 0.7 1.3 1.1 1.4 0.6 2 1.4 2 2.4zm2.8 1.5l-0.5 1.3h-2.4l3.5-8q0.1-0.4 0.5-0.6 0.3-0.2 0.7-0.1h1.8l1.9 8.7h-2.2c0 0-0.2-1-0.3-1.3h-3zm0.6-1.7h2l-0.5-2.6-0.2-0.7-0.3 0.8z"/><path class="e" d="m37.6 0.2h-35.2q-0.5 0-0.9 0.1-0.5 0.2-0.8 0.6-0.3 0.3-0.5 0.7-0.2 0.5-0.2 1v2.5h39.9v-2.5q0-0.5-0.1-1-0.2-0.4-0.6-0.7-0.3-0.4-0.7-0.6-0.5-0.1-0.9-0.1z"/><path class="h" d="m37.6 28.3h-35.2q-0.5 0-0.9-0.2-0.5-0.2-0.8-0.5-0.3-0.4-0.5-0.8-0.2-0.4-0.2-0.9v-2.5h39.9v2.5q0 0.5-0.1 0.9-0.2 0.4-0.6 0.8-0.3 0.3-0.7 0.5-0.5 0.2-0.9 0.2z"/><path fill-rule="evenodd" class="e" d="m261.5 26c0 0.6-0.2 1.2-0.6 1.6-0.5 0.5-1.1 0.7-1.7 0.8h-35.4c-0.7-0.1-1.3-0.3-1.7-0.8-0.4-0.4-0.7-1-0.7-1.6v-23.4c0-0.7 0.3-1.3 0.7-1.7 0.4-0.5 1-0.7 1.7-0.7h35.3c0.6 0 1.2 0.2 1.7 0.7 0.4 0.4 0.6 1 0.6 1.7z"/><path fill-rule="evenodd" class="i" d="m261.5 26c0 0.6-0.2 1.2-0.6 1.6-0.5 0.5-1.1 0.7-1.7 0.8h-35.4c-0.7-0.1-1.3-0.3-1.7-0.8-0.4-0.4-0.7-1-0.7-1.6v-23.4c0-0.7 0.3-1.3 0.7-1.7 0.4-0.5 1-0.7 1.7-0.7h35.3c0.6 0 1.2 0.2 1.7 0.7 0.4 0.4 0.6 1 0.6 1.7z"/><path fill-rule="evenodd" class="j" d="m228.4 9.9c0.8 0 1.5 0.2 2.1 0.7 0.3 0.6 0.4 1.2 0.3 1.8q-0.1 0.6-0.3 1.1-0.3 0.5-0.7 0.8-0.4 0.4-0.9 0.6-0.6 0.2-1.1 0.1h-0.9c-0.2 0-0.4 0.1-0.4 0.3l-0.3 1.9c-0.1 0.2-0.2 0.3-0.4 0.3h-1.3c-0.1 0-0.1-0.2-0.1-0.3l1-7c0.1-0.2 0.2-0.3 0.4-0.3zm0.2 1.9c-0.1-0.3-0.6-0.3-1.1-0.3h-0.2q-0.1 0-0.2 0.1 0 0 0 0.1l-0.3 1.8h0.4c0.6 0 1.4 0 1.5-1 0.1-0.3 0-0.6-0.1-0.7zm8 1.2l-0.7 4.5c-0.1 0.2-0.2 0.3-0.4 0.3h-1.2c-0.1 0-0.2-0.2-0.2-0.3l0.1-0.4q-0.3 0.4-0.8 0.5-0.5 0.2-0.9 0.2-0.5 0-0.9-0.2-0.4-0.1-0.7-0.5c-0.4-0.6-0.6-1.3-0.5-2 0.1-0.7 0.4-1.3 0.9-1.8 0.6-0.5 1.2-0.8 1.9-0.8q0.4 0 0.8 0.1 0.4 0.1 0.7 0.4l0.1 0.1 0.1-0.4q0-0.1 0.1-0.1 0-0.1 0.1-0.1h1.3c0.2 0 0.3 0.1 0.2 0.5zm-2 1.5q0-0.3-0.2-0.5-0.1-0.2-0.4-0.3-0.2-0.1-0.5-0.1c-0.3 0-0.7 0.1-1 0.4-0.2 0.2-0.4 0.6-0.4 0.9q-0.1 0.2-0.1 0.5 0.1 0.2 0.2 0.4 0.2 0.2 0.4 0.3 0.3 0.1 0.5 0.1c0.4 0 0.7-0.1 1-0.3 0.3-0.2 0.4-0.5 0.5-0.9q0.1-0.2 0-0.5zm8.6-2c0.3 0 0.3 0.2 0.1 0.3l-4.3 6.3c0 0.1-0.2 0.2-0.3 0.2h-1.2c-0.2 0-0.3-0.2-0.2-0.4l1.4-1.9-1.4-4.2c-0.1-0.1 0-0.3 0.2-0.3h1.2c0.3 0 0.4 0.1 0.4 0.3l0.8 2.6 1.8-2.7c0.1-0.1 0.2-0.2 0.3-0.2z"/><path fill-rule="evenodd" class="k" d="m247.4 9.9c0.8 0 1.5 0.2 2.1 0.7 0.3 0.6 0.4 1.2 0.3 1.8q-0.1 0.6-0.3 1.1-0.3 0.5-0.7 0.8-0.4 0.4-1 0.6-0.5 0.2-1 0.1h-0.9c-0.2 0-0.4 0.1-0.4 0.3l-0.3 2c-0.1 0.1-0.2 0.2-0.3 0.2h-1.4c-0.1 0-0.2-0.2-0.2-0.3l1.1-7c0.1-0.2 0.2-0.3 0.4-0.3zm0.2 1.9c-0.2-0.3-0.7-0.3-1.2-0.3h-0.1q-0.1 0-0.2 0.1 0 0 0 0.1l-0.3 1.8h0.4c0.6 0 1.4 0 1.5-1 0.1-0.3 0-0.6-0.1-0.7zm8.1 1.3l-0.7 4.5c-0.1 0.2-0.2 0.3-0.4 0.3h-1.2c-0.1 0-0.2-0.2-0.2-0.3l0.1-0.4q-0.3 0.3-0.8 0.5-0.5 0.2-1 0.2-0.4 0-0.8-0.2-0.4-0.2-0.7-0.5-0.3-0.5-0.5-1-0.1-0.5 0-1c0.1-0.7 0.4-1.4 0.9-1.9 0.5-0.5 1.2-0.8 1.9-0.8q0.4 0 0.8 0.1 0.4 0.1 0.7 0.4l0.1 0.1 0.1-0.4q0-0.1 0.1-0.1 0-0.1 0.1-0.1h1.3c0.1 0 0.2 0.1 0.2 0.6zm-2.1 1.4q0-0.3-0.2-0.5-0.1-0.2-0.4-0.3-0.2-0.1-0.5-0.1c-0.3 0-0.7 0.1-1 0.4-0.2 0.2-0.4 0.6-0.5 0.9q0 0.2 0 0.5 0.1 0.2 0.2 0.4 0.2 0.2 0.4 0.3 0.3 0.1 0.5 0.1c0.4 0 0.7-0.1 1-0.3 0.3-0.2 0.4-0.5 0.5-0.9q0.1-0.2 0-0.5zm3.4-4.5q0-0.1 0.1-0.1h1.3c0.1 0 0.2 0.2 0.2 0.3l-1.1 7c-0.1 0.2-0.2 0.3-0.4 0.3h-1.1c-0.1 0-0.2-0.2-0.2-0.3l1.1-7.1q0-0.1 0.1-0.1z"/><path class="l" d="m144 19.2v-0.3h-0.1l-0.1 0.2-0.1-0.2h-0.1v0.3h0.1v-0.2l0.1 0.2 0.1-0.2v0.2zm-0.5 0v-0.2h0.1v-0.1h-0.3v0.1h0.1v0.2z"/><path class="m" d="m134.6 20.6h-7.2v-12.9h7.2z"/><path class="n" d="m127.8 14.2c0-1.3 0.3-2.5 0.9-3.6 0.5-1.2 1.3-2.1 2.3-2.9-1.2-0.9-2.7-1.5-4.2-1.7-1.5-0.2-3.1 0.1-4.4 0.8-1.4 0.6-2.6 1.7-3.4 3-0.8 1.3-1.3 2.8-1.3 4.4 0 1.5 0.5 3 1.3 4.3 0.8 1.3 2 2.4 3.4 3 1.3 0.7 2.9 1 4.4 0.8 1.5-0.2 3-0.8 4.2-1.7-1-0.8-1.8-1.7-2.3-2.9-0.6-1.1-0.8-2.3-0.9-3.5z"/><path class="l" d="m144.2 14.2c0 1.5-0.4 3-1.2 4.3-0.8 1.3-2 2.3-3.4 3-1.4 0.7-2.9 0.9-4.4 0.8-1.5-0.2-3-0.8-4.2-1.7 1-0.8 1.8-1.7 2.3-2.9 0.5-1.1 0.8-2.3 0.8-3.5 0-1.3-0.3-2.5-0.8-3.6-0.5-1.2-1.3-2.1-2.3-2.9 1.2-0.9 2.7-1.5 4.2-1.7 1.5-0.1 3.1 0.1 4.4 0.8 1.4 0.7 2.6 1.7 3.4 3 0.8 1.3 1.2 2.8 1.2 4.4z"/><path fill-rule="evenodd" class="o" d="m137 24.2q0.2 0 0.3 0.1l-0.1 0.4q-0.2 0-0.3 0-0.5 0-0.5 0.6v1.2h-0.4v-2.2h0.4v0.3q0.1-0.2 0.3-0.3 0.1-0.1 0.3-0.1zm-1.8 0.5h-0.7v1c0 0.2 0.1 0.4 0.3 0.4q0.2 0 0.4-0.1l0.1 0.4q-0.2 0.1-0.6 0.1c-0.5 0-0.7-0.3-0.7-0.8v-1h-0.4v-0.4h0.4v-0.7h0.5v0.7h0.8zm-4.5 0.6q0 0.1 0 0.2h-1.6q0 0.3 0.2 0.4 0.2 0.2 0.5 0.2 0.3 0 0.6-0.3l0.2 0.4c-0.2 0.2-0.5 0.3-0.9 0.3q-0.2 0-0.4-0.1-0.2-0.1-0.4-0.2-0.1-0.2-0.2-0.4-0.1-0.2-0.1-0.5 0-0.2 0.1-0.4 0.1-0.2 0.2-0.4 0.2-0.1 0.4-0.2 0.2-0.1 0.4-0.1 0.2 0 0.4 0.1 0.2 0.1 0.4 0.3 0.1 0.1 0.2 0.3 0 0.2 0 0.4zm-0.5-0.1q0-0.1 0-0.2-0.1-0.1-0.2-0.2 0-0.1-0.1-0.1-0.1-0.1-0.3-0.1-0.2 0-0.3 0.2-0.2 0.1-0.2 0.4zm2.6-0.4q-0.4-0.2-0.7-0.2-0.4 0-0.4 0.3c0 0.1 0.1 0.2 0.3 0.2h0.3c0.4 0.1 0.7 0.3 0.7 0.6 0 0.4-0.3 0.8-1 0.8q-0.5 0-0.9-0.3l0.2-0.4q0.3 0.3 0.7 0.2 0.5 0 0.5-0.2c0-0.2-0.1-0.2-0.4-0.3h-0.2c-0.5 0-0.7-0.2-0.7-0.6 0-0.3 0.3-0.7 0.9-0.7q0.4 0 0.9 0.2zm5.8-0.6q0.2 0 0.5 0.1 0.2 0.1 0.4 0.3 0.1 0.1 0.2 0.3c0.1 0.3 0.1 0.6 0 0.9q-0.1 0.2-0.2 0.4-0.2 0.2-0.4 0.2-0.3 0.1-0.5 0.1-0.2 0-0.5-0.1-0.2 0-0.3-0.2-0.2-0.2-0.3-0.4c-0.1-0.3-0.1-0.6 0-0.9q0.1-0.2 0.3-0.3 0.1-0.2 0.3-0.3 0.3-0.1 0.5-0.1zm0 0.5q-0.1 0-0.3 0-0.1 0-0.2 0.1-0.1 0.1-0.1 0.2-0.1 0.3 0 0.6 0 0.1 0.1 0.2 0.1 0.1 0.2 0.2 0.2 0 0.3 0 0.1 0 0.3 0 0.1-0.1 0.2-0.2 0.1-0.1 0.1-0.2 0.1-0.3 0-0.6 0-0.1-0.1-0.2-0.1-0.1-0.2-0.1-0.2 0-0.3 0zm-10.6 1.8h-0.5v-0.3q-0.1 0.2-0.3 0.2-0.1 0.1-0.3 0.1-0.5 0-0.8-0.4-0.3-0.3-0.3-0.7 0-0.5 0.3-0.8 0.3-0.3 0.8-0.4 0.2 0 0.3 0.1 0.2 0.1 0.3 0.2v-0.2h0.5zm-1.7-0.9q0.1 0.2 0.1 0.3 0.1 0 0.3 0.1 0.1 0 0.2 0 0.1 0 0.3 0 0.1-0.1 0.2-0.1 0.1-0.1 0.1-0.3 0.1-0.1 0.1-0.2 0-0.1-0.1-0.3 0-0.1-0.1-0.2-0.1-0.1-0.2-0.1-0.2-0.1-0.3-0.1-0.1 0-0.2 0.1-0.2 0-0.3 0.1 0 0.1-0.1 0.2 0 0.2 0 0.3 0 0.1 0 0.2zm-1.4 0.9v-1.2q0-0.6-0.5-0.6-0.1 0-0.2 0-0.1 0.1-0.2 0.2-0.1 0-0.1 0.2-0.1 0.1 0 0.2v1.2h-0.6v-1.2q0-0.6-0.4-0.6-0.2 0-0.3 0-0.1 0.1-0.1 0.2-0.1 0-0.1 0.2-0.1 0.1-0.1 0.2v1.2h-0.4v-2.2h0.5v0.3q0.1-0.2 0.2-0.3 0.2-0.1 0.4-0.1 0.2 0 0.4 0.1 0.2 0.1 0.3 0.3 0.1-0.2 0.4-0.3 0.2-0.1 0.4-0.1 0.2 0 0.3 0.1 0.2 0.1 0.3 0.2 0.1 0.1 0.2 0.3 0.1 0.1 0 0.3v1.4z"/><path fill-rule="evenodd" class="o" d="m140.4 26.3h0.1q0.1 0 0.1 0.1 0 0 0 0.1 0 0 0 0.1 0 0.1 0 0.1h-0.2q0 0 0 0v-0.1h0.1q0-0.1 0-0.1 0 0 0-0.1 0 0 0 0h-0.2q0 0 0 0v-0.1q0.1 0 0.1 0v-0.1 0.1h0.1m-0.2 0.3q0 0 0-0.1 0 0.1 0 0.1 0 0 0.1 0.1 0 0-0.1-0.1zm0-0.1q0 0 0 0 0 0 0 0 0 0 0 0zm0-0.1q0 0 0 0zm0 0q0 0.1 0 0.1 0-0.1 0-0.1zm0 0.1q0 0 0 0 0 0 0-0.1 0 0.1 0 0.1zm0.1-0.2h0.1-0.1z"/></g></svg>