<svg width="318" height="29" viewBox="0 0 318 29" fill="none" xmlns="http://www.w3.org/2000/svg">
<g clip-path="url(#clip0_4_31)">
<path d="M150.86 26.1601C150.859 26.7978 150.612 27.4105 150.17 27.8701C149.951 28.0939 149.69 28.272 149.401 28.3939C149.113 28.5158 148.803 28.5791 148.49 28.5801H113.14C112.828 28.5789 112.52 28.5155 112.233 28.3935C111.947 28.2716 111.687 28.0936 111.47 27.8701C111.022 27.4139 110.77 26.7998 110.77 26.1601V2.74006C110.769 2.42128 110.83 2.10532 110.95 1.81006C111.073 1.51693 111.25 1.2491 111.47 1.02006C111.688 0.800246 111.946 0.623796 112.23 0.500059C112.518 0.377774 112.827 0.31322 113.14 0.310059H148.49C148.803 0.311033 149.113 0.374312 149.401 0.496207C149.69 0.618103 149.951 0.796178 150.17 1.02006C150.614 1.48268 150.861 2.0991 150.86 2.74006V26.1601Z" fill="white" stroke="black" stroke-width="0.1" stroke-miterlimit="10"/>
<path d="M206.66 25.9899C206.66 26.6278 206.413 27.2409 205.97 27.6999C205.752 27.9247 205.49 28.1034 205.202 28.2253C204.913 28.3473 204.603 28.4101 204.29 28.4099H168.94C168.627 28.4101 168.316 28.3473 168.028 28.2253C167.739 28.1034 167.478 27.9247 167.26 27.6999C166.817 27.2409 166.569 26.6278 166.57 25.9899V2.57991C166.569 2.26437 166.63 1.95169 166.75 1.65991C166.865 1.36478 167.038 1.09602 167.26 0.869913C167.479 0.644686 167.741 0.464632 168.03 0.339913C168.318 0.220808 168.628 0.159646 168.94 0.159913H204.29C204.603 0.161988 204.912 0.225767 205.201 0.347599C205.489 0.46943 205.75 0.646922 205.97 0.869913C206.413 1.32889 206.66 1.94201 206.66 2.57991V25.9899Z" fill="#306FC5"/>
<path d="M171.29 9.3999L171.87 10.8999H170.69L171.29 9.3999ZM170.62 8.3999L168.82 12.6699H170L170.33 11.8199H172.26L172.59 12.6699H173.79L172 8.4099L170.62 8.3999ZM173.9 12.6699V8.4099H175.57L176.57 11.1699L177.51 8.4099H179.17V12.6799H178.17V9.5299L177 12.6799H176.08L175 9.5299V12.6799L173.9 12.6699ZM179.85 12.6699V8.4099H183.27V9.3599H180.91V10.0899H183.21V10.9999H180.91V11.7599H183.27V12.6799L179.85 12.6699ZM184.92 9.3499H186.11C186.235 9.34694 186.356 9.39189 186.449 9.47555C186.542 9.55921 186.6 9.67525 186.61 9.7999C186.605 9.9228 186.551 10.0388 186.462 10.1229C186.372 10.207 186.253 10.2526 186.13 10.2499H184.92V9.3499V9.3499ZM183.92 8.3999V12.6699H184.92V11.1599H185.36L186.61 12.6699H187.89L186.51 11.1599C186.831 11.1273 187.128 10.9735 187.34 10.7299C187.553 10.487 187.667 10.173 187.66 9.8499C187.663 9.66049 187.627 9.47247 187.554 9.29773C187.481 9.12299 187.372 8.96533 187.235 8.8347C187.097 8.70407 186.935 8.60332 186.757 8.53881C186.578 8.4743 186.389 8.44743 186.2 8.4599L183.92 8.3999Z" fill="white"/>
<path d="M188.09 12.6799H189.16V8.4099H188.09V12.6799ZM191.69 12.6799H191.46C190.35 12.6799 189.67 11.7899 189.67 10.5599C189.638 10.2759 189.669 9.98829 189.762 9.71777C189.854 9.44725 190.005 9.20045 190.204 8.99503C190.402 8.78961 190.644 8.63064 190.911 8.52949C191.179 8.42833 191.465 8.3875 191.75 8.4099H192.9V9.4099H191.7C191.555 9.40826 191.411 9.43815 191.279 9.49751C191.147 9.55687 191.029 9.64427 190.934 9.75366C190.839 9.86305 190.769 9.99181 190.728 10.131C190.688 10.2702 190.678 10.4166 190.7 10.5599C190.669 10.7171 190.677 10.8792 190.722 11.0329C190.767 11.1865 190.849 11.327 190.959 11.4426C191.07 11.5582 191.207 11.6456 191.358 11.6973C191.51 11.7491 191.672 11.7637 191.83 11.7399H192.1L191.66 12.6699L191.69 12.6799ZM194.63 9.3999L195.22 10.8999H194L194.59 9.3999H194.63ZM193.97 8.3999L192.17 12.6699H193.34L193.67 11.8199H195.6L195.93 12.6699H197.13L195.33 8.3999H193.97ZM197.25 12.6699V8.4099H198.58L200.28 11.0899V8.4099H201.33V12.6799H200L198.26 9.9299V12.6799L197.25 12.6699ZM176.44 20.1599V15.8899H179.85V16.8899H177.5V17.6199H179.8V18.5199H177.5V19.2799H179.85V20.1599H176.44ZM193.17 20.1599V15.8899H196.58V16.8899H194.22V17.6199H196.51V18.5199H194.22V19.2799H196.58V20.1599H193.17ZM180 20.1599L181.66 18.0399L179.95 15.8799H181.27L182.27 17.2199L183.27 15.8799H184.54L182.86 18.0199L184.54 20.1599H183.23L182.23 18.8399L181.23 20.1599H180ZM185.75 16.8499H186.91C186.977 16.8443 187.045 16.8528 187.108 16.8751C187.172 16.8973 187.23 16.9327 187.279 16.9789C187.328 17.0251 187.367 17.0811 187.393 17.1433C187.419 17.2055 187.432 17.2725 187.43 17.3399C187.432 17.4073 187.419 17.4743 187.393 17.5365C187.367 17.5987 187.328 17.6547 187.279 17.7009C187.23 17.7471 187.172 17.7825 187.108 17.8047C187.045 17.827 186.977 17.8355 186.91 17.8299H185.75V16.8299V16.8499ZM184.68 15.8499V20.1599H185.75V18.8199H186.86C187.068 18.8444 187.279 18.8238 187.478 18.7595C187.678 18.6953 187.861 18.5889 188.016 18.4475C188.17 18.3062 188.293 18.1332 188.374 17.9404C188.456 17.7475 188.496 17.5393 188.49 17.3299C188.498 17.1336 188.464 16.9378 188.39 16.7556C188.317 16.5734 188.205 16.4088 188.064 16.2727C187.922 16.1367 187.753 16.0322 187.568 15.9662C187.383 15.9002 187.186 15.8742 186.99 15.8899L184.68 15.8499ZM189.99 16.8499H191.19C191.249 16.8499 191.308 16.8615 191.362 16.8842C191.417 16.9068 191.466 16.9399 191.508 16.9817C191.55 17.0235 191.583 17.0731 191.606 17.1277C191.628 17.1823 191.64 17.2408 191.64 17.2999C191.64 17.359 191.628 17.4175 191.606 17.4721C191.583 17.5267 191.55 17.5763 191.508 17.6181C191.466 17.6599 191.417 17.693 191.362 17.7156C191.308 17.7383 191.249 17.7499 191.19 17.7499H190V16.8499H189.99ZM188.99 15.8499V20.1599H189.99V18.6499H190.43L191.68 20.1599H193L191.62 18.5799C191.938 18.5468 192.232 18.3929 192.44 18.1499C192.656 17.908 192.774 17.5941 192.77 17.2699C192.773 17.0805 192.737 16.8925 192.664 16.7177C192.591 16.543 192.482 16.3853 192.345 16.2547C192.208 16.1241 192.045 16.0233 191.867 15.9588C191.689 15.8943 191.499 15.8674 191.31 15.8799L188.99 15.8499ZM197.06 20.1599V19.2299H199.16C199.47 19.2299 199.6 19.0599 199.6 18.8699C199.6 18.6799 199.47 18.5099 199.16 18.5099H198.21C198.038 18.5235 197.866 18.4996 197.705 18.4401C197.543 18.3806 197.396 18.2867 197.275 18.1651C197.153 18.0434 197.059 17.8968 197 17.7353C196.94 17.5739 196.916 17.4014 196.93 17.2299C196.93 16.5399 197.35 15.8799 198.57 15.8799H200.57L200.13 16.8799H198.37C198.03 16.8799 197.93 17.0599 197.93 17.2299C197.929 17.2802 197.937 17.3302 197.956 17.3769C197.975 17.4237 198.003 17.4661 198.038 17.5017C198.074 17.5372 198.116 17.5652 198.163 17.5838C198.21 17.6024 198.26 17.6113 198.31 17.6099H199.31C199.48 17.5875 199.652 17.6028 199.815 17.6549C199.978 17.7069 200.127 17.7944 200.253 17.911C200.378 18.0276 200.476 18.1705 200.539 18.3293C200.603 18.4882 200.63 18.6591 200.62 18.8299C200.629 19.0068 200.6 19.1836 200.536 19.3488C200.472 19.5141 200.375 19.6642 200.249 19.7894C200.124 19.9147 199.974 20.0123 199.809 20.0761C199.644 20.1399 199.467 20.1685 199.29 20.1599H197.06ZM200.9 20.1599V19.2299H202.9C203.21 19.2299 203.34 19.0599 203.34 18.8699C203.34 18.6799 203.21 18.5099 202.9 18.5099H202.04C201.868 18.5235 201.696 18.4996 201.535 18.4401C201.373 18.3806 201.226 18.2867 201.105 18.1651C200.983 18.0434 200.889 17.8968 200.83 17.7353C200.77 17.5739 200.746 17.4014 200.76 17.2299C200.76 16.5399 201.18 15.8799 202.4 15.8799H204.4L203.96 16.8799H202.24C201.9 16.8799 201.8 17.0599 201.8 17.2299C201.799 17.2802 201.807 17.3302 201.826 17.3769C201.845 17.4237 201.873 17.4661 201.908 17.5017C201.944 17.5372 201.986 17.5652 202.033 17.5838C202.08 17.6024 202.13 17.6113 202.18 17.6099H203.09C203.26 17.5875 203.432 17.6028 203.595 17.6549C203.758 17.7069 203.907 17.7944 204.033 17.911C204.158 18.0276 204.256 18.1705 204.319 18.3293C204.383 18.4882 204.41 18.6591 204.4 18.8299C204.41 19.0132 204.379 19.1964 204.311 19.3669C204.244 19.5374 204.139 19.6911 204.006 19.8175C203.873 19.9439 203.714 20.04 203.541 20.0991C203.367 20.1582 203.182 20.1789 203 20.1599H200.9Z" fill="white"/>
<path d="M95.8798 25.8801C95.8818 26.5202 95.6301 27.1351 95.1798 27.5901C94.9627 27.8136 94.7032 27.9916 94.4164 28.1135C94.1296 28.2355 93.8214 28.2989 93.5098 28.3001H58.1498C57.8384 28.2978 57.5304 28.2338 57.2438 28.112C56.9572 27.9901 56.6975 27.8127 56.4798 27.5901C56.0295 27.1351 55.7778 26.5202 55.7798 25.8801V2.47006C55.7972 2.14945 55.8717 1.83452 55.9998 1.54006C56.1206 1.24866 56.2973 0.983685 56.5198 0.760063C56.7367 0.531666 56.999 0.351139 57.2898 0.230063C57.5747 0.110207 57.8808 0.0489877 58.1898 0.0500631H93.5098C93.8218 0.0489658 94.1307 0.111344 94.4178 0.233402C94.7049 0.35546 94.9641 0.534647 95.1798 0.760063C95.6301 1.21504 95.8818 1.82991 95.8798 2.47006V25.8801V25.8801Z" fill="white" stroke="black" stroke-width="0.1" stroke-miterlimit="10"/>
<path d="M72.6398 14.2299C72.6388 12.9707 72.919 11.7271 73.4598 10.5899C73.9927 9.45602 74.7756 8.45768 75.7498 7.66989C74.5555 6.69551 73.1072 6.08352 71.5761 5.9063C70.0449 5.72909 68.4951 5.99407 67.1098 6.66989C65.719 7.36363 64.5513 8.43435 63.7398 9.75989C62.9223 11.0966 62.4897 12.633 62.4897 14.1999C62.4897 15.7668 62.9223 17.3032 63.7398 18.6399C64.5513 19.9654 65.719 21.0362 67.1098 21.7299C68.4948 22.4069 70.0449 22.6726 71.5763 22.4953C73.1077 22.3181 74.5561 21.7054 75.7498 20.7299C74.7756 19.9421 73.9927 18.9438 73.4598 17.8099C72.919 16.6727 72.6388 15.4291 72.6398 14.1699" fill="#E20D17"/>
<path d="M72.6401 14.2299C72.6391 15.4892 72.9193 16.7327 73.4601 17.8699C73.993 19.0038 74.7759 20.0021 75.7501 20.7899C76.7097 19.9978 77.4788 18.9998 78.0001 17.8699C78.5401 16.7307 78.8202 15.4857 78.8202 14.2249C78.8202 12.9642 78.5401 11.7192 78.0001 10.5799C77.4642 9.45076 76.6816 8.4563 75.7101 7.66992C74.7386 8.4563 73.956 9.45076 73.4201 10.5799C72.8804 11.721 72.6003 12.9676 72.6001 14.2299" fill="#EA610A"/>
<path d="M80.83 5.86991C78.9794 5.8643 77.1841 6.50042 75.75 7.66991C76.7096 8.46204 77.4786 9.46005 78 10.5899C78.5398 11.7274 78.8199 12.9708 78.8199 14.2299C78.8199 15.489 78.5398 16.7324 78 17.8699C77.4671 19.0038 76.6841 20.0021 75.71 20.7899C77.1441 21.9594 78.9394 22.5955 80.79 22.5899C81.8749 22.5954 82.9498 22.3832 83.9512 21.9658C84.9527 21.5484 85.8601 20.9343 86.62 20.1599C88.1541 18.573 89.0117 16.4521 89.0117 14.2449C89.0117 12.0377 88.1541 9.91679 86.62 8.32991C85.8647 7.55987 84.9638 6.94762 83.9699 6.52875C82.9759 6.10987 81.9086 5.89272 80.83 5.88991" fill="#F59E00"/>
<path d="M262.45 25.9899C262.452 26.6301 262.2 27.245 261.75 27.6999C261.533 27.9256 261.272 28.1049 260.983 28.2269C260.694 28.349 260.384 28.4112 260.07 28.4099H224.72C224.408 28.411 224.099 28.3487 223.812 28.2266C223.525 28.1045 223.266 27.9253 223.05 27.6999C222.6 27.245 222.348 26.6301 222.35 25.9899V2.57993C222.35 2.26125 222.411 1.94549 222.53 1.64993C222.776 1.06412 223.238 0.595195 223.82 0.339932C224.105 0.220075 224.411 0.158856 224.72 0.159932H260.07C260.384 0.15864 260.694 0.220888 260.983 0.342917C261.272 0.464947 261.533 0.644226 261.75 0.869932C262.2 1.32491 262.452 1.93978 262.45 2.57993V25.9899V25.9899Z" fill="#005A9B"/>
<path d="M234.18 15.7801C239.268 13.4807 244.969 12.9117 250.41 14.1601L250.49 12.3201C244.843 11.7479 239.155 12.9058 234.18 15.6401V15.7801Z" fill="#FAA929"/>
<path d="M227.3 17.1601H230.89V18.2701H228.66V19.2701H230.88V20.3301H228.65V21.3301H230.85V22.4301H227.3V17.1601ZM231.79 16.7201H233.1V22.4701H231.8L231.79 16.7201ZM236.64 20.0601C236.64 19.6601 236.45 19.3001 236.01 19.3001C235.809 19.3179 235.62 19.4024 235.474 19.5402C235.327 19.678 235.23 19.861 235.2 20.0601H236.64ZM237.64 22.0601C237.147 22.4382 236.541 22.639 235.92 22.6301C235.653 22.6461 235.386 22.6054 235.136 22.5105C234.886 22.4157 234.659 22.2689 234.47 22.0799C234.281 21.8909 234.134 21.6639 234.039 21.414C233.945 21.1641 233.904 20.8969 233.92 20.6301C233.901 20.08 234.101 19.5449 234.476 19.1419C234.851 18.7389 235.37 18.5009 235.92 18.4801C237.37 18.4801 237.82 19.4801 237.82 20.8501H235.2C235.199 20.9651 235.222 21.0789 235.269 21.1839C235.316 21.2889 235.385 21.3826 235.472 21.4585C235.558 21.5344 235.66 21.5908 235.77 21.6239C235.88 21.657 235.996 21.6659 236.11 21.6501C236.497 21.6542 236.873 21.5194 237.17 21.2701L237.64 22.0601ZM241.81 22.2301C241.388 22.4783 240.909 22.6158 240.42 22.6301C240.148 22.6551 239.874 22.6211 239.617 22.5303C239.36 22.4395 239.125 22.2941 238.93 22.1041C238.734 21.9141 238.582 21.6839 238.483 21.4295C238.385 21.175 238.343 20.9023 238.36 20.6301C238.336 20.3412 238.375 20.0505 238.474 19.7782C238.573 19.5059 238.731 19.2584 238.935 19.053C239.14 18.8475 239.387 18.689 239.658 18.5883C239.93 18.4877 240.221 18.4473 240.51 18.4701C240.958 18.4693 241.398 18.5829 241.79 18.8001L241.37 19.6801C241.175 19.5905 240.964 19.5395 240.75 19.5301C240.612 19.519 240.473 19.5367 240.343 19.5819C240.212 19.6272 240.092 19.6991 239.99 19.7931C239.889 19.8871 239.808 20.0011 239.753 20.128C239.698 20.2548 239.669 20.3917 239.67 20.5301C239.67 20.7953 239.775 21.0496 239.963 21.2372C240.15 21.4247 240.405 21.5301 240.67 21.5301C240.92 21.5135 241.164 21.4381 241.38 21.3101L241.84 22.1901L241.81 22.2301ZM242.3 18.6301H242.89V17.2601H244.15V18.5801H245.23V19.5801H244.15C244.15 20.1201 244.15 20.6901 244.15 21.0201C244.15 21.3501 244.24 21.5201 244.53 21.5201C244.704 21.4998 244.869 21.4343 245.01 21.3301L245.3 22.2401C244.908 22.4798 244.459 22.6109 244 22.6201C242.94 22.6201 242.89 21.9401 242.89 21.0501C242.89 20.5701 242.89 20.0501 242.89 19.5801H242.33V18.5801L242.3 18.6301ZM245.86 18.6301H247.16V19.1601C247.243 18.9647 247.383 18.7986 247.561 18.6828C247.739 18.5671 247.947 18.5069 248.16 18.5101C248.303 18.4953 248.447 18.4953 248.59 18.5101L248.41 19.8301C248.261 19.781 248.106 19.7574 247.95 19.7601C247.793 19.7617 247.64 19.8041 247.505 19.883C247.37 19.9619 247.258 20.0746 247.18 20.2101V22.4401H245.87V18.5801L245.86 18.6301ZM250.94 21.6301C251.56 21.6301 251.75 21.0801 251.75 20.5701C251.75 20.0601 251.56 19.5101 250.94 19.5101C250.32 19.5101 250.13 20.0601 250.13 20.5701C250.13 21.0801 250.27 21.5701 250.9 21.5701L250.94 21.6301ZM250.94 18.5001C251.208 18.492 251.476 18.5381 251.726 18.6356C251.976 18.7331 252.204 18.8801 252.397 19.0677C252.589 19.2553 252.741 19.4797 252.845 19.7275C252.949 19.9753 253.001 20.2415 253 20.5101C252.963 21.0459 252.724 21.5477 252.332 21.9142C251.939 22.2807 251.422 22.4845 250.885 22.4845C250.348 22.4845 249.831 22.2807 249.438 21.9142C249.046 21.5477 248.807 21.0459 248.77 20.5101C248.76 20.2312 248.808 19.9532 248.911 19.6941C249.015 19.435 249.172 19.2004 249.371 19.0054C249.571 18.8104 249.809 18.6594 250.071 18.562C250.332 18.4647 250.611 18.4231 250.89 18.4401L250.94 18.5001ZM253.76 18.6401H255V19.0601C255.321 18.7256 255.757 18.5255 256.22 18.5001C257.03 18.5001 257.46 18.9501 257.46 20.0101C257.46 20.8001 257.46 21.6501 257.46 22.5001H256.15C256.15 21.7601 256.15 21.0101 256.15 20.2101C256.15 19.8901 256.06 19.6501 255.67 19.6501C255.411 19.688 255.171 19.8111 254.99 20.0001V22.5001H253.66V18.6401H253.76ZM238.09 10.6401L239.74 5.08006H241.22L239.57 10.6401H238.09ZM237.43 5.08006L236.11 7.43006C235.846 7.84243 235.635 8.28579 235.48 8.75006V8.75006C235.48 8.26006 235.48 7.65006 235.48 7.31006L235.33 5.08006H232.85V5.23006C232.991 5.21301 233.134 5.2262 233.269 5.26877C233.405 5.31133 233.53 5.38228 233.636 5.47689C233.742 5.57151 233.826 5.68762 233.884 5.81749C233.942 5.94736 233.971 6.088 233.97 6.23006L234.45 10.6501H235.98L239.06 5.09006H237.52L237.43 5.08006ZM248.72 7.36006C248.695 6.92375 248.695 6.48637 248.72 6.05006V6.05006C248.63 6.33006 248.24 7.15006 248.07 7.56006L247.52 8.78006H248.82L248.74 7.36006H248.72ZM248.89 10.6401V9.81006H247L246.63 10.6401H245L247.9 5.06006H249.9L250.39 10.6101L248.89 10.6401ZM242.76 10.8001C241.961 10.8071 241.176 10.585 240.5 10.1601L241.2 9.06006C241.656 9.41059 242.214 9.60358 242.79 9.61006C242.917 9.62341 243.046 9.60045 243.161 9.54384C243.276 9.48722 243.373 9.39924 243.44 9.29006C243.64 8.93006 243.39 8.73006 242.81 8.40006L242.53 8.16006C241.68 7.57006 241.31 7.00006 241.71 6.01006C241.89 5.64274 242.178 5.3394 242.535 5.14092C242.893 4.94245 243.303 4.85838 243.71 4.90006C244.406 4.91372 245.08 5.15225 245.63 5.58006L244.82 6.58006C244.515 6.27642 244.109 6.09499 243.68 6.07006C243.558 6.05632 243.435 6.07609 243.324 6.1272C243.213 6.17832 243.118 6.25885 243.05 6.36006C242.9 6.67006 243.1 6.88006 243.55 7.17006L243.89 7.39006C244.89 8.05006 245.17 8.75006 244.89 9.39006C244.726 9.82417 244.427 10.1935 244.035 10.4424C243.644 10.6913 243.182 10.8063 242.72 10.7701L242.76 10.8001Z" fill="white"/>
<path d="M40.09 25.9899C40.0904 26.6278 39.843 27.2409 39.4 27.6999C39.1818 27.9247 38.9206 28.1034 38.632 28.2253C38.3434 28.3473 38.0333 28.4101 37.72 28.4099H2.37C2.0567 28.4101 1.74656 28.3473 1.45798 28.2253C1.16939 28.1034 0.908239 27.9247 0.690001 27.6999C0.246991 27.2409 -0.00040831 26.6278 1.18042e-06 25.9899V2.57991C-0.000309742 2.26123 0.0608049 1.94547 0.180001 1.64991C0.297404 1.35909 0.47067 1.09409 0.690001 0.869913C0.911369 0.646772 1.17253 0.467013 1.46 0.339913C1.74859 0.220808 2.0578 0.159646 2.37 0.159913H37.72C38.0333 0.159766 38.3434 0.222534 38.632 0.344495C38.9206 0.466457 39.1818 0.645128 39.4 0.869913C39.843 1.32889 40.0904 1.94201 40.09 2.57991V25.9899V25.9899Z" fill="white"/>
<path d="M10.5399 14.3701L9.74986 10.5001C9.68751 10.2856 9.55517 10.0983 9.37394 9.96776C9.1927 9.83728 8.97301 9.77121 8.74986 9.78009H5.10986V9.96009C6.31125 10.1925 7.43727 10.7161 8.38921 11.4849C9.34114 12.2538 10.0899 13.2445 10.5699 14.3701" fill="#F79F1A"/>
<path d="M18.9199 9.85998H16.5799L15.1199 18.62H17.4599L18.9199 9.85998V9.85998ZM11.9199 18.61L15.5999 9.86998H13.1599L10.8799 15.87L10.6299 14.97C9.90328 13.4808 8.78715 12.2161 7.3999 11.31L9.4899 18.61H11.9199ZM25.5899 15.76C25.5899 14.76 24.9799 14 23.5899 13.38C22.7699 12.97 22.2699 12.7 22.2799 12.29C22.2899 11.88 22.6999 11.54 23.6199 11.54C24.2164 11.5292 24.8088 11.6416 25.3599 11.87L25.5699 11.97L25.8899 10.08C25.2208 9.83343 24.513 9.70813 23.7999 9.70998C21.4899 9.70998 19.8599 10.9 19.8499 12.6C19.8499 13.86 21.0099 14.6 21.8999 14.98C22.7899 15.36 23.1099 15.68 23.0999 16.06C23.0999 16.65 22.3799 16.92 21.7099 16.92C20.9504 16.9441 20.1961 16.7864 19.5099 16.46L19.2099 16.32L18.8799 18.32C19.7098 18.6368 20.5916 18.7962 21.4799 18.79C23.9399 18.79 25.5299 17.61 25.5499 15.79L25.5899 15.76ZM29.9999 13.06L30.3099 12.23L30.4699 12.98L30.9999 15.51H28.9999L29.9999 13.06ZM28.3999 17.31H31.3999C31.4699 17.61 31.6799 18.62 31.6799 18.62H33.8499L31.9599 9.86998H30.1599C29.9044 9.83948 29.646 9.89332 29.4239 10.0233C29.2019 10.1533 29.0284 10.3523 28.9299 10.59L25.4599 18.59H27.9199L28.4099 17.27L28.3999 17.31Z" fill="#005A9B"/>
<path d="M37.57 0.159926H2.36C2.05095 0.158851 1.74486 0.220069 1.46 0.339926C1.1692 0.461001 0.906928 0.641529 0.690001 0.869926C0.470669 1.09411 0.297403 1.3591 0.180001 1.64993C0.0608562 1.942 -0.000281252 2.25448 9.72662e-07 2.56993V5.07993H39.93V2.56993C39.9303 2.25448 39.8691 1.942 39.75 1.64993C39.6326 1.3591 39.4593 1.09411 39.24 0.869926C39.0231 0.641529 38.7608 0.461001 38.47 0.339926C38.1851 0.220069 37.879 0.158851 37.57 0.159926" fill="#005A9B"/>
<path d="M37.57 28.2999H2.36C2.05095 28.301 1.74486 28.2397 1.46 28.1199C1.1692 27.9988 0.906928 27.8183 0.690001 27.5899C0.470669 27.3657 0.297403 27.1007 0.180001 26.8099C0.0608562 26.5178 -0.000281252 26.2053 9.72662e-07 25.8899V23.3899H39.93V25.8899C39.9303 26.2053 39.8691 26.5178 39.75 26.8099C39.6326 27.1007 39.4593 27.3657 39.24 27.5899C39.0231 27.8183 38.7608 27.9988 38.47 28.1199C38.1851 28.2397 37.879 28.301 37.57 28.2999" fill="#F79F1A"/>
<path fill-rule="evenodd" clip-rule="evenodd" d="M317.54 25.9599C317.538 26.5871 317.291 27.1886 316.852 27.6368C316.413 28.0849 315.817 28.3443 315.19 28.3599H279.76C279.133 28.3443 278.537 28.0849 278.098 27.6368C277.659 27.1886 277.413 26.5871 277.41 25.9599V2.55991C277.413 1.93273 277.659 1.3312 278.098 0.88307C278.537 0.434941 279.133 0.175522 279.76 0.159912H315.09C315.717 0.175522 316.313 0.434941 316.752 0.88307C317.191 1.3312 317.438 1.93273 317.44 2.55991L317.54 25.9599V25.9599Z" fill="#005A9B"/>
<path fill-rule="evenodd" clip-rule="evenodd" d="M317.54 25.9599C317.538 26.5871 317.291 27.1886 316.852 27.6368C316.413 28.0849 315.817 28.3443 315.19 28.3599H279.76C279.133 28.3443 278.537 28.0849 278.098 27.6368C277.659 27.1886 277.413 26.5871 277.41 25.9599V2.55991C277.413 1.93273 277.659 1.3312 278.098 0.88307C278.537 0.434941 279.133 0.175522 279.76 0.159912H315.09C315.717 0.175522 316.313 0.434941 316.752 0.88307C317.191 1.3312 317.438 1.93273 317.44 2.55991L317.54 25.9599V25.9599Z" fill="#EFEFEF"/>
<path fill-rule="evenodd" clip-rule="evenodd" d="M284.46 9.91004H281.81C281.62 9.91004 281.52 10.01 281.42 10.21L280.35 17.21C280.35 17.31 280.44 17.51 280.54 17.51H281.81C282.01 17.51 282.11 17.41 282.2 17.21L282.5 15.31C282.5 15.11 282.69 15.01 282.89 15.01H283.77C284.138 15.0386 284.508 14.9938 284.859 14.8782C285.21 14.7627 285.534 14.5786 285.813 14.3368C286.092 14.0949 286.321 13.8001 286.485 13.4693C286.649 13.1386 286.746 12.7785 286.77 12.41C286.892 11.7947 286.789 11.156 286.48 10.61C285.9 10.1432 285.174 9.89541 284.43 9.91004H284.46ZM284.75 12.51C284.65 13.51 283.87 13.51 283.18 13.51H282.79L283.08 11.71C283.085 11.6585 283.107 11.6102 283.144 11.5736C283.18 11.5371 283.229 11.5145 283.28 11.51H283.48C283.97 11.51 284.48 11.51 284.65 11.81C284.75 11.91 284.85 12.16 284.75 12.51ZM292.38 12.51H291.11C291.06 12.5148 291.013 12.5377 290.978 12.5745C290.943 12.6112 290.922 12.6594 290.92 12.71L290.82 13.11L290.72 13.01C290.529 12.8211 290.297 12.6779 290.042 12.5913C289.788 12.5047 289.517 12.4769 289.25 12.51C288.547 12.5414 287.877 12.819 287.358 13.2943C286.839 13.7696 286.503 14.4123 286.41 15.11C286.305 15.8152 286.481 16.5333 286.9 17.11C287.09 17.3401 287.33 17.523 287.603 17.6445C287.875 17.7659 288.172 17.8226 288.47 17.81C288.796 17.8206 289.12 17.7639 289.423 17.6435C289.726 17.5231 290.001 17.3415 290.23 17.11L290.13 17.51C290.13 17.61 290.23 17.81 290.33 17.81H291.5C291.7 17.81 291.8 17.71 291.89 17.51L292.58 13.01C292.68 12.61 292.58 12.51 292.38 12.51V12.51ZM290.62 15.01C290.568 15.3571 290.389 15.6724 290.117 15.8943C289.845 16.1162 289.5 16.2288 289.15 16.21C288.982 16.2232 288.812 16.1934 288.659 16.1234C288.505 16.0535 288.371 15.9457 288.27 15.81C288.169 15.6862 288.099 15.5398 288.065 15.3832C288.032 15.2266 288.037 15.0643 288.08 14.91C288.124 14.5512 288.298 14.2209 288.569 13.9814C288.839 13.7419 289.189 13.6098 289.55 13.61C289.718 13.5904 289.888 13.6174 290.041 13.6879C290.195 13.7585 290.326 13.8699 290.42 14.01C290.527 14.1505 290.601 14.3136 290.636 14.4869C290.671 14.6602 290.665 14.8391 290.62 15.01ZM299.23 12.51H298C297.9 12.51 297.81 12.61 297.71 12.71L295.95 15.41L295.16 12.81C295.16 12.61 294.97 12.51 294.77 12.51H293.5C293.3 12.51 293.21 12.71 293.3 12.81L294.67 17.01L293.3 18.91C293.21 19.11 293.3 19.31 293.5 19.31H294.77C294.87 19.31 294.97 19.21 295.06 19.11L299.37 12.81C299.57 12.71 299.47 12.51 299.27 12.51" fill="#253B80"/>
<path fill-rule="evenodd" clip-rule="evenodd" d="M303.44 9.91002H300.8C300.6 9.91002 300.51 10.01 300.41 10.21L299.33 17.21C299.33 17.31 299.43 17.51 299.53 17.51H300.9C300.99 17.51 301.09 17.41 301.19 17.31L301.48 15.31C301.48 15.11 301.68 15.01 301.88 15.01H302.76C303.128 15.0386 303.498 14.9938 303.849 14.8782C304.2 14.7627 304.524 14.5786 304.803 14.3368C305.082 14.0949 305.311 13.8001 305.475 13.4693C305.639 13.1386 305.736 12.7785 305.76 12.41C305.882 11.7947 305.779 11.156 305.47 10.61C304.886 10.1433 304.157 9.89559 303.41 9.91002H303.44ZM303.74 12.51C303.64 13.51 302.86 13.51 302.17 13.51H301.78L302.07 11.71C302.075 11.6585 302.097 11.6102 302.134 11.5736C302.17 11.537 302.219 11.5145 302.27 11.51H302.46C302.95 11.51 303.46 11.51 303.64 11.81C303.74 11.91 303.83 12.16 303.74 12.51ZM311.47 12.51H310.2C310.149 12.5145 310.1 12.537 310.064 12.5736C310.027 12.6102 310.005 12.6585 310 12.71L309.9 13.11L309.8 13.01C309.609 12.8204 309.378 12.6769 309.123 12.5902C308.868 12.5036 308.597 12.4762 308.33 12.51C307.617 12.5333 306.937 12.8149 306.416 13.3024C305.896 13.79 305.57 14.4502 305.5 15.16C305.446 15.5092 305.461 15.8657 305.545 16.209C305.629 16.5522 305.781 16.8754 305.99 17.16C306.178 17.3899 306.417 17.5728 306.687 17.6943C306.958 17.8158 307.254 17.8726 307.55 17.86C307.876 17.8725 308.201 17.8166 308.504 17.6961C308.807 17.5755 309.082 17.3929 309.31 17.16L309.22 17.56C309.22 17.66 309.31 17.86 309.41 17.86H310.59C310.78 17.86 310.88 17.76 310.98 17.56L311.66 13.06C311.66 12.61 311.57 12.51 311.47 12.51ZM309.61 15.01C309.556 15.3561 309.376 15.6701 309.105 15.8916C308.834 16.1131 308.49 16.2265 308.14 16.21C307.971 16.2293 307.8 16.2023 307.645 16.1318C307.49 16.0614 307.357 15.9501 307.26 15.81C307.157 15.6871 307.085 15.5411 307.05 15.3844C307.015 15.2278 307.019 15.0651 307.06 14.91C307.108 14.5529 307.283 14.225 307.553 13.9863C307.823 13.7476 308.17 13.614 308.53 13.61C308.699 13.5908 308.87 13.6178 309.025 13.6882C309.18 13.7587 309.313 13.8699 309.41 14.01C309.515 14.1518 309.587 14.3149 309.622 14.4877C309.656 14.6606 309.652 14.8389 309.61 15.01V15.01ZM312.93 10.11L311.86 17.21C311.86 17.31 311.96 17.51 312.05 17.51H313.13C313.33 17.51 313.42 17.41 313.52 17.21L314.6 10.21C314.6 10.11 314.5 9.91002 314.4 9.91002H313.13C313.079 9.91453 313.03 9.93704 312.994 9.97362C312.957 10.0102 312.935 10.0585 312.93 10.11" fill="#179BD7"/>
<path d="M144 19.2299V18.9099H143.92L143.82 19.1299L143.72 18.9099H143.64V19.2299H143.7V18.9899L143.79 19.1999H143.85L143.94 18.9899V19.2299H144ZM143.47 19.2299V18.9699H143.58V18.9099H143.31V18.9699H143.41V19.2299H143.47Z" fill="#0099DF"/>
<path d="M134.56 20.6H127.39V7.69995H134.56V20.6Z" fill="#6C6BBD"/>
<path d="M127.85 14.16C127.848 12.9143 128.131 11.6846 128.677 10.565C129.223 9.44533 130.017 8.46535 131 7.69996C129.79 6.75015 128.338 6.15981 126.808 5.99637C125.279 5.83294 123.734 6.10299 122.351 6.77569C120.967 7.44839 119.801 8.49661 118.985 9.8006C118.169 11.1046 117.737 12.6118 117.737 14.15C117.737 15.6881 118.169 17.1953 118.985 18.4993C119.801 19.8033 120.967 20.8515 122.351 21.5242C123.734 22.1969 125.279 22.467 126.808 22.3035C128.338 22.1401 129.79 21.5498 131 20.6C130.02 19.8366 129.227 18.8599 128.681 17.7439C128.135 16.628 127.851 15.4022 127.85 14.16Z" fill="#EB001B"/>
<path d="M144.24 14.16C144.235 15.6933 143.8 17.1944 142.984 18.4928C142.169 19.7913 141.006 20.8351 139.627 21.5057C138.248 22.1764 136.709 22.4471 135.184 22.287C133.659 22.1269 132.209 21.5424 131 20.6C131.976 19.8317 132.764 18.852 133.307 17.7348C133.849 16.6176 134.13 15.3919 134.13 14.15C134.13 12.9081 133.849 11.6825 133.307 10.5652C132.764 9.44801 131.976 8.46835 131 7.70001C132.211 6.75656 133.662 6.17191 135.189 6.01257C136.715 5.85323 138.256 6.1256 139.636 6.79869C141.015 7.47178 142.178 8.51856 142.992 9.81994C143.806 11.1213 144.238 12.625 144.24 14.16Z" fill="#0099DF"/>
<path d="M137 24.2399C137.116 24.2412 137.231 24.2614 137.34 24.2999L137.19 24.7399C137.094 24.7215 136.996 24.7215 136.9 24.7399C136.59 24.7399 136.43 24.9399 136.43 25.2999V26.5199H135.96V24.2899H136.43V24.5599C136.487 24.4603 136.571 24.3779 136.671 24.3216C136.771 24.2653 136.885 24.2371 137 24.2399ZM135.25 24.7299H134.48V25.7299C134.48 25.9499 134.55 26.0899 134.79 26.0899C134.938 26.085 135.082 26.0438 135.21 25.9699L135.35 26.3799C135.169 26.4898 134.962 26.5486 134.75 26.5499C134.19 26.5499 134 26.2399 134 25.7399V24.7399H133.56V24.2999H134V23.6399H134.48V24.2999H135.25V24.7299ZM129.19 25.1899C129.198 25.0431 129.263 24.9053 129.371 24.8061C129.48 24.707 129.623 24.6544 129.77 24.6599C129.841 24.6586 129.911 24.6712 129.977 24.6971C130.043 24.7231 130.104 24.7617 130.155 24.811C130.206 24.8602 130.247 24.919 130.275 24.984C130.303 25.049 130.319 25.119 130.32 25.1899H129.19ZM130.81 25.3799C130.83 25.2373 130.819 25.0921 130.778 24.9541C130.737 24.8161 130.667 24.6886 130.572 24.5804C130.477 24.4722 130.359 24.3857 130.228 24.3269C130.097 24.2682 129.954 24.2385 129.81 24.2399C129.661 24.2353 129.513 24.262 129.376 24.3183C129.238 24.3746 129.114 24.4593 129.011 24.5668C128.908 24.6744 128.829 24.8023 128.779 24.9424C128.729 25.0825 128.709 25.2316 128.72 25.3799C128.712 25.5301 128.735 25.6805 128.788 25.8213C128.841 25.9621 128.922 26.0903 129.028 26.1976C129.133 26.3049 129.26 26.389 129.4 26.4445C129.54 26.5 129.69 26.5257 129.84 26.5199C130.163 26.5324 130.48 26.4256 130.73 26.2199L130.5 25.8699C130.323 26.0168 130.1 26.098 129.87 26.0999C129.711 26.1139 129.553 26.0653 129.43 25.9644C129.307 25.8635 129.228 25.7183 129.21 25.5599H130.83C130.835 25.5 130.835 25.4398 130.83 25.3799H130.81ZM132.91 24.8499C132.703 24.7299 132.469 24.6645 132.23 24.6599C131.97 24.6599 131.82 24.7599 131.82 24.9199C131.82 25.0799 131.98 25.0999 132.19 25.1299H132.41C132.88 25.1999 133.17 25.3999 133.17 25.7799C133.17 26.1599 132.81 26.4999 132.17 26.4999C131.834 26.5064 131.504 26.4048 131.23 26.2099L131.45 25.8399C131.656 25.9977 131.911 26.079 132.17 26.0699C132.5 26.0699 132.67 25.9799 132.67 25.8099C132.67 25.6399 132.55 25.6199 132.29 25.5799H132.06C131.58 25.5099 131.31 25.2899 131.31 24.9399C131.31 24.5899 131.67 24.2399 132.22 24.2399C132.532 24.2313 132.841 24.311 133.11 24.4699L132.91 24.8499ZM138.75 24.6899C138.661 24.6757 138.569 24.6757 138.48 24.6899C138.399 24.7232 138.324 24.7706 138.26 24.8299C138.202 24.8989 138.155 24.9765 138.12 25.0599C138.053 25.2406 138.053 25.4392 138.12 25.6199C138.155 25.7033 138.202 25.7809 138.26 25.8499C138.327 25.906 138.401 25.953 138.48 25.9899C138.567 26.0209 138.658 26.0378 138.75 26.0399C138.842 26.0398 138.934 26.0228 139.02 25.9899C139.102 25.9576 139.176 25.9101 139.24 25.8499C139.301 25.7813 139.352 25.7037 139.39 25.6199C139.457 25.4392 139.457 25.2406 139.39 25.0599C139.352 24.9761 139.301 24.8985 139.24 24.8299C139.179 24.7663 139.104 24.7182 139.02 24.6899C138.931 24.6738 138.839 24.6738 138.75 24.6899V24.6899ZM138.75 24.2399C138.911 24.2378 139.071 24.2684 139.22 24.3299C139.36 24.3859 139.489 24.4672 139.6 24.5699C139.702 24.6733 139.784 24.7956 139.84 24.9299C139.96 25.2248 139.96 25.555 139.84 25.8499C139.784 25.9842 139.702 26.1065 139.6 26.2099C139.489 26.3126 139.36 26.3939 139.22 26.4499C139.071 26.5114 138.911 26.542 138.75 26.5399C138.589 26.541 138.429 26.5104 138.28 26.4499C138.144 26.3914 138.019 26.3102 137.91 26.2099C137.808 26.1065 137.726 25.9842 137.67 25.8499C137.55 25.555 137.55 25.2248 137.67 24.9299C137.726 24.7956 137.808 24.6733 137.91 24.5699C138.019 24.4696 138.144 24.3884 138.28 24.3299C138.429 24.2694 138.589 24.2388 138.75 24.2399V24.2399ZM126.4 25.3799C126.4 25.2932 126.417 25.2074 126.45 25.1273C126.483 25.0472 126.532 24.9745 126.593 24.9132C126.655 24.8519 126.727 24.8033 126.807 24.7701C126.888 24.737 126.973 24.7199 127.06 24.7199C127.147 24.7199 127.232 24.737 127.313 24.7701C127.393 24.8033 127.465 24.8519 127.527 24.9132C127.588 24.9745 127.637 25.0472 127.67 25.1273C127.703 25.2074 127.72 25.2932 127.72 25.3799C127.72 25.4666 127.703 25.5524 127.67 25.6325C127.637 25.7125 127.588 25.7853 127.527 25.8466C127.465 25.9079 127.393 25.9565 127.313 25.9897C127.232 26.0228 127.147 26.0399 127.06 26.0399C126.973 26.0399 126.888 26.0228 126.807 25.9897C126.727 25.9565 126.655 25.9079 126.593 25.8466C126.532 25.7853 126.483 25.7125 126.45 25.6325C126.417 25.5524 126.4 25.4666 126.4 25.3799V25.3799ZM128.16 25.3799V24.2899H127.69V24.5599C127.609 24.4548 127.505 24.3708 127.384 24.3151C127.264 24.2593 127.132 24.2335 127 24.2399C126.715 24.2666 126.45 24.3987 126.257 24.6105C126.064 24.8223 125.957 25.0984 125.957 25.3849C125.957 25.6713 126.064 25.9475 126.257 26.1593C126.45 26.371 126.715 26.5032 127 26.5299C127.132 26.5338 127.263 26.5069 127.383 26.4514C127.503 26.3958 127.608 26.3132 127.69 26.2099V26.4699H128.16V25.3799ZM125.49 26.4699V25.0999C125.499 24.9856 125.483 24.8707 125.444 24.763C125.404 24.6553 125.342 24.5574 125.261 24.4758C125.181 24.3942 125.084 24.331 124.976 24.2903C124.869 24.2496 124.754 24.2324 124.64 24.2399C124.488 24.228 124.336 24.2581 124.2 24.3269C124.065 24.3957 123.95 24.5005 123.87 24.6299C123.798 24.5045 123.692 24.4017 123.565 24.3328C123.438 24.2639 123.294 24.2318 123.15 24.2399C123.026 24.2336 122.903 24.2598 122.792 24.316C122.682 24.3721 122.588 24.4562 122.52 24.5599V24.2899H122V26.4699H122.48V25.2599C122.471 25.1863 122.479 25.1118 122.501 25.0413C122.524 24.9709 122.562 24.9063 122.613 24.8521C122.663 24.7978 122.725 24.7552 122.794 24.7272C122.862 24.6992 122.936 24.6865 123.01 24.6899C123.33 24.6899 123.49 24.8899 123.49 25.2599V26.4699H124V25.2599C123.991 25.1863 123.999 25.1118 124.021 25.0413C124.044 24.9709 124.082 24.9063 124.133 24.8521C124.183 24.7978 124.245 24.7552 124.314 24.7272C124.382 24.6992 124.456 24.6865 124.53 24.6899C124.85 24.6899 125.01 24.8899 125.01 25.2599V26.4699H125.49Z" fill="#231F20"/>
<path d="M140.4 26.3099V26.3599H140.48H140.4V26.3099ZM140.4 26.3099H140.46H140.41L140.47 26.3799H140.42L140.36 26.3099V26.3799V26.1799L140.4 26.3099ZM140.4 26.5799H140.46H140.52C140.524 26.5568 140.524 26.5331 140.52 26.5099C140.524 26.4902 140.524 26.4697 140.52 26.4499V26.3899C140.52 26.3899 140.52 26.3899 140.46 26.3899H140.4H140.33C140.314 26.3852 140.296 26.3852 140.28 26.3899V26.4499C140.275 26.4697 140.275 26.4902 140.28 26.5099C140.275 26.533 140.275 26.5569 140.28 26.5799C140.303 26.6162 140.334 26.647 140.37 26.6699H140.44L140.4 26.5799ZM140.44 26.2799H140.52C140.572 26.3054 140.615 26.3476 140.64 26.3999C140.646 26.4263 140.646 26.4536 140.64 26.4799C140.645 26.5097 140.645 26.5401 140.64 26.5699V26.6299C140.621 26.652 140.597 26.6692 140.57 26.6799H140.49H140.4C140.373 26.6692 140.349 26.652 140.33 26.6299L140.28 26.5699C140.275 26.5401 140.275 26.5097 140.28 26.4799C140.274 26.4536 140.274 26.4263 140.28 26.3999L140.33 26.3299C140.353 26.3254 140.377 26.3254 140.4 26.3299H140.49" fill="#231F20"/>
</g>
<defs>
<clipPath id="clip0_4_31">
<rect width="317.54" height="28.62" fill="white"/>
</clipPath>
</defs>
</svg>
