<svg height="29" viewBox="0 0 375 29" xmlns="http://www.w3.org/2000/svg" xmlns:xlink="http://www.w3.org/1999/xlink">
	<defs>
		<path id="c" d="M0 .8h41V29H0z">
		</path>
	</defs>
	<g fill="none" fill-rule="evenodd">
		<path d="M40.967 26.578A2.422 2.422 0 0 1 38.545 29H2.422A2.422 2.422 0 0 1 0 26.578V3.17A2.422 2.422 0 0 1 2.422.747h36.123a2.422 2.422 0 0 1 2.422 2.422v23.41-.001z" fill="#306FC5" fill-rule="nonzero" mask="url(#ae-(1)-mask-1)" transform="translate(114 -.747)">
		</path>
		<path d="M118.82 9.243l.602 1.496h-1.205l.603-1.496zm-.68-.995l-1.84 4.275h1.198l.339-.856h1.973l.338.856h1.222l-1.836-4.275h-1.394zm3.357 4.274V8.247l1.702.005.99 2.757.965-2.762h1.688v4.275h-1.069v-3.15l-1.133 3.15h-.937l-1.137-3.15v3.15h-1.069zm6.077 0V8.247h3.488v.956h-2.407v.731h2.35v.901h-2.35v.76h2.407v.927h-3.488zm5.176-3.318h1.222c.293 0 .506.229.506.45 0 .284-.276.45-.49.45h-1.238v-.9zm-1.07-.956v4.275h1.07v-1.518h.45l1.282 1.518h1.306l-1.407-1.575a1.302 1.302 0 0 0 1.173-1.313c0-.9-.706-1.387-1.494-1.387h-2.38z" fill="#FFF" fill-rule="nonzero">
		</path>
		<path d="M21.991 12.523h1.091V8.248h-1.091v4.275zm3.679-.001h-.235c-1.14 0-1.832-.897-1.832-2.12 0-1.252.684-2.155 2.124-2.155h1.18v1.012h-1.224c-.584 0-.997.456-.997 1.154 0 .828.472 1.175 1.153 1.175h.28l-.45.934h.001zm3.007-3.279l.6 1.496h-1.203l.603-1.496zm-.681-.995l-1.84 4.275h1.199l.339-.856h1.973l.337.856h1.224L29.39 8.248h-1.395.001zm3.356 4.274V8.247h1.36l1.734 2.686V8.247h1.07v4.275H34.2l-1.779-2.757v2.757h-1.069zm-21.267 7.484V15.73h3.488v.956h-2.407v.732h2.351v.9h-2.35v.758h2.406v.93h-3.488zm17.093 0V15.73h3.488v.956h-2.407v.732h2.34v.9h-2.34v.758h2.407v.93h-3.488zm-13.468 0l1.697-2.113-1.739-2.163h1.347l1.036 1.337 1.04-1.337h1.293l-1.716 2.136 1.701 2.14h-1.346l-1.006-1.317-.98 1.317H13.71zm5.884-3.309h1.185c.308 0 .527.188.527.492 0 .286-.218.492-.53.492h-1.182v-.984zm-1.097-.967v4.277h1.097v-1.351h1.125c.953 0 1.674-.505 1.674-1.487 0-.815-.566-1.44-1.535-1.44h-2.361v.001zm5.429.956h1.222c.293 0 .507.23.507.45 0 .283-.277.45-.491.45h-1.238v-.9zm-1.07-.957v4.276h1.07v-1.519h.45l1.282 1.52h1.307l-1.407-1.576a1.303 1.303 0 0 0 1.173-1.313c0-.9-.707-1.388-1.495-1.388h-2.38zm8.305 4.277v-.93h2.14c.316 0 .453-.17.453-.358 0-.18-.136-.36-.453-.36h-.967c-.84 0-1.309-.514-1.309-1.282 0-.686.429-1.346 1.678-1.346h2.082l-.451.962h-1.8c-.344 0-.45.18-.45.352 0 .177.131.373.393.373h1.014c.936 0 1.342.531 1.342 1.227 0 .748-.452 1.362-1.394 1.362h-2.278zm3.923 0v-.93h2.05c.316 0 .452-.17.452-.358 0-.18-.136-.36-.453-.36h-.876c-.84 0-1.309-.514-1.309-1.282 0-.686.43-1.346 1.678-1.346h2.04l-.45.962h-1.759c-.344 0-.45.18-.45.352 0 .177.131.373.394.373h.922c.937 0 1.343.531 1.343 1.227 0 .748-.453 1.362-1.394 1.362h-2.188z" fill="#FFF" fill-rule="nonzero" mask="url(#ae-(1)-mask-4)" transform="translate(114)">
		</path>
		<path d="M40.967 26.578A2.422 2.422 0 0 1 38.545 29H2.422A2.422 2.422 0 0 1 0 26.578V3.17A2.422 2.422 0 0 1 2.422.747h36.123a2.422 2.422 0 0 1 2.422 2.422v23.41-.001z" fill="#FFF" fill-rule="nonzero" mask="url(#mc-(1)-mask-6)" transform="translate(57 -.86)">
		</path>
		<path d="M74.225 14.07a8.35 8.35 0 0 1 3.176-6.56 8.364 8.364 0 0 0-13.551 6.56 8.364 8.364 0 0 0 13.552 6.559 8.348 8.348 0 0 1-3.176-6.558" fill="#E20D17" fill-rule="nonzero">
		</path>
		<path d="M74.225 14.07a8.348 8.348 0 0 0 3.176 6.558 8.348 8.348 0 0 0 3.176-6.558 8.35 8.35 0 0 0-3.176-6.56 8.35 8.35 0 0 0-3.176 6.56" fill="#EA610A" fill-rule="nonzero">
		</path>
		<path d="M82.59 5.705c-1.96 0-3.762.676-5.188 1.806a8.348 8.348 0 0 1 3.176 6.56 8.344 8.344 0 0 1-3.176 6.556 8.326 8.326 0 0 0 5.188 1.807 8.364 8.364 0 0 0 0-16.729" fill="#F59E00" fill-rule="nonzero">
		</path>
		<path d="M40.967 26.578A2.422 2.422 0 0 1 38.545 29H2.422A2.422 2.422 0 0 1 0 26.578V3.17A2.422 2.422 0 0 1 2.422.747h36.123a2.422 2.422 0 0 1 2.422 2.422v23.41-.001z" fill="#F5E425" fill-rule="nonzero" mask="url(#pp-(1)-mask-8)" transform="translate(228 -.748)">
		</path>
		<g transform="translate(228 -.748)">
			<mask id="b" fill="#fff">
				<use xlink:href="#a">
				</use>
			</mask>
			<path d="M40.967 26.578A2.422 2.422 0 0 1 38.545 29H2.422A2.422 2.422 0 0 1 0 26.578V3.17A2.422 2.422 0 0 1 2.422.747h36.123a2.422 2.422 0 0 1 2.422 2.422v23.41-.001z" id="a" fill="#F5E425" fill-rule="nonzero" mask="url(#b)">
			</path>
		</g>
		<path d="M232.662 14.33c-.051.24-.067.486-.048.73.021.232.078.433.176.606.096.172.226.31.393.412.166.102.37.153.61.153.268 0 .515-.054.74-.163a1.83 1.83 0 0 0 .587-.442c.167-.187.305-.404.416-.652.11-.248.19-.516.236-.802.118-.572.064-1.012-.162-1.32-.224-.305-.558-.46-1.003-.46-.245 0-.474.05-.687.15-.214.1-.404.235-.57.407a2.416 2.416 0 0 0-.424.613c-.12.244-.208.502-.264.768zm-.858 4.039h-.527l1.341-6.326h.526l-.167.797h.018a1.95 1.95 0 0 1 .377-.394c.145-.117.298-.214.455-.29.158-.075.317-.134.478-.175.161-.041.314-.061.46-.061.368 0 .67.06.903.184.233.122.408.29.525.504.116.213.183.466.198.758.014.292-.014.605-.083.938a4.25 4.25 0 0 1-.317.91c-.14.293-.316.548-.53.767a2.49 2.49 0 0 1-.744.526 2.209 2.209 0 0 1-.943.197 1.82 1.82 0 0 1-.88-.215 1.16 1.16 0 0 1-.556-.635l-.534 2.515z" fill="#004EAC" fill-rule="nonzero">
		</path>
		<path d="M232.76 14.35a2.44 2.44 0 0 0-.047.701c.02.217.074.407.164.566.087.157.208.283.36.376.149.091.336.138.556.138.25 0 .487-.052.697-.152.212-.102.4-.243.555-.419a2.41 2.41 0 0 0 .4-.627c.107-.24.185-.502.23-.777.11-.544.063-.962-.144-1.244-.208-.283-.508-.419-.923-.419-.23 0-.448.046-.646.14a1.797 1.797 0 0 0-.54.385 2.293 2.293 0 0 0-.407.588c-.115.236-.2.486-.255.743v.001zm1.033 1.98c-.258 0-.48-.057-.661-.169a1.192 1.192 0 0 1-.43-.448 1.572 1.572 0 0 1-.187-.643c-.02-.254-.004-.51.05-.76v-.002c.06-.28.15-.546.27-.79.12-.244.27-.459.444-.639.172-.178.374-.322.599-.427.225-.105.47-.159.73-.159.475 0 .84.17 1.083.5.24.33.3.801.179 1.4a3.346 3.346 0 0 1-.243.82 2.642 2.642 0 0 1-.432.68 1.962 1.962 0 0 1-.62.465 1.798 1.798 0 0 1-.782.171v.001zm-2.393 1.94h.322l.589-2.77.119.32c.098.258.265.45.51.581.25.136.53.204.834.204.328 0 .63-.064.9-.189.272-.126.513-.296.715-.505.206-.21.378-.459.512-.74.135-.283.24-.582.308-.89.069-.323.095-.629.08-.91a1.658 1.658 0 0 0-.183-.716 1.13 1.13 0 0 0-.485-.463c-.217-.115-.506-.173-.857-.173-.138 0-.284.02-.435.058a2.34 2.34 0 0 0-.896.446c-.138.11-.258.236-.358.375l-.03.041h-.173l.008-.119.14-.679h-.32l-1.3 6.129zm.484.197h-.73l1.382-6.524h.73l-.12.568c.187-.181.402-.331.636-.444a2.81 2.81 0 0 1 .498-.183 1.99 1.99 0 0 1 .484-.064c.384 0 .703.066.95.196.249.131.439.314.566.543.123.227.194.496.209.802.015.298-.014.622-.085.962-.072.323-.18.636-.324.934-.143.3-.328.567-.548.792-.22.227-.48.411-.774.548-.309.14-.645.21-.984.206-.337 0-.65-.076-.928-.226a1.293 1.293 0 0 1-.47-.427l-.492 2.317zm8.674-4.155c.052-.269.075-.52.069-.754 0-.21-.046-.418-.135-.609a.954.954 0 0 0-.386-.408c-.173-.098-.4-.148-.68-.148-.273 0-.52.054-.74.162-.22.11-.41.251-.573.43a2.363 2.363 0 0 0-.404.612c-.104.232-.183.47-.236.715a2.79 2.79 0 0 0-.061.775c.017.237.073.44.167.61.092.17.225.3.398.393.172.094.384.141.636.141.273 0 .52-.055.74-.163.219-.108.408-.252.569-.433.16-.18.293-.386.399-.614.104-.228.183-.464.237-.709zm-2.051 2.392a2.082 2.082 0 0 1-.784-.158 1.392 1.392 0 0 1-.57-.447 1.645 1.645 0 0 1-.293-.745c-.047-.298-.03-.646.052-1.042.07-.333.18-.645.329-.934a2.94 2.94 0 0 1 .556-.757c.222-.216.478-.387.767-.513.289-.126.609-.189.96-.189.356 0 .652.063.888.19.237.125.419.294.548.507.128.214.204.467.228.76.023.29 0 .603-.07.936a3.44 3.44 0 0 1-.36.98 2.994 2.994 0 0 1-.587.754 2.494 2.494 0 0 1-.766.487c-.285.114-.59.172-.898.171z" fill="#004EAC" fill-rule="nonzero">
		</path>
		<path d="M239.426 12.493c-.257 0-.49.05-.696.15a1.84 1.84 0 0 0-.544.41c-.157.17-.287.367-.386.586-.103.225-.18.458-.23.694-.056.268-.076.52-.06.748.017.22.069.412.155.567.085.155.202.27.359.356.157.085.354.128.589.128.256 0 .49-.052.696-.153.206-.101.387-.24.538-.41a2.39 2.39 0 0 0 .384-.59c.101-.22.178-.45.229-.687.05-.26.073-.506.068-.732 0-.196-.043-.39-.125-.567a.845.845 0 0 0-.347-.364c-.156-.09-.368-.136-.63-.136zm-.813 3.837c-.268 0-.498-.051-.684-.151a1.09 1.09 0 0 1-.438-.434c-.1-.181-.16-.4-.18-.65-.015-.27.006-.54.064-.803.054-.25.136-.497.243-.736.109-.237.249-.452.42-.64.172-.185.374-.336.605-.45.232-.115.496-.172.783-.172.297 0 .542.054.729.162.19.109.333.26.425.449.09.184.14.402.147.65.005.24-.02.5-.072.776v.002a3.475 3.475 0 0 1-.245.729 2.543 2.543 0 0 1-.414.639c-.17.189-.37.344-.6.457a1.772 1.772 0 0 1-.783.172zm.91-4.311c-.335 0-.645.06-.92.18-.277.12-.524.286-.737.494-.218.213-.4.46-.537.732a3.602 3.602 0 0 0-.32.907c-.08.383-.096.722-.052 1.007.044.28.137.516.275.7.138.184.316.324.53.415.218.095.469.144.746.15.3 0 .589-.054.859-.163a2.38 2.38 0 0 0 .737-.468c.219-.203.41-.448.567-.728.158-.281.276-.602.35-.953.067-.322.09-.63.067-.91a1.606 1.606 0 0 0-.213-.714 1.288 1.288 0 0 0-.51-.472c-.22-.117-.503-.177-.841-.177h-.001zm-1.016 4.785h-.003a2.172 2.172 0 0 1-.821-.166 1.505 1.505 0 0 1-.61-.48 1.754 1.754 0 0 1-.311-.788c-.05-.31-.031-.672.054-1.078a3.75 3.75 0 0 1 .337-.96c.152-.296.346-.56.575-.782.229-.223.497-.403.797-.533.316-.134.656-.2.999-.197.37 0 .685.068.935.2.25.134.448.318.586.545.137.226.217.495.242.802.024.3-.001.624-.072.965a3.567 3.567 0 0 1-.37 1.01c-.166.298-.371.56-.606.778a2.607 2.607 0 0 1-.797.506c-.295.118-.61.178-.935.178zm3.478-1.642c.006.392.098.667.275.828.18.16.466.24.864.24a1.7 1.7 0 0 0 .512-.07c.15-.046.278-.108.386-.187.108-.08.195-.168.263-.268a.914.914 0 0 0 .136-.315c.046-.222.01-.387-.11-.496a1.266 1.266 0 0 0-.486-.253 6.1 6.1 0 0 0-.666-.158 2.916 2.916 0 0 1-.657-.197 1.033 1.033 0 0 1-.46-.377c-.108-.163-.13-.394-.067-.692.083-.38.287-.691.614-.934.328-.242.745-.363 1.253-.363.491 0 .865.11 1.122.329.257.219.365.585.324 1.1h-.534c.023-.351-.059-.598-.246-.741-.187-.143-.444-.215-.77-.215-.334 0-.605.072-.812.215a.873.873 0 0 0-.38.565c-.036.152-.02.277.043.377.064.099.16.18.281.245.123.064.265.119.43.162.163.044.331.088.503.132.172.044.338.094.5.153.16.059.298.136.415.232a.804.804 0 0 1 .254.364c.053.146.056.327.01.543a1.439 1.439 0 0 1-.26.574 1.58 1.58 0 0 1-.472.416c-.19.11-.404.194-.64.25a3.335 3.335 0 0 1-.758.083c-.268 0-.498-.04-.687-.118a1.178 1.178 0 0 1-.46-.328 1.169 1.169 0 0 1-.24-.492 1.56 1.56 0 0 1-.015-.604h.535z" fill="#004EAC" fill-rule="nonzero">
		</path>
		<path d="M241.537 15.261c-.02.16-.012.324.023.482.04.17.114.322.221.45.108.13.25.23.422.3.178.075.396.112.65.112.26 0 .507-.028.735-.082.226-.053.432-.133.612-.239.177-.102.326-.234.443-.39.118-.154.198-.333.242-.534.042-.198.04-.363-.005-.49a.731.731 0 0 0-.225-.32 1.285 1.285 0 0 0-.387-.215 5.142 5.142 0 0 0-.489-.15c-.17-.042-.338-.087-.506-.133a2.26 2.26 0 0 1-.45-.17.82.82 0 0 1-.317-.279c-.079-.122-.099-.275-.057-.453a.973.973 0 0 1 .421-.624c.224-.155.516-.233.867-.233.348 0 .628.08.832.235.194.15.29.391.288.72h.338c.02-.43-.08-.74-.295-.925-.238-.202-.594-.304-1.057-.304-.485 0-.886.115-1.194.344-.31.23-.499.515-.576.875-.058.268-.04.475.052.615a.917.917 0 0 0 .418.342c.19.084.403.148.634.19.24.043.467.098.676.16.216.065.393.157.525.275.147.133.194.333.14.59a.98.98 0 0 1-.15.35c-.075.11-.172.208-.288.293-.126.09-.266.157-.414.202-.157.05-.34.074-.542.074-.42 0-.733-.089-.929-.265-.183-.166-.286-.436-.306-.803h-.352zm1.315 1.542c-.279 0-.523-.043-.725-.126a1.281 1.281 0 0 1-.499-.356 1.286 1.286 0 0 1-.26-.533 1.658 1.658 0 0 1-.016-.642l.014-.084h.717l.002.097c.005.361.087.615.243.757.158.143.427.215.796.215.183 0 .345-.02.482-.065.137-.043.258-.102.358-.175a.983.983 0 0 0 .24-.243.77.77 0 0 0 .12-.28c.04-.185.013-.317-.079-.4a1.15 1.15 0 0 0-.449-.232 5.624 5.624 0 0 0-.655-.156 3.008 3.008 0 0 1-.679-.204 1.119 1.119 0 0 1-.503-.414c-.123-.185-.15-.444-.08-.766.087-.404.306-.738.652-.994.342-.254.784-.382 1.312-.382.511 0 .91.12 1.186.352.281.24.402.64.36 1.184l-.009.091h-.733l.007-.106c.022-.313-.049-.534-.206-.655-.168-.129-.407-.194-.71-.194-.312 0-.565.066-.755.197a.776.776 0 0 0-.34.503c-.03.13-.02.227.03.303.061.09.146.164.244.212.114.06.251.112.408.153.163.044.331.09.502.131.175.044.346.097.51.158.17.061.32.144.445.247.13.11.226.246.284.407.06.165.064.36.012.6a1.54 1.54 0 0 1-.276.611c-.136.18-.307.33-.502.442-.208.12-.433.208-.667.261a3.362 3.362 0 0 1-.78.086h-.001zm4.285-.205c-.09.018-.179.038-.267.062a1.47 1.47 0 0 1-.364.043c-.263 0-.447-.065-.556-.197-.108-.132-.126-.366-.057-.705l.7-3.32h-.64l.098-.439h.64l.27-1.26h.528l-.273 1.26h.85l-.096.438h-.85l-.657 3.111a5.12 5.12 0 0 0-.053.29.413.413 0 0 0 .013.2c.02.052.062.094.114.115.08.027.165.039.25.035.07 0 .142-.006.214-.018a2.68 2.68 0 0 0 .224-.044l-.088.43v-.001z" fill="#004EAC" fill-rule="nonzero">
		</path>
		<path d="M246.077 12.38h.64l-.727 3.441c-.062.303-.049.519.037.623.088.107.25.162.48.162.115 0 .23-.016.34-.042a3.68 3.68 0 0 1 .207-.05l.044-.216-.08.014c-.23.034-.412.02-.52-.024a.302.302 0 0 1-.168-.17.51.51 0 0 1-.019-.252c.012-.084.031-.181.054-.296l.674-3.19h.85l.053-.239h-.849l.271-1.26h-.322l-.273 1.26h-.639l-.053.24v-.001zm.43 4.423c-.294 0-.506-.078-.634-.233-.129-.157-.154-.416-.077-.79l.675-3.2h-.64l.14-.636h.64l.271-1.263h.73l-.272 1.263h.85l-.14.635h-.849l-.642 3.031c-.022.11-.04.204-.05.285a.303.303 0 0 0 .006.15.11.11 0 0 0 .06.06c.03.011.09.026.212.026a1.994 1.994 0 0 0 .415-.06l.15-.034-.13.649-.067.01a5.297 5.297 0 0 0-.26.06 1.61 1.61 0 0 1-.389.047h.001zm5.09-2.806c.046-.223.06-.431.039-.627a1.19 1.19 0 0 0-.162-.508.94.94 0 0 0-.376-.342 1.284 1.284 0 0 0-.597-.127 1.57 1.57 0 0 0-.644.13 1.971 1.971 0 0 0-.53.352c-.16.15-.3.32-.412.509-.117.192-.21.396-.28.613h2.962zm-3.06.437c-.05.246-.07.478-.05.698.01.2.068.395.166.569.092.16.226.289.398.385.173.097.384.145.636.145.344 0 .658-.09.942-.272.283-.181.5-.438.653-.771h.586a3.948 3.948 0 0 1-.38.6 2.51 2.51 0 0 1-.496.482c-.192.14-.405.248-.631.32a2.542 2.542 0 0 1-.78.114c-.362 0-.662-.061-.897-.184a1.326 1.326 0 0 1-.544-.503c-.13-.23-.204-.49-.215-.754-.016-.29.01-.6.079-.933a3.5 3.5 0 0 1 .342-.938c.157-.291.35-.547.573-.766.226-.22.48-.392.763-.518.283-.126.589-.188.916-.188.625 0 1.07.215 1.336.644.266.429.308 1.053.127 1.87h-3.524z" fill="#004EAC" fill-rule="nonzero">
		</path>
		<path d="M248.774 13.897h2.74c.031-.182.04-.356.023-.518a1.105 1.105 0 0 0-.149-.465.82.82 0 0 0-.337-.305c-.297-.156-.793-.156-1.154.006a1.846 1.846 0 0 0-.503.332c-.15.14-.284.305-.393.488-.09.146-.165.301-.227.462zm2.902.2h-3.178l.042-.13c.072-.224.17-.437.291-.635a2.4 2.4 0 0 1 .427-.53c.166-.154.354-.277.558-.369.207-.092.437-.14.685-.14.25 0 .465.047.641.14.18.09.32.218.416.377.095.153.154.338.176.55.021.204.008.426-.04.657l-.018.08zm-1.079-2.078c-.312 0-.606.061-.876.18a2.51 2.51 0 0 0-.733.498 3.082 3.082 0 0 0-.555.742c-.153.283-.264.59-.332.91a3.42 3.42 0 0 0-.077.906c.017.274.084.512.201.711.115.196.284.352.504.465.221.115.508.174.852.174.271 0 .524-.037.75-.109.221-.073.424-.176.601-.306.178-.13.338-.286.476-.463.106-.137.205-.285.294-.44h-.359c-.158.322-.38.576-.662.756-.297.19-.632.287-.995.287-.267 0-.497-.053-.683-.157a1.145 1.145 0 0 1-.437-.422 1.43 1.43 0 0 1-.18-.612c-.017-.225 0-.47.055-.725l.016-.079h3.522c.155-.75.111-1.328-.13-1.719-.249-.402-.659-.597-1.252-.597zm-1.016 4.784c-.376 0-.694-.065-.944-.195a1.42 1.42 0 0 1-.583-.54 1.763 1.763 0 0 1-.229-.8 3.686 3.686 0 0 1 .082-.959c.071-.34.19-.665.35-.965.162-.299.361-.564.593-.79a2.74 2.74 0 0 1 .79-.537c.296-.13.617-.197.957-.197.658 0 1.136.233 1.421.692.278.45.324 1.104.14 1.945l-.018.077h-3.52a2.264 2.264 0 0 0-.034.59c.014.202.066.378.152.527a.92.92 0 0 0 .361.35 1.2 1.2 0 0 0 .587.13c.324 0 .624-.086.89-.255a1.68 1.68 0 0 0 .615-.73l.026-.058h.813l-.074.144c-.11.217-.24.424-.39.617-.15.192-.323.36-.516.501a2.33 2.33 0 0 1-.659.335 2.71 2.71 0 0 1-.81.118zm5.719-3.923c-.44 0-.79.21-1.043.63a2.91 2.91 0 0 0-.308.847c-.114.542-.051.922.189 1.142.145.129.335.193.569.193.339 0 .626-.131.86-.395.234-.262.396-.61.487-1.048.077-.359.063-.678-.042-.954-.106-.275-.343-.415-.711-.415h-.001zm2.025 1.31c-.173.82-.492 1.447-.952 1.879-.461.43-.981.645-1.563.645-.371 0-.66-.093-.864-.278a1.265 1.265 0 0 1-.3-.45l-.518 2.43h-1.206l1.382-6.498h1.168l-.146.689a2.65 2.65 0 0 1 .522-.48 1.825 1.825 0 0 1 1.03-.312c.546 0 .964.202 1.257.604.292.4.355.992.19 1.771z" fill="#004EAC" fill-rule="nonzero">
		</path>
		<path d="M255.3 12.98c-.407 0-.722.19-.958.58-.14.255-.24.53-.296.817-.105.502-.052.855.158 1.048.125.11.295.166.503.166.313 0 .57-.117.785-.359.222-.25.378-.586.465-1.003.073-.34.059-.642-.04-.898-.09-.237-.291-.35-.616-.35l-.001-.001zm-.593 2.811a.93.93 0 0 1-.635-.218c-.268-.245-.341-.66-.22-1.237.077-.352.184-.648.32-.877.273-.45.652-.678 1.129-.678.412 0 .682.161.804.478.112.293.127.634.047 1.012-.094.45-.266.817-.51 1.093-.233.274-.575.43-.935.427zm-2.663 2.526h1.003l.567-2.653.123.283c.08.182.17.322.275.415.185.168.454.252.798.252.553 0 1.055-.208 1.496-.619.442-.414.753-1.028.922-1.827.158-.747.1-1.316-.173-1.692-.275-.378-.66-.56-1.176-.56a1.73 1.73 0 0 0-.975.294c-.187.13-.355.285-.502.46l-.252.295.199-.949h-.965l-1.34 6.301zm1.165.2h-1.41l1.424-6.699h1.37l-.098.467c.1-.094.2-.174.298-.24.328-.218.694-.33 1.086-.33.576 0 1.026.217 1.336.645.309.423.378 1.046.207 1.85-.178.838-.508 1.488-.981 1.93-.478.446-1.027.673-1.631.673-.395 0-.708-.103-.932-.304a1.142 1.142 0 0 1-.192-.233l-.477 2.24v.001zm7.324-4.203a1.585 1.585 0 0 1-.257.117c-.085.03-.199.058-.342.084l-.282.051c-.268.046-.465.102-.59.167a.724.724 0 0 0-.39.518c-.045.208-.02.358.075.451a.542.542 0 0 0 .391.14c.263 0 .521-.078.775-.232.254-.154.43-.435.526-.843l.094-.453zm-.62-.569a2.19 2.19 0 0 0 .51-.108c.187-.073.298-.189.334-.345.04-.192 0-.324-.117-.397-.117-.072-.303-.109-.56-.109-.288 0-.508.072-.659.214a1.198 1.198 0 0 0-.26.428h-1.178c.114-.408.3-.743.556-1.006.412-.41 1.01-.616 1.794-.616.511 0 .941.102 1.296.304.353.203.47.585.35 1.147l-.458 2.14c-.03.147-.065.327-.102.538-.026.16-.025.268.003.325a.31.31 0 0 0 .147.141l-.034.18h-1.327a1.237 1.237 0 0 1-.02-.265 2.44 2.44 0 0 1 .025-.282 3.555 3.555 0 0 1-.68.466c-.298.151-.61.226-.94.226-.424 0-.747-.12-.97-.36-.225-.242-.29-.583-.196-1.026.123-.573.432-.988.928-1.245.272-.139.65-.239 1.134-.299l.424-.05v-.001z" fill="#004EAC" fill-rule="nonzero">
		</path>
		<path d="M260.395 14.492a1.487 1.487 0 0 1-.085.033 2.598 2.598 0 0 1-.358.088l-.282.052c-.256.042-.445.095-.563.156a.627.627 0 0 0-.337.45c-.037.173-.021.294.047.36a.443.443 0 0 0 .322.11c.242 0 .486-.072.723-.216.229-.138.39-.402.48-.781l.053-.252zm-1.257 1.448a.632.632 0 0 1-.46-.167c-.12-.117-.155-.3-.102-.543a.822.822 0 0 1 .44-.585c.137-.071.345-.131.62-.176l.28-.051c.137-.026.248-.052.329-.08.082-.03.163-.067.24-.111l.19-.11-.137.67c-.104.436-.296.74-.573.907a1.577 1.577 0 0 1-.826.246h-.001zm.787-2.096l-.424.05c-.469.059-.838.156-1.1.29-.474.245-.76.63-.877 1.177-.088.412-.032.719.171.937.206.22.5.33.896.33.314 0 .615-.073.896-.216.235-.123.457-.275.66-.453l.2-.175-.035.264c-.014.1-.023.19-.024.27-.003.053 0 .107.006.164h1.16l.005-.031a.384.384 0 0 1-.127-.148c-.038-.078-.04-.2-.01-.383.036-.214.07-.395.102-.544l.459-2.14c.11-.52.011-.86-.303-1.04-.337-.191-.756-.29-1.246-.29-.754 0-1.335.197-1.725.587a2.148 2.148 0 0 0-.49.836h.974a1.31 1.31 0 0 1 .258-.4c.172-.161.416-.243.73-.243.275 0 .475.04.611.125.108.068.222.208.161.5-.043.193-.175.332-.395.419-.172.059-.35.097-.532.114h-.001zm-1.334 2.982c-.449 0-.8-.133-1.043-.394-.245-.265-.318-.64-.217-1.113.127-.6.457-1.041.979-1.312.283-.145.675-.25 1.168-.31l.423-.051c.223-.027.387-.061.485-.1.155-.062.245-.153.273-.277.041-.193-.021-.257-.072-.29-.069-.043-.213-.093-.507-.093-.26 0-.458.062-.59.186a1.125 1.125 0 0 0-.236.392l-.026.064h-1.376l.037-.126c.117-.422.313-.775.579-1.05.43-.427 1.058-.644 1.866-.644.524 0 .976.106 1.344.316.395.225.529.647.4 1.254l-.459 2.139c-.03.147-.065.326-.102.535-.03.192-.013.253-.006.266a.22.22 0 0 0 .104.096l.064.033-.062.334h-1.492l-.014-.082a1.32 1.32 0 0 1-.02-.337 3.51 3.51 0 0 1-.513.326c-.31.158-.642.238-.986.238h-.001zm3.542.649l.153.01c.118.005.232 0 .343-.014a.763.763 0 0 0 .295-.099c.083-.048.17-.149.266-.303.093-.155.137-.248.13-.282l-.674-4.87h1.356l.286 3.44 1.695-3.44h1.296l-2.576 4.587c-.496.884-.855 1.433-1.08 1.645-.223.213-.605.318-1.144.318-.11 0-.196 0-.261-.002a6.948 6.948 0 0 1-.291-.014l.206-.976z" fill="#004EAC" fill-rule="nonzero">
		</path>
		<path d="M262.048 18.359c.143.009.287.012.43.01.51 0 .874-.099 1.077-.292.217-.204.573-.751 1.06-1.622l2.494-4.439h-1.064l-1.826 3.707-.31-3.707h-1.15l.66 4.756c.01.055-.011.129-.145.349-.104.169-.202.279-.3.337a.842.842 0 0 1-.333.112c-.12.015-.24.02-.36.013l-.068-.004-.165.78zm.43.208l-.261-.002c-.068-.001-.166-.007-.297-.015l-.114-.007.247-1.17.238.011c.11.005.219.001.325-.011.09-.01.177-.04.255-.085.05-.029.128-.098.234-.271.107-.177.118-.224.119-.229l-.693-4.97h1.563l.264 3.174 1.563-3.174h1.528l-2.66 4.734c-.504.901-.863 1.448-1.097 1.669-.246.233-.642.346-1.213.346h-.001z" fill="#004EAC" fill-rule="nonzero">
		</path>
		<g fill-rule="nonzero">
			<path d="M40.967 26.578A2.422 2.422 0 0 1 38.545 29H2.422A2.422 2.422 0 0 1 0 26.578V3.17A2.422 2.422 0 0 1 2.422.747h36.123a2.422 2.422 0 0 1 2.422 2.422v23.41-.001z" fill="#005A9B" mask="url(#visa-(1)-mask-12)" transform="translate(171 -.748)">
			</path>
			<path d="M183.087 15.623c3.892-1.668 9.354-3.18 16.588-1.666l.076-1.835c-7.632-.833-13.108 1.598-16.664 3.32v.181z" fill="#FAA929">
			</path>
			<path d="M176.059 16.972h3.667v1.104h-2.279l-.014 1.021h2.271v1.06h-2.28l.01 1.02h2.246v1.106h-3.62l-.001-5.311zm4.589-.445h1.335l.005 5.756h-1.335l-.005-5.756zm4.947 3.338c0-.398-.191-.76-.637-.76-.422 0-.744.376-.83.76h1.467zm.982 1.98c-.452.384-1.143.576-1.756.576-1.406 0-2.042-.997-2.042-1.988 0-1.167.875-2.156 2.08-2.156 1.473 0 1.933 1.043 1.933 2.37h-2.677c0 .3.19.807.927.807.469 0 .73-.138 1.09-.384l.445.775zm4.268.177c-.368.23-.975.398-1.42.398-1.228 0-2.11-.706-2.11-1.979 0-1.305.875-2.164 2.194-2.164.46 0 1.014.145 1.313.337l-.43.875c-.2-.084-.414-.154-.63-.154-.667 0-1.112.4-1.112 1.037 0 .552.429.99.998.99.253 0 .506-.115.72-.223l.477.883zm.493-3.607h.604l-.005-1.312h1.29l-.032 1.312h1.098l-.023.967h-1.097c0 .537-.04 1.105-.04 1.435 0 .338.086.499.385.499.184 0 .338-.092.49-.184l.293.905a2.611 2.611 0 0 1-1.32.384c-1.082 0-1.136-.683-1.136-1.573 0-.476.038-.952.038-1.466h-.575l.03-.967zm3.639 0h1.334v.545h.017c.198-.33.46-.652.982-.652.146 0 .299.015.438.045l-.178 1.32a1.597 1.597 0 0 0-.476-.076c-.445 0-.79.376-.79.453l-.022 2.233h-1.337l.032-3.868zm5.189 2.993c.637 0 .828-.553.828-1.06 0-.505-.191-1.058-.828-1.058-.638 0-.829.553-.829 1.058 0 .507.191 1.06.829 1.06zm0-3.131c1.427 0 2.164.905 2.164 2.07 0 1.168-.737 2.074-2.164 2.074-1.428 0-2.165-.906-2.165-2.073 0-1.166.737-2.071 2.165-2.071zm2.89.138h1.335v.422c.308-.3.775-.56 1.25-.56.822 0 1.268.452 1.268 1.512 0 .79-.008 1.642-.016 2.494h-1.335c.008-.745.016-1.497.016-2.295 0-.314-.085-.56-.485-.56-.215 0-.521.184-.698.353l-.007 2.502h-1.36l.032-3.868zm-16.013-7.968l1.687-5.562h1.505l-1.686 5.562h-1.506zm-.673-5.561l-1.354 2.358c-.344.618-.546.93-.643 1.32h-.02c.023-.495-.046-1.102-.052-1.446l-.15-2.232h-2.533l-.027.15c.651 0 1.037.327 1.143.996l.494 4.415h1.56l3.153-5.56h-1.57l-.001-.001zm11.534 2.28c-.018-.41-.03-.969-.003-1.307h-.022c-.092.277-.486 1.105-.659 1.514l-.56 1.218 1.32.001-.076-1.426zm.172 3.281l-.04-.827h-1.88l-.385.827h-1.635l2.964-5.552h2.006l.502 5.552h-1.532zm-6.26.159a4.197 4.197 0 0 1-2.27-.639l.715-1.094c.452.253.807.545 1.623.545.263 0 .516-.069.66-.318.21-.361-.048-.557-.636-.89l-.29-.188c-.872-.596-1.249-1.161-.839-2.149.263-.632.955-1.11 2.098-1.11.788 0 1.526.34 1.957.673l-.825.967c-.42-.339-.768-.511-1.167-.511-.317 0-.558.122-.642.287-.156.311.051.523.51.807l.344.22c1.06.668 1.311 1.367 1.045 2.022-.456 1.126-1.349 1.378-2.283 1.378z" fill="#FFF">
			</path>
		</g>
		<g fill-rule="nonzero">
			<path d="M40.967 26.578A2.422 2.422 0 0 1 38.545 29H2.422A2.422 2.422 0 0 1 0 26.578V3.17A2.422 2.422 0 0 1 2.422.747h36.123a2.422 2.422 0 0 1 2.422 2.422v23.41-.001z" fill="#FFF" mask="url(#visa-(2)-mask-14)" transform="translate(0 -.748)">
			</path>
			<path d="M10.767 14.207l-.807-3.87c-.137-.533-.538-.692-1.04-.713H5.223L5.19 9.8c2.88.698 4.785 2.383 5.577 4.406" fill="#F79F1A">
			</path>
			<path d="M19.335 9.702h-2.39l-1.491 8.757h2.385l1.496-8.757zm-7.112 8.748l3.758-8.742h-2.53l-2.336 5.972-.25-.901c-.458-1.085-1.767-2.646-3.305-3.63l2.137 7.304 2.526-.003zm13.926-2.854c.009-.994-.629-1.753-2.005-2.379-.836-.405-1.346-.675-1.339-1.085 0-.362.431-.752 1.366-.752.612-.014 1.22.1 1.786.335l.216.1.324-1.898a6.215 6.215 0 0 0-2.14-.365c-2.358 0-4.019 1.187-4.034 2.89-.015 1.258 1.187 1.96 2.092 2.38.929.425 1.241.7 1.234 1.083-.005.587-.74.854-1.426.854-.956 0-1.462-.132-2.248-.459l-.305-.14-.335 1.962c.557.244 1.587.456 2.657.465 2.509 0 4.139-1.172 4.157-2.99v-.001zm4.474-2.691c-.012.024.198-.506.317-.836l.162.756.552 2.529h-1.98c.197-.504.95-2.45.95-2.45l-.001.001zm-1.636 4.241l3.056.003c.072.305.291 1.313.291 1.313h2.215L32.616 9.71h-1.843c-.573 0-.998.156-1.25.725l-3.545 8.026h2.508s.408-1.08.501-1.316v.001z" fill="#005A9B">
			</path>
			<path d="M38.39.86H2.413A2.412 2.412 0 0 0 0 3.274v2.503h40.803V3.273A2.412 2.412 0 0 0 38.39.86" fill="#005A9B" mask="url(#visa-(2)-mask-16)" transform="translate(0 -.86)">
			</path>
			<path d="M38.39 5H2.413A2.412 2.412 0 0 1 0 2.588V.085h40.803v2.503A2.412 2.412 0 0 1 38.39 5" fill="#F79F1A" mask="url(#visa-(2)-mask-18)" transform="translate(0 23.14)">
			</path>
		</g>
		<g transform="translate(285.5 -1.8)">
			<mask id="d" fill="#fff">
				<use xlink:href="#c">
				</use>
			</mask>
			<path fill="#005A9B" d="M41 26.6c0 1.3-1.1 2.4-2.4 2.4H2.4C1.1 29 0 27.9 0 26.6V3.2C0 1.9 1.1.8 2.4.8h36.1c1.3 0 2.4 1.1 2.4 2.4l.1 23.4z" mask="url(#d)">
			</path>
		</g>
		<path fill="#EFEFEF" d="M41 26.6c0 1.3-1.1 2.4-2.4 2.4H2.4C1.1 29 0 27.9 0 26.6V3.2C0 1.9 1.1.8 2.4.8h36.1c1.3 0 2.4 1.1 2.4 2.4l.1 23.4z" mask="url(#paypal-d)" transform="translate(285.5 -1.8)">
		</path>
		<path fill="#253B80" d="M292.7 8.748H290c-.2 0-.3.1-.4.3l-1.1 7c0 .1.1.3.2.3h1.3c.2 0 .3-.1.4-.3l.3-1.9c0-.2.2-.3.4-.3h.9c1.8 0 2.8-.9 3.1-2.6.1-.8 0-1.3-.3-1.8-.5-.4-1.2-.7-2.1-.7m.3 2.6c-.1 1-.9 1-1.6 1h-.4l.3-1.8c0-.1.1-.2.2-.2h.2c.5 0 1 0 1.2.3.1.1.2.3.1.7m7.8 0h-1.3c-.1 0-.2.1-.2.2l-.1.4-.1-.1c-.3-.4-.9-.5-1.5-.5-1.4 0-2.7 1.1-2.9 2.6-.1.8.1 1.5.5 2s1 .7 1.6.7c1.2 0 1.8-.7 1.8-.7l-.1.4c0 .1.1.3.2.3h1.2c.2 0 .3-.1.4-.3l.7-4.5c.1-.4 0-.5-.2-.5m-1.8 2.5c-.1.7-.7 1.2-1.5 1.2-.4 0-.7-.1-.9-.4-.2-.2-.3-.6-.2-.9.1-.7.7-1.3 1.5-1.3.4 0 .7.1.9.4.2.3.3.6.2 1m8.8-2.5h-1.3c-.1 0-.2.1-.3.2l-1.8 2.7-.8-2.6c0-.2-.2-.3-.4-.3h-1.3c-.2 0-.3.2-.2.3l1.4 4.2-1.4 1.9c-.1.2 0 .4.2.4h1.3c.1 0 .2-.1.3-.2l4.4-6.3c.2-.1.1-.3-.1-.3">
		</path>
		<path fill="#179BD7" d="M312.1 8.748h-2.7c-.2 0-.3.1-.4.3l-1.1 7c0 .1.1.3.2.3h1.4c.1 0 .2-.1.3-.2l.3-2c0-.2.2-.3.4-.3h.9c1.8 0 2.8-.9 3.1-2.6.1-.8 0-1.3-.3-1.8-.5-.4-1.2-.7-2.1-.7m.3 2.6c-.1 1-.9 1-1.6 1h-.4l.3-1.8c0-.1.1-.2.2-.2h.2c.5 0 1 0 1.2.3.1.1.2.3.1.7m7.9 0H319c-.1 0-.2.1-.2.2l-.1.4-.1-.1c-.3-.4-.9-.5-1.5-.5-1.4 0-2.7 1.1-2.9 2.6-.1.8.1 1.5.5 2s1 .7 1.6.7c1.2 0 1.8-.7 1.8-.7l-.1.4c0 .1.1.3.2.3h1.2c.2 0 .3-.1.4-.3l.7-4.5c0-.4-.1-.5-.2-.5m-1.9 2.5c-.1.7-.7 1.2-1.5 1.2-.4 0-.7-.1-.9-.4-.2-.2-.3-.6-.2-.9.1-.7.7-1.3 1.5-1.3.4 0 .7.1.9.4.2.3.3.6.2 1m3.4-4.9l-1.1 7.1c0 .1.1.3.2.3h1.1c.2 0 .3-.1.4-.3l1.1-7c0-.1-.1-.3-.2-.3H322c-.1 0-.2.1-.2.2">
		</path>
	</g>
</svg>
