<svg width="32" height="52" viewBox="0 0 32 52" fill="none" xmlns="http://www.w3.org/2000/svg">
<path d="M30 2V50H2V2H30ZM30 0H2C0.9 0 0 0.9 0 2V50C0 51.1 0.9 52 2 52H30C31.1 52 32 51.1 32 50V2C32 0.9 31.1 0 30 0Z" fill="#EDAC09"/>
<path opacity="0.5" d="M0.5 5.5H31.5" stroke="#EDAC09" stroke-miterlimit="3.864" stroke-linecap="round" stroke-linejoin="round"/>
<path d="M17.6998 32.17C15.9998 29.63 15.9998 26.24 15.9998 26.24C15.9998 26.24 15.9998 29.63 14.2998 32.17C12.5998 34.71 13.4498 41.5 13.4498 41.5H15.9998H18.5398C18.5398 41.5 19.3898 34.72 17.6998 32.17Z" stroke="#EDAC09" stroke-miterlimit="3.864" stroke-linecap="square" stroke-linejoin="round"/>
<path d="M18.71 39.48H15.5" stroke="#EDAC09" stroke-miterlimit="3.864" stroke-linecap="round" stroke-linejoin="round"/>
<path opacity="0.5" d="M16 24.54V22" stroke="#EDAC09" stroke-miterlimit="3.864" stroke-linecap="round" stroke-linejoin="round"/>
<path d="M9.69981 32.17C7.99981 29.63 7.9998 26.24 7.9998 26.24C7.9998 26.24 7.9998 29.63 6.2998 32.17C4.5998 34.71 5.44981 41.5 5.44981 41.5H7.9998H10.5398C10.5398 41.5 11.3898 34.72 9.69981 32.17Z" stroke="#EDAC09" stroke-miterlimit="3.864" stroke-linecap="square" stroke-linejoin="round"/>
<path d="M10.71 39.48H7.5" stroke="#EDAC09" stroke-miterlimit="3.864" stroke-linecap="round" stroke-linejoin="round"/>
<path opacity="0.5" d="M8 24.54V22" stroke="#EDAC09" stroke-miterlimit="3.864" stroke-linecap="round" stroke-linejoin="round"/>
<path d="M25.6998 32.17C23.9998 29.63 23.9998 26.24 23.9998 26.24C23.9998 26.24 23.9998 29.63 22.2998 32.17C20.5998 34.71 21.4498 41.5 21.4498 41.5H23.9998H26.5398C26.5398 41.5 27.3898 34.72 25.6998 32.17Z" stroke="#EDAC09" stroke-miterlimit="3.864" stroke-linecap="square" stroke-linejoin="round"/>
<path d="M26.71 39.48H23.5" stroke="#EDAC09" stroke-miterlimit="3.864" stroke-linecap="round" stroke-linejoin="round"/>
<path opacity="0.5" d="M24 24.54V22" stroke="#EDAC09" stroke-miterlimit="3.864" stroke-linecap="round" stroke-linejoin="round"/>
<path opacity="0.5" d="M0.5 41.5H31.5" stroke="#EDAC09" stroke-miterlimit="3.864" stroke-linecap="round" stroke-linejoin="round"/>
</svg>
