<svg width="16px" viewBox="0 0 21 22" fill="none" xmlns="http://www.w3.org/2000/svg">
<path d="M8.32047 0C3.73006 0 0 3.81868 0 8.51815C0 13.2176 3.73006 17.0363 8.32047 17.0363C10.1367 17.0363 11.8154 16.4374 13.1843 15.4235L19.6235 22L21 20.5907L14.6373 14.0612C15.8877 12.5698 16.6409 10.634 16.6409 8.51815C16.6409 3.81868 12.9109 0 8.32047 0ZM8.32047 1.00214C12.3813 1.00214 15.6621 4.36085 15.6621 8.51815C15.6621 12.6754 12.3813 16.0342 8.32047 16.0342C4.25965 16.0342 0.978878 12.6754 0.978878 8.51815C0.978878 4.36085 4.25965 1.00214 8.32047 1.00214ZM7.83103 4.50961V8.01708H4.40495V9.01922H7.83103V12.5267H8.80991V9.01922H12.236V8.01708H8.80991V4.50961H7.83103Z" fill="#0d436b"/>
</svg>
