<svg width="13" height="20" viewBox="0 0 13 20" fill="none" xmlns="http://www.w3.org/2000/svg">
<path d="M5.45232 14.0872C3.90188 13.9255 2.50393 13.5437 1.30706 12.6076C1.15855 12.4911 1.00522 12.3788 0.869703 12.2488C0.345837 11.7456 0.293053 11.1694 0.707579 10.5756C1.0622 10.0674 1.65749 9.93149 2.27624 10.2233C2.39606 10.2798 2.51021 10.3504 2.61955 10.4262C4.85012 11.9589 7.91434 12.0012 10.1533 10.4951C10.3751 10.3251 10.6122 10.1864 10.887 10.1156C11.4214 9.9784 11.9197 10.1747 12.2064 10.6422C12.534 11.1761 12.5298 11.6973 12.1262 12.1118C11.507 12.7473 10.7624 13.2071 9.93503 13.528C9.15268 13.8313 8.29577 13.984 7.44766 14.0853C7.57564 14.2246 7.63597 14.2931 7.71598 14.3736C8.86761 15.5306 10.0243 16.6829 11.1721 17.8435C11.5632 18.239 11.6449 18.7293 11.4295 19.1893C11.1941 19.692 10.6671 20.0228 10.1504 19.9874C9.82296 19.9647 9.56763 19.8018 9.34078 19.5732C8.47172 18.6987 7.58632 17.8404 6.73486 16.9493C6.48707 16.6902 6.36788 16.7392 6.1492 16.9642C5.27491 17.8642 4.38637 18.7505 3.49259 19.6317C3.09126 20.0274 2.61369 20.0986 2.14826 19.8726C1.65351 19.6327 1.33869 19.1277 1.36299 18.6202C1.37974 18.2769 1.54857 18.0146 1.78422 17.7794C2.9239 16.6414 4.06044 15.5005 5.19741 14.3606C5.2726 14.2847 5.34277 14.2043 5.45232 14.0872Z" fill="white"/>
<path d="M6.39687 10.1231C3.63092 10.1137 1.36286 7.82071 1.37899 5.05037C1.39491 2.24944 3.66444 -0.00773021 6.45761 1.98982e-05C9.25645 0.00756054 11.5029 2.29719 11.4889 5.12724C11.4747 7.89193 9.19089 10.1328 6.39687 10.1231ZM8.91063 5.05707C8.90581 3.68153 7.81032 2.58646 6.43751 2.5852C5.05317 2.58374 3.94784 3.69871 3.95852 5.08681C3.96878 6.45712 5.0737 7.54443 6.45028 7.53941C7.82268 7.53459 8.91523 6.4324 8.91063 5.05707Z" fill="white"/>
</svg>
