<svg width="21" height="26" viewBox="0 0 21 26" fill="none" xmlns="http://www.w3.org/2000/svg">
<path fill-rule="evenodd" clip-rule="evenodd" d="M10.4996 15.6H6.56211C5.83761 15.6 5.24961 15.0176 5.24961 14.3C5.24961 13.5824 5.83761 13 6.56211 13H10.4996C11.2241 13 11.8121 13.5824 11.8121 14.3C11.8121 15.0176 11.2241 15.6 10.4996 15.6ZM5.24961 19.5C5.24961 18.7824 5.83761 18.2 6.56211 18.2H14.4371C15.1629 18.2 15.7496 18.7824 15.7496 19.5C15.7496 20.2176 15.1629 20.8 14.4371 20.8H6.56211C5.83761 20.8 5.24961 20.2176 5.24961 19.5ZM17.6453 23.4H3.35344C2.95181 23.4 2.625 23.1088 2.625 22.75V3.25C2.625 2.8912 2.95181 2.6 3.35344 2.6H10.5V6.695C10.5 8.7386 12.0973 10.4 14.0621 10.4H18.375V22.75C18.375 23.1088 18.0482 23.4 17.6453 23.4ZM13.125 3.8714L16.7239 7.8H14.0621C13.545 7.8 13.125 7.3047 13.125 6.695V3.8714ZM20.6588 8.2264L13.5135 0.4264C13.2641 0.1547 12.9124 0 12.5409 0H3.35344C1.50412 0 0 1.4586 0 3.25V22.75C0 24.5414 1.50412 26 3.35344 26H17.6453C19.4946 26 21 24.5414 21 22.75V9.1C21 8.7763 20.8779 8.4656 20.6588 8.2264Z" fill="#EDAC09"/>
</svg>
