<svg xmlns="http://www.w3.org/2000/svg" width="33" height="25" viewBox="0 0 33 25" fill="none">
    <path d="M10.7409 25C22.8164 25 29.4212 15.3809 29.4212 7.03924C29.4212 6.76611 29.4212 6.49411 29.402 6.22336C30.6868 5.32974 31.7961 4.22336 32.6775 2.95586C31.4793 3.46636 30.2081 3.80111 28.9066 3.94899C30.2771 3.16011 31.3029 1.91936 31.793 0.457609C30.5043 1.19286 29.0943 1.71098 27.6241 1.98973C26.6342 0.977733 25.325 0.307608 23.8991 0.0831078C22.4732 -0.14148 21.01 0.0921078 19.736 0.747608C18.4622 1.40311 17.4484 2.44411 16.8518 3.70936C16.2552 4.97461 16.1089 6.39361 16.4356 7.74699C13.8254 7.62111 11.2718 6.96899 8.94066 5.83274C6.60965 4.69649 4.55307 3.10161 2.90469 1.15161C2.06513 2.54136 1.80799 4.18636 2.18562 5.75186C2.56326 7.31749 3.54725 8.68574 4.93733 9.57824C3.89247 9.54849 2.87049 9.27749 1.95749 8.78811C1.95749 8.81399 1.95749 8.84099 1.95749 8.86811C1.9579 10.3255 2.48262 11.7379 3.44267 12.8657C4.40267 13.9936 5.73887 14.7674 7.22469 15.056C6.25816 15.3095 5.24402 15.3465 4.26021 15.1644C4.67979 16.4186 5.49656 17.5155 6.59634 18.3015C7.69611 19.0875 9.02386 19.5232 10.394 19.548C8.06911 21.3047 5.1973 22.2584 2.24037 22.2555C1.718 22.2546 1.19615 22.2241 0.67749 22.1645C3.67986 24.017 7.17336 24.9996 10.7409 24.9951" fill="white"/>
    </svg>