<svg width="96" height="18" viewBox="0 0 96 18" fill="none" xmlns="http://www.w3.org/2000/svg">
<g clip-path="url(#clip0)">
<path fill-rule="evenodd" clip-rule="evenodd" d="M12.8 17.5385L16.4807 6.52563V17.5385H21.9742V0.00537011H14.5582L10.9871 8.77192L7.41639 0.00537011H0V17.5385H5.49388V6.52563L9.20175 17.5385H12.8ZM71.8394 10.7225C73.5532 10.5857 75.2619 9.42233 75.2619 7.51184V3.5667V3.18321C75.063 1.20733 73.5767 0.140571 71.8147 0H57.6825L57.6829 17.5385H63.1761V10.7225H65.3628L68.9332 17.5385H75.2508L70.9988 10.7225H71.8394ZM70.3179 6.17468C70.3179 6.55406 70.2232 6.88701 69.5403 6.88701H63.1761V3.44571H69.5486C70.3236 3.44571 70.3179 3.95145 70.3179 4.26734V6.17468ZM38.4552 3.4574V0.00537011H24.1717V17.5385L38.6446 17.5347L38.65 14.0867H29.6792L29.6801 10.3315H38.4552V6.88859H29.6801V3.4574H38.4552ZM45.3221 3.4574H40.1031V0.00537011H56.0346V3.4574H50.8153V17.5385H45.3221V3.4574ZM92.5667 0.00537011H80.893C79.1386 0.146572 77.6573 1.0339 77.4594 3.01895V14.3606C77.6573 16.3457 79.1386 17.3973 80.893 17.5385H92.5667C94.3207 17.3973 95.802 16.3457 96 14.3606V3.01895C95.802 1.0339 94.3207 0.146572 92.5667 0.00537011ZM90.5064 13.303C90.4811 13.5001 90.4067 14.0191 89.7292 14.0864H83.7796C83.1021 14.0191 82.9782 13.5001 82.9529 13.303V4.14225C82.9779 3.94482 83.072 3.52437 83.7495 3.4574H89.7317C90.4095 3.52437 90.4811 3.94482 90.5064 4.14225V13.303Z" fill="black"/>
</g>
<defs>
<clipPath id="clip0">
<rect width="96" height="17.5385" fill="white"/>
</clipPath>
</defs>
</svg>
