<svg width="32" height="36" viewBox="0 0 32 36" fill="none" xmlns="http://www.w3.org/2000/svg">
<path d="M30 2V34H2V2H30ZM30 0H2C0.9 0 0 0.9 0 2V34C0 35.1 0.9 36 2 36H30C31.1 36 32 35.1 32 34V2C32 0.9 31.1 0 30 0Z" fill="#EDAC09"/>
<path d="M16 14C20.41 14 24 17.59 24 22C24 26.41 20.41 30 16 30C11.59 30 8 26.41 8 22C8 17.59 11.59 14 16 14ZM16 13C11.03 13 7 17.03 7 22C7 26.97 11.03 31 16 31C20.97 31 25 26.97 25 22C25 17.03 20.97 13 16 13Z" fill="#EDAC09"/>
<path opacity="0.5" d="M17.5004 20.5C18.0504 21.05 18.0504 21.95 17.5004 22.5C16.9504 23.05 16.9504 23.95 17.5004 24.5" stroke="#EDAC09" stroke-miterlimit="3.864" stroke-linecap="round" stroke-linejoin="round"/>
<path opacity="0.5" d="M20.5004 20.5C21.0504 21.05 21.0504 21.95 20.5004 22.5C19.9504 23.05 19.9504 23.95 20.5004 24.5" stroke="#EDAC09" stroke-miterlimit="3.864" stroke-linecap="round" stroke-linejoin="round"/>
<path opacity="0.5" d="M15 21.0001C14.45 21.5501 13.55 21.5501 13 21.0001C12.45 20.4501 11.55 20.4501 11 21.0001" stroke="#EDAC09" stroke-miterlimit="3.864" stroke-linecap="round" stroke-linejoin="round"/>
<path opacity="0.5" d="M15 24.0001C14.45 24.5501 13.55 24.5501 13 24.0001C12.45 23.4501 11.55 23.4501 11 24.0001" stroke="#EDAC09" stroke-miterlimit="3.864" stroke-linecap="round" stroke-linejoin="round"/>
<path d="M16 6C16.5523 6 17 5.55228 17 5C17 4.44772 16.5523 4 16 4C15.4477 4 15 4.44772 15 5C15 5.55228 15.4477 6 16 6Z" fill="#EDAC09"/>
<path d="M31.5 8.5H12.5L8 10H1.5" stroke="#EDAC09" stroke-miterlimit="3.864" stroke-linecap="round" stroke-linejoin="round"/>
<path d="M4.5 5.5H8.5" stroke="#EDAC09" stroke-miterlimit="3.864" stroke-linecap="round" stroke-linejoin="round"/>
</svg>
