<svg width="19" height="20" viewBox="0 0 19 20" fill="none" xmlns="http://www.w3.org/2000/svg">
<path fill-rule="evenodd" clip-rule="evenodd" d="M6.08035 5.05822C6.05756 5.36878 6.05376 7.56307 6.07655 7.60054C6.09364 7.62848 7.11898 7.64118 7.21645 7.61451C7.25948 7.60308 7.26265 7.50591 7.26265 6.05724V4.51266L7.3405 4.26497C7.38354 4.12906 7.49113 3.77213 7.58038 3.47173C7.648 3.24362 7.72653 2.98159 7.77878 2.80723C7.79548 2.75149 7.8095 2.70471 7.81962 2.67086C8.20634 1.40637 8.57597 0.161567 8.58546 0.09107L8.59749 0.00406078L8.05634 0.000885257C7.56709 -0.00165516 7.41772 0.000885257 7.40442 0.0135873C7.39809 0.0193033 7.2291 0.662664 6.92846 1.82871C6.78479 2.38443 6.6639 2.82837 6.6601 2.81567C6.65672 2.80498 6.55553 2.43113 6.41579 1.9148C6.37286 1.75621 6.3263 1.58418 6.27782 1.4051C6.07212 0.64234 5.89996 0.0148575 5.8949 0.00977671C5.8873 0.00215546 5.23223 -0.00102006 4.7012 0.00342567C4.68899 0.00352614 4.67765 -0.000155654 4.67039 0.00375292C4.63179 0.0245533 4.70903 0.260319 5.38729 2.42508C5.49869 2.78073 5.66578 3.28501 5.75819 3.54476C6.043 4.34627 6.11009 4.66001 6.08035 5.05822ZM4.81842 11.1728L4.80513 14.4137L4.79184 17.6546L4.26588 17.6616C3.86017 17.6673 3.73739 17.661 3.72789 17.635C3.72093 17.6165 3.71207 16.1545 3.70891 14.387L3.70194 11.1728L3.11079 11.1664L2.51964 11.1588V10.6526V10.1458L4.26651 10.1528L6.01465 10.1598L6.02224 10.6596L6.02921 11.1588L5.42413 11.1664L4.81842 11.1728ZM14.9313 13.2634C14.8983 13.372 14.8642 14.1208 14.8889 14.1855C14.9021 14.2211 14.9768 14.2268 15.4256 14.2268H15.9477L15.9389 13.7537C15.93 13.3193 15.9243 13.2691 15.8667 13.1516C15.7756 12.9662 15.6401 12.8836 15.4268 12.8836C15.1705 12.8836 15.0078 13.0081 14.9313 13.2634ZM16.8621 16.6875C16.7285 17.1822 16.3747 17.5328 15.8633 17.6769C15.1734 17.87 14.4145 17.5525 14.1114 16.9447C13.9417 16.603 13.936 16.535 13.936 14.8666C13.936 13.5062 13.9411 13.3398 13.9841 13.1544C14.1063 12.6285 14.4107 12.2887 14.9259 12.1001C15.6089 11.8505 16.431 12.1661 16.7279 12.7917C16.8836 13.122 16.9026 13.263 16.919 14.1928L16.9323 15.026L15.9127 15.0336L14.893 15.04L14.8854 15.6002C14.8747 16.3902 14.9272 16.6335 15.1399 16.7776C15.3184 16.8983 15.593 16.8888 15.7424 16.7573C15.8829 16.6335 15.9228 16.5007 15.9367 16.114L15.9487 15.7735H16.4418H16.9342L16.919 16.1533C16.9102 16.3623 16.8842 16.603 16.8621 16.6875ZM11.962 16.5332C11.9297 16.6253 11.8886 16.6844 11.8259 16.7269C11.6665 16.8336 11.4354 16.8 11.2247 16.6387L11.1316 16.5675V14.8667V13.1659L11.2253 13.0948C11.5101 12.8763 11.8209 12.9004 11.9443 13.15C11.9924 13.2478 11.9956 13.3355 12.0013 14.8267C12.007 16.2576 12.0032 16.4119 11.962 16.5332ZM12.8688 17.2691C12.7846 17.4577 12.5973 17.6425 12.4422 17.6876C12.0409 17.807 11.7188 17.7105 11.3466 17.3593C11.2308 17.25 11.1232 17.1611 11.1073 17.1611C11.0877 17.1611 11.0776 17.2462 11.0776 17.4145V17.6679H10.5991H10.1206V13.9068V10.1464H10.5991H11.0776V11.3734C11.0776 12.0479 11.0871 12.6004 11.0972 12.6004C11.1086 12.6004 11.2092 12.5109 11.3219 12.4023C11.5808 12.1514 11.7966 12.0422 12.0707 12.0206C12.5605 11.9837 12.8517 12.2359 12.9852 12.8132C13.0264 12.9936 13.0314 13.1993 13.0314 14.8671C13.0314 16.8988 13.0308 16.9077 12.8688 17.2691ZM7.95466 17.2425C7.76541 17.4356 7.54073 17.5918 7.34958 17.663C6.95337 17.8122 6.57741 17.7252 6.41665 17.4483C6.26981 17.1949 6.26728 17.1377 6.26728 14.5078V12.0937H6.74451H7.223L7.22996 14.3674C7.23756 16.6011 7.23882 16.643 7.29199 16.7332C7.36224 16.8545 7.4711 16.8875 7.64199 16.8399C7.74326 16.8119 7.81162 16.7624 7.97491 16.5992L8.18125 16.394V14.2436V12.0937H8.65974H9.13823V14.8806V17.668H8.65974H8.18125V17.3746C8.18125 17.1536 8.17238 17.0812 8.14707 17.0812C8.12808 17.0812 8.04137 17.1536 7.95466 17.2425ZM6.12143 19.9504C6.39928 19.9606 7.13474 19.9777 7.75627 19.9885C9.05124 20.0114 11.4323 19.998 12.7931 19.9599C13.7089 19.9339 15.3786 19.8666 15.69 19.8424C15.778 19.8355 15.9811 19.8228 16.1419 19.8132C16.683 19.7827 17.0267 19.6691 17.3489 19.4144C17.7672 19.0848 18.09 18.4763 18.2267 17.7625C18.3565 17.0874 18.4432 15.8845 18.4603 14.519C18.4755 13.3777 18.4552 12.7617 18.3736 11.7734C18.2692 10.5248 18.1875 10.1196 17.9305 9.59949C17.5907 8.9104 17.0995 8.54712 16.4001 8.4671C15.8596 8.40549 13.8254 8.31785 11.9424 8.27593C8.68288 8.20353 3.32454 8.34325 2.63971 8.51918C2.32388 8.60047 2.08654 8.73765 1.83969 8.98471C1.40741 9.41658 1.14981 10.0358 1.04601 10.8932C0.809926 12.8493 0.804863 15.2138 1.03208 17.2411C1.13019 18.1131 1.33272 18.6796 1.71121 19.1464C1.94792 19.4379 2.35553 19.6856 2.72009 19.7592C2.97579 19.8113 4.2562 19.8831 6.12143 19.9504ZM13.0703 7.69308C12.8032 7.65751 12.6469 7.55399 12.5399 7.34123C12.4057 7.07449 12.4057 7.07576 12.4057 4.41785V1.93777H12.945H13.4836L13.495 4.22414C13.507 6.7074 13.5039 6.6496 13.652 6.68708C13.788 6.72074 13.9387 6.6477 14.126 6.4559L14.3058 6.27235L14.3127 4.10474L14.3191 1.93777L14.8577 1.93015L15.3963 1.9238V4.76208V7.60099L15.3229 7.61623C15.2349 7.63465 14.4184 7.63338 14.3526 7.61433C14.3127 7.60353 14.3064 7.56669 14.3064 7.34441V7.08656L14.1532 7.23644C13.8013 7.58003 13.4216 7.74008 13.0703 7.69308ZM10.358 6.60915C10.5428 6.46816 10.5441 6.45609 10.5536 4.86008C10.5618 3.61972 10.5574 3.40887 10.52 3.23993C10.4694 3.01129 10.3808 2.90332 10.2074 2.85569C9.98331 2.79599 9.77825 2.92428 9.70609 3.17007C9.65166 3.35933 9.6523 6.17284 9.70736 6.3621C9.74913 6.50436 9.88268 6.65996 9.98142 6.68156C10.1099 6.70887 10.2675 6.67838 10.3586 6.60915H10.358ZM9.93474 7.6916C9.45245 7.63317 9.0094 7.34864 8.7961 6.95996C8.57901 6.56429 8.55876 6.35725 8.57142 4.61452C8.58154 3.26493 8.58534 3.18046 8.63851 2.98675C8.76572 2.5263 9.01193 2.21256 9.39359 2.02266C9.91765 1.7629 10.4828 1.79656 10.9772 2.11793C11.2924 2.3218 11.4835 2.61775 11.586 3.05788C11.631 3.25222 11.6354 3.40147 11.6354 4.76441C11.6354 6.42203 11.6278 6.51793 11.4582 6.87676C11.2955 7.22289 10.9272 7.52774 10.543 7.63508C10.3734 7.68144 10.079 7.70938 9.93474 7.6916Z" fill="white"/>
</svg>
