<svg width="24" height="24" viewBox="0 0 24 24" fill="none" xmlns="http://www.w3.org/2000/svg">
<mask id="mask0" mask-type="alpha" maskUnits="userSpaceOnUse" x="0" y="0" width="24" height="24">
<path d="M0 0H23.9994V23.8541H0V0Z" fill="white"/>
</mask>
<g mask="url(#mask0)">
<path fill-rule="evenodd" clip-rule="evenodd" d="M23.999 11.9992C23.999 5.37155 18.6263 -0.0012207 11.9986 -0.0012207C5.37094 -0.0012207 -0.00183105 5.37155 -0.00183105 11.9992C-0.00183105 17.989 4.38655 22.9536 10.1235 23.8538V15.4681H7.07655V11.9992H10.1235V9.35536C10.1235 6.34775 11.9151 4.68645 14.6563 4.68645C15.9692 4.68645 17.3425 4.92083 17.3425 4.92083V7.87406H15.8293C14.3386 7.87406 13.8737 8.7991 13.8737 9.74812V11.9992H17.2019L16.6699 15.4681H13.8737V23.8538C19.6106 22.9536 23.999 17.989 23.999 11.9992Z" fill="#0090D0"/>
</g>
<path fill-rule="evenodd" clip-rule="evenodd" d="M16.6703 15.4684L17.2024 11.9995H13.8741V9.74844C13.8741 8.79942 14.339 7.87438 15.8298 7.87438H17.343V4.92115C17.343 4.92115 15.9697 4.68677 14.6567 4.68677C11.9156 4.68677 10.124 6.34808 10.124 9.35568V11.9995H7.07703V15.4684H10.124V23.8542C10.735 23.95 11.3612 24 11.9991 24C12.637 24 13.2632 23.95 13.8741 23.8542V15.4684H16.6703Z" fill="#FFFFFE"/>
</svg>
