<svg width="24" height="24" viewBox="0 0 24 24" fill="none" xmlns="http://www.w3.org/2000/svg">
<path fill-rule="evenodd" clip-rule="evenodd" d="M20.4945 3.48967C18.2434 1.23735 15.242 0 12.0458 0C5.46444 0 0.103103 5.33713 0.0973747 11.8888C0.0973747 13.9872 0.647255 16.0285 1.68974 17.8361L0 24L6.33508 22.3464C8.0821 23.2929 10.0468 23.7947 12.0458 23.7947H12.0516C18.6329 23.7947 23.9943 18.4576 24 11.9002C23.9943 8.72416 22.7513 5.73628 20.4945 3.48967ZM12.0458 21.7819C10.2587 21.7819 8.51169 21.3029 6.98807 20.402L6.62721 20.1853L2.86969 21.1661L3.87208 17.5168L3.63723 17.1404C2.64057 15.5666 2.11933 13.7477 2.11933 11.8831C2.11933 6.44334 6.57566 2.00713 12.0516 2.00713C14.7036 2.00713 17.1952 3.0392 19.074 4.90378C20.947 6.77406 21.978 9.25446 21.978 11.8945C21.9723 17.3514 17.516 21.7819 12.0458 21.7819ZM17.4931 14.3806C17.1952 14.2324 15.7289 13.5139 15.4539 13.4113C15.179 13.3143 14.9785 13.263 14.7838 13.5595C14.5833 13.856 14.0105 14.5289 13.8387 14.7227C13.6668 14.9223 13.4893 14.9451 13.1914 14.7969C12.8936 14.6486 11.9313 14.335 10.7914 13.32C9.90358 12.5331 9.30788 11.5581 9.13031 11.2616C8.95847 10.9651 9.11313 10.8054 9.26205 10.6572C9.3938 10.526 9.55991 10.3093 9.70883 10.1383C9.85776 9.96721 9.90931 9.84177 10.0067 9.6422C10.1041 9.44262 10.0582 9.27156 9.98377 9.12331C9.90931 8.97505 9.3136 7.50962 9.06157 6.91661C8.821 6.335 8.5747 6.41483 8.39141 6.40912C8.21957 6.39772 8.01909 6.39772 7.81862 6.39772C7.61814 6.39772 7.29737 6.47185 7.02243 6.76835C6.74749 7.06486 5.97995 7.78332 5.97995 9.24875C5.97995 10.7142 7.05107 12.1226 7.2 12.3222C7.34893 12.5217 9.30215 15.521 12.2979 16.8097C13.0081 17.1176 13.5637 17.3001 13.999 17.4369C14.715 17.665 15.3623 17.6308 15.8778 17.5567C16.4506 17.4711 17.642 16.8382 17.894 16.1426C18.1403 15.4469 18.1403 14.8539 18.0659 14.7284C17.9914 14.603 17.7909 14.5289 17.4931 14.3806Z" fill="#98A7B1"/>
</svg>
