<svg xmlns="http://www.w3.org/2000/svg" width="29" height="29" viewBox="0 0 29 29">
    <path fill="#000" fill-rule="nonzero" d="M0 14.496c0 3.142 1.033 6.224 2.926 8.732l.193.257-.121.309c-.442 1.109-1.103 2.008-1.961 2.641a.815.815 0 0 0-.295.818c.062.319.27.537.563.584a8.55 8.55 0 0 0 1.36.106c1.45 0 2.75-.349 3.896-1.036l.219-.132.216.132A14.451 14.451 0 0 0 14.498 29C22.532 29 29 22.464 29 14.505 29 6.545 22.539 0 14.505 0 6.47 0 0 6.537 0 14.496zM14.5.641c7.584 0 13.826 6.163 13.826 13.824 0 7.306-5.72 13.266-12.825 13.8l-1 .027a13.76 13.76 0 0 1-7.524-2.234.246.246 0 0 0-.141-.041.281.281 0 0 0-.15.048l.007-.007c-1.225.842-2.687 1.239-4.257 1.173l-1.144-.048.852-.875c.724-.745 1.274-1.686 1.652-2.843a.374.374 0 0 0-.058-.33 13.652 13.652 0 0 1-3.064-8.67C.674 6.805 6.916.642 14.501.642h-.002zm.09 13.069a.664.664 0 0 0-.674.673c0 .38.296.676.675.676a.667.667 0 0 0 .674-.676.664.664 0 0 0-.674-.673zm-5.148 0a.664.664 0 0 0-.675.673c0 .38.296.676.675.676a.667.667 0 0 0 .674-.676.664.664 0 0 0-.674-.673zm10.116 0a.664.664 0 0 0-.674.673c0 .38.296.676.674.676a.667.667 0 0 0 .675-.676.664.664 0 0 0-.675-.673z"></path>
</svg>