<svg xmlns="http://www.w3.org/2000/svg" viewBox="0 0 133.16 35.44"><defs><style>.cls-1{fill:#0090d0;}</style></defs><title>logo_indesit</title><g id="Livello_2" data-name="Livello 2"><g id="Livello_1-2" data-name="Livello 1"><path class="cls-1" d="M15.95,10.16V26.79a1.86,1.86,0,0,0,1.86,2,1.89,1.89,0,0,0,1.86-2V10.16a1.89,1.89,0,0,0-1.86-2,1.86,1.86,0,0,0-1.86,2"/><path class="cls-1" d="M24.33,4.28A2.19,2.19,0,0,0,25.49,6a14,14,0,0,1,6.4,11.84,14.09,14.09,0,0,1-24,10.33A14.42,14.42,0,0,1,3.67,17.89,14,14,0,0,1,10.13,6a2.19,2.19,0,0,0,1.17-1.77A1.7,1.7,0,0,0,9.54,2.6,1.93,1.93,0,0,0,8.26,3,17.67,17.67,0,0,0,5.18,30.48a18.07,18.07,0,0,0,12.63,5,17.87,17.87,0,0,0,12.63-5A17.77,17.77,0,0,0,27.35,3a1.93,1.93,0,0,0-1.28-.42,1.65,1.65,0,0,0-1.75,1.68"/><path class="cls-1" d="M15.42,2.35a2.4,2.4,0,0,0,2.38,2.44,2.44,2.44,0,0,0,2.39-2.44A2.42,2.42,0,0,0,17.81,0a2.38,2.38,0,0,0-2.38,2.35"/><path class="cls-1" d="M43.3,10.41c-.23,0-.35.09-.35.34v15.7c0,.25.12.42.35.42H46c.23,0,.29-.17.29-.42V10.75a.3.3,0,0,0-.29-.34Z"/><path class="cls-1" d="M50.23,10.41a.39.39,0,0,0-.41.34V26.53a.38.38,0,0,0,.41.33h2.62c.23,0,.41-.08.41-.33V13.6c0-.08,0-.08.12-.08h3.55c2.85,0,3.9,1,3.9,3.86v9.15c0,.25.12.33.35.33h2.62c.23,0,.35-.08.35-.33V16.63c0-4-2.5-6.21-7-6.21Z"/><path class="cls-1" d="M67.86,10.41h4.65c5.76,0,9.08,3,9.08,8.23,0,3-1.22,8.23-9.43,8.23h-4.3a.33.33,0,0,1-.35-.34V10.75a.33.33,0,0,1,.35-.34m3,13.1c0,.08.06.17.12.17h2.21c3.08,0,4.83-1.85,4.83-5s-1.75-5-4.77-5H71c-.06,0-.12.08-.12.17Z"/><path class="cls-1" d="M83.81,18.73c0,2.86.82,5,2.44,6.46a9.21,9.21,0,0,0,6.34,2.1A14,14,0,0,0,97,26.54c.23-.08.35-.17.35-.42l-.06-2.35c0-.17,0-.34-.18-.42s-.17-.08-.29,0a10.25,10.25,0,0,1-4,.84c-3.32,0-5.35-1.51-5.47-4.11h10a.82.82,0,0,0,.58-.17c.18-.25.23-.59.23-1.85,0-4.87-2.74-8.06-7-8.06-4.42,0-7.33,3.53-7.33,8.73M91,13a3.77,3.77,0,0,1,2.68,1,4.46,4.46,0,0,1,1.11,3v.08H87.24C87.36,14.61,88.87,13,91,13"/><path class="cls-1" d="M100.39,15.2c0,2.6,1.34,4.11,4.6,4.87l1.92.5c1.69.34,2.21.84,2.21,1.76,0,1.18-1.22,1.93-3.37,1.93a12.72,12.72,0,0,1-4.89-.92c-.12-.08-.23-.08-.29,0a.26.26,0,0,0-.12.25L100.39,26c0,.33.06.42.47.59a20.41,20.41,0,0,0,4.48.67c6.29,0,7.22-3.27,7.22-5.21,0-2.44-1.4-3.86-4.54-4.62L106.45,17c-2.15-.51-2.62-1.18-2.62-2.19s.76-1.93,2.85-1.93a25.48,25.48,0,0,1,4.54.59.37.37,0,0,0,.41,0,.41.41,0,0,0,.06-.25l.06-2.27c0-.34-.23-.42-.47-.5a22.44,22.44,0,0,0-4.6-.51c-3.84,0-6.29,2-6.29,5.21"/><path class="cls-1" d="M115.76,10.41c-.23,0-.35.09-.35.34v15.7c0,.25.12.42.35.42h2.68c.23,0,.35-.17.35-.42V10.75a.32.32,0,0,0-.35-.34Z"/><path class="cls-1" d="M121.69,10.41c-.18,0-.29.09-.29.34v2.43a.32.32,0,0,0,.29.34h3.78c.06,0,.12.08.12.08V26.53a.3.3,0,0,0,.29.33h2.79c.17,0,.29-.08.29-.33V13.6c0-.08.06-.08.12-.08h3.78a.32.32,0,0,0,.29-.34V10.75c0-.25-.12-.34-.29-.34Z"/></g></g></svg>