<svg xmlns="http://www.w3.org/2000/svg" width="44" height="43" viewBox="0 0 44 43">
    <path fill="none" fill-rule="nonzero" stroke="#000" d="M41.689 16.908h-3.523a16.727 16.727 0 0 0-1.488-3.594l2.49-2.49a1.311 1.311 0 0 0 0-1.856l-4.637-4.636a1.311 1.311 0 0 0-1.855 0l-2.492 2.49a16.705 16.705 0 0 0-3.593-1.488V1.812c0-.725-.587-1.312-1.312-1.312h-6.56c-.724 0-1.31.587-1.31 1.312v3.523c-1.265.358-2.469.86-3.593 1.487l-2.49-2.491a1.313 1.313 0 0 0-1.855 0L4.833 8.969a1.313 1.313 0 0 0 0 1.855l2.49 2.49a16.645 16.645 0 0 0-1.487 3.595H2.312C1.587 16.91 1 17.496 1 18.22v6.56c0 .725.587 1.312 1.312 1.312h3.524c.357 1.265.86 2.468 1.487 3.593l-2.491 2.492a1.31 1.31 0 0 0 0 1.853l4.637 4.638a1.313 1.313 0 0 0 1.855 0l2.492-2.491a16.722 16.722 0 0 0 3.593 1.489v3.522c0 .724.586 1.312 1.31 1.312h6.56c.725 0 1.312-.588 1.312-1.312v-3.521c1.266-.36 2.47-.861 3.595-1.49l2.491 2.49a1.31 1.31 0 0 0 1.854 0l4.639-4.637a1.31 1.31 0 0 0 0-1.854l-2.492-2.492a16.714 16.714 0 0 0 1.488-3.592h3.522c.724 0 1.312-.587 1.312-1.312v-6.56a1.31 1.31 0 0 0-1.311-1.312zM22 30a8.5 8.5 0 1 1 0-17 8.5 8.5 0 0 1 0 17z"></path>
</svg>
