<svg xmlns="http://www.w3.org/2000/svg" width="31" height="31" viewBox="0 0 31 31">
    <path fill="none" fill-rule="nonzero" stroke="#000" stroke-width=".68" d="M29.095 12.403h-2.432a11.137 11.137 0 0 0-1.028-2.424l1.72-1.68a.87.87 0 0 0 0-1.25L24.151 3.92a.92.92 0 0 0-1.28 0l-1.72 1.68a11.689 11.689 0 0 0-2.482-1.004V2.222a.895.895 0 0 0-.906-.885h-4.529c-.5 0-.905.396-.905.885v2.376c-.873.241-1.704.58-2.48 1.003l-1.72-1.68a.922.922 0 0 0-1.281 0L3.647 7.049a.87.87 0 0 0 0 1.251l1.72 1.68c-.435.758-.781 1.57-1.028 2.424H1.906c-.5 0-.906.395-.906.884v4.424c0 .489.406.885.906.885h2.433c.247.853.593 1.665 1.027 2.423l-1.72 1.68a.869.869 0 0 0 0 1.25l3.202 3.129a.922.922 0 0 0 1.28 0l1.721-1.68a11.7 11.7 0 0 0 2.48 1.004v2.375c0 .488.406.885.906.885h4.53c.5 0 .905-.397.905-.885v-2.375c.874-.243 1.705-.58 2.482-1.005l1.72 1.68a.92.92 0 0 0 1.28 0l3.203-3.127a.87.87 0 0 0 0-1.251l-1.72-1.68c.433-.758.78-1.57 1.027-2.423h2.432c.5 0 .906-.396.906-.885v-4.424a.895.895 0 0 0-.905-.885zM15.5 21.233c-3.241 0-5.869-2.567-5.869-5.733 0-3.166 2.628-5.733 5.869-5.733 3.241 0 5.869 2.567 5.869 5.733 0 3.166-2.628 5.733-5.869 5.733z"></path>
</svg>