<svg width="17" height="17" viewBox="0 0 17 17" fill="none" xmlns="http://www.w3.org/2000/svg">
<path fill-rule="evenodd" clip-rule="evenodd" d="M13.6395 0.34668H3.82407C2.11949 0.34668 0.731934 1.7333 0.731934 3.43882V13.2543C0.731934 14.9598 2.11949 16.3464 3.82407 16.3464H13.6395C15.3441 16.3464 16.7317 14.9598 16.7317 13.2543V3.43882C16.7317 1.7333 15.3441 0.34668 13.6395 0.34668ZM14.5268 2.19127L14.8805 2.18938V4.90148L12.1769 4.90994L12.1675 2.19785L14.5268 2.19127ZM6.4489 6.70376C6.96065 5.99446 7.79224 5.52975 8.73202 5.52975C9.6718 5.52975 10.5034 5.99446 11.0151 6.70376C11.3491 7.1666 11.5485 7.73291 11.5485 8.34626C11.5485 9.89844 10.2851 11.1618 8.73202 11.1618C7.17983 11.1618 5.91645 9.89844 5.91645 8.34626C5.91645 7.73291 6.11588 7.1666 6.4489 6.70376ZM15.1728 13.2541C15.1728 14.0998 14.4851 14.7875 13.6394 14.7875H3.82396C2.97825 14.7875 2.29059 14.0998 2.29059 13.2541V6.7039H4.68001C4.47306 7.21189 4.35735 7.76597 4.35735 8.3464C4.35735 10.7584 6.31969 12.7217 8.73169 12.7217C11.1446 12.7217 13.107 10.7584 13.107 8.3464C13.107 7.76597 12.9894 7.21189 12.7843 6.7039H15.1728V13.2541Z" fill="white"/>
</svg>
