<svg width="32" height="33" viewBox="0 0 32 33" fill="none" xmlns="http://www.w3.org/2000/svg">
<rect y="0.275635" width="32" height="32" rx="2" fill="#231F20"/>
<path fill-rule="evenodd" clip-rule="evenodd" d="M21.3673 16.0221H10.632C10.284 16.0221 10 16.342 10 16.7332V16.8096C10 17.2007 10.284 17.5207 10.632 17.5207H21.3673C21.7153 17.5207 22 17.2007 22 16.8096V16.7332C22 16.342 21.7153 16.0221 21.3673 16.0221Z" fill="white"/>
<path fill-rule="evenodd" clip-rule="evenodd" d="M21.3673 19.7684H10.632C10.284 19.7684 10 20.0884 10 20.4795V20.5559C10 20.9471 10.284 21.267 10.632 21.267H21.3673C21.7153 21.267 22 20.9471 22 20.5559V20.4795C22 20.0884 21.7153 19.7684 21.3673 19.7684Z" fill="white"/>
<path fill-rule="evenodd" clip-rule="evenodd" d="M21.3673 12.2756H10.632C10.284 12.2756 10 12.5956 10 12.9867V13.0631C10 13.4543 10.284 13.7742 10.632 13.7742H21.3673C21.7153 13.7742 22 13.4543 22 13.0631V12.9867C22 12.5956 21.7153 12.2756 21.3673 12.2756Z" fill="white"/>
</svg>
