<svg width="12" height="12" viewBox="0 0 12 12" fill="none" xmlns="http://www.w3.org/2000/svg">
<mask id="path-1-inside-1" fill="black">
<path fill-rule="evenodd" clip-rule="evenodd" d="M9.24 12C4.1448 12 0 7.8552 0 2.76C0 1.2378 1.2384 0 2.76 0C2.916 0 3.0702 0.0132 3.2196 0.039C3.3654 0.0624 3.5124 0.0996 3.6546 0.1488C3.8502 0.2166 3.9966 0.3804 4.0428 0.582L4.8648 4.1604C4.9098 4.3572 4.8528 4.5636 4.713 4.71C4.6308 4.7952 4.629 4.797 3.885 5.1864C4.4874 6.4908 5.5344 7.5342 6.813 8.1162C7.2024 7.3716 7.2048 7.3692 7.29 7.2876C7.437 7.1472 7.644 7.0926 7.8402 7.1358L11.4186 7.9572C11.6196 8.0034 11.7834 8.1498 11.8512 8.3448C11.9004 8.4864 11.937 8.6328 11.9616 8.7834C11.9868 8.9316 12 9.0852 12 9.24C12 10.7622 10.7622 12 9.24 12Z"/>
</mask>
<path d="M3.2196 0.039L3.04942 1.02448L3.06113 1.02636L3.2196 0.039ZM3.6546 0.1488L3.98211 -0.796048L3.98157 -0.796233L3.6546 0.1488ZM4.0428 0.582L3.06807 0.805376L3.06818 0.805881L4.0428 0.582ZM4.8648 4.1604L5.83964 3.93749L5.83942 3.93652L4.8648 4.1604ZM4.713 4.71L5.43267 5.40433L5.43622 5.40062L4.713 4.71ZM3.885 5.1864L3.42129 4.30042L2.57814 4.74171L2.97714 5.60567L3.885 5.1864ZM6.813 8.1162L6.39871 9.02635L7.2604 9.41857L7.69914 8.57962L6.813 8.1162ZM7.29 7.2876L6.59931 6.56445L6.59832 6.5654L7.29 7.2876ZM7.8402 7.1358L8.06394 6.16111L8.05523 6.15919L7.8402 7.1358ZM11.4186 7.9572L11.6426 6.98261L11.6423 6.98255L11.4186 7.9572ZM11.8512 8.3448L12.7958 8.01659L12.7957 8.01639L11.8512 8.3448ZM11.9616 8.7834L10.9747 8.94461L10.9758 8.95103L11.9616 8.7834ZM9.24 11C4.69708 11 1 7.30292 1 2.76H-1C-1 8.40749 3.59252 13 9.24 13V11ZM1 2.76C1 1.79023 1.79054 1 2.76 1V-1C0.686257 -1 -1 0.685374 -1 2.76H1ZM2.76 1C2.85985 1 2.9571 1.00847 3.04943 1.02441L3.38977 -0.946414C3.1833 -0.982071 2.97215 -1 2.76 -1V1ZM3.06113 1.02636C3.14796 1.0403 3.23862 1.06304 3.32763 1.09383L3.98157 -0.796233C3.78618 -0.863839 3.58284 -0.915499 3.37807 -0.948364L3.06113 1.02636ZM3.32709 1.09365C3.19575 1.04812 3.09855 0.938407 3.06807 0.805376L5.01753 0.358624C4.89465 -0.177607 4.50465 -0.614921 3.98211 -0.796048L3.32709 1.09365ZM3.06818 0.805881L3.89018 4.38428L5.83942 3.93652L5.01742 0.358119L3.06818 0.805881ZM3.88996 4.38331C3.85985 4.25163 3.89834 4.11514 3.98978 4.01938L5.43622 5.40062C5.80726 5.01206 5.95975 4.46277 5.83964 3.93749L3.88996 4.38331ZM3.99334 4.01568C3.9713 4.03852 3.99964 4.00749 4.03814 3.97743C4.06913 3.95324 4.08461 3.94653 4.04787 3.9677C3.96676 4.01444 3.80525 4.09945 3.42129 4.30042L4.34871 6.07239C4.70875 5.88395 4.92014 5.77336 5.04648 5.70055C5.11347 5.66195 5.19131 5.61448 5.269 5.55381C5.35421 5.48728 5.4136 5.42408 5.43266 5.40432L3.99334 4.01568ZM2.97714 5.60567C3.67846 7.12427 4.89886 8.34364 6.39871 9.02635L7.22729 7.20605C6.16994 6.72476 5.29634 5.85733 4.79286 4.76713L2.97714 5.60567ZM7.69914 8.57962C7.90009 8.19538 7.98512 8.03384 8.03177 7.95298C8.0529 7.91636 8.04597 7.93224 8.02132 7.9637C7.99063 8.00284 7.95897 8.03155 7.98168 8.0098L6.59832 6.5654C6.57843 6.58445 6.51452 6.64406 6.44725 6.72987C6.38602 6.80799 6.33818 6.88632 6.29938 6.95357C6.22618 7.08046 6.11531 7.29243 5.92686 7.65278L7.69914 8.57962ZM7.98069 8.01075C7.87951 8.10739 7.74424 8.13862 7.62517 8.11241L8.05523 6.15919C7.54376 6.04658 6.99449 6.18701 6.59931 6.56445L7.98069 8.01075ZM7.61648 8.11045L11.1949 8.93185L11.6423 6.98255L8.06393 6.16115L7.61648 8.11045ZM11.1946 8.93179C11.0614 8.90118 10.9523 8.80437 10.9067 8.67321L12.7957 8.01639C12.6145 7.49523 12.1778 7.10562 11.6426 6.98261L11.1946 8.93179ZM10.9066 8.67301C10.9361 8.75779 10.9589 8.84815 10.9747 8.94461L12.9485 8.62219C12.9151 8.41745 12.8647 8.21501 12.7958 8.01659L10.9066 8.67301ZM10.9758 8.95103C10.9916 9.04405 11 9.14157 11 9.24H13C13 9.02883 12.982 8.81916 12.9475 8.61577L10.9758 8.95103ZM11 9.24C11 10.2099 10.2099 11 9.24 11V13C11.3145 13 13 11.3145 13 9.24H11Z" fill="white" mask="url(#path-1-inside-1)"/>
</svg>
