<svg xmlns="http://www.w3.org/2000/svg" width="309" height="110" viewBox="0 0 309 110" fill="none" style="&#10;">
<path d="M72.89 11.15L57 69.23H47.76L36.53 27L25.13 69.23H15.89L0 11.15H9.15L20.47 53.34L31.87 11.15H40.94L52.42 53.34L63.74 11.15H72.89Z" fill="white"/>
<path d="M77.13 11.32L86.28 10.57V24.8L86.12 30.12H86.45C90.2055 28.597 94.2175 27.8062 98.27 27.79C105.67 27.79 110.66 31.12 110.66 43.85V69.23H101.51V44.6C101.51 36.94 97.77 35.95 93.51 35.95C91.0496 36.013 88.6111 36.4307 86.27 37.19V69.19H77.13V11.32Z" fill="white"/>
<path d="M123.23 11.9C127.97 11.9 128.72 14.64 128.72 17.72C128.72 20.8 127.72 23.63 123.23 23.63C118.74 23.63 117.82 20.8 117.82 17.72C117.82 14.64 118.65 11.9 123.23 11.9ZM118.65 28.37H127.8V69.23H118.65V28.37Z" fill="white"/>
<path d="M135.54 28.37H141.78L143 31.7H143.58C146.738 29.0929 150.726 27.7055 154.82 27.79C155.458 27.7786 156.095 27.8053 156.73 27.87V36.87C155.025 36.5754 153.3 36.4083 151.57 36.37C149.183 36.3873 146.831 36.9446 144.69 38V69.2H135.54V28.37Z" fill="white"/>
<path d="M160.67 69.23V11.32L169.82 10.57V69.23H160.67Z" fill="white"/>
<path d="M234.89 27.79C247.89 27.79 252.89 35.45 252.89 49.01C252.89 61.74 248.23 70.06 234.75 70.06C221.27 70.06 216.5 61.74 216.5 49C216.5 35.45 221.91 27.79 234.89 27.79ZM243.54 49C243.54 41.26 242.29 34.94 234.97 34.94C227.65 34.94 225.73 41 225.73 49C225.73 56.4 227.23 62.81 234.55 62.81C241.87 62.81 243.54 56.75 243.54 49Z" fill="white"/>
<path d="M275.93 27.79C288.93 27.79 293.93 35.45 293.93 49.01C293.93 61.74 289.27 70.06 275.79 70.06C262.31 70.06 257.54 61.74 257.54 49C257.54 35.45 263 27.79 275.93 27.79ZM284.58 49C284.58 41.26 283.33 34.94 276.01 34.94C268.69 34.94 266.78 41 266.78 49C266.78 56.4 268.27 62.81 275.6 62.81C282.93 62.81 284.58 56.75 284.58 49Z" fill="white"/>
<path d="M299.83 69.23V11.32L308.98 10.57V69.23H299.83Z" fill="white"/>
<path d="M177.31 28.37H184.22L184.96 31.37C187.71 29.87 192.78 27.79 197.36 27.79C205.68 27.79 211.76 33.86 211.76 48.43C211.76 62.74 205.35 69.81 194.7 69.81C191.935 69.7572 189.18 69.4796 186.46 68.98V87.7L177.31 88.7V28.37ZM186.46 61.66C189.04 61.74 190.46 61.82 193.12 61.82C198.78 61.82 202.52 58.82 202.52 46.93C202.52 38.77 199.19 36.61 193.2 36.61C190.904 36.6266 188.627 37.0219 186.46 37.78V61.66Z" fill="white"/>
<path d="M222.62 3.27C215.78 -4.66 194.06 2.27 169.82 19.08V23.31C191.17 8.14 210 1.14 215.37 7.38C222.1 15.18 205.37 40.68 177.98 64.31C150.59 87.94 122.98 100.76 116.21 92.96C112.71 88.96 115.56 80.08 122.93 69.23H118.65C109.52 82.84 106.1 94.23 110.78 99.71C119.33 109.62 151.29 96.07 182.17 69.43C213.05 42.79 231.17 13.17 222.62 3.27Z" fill="#FEC00F"/>
</svg>