<svg width="24" height="24" viewBox="0 0 24 24" fill="none" xmlns="http://www.w3.org/2000/svg">
<path fill-rule="evenodd" clip-rule="evenodd" d="M16.5462 2.12015C15.8017 2.01397 15.0398 2.04155 14.2969 2.20626C13.0201 2.48938 11.8633 3.16352 10.9876 4.13487C10.1119 5.10621 9.56079 6.32641 9.41103 7.62564C9.262 8.91853 9.51778 10.2257 10.1429 11.3668C10.3876 11.791 10.2996 12.3343 9.92397 12.6587L2.53518 19.0409C2.22863 19.36 2.05702 19.7857 2.05714 20.229C2.05727 20.6835 2.23788 21.1194 2.55925 21.4408C2.88063 21.7621 3.31647 21.9427 3.77096 21.9429C4.2143 21.943 4.64 21.7714 4.95908 21.4648L11.3413 14.076C11.6677 13.6981 12.2141 13.6122 12.6377 13.8596C13.7778 14.4829 15.0832 14.7378 16.3744 14.589C17.6736 14.4392 18.8938 13.8881 19.8651 13.0124C20.8365 12.1367 21.5106 10.9799 21.7937 9.70306C21.9584 8.96024 21.986 8.1983 21.8799 7.45378L18.323 11.0107C18.0798 11.2539 17.7312 11.3594 17.3939 11.292L14.1614 10.6455C13.7542 10.564 13.436 10.2458 13.3545 9.83859L12.708 6.60608C12.6406 6.26885 12.7461 5.92023 12.9893 5.67705L16.5462 2.12015ZM12.3813 16.019C13.7093 16.5851 15.1663 16.799 16.6099 16.6326C18.3342 16.4338 19.9535 15.7024 21.2426 14.5403C22.5317 13.3781 23.4264 11.8429 23.8021 10.1484C24.1778 8.4539 24.0159 6.68443 23.3389 5.08628C23.2325 4.83507 23.0306 4.63643 22.7777 4.53407C22.5248 4.43171 22.2416 4.434 21.9904 4.54046L21.99 4.54066C21.8682 4.59226 21.7575 4.66687 21.664 4.76038L17.2576 9.16681L15.2373 8.76275L14.8332 6.74242L19.2396 2.33599C19.3318 2.24382 19.4056 2.13497 19.4571 2.01524L19.4573 2.01478C19.5655 1.76327 19.569 1.479 19.467 1.22492C19.365 0.970838 19.1658 0.767926 18.9137 0.661123C17.3156 -0.0159046 15.5461 -0.177826 13.8516 0.197899C12.1571 0.573624 10.6219 1.4683 9.45974 2.75739C8.29755 4.04648 7.56617 5.66584 7.36742 7.39007C7.20101 8.83371 7.41491 10.2907 7.98105 11.6187L1.15849 17.5118C1.1394 17.5282 1.12093 17.5454 1.10311 17.5633C0.396496 18.2707 -0.000284396 19.2297 1.52942e-07 20.2296C0.000284702 21.2295 0.397611 22.1883 1.10463 22.8954C1.81165 23.6024 2.7705 23.9997 3.77037 24C4.77025 24.0003 5.72932 23.6035 6.43674 22.8969C6.45458 22.8791 6.47176 22.8606 6.48825 22.8415L12.3813 16.019Z" fill="#EDAC09"/>
</svg>
