<svg width="13" height="16" viewBox="0 0 13 16" fill="none" xmlns="http://www.w3.org/2000/svg">
<path fill-rule="evenodd" clip-rule="evenodd" d="M6.39976 9.6H3.99976C3.55816 9.6 3.19976 9.2416 3.19976 8.8C3.19976 8.3584 3.55816 8 3.99976 8H6.39976C6.84136 8 7.19976 8.3584 7.19976 8.8C7.19976 9.2416 6.84136 9.6 6.39976 9.6ZM3.19976 12C3.19976 11.5584 3.55816 11.2 3.99976 11.2H8.79976C9.24216 11.2 9.59976 11.5584 9.59976 12C9.59976 12.4416 9.24216 12.8 8.79976 12.8H3.99976C3.55816 12.8 3.19976 12.4416 3.19976 12ZM10.7552 14.4H2.044C1.7992 14.4 1.6 14.2208 1.6 14V2C1.6 1.7792 1.7992 1.6 2.044 1.6H6.4V4.12C6.4 5.3776 7.3736 6.4 8.5712 6.4H11.2V14C11.2 14.2208 11.0008 14.4 10.7552 14.4ZM8 2.3824L10.1936 4.8H8.5712C8.256 4.8 8 4.4952 8 4.12V2.3824ZM12.592 5.0624L8.2368 0.2624C8.0848 0.0952 7.8704 0 7.644 0H2.044C0.9168 0 0 0.8976 0 2V14C0 15.1024 0.9168 16 2.044 16H10.7552C11.8824 16 12.8 15.1024 12.8 14V5.6C12.8 5.4008 12.7256 5.2096 12.592 5.0624Z" fill="#231F20"/>
</svg>
