<svg width="12" height="13" viewBox="0 0 12 13" fill="none" xmlns="http://www.w3.org/2000/svg">
<mask id="path-1-inside-1" fill="white">
<path class="phoneSvg" fill-rule="evenodd" clip-rule="evenodd" d="M9.24 12.8245C4.1448 12.8245 0 8.68364 0 3.5933C0 2.07256 1.2384 0.835938 2.76 0.835938C2.916 0.835938 3.0702 0.849125 3.2196 0.8749C3.3654 0.898278 3.5124 0.935442 3.6546 0.984595C3.8502 1.05233 3.9966 1.21597 4.0428 1.41738L4.8648 4.99236C4.9098 5.18898 4.8528 5.39518 4.713 5.54144C4.6308 5.62656 4.629 5.62836 3.885 6.01739C4.4874 7.32054 5.5344 8.36294 6.813 8.94439C7.2024 8.2005 7.2048 8.1981 7.29 8.11658C7.437 7.97631 7.644 7.92176 7.8402 7.96492L11.4186 8.78554C11.6196 8.8317 11.7834 8.97795 11.8512 9.17277C11.9004 9.31423 11.937 9.46049 11.9616 9.61095C11.9868 9.75901 12 9.91246 12 10.0671C12 11.5879 10.7622 12.8245 9.24 12.8245Z"/>
</mask>
<path d="M3.2196 0.8749L3.04957 1.86041L3.06128 1.86229L3.2196 0.8749ZM3.6546 0.984595L3.98183 0.0396503L3.98129 0.0394655L3.6546 0.984595ZM4.0428 1.41738L3.06811 1.64096L3.06823 1.64147L4.0428 1.41738ZM4.8648 4.99236L5.83959 4.76926L5.83937 4.76828L4.8648 4.99236ZM4.713 5.54144L5.43234 6.23612L5.43589 6.2324L4.713 5.54144ZM3.885 6.01739L3.42163 5.13122L2.57768 5.57251L2.97729 6.43699L3.885 6.01739ZM6.813 8.94439L6.39904 9.85468L7.26022 10.2463L7.69896 9.40816L6.813 8.94439ZM7.29 8.11658L6.59966 7.39309L6.59866 7.39405L7.29 8.11658ZM7.8402 7.96492L8.06373 6.99019L8.05504 6.98827L7.8402 7.96492ZM11.4186 8.78554L11.6424 7.81091L11.6421 7.81084L11.4186 8.78554ZM11.8512 9.17277L12.7957 8.84428L12.7956 8.84408L11.8512 9.17277ZM11.9616 9.61095L10.9747 9.77231L10.9758 9.77874L11.9616 9.61095ZM9.24 11.8245C4.69618 11.8245 1 8.13045 1 3.5933H-1C-1 9.23682 3.59342 13.8245 9.24 13.8245V11.8245ZM1 3.5933C1 2.62588 1.78964 1.83594 2.76 1.83594V-0.164062C0.687158 -0.164062 -1 1.51923 -1 3.5933H1ZM2.76 1.83594C2.85991 1.83594 2.95721 1.8444 3.04959 1.86034L3.38961 -0.110541C3.18319 -0.146155 2.97209 -0.164062 2.76 -0.164062V1.83594ZM3.06128 1.86229C3.14816 1.87622 3.23887 1.89895 3.32791 1.92973L3.98129 0.0394655C3.78593 -0.0280638 3.58264 -0.0796623 3.37792 -0.112488L3.06128 1.86229ZM3.32737 1.92954C3.19628 1.88415 3.09875 1.77453 3.06811 1.64096L5.01749 1.1938C4.89445 0.657418 4.50412 0.220515 3.98183 0.0396505L3.32737 1.92954ZM3.06823 1.64147L3.89023 5.21645L5.83937 4.76828L5.01737 1.1933L3.06823 1.64147ZM3.89001 5.21547C3.85974 5.08323 3.8985 4.94632 3.99011 4.85048L5.43589 6.2324C5.8071 5.84404 5.95986 5.29472 5.83959 4.76926L3.89001 5.21547ZM3.99367 4.84677C3.97164 4.86959 3.99999 4.83858 4.03851 4.80853C4.0695 4.78436 4.08497 4.77766 4.04823 4.79881C3.96711 4.84551 3.8056 4.93045 3.42163 5.13122L4.34837 6.90355C4.7084 6.71529 4.91979 6.60481 5.04612 6.53208C5.1131 6.49352 5.19094 6.44609 5.26864 6.38549C5.35386 6.31901 5.41326 6.25585 5.43233 6.23611L3.99367 4.84677ZM2.97729 6.43699C3.67876 7.95445 4.89931 9.17268 6.39904 9.85468L7.22696 8.03409C6.16949 7.55321 5.29604 6.68663 4.79271 5.59778L2.97729 6.43699ZM7.69896 9.40816C7.89991 9.02426 7.98493 8.86292 8.03156 8.78216C8.05268 8.74559 8.04572 8.76151 8.02103 8.79298C7.99031 8.83214 7.95862 8.86085 7.98134 8.83911L6.59866 7.39405C6.57878 7.41307 6.51484 7.47265 6.44754 7.55843C6.38627 7.63652 6.3384 7.71482 6.29959 7.78203C6.22637 7.90883 6.11549 8.12062 5.92704 8.48062L7.69896 9.40816ZM7.98034 8.84006C7.87912 8.93665 7.74406 8.96768 7.62536 8.94157L8.05504 6.98827C7.54394 6.87585 6.99488 7.01597 6.59966 7.39309L7.98034 8.84006ZM7.61668 8.93962L11.1951 9.76024L11.6421 7.81084L8.06372 6.99022L7.61668 8.93962ZM11.1948 9.76017C11.062 9.72967 10.9526 9.63306 10.9068 9.50146L12.7956 8.84408C12.6142 8.32285 12.1772 7.93372 11.6424 7.81091L11.1948 9.76017ZM10.9067 9.50126C10.9361 9.58587 10.959 9.67604 10.9747 9.77231L12.9485 9.44959C12.915 9.24495 12.8647 9.0426 12.7957 8.84428L10.9067 9.50126ZM10.9758 9.77874C10.9916 9.87156 11 9.96889 11 10.0671H13C13 9.85604 12.982 9.64646 12.9474 9.44316L10.9758 9.77874ZM11 10.0671C11 11.0347 10.2108 11.8245 9.24 11.8245V13.8245C11.3136 13.8245 13 12.141 13 10.0671H11Z" fill="#231F20" mask="url(#path-1-inside-1)"/>
</svg>
