<svg width="89" height="32" viewBox="0 0 89 32" fill="none" xmlns="http://www.w3.org/2000/svg">
<path d="M8.88522 25.3298C4.69543 25.3298 0 23.8634 0 18.9756H4.98477C4.98477 20.5402 5.94689 21.6962 9.00461 21.6962C11.5328 21.6962 12.1115 20.4433 12.1115 19.7691C12.1115 16.7114 0.626432 19.0472 0.626432 12.1606C0.626432 9.4639 2.33578 6.02133 8.09024 6.02133C11.7014 6.02133 16.0358 6.91182 16.3968 12.1129H11.582C11.3895 10.9569 10.9794 9.70548 8.30654 9.70548C5.63367 9.70548 5.32186 10.7168 5.32186 11.5103C5.32186 14.3995 16.9024 12.2814 16.9024 19.0711C16.9024 24.4168 11.7266 25.3803 8.81218 25.3803L8.88522 25.3312V25.3298ZM80.2521 25.1851H79.8195C74.9064 24.9688 71.1028 22.369 71.1028 15.1453C71.0042 13.9439 71.16 12.7352 71.5602 11.5981C71.9604 10.461 72.5959 9.42106 73.4253 8.54624C74.2546 7.67142 75.2592 6.98135 76.3733 6.52111C77.4875 6.06087 78.6862 5.8408 79.8912 5.87526C85.1161 5.87526 88.5587 8.6928 88.5587 15.0245V16.8308H76.1129C76.0345 17.3819 76.0735 17.9433 76.2273 18.4782C76.3811 19.0131 76.6463 19.5095 77.0055 19.9347C77.3647 20.3599 77.8097 20.7044 78.3114 20.9455C78.813 21.1866 79.36 21.319 79.9164 21.3338H80.3504C81.0246 21.3859 81.6973 21.2166 82.2664 20.8515C82.8355 20.4865 83.2699 19.9457 83.5037 19.3112H88.5123C88.0275 21.0726 86.9575 22.6165 85.4784 23.6887C83.9992 24.7609 82.1991 25.2976 80.3743 25.2104L80.2535 25.1851H80.2521ZM70.0438 24.7764H65.2276V0H70.0438V24.7764ZM44.7365 24.6556H39.9217V13.4837C39.9217 10.7631 38.6941 9.84734 37.2966 9.84734C34.8892 9.84734 33.9256 11.4612 33.9256 13.6284V24.6317H29.1108V13.6045C29.1108 12.0384 28.6529 9.84734 26.1725 9.84734C23.6935 9.84734 23.1387 11.4134 23.1387 13.3629V24.6556H18.3238V6.26011H23.0193V8.95685C23.475 7.96893 24.2164 7.1403 25.1478 6.57797C26.0792 6.01564 27.1577 5.74542 28.2442 5.80222C30.3932 5.66317 32.4242 6.80648 33.42 8.71667C33.8967 7.85119 34.5926 7.12631 35.438 6.61476C36.2833 6.10321 37.2484 5.82299 38.2362 5.80222C39.0746 5.71803 39.9212 5.81588 40.7183 6.08909C41.5153 6.36231 42.244 6.80443 42.8544 7.38524C43.4648 7.96604 43.9426 8.67182 44.2551 9.45431C44.5675 10.2368 44.7073 11.0776 44.6649 11.9191V24.6317L44.7365 24.6556ZM79.8209 9.75183C77.5329 9.75183 76.3053 11.221 76.016 13.6045H83.6245C83.6342 13.1 83.5429 12.5987 83.3558 12.1301C83.1687 11.6615 82.8897 11.2351 82.5352 10.876C82.1807 10.5169 81.7579 10.2325 81.2918 10.0394C80.8256 9.84633 80.3255 9.74855 79.8209 9.75183ZM54.9238 9.96813C51.8422 9.96813 50.7578 12.6888 50.7578 15.5779C50.7578 17.7452 51.6483 21.14 54.803 21.14C57.8129 21.14 58.9689 18.5401 58.9689 15.8434C58.9689 13.1466 58.1261 9.94426 54.803 9.94426L54.9238 9.96813ZM50.9503 32H46.1355V6.26011H50.8309V8.93298C51.2457 8.15566 51.8282 7.48025 52.536 6.95557C53.2438 6.43089 54.0594 6.07004 54.9238 5.89913C55.3965 5.86562 55.871 5.86562 56.3438 5.89913C60.4619 5.89913 64.0969 9.05377 64.0969 15.4094C64.0969 20.418 61.6895 25.2104 56.2483 25.2104C55.8074 25.244 55.3646 25.244 54.9238 25.2104C54.0946 25.0895 53.3078 24.7673 52.632 24.272C51.9562 23.7766 51.412 23.1232 51.0472 22.369V32H50.9503Z" fill="#231F20"/>
<path d="M18.2507 0.0969238H22.9223V4.55077H18.2507V0.0969238Z" fill="#E8158D"/>
</svg>
