<svg xmlns="http://www.w3.org/2000/svg" width="45" height="45" viewBox="0 0 45 45">
    <g fill="none" fill-rule="evenodd">
        <g fill="#000" fill-rule="nonzero">
            <path d="M15.627 29.938a.567.567 0 0 1-.4-.967L28.97 15.23a.567.567 0 1 1 .801.801L16.03 29.773a.567.567 0 0 1-.402.165zM17.189 20.375a3.187 3.187 0 1 1 0 0zm-1.416-1.774a2.002 2.002 0 1 0 2.829-2.833 2.002 2.002 0 0 0-2.83 2.833zM27.814 31a3.187 3.187 0 1 1 0 0zm0-5.186a2.002 2.002 0 0 0-1.416 3.418 2.002 2.002 0 1 0 1.416-3.418z"></path>
        </g>
        <circle cx="21.5" cy="21.5" r="21.5" stroke="#000" transform="translate(1 1)"></circle>
    </g>
</svg>