<svg width="70" height="62" viewBox="0 0 70 62" fill="none" xmlns="http://www.w3.org/2000/svg">
<path opacity="0.25" d="M52.2889 18.5818L31.1664 30.7985L10.0439 18.5818C10.4776 17.8311 11.096 17.2038 11.8405 16.7596L28.5999 7.08381C30.1912 6.18552 32.1417 6.18552 33.733 7.08381L50.4924 16.7596C51.2367 17.2036 51.8552 17.8324 52.2889 18.5818Z" fill="#B1B1B1"/>
<path opacity="0.5" d="M31.166 30.7983V55.1802C30.3568 55.1791 29.5584 54.9948 28.8305 54.6413L11.9171 44.8628C11.1381 44.4121 10.491 43.7649 10.0406 42.9857C9.59023 42.2065 9.35229 41.3227 9.35059 40.4227V21.1738C9.35482 20.2645 9.5935 19.3717 10.0435 18.5816L31.166 30.7983Z" fill="#B1B1B1"/>
<path d="M52.9817 21.1738V40.4227C52.98 41.3227 52.7421 42.2065 52.2917 42.9857C51.8413 43.7649 51.1942 44.4121 50.4152 44.8628L33.4248 54.6669C32.719 55.0006 31.9465 55.1751 31.1663 55.1802V30.7983L52.2888 18.5816C52.7379 19.3721 52.9766 20.2652 52.9817 21.1738Z" fill="#B1B1B1"/>
<path d="M60.2614 41.3905C60.2628 41.7389 60.5464 42.0203 60.8948 42.0189C61.2433 42.0176 61.5247 41.734 61.5233 41.3855L60.2614 41.3905ZM61.2558 20.3735C61.0084 20.128 60.6089 20.1296 60.3635 20.377L56.364 24.4081C56.1186 24.6555 56.1201 25.055 56.3675 25.3004C56.6149 25.5458 57.0144 25.5442 57.2598 25.2969L60.8149 21.7137L64.3981 25.2688C64.6455 25.5142 65.045 25.5126 65.2904 25.2653C65.5359 25.0179 65.5343 24.6184 65.2869 24.373L61.2558 20.3735ZM61.5233 41.3855L61.4423 20.8189L60.1805 20.8238L60.2614 41.3905L61.5233 41.3855Z" fill="#367B6A"/>
</svg>
