<svg xmlns="http://www.w3.org/2000/svg" width="50.624" height="50.439" viewBox="0 0 50.624 50.439"><path id="icon-tool" d="M936.941,562.563a8.413,8.413,0,0,0,11.9,0L961.794,549.6l.544.13a19.511,19.511,0,0,0,4.637.535A17.749,17.749,0,0,0,985.1,532.881l0-.36a17.343,17.343,0,0,0-2.2-8.511l-11.1,11.1a4.925,4.925,0,0,1-6.91.493l-.1-.087a4.959,4.959,0,0,1,.306-7.043l.089-.078,11.079-11.427a17.334,17.334,0,0,0-8.791-2.379c-.1,0-.2,0-.3,0a18.063,18.063,0,0,0-17.95,17.938,19.481,19.481,0,0,0,.535,4.638l.13.544-12.958,12.957a8.414,8.414,0,0,0,0,11.9Zm1.38-10.48c.075-.079.151-.155.229-.228l13.628-13.629-.409-1.5a15.19,15.19,0,0,1-.6-4.2,16.437,16.437,0,0,1,4.59-11.376,15.326,15.326,0,0,1,11.139-4.81l.286,0a16.585,16.585,0,0,1,4.371.6l1.656.456-9.464,9.463a6.779,6.779,0,0,0-.437,9.581l.084.09a6.634,6.634,0,0,0,4.789,1.82,6.716,6.716,0,0,0,4.728-2.1l.078-.083,9.445-9.45.5,1.572a13.071,13.071,0,0,1,.606,4.061,16.425,16.425,0,0,1-4.589,11.37,16.845,16.845,0,0,1-11.782,4.807l-2.42,0,.175-.176a15.227,15.227,0,0,1-1.971-.43l-1.488-.406-13.65,13.649a6.412,6.412,0,0,1-4.627,1.979H943a6.073,6.073,0,0,1-4.506-2.02A6.424,6.424,0,0,1,938.321,552.083Z" transform="translate(-934.478 -514.587)" fill="#007d69"></path></svg>
