<svg width="36px" height="36px" viewBox="0 0 36 36" version="1.1" xmlns="http://www.w3.org/2000/svg" xmlns:xlink="http://www.w3.org/1999/xlink">
    <!-- Generator: Sketch 52.6 (67491) - http://www.bohemiancoding.com/sketch -->
    <title>Untitled</title>
    <desc>Created with Sketch.</desc>
    <g id="Page-1" stroke="none" stroke-width="1" fill="none" fill-rule="evenodd">
        <g id="Group-3" transform="translate(1.000000, 1.000000)" stroke="#000000" stroke-width="0.8">
            <g id="noun_Call-Center_2112192">
                <path d="M31.1586148,12.4853049 C29.6061834,5.31959334 23.8560536,0 17,0 C8.95242222,0 2.42857143,7.32926447 2.42857143,16.3703704" id="Oval"></path>
                <path d="M18.2142857,34 C17.5436542,34 17,33.4362104 17,32.7407407 C17,32.0452711 17.5436542,31.4814815 18.2142857,31.4814815 C18.8849172,31.4814815 19.4285714,32.0452711 19.4285714,32.7407407 C19.4285714,33.4362104 18.8849172,34 18.2142857,34 Z M34,15.1111111 L34,20.1481481 C34,22.2345572 32.3690373,23.9259259 30.3571429,23.9259259 C29.6865114,23.9259259 29.1428571,23.3621364 29.1428571,22.6666667 L29.1428571,12.5925926 C29.1428571,11.8971229 29.6865114,11.3333333 30.3571429,11.3333333 C32.3690373,11.3333333 34,13.0247021 34,15.1111111 Z M0,15.1111111 C0,13.0247021 1.6309627,11.3333333 3.64285714,11.3333333 C4.31348862,11.3333333 4.85714286,11.8971229 4.85714286,12.5925926 L4.85714286,22.6666667 C4.85714286,23.3621364 4.31348862,23.9259259 3.64285714,23.9259259 C1.6309627,23.9259259 0,22.2345572 0,20.1481481 L0,15.1111111 Z" id="Shape" fill="#F9F9F9" fill-rule="nonzero"></path>
            </g>
            <path d="M19.1038206,32.7407407 C24.4410299,32.7407407 29.7782392,28.962963 30.9642857,23.9259259" id="Oval"></path>
        </g>
    </g>
</svg>