<svg xmlns="http://www.w3.org/2000/svg" width="48.994" height="50.202" viewBox="0 0 48.994 50.202" style="
    fill: #007d69;
">
  <g id="icon-assistance" transform="translate(0 0)" >
    <rect id="Rettangolo_17" data-name="Rettangolo 17" width="48" height="50" transform="translate(0.208 0.202)" fill="rgba(255,255,255,0)"></rect>
    <path id="Tracciato_15" data-name="Tracciato 15" d="M698.458,366.234a7.064,7.064,0,0,0-3.5-11.893l-.3-.066-.024-.308a18.667,18.667,0,0,0-18.588-17.225c-.484,0-.976.019-1.461.057a18.665,18.665,0,0,0-17.169,17.169l-.024.307-.3.066a7.14,7.14,0,0,0-3.5,1.911A7.059,7.059,0,0,0,657.44,368.2l.071.012.063.035a.416.416,0,0,0,.177.051.569.569,0,0,0,.066-.007h0l.088-.034.094.007.119.01c.158.013.308.026.458.026h1.661a.416.416,0,0,0,.415-.415V354.6a.416.416,0,0,0-.415-.415h-2.018l.043-.454A17.836,17.836,0,0,1,676,337.56c.558,0,1.125.027,1.684.079a17.848,17.848,0,0,1,16.091,16.092l.043.454H691.8a.416.416,0,0,0-.415.415v13.287a.416.416,0,0,0,.415.415h2.076v2.076a11.635,11.635,0,0,1-3.471,8.376,13.2,13.2,0,0,1-8.678,3.634l-.333.016-.087-.322a2.9,2.9,0,1,0,.018,1.453l.074-.3.311-.014a14.032,14.032,0,0,0,9.306-3.881,12.465,12.465,0,0,0,3.693-8.961V368.2l.322-.074A7.174,7.174,0,0,0,698.458,366.234Zm-39.9-11.219h1.271v12.457H658.58a6.594,6.594,0,0,1-.777-.046,6.228,6.228,0,0,1,.018-12.368A6.36,6.36,0,0,1,658.555,355.015Zm19.957,29.9a2.076,2.076,0,1,1,2.076-2.076A2.079,2.079,0,0,1,678.511,384.911Zm15.73-17.487a6.5,6.5,0,0,1-.782.047h-1.246V355.015h1.263a6.228,6.228,0,0,1,.765,12.41Z" transform="translate(-651.524 -336.742)"></path>
  </g>
</svg>
