<?xml version="1.0" encoding="UTF-8"?>
<svg width="22px" height="22px" viewBox="0 0 22 22" version="1.1" xmlns="http://www.w3.org/2000/svg" xmlns:xlink="http://www.w3.org/1999/xlink">
    <title>eye-off copy</title>
    <defs>
        <filter id="filter-1">
            <feColorMatrix in="SourceGraphic" type="matrix" values="0 0 0 0 0.313725 0 0 0 0 0.313725 0 0 0 0 0.313725 0 0 0 1.000000 0"></feColorMatrix>
        </filter>
    </defs>
    <g id="Area-Personale" stroke="none" stroke-width="1" fill="none" fill-rule="evenodd">
        <g id="Mob/Account/Profilo-pass/Cambia-pass" transform="translate(-293.000000, -446.000000)">
            <g id="eye-off-copy" transform="translate(20.000000, 328.000000)" filter="url(#filter-1)">
                <g transform="translate(273.000000, 118.000000)">
                    <path d="M10.0861923,13.3280213 C10.3724768,13.4403684 10.6812342,13.5 11,13.5 C12.3807119,13.5 13.5,12.3807119 13.5,11 C13.5,10.6812342 13.4403684,10.3724768 13.3280213,10.0861923 L10.0861923,13.3280213 Z M14.8099648,8.60424876 C15.255107,9.3109575 15.5,10.1367327 15.5,11 C15.5,13.4852814 13.4852814,15.5 11,15.5 C10.1367327,15.5 9.3109575,15.255107 8.60424876,14.8099648 L6.60263461,16.811579 C7.98547455,17.5773377 9.4887783,18 11,18 C15.44763,18 20,13.9121236 20,11 C20,9.7007922 18.8433597,7.80658698 17.0764086,6.33780495 L14.8099648,8.60424876 Z M18.4960293,4.91818425 C20.6045649,6.71958754 22,9.0732903 22,11 C22,15.0675428 16.5070819,20 11,20 C8.94775836,20 6.93673646,19.377361 5.14077131,18.2734422 L2.51471863,20.8994949 C2.12419433,21.2900192 1.49102936,21.2900192 1.10050506,20.8994949 C0.70998077,20.5089706 0.70998077,19.8758057 1.10050506,19.4852814 L4.29173569,16.2940507 C4.30003661,16.2854467 4.308467,16.2770178 4.31702158,16.2687649 L16.2704459,4.31534049 C16.2787469,4.30673644 16.2871772,4.29830752 16.2957318,4.29005462 L19.4852814,1.10050506 C19.8758057,0.70998077 20.5089706,0.70998077 20.8994949,1.10050506 C21.2900192,1.49102936 21.2900192,2.12419433 20.8994949,2.51471863 L18.4960293,4.91818425 Z M12.9540524,4.2324019 C12.3076972,4.07880891 11.6544383,4 11,4 C6.55237,4 2,8.08787639 2,11 C2,11.7265627 2.38509904,12.7107909 3.09761936,13.7133545 C3.41755809,14.1635296 3.31198063,14.7878302 2.8618055,15.107769 C2.41163036,15.4277077 1.78732972,15.3221302 1.46739099,14.8719551 C0.53376585,13.5582823 0,12.1940945 0,11 C0,6.9324572 5.49291808,2 11,2 C11.8125021,2 12.6207465,2.09750629 13.4164356,2.28658542 C13.953758,2.41426901 14.2858359,2.95336287 14.1581523,3.49068525 C14.0304687,4.02800764 13.4913748,4.36008549 12.9540524,4.2324019 Z" id="shape" fill="#000000" fill-rule="nonzero"></path>
                </g>
            </g>
        </g>
    </g>
</svg>