<svg width="64px" height="46px" viewBox="0 0 64 46" version="1.1" xmlns="http://www.w3.org/2000/svg" xmlns:xlink="http://www.w3.org/1999/xlink">
    <!-- Generator: Sketch 50.2 (55047) - http://www.bohemiancoding.com/sketch -->
    <title>Fill 1</title>
    <desc>Created with Sketch.</desc>
    <defs></defs>
    <g id="service&amp;support" stroke="none" stroke-width="1" fill="none" fill-rule="evenodd">
        <g id="Overview" transform="translate(-912.000000, -2619.000000)" fill="#007d69">
            <g id="ASSISTENZA" transform="translate(22.000000, 2463.000000)">
                <g id="BG-Copy">
                    <g id="Group-3" transform="translate(0.000000, 101.000000)">
                        <g id="Page-1" transform="translate(922.000000, 78.000000) rotate(-360.000000) translate(-922.000000, -78.000000) translate(890.000000, 55.000000)">
                            <path d="M4.95753846,43.6206897 C4.73928205,43.6206897 4.53251282,43.5857931 4.33066667,43.5334483 L24.1378462,25.1112414 L28.7819487,29.0101379 C29.697641,29.7794483 30.849641,30.1664828 32,30.1664828 C33.152,30.1664828 34.304,29.7794483 35.2213333,29.0101379 L39.8654359,25.1128276 L59.6709744,43.5334483 C59.4691282,43.5857931 59.262359,43.6206897 59.0441026,43.6206897 L4.95753846,43.6206897 Z M2.56984615,41.8695172 C2.50748718,41.6585517 2.46153846,41.4396552 2.46153846,41.208069 L2.46153846,6.91903448 L22.270359,23.5456552 L2.56984615,41.8695172 Z M4.95753846,2.37931034 L59.0441026,2.37931034 C60.0992821,2.37931034 60.9969231,3.01696552 61.3628718,3.91475862 L33.6082051,27.2129655 C32.6908718,27.9822759 31.3091282,27.9822759 30.3950769,27.2129655 L2.63876923,3.91475862 C3.00471795,3.01696552 3.90235897,2.37931034 4.95753846,2.37931034 Z M61.4317949,41.8695172 L41.7312821,23.5456552 L61.5384615,6.91903448 L61.5384615,41.208069 C61.5384615,41.4396552 61.4941538,41.6585517 61.4317949,41.8695172 Z M59.0441026,0 L4.95753846,0 C2.23179487,0 0,2.15565517 0,4.79193103 L0,41.208069 C0,43.8443448 2.23179487,46 4.95753846,46 L59.0441026,46 C61.7698462,46 64,43.8443448 64,41.208069 L64,4.79193103 C64,2.15565517 61.7698462,0 59.0441026,0 Z" id="Fill-1"></path>
                        </g>
                    </g>
                </g>
            </g>
        </g>
    </g>
</svg>