<svg width="49px" height="55px" viewBox="0 0 49 55" version="1.1" xmlns="http://www.w3.org/2000/svg" xmlns:xlink="http://www.w3.org/1999/xlink">
    <!-- Generator: Sketch 50.2 (55047) - http://www.bohemiancoding.com/sketch -->
    <title>Path</title>
    <desc>Created with Sketch.</desc>
    <defs></defs>
    <g id="service&amp;support" stroke="none" stroke-width="1" fill="none" fill-rule="evenodd" stroke-linecap="round" stroke-linejoin="round">
        <g id="Overview" transform="translate(-717.000000, -2604.000000)" stroke="#fff" stroke-width="2.4">
            <g id="Group-2" transform="translate(22.000000, 2551.000000)">
                <path d="M697.26464,55.1726925 C695.158693,64.8960215 699.763335,78.270736 709.03347,89.3125504 C717.856453,99.81963 729.741221,106.608458 739.311411,106.608458 L739.313266,106.608458 C739.698199,106.608458 740.080104,106.597232 740.452535,106.573902 C741.670138,105.498576 742.868695,97.5370017 742.296033,96.1109447 L735.171306,89.3178216 C734.457602,88.7945078 733.809634,88.5292879 733.245274,88.5292879 C732.296078,88.5292879 731.797453,89.3208477 731.792667,89.3292426 L728.189378,95.0325921 L727.687236,95.1031678 C727.513963,95.1269858 727.320862,95.1324522 727.150518,95.1395781 C722.160943,95.1389924 713.70199,86.0035007 709.762117,79.6895695 C707.127168,75.4658676 706.260409,72.3659091 707.186944,70.4752049 C707.335213,70.1543445 707.335213,70.1543445 712.7862,66.9666302 L712.902725,66.9074755 C712.902139,66.9074755 713.600898,66.571192 713.84899,65.8261945 C714.063677,65.1815453 713.914138,64.3637271 713.40428,63.3941177 L708.112307,55.3142342 C707.6927,55.0084065 705.34286,54.5298979 702.168653,54.5298979 C699.225933,54.5298979 697.677117,54.9331454 697.26464,55.1726925" id="Path"></path>
            </g>
        </g>
    </g>
</svg>