<svg width="64px" height="51px" viewBox="0 0 64 51" version="1.1" xmlns="http://www.w3.org/2000/svg" xmlns:xlink="http://www.w3.org/1999/xlink">
    <!-- Generator: Sketch 50.2 (55047) - http://www.bohemiancoding.com/sketch -->
    <title>Fill 1</title>
    <desc>Created with Sketch.</desc>
    <defs></defs>
    <g id="service&amp;support" stroke="none" stroke-width="1" fill="none" fill-rule="evenodd">
        <g id="Overview" transform="translate(-652.000000, -2604.000000)" fill="#007d69">
            <path d="M710.226872,2604 L657.771487,2604 C654.597744,2604 652,2606.73723 652,2610.08492 L652,2637.69846 C652,2641.04615 654.597744,2643.78338 657.771487,2643.78338 L662.578051,2643.78338 C663.029333,2643.78338 663.395282,2644.17067 663.392,2644.64821 L663.341128,2653.81005 C663.337846,2654.32862 663.741538,2654.67487 664.163282,2654.67487 C664.361846,2654.67487 664.565333,2654.59774 664.729436,2654.42379 L674.646154,2644.03446 C674.798769,2643.87364 675.005538,2643.78338 675.222154,2643.78338 L710.226872,2643.78338 C713.402256,2643.78338 716,2641.04615 716,2637.69846 L716,2610.08492 C716,2606.73723 713.402256,2604 710.226872,2604 M710.226872,2606.46154 C712.051692,2606.46154 713.538462,2608.08615 713.538462,2610.08492 L713.538462,2637.69846 C713.538462,2639.69723 712.051692,2641.32185 710.226872,2641.32185 L675.222154,2641.32185 C674.339282,2641.32185 673.479385,2641.69108 672.865641,2642.33272 L665.825641,2649.71077 L665.853538,2644.66133 C665.858462,2643.76205 665.515487,2642.91856 664.885333,2642.28513 C664.266667,2641.66482 663.447795,2641.32185 662.578051,2641.32185 L657.771487,2641.32185 C655.946667,2641.32185 654.461538,2639.69723 654.461538,2637.69846 L654.461538,2610.08492 C654.461538,2608.08615 655.946667,2606.46154 657.771487,2606.46154 L710.226872,2606.46154" id="Fill-1"></path>
        </g>
    </g>
</svg>