<svg version="1.1" xmlns="http://www.w3.org/2000/svg" xmlns:xlink="http://www.w3.org/1999/xlink" x="0px" y="0px" width="51.763px" height="51px" viewBox="0 0 51.763 51" enable-background="new 0 0 51.763 51" xml:space="preserve" fill="#fff">
	<path d="M25.977,0C12.045,0,0.73,11.315,0.73,25.162c0,4.391,1.182,8.613,3.378,12.497L0.393,51l13.594-3.631
	c3.969,2.111,8.106,3.293,11.99,3.293c13.763,0,25.416-11.652,25.416-25.5S39.994,0,25.977,0z M25.977,48.974
	c-3.715,0-7.684-1.182-11.483-3.293l-0.338-0.169L2.757,48.636l3.124-11.23l-0.169-0.338C3.601,33.437,2.419,29.3,2.419,25.162
	c0-12.919,10.555-23.474,23.558-23.474c13.088,0,23.727,10.555,23.727,23.474S38.812,48.974,25.977,48.974z"></path>
	<path d="M38.643,29.806l-5.32-2.449c-0.76-0.338-1.52-0.084-2.026,0.507l-2.026,2.618
	c-1.52-0.591-5.742-2.449-8.19-7.008l1.858-2.195c0.422-0.507,0.507-1.182,0.253-1.773l-2.28-5.404
	c-0.253-0.591-0.76-1.013-1.435-1.013l-1.604-0.084c-0.676,0-1.435,0.169-1.942,0.676c-0.76,0.676-2.195,2.111-2.618,4.053
	c-0.591,2.786,0.338,6.079,2.702,9.288c1.435,2.026,5.826,8.022,14.27,10.386c0.844,0.253,1.689,0.338,2.449,0.338
	c1.435,0,2.786-0.422,3.969-1.098c1.351-0.844,2.28-2.28,2.618-3.8l0.253-1.182C39.74,30.904,39.318,30.144,38.643,29.806z
	M37.545,32.424c-0.253,1.098-0.929,2.111-1.858,2.702c-1.435,0.929-3.124,1.098-4.982,0.591c-7.853-2.195-11.99-7.853-13.341-9.71
	c-2.026-2.786-2.871-5.657-2.364-7.937c0.338-1.52,1.435-2.618,2.111-3.209c0.169-0.169,0.422-0.253,0.676-0.253l1.689,0.169
	l2.28,5.32l-2.026,2.28c-0.338,0.422-0.422,1.098-0.169,1.604c2.786,5.404,7.853,7.515,9.372,8.022c0.591,0.169,1.182,0,1.604-0.507
	l2.026-2.702l5.32,2.449L37.545,32.424z"></path>
</svg>