<svg width="50px" height="61px" viewBox="0 0 50 61" version="1.1" xmlns="http://www.w3.org/2000/svg" xmlns:xlink="http://www.w3.org/1999/xlink">
    <g id="service&amp;support" stroke="none" stroke-width="1" fill="" fill-rule="evenodd">
        <g id="Overview" transform="">
            <g id="ASSISTENZA" transform="">
                <g id="BG-Copy">
                    <g id="Group-3" transform="">
                        <g id="Icon/Others/Repair" transform="" fill="#fff">
                            <path d="M26.4388816,7.20709067 C23.8623381,10.8606139 23.6390879,15.5944642 25.7501679,19.4430009 L26.4218529,20.6674946 L9.48587333,44.6826121 L8.48010258,44.8022085 C6.49893561,45.0377895 4.70811164,46.0829465 3.54150875,47.7371825 C1.30878547,50.9031707 2.08372473,55.2668223 5.27238403,57.4836711 C8.46104333,59.7005199 12.8559423,58.9310904 15.0886656,55.7651022 C16.2552684,54.1108663 16.6319298,52.0825422 16.1772897,50.1535172 L15.9464845,49.1742171 L32.8824689,25.1590949 L34.2710871,25.3669845 C38.6354516,26.0203722 43.0393134,24.1930057 45.6158569,20.5394824 C47.9517516,17.2271977 48.3343087,13.0517507 46.8675969,9.47859346 L41.6668597,16.8532076 C40.703146,18.2197479 38.8061691,18.5518579 37.4298434,17.5949961 L32.0253886,13.8376618 C30.6490628,12.8808 30.3145746,10.9973105 31.2782883,9.63077026 L36.4790255,2.25615609 C32.5956674,2.1097889 28.7747763,3.89480597 26.4388816,7.20709067 Z M40.2578036,0.820520896 L33.1345284,10.9212824 C32.8886486,11.2699385 32.9739892,11.7504878 33.3251419,11.9946194 L38.7295967,15.7519537 C39.0807494,15.9960853 39.5647398,15.9113515 39.8106196,15.5626955 L46.9338948,5.46193392 C46.9692041,5.41186554 46.997683,5.35907724 47.019525,5.30465975 C50.7241227,9.98616957 51.0892121,16.7009471 47.472097,21.8299946 C44.3256386,26.2916537 39.0129493,28.3522592 33.9332271,27.5917755 L18.3837333,49.6408623 C18.966425,52.1132068 18.5271628,54.8119831 16.9449056,57.0556143 C13.9943484,61.2394868 8.18646312,62.2562925 3.97263072,59.3267135 C-0.241201675,56.3971345 -1.26528856,50.6305427 1.68526865,46.4466703 C3.26752583,44.2030391 5.67146957,42.8701665 8.21064201,42.568233 L23.7601317,20.5191498 C21.3030284,16.0398064 21.4361831,10.3782376 24.5826415,5.9165785 C28.1997566,0.787530972 34.679635,-1.16842552 40.377364,0.686835962 C40.3333326,0.725826763 40.2931129,0.770452515 40.2578036,0.820520896 Z M25.0730186,27.5320031 C25.4429013,27.0094732 26.1388811,26.9035579 26.627533,27.2954345 C27.1161849,27.6873111 27.2124664,28.4285839 26.8425836,28.9511138 L17.6664489,41.9141532 C17.2965661,42.436683 16.6005863,42.5425984 16.1119344,42.1507218 C15.6232825,41.7588452 15.5270011,41.0175723 15.8968838,40.4950425 L25.0730186,27.5320031 Z M7.58272731,54.1776406 C6.16908232,53.1867805 5.82552445,51.2363686 6.81536933,49.8212737 C7.8052142,48.4061788 9.75362771,48.0622686 11.1672727,49.0531287 C12.5809177,50.0439888 12.9244755,51.9944007 11.9346307,53.4094955 C10.9447858,54.8245904 8.99637229,55.1685007 7.58272731,54.1776406 Z M9.97242423,50.7612993 C9.50120924,50.4310126 8.85173807,50.5456493 8.52178978,51.0173476 C8.19184148,51.4890459 8.30636077,52.1391832 8.77757577,52.4694699 C9.24879076,52.7997566 9.89826193,52.6851199 10.2282102,52.2134216 C10.5581585,51.7417233 10.4436392,51.091586 9.97242423,50.7612993 Z" id="path-1"></path>
                        </g>
                    </g>
                </g>
            </g>
        </g>
    </g>
</svg>