<svg width="30" height="26" viewBox="0 0 30 26" fill="none" xmlns="http://www.w3.org/2000/svg">
<path d="M2.96499 3.45C1.57143 4.85798 0.789734 6.75898 0.789734 8.74C0.789734 10.721 1.57143 12.622 2.96499 14.03L13.63 24.85C14.14 25.365 14.985 25.385 15.52 24.895L26.244 14.043C27.6388 12.6357 28.4213 10.7344 28.4213 8.753C28.4213 6.77159 27.6388 4.87035 26.244 3.463C23.341 0.523 18.51 0.523 15.607 3.463L15.317 3.753C15.2237 3.8464 15.1128 3.92041 14.9908 3.97075C14.8688 4.02109 14.738 4.04677 14.6059 4.0463C14.4739 4.04584 14.3433 4.01924 14.2216 3.96804C14.1 3.91684 13.9896 3.84206 13.897 3.748L13.602 3.449C12.151 1.98 10.216 1.25 8.28399 1.25C6.35099 1.25 4.41699 1.98 2.96499 3.45V3.45Z" fill="#007d69" fill-opacity="0.4" stroke="#007d69" stroke-width="2"/>
</svg>
