<svg xmlns="http://www.w3.org/2000/svg" width="24" height="20" viewBox="0 0 24 20">
    <g fill-rule="evenodd" opacity=".8" stroke="#ffffff">
        <path d="M19.828 18.799h-3.81v-2.403c0-1.987-1.579-3.604-3.518-3.604-1.94 0-3.517 1.617-3.517 3.604v2.403h-3.81V8L4 8.939v10.46c0 .332.263.601.586.601H9.57c.324 0 .586-.27.586-.6v-3.004c0-1.347 1.03-2.403 2.345-2.403 1.315 0 2.345 1.056 2.345 2.403v3.003c0 .332.263.601.586.601h4.983c.323 0 .586-.27.586-.6V8.938L19.828 8v10.799z"></path>
        <path d="M16.384 3.22L12.343.091c-.255-.153-.539-.09-.717.02L.246 8.931c-.126.083-.212.224-.238.387-.027.169.015.336.114.46.116.146.295.222.475.222.133 0 .267-.041.377-.126L12 1.334l11.025 8.54c.248.19.66.143.852-.096.103-.127.145-.306.114-.478-.028-.16-.116-.297-.22-.358l-4.387-3.394"></path>
    </g>
</svg>
