<svg xmlns="http://www.w3.org/2000/svg" xmlns:xlink="http://www.w3.org/1999/xlink" width="32" height="17" viewBox="0 0 32 17">
  <defs>
    <path id="home1-a" d="M0 0h32v17H0z"></path>
  </defs>
  <g fill="none" fill-rule="evenodd" opacity=".8" stroke="#ffffff">
    <mask id="home1-b" fill="#fff">
      <use xlink:href="#home1-a"></use>
    </mask>
    <path fill="#ffffff" d="M30.744 13.642h-1.606c-.349-1.025-1.291-1.802-2.443-1.802-1.15 0-2.093.742-2.442 1.802H23.17V3.958h3.77c2.337 0 3.767 1.768 3.767 4.595v5.09h.036zm-4.049 2.227a1.409 1.409 0 0 1-1.395-1.414c0-.777.628-1.413 1.395-1.413.769 0 1.396.636 1.396 1.413 0 .778-.627 1.414-1.396 1.414zm-4.675-2.227h-8.445c-.35-1.025-1.291-1.802-2.443-1.802-1.116 0-2.094.742-2.443 1.802H6.386V1.202H22.02v12.44zM11.132 15.87a1.409 1.409 0 0 1-1.396-1.414c0-.777.628-1.413 1.396-1.413.768 0 1.396.636 1.396 1.413 0 .778-.628 1.414-1.396 1.414zM26.975 2.792h-3.77V0H5.27v3.499H0v1.166h5.27v2.368H.943V8.2H5.27v2.368H1.78v1.166h3.49v3.04h3.35a2.571 2.571 0 0 0 5.094 0h10.504a2.571 2.571 0 0 0 5.095 0H32V8.517c-.07-3.464-2.024-5.726-5.025-5.726z" mask="url(#home1-b)"></path>
  </g>
</svg>
