<svg width="62" height="62" viewBox="0 0 62 62" fill="none" xmlns="http://www.w3.org/2000/svg">
<path opacity="0.25" d="M51.9208 18.5818L30.7983 30.7985L9.67578 18.5818C10.1094 17.8311 10.7279 17.2038 11.4723 16.7596L28.2318 7.08381C29.823 6.18552 31.7736 6.18552 33.3648 7.08381L50.1242 16.7596C50.8685 17.2036 51.487 17.8324 51.9208 18.5818Z" fill="#B1B1B1"/>
<path opacity="0.5" d="M30.7981 30.7983V55.1802C29.9889 55.1791 29.1905 54.9948 28.4626 54.6413L11.5492 44.8628C10.7702 44.4121 10.1231 43.7649 9.67271 42.9857C9.22231 42.2065 8.98437 41.3227 8.98267 40.4227V21.1738C8.9869 20.2645 9.22558 19.3717 9.67563 18.5816L30.7981 30.7983Z" fill="#B1B1B1"/>
<path d="M52.6138 21.1738V40.4227C52.6121 41.3227 52.3742 42.2065 51.9238 42.9857C51.4734 43.7649 50.8263 44.4121 50.0473 44.8628L33.0569 54.6669C32.3511 55.0006 31.5786 55.1751 30.7983 55.1802V30.7983L51.9208 18.5816C52.37 19.3721 52.6087 20.2652 52.6138 21.1738V21.1738Z" fill="#B1B1B1"/>
<path d="M37.2007 58.8331C36.8992 59.0078 36.7965 59.3939 36.9712 59.6953C37.146 59.9968 37.532 60.0996 37.8335 59.9248L37.2007 58.8331ZM55.9209 49.2279C56.0105 48.8912 55.8102 48.5455 55.4735 48.4559L49.9859 46.9954C49.6492 46.9058 49.3036 47.1061 49.2139 47.4429C49.1243 47.7796 49.3246 48.1252 49.6614 48.2149L54.5392 49.5131L53.241 54.3909C53.1513 54.7276 53.3517 55.0733 53.6884 55.1629C54.0251 55.2525 54.3708 55.0522 54.4604 54.7154L55.9209 49.2279ZM37.8335 59.9248L55.6276 49.6115L54.9948 48.5198L37.2007 58.8331L37.8335 59.9248Z" fill="#367B6A"/>
</svg>
