<svg width="15" height="13" fill="none" xmlns="http://www.w3.org/2000/svg"><path d="M1.07143 5.58139H7.5v1.07143H1.07143V5.58139ZM0 2.90282h5.35714v1.07142H0V2.90282Z" fill="#367B6A"/><path d="m14.9566 5.90603-1.6071-3.75c-.0413-.09639-.1099-.17854-.1974-.23625-.0876-.05771-.1901-.08845-.295-.08839H11.25V.759958c0-.142081-.0564-.278342-.1569-.378808s-.2367-.156907-.3788-.156907H2.14286V1.29567h8.03574V8.0221c-.24414.14175-.45777.33042-.6286.55513-.17084.22472-.29549.48103-.36679.75416H5.81679c-.13039-.505-.44048-.9451-.87215-1.23783-.43167-.29272-.95528-.41795-1.47268-.35224-.5174.06572-.99307.31789-1.33785.70923s-.53499.89499-.53499 1.41655c0 .5216.19021 1.0252.53499 1.4166.34478.3913.82045.6435 1.33785.7092.5174.0657 1.04101-.0595 1.47268-.3523.43167-.2927.74176-.7328.87215-1.2378h3.36642c.11654.4598.38306.8676.75738 1.1589.37431.2912.83511.4494 1.30941.4494.4743 0 .9351-.1582 1.3094-.4494.3743-.2913.6408-.6991.7574-1.1589h1.1475c.1421 0 .2783-.0564.3788-.1569.1005-.1005.1569-.2367.1569-.3788v-3.75c0-.07257-.0147-.14439-.0434-.21107ZM3.75 10.9385c-.21191 0-.41906-.0628-.59525-.1805-.1762-.1178-.31353-.2851-.39462-.4809-.0811-.1958-.10231-.41119-.06097-.61902.04134-.20784.14338-.39875.29323-.54859.14984-.14984.34075-.25189.54858-.29323.20784-.04134.42327-.02012.61905.06097s.36311.21842.48084.39462c.11773.17619.18057.38334.18057.59525-.00029.2841-.11326.5564-.31413.7573-.20087.2009-.47323.3138-.7573.3141Zm7.5-8.03568h1.2536l1.1485 2.67857H11.25V2.90282Zm0 8.03568c-.2119 0-.4191-.0628-.5953-.1805-.1762-.1178-.3135-.2851-.3946-.4809-.0811-.1958-.1023-.41119-.0609-.61902.0413-.20784.1433-.39875.2932-.54859.1498-.14984.3407-.25189.5486-.29323.2078-.04134.4232-.02012.619.06097.1958.08109.3631.21842.4809.39462.1177.17619.1805.38334.1805.59525-.0003.2841-.1132.5564-.3141.7573-.2009.2009-.4732.3138-.7573.3141Zm2.6786-1.60711h-.6118c-.118-.45888-.385-.86562-.759-1.15647-.374-.29085-.834-.44936-1.3078-.45068V6.65282h2.6786v2.67857Z" fill="#367B6A"/></svg>