<svg width="62" height="65" viewBox="0 0 62 65" fill="none" xmlns="http://www.w3.org/2000/svg">
<path opacity="0.25" d="M51.9208 21.1844L30.7983 33.4011L9.67578 21.1844C10.1094 20.4337 10.7279 19.8064 11.4723 19.3622L28.2318 9.68641C29.823 8.78812 31.7736 8.78812 33.3648 9.68641L50.1242 19.3622C50.8685 19.8062 51.487 20.435 51.9208 21.1844Z" fill="#B1B1B1"/>
<path opacity="0.5" d="M30.7981 33.4009V57.7829C29.9889 57.7817 29.1905 57.5975 28.4626 57.2439L11.5492 47.4655C10.7702 47.0148 10.1231 46.3675 9.67271 45.5883C9.22231 44.8092 8.98437 43.9254 8.98267 43.0254V23.7765C8.9869 22.8672 9.22558 21.9744 9.67563 21.1843L30.7981 33.4009Z" fill="#B1B1B1"/>
<path d="M52.6138 23.7765V43.0254C52.6121 43.9254 52.3742 44.8092 51.9238 45.5883C51.4734 46.3675 50.8263 47.0148 50.0473 47.4655L33.0569 57.2696C32.3511 57.6032 31.5786 57.7778 30.7983 57.7829V33.4009L51.9208 21.1843C52.37 21.9748 52.6087 22.8679 52.6138 23.7765Z" fill="#B1B1B1"/>
<path d="M53.9464 15.9253C54.2484 16.0991 54.6341 15.9953 54.808 15.6933C54.9819 15.3913 54.878 15.0055 54.576 14.8316L53.9464 15.9253ZM36.2732 4.50758C35.9368 4.59818 35.7374 4.9444 35.828 5.28088L37.3045 10.7641C37.3951 11.1006 37.7413 11.3 38.0777 11.2094C38.4142 11.1188 38.6136 10.7725 38.523 10.4361L37.2106 5.56204L42.0846 4.24966C42.4211 4.15906 42.6204 3.81285 42.5298 3.47637C42.4392 3.13988 42.093 2.94056 41.7565 3.03116L36.2732 4.50758ZM54.576 14.8316L36.7521 4.57003L36.1225 5.66364L53.9464 15.9253L54.576 14.8316Z" fill="#367B6A"/>
</svg>
