<svg xmlns="http://www.w3.org/2000/svg" width="50" height="50" viewBox="0 0 50 50" style="
    fill: #007d69;
">
  <g id="icon-hourglass" transform="translate(0.123 0.023)" >
    <rect id="Rettangolo_17" data-name="Rettangolo 17" width="50" height="50" transform="translate(-0.123 -0.023)" fill="rgba(255,255,255,0)"></rect>
    <path id="Tracciato_13" data-name="Tracciato 13" d="M1656.959,368.341a.456.456,0,1,1-.456-.456A.456.456,0,0,1,1656.959,368.341Zm3.534-11.214a2.282,2.282,0,0,0,0,4.349,12.489,12.489,0,0,1,8.129,11.725v5.671l.414.084a4.348,4.348,0,0,1,3.474,4.257.456.456,0,0,1-.456.456h-31.1a.456.456,0,0,1-.456-.456,4.358,4.358,0,0,1,3.475-4.256l.413-.084V373.2a12.489,12.489,0,0,1,8.129-11.725,2.282,2.282,0,0,0,0-4.349,12.12,12.12,0,0,1-8.129-11.433v-5.963l-.413-.084a4.358,4.358,0,0,1-3.475-4.256.456.456,0,0,1,.456-.456h31.1a.456.456,0,0,1,.456.456,4.352,4.352,0,0,1-3.474,4.257l-.414.084v5.963A12.12,12.12,0,0,1,1660.493,357.127Zm-15.654-18.3h23.327a3.443,3.443,0,0,0,3.238-2.3l.243-.688h-30.288l.244.689A3.445,3.445,0,0,0,1644.839,338.823Zm23.327,40.957h-23.327a3.44,3.44,0,0,0-3.236,2.288l-.244.689h30.288l-.243-.688a3.439,3.439,0,0,0-3.237-2.288Zm-18.384-.911h14.061l-.112-.61c-.41-2.229-2.146-3.253-4.816-4.184a7.209,7.209,0,0,1-2.093-1.146l-.319-.251-.319.251a7.226,7.226,0,0,1-2.092,1.146c-2.67.93-4.407,1.954-4.817,4.183l-.112.61Zm10.411-22.6a11.208,11.208,0,0,0,7.518-10.572v-5.959H1645.3v5.959a11.208,11.208,0,0,0,7.518,10.573,3.193,3.193,0,0,1,0,6.07A11.566,11.566,0,0,0,1645.3,373.2v5.668h2.977l.057-.452a5,5,0,0,1,1.9-3.429,11.894,11.894,0,0,1,3.564-1.773,6.253,6.253,0,0,0,2.389-1.5.456.456,0,0,1,.645,0,6.328,6.328,0,0,0,2.388,1.5,11.9,11.9,0,0,1,3.565,1.773,5,5,0,0,1,1.9,3.429l.057.452h2.977V373.2a11.566,11.566,0,0,0-7.518-10.864,3.193,3.193,0,0,1,0-6.07Zm-.98-2.811a6.254,6.254,0,0,0-2.389,1.5.456.456,0,0,1-.645,0,6.325,6.325,0,0,0-2.388-1.5,8.231,8.231,0,0,1-5.52-7.762.456.456,0,0,1,.456-.456.458.458,0,0,1,.2.048,16.936,16.936,0,0,0,15.144,0,.457.457,0,0,1,.443.02.453.453,0,0,1,.216.388,8.228,8.228,0,0,1-5.521,7.762Zm-.3-.861a7.329,7.329,0,0,0,4.711-5.211l.227-.954-.915.353a17.834,17.834,0,0,1-12.868,0l-.916-.353.228.955a7.322,7.322,0,0,0,4.71,5.21,7.21,7.21,0,0,1,2.093,1.146l.319.251.319-.251A7.227,7.227,0,0,1,1658.915,352.595Zm-2.411,9.167a.456.456,0,0,0-.456.456v2.236a.456.456,0,0,0,.911,0v-2.236A.456.456,0,0,0,1656.5,361.762Z" transform="translate(-1631.918 -334.621)"></path>
  </g>
</svg>
