<svg xmlns="http://www.w3.org/2000/svg" width="48" height="50.195" viewBox="0 0 48 50.195" style="
    fill: #007d69;
">
  <g id="icon-pipe" transform="translate(-0.403 0)" >
    <rect id="Rettangolo_17" data-name="Rettangolo 17" width="48" height="50" transform="translate(0.403 0.195)" fill="rgba(255,255,255,0)"></rect>
    <path id="Tracciato_14" data-name="Tracciato 14" d="M1218.688,370.076l-.278-.1v-7.129a10.45,10.45,0,0,0-10.438-10.437h-7.13l-.1-.283a1.968,1.968,0,0,0-.477-.763l0,0,0,0a2.052,2.052,0,0,0-1.463-.618h-.011a2.093,2.093,0,0,0-1.96,1.392l-.1.278h-2.119a1.254,1.254,0,0,1-1.252-1.252v-2.12l.28-.1a2.072,2.072,0,0,0,0-3.914l-.28-.1V334.877h-14.195v10.052l-.283.1a1.971,1.971,0,0,0-.762.477l0,0,0,0a2.043,2.043,0,0,0-.619,1.473,2.092,2.092,0,0,0,1.392,1.96l.278.1v7.129a10.45,10.45,0,0,0,10.438,10.437h7.13l.1.28a2.072,2.072,0,0,0,3.914,0l.1-.28h2.12a1.254,1.254,0,0,1,1.252,1.252v2.12l-.28.1a2.072,2.072,0,0,0,0,3.914l.28.1v10.053h14.195V374.089l.283-.1a1.975,1.975,0,0,0,.762-.477l0,0,0,0a2.043,2.043,0,0,0,.619-1.473A2.092,2.092,0,0,0,1218.688,370.076ZM1180,344.479v-8.767h12.525V344.9H1180Zm-1.67,2.5a1.236,1.236,0,0,1,.381-.892,1.219,1.219,0,0,1,.862-.36h13.369a1.252,1.252,0,0,1,0,2.5h-13.36A1.254,1.254,0,0,1,1178.33,346.984Zm18.37,6.68v12.107h-7.1a9.613,9.613,0,0,1-9.6-9.6v-7.1h12.525v2.087a2.09,2.09,0,0,0,2.087,2.087h2.088Zm2.087,13.777a1.254,1.254,0,0,1-1.252-1.252v-13.36a1.254,1.254,0,0,1,1.252-1.252,1.263,1.263,0,0,1,1.253,1.256v13.357A1.254,1.254,0,0,1,1198.788,367.442Zm4.175-1.67h-2.088V353.247h7.1a9.613,9.613,0,0,1,9.6,9.6v7.1H1205.05v-2.087A2.09,2.09,0,0,0,1202.963,365.772Zm14.612,8.767v8.767H1205.05v-9.185h12.525Zm1.29-1.613a1.223,1.223,0,0,1-.864.36h-13.368a1.252,1.252,0,1,1,0-2.5h13.36a1.254,1.254,0,0,1,1.252,1.253A1.238,1.238,0,0,1,1218.865,372.926Z" transform="translate(-1173.026 -334.877)"></path>
  </g>
</svg>
