<?xml version="1.0" encoding="UTF-8"?>
<svg width="22px" height="18px" viewBox="0 0 22 18" version="1.1" xmlns="http://www.w3.org/2000/svg" xmlns:xlink="http://www.w3.org/1999/xlink">
    <title>eye</title>
    <defs>
        <filter id="filter-1">
            <feColorMatrix in="SourceGraphic" type="matrix" values="0 0 0 0 0.313725 0 0 0 0 0.313725 0 0 0 0 0.313725 0 0 0 1.000000 0"></feColorMatrix>
        </filter>
    </defs>
    <g id="Area-Personale" stroke="none" stroke-width="1" fill="none" fill-rule="evenodd">
        <g id="Desk/Account/Accedi/Mail" transform="translate(-833.000000, -514.000000)">
            <g id="Accedi" transform="translate(511.000000, 310.000000)">
                <g id="Form" transform="translate(51.000000, 71.000000)">
                    <g id="eye" transform="translate(0.000000, 91.000000)" filter="url(#filter-1)">
                        <g transform="translate(271.000000, 42.000000)">
                            <path d="M11,18 C5.49291808,18 0,13.0675428 0,9 C0,4.9324572 5.49291808,0 11,0 C16.5070819,0 22,4.9324572 22,9 C22,13.0675428 16.5070819,18 11,18 Z M11,16 C15.44763,16 20,11.9121236 20,9 C20,6.08787639 15.44763,2 11,2 C6.55237,2 2,6.08787639 2,9 C2,11.9121236 6.55237,16 11,16 Z M11,13.5 C8.51471863,13.5 6.5,11.4852814 6.5,9 C6.5,6.51471863 8.51471863,4.5 11,4.5 C13.4852814,4.5 15.5,6.51471863 15.5,9 C15.5,11.4852814 13.4852814,13.5 11,13.5 Z M11,11.5 C12.3807119,11.5 13.5,10.3807119 13.5,9 C13.5,7.6192881 12.3807119,6.5 11,6.5 C9.6192881,6.5 8.5,7.6192881 8.5,9 C8.5,10.3807119 9.6192881,11.5 11,11.5 Z" id="shape" fill="#000000" fill-rule="nonzero"></path>
                        </g>
                    </g>
                </g>
            </g>
        </g>
    </g>
</svg>