<svg width="38" height="38" viewBox="0 0 38 38" fill="none" xmlns="http://www.w3.org/2000/svg">
<path fill-rule="evenodd" clip-rule="evenodd" d="M1 18.715C1 28.705 9.06 36.805 19 36.805C28.942 36.805 37 28.705 37 18.715C37 8.724 28.942 0.625 19 0.625C9.06 0.625 1 8.724 1 18.715Z" stroke="#AEAEAE"/>
<path fill-rule="evenodd" clip-rule="evenodd" d="M22 14.687H20.913C20.06 14.687 19.894 15.111 19.894 15.731V17.1H21.929L21.663 19.244H19.894V24.745H17.774V19.245H16V17.1H17.773V15.52C17.773 13.684 18.847 12.685 20.415 12.685C21.166 12.685 21.812 12.743 22 12.769V14.687Z" fill="#AEAEAE"/>
</svg>
