<svg xmlns="http://www.w3.org/2000/svg" width="152" height="30" fill="none" style=""><rect id="backgroundrect" width="100%" height="100%" x="0" y="0" fill="none" stroke="none"/>












    <defs>
    <filter id="filter0_d" x="51.78419876098633" y="0" width="48.09299850463867" height="36.25299835205078" filterUnits="userSpaceOnUse" color-interpolation-filters="sRGB">
    <feFlood flood-opacity="0" result="BackgroundImageFix"/>
    <feColorMatrix in="SourceAlpha" type="matrix" values="0 0 0 0 0 0 0 0 0 0 0 0 0 0 0 0 0 0 127 0" result="hardAlpha"/>
    <feOffset dy="4"/>
    <feGaussianBlur stdDeviation="2"/>
    <feColorMatrix type="matrix" values="0 0 0 0 0 0 0 0 0 0 0 0 0 0 0 0 0 0 0.25 0"/>
    <feBlend mode="normal" in2="BackgroundImageFix" result="effect1_dropShadow"/>
    <feBlend mode="normal" in="SourceGraphic" in2="effect1_dropShadow" result="shape"/>
    </filter>
    <filter id="filter1_d" x="58.48780059814453" y="5.820310115814209" width="21.26289939880371" height="24.725099563598633" filterUnits="userSpaceOnUse" color-interpolation-filters="sRGB">
    <feFlood flood-opacity="0" result="BackgroundImageFix"/>
    <feColorMatrix in="SourceAlpha" type="matrix" values="0 0 0 0 0 0 0 0 0 0 0 0 0 0 0 0 0 0 127 0" result="hardAlpha"/>
    <feOffset dy="4"/>
    <feGaussianBlur stdDeviation="2"/>
    <feColorMatrix type="matrix" values="0 0 0 0 0 0 0 0 0 0 0 0 0 0 0 0 0 0 0.25 0"/>
    <feBlend mode="normal" in2="BackgroundImageFix" result="effect1_dropShadow"/>
    <feBlend mode="normal" in="SourceGraphic" in2="effect1_dropShadow" result="shape"/>
    </filter>
    <filter id="filter2_d" x="68.6416015625" y="7.622560024261475" width="14.216500282287598" height="21.118000030517578" filterUnits="userSpaceOnUse" color-interpolation-filters="sRGB">
    <feFlood flood-opacity="0" result="BackgroundImageFix"/>
    <feColorMatrix in="SourceAlpha" type="matrix" values="0 0 0 0 0 0 0 0 0 0 0 0 0 0 0 0 0 0 127 0" result="hardAlpha"/>
    <feOffset dy="4"/>
    <feGaussianBlur stdDeviation="2"/>
    <feColorMatrix type="matrix" values="0 0 0 0 0 0 0 0 0 0 0 0 0 0 0 0 0 0 0.25 0"/>
    <feBlend mode="normal" in2="BackgroundImageFix" result="effect1_dropShadow"/>
    <feBlend mode="normal" in="SourceGraphic" in2="effect1_dropShadow" result="shape"/>
    </filter>
    <filter id="filter3_d" x="71.7509994506836" y="5.817870140075684" width="21.263399124145508" height="24.729000091552734" filterUnits="userSpaceOnUse" color-interpolation-filters="sRGB">
    <feFlood flood-opacity="0" result="BackgroundImageFix"/>
    <feColorMatrix in="SourceAlpha" type="matrix" values="0 0 0 0 0 0 0 0 0 0 0 0 0 0 0 0 0 0 127 0" result="hardAlpha"/>
    <feOffset dy="4"/>
    <feGaussianBlur stdDeviation="2"/>
    <feColorMatrix type="matrix" values="0 0 0 0 0 0 0 0 0 0 0 0 0 0 0 0 0 0 0.25 0"/>
    <feBlend mode="normal" in2="BackgroundImageFix" result="effect1_dropShadow"/>
    <feBlend mode="normal" in="SourceGraphic" in2="effect1_dropShadow" result="shape"/>
    </filter>
    <filter id="filter4_d" x="108" y="0" width="48.09299850463867" height="36.25299835205078" filterUnits="userSpaceOnUse" color-interpolation-filters="sRGB">
    <feFlood flood-opacity="0" result="BackgroundImageFix"/>
    <feColorMatrix in="SourceAlpha" type="matrix" values="0 0 0 0 0 0 0 0 0 0 0 0 0 0 0 0 0 0 127 0" result="hardAlpha"/>
    <feOffset dy="4"/>
    <feGaussianBlur stdDeviation="2"/>
    <feColorMatrix type="matrix" values="0 0 0 0 0 0 0 0 0 0 0 0 0 0 0 0 0 0 0.25 0"/>
    <feBlend mode="normal" in2="BackgroundImageFix" result="effect1_dropShadow"/>
    <feBlend mode="normal" in="SourceGraphic" in2="effect1_dropShadow" result="shape"/>
    </filter>
    <filter id="filter5_d" x="119.8290023803711" y="11.954099655151367" width="24.30900001525879" height="11.6697998046875" filterUnits="userSpaceOnUse" color-interpolation-filters="sRGB">
    <feFlood flood-opacity="0" result="BackgroundImageFix"/>
    <feColorMatrix in="SourceAlpha" type="matrix" values="0 0 0 0 0 0 0 0 0 0 0 0 0 0 0 0 0 0 127 0" result="hardAlpha"/>
    <feOffset dy="4"/>
    <feGaussianBlur stdDeviation="2"/>
    <feColorMatrix type="matrix" values="0 0 0 0 0 0 0 0 0 0 0 0 0 0 0 0 0 0 0.25 0"/>
    <feBlend mode="normal" in2="BackgroundImageFix" result="effect1_dropShadow"/>
    <feBlend mode="normal" in="SourceGraphic" in2="effect1_dropShadow" result="shape"/>
    </filter>
    <filter id="filter6_d" x="112.95099639892578" y="4.76416015625" width="38.19200134277344" height="25.658000946044922" filterUnits="userSpaceOnUse" color-interpolation-filters="sRGB">
    <feFlood flood-opacity="0" result="BackgroundImageFix"/>
    <feColorMatrix in="SourceAlpha" type="matrix" values="0 0 0 0 0 0 0 0 0 0 0 0 0 0 0 0 0 0 127 0" result="hardAlpha"/>
    <feOffset dy="4"/>
    <feGaussianBlur stdDeviation="2"/>
    <feColorMatrix type="matrix" values="0 0 0 0 0 0 0 0 0 0 0 0 0 0 0 0 0 0 0.25 0"/>
    <feBlend mode="normal" in2="BackgroundImageFix" result="effect1_dropShadow"/>
    <feBlend mode="normal" in="SourceGraphic" in2="effect1_dropShadow" result="shape"/>
    </filter>
    <filter id="filter7_d" x="-4" y="0.11181599646806717" width="48.09299850463867" height="36.25299835205078" filterUnits="userSpaceOnUse" color-interpolation-filters="sRGB">
    <feFlood flood-opacity="0" result="BackgroundImageFix"/>
    <feColorMatrix in="SourceAlpha" type="matrix" values="0 0 0 0 0 0 0 0 0 0 0 0 0 0 0 0 0 0 127 0" result="hardAlpha"/>
    <feOffset dy="4"/>
    <feGaussianBlur stdDeviation="2"/>
    <feColorMatrix type="matrix" values="0 0 0 0 0 0 0 0 0 0 0 0 0 0 0 0 0 0 0.25 0"/>
    <feBlend mode="normal" in2="BackgroundImageFix" result="effect1_dropShadow"/>
    <feBlend mode="normal" in="SourceGraphic" in2="effect1_dropShadow" result="shape"/>
    </filter>
    <filter id="filter8_d" x="1.0791000127792358" y="9.73678970336914" width="13.458000183105469" height="12.583000183105469" filterUnits="userSpaceOnUse" color-interpolation-filters="sRGB">
    <feFlood flood-opacity="0" result="BackgroundImageFix"/>
    <feColorMatrix in="SourceAlpha" type="matrix" values="0 0 0 0 0 0 0 0 0 0 0 0 0 0 0 0 0 0 127 0" result="hardAlpha"/>
    <feOffset dy="4"/>
    <feGaussianBlur stdDeviation="2"/>
    <feColorMatrix type="matrix" values="0 0 0 0 0 0 0 0 0 0 0 0 0 0 0 0 0 0 0.25 0"/>
    <feBlend mode="normal" in2="BackgroundImageFix" result="effect1_dropShadow"/>
    <feBlend mode="normal" in="SourceGraphic" in2="effect1_dropShadow" result="shape"/>
    </filter>
    <filter id="filter9_d" x="3.398930072784424" y="9.664549827575684" width="34.413299560546875" height="17.03510093688965" filterUnits="userSpaceOnUse" color-interpolation-filters="sRGB">
    <feFlood flood-opacity="0" result="BackgroundImageFix"/>
    <feColorMatrix in="SourceAlpha" type="matrix" values="0 0 0 0 0 0 0 0 0 0 0 0 0 0 0 0 0 0 127 0" result="hardAlpha"/>
    <feOffset dy="4"/>
    <feGaussianBlur stdDeviation="2"/>
    <feColorMatrix type="matrix" values="0 0 0 0 0 0 0 0 0 0 0 0 0 0 0 0 0 0 0.25 0"/>
    <feBlend mode="normal" in2="BackgroundImageFix" result="effect1_dropShadow"/>
    <feBlend mode="normal" in="SourceGraphic" in2="effect1_dropShadow" result="shape"/>
    </filter>
    <filter id="filter10_d" x="-4" y="0.11279299855232239" width="47.932498931884766" height="12.916999816894531" filterUnits="userSpaceOnUse" color-interpolation-filters="sRGB">
    <feFlood flood-opacity="0" result="BackgroundImageFix"/>
    <feColorMatrix in="SourceAlpha" type="matrix" values="0 0 0 0 0 0 0 0 0 0 0 0 0 0 0 0 0 0 127 0" result="hardAlpha"/>
    <feOffset dy="4"/>
    <feGaussianBlur stdDeviation="2"/>
    <feColorMatrix type="matrix" values="0 0 0 0 0 0 0 0 0 0 0 0 0 0 0 0 0 0 0.25 0"/>
    <feBlend mode="normal" in2="BackgroundImageFix" result="effect1_dropShadow"/>
    <feBlend mode="normal" in="SourceGraphic" in2="effect1_dropShadow" result="shape"/>
    </filter>
    <filter id="filter11_d" x="-4" y="23.337900161743164" width="47.932498931884766" height="12.914999961853027" filterUnits="userSpaceOnUse" color-interpolation-filters="sRGB">
    <feFlood flood-opacity="0" result="BackgroundImageFix"/>
    <feColorMatrix in="SourceAlpha" type="matrix" values="0 0 0 0 0 0 0 0 0 0 0 0 0 0 0 0 0 0 127 0" result="hardAlpha"/>
    <feOffset dy="4"/>
    <feGaussianBlur stdDeviation="2"/>
    <feColorMatrix type="matrix" values="0 0 0 0 0 0 0 0 0 0 0 0 0 0 0 0 0 0 0.25 0"/>
    <feBlend mode="normal" in2="BackgroundImageFix" result="effect1_dropShadow"/>
    <feBlend mode="normal" in="SourceGraphic" in2="effect1_dropShadow" result="shape"/>
    </filter>
    <filter id="filter12_d" x="164" y="0" width="48.125999450683594" height="36.20000076293945" filterUnits="userSpaceOnUse" color-interpolation-filters="sRGB">
    <feFlood flood-opacity="0" result="BackgroundImageFix"/>
    <feColorMatrix in="SourceAlpha" type="matrix" values="0 0 0 0 0 0 0 0 0 0 0 0 0 0 0 0 0 0 127 0" result="hardAlpha"/>
    <feOffset dy="4"/>
    <feGaussianBlur stdDeviation="2"/>
    <feColorMatrix type="matrix" values="0 0 0 0 0 0 0 0 0 0 0 0 0 0 0 0 0 0 0.25 0"/>
    <feBlend mode="normal" in2="BackgroundImageFix" result="effect1_dropShadow"/>
    <feBlend mode="normal" in="SourceGraphic" in2="effect1_dropShadow" result="shape"/>
    </filter>
    <filter id="filter13_d" x="164" y="0" width="48.125999450683594" height="36.20000076293945" filterUnits="userSpaceOnUse" color-interpolation-filters="sRGB">
    <feFlood flood-opacity="0" result="BackgroundImageFix"/>
    <feColorMatrix in="SourceAlpha" type="matrix" values="0 0 0 0 0 0 0 0 0 0 0 0 0 0 0 0 0 0 127 0" result="hardAlpha"/>
    <feOffset dy="4"/>
    <feGaussianBlur stdDeviation="2"/>
    <feColorMatrix type="matrix" values="0 0 0 0 0 0 0 0 0 0 0 0 0 0 0 0 0 0 0.25 0"/>
    <feBlend mode="normal" in2="BackgroundImageFix" result="effect1_dropShadow"/>
    <feBlend mode="normal" in="SourceGraphic" in2="effect1_dropShadow" result="shape"/>
    </filter>
    <filter id="filter14_d" x="166.93600463867188" y="9.747989654541016" width="27.09280014038086" height="17.399999618530273" filterUnits="userSpaceOnUse" color-interpolation-filters="sRGB">
    <feFlood flood-opacity="0" result="BackgroundImageFix"/>
    <feColorMatrix in="SourceAlpha" type="matrix" values="0 0 0 0 0 0 0 0 0 0 0 0 0 0 0 0 0 0 127 0" result="hardAlpha"/>
    <feOffset dy="4"/>
    <feGaussianBlur stdDeviation="2"/>
    <feColorMatrix type="matrix" values="0 0 0 0 0 0 0 0 0 0 0 0 0 0 0 0 0 0 0.25 0"/>
    <feBlend mode="normal" in2="BackgroundImageFix" result="effect1_dropShadow"/>
    <feBlend mode="normal" in="SourceGraphic" in2="effect1_dropShadow" result="shape"/>
    </filter>
    <filter id="filter15_d" x="185.92300415039062" y="9.747989654541016" width="23.267000198364258" height="15.899999618530273" filterUnits="userSpaceOnUse" color-interpolation-filters="sRGB">
    <feFlood flood-opacity="0" result="BackgroundImageFix"/>
    <feColorMatrix in="SourceAlpha" type="matrix" values="0 0 0 0 0 0 0 0 0 0 0 0 0 0 0 0 0 0 127 0" result="hardAlpha"/>
    <feOffset dy="4"/>
    <feGaussianBlur stdDeviation="2"/>
    <feColorMatrix type="matrix" values="0 0 0 0 0 0 0 0 0 0 0 0 0 0 0 0 0 0 0.25 0"/>
    <feBlend mode="normal" in2="BackgroundImageFix" result="effect1_dropShadow"/>
    <feBlend mode="normal" in="SourceGraphic" in2="effect1_dropShadow" result="shape"/>
    </filter>
    </defs>
    <g class="currentLayer" style=""><title>Layer 1</title><g filter="url(#filter0_d)" id="svg_1" class="">
    <path d="M95.87720002980232,25.831 C95.87720002980232,26.4734 95.62750002980232,27.0894 95.18300002980233,27.5436 C94.73840002980232,27.9978 94.13550002980232,28.253 93.50690002980232,28.253 H58.15450002980232 C57.52590002980232,28.253 56.923000029802324,27.9978 56.47840002980232,27.5436 C56.033900029802325,27.0894 55.78420002980232,26.4734 55.78420002980232,25.831 V2.423 C55.784100029802325,2.10485 55.845300029802324,1.7898 55.964300029802324,1.49583 C56.08340002980232,1.20186 56.258000029802325,0.9347530000000001 56.47810002980232,0.7097430000000001 C56.69820002980232,0.48473299999999997 56.959600029802324,0.306243 57.24720002980232,0.18446300000000004 C57.53480002980232,0.06268010000000002 57.843200029802325,0 58.15450002980232,0 H93.50690002980232 C94.13550002980232,0 94.73840002980232,0.255173 95.18300002980233,0.709383 C95.62750002980232,1.1636 95.87720002980232,1.77964 95.87720002980232,2.422 V25.832 V25.831 z" fill="white" id="svg_2"/>
    </g><g filter="url(#filter1_d)" id="svg_3" class="">
    <path d="M72.64150002980232,14.183 C72.64050002980233,12.9206 72.91980002980232,11.6744 73.45810002980232,10.5381 C73.99650002980232,9.40189 74.78000002980232,8.40518 75.74970002980233,7.62295 C74.54340002980233,6.64852 73.09280002980232,6.041 71.56420002980232,5.87 C70.03560002980232,5.69899 68.49080002980232,5.97141 67.10670002980233,6.6560500000000005 C65.72260002980232,7.34069 64.55530002980232,8.40985 63.738300029802325,9.74109 C62.92140002980232,11.0723 62.48800002980232,12.6117 62.48780002980232,14.183 C62.488100029802325,15.7543 62.92160002980232,17.2938 63.73860002980232,18.625 C64.55560002980232,19.9563 65.72310002980232,21.0254 67.10740002980232,21.71 C68.49160002980233,22.3945 70.03650002980233,22.6668 71.56520002980233,22.4956 C73.09390002980233,22.3244 74.54440002980232,21.7166 75.75070002980232,20.742 C74.78110002980232,19.96 73.99770002980232,18.9637 73.45930002980232,17.8278 C72.92100002980233,16.6919 72.64170002980232,15.446 72.64240002980232,14.184 " fill="#E20D17" id="svg_4"/>
    </g><g filter="url(#filter2_d)" id="svg_5" class="">
    <path d="M72.64160002980232,14.1826 C72.64080002980232,15.4447 72.92010002980233,16.6905 73.45850002980232,17.8264 C73.99690002980232,18.9623 74.78030002980232,19.9586 75.74990002980232,20.7406 C76.71940002980232,19.9586 77.50280002980232,18.9623 78.04120002980233,17.8264 C78.57960002980232,16.6905 78.85890002980233,15.4447 78.85810002980232,14.1826 C78.85900002980232,12.9202 78.57980002980233,11.674 78.04140002980232,10.5378 C77.50310002980233,9.40149 76.71960002980232,8.40479 75.74990002980232,7.62256 C74.78020002980232,8.40479 73.99670002980233,9.40149 73.45830002980232,10.5378 C72.91990002980232,11.674 72.64070002980232,12.9202 72.64160002980232,14.1826 z" fill="#EA610A" id="svg_6"/>
    </g><g filter="url(#filter3_d)" id="svg_7" class="">
    <path d="M80.82830002980232,5.81787 C78.91010002980232,5.81787 77.14660002980233,6.49387 75.75100002980233,7.62387 C76.72080002980232,8.406 77.50440002980233,9.40269 78.04270002980232,10.539 C78.58110002980233,11.6752 78.86030002980232,12.9215 78.85920002980232,14.1839 C78.86000002980232,15.4457 78.58070002980232,16.6912 78.04230002980232,17.8268 C77.50390002980232,18.9623 76.72050002980232,19.9584 75.75100002980233,20.7399 C77.19460002980232,21.9118 78.98450002980232,22.5489 80.82830002980232,22.5469 C82.99940002980232,22.5469 85.08150002980233,21.6656 86.61670002980232,20.097 C88.15190002980232,18.5283 89.01440002980232,16.4008 89.01440002980232,14.1824 C89.01440002980232,11.964 88.15190002980232,9.83639 86.61670002980232,8.26777 C85.08150002980233,6.69913 82.99940002980232,5.81787 80.82830002980232,5.81787 z" fill="#F59E00" id="svg_8"/>
    </g><g filter="url(#filter4_d)" id="svg_9" class="">
    <path d="M152.0930000298023,25.831 C152.0930000298023,26.4734 151.8430000298023,27.0894 151.39900002980232,27.5436 C150.95400002980233,27.9978 150.35100002980232,28.253 149.72300002980234,28.253 H114.37000002980233 C113.74200002980233,28.253 113.13900002980232,27.9978 112.69400002980233,27.5436 C112.25000002980232,27.0894 112.00000002980232,26.4734 112.00000002980232,25.831 V2.423 C112.00000002980232,2.10486 112.06100002980233,1.7898 112.18000002980233,1.49584 C112.29900002980233,1.20187 112.47400002980233,0.9347470000000001 112.69400002980233,0.7097370000000001 C112.91400002980232,0.484727 113.17500002980232,0.306237 113.46300002980232,0.18445700000000004 C113.75100002980233,0.06267700000000001 114.05900002980232,0 114.37000002980233,0 H149.72300002980234 C150.35100002980232,0 150.95400002980233,0.255177 151.39900002980232,0.709387 C151.8430000298023,1.1636 152.0930000298023,1.7796500000000002 152.0930000298023,2.422 V25.832 V25.831 z" fill="#005A9B" id="svg_10"/>
    </g><g filter="url(#filter5_d)" id="svg_11" class="">
    <path d="M123.82900002980232,15.624 C127.63800002980233,13.956 132.98400002980233,12.444 140.0630000298023,13.958 L140.13800002980233,12.123 C132.66800002980233,11.29 127.30900002980232,13.721 123.82900002980232,15.443 V15.624 z" fill="#FAA929" id="svg_12"/>
    </g><g filter="url(#filter6_d)" id="svg_13" class="">
    <path d="M116.95100002980232,16.9732 H120.54000002980233 V18.0772 H118.31000002980232 L118.29600002980233,19.0982 H120.51800002980232 V20.1582 H118.28700002980233 L118.29700002980232,21.1782 H120.49500002980233 V22.2842 H116.95200002980232 L116.95100002980232,16.9732 zM121.44200002980232,16.5282 H122.74900002980232 L122.75400002980233,22.2842 H121.44700002980233 L121.44200002980232,16.5282 zM126.28400002980233,19.8662 C126.28400002980233,19.4682 126.09700002980232,19.1062 125.66000002980232,19.1062 C125.24700002980232,19.1062 124.93200002980232,19.4822 124.84800002980232,19.8662 H126.28400002980233 zM127.24500002980233,21.8462 C126.80200002980233,22.2302 126.12600002980233,22.4222 125.52600002980232,22.4222 C124.15000002980233,22.4222 123.52800002980233,21.4252 123.52800002980233,20.4342 C123.52800002980233,19.2672 124.38400002980232,18.2782 125.56300002980232,18.2782 C127.00500002980232,18.2782 127.45500002980232,19.3212 127.45500002980232,20.6482 H124.83500002980232 C124.83500002980232,20.9482 125.02100002980232,21.4552 125.74300002980232,21.4552 C126.20200002980232,21.4552 126.45700002980232,21.3172 126.80900002980232,21.0712 L127.24500002980233,21.8462 zM131.42200002980232,22.0232 C131.06200002980233,22.2532 130.4680000298023,22.4212 130.03200002980233,22.4212 C128.83000002980233,22.4212 127.96700002980232,21.7152 127.96700002980232,20.4422 C127.96700002980232,19.1372 128.82300002980233,18.2782 130.11400002980233,18.2782 C130.56400002980232,18.2782 131.10700002980232,18.4232 131.39900002980232,18.6152 L130.97800002980233,19.4902 C130.7830000298023,19.4062 130.57300002980233,19.3362 130.36200002980232,19.3362 C129.70900002980233,19.3362 129.27400002980232,19.7362 129.27400002980232,20.3732 C129.27400002980232,20.9252 129.69300002980233,21.3632 130.25000002980232,21.3632 C130.4980000298023,21.3632 130.74600002980233,21.2482 130.95500002980233,21.1402 L131.42200002980232,22.0232 zM131.90400002980232,18.4162 H132.49500002980233 L132.49000002980233,17.1042 H133.7530000298023 L133.72200002980233,18.4162 H134.79600002980231 L134.77400002980232,19.3832 H133.7000000298023 C133.7000000298023,19.9202 133.66100002980232,20.4882 133.66100002980232,20.8182 C133.66100002980232,21.1562 133.74500002980233,21.3172 134.03800002980233,21.3172 C134.2180000298023,21.3172 134.36900002980232,21.2252 134.51700002980232,21.1332 L134.80400002980232,22.0382 C134.41500002980231,22.2818 133.96900002980232,22.4144 133.51200002980232,22.4222 C132.45300002980233,22.4222 132.40000002980233,21.7392 132.40000002980233,20.8492 C132.40000002980233,20.3732 132.4380000298023,19.8972 132.4380000298023,19.3832 H131.87500002980232 L131.90400002980232,18.4162 zM135.46600002980233,18.4162 H136.7710000298023 V18.9612 H136.78800002980233 C136.98200002980232,18.6312 137.23800002980232,18.3092 137.74900002980232,18.3092 C137.89200002980232,18.3092 138.04100002980232,18.3242 138.17800002980232,18.3542 L138.0030000298023,19.6742 C137.85300002980233,19.6249 137.69600002980232,19.5993 137.53700002980233,19.5982 C137.10200002980233,19.5982 136.76400002980233,19.9742 136.76400002980233,20.0512 L136.74300002980232,22.2842 H135.43400002980232 L135.46600002980233,18.4162 zM140.54400002980233,21.4092 C141.16700002980232,21.4092 141.35400002980234,20.8562 141.35400002980234,20.3492 C141.35400002980234,19.8442 141.16700002980232,19.2912 140.54400002980233,19.2912 C139.9200000298023,19.2912 139.73300002980233,19.8442 139.73300002980233,20.3492 C139.73300002980233,20.8562 139.9200000298023,21.4092 140.54400002980233,21.4092 zM140.54400002980233,18.2782 C141.94000002980232,18.2782 142.66200002980233,19.1832 142.66200002980233,20.3482 C142.66200002980233,21.5162 141.94000002980232,22.4222 140.54400002980233,22.4222 C139.1460000298023,22.4222 138.42500002980233,21.5162 138.42500002980233,20.3492 C138.42500002980233,19.1832 139.1460000298023,18.2782 140.54400002980233,18.2782 zM143.37200002980234,18.4162 H144.67900002980232 V18.8382 C144.9800000298023,18.5382 145.43700002980233,18.2782 145.9020000298023,18.2782 C146.70700002980232,18.2782 147.14300002980232,18.7302 147.14300002980232,19.7902 C147.14300002980232,20.5802 147.1350000298023,21.4322 147.12700002980233,22.2842 H145.82100002980232 C145.82900002980233,21.5392 145.8370000298023,20.7872 145.8370000298023,19.9892 C145.8370000298023,19.6752 145.7530000298023,19.4292 145.36200002980232,19.4292 C145.15100002980233,19.4292 144.85200002980233,19.6132 144.67900002980232,19.7822 L144.67200002980232,22.2842 H143.34100002980233 L143.37200002980234,18.4162 zM127.70100002980232,10.4482 L129.35200002980233,4.88616 H130.8250000298023 L129.17500002980233,10.4482 H127.70100002980232 zM127.04200002980232,4.88716 L125.71700002980232,7.24516 C125.38000002980232,7.86316 125.18300002980233,8.17516 125.08800002980232,8.56516 H125.06800002980232 C125.09100002980232,8.07016 125.02300002980232,7.46316 125.01700002980232,7.11916 L124.87100002980232,4.88716 H122.39200002980232 L122.36500002980232,5.03716 C123.00200002980232,5.03716 123.38000002980232,5.36416 123.48400002980232,6.03316 L123.96700002980232,10.4482 H125.49400002980232 L128.58000002980233,4.88816 H127.04300002980233 L127.04200002980232,4.88716 zM138.33000002980233,7.16716 C138.3130000298023,6.75716 138.3010000298023,6.19816 138.32700002980232,5.8601600000000005 H138.30600002980233 C138.21600002980233,6.13716 137.83000002980233,6.96516 137.66100002980232,7.37416 L137.11300002980232,8.59216 L138.40500002980232,8.59316 L138.33000002980233,7.16716 zM138.49900002980232,10.4482 L138.45900002980233,9.62118 H136.61900002980232 L136.24300002980232,10.4482 H134.64300002980232 L137.54300002980233,4.89616 H139.50700002980233 L139.9980000298023,10.4482 H138.49900002980232 zM132.37200002980234,10.6072 C131.5870000298023,10.6155 130.81600002980232,10.3938 130.15000002980233,9.96818 L130.85000002980232,8.87416 C131.29300002980233,9.12718 131.6400000298023,9.41918 132.43900002980232,9.41918 C132.69600002980232,9.41918 132.9440000298023,9.35018 133.08500002980233,9.10118 C133.29000002980231,8.74016 133.03800002980233,8.54416 132.4620000298023,8.21116 L132.17800002980232,8.02316 C131.3250000298023,7.42716 130.9560000298023,6.86216 131.35700002980232,5.87416 C131.61500002980233,5.24216 132.29200002980232,4.76416 133.41000002980232,4.76416 C134.1820000298023,4.76416 134.90400002980232,5.10416 135.32600002980232,5.43716 L134.51800002980232,6.40416 C134.10700002980232,6.06516 133.76700002980232,5.89316 133.37600002980233,5.89316 C133.06600002980232,5.89316 132.83000002980233,6.01516 132.7480000298023,6.18016 C132.59500002980232,6.49116 132.79800002980232,6.7031600000000005 133.24700002980234,6.98716 L133.58400002980233,7.20716 C134.62100002980233,7.87516 134.8670000298023,8.57416 134.60600002980232,9.22918 C134.16000002980232,10.3552 133.28600002980232,10.6072 132.37200002980234,10.6072 z" fill="white" id="svg_14"/>
    </g><g filter="url(#filter7_d)" id="svg_15" class="">
    <path d="M40.093000029802326,25.9428 C40.093000029802326,26.5852 39.84330002980232,27.2012 39.398800029802324,27.6554 C38.954300029802326,28.1096 38.35140002980232,28.3648 37.722700029802326,28.3648 H2.3703300298023224 C1.7416800298023225,28.3648 1.1387800298023225,28.1096 0.6942540298023225,27.6554 C0.24973102980232242,27.2012 2.318573223876953e-7,26.5852 2.318573223876953e-7,25.9428 V2.5348100000000002 C-0.00012832219767761237,2.21667 0.061087229802322396,1.90161 0.1801500298023224,1.60765 C0.2992130298023224,1.3136800000000002 0.4737900298023224,1.04656 0.6939080298023226,0.821553 C0.9140260298023224,0.596543 1.1753700298023224,0.418053 1.4630200298023224,0.296273 C1.7506600298023225,0.17449300000000004 2.0589700298023224,0.11181600000000001 2.3703300298023224,0.11181600000000001 H37.722700029802326 C38.35140002980232,0.11181600000000001 38.954300029802326,0.366993 39.398800029802324,0.821203 C39.84330002980232,1.27541 40.093000029802326,1.89146 40.093000029802326,2.53381 V25.9438 V25.9428 z" fill="white" id="svg_16"/>
    </g><g filter="url(#filter8_d)" id="svg_17" class="">
    <path d="M10.537100029802323,14.3198 L9.747340029802322,10.4498 C9.613260029802323,9.91679 9.220820029802322,9.75779 8.729530029802323,9.736790000000001 H5.111400029802322 L5.079100029802323,9.91279 C7.8976600298023225,10.6108 9.762020029802322,12.2958 10.537100029802323,14.3188 " fill="#F79F1A" id="svg_18"/>
    </g><g filter="url(#filter9_d)" id="svg_19" class="">
    <path d="M18.92270002980232,9.81469 H16.583700029802323 L15.124500029802322,18.5717 H17.458600029802323 L18.92270002980232,9.81469 zM11.962400029802323,18.5627 L15.640300029802322,9.82069 H13.164300029802323 L10.878100029802322,15.7927 L10.633400029802322,14.8917 C10.185200029802322,13.8067 8.904110029802322,12.2457 7.398930029802322,11.2617 L9.490340029802322,18.5657 L11.962400029802323,18.5627 zM25.591400029802323,15.7087 C25.600200029802323,14.7147 24.975800029802322,13.9557 23.629100029802323,13.3297 C22.811000029802322,12.9247 22.311800029802324,12.6547 22.318700029802322,12.2447 C22.318700029802322,11.8827 22.740500029802323,11.4927 23.655600029802322,11.4927 C24.254500029802323,11.4787 24.84950002980232,11.5927 25.403500029802323,11.8277 L25.61480002980232,11.9277 L25.93190002980232,10.0297 C25.260200029802323,9.78339 24.551300029802324,9.65989 23.837600029802324,9.66469 C21.529900029802324,9.66469 19.90430002980232,10.851700000000001 19.889600029802324,12.5547 C19.875000029802322,13.8127 21.051300029802324,14.5147 21.937000029802324,14.9347 C22.846200029802322,15.3597 23.15150002980232,15.6347 23.144700029802323,16.0177 C23.139800029802323,16.6047 22.420500029802323,16.8717 21.74910002980232,16.8717 C20.813500029802324,16.8717 20.318300029802323,16.7397 19.54910002980232,16.4127 L19.25060002980232,16.2727 L18.92270002980232,18.2347 C19.467800029802323,18.4787 20.47590002980232,18.6907 21.523000029802322,18.6997 C23.978500029802323,18.6997 25.57370002980232,17.5277 25.591400029802323,15.7097 V15.7087 zM29.96990002980232,13.0177 C29.958200029802324,13.0417 30.16370002980232,12.5117 30.280200029802323,12.1817 L30.438700029802323,12.9377 L30.978900029802322,15.4667 H29.041200029802322 C29.234000029802324,14.9627 29.970900029802323,13.0167 29.970900029802323,13.0167 L29.96990002980232,13.0177 zM28.368800029802323,17.2587 L31.359600029802323,17.2617 C31.430100029802322,17.5667 31.644400029802323,18.5747 31.644400029802323,18.5747 H33.81220002980232 L31.920400029802323,9.82269 H30.116700029802324 C29.555900029802324,9.82269 29.140000029802323,9.97869 28.893400029802322,10.5477 L25.424000029802322,18.5737 H27.87850002980232 C27.87850002980232,18.5737 28.27780002980232,17.4937 28.368800029802323,17.2577 V17.2587 z" fill="#005A9B" id="svg_20"/>
    </g><g filter="url(#filter10_d)" id="svg_21" class="">
    <path d="M37.57100002980232,0.11279300000000003 H2.3615200298023225 C2.0512900298023222,0.11266200000000003 1.7440600298023226,0.175023 1.4574300298023224,0.29630300000000004 C1.1707900298023224,0.41758300000000004 0.9103680298023223,0.595403 0.6910420298023225,0.8196030000000001 C0.4717160298023224,1.0438 0.2977920298023224,1.3099800000000001 0.17921802980232243,1.60291 C0.0606434298023224,1.8958500000000003 -0.00025643119767761245,2.20979 8.415463223876953e-7,2.52679 V5.02979 H39.93250002980232 V2.52579 C39.93270002980232,2.20887 39.87170002980232,1.8950400000000003 39.75300002980232,1.60222 C39.63440002980232,1.3094000000000001 39.460500029802326,1.04334 39.241100029802325,0.819253 C39.02180002980232,0.595153 38.76150002980232,0.41742300000000004 38.47490002980232,0.296203 C38.18830002980232,0.17498300000000003 37.88120002980232,0.11266200000000003 37.57100002980232,0.11279300000000003 z" fill="#005A9B" id="svg_22"/>
    </g><g filter="url(#filter11_d)" id="svg_23" class="">
    <path d="M37.57100002980232,28.2529 H2.3615200298023225 C2.0514500298023224,28.253 1.7443900298023225,28.1907 1.4578800298023225,28.0696 C1.1713700298023224,27.9484 0.9110340298023224,27.7708 0.6917330298023225,27.5468 C0.4724330298023224,27.3228 0.2984690298023224,27.0569 0.1797790298023224,26.7642 C0.0610897298023224,26.4715 3.1534223876953087e-9,26.1577 2.9802322387695312e-8,25.8409 V23.3379 H39.93250002980232 V25.8409 C39.93250002980232,26.1577 39.871400029802324,26.4715 39.75280002980232,26.7642 C39.634100029802326,27.0569 39.46010002980232,27.3228 39.24080002980232,27.5468 C39.021500029802326,27.7708 38.761200029802325,27.9484 38.47470002980232,28.0696 C38.18810002980232,28.1907 37.881100029802326,28.253 37.57100002980232,28.2529 z" fill="#F79F1A" id="svg_24"/>
    </g></g></svg>