<svg xmlns="http://www.w3.org/2000/svg" viewBox="0 0 308.98 137.26">
  <g id="Livello_2" data-name="Livello 2">
    <g id="Livello_1-2" data-name="Livello 1">
      <g>
        <g>
          <g>
            <path d="M72.89,11.15,57,69.23H47.76L36.53,27,25.13,69.23H15.89L0,11.15H9.15L20.47,53.34l11.4-42.19h9.07L52.42,53.34,63.74,11.15Z" fill="#231f20"/>
            <path d="M77.13,11.32l9.15-.75V24.8l-.16,5.32h.33a31.79,31.79,0,0,1,11.82-2.33c7.4,0,12.39,3.33,12.39,16.06V69.23h-9.15V44.6c0-7.66-3.74-8.65-8-8.65a25.59,25.59,0,0,0-7.24,1.24v32H77.13Z" fill="#231f20"/>
            <path d="M123.23,11.9c4.74,0,5.49,2.74,5.49,5.82s-1,5.91-5.49,5.91-5.41-2.83-5.41-5.91S118.65,11.9,123.23,11.9Zm-4.58,16.47h9.15V69.23h-9.15Z" fill="#231f20"/>
            <path d="M135.54,28.37h6.24L143,31.7h.58a17.1,17.1,0,0,1,11.24-3.91,16,16,0,0,1,1.91.08v9a34.83,34.83,0,0,0-5.16-.5A15.82,15.82,0,0,0,144.69,38v31.2h-9.15Z" fill="#231f20"/>
            <path d="M160.67,69.23V11.32l9.15-.75V69.23Z" fill="#231f20"/>
          </g>
          <path d="M234.89,27.79c13,0,18,7.66,18,21.22,0,12.73-4.66,21.05-18.14,21.05S216.5,61.74,216.5,49C216.5,35.45,221.91,27.79,234.89,27.79ZM243.54,49c0-7.74-1.25-14.06-8.57-14.06S225.73,41,225.73,49c0,7.4,1.5,13.81,8.82,13.81S243.54,56.75,243.54,49Z" fill="#231f20"/>
          <path d="M275.93,27.79c13,0,18,7.66,18,21.22,0,12.73-4.66,21.05-18.14,21.05S257.54,61.74,257.54,49C257.54,35.45,263,27.79,275.93,27.79ZM284.58,49c0-7.74-1.25-14.06-8.57-14.06S266.78,41,266.78,49c0,7.4,1.49,13.81,8.82,13.81S284.58,56.75,284.58,49Z" fill="#231f20"/>
          <path d="M299.83,69.23V11.32l9.15-.75V69.23Z" fill="#231f20"/>
          <path d="M177.31,28.37h6.91l.74,3c2.75-1.5,7.82-3.58,12.4-3.58,8.32,0,14.4,6.07,14.4,20.64,0,14.31-6.41,21.38-17.06,21.38a51,51,0,0,1-8.24-.83V87.7l-9.15,1Zm9.15,33.29c2.58.08,4,.16,6.66.16,5.66,0,9.4-3,9.4-14.89,0-8.16-3.33-10.32-9.32-10.32a20.87,20.87,0,0,0-6.74,1.17Z" fill="#231f20"/>
          <path d="M222.62,3.27c-6.84-7.93-28.56-1-52.8,15.81v4.23C191.17,8.14,210,1.14,215.37,7.38c6.73,7.8-10,33.3-37.39,56.93s-55,36.45-61.77,28.65c-3.5-4-.65-12.88,6.72-23.73h-4.28c-9.13,13.61-12.55,25-7.87,30.48,8.55,9.91,40.51-3.64,71.39-30.28S231.17,13.17,222.62,3.27Z" fill="#fec00f"/>
        </g>
        <g>
          <path d="M8.77,133.25a9.18,9.18,0,0,0,4.06,1c1.68,0,2.56-.69,2.56-1.75s-.76-1.58-2.71-2.26c-2.69-1-4.46-2.44-4.46-4.8,0-2.76,2.33-4.85,6.12-4.85a9.4,9.4,0,0,1,4.13.82l-.82,2.93a7.57,7.57,0,0,0-3.36-.77c-1.58,0-2.35.74-2.35,1.56,0,1,.89,1.49,3,2.28,2.85,1.06,4.17,2.55,4.17,4.83,0,2.71-2.06,5-6.5,5a10.51,10.51,0,0,1-4.59-1Z" fill="#231f20"/>
          <path d="M32.67,130.18h-6V134h6.65v3H23.07V120.84H33v3H26.72v3.37h6Z" fill="#231f20"/>
          <path d="M37.3,137V120.84h4.28l3.36,5.93a52.25,52.25,0,0,1,2.64,5.55h.05a65.64,65.64,0,0,1-.29-6.77v-4.71H50.7V137H46.86l-3.46-6.24a55,55,0,0,1-2.81-5.71H40.5c.12,2.16.17,4.44.17,7.08V137Z" fill="#231f20"/>
          <path d="M55.42,133.25a9.18,9.18,0,0,0,4.06,1c1.68,0,2.57-.69,2.57-1.75s-.77-1.58-2.71-2.26c-2.69-1-4.47-2.44-4.47-4.8,0-2.76,2.33-4.85,6.12-4.85a9.4,9.4,0,0,1,4.13.82l-.81,2.93a7.66,7.66,0,0,0-3.37-.77c-1.58,0-2.35.74-2.35,1.56,0,1,.89,1.49,3,2.28,2.86,1.06,4.18,2.55,4.18,4.83,0,2.71-2.06,5-6.51,5a10.46,10.46,0,0,1-4.58-1Z" fill="#231f20"/>
          <path d="M73.38,120.84V137H69.73V120.84Z" fill="#231f20"/>
          <path d="M78,137V120.84h4.28l3.36,5.93a52.25,52.25,0,0,1,2.64,5.55h0c-.21-2.14-.28-4.32-.28-6.77v-4.71h3.36V137H87.54l-3.46-6.24a55,55,0,0,1-2.81-5.71h-.09c.12,2.16.16,4.44.16,7.08V137Z" fill="#231f20"/>
          <path d="M109.5,136.28a18.29,18.29,0,0,1-5.4.91c-3,0-5.09-.74-6.58-2.16a8.13,8.13,0,0,1-2.28-5.9c0-5.38,3.94-8.45,9.24-8.45a11.71,11.71,0,0,1,4.49.76l-.77,3a8.45,8.45,0,0,0-3.74-.7c-3,0-5.38,1.7-5.38,5.23,0,3.36,2.11,5.31,5.11,5.31A5.6,5.6,0,0,0,106,134v-3.41h-2.5v-2.85h6Z" fill="#231f20"/>
          <path d="M121.81,137,118,120.84h3.91l1.22,6.65c.36,2,.7,4,1,5.67h0c.27-1.75.65-3.7,1.06-5.71l1.37-6.61h3.88l1.3,6.82c.36,1.9.62,3.63.86,5.43h0c.24-1.8.6-3.7.94-5.64l1.32-6.61h3.72L134.43,137h-4l-1.37-7c-.31-1.63-.57-3.14-.76-5h-.05c-.29,1.82-.55,3.36-.94,5l-1.53,7Z" fill="#231f20"/>
          <path d="M145.62,120.84v6.22h6v-6.22h3.65V137h-3.65v-6.77h-6V137H142V120.84Z" fill="#231f20"/>
          <path d="M163.69,132.87,162.54,137h-3.77l4.92-16.18h4.8l5,16.18h-4l-1.25-4.15Zm4.1-2.74-1-3.43c-.28-1-.57-2.16-.81-3.12h-.05c-.24,1-.48,2.19-.74,3.12l-1,3.43Z" fill="#231f20"/>
          <path d="M178.26,123.92h-4.37v-3.08h12.43v3.08H181.9V137h-3.64Z" fill="#231f20"/>
          <path d="M209.67,130.83c-.07-1.94-.14-4.3-.14-6.65h-.05c-.53,2.07-1.2,4.37-1.82,6.27l-2,6.31h-2.86l-1.73-6.24c-.52-1.92-1-4.23-1.46-6.34h0c-.07,2.19-.17,4.68-.26,6.7L199,137h-3.39l1-16.18h4.88l1.58,5.41c.53,1.87,1,3.88,1.37,5.78h.09c.44-1.87,1-4,1.54-5.81l1.7-5.38h4.8l.87,16.18h-3.55Z" fill="#231f20"/>
          <path d="M221.43,132.87,220.28,137h-3.77l4.92-16.18h4.8l5,16.18h-4l-1.25-4.15Zm4.11-2.74-1-3.43c-.29-1-.58-2.16-.82-3.12h-.05c-.24,1-.48,2.19-.74,3.12l-1,3.43Z" fill="#231f20"/>
          <path d="M236,123.92h-4.37v-3.08h12.43v3.08h-4.41V137H236Z" fill="#231f20"/>
          <path d="M251.12,123.92h-4.37v-3.08h12.43v3.08h-4.41V137h-3.65Z" fill="#231f20"/>
          <path d="M272.19,130.18h-5.95V134h6.65v3h-10.3V120.84h10v3h-6.31v3.37h5.95Z" fill="#231f20"/>
          <path d="M276.82,121.06a32.17,32.17,0,0,1,4.87-.34c2.4,0,4.08.36,5.24,1.28a4.1,4.1,0,0,1,1.51,3.4,4.3,4.3,0,0,1-2.86,4v.07c1.13.45,1.75,1.51,2.16,3,.51,1.85,1,4,1.3,4.58h-3.75a22,22,0,0,1-1.1-3.77c-.46-2-1.15-2.56-2.66-2.59h-1.08V137h-3.63Zm3.63,7h1.44c1.82,0,2.9-.91,2.9-2.33s-1-2.23-2.69-2.23a7.29,7.29,0,0,0-1.65.12Z" fill="#231f20"/>
          <path d="M292.61,133.25a9.18,9.18,0,0,0,4.06,1c1.68,0,2.57-.69,2.57-1.75s-.77-1.58-2.71-2.26c-2.69-1-4.47-2.44-4.47-4.8,0-2.76,2.33-4.85,6.12-4.85a9.4,9.4,0,0,1,4.13.82l-.82,2.93a7.57,7.57,0,0,0-3.36-.77c-1.58,0-2.35.74-2.35,1.56,0,1,.89,1.49,3,2.28,2.86,1.06,4.18,2.55,4.18,4.83,0,2.71-2.07,5-6.51,5a10.46,10.46,0,0,1-4.58-1Z" fill="#231f20"/>
        </g>
      </g>
    </g>
  </g>
</svg>
