<svg width="2.25rem" height="2.25rem" viewBox="0 0 38 38" fill="none" xmlns="http://www.w3.org/2000/svg">
<path fill-rule="evenodd" clip-rule="evenodd" d="M1 18.715C1 28.705 9.06 36.805 19 36.805C28.942 36.805 37 28.705 37 18.715C37 8.724 28.942 0.625 19 0.625C9.06 0.625 1 8.724 1 18.715Z" stroke="#AEAEAE"/>
<path fill-rule="evenodd" clip-rule="evenodd" d="M18 20.725V15.7L22 18.221L18 20.725ZM26.84 15.286C26.84 15.286 26.683 14.105 26.204 13.585C25.596 12.901 24.914 12.898 24.601 12.859C22.362 12.685 19.003 12.685 19.003 12.685H18.997C18.997 12.685 15.638 12.685 13.399 12.859C13.086 12.899 12.405 12.901 11.796 13.585C11.316 14.105 11.16 15.286 11.16 15.286C11.16 15.286 11 16.674 11 18.062V19.362C11 20.75 11.16 22.138 11.16 22.138C11.16 22.138 11.316 23.319 11.796 23.839C12.405 24.523 13.204 24.501 13.56 24.572C14.84 24.704 19 24.745 19 24.745C19 24.745 22.362 24.74 24.601 24.566C24.914 24.526 25.596 24.523 26.204 23.839C26.684 23.319 26.84 22.138 26.84 22.138C26.84 22.138 27 20.75 27 19.363V18.062C27 16.674 26.84 15.286 26.84 15.286Z" fill="#AEAEAE"/>
</svg>
