<svg width="32" height="40" viewBox="0 0 32 40" fill="none" xmlns="http://www.w3.org/2000/svg">
<path d="M30 2V38H2V2H30ZM30 0H2C0.9 0 0 0.9 0 2V38C0 39.1 0.9 40 2 40H30C31.1 40 32 39.1 32 38V2C32 0.9 31.1 0 30 0Z" fill="#EDAC09"/>
<path opacity="0.5" d="M26.5 6.5L23.5 8.5H8.5L5.5 6.5" stroke="#EDAC09" stroke-miterlimit="3.864" stroke-linecap="round" stroke-linejoin="round"/>
<path d="M0.5 6.5H31.5" stroke="#EDAC09" stroke-miterlimit="3.864" stroke-linecap="round" stroke-linejoin="round"/>
<path d="M16 5C16.5523 5 17 4.55228 17 4C17 3.44772 16.5523 3 16 3C15.4477 3 15 3.44772 15 4C15 4.55228 15.4477 5 16 5Z" fill="#EDAC09"/>
<path d="M0.5 34.5H31.5" stroke="#EDAC09" stroke-miterlimit="3.864" stroke-linecap="round" stroke-linejoin="round"/>
</svg>
