<svg xmlns="http://www.w3.org/2000/svg"
  xmlns:xlink="http://www.w3.org/1999/xlink" width="79" height="52" viewBox="0 0 79 52">
  <defs>
    <path id="mgsk5wt2na" d="M0 0.713L30.009 0.713 30.009 6 0 6z"></path>
  </defs>
  <g fill="none" fill-rule="evenodd">
    <g>
      <g>
        <g>
          <g>
            <g>
              <path fill="#F58B3C" d="M42.408 28.188c.315.317.688.571 1.1.758l.006.002c.436.19.919.283 1.435.283.51 0 .997-.093 1.434-.283h.004c.42-.189.795-.444 1.102-.773v.002c.307-.328.544-.698.714-1.116l.007-.015c.153-.422.24-.869.24-1.341v-.025c0-.455-.087-.898-.24-1.32l-.007-.014c-.17-.417-.405-.799-.723-1.125l-.004-.004c-.313-.314-.687-.565-1.108-.749l.005.003c-.44-.199-.924-.29-1.424-.29-.516 0-1.003.091-1.45.299l.195.418-.182-.423c-.437.187-.81.451-1.115.779-.301.319-.542.698-.71 1.122v.003c-.161.423-.243.868-.241 1.326v.026c-.002.467.08.913.24 1.335v.006c.17.422.413.796.718 1.112.177.182.47.189.653.011.185-.175.19-.469.016-.653-.225-.232-.4-.499-.522-.81l-.43.168.432-.163c-.124-.318-.184-.643-.184-1.006v-.026c0-.35.06-.676.184-.996v.004c.123-.317.3-.592.517-.825.226-.241.484-.423.81-.565l.01-.005c.304-.142.649-.213 1.059-.213.385 0 .74.071 1.046.21H46c.32.141.594.327.822.556l.325-.327-.328.323c.224.231.395.504.528.829l.427-.174-.433.16c.12.327.18.658.186.998v.025c-.005.363-.066.691-.186 1.02l.433.16-.427-.176c-.133.325-.3.587-.532.833v.002c-.215.231-.478.413-.803.559l.003-.002c-.312.135-.668.204-1.066.204-.405 0-.758-.069-1.063-.204l-.19.423.192-.421c-.32-.144-.59-.331-.822-.566-.18-.181-.472-.183-.653-.001-.182.178-.182.471-.002.652h-.003zM57.407 26.867l.313.341 1.111-1.029 2.501 2.76c.088.096.212.153.342.153h.309c.183 0 .349-.11.424-.277.072-.168.039-.364-.084-.499l-2.666-2.922 2.453-2.269c.137-.13.184-.332.114-.509-.067-.177-.241-.295-.429-.295h-.332c-.117 0-.232.046-.315.128l-3.279 3.065v-5.418c0-.123-.048-.24-.138-.326-.083-.087-.203-.137-.324-.137h-.257c-.121 0-.241.05-.325.137-.087.086-.136.203-.136.326v8.532c0 .121.049.241.136.326.084.086.204.138.325.138h.257c.121 0 .241-.052.324-.138.09-.085.138-.205.138-.326v-1.76h-.462l.313.34-.313-.34h-.464v1.76h.464v-.463h-.257v.463h.462v-8.532h-.462v.463h.257v-.463h-.464v6.486c0 .184.11.35.277.423.17.073.369.041.503-.087l3.922-3.67h.15v-.464l-.316-.338-2.784 2.58c-.185.171-.2.463-.027.65l2.973 3.263.342-.31v-.464h-.104l-2.676-2.953c-.083-.09-.198-.145-.322-.15-.121-.007-.245.037-.335.122l-1.452 1.345c-.096.086-.151.211-.151.338h.464zM34.405 27.852c.396.418.87.76 1.412 1.007.55.244 1.148.374 1.786.374.387 0 .759-.045 1.106-.13l.04-.01.865-.296.091-.045.728-.45.068-.05.591-.532c.095-.086.15-.207.153-.337.002-.13-.054-.254-.148-.341l-.184-.174c-.175-.17-.451-.171-.63-.006l-.519.48-.607.372-.765.278.159.434-.117-.448c-.246.064-.513.095-.818.095-.48-.002-.91-.093-1.307-.276l.002.003c-.407-.194-.75-.445-1.038-.761-.291-.323-.525-.692-.694-1.125-.168-.432-.253-.88-.253-1.364v-.023c0-.485.081-.933.247-1.358.171-.432.398-.803.689-1.13l-.343-.306.34.312c.294-.324.638-.576 1.046-.761l.006-.003c.388-.184.817-.28 1.305-.282.341 0 .626.033.864.097l.12-.45-.153.435.743.263.564.35.503.433c.18.159.459.147.627-.024l.175-.174c.091-.092.143-.216.136-.345-.004-.126-.061-.247-.158-.332l-.585-.504-.056-.045-.675-.42-.099-.045-.826-.274-.049-.013c-.337-.073-.712-.103-1.122-.103-.637 0-1.248.118-1.804.38l.196.419-.191-.421c-.55.25-1.025.59-1.426 1.02-.4.43-.714.934-.93 1.493-.219.566-.33 1.174-.33 1.803v.02c0 .63.111 1.233.331 1.798l.432-.167-.434.163c.217.57.535 1.07.931 1.493.175.186.468.196.653.022.187-.177.198-.467.022-.654-.318-.34-.566-.732-.74-1.19l-.002-.003c-.178-.46-.268-.938-.268-1.462v-.02c0-.524.09-1.012.268-1.47.176-.452.426-.852.742-1.195.321-.342.69-.606 1.135-.81l.002-.002c.422-.196.891-.295 1.413-.295.361 0 .671.03.926.085l.099-.451-.144.438.774.256.596.37.556.48.301-.346-.326-.327-.176.175.327.327.304-.35-.532-.454-.058-.04-.636-.401-.092-.045-.79-.275-.037-.01c-.345-.094-.708-.124-1.101-.124-.61-.003-1.186.12-1.704.368l.199.417-.193-.42c-.516.235-.964.565-1.342.978l-.003.005c-.366.408-.651.878-.857 1.4-.216.546-.315 1.115-.315 1.7v.024c0 .597.107 1.162.317 1.698.209.54.506 1.01.873 1.409.368.41.816.739 1.327.98h.005c.523.24 1.094.36 1.693.36.365 0 .719-.036 1.049-.122l.044-.013.807-.295.086-.04.681-.422.071-.052.555-.51-.315-.34-.317.335.185.175.319-.336-.311-.343-.558.504-.649.402-.812.278.149.436-.108-.45c-.269.068-.571.102-.889.102-.519 0-.974-.1-1.41-.291h.003c-.428-.191-.8-.464-1.125-.803-.176-.183-.469-.191-.651-.015-.185.177-.192.47-.015.655M49.822 28.184c.313.323.686.574 1.092.762l.011.002c.437.19.919.284 1.433.284.511 0 .994-.093 1.438-.28l.005-.005c.418-.188.792-.442 1.102-.766l.009-.01c.296-.323.537-.692.701-1.118.165-.43.248-.88.248-1.348v-.025c0-.451-.083-.898-.248-1.326-.164-.424-.405-.807-.728-1.134-.306-.313-.677-.568-1.111-.754l-.182.426.191-.42c-.441-.2-.923-.29-1.425-.29-.512 0-1.001.09-1.448.297l.192.42-.186-.422c-.422.186-.798.446-1.108.774l-.002.003c-.3.319-.539.7-.701 1.126v-.004c-.166.425-.248.87-.246 1.329v.026c-.002.468.08.916.246 1.34v-.002c.162.425.407.802.724 1.119.18.182.471.184.652.004.181-.18.184-.473.002-.655-.227-.23-.396-.49-.515-.8v-.001c-.126-.32-.186-.642-.186-1.005v-.026c0-.351.06-.673.186-.991v-.005c.121-.314.293-.59.511-.823l-.001.005c.226-.24.492-.426.815-.57l.005-.003c.308-.14.659-.213 1.06-.213.388 0 .741.074 1.044.208l.008.005c.329.139.593.323.815.55.234.233.401.5.525.822.125.319.183.65.183.99v.025c0 .364-.058.69-.183 1.012-.12.317-.291.582-.52.83l.344.313-.335-.32c-.228.235-.494.419-.813.563l.188.42-.183-.422c-.322.135-.671.205-1.073.205-.397 0-.757-.07-1.065-.205l-.184.422.194-.418c-.321-.146-.594-.332-.815-.563-.178-.183-.469-.188-.652-.012-.182.177-.189.47-.014.654M4.9.745c.014.016 1.362 2.303 3.55 4.607 1.091 1.155 2.397 2.312 3.863 3.193 1.466.88 3.1 1.48 4.838 1.48 2.812.004 4.826-1.189 6.103-2.373 1.281-1.183 1.854-2.353 1.872-2.388.062-.128.066-.272.014-.404-.022-.046-.492-1.19-1.782-2.339C22.07 1.371 19.95.235 16.752.24c-3.276.012-6.205 2.121-8.34 4.172C6.272 6.47 4.926 8.512 4.913 8.53c-.149.23-.087.535.14.684.228.152.533.088.683-.14l.057-.085c.291-.423 1.687-2.393 3.694-4.236 2.006-1.85 4.618-3.534 7.264-3.526 2.965.002 4.812 1.024 5.95 2.033.568.503.954 1.006 1.194 1.382.121.187.206.341.26.446l.056.117.012.028v.002l.457-.187-.443-.217-.002.007c-.047.096-.609 1.164-1.76 2.19-1.157 1.027-2.878 2.012-5.325 2.013-1.506 0-2.969-.526-4.33-1.34C10.78 6.475 9 4.608 7.74 3.045c-.629-.782-1.13-1.486-1.47-1.995-.17-.25-.303-.456-.39-.597l-.13-.21C5.612.008 5.31-.07 5.075.07 4.84.205 4.762.51 4.9.745" transform="translate(-336 -4500) translate(-1 816) translate(252 2085) translate(82 1441) translate(3 158)"></path>
              <path fill="#F58B3C" d="M20.186 5.047c.486 0 .878-.394.878-.878 0-.488-.392-.879-.878-.879-.485 0-.878.391-.878.88 0 .483.393.877.878.877M0 7.46v4.227c0 .139.055.277.155.373.098.098.236.159.376.159h28.946c.14 0 .276-.06.376-.159.1-.097.156-.235.156-.373V7.46c0-.295-.239-.532-.532-.532-.293 0-.53.237-.53.532v3.696H1.061V7.46c0-.293-.24-.53-.53-.53-.295 0-.532.236-.532.53M0 21.23v4.229c0 .139.055.276.155.373.098.1.236.156.376.156h28.946c.14 0 .276-.056.376-.155.1-.098.156-.235.156-.374V21.23c0-.293-.239-.53-.532-.53-.293 0-.53.238-.53.53v3.697H1.061V21.23c0-.293-.24-.53-.53-.53-.295 0-.532.238-.532.53" transform="translate(-336 -4500) translate(-1 816) translate(252 2085) translate(82 1441) translate(3 158)"></path>
              <path fill="#F58B3C" d="M21.358 18.358c1.106 1.087 1.692 2.368 1.996 3.385.152.51.235.946.28 1.255.02.155.034.277.039.358l.009.09v.022l.53-.017v-.53H4.525v.53l.529.014v-.01c.008-.18.144-2.076 1.378-3.874 1.24-1.792 3.519-3.552 8.11-3.564.205 0 .41.002.623.012 1.522.051 2.438.21 3.43.604.274.11.583-.02.692-.292.11-.272-.021-.582-.294-.69-1.128-.457-2.22-.633-3.791-.684-.225-.008-.446-.013-.66-.013-2.513 0-4.452.514-5.936 1.308-2.228 1.19-3.393 2.991-3.982 4.471-.592 1.483-.63 2.66-.631 2.701-.006.144.049.281.149.384.1.105.237.163.383.163h19.687c.145 0 .283-.058.383-.163.1-.103.152-.243.147-.387-.008-.055-.1-3.318-2.638-5.83-.21-.206-.546-.202-.751.007-.203.211-.203.547.005.75" transform="translate(-336 -4500) translate(-1 816) translate(252 2085) translate(82 1441) translate(3 158)"></path>
              <path fill="#F58B3C" d="M13.74 18.9l8.103-3.088c.111-.042.21-.122.268-.228l.01-.016c.056-.094.36-.577.766-1.01.203-.215.428-.42.645-.557.221-.138.424-.204.582-.202.114 0 .217.025.35.107.13.083.288.234.456.492.19.299.238.507.238.648-.003.186-.072.32-.28.499-.305.259-.889.47-1.38.579-.248.058-.474.095-.634.119l-.19.023-.063.006c-.105.009-.21.052-.29.119l-6.27 5.189c-.228.187-.26.522-.071.747.186.225.521.259.747.07l6.268-5.185-.338-.41.044.529c.023-.004.808-.065 1.64-.34.416-.14.85-.331 1.212-.63.363-.29.672-.75.669-1.315 0-.4-.144-.806-.41-1.22-.23-.355-.486-.626-.777-.813-.288-.19-.611-.28-.92-.277-.462.003-.867.182-1.21.41-1.02.687-1.684 1.876-1.709 1.904l.457.267-.186-.496-8.105 3.09c-.274.103-.41.409-.306.685.103.274.41.41.684.307V18.9zM0 33.804v4.229c0 .142.055.275.155.375.098.1.236.155.376.155h28.946c.14 0 .276-.054.376-.155.1-.1.156-.233.156-.375v-4.23c0-.291-.239-.527-.532-.527-.293 0-.53.236-.53.528v3.698H1.061v-3.698c0-.292-.24-.528-.53-.528-.295 0-.532.236-.532.528" transform="translate(-336 -4500) translate(-1 816) translate(252 2085) translate(82 1441) translate(3 158)"></path>
              <g transform="translate(-336 -4500) translate(-1 816) translate(252 2085) translate(82 1441) translate(3 158) translate(0 45.277)">
                <mask id="23e1150fcb" fill="#fff">
                  <use xlink:href="#mgsk5wt2na"></use>
                </mask>
                <path fill="#F58B3C" d="M0 1.241v4.23c0 .141.055.274.155.374.098.101.236.155.376.155h28.946c.14 0 .276-.054.376-.155.1-.1.156-.233.156-.375V1.241c0-.292-.239-.528-.532-.528-.293 0-.53.236-.53.528V4.94H1.061V1.241c0-.292-.24-.528-.53-.528C.236.713 0 .95 0 1.241" mask="url(#23e1150fcb)"></path>
              </g>
              <path fill="#F58B3C" d="M5.19 32.597l-.482.225 1.504 3.24c.087.186.274.307.483.307h16.618c.205 0 .395-.121.482-.307l1.504-3.24c.078-.164.063-.358-.034-.51-.098-.152-.265-.245-.447-.245H5.19c-.183 0-.35.093-.45.245-.095.152-.109.346-.032.51l.482-.225v.532h18.796l-1.012 2.178H7.031L5.67 32.374l-.479.223v.532-.532z" transform="translate(-336 -4500) translate(-1 816) translate(252 2085) translate(82 1441) translate(3 158)"></path>
              <path fill="#F58B3C" d="M23.655 32.424c-.598-1.264-1.774-2.295-3.284-3.018-1.508-.725-3.361-1.146-5.366-1.146-1.958 0-3.769.4-5.26 1.09-1.488.696-2.663 1.68-3.301 2.89-.136.26-.037.581.223.717.26.135.58.035.718-.224.487-.936 1.476-1.798 2.81-2.418 1.33-.62 2.998-.993 4.81-.993 1.854 0 3.56.392 4.908 1.04 1.35.645 2.328 1.543 2.782 2.514.125.264.44.38.706.255.265-.126.378-.442.255-.707" transform="translate(-336 -4500) translate(-1 816) translate(252 2085) translate(82 1441) translate(3 158)"></path>
              <path fill="#F58B3C" d="M12.576 29.223L13.179 31.078 13.48 29.274zM17.693 29.223L17.089 31.078 16.791 29.274zM14.532 29.223L15.134 31.078 15.434 29.274zM73.028 24.665V17.9c0-1.06.03-2.12.093-3.18h-.093c-.623 1.185-1.122 2.058-1.684 2.992l-4.956 6.89v.063h6.64zm0 7.668v-5.518h-9.415v-1.808l9.041-12.937h2.961v12.595h2.836v2.15h-2.836v5.518h-2.587zM12.037 42.209c-.188-.649-.773-1.123-1.466-1.123-.431 0-.822.184-1.1.479-.235-.125-.501-.195-.784-.195-.836 0-1.533.613-1.686 1.426-.676.059-1.207.641-1.207 1.35 0 .749.59 1.355 1.32 1.355.092 0 .18-.01.268-.028.247.621.84 1.059 1.533 1.059.607 0 1.137-.335 1.425-.834.357.354.843.572 1.38.572 1.099 0 1.99-.915 1.99-2.044 0-1.018-.725-1.861-1.673-2.017" transform="translate(-336 -4500) translate(-1 816) translate(252 2085) translate(82 1441) translate(3 158)"></path>
              <path stroke="#FEFEFE" stroke-width=".815" d="M12.037 42.209c-.188-.649-.773-1.123-1.466-1.123-.431 0-.822.184-1.1.479-.235-.125-.501-.195-.784-.195-.836 0-1.533.613-1.686 1.426-.676.059-1.207.641-1.207 1.35 0 .749.59 1.355 1.32 1.355.092 0 .18-.01.268-.028.247.621.84 1.059 1.533 1.059.607 0 1.137-.335 1.425-.834.357.354.843.572 1.38.572 1.099 0 1.99-.915 1.99-2.044 0-1.018-.725-1.861-1.673-2.017z" transform="translate(-336 -4500) translate(-1 816) translate(252 2085) translate(82 1441) translate(3 158)"></path>
              <path fill="#F58B3C" d="M11.73 46.525l-.168 1.903h-.576l.131-1.903-.49-.26-.072 2.163H10l-.002-1.903H9.49l.032 1.903H8.9l-.069-1.903h-.52l.111 1.903h-.63l-.216-2.45-1.077-.276.452 2.94c.051.329.364.598.697.598h4.21c.331 0 .646-.27.696-.598l.386-2.466-1.21.349zM9.338 43.078c0 .196-.16.354-.354.354-.196 0-.355-.158-.355-.354 0-.196.159-.354.355-.354.195 0 .354.158.354.354M12.067 43.81c0 .195-.16.353-.354.353-.196 0-.355-.158-.355-.354 0-.196.159-.354.355-.354.195 0 .354.158.354.354M9.338 44.786c0 .196-.16.354-.354.354-.196 0-.355-.158-.355-.354 0-.196.159-.354.355-.354.195 0 .354.158.354.354M22.621 42.209c-.188-.649-.773-1.123-1.466-1.123-.43 0-.822.184-1.099.479-.236-.125-.502-.195-.785-.195-.836 0-1.533.613-1.686 1.426-.676.059-1.207.641-1.207 1.35 0 .749.591 1.355 1.32 1.355.092 0 .181-.01.268-.028.247.621.841 1.059 1.533 1.059.607 0 1.137-.335 1.425-.834.357.354.843.572 1.38.572 1.1 0 1.99-.915 1.99-2.044 0-1.018-.725-1.861-1.673-2.017" transform="translate(-336 -4500) translate(-1 816) translate(252 2085) translate(82 1441) translate(3 158)"></path>
              <path stroke="#FEFEFE" stroke-width=".815" d="M22.621 42.209c-.188-.649-.773-1.123-1.466-1.123-.43 0-.822.184-1.099.479-.236-.125-.502-.195-.785-.195-.836 0-1.533.613-1.686 1.426-.676.059-1.207.641-1.207 1.35 0 .749.591 1.355 1.32 1.355.092 0 .181-.01.268-.028.247.621.841 1.059 1.533 1.059.607 0 1.137-.335 1.425-.834.357.354.843.572 1.38.572 1.1 0 1.99-.915 1.99-2.044 0-1.018-.725-1.861-1.673-2.017z" transform="translate(-336 -4500) translate(-1 816) translate(252 2085) translate(82 1441) translate(3 158)"></path>
              <path fill="#F58B3C" d="M22.313 46.525l-.167 1.903h-.575l.13-1.903-.49-.26-.072 2.163h-.555l-.003-1.903h-.508l.032 1.903h-.622l-.068-1.903h-.52l.111 1.903h-.63l-.217-2.45-1.076-.276.452 2.94c.051.329.364.598.696.598h4.21c.332 0 .646-.27.696-.598l.386-2.466-1.21.349zM19.922 43.078c0 .196-.159.354-.354.354-.196 0-.355-.158-.355-.354 0-.196.16-.354.355-.354.195 0 .354.158.354.354M22.651 43.81c0 .195-.159.353-.354.353-.196 0-.355-.158-.355-.354 0-.196.16-.354.355-.354.195 0 .354.158.354.354M19.922 44.786c0 .196-.159.354-.354.354-.196 0-.355-.158-.355-.354 0-.196.16-.354.355-.354.195 0 .354.158.354.354" transform="translate(-336 -4500) translate(-1 816) translate(252 2085) translate(82 1441) translate(3 158)"></path>
            </g>
          </g>
        </g>
      </g>
    </g>
  </g>
</svg>
