<svg width="38" height="38" viewBox="0 0 38 38" fill="none" xmlns="http://www.w3.org/2000/svg">
<path fill-rule="evenodd" clip-rule="evenodd" d="M1 18.715C1 28.705 9.06 36.805 19 36.805C28.942 36.805 37 28.705 37 18.715C37 8.724 28.942 0.625 19 0.625C9.06 0.625 1 8.724 1 18.715Z" stroke="#AEAEAE"/>
<path d="M22 10.675H16C13.239 10.675 11 12.925 11 15.7V21.73C11 24.505 13.239 26.755 16 26.755H22C24.761 26.755 27 24.505 27 21.73V15.7C27 12.925 24.761 10.675 22 10.675ZM25.5 21.73C25.5 23.67 23.93 25.248 22 25.248H16C14.07 25.248 12.5 23.67 12.5 21.73V15.7C12.5 13.76 14.07 12.182 16 12.182H22C23.93 12.182 25.5 13.76 25.5 15.7V21.73Z" fill="#AEAEAE"/>
<path d="M19 14.695C16.791 14.695 15 16.495 15 18.715C15 20.935 16.791 22.735 19 22.735C21.209 22.735 23 20.935 23 18.715C23 16.495 21.209 14.695 19 14.695ZM19 21.228C18.3355 21.2254 17.6992 20.9593 17.2306 20.4883C16.7619 20.0172 16.4992 19.3795 16.5 18.715C16.4995 18.0507 16.7623 17.4133 17.2309 16.9424C17.6995 16.4715 18.3357 16.2057 19 16.203C19.6643 16.2057 20.3005 16.4715 20.7691 16.9424C21.2377 17.4133 21.5005 18.0507 21.5 18.715C21.5008 19.3795 21.2381 20.0172 20.7694 20.4883C20.3008 20.9593 19.6645 21.2254 19 21.228Z" fill="#AEAEAE"/>
<path d="M23.3 15.399C23.8523 15.399 24.3 14.9491 24.3 14.394C24.3 13.839 23.8523 13.389 23.3 13.389C22.7477 13.389 22.3 13.839 22.3 14.394C22.3 14.9491 22.7477 15.399 23.3 15.399Z" fill="#AEAEAE"/>
</svg>
