<?xml version="1.0" encoding="UTF-8"?>
<svg width="16px" height="16px" viewBox="0 0 16 16" version="1.1" xmlns="http://www.w3.org/2000/svg" xmlns:xlink="http://www.w3.org/1999/xlink">
    <title>pen copy</title>
    <defs>
        <filter id="filter-1">
            <feColorMatrix in="SourceGraphic" type="matrix" values="0 0 0 0 0.313725 0 0 0 0 0.313725 0 0 0 0 0.313725 0 0 0 1.000000 0"></feColorMatrix>
        </filter>
    </defs>
    <g id="Area-Personale" stroke="none" stroke-width="1" fill="none" fill-rule="evenodd">
        <g id="Desk/Account/Profilo-no-pass" transform="translate(-780.000000, -673.000000)">
            <g id="pen-copy" transform="translate(243.000000, 369.000000)" filter="url(#filter-1)">
                <g transform="translate(537.000000, 304.000000)">
                    <path d="M1.27614237,8 L2.60947571,9.33333333 L11,9.33333333 L11,6.66666667 L2.60947571,6.66666667 L1.27614237,8 Z M2.33333333,5.33333333 L11.6666667,5.33333333 C12.0348565,5.33333333 12.3333333,5.63181017 12.3333333,6 L12.3333333,10 C12.3333333,10.3681898 12.0348565,10.6666667 11.6666667,10.6666667 L2.33333333,10.6666667 C2.15652234,10.6666667 1.98695307,10.5964288 1.86192881,10.4714045 L-0.138071187,8.47140453 C-0.398420714,8.211055 -0.398420714,7.788945 -0.138071187,7.52859547 L1.86192881,5.52859548 C1.98695307,5.40357123 2.15652234,5.33333333 2.33333333,5.33333333 Z M12.3333333,9.33333333 L15,9.33333333 L15,6.66666667 L12.3333333,6.66666667 L12.3333333,9.33333333 Z M11.6666667,5.33333333 L15.6666667,5.33333333 C16.0348565,5.33333333 16.3333333,5.63181017 16.3333333,6 L16.3333333,10 C16.3333333,10.3681898 16.0348565,10.6666667 15.6666667,10.6666667 L11.6666667,10.6666667 C11.2984769,10.6666667 11,10.3681898 11,10 L11,6 C11,5.63181017 11.2984769,5.33333333 11.6666667,5.33333333 Z" id="shape" fill="#000000" fill-rule="nonzero" transform="translate(8.000000, 8.000000) rotate(-45.000000) translate(-8.000000, -8.000000) "></path>
                </g>
            </g>
        </g>
    </g>
</svg>