<svg width="209" height="29" viewBox="0 0 209 29" fill="none" xmlns="http://www.w3.org/2000/svg">
<g filter="url(#filter0_d)">
<path d="M95.8772 25.831C95.8772 26.4734 95.6275 27.0894 95.183 27.5436C94.7384 27.9978 94.1355 28.253 93.5069 28.253H58.1545C57.5259 28.253 56.923 27.9978 56.4784 27.5436C56.0339 27.0894 55.7842 26.4734 55.7842 25.831V2.423C55.7841 2.10485 55.8453 1.7898 55.9643 1.49583C56.0834 1.20186 56.258 0.934753 56.4781 0.709743C56.6982 0.484733 56.9596 0.306243 57.2472 0.184463C57.5348 0.0626801 57.8432 0 58.1545 0H93.5069C94.1355 0 94.7384 0.255173 95.183 0.709383C95.6275 1.1636 95.8772 1.77964 95.8772 2.422V25.832V25.831Z" fill="white"/>
</g>
<g filter="url(#filter1_d)">
<path d="M72.6415 14.183C72.6405 12.9206 72.9198 11.6744 73.4581 10.5381C73.9965 9.40189 74.78 8.40518 75.7497 7.62295C74.5434 6.64852 73.0928 6.041 71.5642 5.87C70.0356 5.69899 68.4908 5.97141 67.1067 6.65605C65.7226 7.34069 64.5553 8.40985 63.7383 9.74109C62.9214 11.0723 62.488 12.6117 62.4878 14.183C62.4881 15.7543 62.9216 17.2938 63.7386 18.625C64.5556 19.9563 65.7231 21.0254 67.1074 21.71C68.4916 22.3945 70.0365 22.6668 71.5652 22.4956C73.0939 22.3244 74.5444 21.7166 75.7507 20.742C74.7811 19.96 73.9977 18.9637 73.4593 17.8278C72.921 16.6919 72.6417 15.446 72.6424 14.184" fill="#E20D17"/>
</g>
<g filter="url(#filter2_d)">
<path d="M72.6416 14.1826C72.6408 15.4447 72.9201 16.6905 73.4585 17.8264C73.9969 18.9623 74.7803 19.9586 75.7499 20.7406C76.7194 19.9586 77.5028 18.9623 78.0412 17.8264C78.5796 16.6905 78.8589 15.4447 78.8581 14.1826C78.859 12.9202 78.5798 11.674 78.0414 10.5378C77.5031 9.40149 76.7196 8.40479 75.7499 7.62256C74.7802 8.40479 73.9967 9.40149 73.4583 10.5378C72.9199 11.674 72.6407 12.9202 72.6416 14.1826Z" fill="#EA610A"/>
</g>
<g filter="url(#filter3_d)">
<path d="M80.8283 5.81787C78.9101 5.81787 77.1466 6.49387 75.751 7.62387C76.7208 8.406 77.5044 9.40269 78.0427 10.539C78.5811 11.6752 78.8603 12.9215 78.8592 14.1839C78.86 15.4457 78.5807 16.6912 78.0423 17.8268C77.5039 18.9623 76.7205 19.9584 75.751 20.7399C77.1946 21.9118 78.9845 22.5489 80.8283 22.5469C82.9994 22.5469 85.0815 21.6656 86.6167 20.097C88.1519 18.5283 89.0144 16.4008 89.0144 14.1824C89.0144 11.964 88.1519 9.83639 86.6167 8.26777C85.0815 6.69913 82.9994 5.81787 80.8283 5.81787Z" fill="#F59E00"/>
</g>
<g filter="url(#filter4_d)">
<path d="M152.093 25.831C152.093 26.4734 151.843 27.0894 151.399 27.5436C150.954 27.9978 150.351 28.253 149.723 28.253H114.37C113.742 28.253 113.139 27.9978 112.694 27.5436C112.25 27.0894 112 26.4734 112 25.831V2.423C112 2.10486 112.061 1.7898 112.18 1.49584C112.299 1.20187 112.474 0.934747 112.694 0.709737C112.914 0.484727 113.175 0.306237 113.463 0.184457C113.751 0.062677 114.059 0 114.37 0H149.723C150.351 0 150.954 0.255177 151.399 0.709387C151.843 1.1636 152.093 1.77965 152.093 2.422V25.832V25.831Z" fill="#005A9B"/>
</g>
<g filter="url(#filter5_d)">
<path d="M123.829 15.624C127.638 13.956 132.984 12.444 140.063 13.958L140.138 12.123C132.668 11.29 127.309 13.721 123.829 15.443V15.624Z" fill="#FAA929"/>
</g>
<g filter="url(#filter6_d)">
<path d="M116.951 16.9732H120.54V18.0772H118.31L118.296 19.0982H120.518V20.1582H118.287L118.297 21.1782H120.495V22.2842H116.952L116.951 16.9732ZM121.442 16.5282H122.749L122.754 22.2842H121.447L121.442 16.5282ZM126.284 19.8662C126.284 19.4682 126.097 19.1062 125.66 19.1062C125.247 19.1062 124.932 19.4822 124.848 19.8662H126.284ZM127.245 21.8462C126.802 22.2302 126.126 22.4222 125.526 22.4222C124.15 22.4222 123.528 21.4252 123.528 20.4342C123.528 19.2672 124.384 18.2782 125.563 18.2782C127.005 18.2782 127.455 19.3212 127.455 20.6482H124.835C124.835 20.9482 125.021 21.4552 125.743 21.4552C126.202 21.4552 126.457 21.3172 126.809 21.0712L127.245 21.8462ZM131.422 22.0232C131.062 22.2532 130.468 22.4212 130.032 22.4212C128.83 22.4212 127.967 21.7152 127.967 20.4422C127.967 19.1372 128.823 18.2782 130.114 18.2782C130.564 18.2782 131.107 18.4232 131.399 18.6152L130.978 19.4902C130.783 19.4062 130.573 19.3362 130.362 19.3362C129.709 19.3362 129.274 19.7362 129.274 20.3732C129.274 20.9252 129.693 21.3632 130.25 21.3632C130.498 21.3632 130.746 21.2482 130.955 21.1402L131.422 22.0232ZM131.904 18.4162H132.495L132.49 17.1042H133.753L133.722 18.4162H134.796L134.774 19.3832H133.7C133.7 19.9202 133.661 20.4882 133.661 20.8182C133.661 21.1562 133.745 21.3172 134.038 21.3172C134.218 21.3172 134.369 21.2252 134.517 21.1332L134.804 22.0382C134.415 22.2818 133.969 22.4144 133.512 22.4222C132.453 22.4222 132.4 21.7392 132.4 20.8492C132.4 20.3732 132.438 19.8972 132.438 19.3832H131.875L131.904 18.4162ZM135.466 18.4162H136.771V18.9612H136.788C136.982 18.6312 137.238 18.3092 137.749 18.3092C137.892 18.3092 138.041 18.3242 138.178 18.3542L138.003 19.6742C137.853 19.6249 137.696 19.5993 137.537 19.5982C137.102 19.5982 136.764 19.9742 136.764 20.0512L136.743 22.2842H135.434L135.466 18.4162ZM140.544 21.4092C141.167 21.4092 141.354 20.8562 141.354 20.3492C141.354 19.8442 141.167 19.2912 140.544 19.2912C139.92 19.2912 139.733 19.8442 139.733 20.3492C139.733 20.8562 139.92 21.4092 140.544 21.4092ZM140.544 18.2782C141.94 18.2782 142.662 19.1832 142.662 20.3482C142.662 21.5162 141.94 22.4222 140.544 22.4222C139.146 22.4222 138.425 21.5162 138.425 20.3492C138.425 19.1832 139.146 18.2782 140.544 18.2782ZM143.372 18.4162H144.679V18.8382C144.98 18.5382 145.437 18.2782 145.902 18.2782C146.707 18.2782 147.143 18.7302 147.143 19.7902C147.143 20.5802 147.135 21.4322 147.127 22.2842H145.821C145.829 21.5392 145.837 20.7872 145.837 19.9892C145.837 19.6752 145.753 19.4292 145.362 19.4292C145.151 19.4292 144.852 19.6132 144.679 19.7822L144.672 22.2842H143.341L143.372 18.4162ZM127.701 10.4482L129.352 4.88616H130.825L129.175 10.4482H127.701ZM127.042 4.88716L125.717 7.24516C125.38 7.86316 125.183 8.17516 125.088 8.56516H125.068C125.091 8.07016 125.023 7.46316 125.017 7.11916L124.871 4.88716H122.392L122.365 5.03716C123.002 5.03716 123.38 5.36416 123.484 6.03316L123.967 10.4482H125.494L128.58 4.88816H127.043L127.042 4.88716ZM138.33 7.16716C138.313 6.75716 138.301 6.19816 138.327 5.86016H138.306C138.216 6.13716 137.83 6.96516 137.661 7.37416L137.113 8.59216L138.405 8.59316L138.33 7.16716ZM138.499 10.4482L138.459 9.62118H136.619L136.243 10.4482H134.643L137.543 4.89616H139.507L139.998 10.4482H138.499ZM132.372 10.6072C131.587 10.6155 130.816 10.3938 130.15 9.96818L130.85 8.87416C131.293 9.12718 131.64 9.41918 132.439 9.41918C132.696 9.41918 132.944 9.35018 133.085 9.10118C133.29 8.74016 133.038 8.54416 132.462 8.21116L132.178 8.02316C131.325 7.42716 130.956 6.86216 131.357 5.87416C131.615 5.24216 132.292 4.76416 133.41 4.76416C134.182 4.76416 134.904 5.10416 135.326 5.43716L134.518 6.40416C134.107 6.06516 133.767 5.89316 133.376 5.89316C133.066 5.89316 132.83 6.01516 132.748 6.18016C132.595 6.49116 132.798 6.70316 133.247 6.98716L133.584 7.20716C134.621 7.87516 134.867 8.57416 134.606 9.22918C134.16 10.3552 133.286 10.6072 132.372 10.6072Z" fill="white"/>
</g>
<g filter="url(#filter7_d)">
<path d="M40.093 25.9428C40.093 26.5852 39.8433 27.2012 39.3988 27.6554C38.9543 28.1096 38.3514 28.3648 37.7227 28.3648H2.37033C1.74168 28.3648 1.13878 28.1096 0.694254 27.6554C0.249731 27.2012 2.02055e-07 26.5852 2.02055e-07 25.9428V2.53481C-0.000128352 2.21667 0.0610872 1.90161 0.18015 1.60765C0.299213 1.31368 0.47379 1.04656 0.693908 0.821553C0.914026 0.596543 1.17537 0.418053 1.46302 0.296273C1.75066 0.174493 2.05897 0.111816 2.37033 0.111816H37.7227C38.3514 0.111816 38.9543 0.366993 39.3988 0.821203C39.8433 1.27541 40.093 1.89146 40.093 2.53381V25.9438V25.9428Z" fill="white"/>
</g>
<g filter="url(#filter8_d)">
<path d="M10.5371 14.3198L9.74734 10.4498C9.61326 9.91679 9.22082 9.75779 8.72953 9.73679H5.1114L5.0791 9.91279C7.89766 10.6108 9.76202 12.2958 10.5371 14.3188" fill="#F79F1A"/>
</g>
<g filter="url(#filter9_d)">
<path d="M18.9227 9.81469H16.5837L15.1245 18.5717H17.4586L18.9227 9.81469ZM11.9624 18.5627L15.6403 9.82069H13.1643L10.8781 15.7927L10.6334 14.8917C10.1852 13.8067 8.90411 12.2457 7.39893 11.2617L9.49034 18.5657L11.9624 18.5627ZM25.5914 15.7087C25.6002 14.7147 24.9758 13.9557 23.6291 13.3297C22.811 12.9247 22.3118 12.6547 22.3187 12.2447C22.3187 11.8827 22.7405 11.4927 23.6556 11.4927C24.2545 11.4787 24.8495 11.5927 25.4035 11.8277L25.6148 11.9277L25.9319 10.0297C25.2602 9.78339 24.5513 9.65989 23.8376 9.66469C21.5299 9.66469 19.9043 10.8517 19.8896 12.5547C19.875 13.8127 21.0513 14.5147 21.937 14.9347C22.8462 15.3597 23.1515 15.6347 23.1447 16.0177C23.1398 16.6047 22.4205 16.8717 21.7491 16.8717C20.8135 16.8717 20.3183 16.7397 19.5491 16.4127L19.2506 16.2727L18.9227 18.2347C19.4678 18.4787 20.4759 18.6907 21.523 18.6997C23.9785 18.6997 25.5737 17.5277 25.5914 15.7097V15.7087ZM29.9699 13.0177C29.9582 13.0417 30.1637 12.5117 30.2802 12.1817L30.4387 12.9377L30.9789 15.4667H29.0412C29.234 14.9627 29.9709 13.0167 29.9709 13.0167L29.9699 13.0177ZM28.3688 17.2587L31.3596 17.2617C31.4301 17.5667 31.6444 18.5747 31.6444 18.5747H33.8122L31.9204 9.82269H30.1167C29.5559 9.82269 29.14 9.97869 28.8934 10.5477L25.424 18.5737H27.8785C27.8785 18.5737 28.2778 17.4937 28.3688 17.2577V17.2587Z" fill="#005A9B"/>
</g>
<g filter="url(#filter10_d)">
<path d="M37.571 0.112793H2.36152C2.05129 0.112662 1.74406 0.175023 1.45743 0.296303C1.17079 0.417583 0.910368 0.595403 0.691042 0.819603C0.471716 1.0438 0.297792 1.30998 0.179218 1.60291C0.0606434 1.89585 -0.000256461 2.20979 8.11744e-07 2.52679V5.02979H39.9325V2.52579C39.9327 2.20887 39.8717 1.89504 39.753 1.60222C39.6344 1.3094 39.4605 1.04334 39.2411 0.819253C39.0218 0.595153 38.7615 0.417423 38.4749 0.296203C38.1883 0.174983 37.8812 0.112662 37.571 0.112793Z" fill="#005A9B"/>
</g>
<g filter="url(#filter11_d)">
<path d="M37.571 28.2529H2.36152C2.05145 28.253 1.74439 28.1907 1.45788 28.0696C1.17137 27.9484 0.911034 27.7708 0.691733 27.5468C0.472433 27.3228 0.298469 27.0569 0.179779 26.7642C0.0610897 26.4715 -2.66489e-08 26.1577 0 25.8409V23.3379H39.9325V25.8409C39.9325 26.1577 39.8714 26.4715 39.7528 26.7642C39.6341 27.0569 39.4601 27.3228 39.2408 27.5468C39.0215 27.7708 38.7612 27.9484 38.4747 28.0696C38.1881 28.1907 37.8811 28.253 37.571 28.2529Z" fill="#F79F1A"/>
</g>
<defs>
<filter id="filter0_d" x="51.7842" y="0" width="48.093" height="36.253" filterUnits="userSpaceOnUse" color-interpolation-filters="sRGB">
<feFlood flood-opacity="0" result="BackgroundImageFix"/>
<feColorMatrix in="SourceAlpha" type="matrix" values="0 0 0 0 0 0 0 0 0 0 0 0 0 0 0 0 0 0 127 0" result="hardAlpha"/>
<feOffset dy="4"/>
<feGaussianBlur stdDeviation="2"/>
<feColorMatrix type="matrix" values="0 0 0 0 0 0 0 0 0 0 0 0 0 0 0 0 0 0 0.25 0"/>
<feBlend mode="normal" in2="BackgroundImageFix" result="effect1_dropShadow"/>
<feBlend mode="normal" in="SourceGraphic" in2="effect1_dropShadow" result="shape"/>
</filter>
<filter id="filter1_d" x="58.4878" y="5.82031" width="21.2629" height="24.7251" filterUnits="userSpaceOnUse" color-interpolation-filters="sRGB">
<feFlood flood-opacity="0" result="BackgroundImageFix"/>
<feColorMatrix in="SourceAlpha" type="matrix" values="0 0 0 0 0 0 0 0 0 0 0 0 0 0 0 0 0 0 127 0" result="hardAlpha"/>
<feOffset dy="4"/>
<feGaussianBlur stdDeviation="2"/>
<feColorMatrix type="matrix" values="0 0 0 0 0 0 0 0 0 0 0 0 0 0 0 0 0 0 0.25 0"/>
<feBlend mode="normal" in2="BackgroundImageFix" result="effect1_dropShadow"/>
<feBlend mode="normal" in="SourceGraphic" in2="effect1_dropShadow" result="shape"/>
</filter>
<filter id="filter2_d" x="68.6416" y="7.62256" width="14.2165" height="21.118" filterUnits="userSpaceOnUse" color-interpolation-filters="sRGB">
<feFlood flood-opacity="0" result="BackgroundImageFix"/>
<feColorMatrix in="SourceAlpha" type="matrix" values="0 0 0 0 0 0 0 0 0 0 0 0 0 0 0 0 0 0 127 0" result="hardAlpha"/>
<feOffset dy="4"/>
<feGaussianBlur stdDeviation="2"/>
<feColorMatrix type="matrix" values="0 0 0 0 0 0 0 0 0 0 0 0 0 0 0 0 0 0 0.25 0"/>
<feBlend mode="normal" in2="BackgroundImageFix" result="effect1_dropShadow"/>
<feBlend mode="normal" in="SourceGraphic" in2="effect1_dropShadow" result="shape"/>
</filter>
<filter id="filter3_d" x="71.751" y="5.81787" width="21.2634" height="24.729" filterUnits="userSpaceOnUse" color-interpolation-filters="sRGB">
<feFlood flood-opacity="0" result="BackgroundImageFix"/>
<feColorMatrix in="SourceAlpha" type="matrix" values="0 0 0 0 0 0 0 0 0 0 0 0 0 0 0 0 0 0 127 0" result="hardAlpha"/>
<feOffset dy="4"/>
<feGaussianBlur stdDeviation="2"/>
<feColorMatrix type="matrix" values="0 0 0 0 0 0 0 0 0 0 0 0 0 0 0 0 0 0 0.25 0"/>
<feBlend mode="normal" in2="BackgroundImageFix" result="effect1_dropShadow"/>
<feBlend mode="normal" in="SourceGraphic" in2="effect1_dropShadow" result="shape"/>
</filter>
<filter id="filter4_d" x="108" y="0" width="48.093" height="36.253" filterUnits="userSpaceOnUse" color-interpolation-filters="sRGB">
<feFlood flood-opacity="0" result="BackgroundImageFix"/>
<feColorMatrix in="SourceAlpha" type="matrix" values="0 0 0 0 0 0 0 0 0 0 0 0 0 0 0 0 0 0 127 0" result="hardAlpha"/>
<feOffset dy="4"/>
<feGaussianBlur stdDeviation="2"/>
<feColorMatrix type="matrix" values="0 0 0 0 0 0 0 0 0 0 0 0 0 0 0 0 0 0 0.25 0"/>
<feBlend mode="normal" in2="BackgroundImageFix" result="effect1_dropShadow"/>
<feBlend mode="normal" in="SourceGraphic" in2="effect1_dropShadow" result="shape"/>
</filter>
<filter id="filter5_d" x="119.829" y="11.9541" width="24.309" height="11.6698" filterUnits="userSpaceOnUse" color-interpolation-filters="sRGB">
<feFlood flood-opacity="0" result="BackgroundImageFix"/>
<feColorMatrix in="SourceAlpha" type="matrix" values="0 0 0 0 0 0 0 0 0 0 0 0 0 0 0 0 0 0 127 0" result="hardAlpha"/>
<feOffset dy="4"/>
<feGaussianBlur stdDeviation="2"/>
<feColorMatrix type="matrix" values="0 0 0 0 0 0 0 0 0 0 0 0 0 0 0 0 0 0 0.25 0"/>
<feBlend mode="normal" in2="BackgroundImageFix" result="effect1_dropShadow"/>
<feBlend mode="normal" in="SourceGraphic" in2="effect1_dropShadow" result="shape"/>
</filter>
<filter id="filter6_d" x="112.951" y="4.76416" width="38.192" height="25.658" filterUnits="userSpaceOnUse" color-interpolation-filters="sRGB">
<feFlood flood-opacity="0" result="BackgroundImageFix"/>
<feColorMatrix in="SourceAlpha" type="matrix" values="0 0 0 0 0 0 0 0 0 0 0 0 0 0 0 0 0 0 127 0" result="hardAlpha"/>
<feOffset dy="4"/>
<feGaussianBlur stdDeviation="2"/>
<feColorMatrix type="matrix" values="0 0 0 0 0 0 0 0 0 0 0 0 0 0 0 0 0 0 0.25 0"/>
<feBlend mode="normal" in2="BackgroundImageFix" result="effect1_dropShadow"/>
<feBlend mode="normal" in="SourceGraphic" in2="effect1_dropShadow" result="shape"/>
</filter>
<filter id="filter7_d" x="-4" y="0.111816" width="48.093" height="36.253" filterUnits="userSpaceOnUse" color-interpolation-filters="sRGB">
<feFlood flood-opacity="0" result="BackgroundImageFix"/>
<feColorMatrix in="SourceAlpha" type="matrix" values="0 0 0 0 0 0 0 0 0 0 0 0 0 0 0 0 0 0 127 0" result="hardAlpha"/>
<feOffset dy="4"/>
<feGaussianBlur stdDeviation="2"/>
<feColorMatrix type="matrix" values="0 0 0 0 0 0 0 0 0 0 0 0 0 0 0 0 0 0 0.25 0"/>
<feBlend mode="normal" in2="BackgroundImageFix" result="effect1_dropShadow"/>
<feBlend mode="normal" in="SourceGraphic" in2="effect1_dropShadow" result="shape"/>
</filter>
<filter id="filter8_d" x="1.0791" y="9.73679" width="13.458" height="12.583" filterUnits="userSpaceOnUse" color-interpolation-filters="sRGB">
<feFlood flood-opacity="0" result="BackgroundImageFix"/>
<feColorMatrix in="SourceAlpha" type="matrix" values="0 0 0 0 0 0 0 0 0 0 0 0 0 0 0 0 0 0 127 0" result="hardAlpha"/>
<feOffset dy="4"/>
<feGaussianBlur stdDeviation="2"/>
<feColorMatrix type="matrix" values="0 0 0 0 0 0 0 0 0 0 0 0 0 0 0 0 0 0 0.25 0"/>
<feBlend mode="normal" in2="BackgroundImageFix" result="effect1_dropShadow"/>
<feBlend mode="normal" in="SourceGraphic" in2="effect1_dropShadow" result="shape"/>
</filter>
<filter id="filter9_d" x="3.39893" y="9.66455" width="34.4133" height="17.0351" filterUnits="userSpaceOnUse" color-interpolation-filters="sRGB">
<feFlood flood-opacity="0" result="BackgroundImageFix"/>
<feColorMatrix in="SourceAlpha" type="matrix" values="0 0 0 0 0 0 0 0 0 0 0 0 0 0 0 0 0 0 127 0" result="hardAlpha"/>
<feOffset dy="4"/>
<feGaussianBlur stdDeviation="2"/>
<feColorMatrix type="matrix" values="0 0 0 0 0 0 0 0 0 0 0 0 0 0 0 0 0 0 0.25 0"/>
<feBlend mode="normal" in2="BackgroundImageFix" result="effect1_dropShadow"/>
<feBlend mode="normal" in="SourceGraphic" in2="effect1_dropShadow" result="shape"/>
</filter>
<filter id="filter10_d" x="-4" y="0.112793" width="47.9325" height="12.917" filterUnits="userSpaceOnUse" color-interpolation-filters="sRGB">
<feFlood flood-opacity="0" result="BackgroundImageFix"/>
<feColorMatrix in="SourceAlpha" type="matrix" values="0 0 0 0 0 0 0 0 0 0 0 0 0 0 0 0 0 0 127 0" result="hardAlpha"/>
<feOffset dy="4"/>
<feGaussianBlur stdDeviation="2"/>
<feColorMatrix type="matrix" values="0 0 0 0 0 0 0 0 0 0 0 0 0 0 0 0 0 0 0.25 0"/>
<feBlend mode="normal" in2="BackgroundImageFix" result="effect1_dropShadow"/>
<feBlend mode="normal" in="SourceGraphic" in2="effect1_dropShadow" result="shape"/>
</filter>
<filter id="filter11_d" x="-4" y="23.3379" width="47.9325" height="12.915" filterUnits="userSpaceOnUse" color-interpolation-filters="sRGB">
<feFlood flood-opacity="0" result="BackgroundImageFix"/>
<feColorMatrix in="SourceAlpha" type="matrix" values="0 0 0 0 0 0 0 0 0 0 0 0 0 0 0 0 0 0 127 0" result="hardAlpha"/>
<feOffset dy="4"/>
<feGaussianBlur stdDeviation="2"/>
<feColorMatrix type="matrix" values="0 0 0 0 0 0 0 0 0 0 0 0 0 0 0 0 0 0 0.25 0"/>
<feBlend mode="normal" in2="BackgroundImageFix" result="effect1_dropShadow"/>
<feBlend mode="normal" in="SourceGraphic" in2="effect1_dropShadow" result="shape"/>
</filter>
<filter id="filter12_d" x="164" y="0" width="48.126" height="36.2" filterUnits="userSpaceOnUse" color-interpolation-filters="sRGB">
<feFlood flood-opacity="0" result="BackgroundImageFix"/>
<feColorMatrix in="SourceAlpha" type="matrix" values="0 0 0 0 0 0 0 0 0 0 0 0 0 0 0 0 0 0 127 0" result="hardAlpha"/>
<feOffset dy="4"/>
<feGaussianBlur stdDeviation="2"/>
<feColorMatrix type="matrix" values="0 0 0 0 0 0 0 0 0 0 0 0 0 0 0 0 0 0 0.25 0"/>
<feBlend mode="normal" in2="BackgroundImageFix" result="effect1_dropShadow"/>
<feBlend mode="normal" in="SourceGraphic" in2="effect1_dropShadow" result="shape"/>
</filter>
<filter id="filter13_d" x="164" y="0" width="48.126" height="36.2" filterUnits="userSpaceOnUse" color-interpolation-filters="sRGB">
<feFlood flood-opacity="0" result="BackgroundImageFix"/>
<feColorMatrix in="SourceAlpha" type="matrix" values="0 0 0 0 0 0 0 0 0 0 0 0 0 0 0 0 0 0 127 0" result="hardAlpha"/>
<feOffset dy="4"/>
<feGaussianBlur stdDeviation="2"/>
<feColorMatrix type="matrix" values="0 0 0 0 0 0 0 0 0 0 0 0 0 0 0 0 0 0 0.25 0"/>
<feBlend mode="normal" in2="BackgroundImageFix" result="effect1_dropShadow"/>
<feBlend mode="normal" in="SourceGraphic" in2="effect1_dropShadow" result="shape"/>
</filter>
<filter id="filter14_d" x="166.936" y="9.74799" width="27.0928" height="17.4" filterUnits="userSpaceOnUse" color-interpolation-filters="sRGB">
<feFlood flood-opacity="0" result="BackgroundImageFix"/>
<feColorMatrix in="SourceAlpha" type="matrix" values="0 0 0 0 0 0 0 0 0 0 0 0 0 0 0 0 0 0 127 0" result="hardAlpha"/>
<feOffset dy="4"/>
<feGaussianBlur stdDeviation="2"/>
<feColorMatrix type="matrix" values="0 0 0 0 0 0 0 0 0 0 0 0 0 0 0 0 0 0 0.25 0"/>
<feBlend mode="normal" in2="BackgroundImageFix" result="effect1_dropShadow"/>
<feBlend mode="normal" in="SourceGraphic" in2="effect1_dropShadow" result="shape"/>
</filter>
<filter id="filter15_d" x="185.923" y="9.74799" width="23.267" height="15.9" filterUnits="userSpaceOnUse" color-interpolation-filters="sRGB">
<feFlood flood-opacity="0" result="BackgroundImageFix"/>
<feColorMatrix in="SourceAlpha" type="matrix" values="0 0 0 0 0 0 0 0 0 0 0 0 0 0 0 0 0 0 127 0" result="hardAlpha"/>
<feOffset dy="4"/>
<feGaussianBlur stdDeviation="2"/>
<feColorMatrix type="matrix" values="0 0 0 0 0 0 0 0 0 0 0 0 0 0 0 0 0 0 0.25 0"/>
<feBlend mode="normal" in2="BackgroundImageFix" result="effect1_dropShadow"/>
<feBlend mode="normal" in="SourceGraphic" in2="effect1_dropShadow" result="shape"/>
</filter>
</defs>
</svg>
