<svg width="42" height="52" viewBox="0 0 42 52" fill="none" xmlns="http://www.w3.org/2000/svg">
<path d="M23 0H5.25C3.85761 0 2.52226 0.547855 1.53769 1.52304C0.553123 2.49823 0 3.82087 0 5.2V46.8C0 48.1791 0.553123 49.5018 1.53769 50.477C2.52226 51.4521 3.85761 52 5.25 52H36.75C38.1424 52 39.4777 51.4521 40.4623 50.477C41.4469 49.5018 42 48.1791 42 46.8V18L23 0Z" fill="#E5F6FF"/>
<path d="M4 33C4 30.7909 5.79086 29 8 29H34C36.2091 29 38 30.7909 38 33V44C38 46.2091 36.2091 48 34 48H8C5.79086 48 4 46.2091 4 44V33Z" fill="#0090D0"/>
<path d="M14.3273 39.5879V42H12.6135V34.8906H15.4504C15.994 34.8906 16.4742 34.9915 16.8908 35.1934C17.3107 35.3919 17.6346 35.6768 17.8625 36.0479C18.0936 36.4157 18.2092 36.834 18.2092 37.3027C18.2092 37.9961 17.9602 38.5511 17.4621 38.9678C16.9673 39.3812 16.287 39.5879 15.4211 39.5879H14.3273ZM14.3273 38.2646H15.4504C15.7824 38.2646 16.0347 38.1816 16.2072 38.0156C16.383 37.8496 16.4709 37.6152 16.4709 37.3125C16.4709 36.9805 16.3814 36.7152 16.2023 36.5166C16.0233 36.318 15.7792 36.2171 15.4699 36.2139H14.3273V38.2646ZM19.3271 42V34.8906H21.6172C22.2454 34.8906 22.8102 35.0339 23.3115 35.3203C23.8128 35.6035 24.2035 36.0055 24.4834 36.5264C24.7666 37.0439 24.9098 37.625 24.9131 38.2695V38.5967C24.9131 39.2477 24.7747 39.832 24.498 40.3496C24.2246 40.8639 23.8372 41.2676 23.3359 41.5605C22.8379 41.8503 22.2812 41.9967 21.666 42H19.3271ZM21.041 36.2139V40.6816H21.6367C22.1283 40.6816 22.5059 40.5075 22.7695 40.1592C23.0332 39.8076 23.165 39.2868 23.165 38.5967V38.2891C23.165 37.6022 23.0332 37.0846 22.7695 36.7363C22.5059 36.388 22.1217 36.2139 21.6172 36.2139H21.041ZM30.4695 39.168H27.7059V42H25.992V34.8906H30.7479V36.2139H27.7059V37.8496H30.4695V39.168Z" fill="white"/>
<path d="M23 0V14C23 16.2091 24.7909 18 27 18H42" fill="white"/>
</svg>
