<svg width="134" height="134" viewBox="0 0 134 134" fill="none" xmlns="http://www.w3.org/2000/svg">
<path d="M55.5287 40.8203V35.1709C55.5287 34.2753 54.8053 33.5519 53.9097 33.5519C53.014 33.5519 52.2906 34.2753 52.2906 35.1709V43.955C52.2562 46.9519 50.706 48.5365 47.9158 48.502C45.16 48.5365 43.5755 46.9519 43.541 43.955V35.1709C43.541 34.2753 42.8176 33.5519 41.922 33.5519C41.0264 33.5519 40.303 34.2753 40.303 35.1709V40.8203C40.303 42.4737 40.0963 44.9539 40.6819 46.7796C41.5775 49.5354 43.7133 51.1544 46.848 51.43C46.9857 51.43 47.0891 51.43 47.2269 51.43C47.2958 51.43 47.3647 51.43 47.468 51.43C47.6058 51.43 47.7436 51.43 47.8814 51.43C48.0192 51.43 48.157 51.43 48.2947 51.43C48.3636 51.43 48.467 51.43 48.5359 51.43C48.6737 51.43 48.777 51.43 48.9148 51.43C52.0495 51.1544 54.2197 49.5354 55.0809 46.7796C55.7354 44.9195 55.5631 42.4393 55.5287 40.8203Z" fill="#FCFEFE"/>
<path d="M29.762 33.5519H22.0458C21.1502 33.5519 20.4268 34.2753 20.4268 35.1709V50.1899C20.4268 51.0511 21.1157 51.7401 21.9769 51.7401C22.8381 51.7401 23.527 51.0511 23.527 50.1899V44.1272H29.762C32.69 44.1272 35.0324 41.7503 35.0324 38.8568C35.0324 35.9287 32.69 33.5519 29.762 33.5519ZM29.762 41.2336H23.527V36.4455H29.762C31.1054 36.4455 32.1733 37.5133 32.1733 38.8568C32.1733 40.1313 31.071 41.2336 29.762 41.2336Z" fill="#FCFEFE"/>
<path d="M93.4194 33.1038C92.4893 33.1038 91.766 33.8272 91.766 34.7572V40.5444H83.8431V34.7572C83.8431 33.8272 83.1197 33.1038 82.1896 33.1038C81.2595 33.1038 80.5361 33.8272 80.5361 34.7572V50.0863C80.5361 51.0164 81.2595 51.7397 82.1896 51.7397C83.1197 51.7397 83.8431 51.0164 83.8431 50.0863V43.8513H91.766V50.0863C91.766 51.0164 92.4893 51.7397 93.4194 51.7397C94.3495 51.7397 95.0729 51.0164 95.0729 50.0863V34.7572C95.0729 33.8272 94.3495 33.1038 93.4194 33.1038Z" fill="#FCFEFE"/>
<path d="M67.2059 51.5329C64.8979 51.5329 62.7277 50.7062 61.3498 49.3627C60.7298 48.7427 60.7298 47.7782 61.3498 47.1581C61.9699 46.5381 62.9344 46.5381 63.5544 47.1581C64.3123 47.9159 65.7246 48.3982 67.2059 48.3982C69.6172 48.3982 71.5118 47.1581 71.5118 46.0558C71.5118 45.4357 70.995 44.2645 67.4125 43.5756C62.211 42.5766 61.1431 40.0275 61.1431 38.064C61.1431 34.9638 64.1745 32.6213 68.2048 32.6213C70.5128 32.6213 72.683 33.4481 74.0609 34.7915C74.6809 35.4116 74.6809 36.3761 74.0609 36.9961C73.4408 37.6162 72.4763 37.6162 71.8562 36.9961C71.0984 36.2383 69.6861 35.756 68.2048 35.756C65.7591 35.756 64.2434 36.9617 64.2434 38.0985C64.2434 39.2352 65.5179 40.0964 67.9981 40.5787C71.0295 41.1643 74.612 42.6111 74.612 46.0902C74.612 49.0871 71.2706 51.5329 67.2059 51.5329Z" fill="#FCFEFE"/>
<path d="M114.297 45.4703L111.541 42.0256C112.333 41.5433 113.022 40.9577 113.574 40.2688C114.125 39.5798 114.4 38.7187 114.4 37.6852C114.4 36.9963 114.297 36.4107 114.056 35.8595C113.815 35.3428 113.505 34.895 113.126 34.5505C112.747 34.2061 112.265 33.9305 111.748 33.7582C111.231 33.586 110.646 33.4827 110.025 33.4827C109.474 33.4827 108.958 33.586 108.475 33.7582C107.959 33.9305 107.545 34.2061 107.132 34.5505C106.753 34.895 106.443 35.3084 106.202 35.8251C105.961 36.3073 105.857 36.8585 105.857 37.4786C105.857 38.2364 105.995 38.9253 106.305 39.4765C106.581 40.0621 106.96 40.6133 107.407 41.1989C106.96 41.44 106.03 41.9912 105.582 42.3012C105.134 42.6112 104.617 42.9901 104.238 43.4035C103.79 43.8858 103.618 44.1613 103.343 44.7469C103.205 45.057 103.033 45.7115 102.998 46.2971C102.929 47.0894 103.033 47.7094 103.308 48.295C103.584 48.9495 103.963 49.5007 104.411 49.9485C104.789 50.3274 105.478 50.7408 106.064 50.9475C106.753 51.223 107.717 51.4642 108.992 51.4642C109.888 51.4642 110.887 51.2919 111.61 50.9475C112.333 50.603 112.85 50.3618 113.642 49.7073C113.677 49.6729 113.711 49.6385 113.746 49.604C114.607 50.6719 115.95 51.3953 117.466 51.3953C118.465 51.3953 119.395 51.0852 120.187 50.5341C120.98 49.9829 120.945 48.8462 120.153 48.3295L120.05 48.2606C119.602 47.985 119.051 48.0194 118.637 48.3295C118.293 48.5706 117.879 48.7084 117.466 48.7084C116.743 48.7084 116.088 48.3295 115.709 47.7439C115.709 47.7439 117.087 46.1248 117.879 44.9192C118.224 44.368 118.121 43.6446 117.638 43.2313C117.018 42.7145 116.123 42.8868 115.709 43.5757C115.261 44.2647 114.676 45.0225 114.297 45.4703ZM109.164 36.2385C109.44 35.9629 109.784 35.8251 110.163 35.8251C110.542 35.8251 110.887 35.9973 111.197 36.3073C111.472 36.6174 111.644 37.0307 111.644 37.4786C111.644 38.0986 111.472 38.5809 111.162 38.9598C110.852 39.3387 110.473 39.6487 110.025 39.9588C109.715 39.5454 109.44 39.2009 109.164 38.7531C108.923 38.3397 108.751 37.8919 108.751 37.3408C108.751 36.893 108.889 36.514 109.164 36.2385ZM110.783 48.3983C110.163 48.605 109.647 48.7773 109.095 48.7773C108.785 48.7773 108.165 48.7084 107.89 48.605C107.614 48.4672 107.373 48.3295 107.166 48.1228C106.96 47.9161 106.787 47.675 106.65 47.3649C106.512 47.0549 106.443 46.7449 106.477 46.4004C106.477 46.0559 106.546 45.7804 106.65 45.5048C106.787 45.1948 106.96 44.9536 107.166 44.7125C107.373 44.4714 107.786 44.1613 108.062 43.9891C108.338 43.8169 108.785 43.6102 109.061 43.4724L112.265 47.6061C111.989 47.8127 111.093 48.295 110.783 48.3983Z" fill="white"/>
<path d="M50.8091 79.6422C54.2883 79.6422 57.8019 79.6422 61.2811 79.6422C63.7613 79.6422 65.0703 81.089 64.9669 83.5348C64.3125 96.2114 56.0107 105.65 43.6096 107.855C30.8297 110.128 17.7741 101.344 15.0184 88.6674C11.4358 72.1327 23.6991 57.1826 40.5438 57.6304C47.7433 57.8371 53.806 60.7996 58.6286 66.1389C59.7999 67.4134 60.1099 68.8602 59.1798 70.3759C58.3531 71.7194 57.0785 72.0294 55.5973 71.7194C54.7361 71.5471 54.2194 70.9615 53.6682 70.3759C48.1222 64.3821 40.0616 62.5219 32.6898 65.4844C25.3181 68.4469 20.6677 75.6464 20.8744 83.7415C21.1155 92.5944 28.625 100.69 37.4091 101.551C46.9166 102.481 55.6662 96.5214 57.8708 87.6685C58.0086 87.0484 58.2153 86.1183 58.2153 86.1183C58.2153 86.1183 57.2163 86.1183 56.5963 86.1183H39.7515C37.788 86.1183 36.4101 84.7404 36.4101 82.9492C36.3757 81.1579 37.7536 79.7456 39.6826 79.6422C40.8194 79.5733 41.9562 79.6422 43.1274 79.6422C45.642 79.6422 48.2256 79.6422 50.8091 79.6422Z" fill="#FCFEFE"/>
<path d="M95.0395 64.1409C105.408 64.1409 113.813 72.5805 113.813 82.9147C113.813 93.2489 105.374 101.688 95.0395 101.688C84.7053 101.688 76.2657 93.2489 76.2657 82.9147C76.2657 72.5805 84.7053 64.1409 95.0395 64.1409ZM95.0395 57.5959C81.0539 57.5959 69.7207 68.9291 69.7207 82.9147C69.7207 96.9003 81.0539 108.233 95.0395 108.233C109.025 108.233 120.358 96.9003 120.358 82.9147C120.358 68.9291 109.025 57.5959 95.0395 57.5959Z" fill="white"/>
<path d="M90.6655 82.8113C90.6655 80.6411 90.6655 78.4709 90.6655 76.3008C90.6655 75.6807 90.5966 74.9918 91.2511 74.6128C91.94 74.2339 92.4567 74.7162 92.939 75.0607C95.867 77.2653 98.7606 79.4699 101.689 81.6745C102.825 82.5357 102.756 83.2936 101.654 84.1203C98.7262 86.3249 95.7981 88.5295 92.9046 90.7342C92.3878 91.1131 91.8022 91.5609 91.1822 91.2509C90.5621 90.9064 90.6655 90.183 90.6655 89.5285C90.631 87.2894 90.631 85.0504 90.6655 82.8113Z" fill="#EF9424"/>
<path d="M67 3.44473C83.9825 3.44473 99.9316 10.0586 111.954 22.0807C123.976 34.1028 130.59 50.0519 130.59 67.0344C130.59 84.017 123.976 99.9661 111.954 111.988C99.9316 124.01 83.9825 130.624 67 130.624C50.0175 130.624 34.0684 124.01 22.0463 111.988C10.0586 99.9661 3.44473 83.9825 3.44473 67.0344C3.44473 50.0864 10.0586 34.1028 22.0807 22.0807C34.0684 10.0586 50.0519 3.44473 67 3.44473ZM67 0C30.0036 0 0 30.0036 0 67C0 103.996 30.0036 134 67 134C103.996 134 134 103.996 134 67C134 30.0036 104.031 0 67 0Z" fill="white"/>
</svg>
