<svg width="44" height="44" viewBox="0 0 44 44" fill="none" xmlns="http://www.w3.org/2000/svg">
<rect x="0.5" y="0.5" width="43" height="43" rx="15.5" fill="white" stroke="#F0F0F5"/>
<path d="M27 17.845C28.6569 17.845 30 16.5279 30 14.9031C30 13.2784 28.6569 11.9612 27 11.9612C25.3431 11.9612 24 13.2784 24 14.9031C24 16.5279 25.3431 17.845 27 17.845Z" fill="#F3FAFD" stroke="#0090D0" stroke-width="1.5" stroke-linecap="round" stroke-linejoin="round"/>
<path d="M15 24.7095C16.6569 24.7095 18 23.3923 18 21.7676C18 20.1428 16.6569 18.8257 15 18.8257C13.3431 18.8257 12 20.1428 12 21.7676C12 23.3923 13.3431 24.7095 15 24.7095Z" fill="#F3FAFD" stroke="#0090D0" stroke-width="1.5" stroke-linecap="round" stroke-linejoin="round"/>
<path d="M27 31.5738C28.6569 31.5738 30 30.2567 30 28.632C30 27.0072 28.6569 25.6901 27 25.6901C25.3431 25.6901 24 27.0072 24 28.632C24 30.2567 25.3431 31.5738 27 31.5738Z" fill="#F3FAFD" stroke="#0090D0" stroke-width="1.5" stroke-linecap="round" stroke-linejoin="round"/>
<path d="M17.59 23.2483L24.42 27.1512" stroke="#0090D0" stroke-width="1.5" stroke-linecap="round" stroke-linejoin="round"/>
<path d="M24.41 16.3839L17.59 20.2868" stroke="#0090D0" stroke-width="1.5" stroke-linecap="round" stroke-linejoin="round"/>
</svg>
