<svg width="26" height="20" viewBox="0 0 26 20" fill="none" xmlns="http://www.w3.org/2000/svg">
<path d="M7.98638 20C17.5982 20 22.8538 12.3037 22.8538 5.63351C22.8538 5.41361 22.8538 5.19372 22.843 4.98429C23.8616 4.27225 24.7502 3.3822 25.4545 2.36649C24.5226 2.7644 23.5148 3.03665 22.4529 3.1623C23.5365 2.53403 24.3601 1.54974 24.7502 0.366492C23.7424 0.942408 22.6263 1.36126 21.4343 1.59162C20.4807 0.607329 19.1261 0 17.6199 0C14.7374 0 12.3968 2.26178 12.3968 5.04712C12.3968 5.44503 12.4401 5.83246 12.5376 6.19895C8.19227 5.98953 4.34537 3.97906 1.76632 0.921467C1.32203 1.66492 1.06196 2.53403 1.06196 3.4555C1.06196 5.20419 1.98305 6.75393 3.39177 7.65445C2.5357 7.63351 1.73381 7.40314 1.02945 7.02618V7.089C1.02945 9.53927 2.82828 11.5707 5.22311 12.0419C4.78966 12.1571 4.3237 12.2199 3.8469 12.2199C3.51097 12.2199 3.18588 12.1885 2.86079 12.1257C3.52181 14.1361 5.45068 15.5916 7.73714 15.6335C5.94915 16.9843 3.69519 17.7906 1.24618 17.7906C0.823561 17.7906 0.411781 17.7696 0 17.7173C2.28647 19.1623 5.03889 20 7.98638 20Z" fill="#0090D0"/>
</svg>
