<svg width="732" height="32" viewBox="0 0 732 32" fill="none" xmlns="http://www.w3.org/2000/svg">
<rect width="4" height="32" rx="2" fill="#EDAC09"/>
<rect x="192" width="4" height="32" rx="2" fill="#EDAC09"/>
<rect x="384" width="4" height="32" rx="2" fill="#EDAC09"/>
<rect x="96" width="4" height="32" rx="2" fill="#EDAC09"/>
<rect x="288" width="4" height="32" rx="2" fill="#EDAC09"/>
<rect x="480" width="4" height="32" rx="2" fill="#EDAC09"/>
<rect x="48" width="4" height="32" rx="2" fill="#EDAC09"/>
<rect x="240" width="4" height="32" rx="2" fill="#EDAC09"/>
<rect x="432" width="4" height="32" rx="2" fill="#EDAC09"/>
<rect x="144" width="4" height="32" rx="2" fill="#EDAC09"/>
<rect x="336" width="4" height="32" rx="2" fill="#EDAC09"/>
<rect x="528" width="4" height="32" rx="2" fill="#EDAC09"/>
<rect x="12" width="4" height="32" rx="2" fill="#EDAC09"/>
<rect x="204" width="4" height="32" rx="2" fill="#EDAC09"/>
<rect x="396" width="4" height="32" rx="2" fill="#EDAC09"/>
<rect x="108" width="4" height="32" rx="2" fill="#EDAC09"/>
<rect x="300" width="4" height="32" rx="2" fill="#EDAC09"/>
<rect x="492" width="4" height="32" rx="2" fill="#EDAC09"/>
<rect x="60" width="4" height="32" rx="2" fill="#EDAC09"/>
<rect x="252" width="4" height="32" rx="2" fill="#EDAC09"/>
<rect x="444" width="4" height="32" rx="2" fill="#EDAC09"/>
<rect x="156" width="4" height="32" rx="2" fill="#EDAC09"/>
<rect x="348" width="4" height="32" rx="2" fill="#EDAC09"/>
<rect x="540" width="4" height="32" rx="2" fill="#EDAC09"/>
<rect x="24" width="4" height="32" rx="2" fill="#EDAC09"/>
<rect x="216" width="4" height="32" rx="2" fill="#EDAC09"/>
<rect x="408" width="4" height="32" rx="2" fill="#EDAC09"/>
<rect x="120" width="4" height="32" rx="2" fill="#EDAC09"/>
<rect x="312" width="4" height="32" rx="2" fill="#EDAC09"/>
<rect x="504" width="4" height="32" rx="2" fill="#EDAC09"/>
<rect x="72" width="4" height="32" rx="2" fill="#EDAC09"/>
<rect x="264" width="4" height="32" rx="2" fill="#EDAC09"/>
<rect x="456" width="4" height="32" rx="2" fill="#EDAC09"/>
<rect x="168" width="4" height="32" rx="2" fill="#EDAC09"/>
<rect x="360" width="4" height="32" rx="2" fill="#EDAC09"/>
<rect x="552" width="4" height="32" rx="2" fill="#EDAC09"/>
<rect x="36" width="4" height="32" rx="2" fill="#EDAC09"/>
<rect x="228" width="4" height="32" rx="2" fill="#EDAC09"/>
<rect x="420" width="4" height="32" rx="2" fill="#EDAC09"/>
<rect x="132" width="4" height="32" rx="2" fill="#EDAC09"/>
<rect x="324" width="4" height="32" rx="2" fill="#EDAC09"/>
<rect x="516" width="4" height="32" rx="2" fill="#EDAC09"/>
<rect x="84" width="4" height="32" rx="2" fill="#EDAC09"/>
<rect x="276" width="4" height="32" rx="2" fill="#EDAC09"/>
<rect x="468" width="4" height="32" rx="2" fill="#EDAC09"/>
<rect x="180" width="4" height="32" rx="2" fill="#EDAC09"/>
<rect x="372" width="4" height="32" rx="2" fill="#EDAC09"/>
<rect x="564" width="4" height="32" rx="2" fill="#EDAC09"/>
<rect x="576" width="156" height="32" rx="2" fill="#EDAC09"/>
</svg>
