<svg width="15" height="14" viewBox="0 0 15 14" fill="none" xmlns="http://www.w3.org/2000/svg">
<path fill-rule="evenodd" clip-rule="evenodd" d="M4.26074 12.7826C4.26074 12.1102 4.80579 11.5652 5.47813 11.5652C6.15048 11.5652 6.69552 12.1102 6.69552 12.7826C6.69552 13.4549 6.15048 14 5.47813 14C4.80579 14 4.26074 13.4549 4.26074 12.7826Z" fill="#231F20"/>
<path fill-rule="evenodd" clip-rule="evenodd" d="M10.9565 12.7826C10.9565 12.1102 11.5016 11.5652 12.1739 11.5652C12.8463 11.5652 13.3913 12.1102 13.3913 12.7826C13.3913 13.4549 12.8463 14 12.1739 14C11.5016 14 10.9565 13.4549 10.9565 12.7826Z" fill="#231F20"/>
<path fill-rule="evenodd" clip-rule="evenodd" d="M0 0.608696C0 0.272522 0.272522 0 0.608696 0H3.04348C3.3336 0 3.5834 0.204756 3.64034 0.489235L4.15157 3.04348H14C14.1814 3.04348 14.3534 3.12439 14.469 3.26416C14.5846 3.40394 14.6319 3.588 14.5979 3.7662L13.6231 8.87772C13.5396 9.29808 13.3109 9.67568 12.9771 9.94442C12.6449 10.2118 12.2297 10.3545 11.8034 10.3478H5.89744C5.47119 10.3545 5.05595 10.2118 4.72377 9.94442C4.39006 9.67579 4.16143 9.29838 4.07785 8.87823C4.07782 8.87806 4.07789 8.8784 4.07785 8.87823L3.061 3.79778C3.05688 3.78097 3.05345 3.76389 3.05075 3.74657L2.54454 1.21739H0.608696C0.272522 1.21739 0 0.944869 0 0.608696ZM4.39523 4.26087L5.27182 8.64055C5.29965 8.78067 5.37587 8.90653 5.48716 8.99612C5.59844 9.0857 5.73768 9.13328 5.88051 9.13055L5.89217 9.13043H11.8087L11.8204 9.13055C11.9632 9.13328 12.1024 9.0857 12.2137 8.99612C12.3245 8.90695 12.4005 8.78184 12.4287 8.6425L13.2643 4.26087H4.39523Z" fill="#231F20"/>
</svg>
