<svg width="16" height="16" viewBox="0 0 16 16" fill="none" xmlns="http://www.w3.org/2000/svg">
<path fill-rule="evenodd" clip-rule="evenodd" d="M7.20039 4.8C7.20039 4.3584 7.55879 4 8.00039 4C8.44199 4 8.80039 4.3584 8.80039 4.8C8.80039 5.2416 8.44199 5.6 8.00039 5.6C7.55879 5.6 7.20039 5.2416 7.20039 4.8ZM7.2002 7.2C7.2002 6.7584 7.5586 6.4 8.0002 6.4C8.4418 6.4 8.8002 6.7584 8.8002 7.2V11.2C8.8002 11.6416 8.4418 12 8.0002 12C7.5586 12 7.2002 11.6416 7.2002 11.2V7.2Z" fill="#231F20"/>
<path fill-rule="evenodd" clip-rule="evenodd" d="M0 8C0 3.5816 3.5816 0 8 0C12.4176 0 16 3.5816 16 8C16 12.4184 12.4176 16 8 16C3.5816 16 0 12.4184 0 8ZM1.6 8C1.6 11.5288 4.4712 14.4 8 14.4C11.5288 14.4 14.4 11.5288 14.4 8C14.4 4.4712 11.5288 1.6 8 1.6C4.4712 1.6 1.6 4.4712 1.6 8Z" fill="#231F20"/>
</svg>
