<svg width="16" height="16" viewBox="0 0 16 16" fill="none" xmlns="http://www.w3.org/2000/svg">
<path d="M5.04672 13.219L5.04676 13.219C5.35197 12.9224 5.73591 13.0189 5.90771 13.0892L5.04672 13.219ZM5.04672 13.219L5.04142 13.2243M5.04672 13.219L5.04142 13.2243M5.04142 13.2243L4.42619 13.8403C4.42606 13.8404 4.42593 13.8406 4.4258 13.8407C4.09526 14.1698 3.55914 14.1693 3.23142 13.8411L3.23115 13.8408M5.04142 13.2243L3.23115 13.8408M3.23115 13.8408L2.15915 12.7688C1.99912 12.6088 1.91215 12.3988 1.912 12.171M3.23115 13.8408L2.8776 14.1944L1.8056 13.1224C1.5512 12.868 1.412 12.5304 1.412 12.1704M1.412 12.1704L1.912 12.1715C1.912 12.1713 1.912 12.1712 1.912 12.171M1.412 12.1704C1.4128 11.8112 1.5528 11.4736 1.808 11.2192M1.412 12.1704L1.808 11.2192M1.912 12.171C1.91264 11.9441 2 11.7338 2.161 11.5733M1.912 12.171L2.161 11.5733M2.161 11.5733L2.77526 10.9614L2.77595 10.9608C3.06587 10.6708 2.99606 10.2975 2.92185 10.1196C2.85004 9.94524 2.64541 9.6 2.2136 9.6H1.3464C0.879755 9.6 0.5 9.22027 0.5 8.7544V7.2408C0.5 6.77733 0.877354 6.4 1.3416 6.4H2.2136C2.62643 6.4 2.83947 6.07986 2.91006 5.90865C2.98111 5.73741 3.08102 5.34671 2.77595 5.04165L2.77572 5.04142L2.15996 4.42646C2.15982 4.42632 2.15968 4.42617 2.15954 4.42603C1.8305 4.09503 1.8318 3.55851 2.15915 3.23115L3.23115 2.15915C3.39166 1.99865 3.60123 1.912 3.828 1.912H3.8296C4.05629 1.912 4.26685 1.99934 4.42614 2.15964L4.42633 2.15983L5.03758 2.77427C5.03776 2.77446 5.03793 2.77464 5.03811 2.77482C5.331 3.06994 5.70984 2.99405 5.88345 2.92089C6.05268 2.84993 6.4 2.6456 6.4 2.2136V1.3464C6.4 0.880142 6.78014 0.5 7.2464 0.5H8.76C9.22306 0.5 9.6008 0.877743 9.6008 1.3408V2.2136C9.6008 2.62451 9.91751 2.83835 10.0912 2.91001C10.2596 2.97967 10.6517 3.08343 10.9592 2.77596L10.9594 2.77572L11.5746 2.15969C11.5747 2.15959 11.5748 2.15949 11.5749 2.15939C11.9054 1.8302 12.4416 1.83064 12.7694 2.15888L12.7696 2.15915L13.8424 3.23195L13.843 3.23251C14.0026 3.39157 14.0893 3.60111 14.0888 3.82849V3.8296C14.0888 4.05533 14.0016 4.26593 13.8412 4.42534L13.8407 4.42576L13.2255 5.03856L13.2248 5.03925C12.935 5.32912 13.0047 5.70238 13.0789 5.88029C13.1507 6.05463 13.3553 6.4 13.7872 6.4H14.6544C15.1207 6.4 15.5 6.77934 15.5 7.2456V8.7592C15.5 9.22306 15.1231 9.6 14.6592 9.6H13.7872C13.3854 9.6 13.1729 9.9032 13.0967 10.0773C13.0942 10.0828 13.0922 10.0874 13.0914 10.0894L13.0866 10.1007L13.0865 10.101L13.085 10.1046L13.0797 10.1174C13.0097 10.2863 12.9316 10.6651 13.2248 10.9584L13.2251 10.9586L13.8408 11.5735C13.841 11.5737 13.8412 11.5739 13.8413 11.574C14.1703 11.905 14.169 12.4415 13.8416 12.7688L12.7696 13.8408C12.6091 14.0014 12.3996 14.088 12.1728 14.088H12.1712C11.9445 14.088 11.734 14.0007 11.5747 13.8404L11.5745 13.8402L10.9625 13.225L10.9616 13.224C10.6685 12.931 10.2898 13.007 10.1184 13.0786C9.94962 13.1492 9.6008 13.3535 9.6008 13.7864V14.6536C9.6008 15.1199 9.22066 15.5 8.7544 15.5H7.2408C6.77774 15.5 6.4 15.1223 6.4 14.6592V13.7864C6.4 13.3742 6.08132 13.1603 5.90797 13.0893L2.161 11.5733ZM1.808 11.2192L2.4224 10.6072L1.808 11.2192Z" stroke="black"/>
<mask id="path-2-inside-1" fill="white">
<path fill-rule="evenodd" clip-rule="evenodd" d="M7.8 10.8C6.256 10.8 5 9.54395 5 7.99995C5 6.45595 6.256 5.19995 7.8 5.19995C9.344 5.19995 10.6 6.45595 10.6 7.99995C10.6 9.54395 9.344 10.8 7.8 10.8Z"/>
</mask>
<path d="M7.8 9.79995C6.80828 9.79995 6 8.99167 6 7.99995H4C4 10.0962 5.70372 11.8 7.8 11.8V9.79995ZM6 7.99995C6 7.00824 6.80828 6.19995 7.8 6.19995V4.19995C5.70372 4.19995 4 5.90367 4 7.99995H6ZM7.8 6.19995C8.79172 6.19995 9.6 7.00824 9.6 7.99995H11.6C11.6 5.90367 9.89628 4.19995 7.8 4.19995V6.19995ZM9.6 7.99995C9.6 8.99167 8.79172 9.79995 7.8 9.79995V11.8C9.89628 11.8 11.6 10.0962 11.6 7.99995H9.6Z" fill="black" mask="url(#path-2-inside-1)"/>
</svg>
