<svg width="16" height="16" viewBox="0 0 16 16" fill="none" xmlns="http://www.w3.org/2000/svg">
<path d="M2.94468 3.91668C2.33948 4.50334 2 5.29543 2 6.12086C2 6.9463 2.33948 7.73839 2.94468 8.32505L7.57635 12.8334C7.79783 13.048 8.1648 13.0563 8.39715 12.8522L13.0544 8.33047C13.6602 7.74407 14 6.95188 14 6.12628C14 5.30068 13.6602 4.50849 13.0544 3.92209C11.7937 2.69708 9.69566 2.69708 8.43493 3.92209L8.30899 4.04293C8.26847 4.08184 8.22032 4.11268 8.16733 4.13366C8.11433 4.15463 8.05752 4.16533 8.00019 4.16514C7.94286 4.16494 7.88614 4.15386 7.83329 4.13253C7.78045 4.11119 7.73253 4.08003 7.6923 4.04084L7.56419 3.91626C6.93404 3.30417 6.09369 3 5.25465 3C4.41518 3 3.57527 3.30417 2.94468 3.91668V3.91668Z" stroke="#505050" stroke-width="2"/>
</svg>
