<svg width="309" height="138" viewBox="0 0 309 138" fill="none" xmlns="http://www.w3.org/2000/svg">
<path d="M72.89 11.15L57 69.23H47.76L36.53 27L25.13 69.23H15.89L0 11.15H9.15L20.47 53.34L31.87 11.15H40.94L52.42 53.34L63.74 11.15H72.89Z" fill="white"/>
<path d="M77.13 11.32L86.28 10.57V24.8L86.12 30.12H86.45C90.2055 28.597 94.2175 27.8062 98.27 27.79C105.67 27.79 110.66 31.12 110.66 43.85V69.23H101.51V44.6C101.51 36.94 97.77 35.95 93.51 35.95C91.0496 36.013 88.6111 36.4307 86.27 37.19V69.19H77.13V11.32Z" fill="white"/>
<path d="M123.23 11.9C127.97 11.9 128.72 14.64 128.72 17.72C128.72 20.8 127.72 23.63 123.23 23.63C118.74 23.63 117.82 20.8 117.82 17.72C117.82 14.64 118.65 11.9 123.23 11.9ZM118.65 28.37H127.8V69.23H118.65V28.37Z" fill="white"/>
<path d="M135.54 28.37H141.78L143 31.7H143.58C146.738 29.0929 150.726 27.7055 154.82 27.79C155.458 27.7786 156.095 27.8053 156.73 27.87V36.87C155.025 36.5754 153.3 36.4083 151.57 36.37C149.183 36.3873 146.831 36.9446 144.69 38V69.2H135.54V28.37Z" fill="white"/>
<path d="M160.67 69.23V11.32L169.82 10.57V69.23H160.67Z" fill="white"/>
<path d="M234.89 27.79C247.89 27.79 252.89 35.45 252.89 49.01C252.89 61.74 248.23 70.06 234.75 70.06C221.27 70.06 216.5 61.74 216.5 49C216.5 35.45 221.91 27.79 234.89 27.79ZM243.54 49C243.54 41.26 242.29 34.94 234.97 34.94C227.65 34.94 225.73 41 225.73 49C225.73 56.4 227.23 62.81 234.55 62.81C241.87 62.81 243.54 56.75 243.54 49Z" fill="white"/>
<path d="M275.93 27.79C288.93 27.79 293.93 35.45 293.93 49.01C293.93 61.74 289.27 70.06 275.79 70.06C262.31 70.06 257.54 61.74 257.54 49C257.54 35.45 263 27.79 275.93 27.79ZM284.58 49C284.58 41.26 283.33 34.94 276.01 34.94C268.69 34.94 266.78 41 266.78 49C266.78 56.4 268.27 62.81 275.6 62.81C282.93 62.81 284.58 56.75 284.58 49Z" fill="white"/>
<path d="M299.83 69.23V11.32L308.98 10.57V69.23H299.83Z" fill="white"/>
<path d="M177.31 28.37H184.22L184.96 31.37C187.71 29.87 192.78 27.79 197.36 27.79C205.68 27.79 211.76 33.86 211.76 48.43C211.76 62.74 205.35 69.81 194.7 69.81C191.935 69.7572 189.18 69.4796 186.46 68.98V87.7L177.31 88.7V28.37ZM186.46 61.66C189.04 61.74 190.46 61.82 193.12 61.82C198.78 61.82 202.52 58.82 202.52 46.93C202.52 38.77 199.19 36.61 193.2 36.61C190.904 36.6266 188.627 37.0219 186.46 37.78V61.66Z" fill="white"/>
<path d="M222.62 3.27C215.78 -4.66 194.06 2.27 169.82 19.08V23.31C191.17 8.14 210 1.14 215.37 7.38C222.1 15.18 205.37 40.68 177.98 64.31C150.59 87.94 122.98 100.76 116.21 92.96C112.71 88.96 115.56 80.08 122.93 69.23H118.65C109.52 82.84 106.1 94.23 110.78 99.71C119.33 109.62 151.29 96.07 182.17 69.43C213.05 42.79 231.17 13.17 222.62 3.27Z" fill="#FEC00F"/>
<path d="M8.76999 133.25C10.0284 133.891 11.4177 134.233 12.83 134.25C14.51 134.25 15.39 133.56 15.39 132.5C15.39 131.44 14.63 130.92 12.68 130.24C9.98999 129.24 8.21999 127.8 8.21999 125.44C8.21999 122.68 10.55 120.59 14.34 120.59C15.761 120.548 17.173 120.828 18.47 121.41L17.65 124.34C16.6041 123.828 15.4543 123.565 14.29 123.57C12.71 123.57 11.94 124.31 11.94 125.13C11.94 126.13 12.83 126.62 14.94 127.41C17.79 128.47 19.11 129.96 19.11 132.24C19.11 134.95 17.05 137.24 12.61 137.24C11.0241 137.257 9.45494 136.915 8.01999 136.24L8.76999 133.25Z" fill="white"/>
<path d="M32.67 130.18H26.67V134H33.32V137H23.07V120.84H33V123.84H26.72V127.21H32.72L32.67 130.18Z" fill="white"/>
<path d="M37.3 137V120.84H41.58L44.94 126.77C45.9281 128.567 46.8096 130.42 47.58 132.32H47.63C47.4168 130.07 47.32 127.81 47.34 125.55V120.84H50.7V137H46.86L43.4 130.76C42.3539 128.912 41.4157 127.006 40.59 125.05H40.5C40.62 127.21 40.67 129.49 40.67 132.13V137H37.3Z" fill="white"/>
<path d="M55.42 133.25C56.6784 133.891 58.0678 134.233 59.48 134.25C61.16 134.25 62.05 133.56 62.05 132.5C62.05 131.44 61.28 130.92 59.34 130.24C56.65 129.24 54.87 127.8 54.87 125.44C54.87 122.68 57.2 120.59 60.99 120.59C62.411 120.548 63.823 120.828 65.12 121.41L64.31 124.34C63.26 123.83 62.1073 123.567 60.94 123.57C59.36 123.57 58.59 124.31 58.59 125.13C58.59 126.13 59.48 126.62 61.59 127.41C64.45 128.47 65.77 129.96 65.77 132.24C65.77 134.95 63.71 137.24 59.26 137.24C57.6773 137.257 56.1113 136.916 54.68 136.24L55.42 133.25Z" fill="white"/>
<path d="M73.38 120.84V137H69.73V120.84H73.38Z" fill="white"/>
<path d="M78 137V120.84H82.28L85.64 126.77C86.6281 128.567 87.5097 130.42 88.28 132.32C88.07 130.18 88 128 88 125.55V120.84H91.36V137H87.54L84.08 130.76C83.0339 128.912 82.0957 127.006 81.27 125.05H81.18C81.3 127.21 81.34 129.49 81.34 132.13V137H78Z" fill="white"/>
<path d="M109.5 136.28C107.756 136.853 105.935 137.159 104.1 137.19C101.1 137.19 99.01 136.45 97.52 135.03C96.765 134.249 96.1743 133.324 95.7827 132.311C95.3911 131.297 95.2066 130.216 95.24 129.13C95.24 123.75 99.18 120.68 104.48 120.68C106.012 120.637 107.537 120.895 108.97 121.44L108.2 124.44C107.023 123.925 105.744 123.686 104.46 123.74C101.46 123.74 99.08 125.44 99.08 128.97C99.08 132.33 101.19 134.28 104.19 134.28C104.805 134.287 105.416 134.192 106 134V130.59H103.5V127.74H109.5V136.28Z" fill="white"/>
<path d="M121.81 137L118 120.84H121.91L123.13 127.49C123.49 129.49 123.83 131.49 124.13 133.16C124.4 131.41 124.78 129.46 125.19 127.45L126.56 120.84H130.44L131.74 127.66C132.1 129.56 132.36 131.29 132.6 133.09C132.84 131.29 133.2 129.39 133.54 127.45L134.86 120.84H138.58L134.43 137H130.43L129.06 130C128.75 128.37 128.49 126.86 128.3 125H128.25C127.96 126.82 127.7 128.36 127.31 130L125.78 137H121.81Z" fill="white"/>
<path d="M145.62 120.84V127.06H151.62V120.84H155.27V137H151.62V130.23H145.62V137H142V120.84H145.62Z" fill="white"/>
<path d="M163.69 132.87L162.54 137H158.77L163.69 120.82H168.49L173.49 137H169.49L168.24 132.85L163.69 132.87ZM167.79 130.13L166.79 126.7C166.51 125.7 166.22 124.54 165.98 123.58H165.93C165.69 124.58 165.45 125.77 165.19 126.7L164.19 130.13H167.79Z" fill="white"/>
<path d="M178.26 123.92H173.89V120.84H186.32V123.92H181.9V137H178.26V123.92Z" fill="white"/>
<path d="M209.67 130.83C209.6 128.89 209.53 126.53 209.53 124.18H209.48C208.95 126.25 208.28 128.55 207.66 130.45L205.66 136.76H202.8L201.07 130.52C200.55 128.6 200.07 126.29 199.61 124.18C199.54 126.37 199.44 128.86 199.35 130.88L199 137H195.61L196.61 120.82H201.49L203.07 126.23C203.6 128.1 204.07 130.11 204.44 132.01H204.53C204.97 130.14 205.53 128.01 206.07 126.2L207.77 120.82H212.57L213.44 137H209.89L209.67 130.83Z" fill="white"/>
<path d="M221.43 132.87L220.28 137H216.51L221.43 120.82H226.23L231.23 137H227.23L225.98 132.85L221.43 132.87ZM225.54 130.13L224.54 126.7C224.25 125.7 223.96 124.54 223.72 123.58H223.67C223.43 124.58 223.19 125.77 222.93 126.7L221.93 130.13H225.54Z" fill="white"/>
<path d="M236 123.92H231.63V120.84H244.06V123.92H239.65V137H236V123.92Z" fill="white"/>
<path d="M251.12 123.92H246.75V120.84H259.18V123.92H254.77V137H251.12V123.92Z" fill="white"/>
<path d="M272.19 130.18H266.24V134H272.89V137H262.59V120.84H272.59V123.84H266.28V127.21H272.23L272.19 130.18Z" fill="white"/>
<path d="M276.82 121.06C278.432 120.823 280.06 120.71 281.69 120.72C284.09 120.72 285.77 121.08 286.93 122C287.432 122.408 287.83 122.928 288.093 123.519C288.355 124.11 288.474 124.754 288.44 125.4C288.429 126.279 288.15 127.134 287.638 127.849C287.127 128.564 286.408 129.106 285.58 129.4V129.47C286.71 129.92 287.33 130.98 287.74 132.47C288.25 134.32 288.74 136.47 289.04 137.05H285.29C284.812 135.829 284.444 134.567 284.19 133.28C283.73 131.28 283.04 130.72 281.53 130.69H280.45V137H276.82V121.06ZM280.45 128.06H281.89C283.71 128.06 284.79 127.15 284.79 125.73C284.79 124.31 283.79 123.5 282.1 123.5C281.547 123.477 280.994 123.518 280.45 123.62V128.06Z" fill="white"/>
<path d="M292.61 133.25C293.868 133.891 295.258 134.233 296.67 134.25C298.35 134.25 299.24 133.56 299.24 132.5C299.24 131.44 298.47 130.92 296.53 130.24C293.84 129.24 292.06 127.8 292.06 125.44C292.06 122.68 294.39 120.59 298.18 120.59C299.601 120.548 301.013 120.828 302.31 121.41L301.49 124.34C300.444 123.828 299.294 123.565 298.13 123.57C296.55 123.57 295.78 124.31 295.78 125.13C295.78 126.13 296.67 126.62 298.78 127.41C301.64 128.47 302.96 129.96 302.96 132.24C302.96 134.95 300.89 137.24 296.45 137.24C294.867 137.257 293.301 136.916 291.87 136.24L292.61 133.25Z" fill="white"/>
</svg>
