<?xml version="1.0" encoding="utf-8"?>
<!-- Generator: Adobe Illustrator 25.2.3, SVG Export Plug-In . SVG Version: 6.00 Build 0)  -->
<svg version="1.1" id="Livello_1" xmlns="http://www.w3.org/2000/svg" xmlns:xlink="http://www.w3.org/1999/xlink" x="0px" y="0px"
	 viewBox="0 0 841.89 595.28" style="enable-background:new 0 0 841.89 595.28;" xml:space="preserve">
<style type="text/css">
	.st0{clip-path:url(#SVGID_2_);}
	.st1{opacity:0.45;fill:#010202;}
	.st2{fill:none;stroke:#FFFFFF;stroke-width:5.8477;stroke-miterlimit:10;}
	.st3{fill:#EE7203;}
	.st4{clip-path:url(#SVGID_6_);}
	.st5{fill:#FFFFFF;}
	.st6{font-family:'Montserrat-Bold';}
	.st7{font-size:61.4004px;}
</style>
<g>
	<g>
		<g>
			<defs>
				<circle id="SVGID_5_" cx="420.94" cy="297.75" r="290.55"/>
			</defs>
			<clipPath id="SVGID_2_">
				<use xlink:href="#SVGID_5_"  style="overflow:visible;"/>
			</clipPath>
			<g class="st0">
				<rect x="2.49" y="-10.16" width="836.9" height="605.99"/>
			</g>
		</g>
		<circle class="st2" cx="420.94" cy="297.75" r="261.5"/>
	</g>
	<g>
		<g>
			<path class="st3" d="M491.29,218.78c15.2,12.94,22.8,30.19,22.8,51.75c0,14.02-3.61,26.9-10.83,38.65
				c-7.23,11.75-18.22,21.13-32.99,28.14c-14.77,7-33.04,10.51-54.82,10.51c-15.96,0-31.75-1.94-47.38-5.82
				c-15.63-3.88-29.06-9.38-40.26-16.49l22.96-48.19c9.06,6.04,19.03,10.67,29.92,13.91c10.88,3.23,21.83,4.85,32.83,4.85
				c11,0,19.78-2.1,26.36-6.31c6.57-4.2,9.86-10.08,9.86-17.63c0-7.54-3.23-13.26-9.7-17.14c-6.47-3.88-17.9-5.82-34.28-5.82H344.3
				l11.32-132.27h144.24v49.48h-91.2l-2.91,32.99h15.2C452.64,199.37,476.09,205.84,491.29,218.78z"/>
		</g>
		<text transform="matrix(1 0 0 1 253.2324 462.2617)" class="st5 st6 st7">GARANTIE</text>
		<text transform="matrix(1 0 0 1 315.1841 405.7354)" class="st3 st6 st7">ans de</text>
	</g>
</g>
</svg>
