<svg width="10" height="12" viewBox="0 0 10 12" fill="none" xmlns="http://www.w3.org/2000/svg">
<path fill-rule="evenodd" clip-rule="evenodd" d="M4.8 0C2.1534 0 0 2.1324 0 4.7538C0 8.0382 4.2294 11.7012 4.4094 11.8554C4.5222 11.952 4.6608 12 4.8 12C4.9392 12 5.0778 11.952 5.1906 11.8554C5.3706 11.7012 9.6 8.0382 9.6 4.7538C9.6 2.1324 7.4466 0 4.8 0Z" fill="white"/>
<path fill-rule="evenodd" clip-rule="evenodd" d="M4.8002 6.59996C3.6422 6.59996 2.7002 5.65796 2.7002 4.49996C2.7002 3.34196 3.6422 2.39996 4.8002 2.39996C5.9582 2.39996 6.9002 3.34196 6.9002 4.49996C6.9002 5.65796 5.9582 6.59996 4.8002 6.59996Z" fill="black"/>
</svg>
