<svg width="15" height="15" viewBox="0 0 15 15" fill="none" xmlns="http://www.w3.org/2000/svg">
<mask id="path-1-inside-1" fill="white">
<path fill-rule="evenodd" clip-rule="evenodd" d="M11.55 15C5.181 15 0 9.819 0 3.45C0 1.54725 1.548 0 3.45 0C3.645 0 3.83775 0.0165 4.0245 0.04875C4.20675 0.078 4.3905 0.1245 4.56825 0.186C4.81275 0.27075 4.99575 0.4755 5.0535 0.7275L6.081 5.2005C6.13725 5.4465 6.066 5.7045 5.89125 5.8875C5.7885 5.994 5.78625 5.99625 4.85625 6.483C5.60925 8.1135 6.918 9.41775 8.51625 10.1453C9.003 9.2145 9.006 9.2115 9.1125 9.1095C9.29625 8.934 9.555 8.86575 9.80025 8.91975L14.2733 9.9465C14.5245 10.0043 14.7293 10.1873 14.814 10.431C14.8755 10.608 14.9213 10.791 14.952 10.9792C14.9835 11.1645 15 11.3565 15 11.55C15 13.4527 13.4527 15 11.55 15Z"/>
</mask>
<path d="M4.0245 0.04875L3.85432 1.03423L3.86603 1.03611L4.0245 0.04875ZM4.56825 0.186L4.89576 -0.758848L4.89522 -0.759034L4.56825 0.186ZM5.0535 0.7275L4.07877 0.950876L4.07888 0.951381L5.0535 0.7275ZM6.081 5.2005L7.05584 4.97759L7.05562 4.97662L6.081 5.2005ZM5.89125 5.8875L6.61092 6.58183L6.61447 6.57812L5.89125 5.8875ZM4.85625 6.483L4.39254 5.59701L3.54939 6.03831L3.94839 6.90227L4.85625 6.483ZM8.51625 10.1453L8.10196 11.0554L8.96365 11.4476L9.40239 10.6087L8.51625 10.1453ZM9.1125 9.1095L8.42181 8.38634L8.42082 8.3873L9.1125 9.1095ZM9.80025 8.91975L10.024 7.94506L10.0153 7.94314L9.80025 8.91975ZM14.2733 9.9465L14.4973 8.97191L14.497 8.97185L14.2733 9.9465ZM14.814 10.431L15.7586 10.1028L15.7585 10.1026L14.814 10.431ZM14.952 10.9792L13.9651 11.1405L13.9662 11.1469L14.952 10.9792ZM11.55 14C5.73328 14 1 9.26672 1 3.45H-1C-1 10.3713 4.62872 16 11.55 16V14ZM1 3.45C1 2.09968 2.10014 1 3.45 1V-1C0.995857 -1 -1 0.994824 -1 3.45H1ZM3.45 1C3.58885 1 3.72465 1.01177 3.85433 1.03416L4.19467 -0.936664C3.95085 -0.978771 3.70115 -1 3.45 -1V1ZM3.86603 1.03611C3.98931 1.0559 4.11672 1.08794 4.24128 1.13103L4.89522 -0.759034C4.66428 -0.838939 4.42419 -0.899899 4.18297 -0.938614L3.86603 1.03611ZM4.24074 1.13085C4.1583 1.10227 4.0977 1.03351 4.07877 0.950876L6.02823 0.504124C5.8938 -0.0825071 5.4672 -0.560771 4.89576 -0.758848L4.24074 1.13085ZM4.07888 0.951381L5.10638 5.42438L7.05562 4.97662L6.02812 0.503619L4.07888 0.951381ZM5.10616 5.42341C5.0873 5.34093 5.11154 5.25604 5.16803 5.19688L6.61447 6.57812C7.02046 6.15296 7.1872 5.55207 7.05584 4.97759L5.10616 5.42341ZM5.17159 5.19318C5.14441 5.22134 5.16887 5.19434 5.20154 5.16884C5.22668 5.1492 5.23437 5.14759 5.18466 5.17623C5.07762 5.23792 4.8695 5.34738 4.39254 5.59701L5.31996 7.36899C5.77299 7.13187 6.031 6.99683 6.18328 6.90908C6.26323 6.86301 6.34887 6.81044 6.43239 6.74522C6.52344 6.67413 6.58671 6.60691 6.61091 6.58182L5.17159 5.19318ZM3.94839 6.90227C4.80031 8.74697 6.28246 10.2272 8.10196 11.0554L8.93054 9.2351C7.55353 8.60831 6.41819 7.48003 5.76411 6.06373L3.94839 6.90227ZM9.40239 10.6087C9.65201 10.1314 9.76153 9.92313 9.82316 9.8163C9.85178 9.76669 9.84997 9.77477 9.82989 9.80039C9.80377 9.83371 9.77615 9.85855 9.80418 9.8317L8.42082 8.3873C8.3956 8.41145 8.32766 8.47492 8.25582 8.56657C8.19001 8.65052 8.13706 8.73665 8.09077 8.81689C8.00259 8.96974 7.86724 9.2284 7.63011 9.68183L9.40239 10.6087ZM9.80319 9.83265C9.73876 9.89419 9.65524 9.91177 9.58522 9.89636L10.0153 7.94314C9.45476 7.81973 8.85374 7.97381 8.42181 8.38635L9.80319 9.83265ZM9.57652 9.8944L14.0495 10.9212L14.497 8.97185L10.024 7.9451L9.57652 9.8944ZM14.0492 10.9211C13.9663 10.902 13.8981 10.8418 13.8695 10.7594L15.7585 10.1026C15.5604 9.53268 15.0827 9.10647 14.4973 8.97191L14.0492 10.9211ZM13.8694 10.7592C13.9112 10.8794 13.9432 11.0063 13.9651 11.1405L15.9389 10.818C15.8993 10.5757 15.8398 10.3366 15.7586 10.1028L13.8694 10.7592ZM13.9662 11.1469C13.9883 11.2769 14 11.4129 14 11.55H16C16 11.3001 15.9787 11.0521 15.9378 10.8116L13.9662 11.1469ZM14 11.55C14 12.9005 12.9005 14 11.55 14V16C14.005 16 16 14.005 16 11.55H14Z" fill="#231F20" mask="url(#path-1-inside-1)"/>
</svg>
