<svg width="21" height="12" viewBox="0 0 21 12" fill="none" xmlns="http://www.w3.org/2000/svg">
<path fill-rule="evenodd" clip-rule="evenodd" d="M11.1784 11.8464C11.1784 11.8464 11.5394 11.807 11.7242 11.6121C11.8935 11.4335 11.8876 11.0965 11.8876 11.0965C11.8876 11.0965 11.8651 9.52272 12.6095 9.29036C13.3431 9.06183 14.2851 10.8122 15.2848 11.4853C16.04 11.9942 16.6132 11.8829 16.6132 11.8829L19.2846 11.8464C19.2846 11.8464 20.6815 11.7619 20.0192 10.6836C19.9645 10.5952 19.6329 9.88567 18.0335 8.42811C16.3579 6.90238 16.5829 7.14915 18.5999 4.50961C19.8285 2.90226 20.3195 1.92095 20.166 1.50136C20.0202 1.1 19.1164 1.20658 19.1164 1.20658L16.1094 1.22482C16.1094 1.22482 15.8864 1.19506 15.7211 1.29204C15.5597 1.38709 15.455 1.6089 15.455 1.6089C15.455 1.6089 14.9796 2.85233 14.3448 3.91045C13.0057 6.14192 12.4706 6.26002 12.2515 6.12175C11.7418 5.79817 11.869 4.82359 11.869 4.1313C11.869 1.968 12.2035 1.06639 11.2185 0.833068C10.8918 0.755293 10.6512 0.704403 9.81481 0.695762C8.74175 0.6852 7.83399 0.699603 7.31947 0.946369C6.9771 1.11056 6.71299 1.47735 6.87439 1.49847C7.07296 1.5244 7.52293 1.61754 7.7616 1.93632C8.06973 2.34824 8.05897 3.27193 8.05897 3.27193C8.05897 3.27193 8.23602 5.81834 7.6452 6.13424C7.24023 6.35124 6.68462 5.90859 5.49026 3.88357C4.87889 2.84657 4.41719 1.70011 4.41719 1.70011C4.41719 1.70011 4.32818 1.48599 4.16873 1.37077C3.97603 1.23154 3.70703 1.18834 3.70703 1.18834L0.849752 1.20658C0.849752 1.20658 0.420328 1.2181 0.262841 1.4015C0.12296 1.56377 0.252081 1.90079 0.252081 1.90079C0.252081 1.90079 2.48919 7.03873 5.02269 9.62834C7.34588 12.0019 9.98306 11.8464 9.98306 11.8464H11.1784Z" fill="white"/>
</svg>
