<svg width="26" height="26" viewBox="0 0 26 26" fill="none" xmlns="http://www.w3.org/2000/svg">
<path fill-rule="evenodd" clip-rule="evenodd" d="M18.2337 2.10932C17.3277 1.94735 16.3936 1.96463 15.4851 2.16606C14.0632 2.48134 12.775 3.23208 11.7998 4.31379C10.8246 5.3955 10.2109 6.75434 10.0441 8.20118C9.87805 9.6415 10.1632 11.0977 10.8598 12.3688C11.0985 12.7813 11.0131 13.3101 10.6476 13.6258L2.5618 20.61C2.2016 20.9827 1.99985 21.4812 2 22.0004C2.00015 22.5306 2.21085 23.0391 2.58579 23.4141C2.96072 23.789 3.4692 23.9997 3.99943 23.9998C4.51864 24 5.01709 23.7982 5.38982 23.438L12.3741 15.3522C12.6917 14.9845 13.2237 14.9012 13.6357 15.1426C14.9057 15.8374 16.3601 16.1216 17.7987 15.9558C19.2455 15.789 20.6044 15.1753 21.6861 14.2C22.7678 13.2248 23.5185 11.9366 23.8338 10.5147C24.0352 9.60625 24.0525 8.6721 23.8905 7.76617L19.8272 11.8295C19.5908 12.0659 19.2519 12.1685 18.924 12.1029L15.3885 11.3958C14.9926 11.3167 14.6832 11.0072 14.604 10.6114L13.8969 7.07584C13.8313 6.74798 13.9339 6.40904 14.1704 6.17262L18.2337 2.10932ZM13.3824 17.2445C14.8373 17.8822 16.44 18.1256 18.0277 17.9426C19.8877 17.7282 21.6346 16.9392 23.0253 15.6855C24.4159 14.4317 25.381 12.7756 25.7864 10.9477C26.1917 9.11972 26.017 7.21087 25.2866 5.48684C25.1832 5.24261 24.9869 5.04949 24.7411 4.94997C24.4952 4.85045 24.2199 4.85269 23.9757 4.95618L23.9751 4.9564C23.8568 5.00657 23.7492 5.07911 23.6582 5.17003L18.7914 10.0368L16.4344 9.56542L15.963 7.2084L20.8298 2.3416C20.9194 2.25199 20.9912 2.14616 21.0413 2.02976L21.0415 2.02925C21.1467 1.78473 21.1501 1.50835 21.0509 1.26133C20.9517 1.01431 20.7581 0.817033 20.513 0.713197C18.789 -0.0171574 16.8801 -0.191832 15.0522 0.213487C13.2242 0.618806 11.5681 1.58395 10.3144 2.97458C9.06063 4.3652 8.27164 6.11212 8.05724 7.97215C7.87422 9.55987 8.11763 11.1626 8.75535 12.6175L1.2238 19.1229C1.20525 19.139 1.18729 19.1557 1.16996 19.173C0.420524 19.9233 -0.000301616 20.9405 1.62194e-07 22.001C0.000301941 23.0614 0.421707 24.0784 1.17157 24.8283C1.92144 25.5781 2.93839 25.9995 3.99886 25.9998C5.05933 26.0001 6.07652 25.5793 6.82682 24.8299C6.84416 24.8125 6.86086 24.7946 6.87689 24.776L13.3824 17.2445Z" fill="black"/>
</svg>
