<svg width="36" height="36" viewBox="0 0 36 36" fill="none" xmlns="http://www.w3.org/2000/svg">
<path d="M12.9515 15.4738C14.75 18.6334 17.3666 21.25 20.5262 23.0485L22.2205 20.6757C22.493 20.2941 22.8958 20.0257 23.3529 19.9211C23.8099 19.8166 24.2894 19.8832 24.7007 20.1083C27.4114 21.5898 30.4051 22.4807 33.4847 22.7227C33.9654 22.7608 34.414 22.9786 34.7412 23.3328C35.0684 23.6869 35.2501 24.1514 35.25 24.6336V33.1857C35.2501 33.6603 35.0742 34.118 34.7562 34.4703C34.4383 34.8226 34.0009 35.0444 33.5288 35.0928C32.513 35.1982 31.4895 35.25 30.4583 35.25C14.0517 35.25 0.75 21.9483 0.75 5.54167C0.75 4.5105 0.80175 3.487 0.907167 2.47117C0.955571 1.99909 1.17739 1.56175 1.52968 1.2438C1.88197 0.925849 2.33969 0.749898 2.81425 0.75H11.3664C11.8486 0.74994 12.3131 0.931607 12.6672 1.25878C13.0214 1.58595 13.2392 2.0346 13.2773 2.51525C13.5193 5.59494 14.4102 8.58855 15.8917 11.2993C16.1168 11.7106 16.1834 12.1901 16.0789 12.6471C15.9743 13.1042 15.7059 13.507 15.3243 13.7795L12.9515 15.4738ZM8.11767 14.2146L11.7593 11.6137C10.7258 9.38285 10.0178 7.01528 9.65675 4.58333H4.6025C4.591 4.9015 4.58525 5.22158 4.58525 5.54167C4.58333 19.8323 16.1677 31.4167 30.4583 31.4167C30.7784 31.4167 31.0985 31.4109 31.4167 31.3975V26.3433C28.9847 25.9822 26.6172 25.2742 24.3863 24.2407L21.7854 27.8823C20.7383 27.4755 19.7212 26.9951 18.7418 26.4448L18.6306 26.3816C14.8712 24.242 11.758 21.1288 9.61842 17.3694L9.55517 17.2582C9.00491 16.2788 8.52454 15.2617 8.11767 14.2146Z" fill="black"/>
</svg>
