<svg width="53" height="36" viewBox="0 0 53 36" fill="none" xmlns="http://www.w3.org/2000/svg">
<path d="M21.106 25.6322V10.2479L34.8249 17.9401L21.106 25.6322Z" fill="#E7E4DF"/>
<path d="M51.6518 5.6017C51.3515 4.51805 50.7636 3.53001 49.9467 2.73648C49.1299 1.94294 48.1129 1.37175 46.9974 1.08007C42.8895 2.38419e-07 26.3825 0 26.3825 0C26.3825 0 9.87547 2.38419e-07 5.76757 1.08007C4.6521 1.37175 3.63506 1.94294 2.81823 2.73648C2.0014 3.53001 1.41344 4.51805 1.11319 5.6017C0.346153 9.67166 -0.0260692 13.8026 0.00141786 17.9401C-0.0260692 22.0776 0.346153 26.2085 1.11319 30.2785C1.41344 31.3621 2.0014 32.3502 2.81823 33.1437C3.63506 33.9372 4.6521 34.5084 5.76757 34.8001C9.87547 35.8802 26.3825 35.8802 26.3825 35.8802C26.3825 35.8802 42.8895 35.8802 46.9974 34.8001C48.1129 34.5084 49.1299 33.9372 49.9467 33.1437C50.7636 32.3502 51.3515 31.3621 51.6518 30.2785C52.4188 26.2085 52.791 22.0776 52.7636 17.9401C52.791 13.8026 52.4188 9.67166 51.6518 5.6017ZM21.1063 25.6287V10.2515L34.8056 17.9401L21.1063 25.6287Z" fill="black"/>
</svg>
