<svg height="52" viewBox="0 0 57 52" width="57"
  xmlns="http://www.w3.org/2000/svg">
  <g fill="#f08832" fill-rule="evenodd">
    <path d="m28.08 46.304c-.679 0-1.228-.567-1.228-1.265v-20.195c0-.7.55-1.264 1.228-1.264s1.227.565 1.227 1.264v20.196c0 .698-.549 1.265-1.227 1.265"></path>
    <path d="m28.08 23.755c-.58 0-1.05.49-1.05 1.09v20.194c0 .6.47 1.089 1.05 1.089.579 0 1.05-.49 1.05-1.09v-20.193c0-.6-.471-1.089-1.05-1.089m0 22.724c-.775 0-1.405-.646-1.405-1.44v-20.196c0-.794.63-1.44 1.405-1.44s1.405.646 1.405 1.44v20.196c0 .794-.63 1.44-1.405 1.44m4.472 5.344c-.163 0-.327-.03-.487-.104-.622-.277-.908-1.02-.64-1.662l10.765-25.715c.268-.64.983-.944 1.612-.66.623.276.91 1.021.64 1.663l-10.762 25.715c-.2.477-.653.763-1.127.763"></path>
    <path d="m43.313 23.753c-.124 0-.246.022-.362.067-.268.105-.481.315-.598.59l-10.763 25.715c-.231.554.014 1.197.55 1.435.128.059.267.089.412.089.419 0 .796-.258.965-.655l10.765-25.715c.231-.554-.016-1.198-.55-1.435-.136-.062-.276-.091-.418-.091m-10.764 28.247c-.196 0-.384-.04-.559-.12-.707-.313-1.036-1.162-.731-1.89l10.766-25.713c.152-.366.434-.644.793-.783.345-.135.717-.122 1.056.03.708.314 1.036 1.162.731 1.89l-10.763 25.715c-.223.53-.73.87-1.292.87m-8.941-.175c-.476 0-.929-.286-1.129-.763l-10.766-25.715c-.268-.642.019-1.387.64-1.662.626-.28 1.347.02 1.614.659l10.766 25.715c.268.642-.017 1.385-.64 1.662-.159.073-.324.104-.485.104"></path>
    <path d="m12.844 23.754c-.142 0-.283.03-.416.089-.534.238-.78.882-.548 1.436l10.764 25.715c.168.397.547.655.966.655.144 0 .283-.03.411-.088.535-.237.782-.882.55-1.436l-10.764-25.715c-.115-.272-.325-.48-.592-.586-.12-.046-.245-.07-.37-.07m10.765 28.246c-.564 0-1.07-.342-1.292-.871l-10.766-25.715c-.305-.728.023-1.576.73-1.892.342-.149.718-.16 1.063-.024.357.14.637.418.789.779l10.766 25.713c.303.73-.024 1.577-.731 1.892-.176.077-.364.118-.56.118"></path>
    <path d="m53.64 11.608c-1.8-2.587-4.205-4.129-6.959-4.466-2.45-.3-5.11.41-7.401 1.92-.42-1.26-1.177-2.99-2.513-4.772-1.777-2.382-5.43-4.109-8.687-4.109-3.254 0-6.908 1.727-8.687 4.108-1.335 1.783-2.093 3.514-2.513 4.773-2.292-1.51-4.956-2.22-7.4-1.92-2.754.337-5.16 1.879-6.957 4.466-2.03 2.92-2.747 5.848-2.13 8.701 1.076 4.994 5.87 7.817 6.073 7.934.19.11.396.163.6.163.43 0 .847-.232 1.072-.645.333-.61.123-1.382-.47-1.722-.04-.025-4.037-2.378-4.88-6.278-.456-2.122.124-4.37 1.733-6.68 1.402-2.02 3.168-3.173 5.247-3.425 2.342-.272 4.966.647 7.03 2.493.34.304.813.388 1.238.228.421-.163.722-.554.783-1.013.004-.025.372-2.662 2.518-5.532 1.148-1.535 3.983-3.121 6.743-3.121 2.762 0 5.598 1.586 6.744 3.124 2.119 2.832 2.516 5.506 2.52 5.529.06.46.36.85.781 1.013.419.16.899.076 1.238-.228 2.065-1.846 4.687-2.763 7.033-2.493 2.078.252 3.843 1.406 5.249 3.425 1.6 2.305 2.184 4.548 1.731 6.666-.829 3.882-4.846 6.27-4.884 6.292-.589.343-.798 1.115-.465 1.722.225.413.641.645 1.07.645.203 0 .409-.052.599-.163.203-.117 4.997-2.94 6.073-7.934.618-2.853-.1-5.782-2.129-8.7"></path>
    <path d="m45.579 9.434c.281 0 .56.016.836.048 2.13.257 3.939 1.435 5.374 3.5 1.63 2.347 2.222 4.635 1.76 6.8-.85 3.979-4.928 6.385-4.97 6.409-.505.295-.684.961-.397 1.486.274.504.935.7 1.422.414.051-.03 4.921-2.85 5.991-7.818.605-2.805-.102-5.686-2.102-8.565-1.767-2.542-4.13-4.061-6.834-4.392-2.396-.293-4.982.378-7.281 1.892l-.195.128-.073-.22c-.384-1.152-1.127-2.908-2.486-4.721-1.744-2.34-5.34-4.038-8.544-4.038s-6.797 1.698-8.546 4.036c-1.357 1.813-2.1 3.57-2.487 4.724l-.072.219-.195-.128c-2.266-1.492-4.915-2.185-7.278-1.892-2.705.33-5.067 1.85-6.833 4.392-2.003 2.879-2.71 5.76-2.103 8.565 1.07 4.968 5.94 7.789 5.988 7.817.494.29 1.152.09 1.428-.413.285-.526.105-1.194-.403-1.487-.43-.258-4.145-2.59-4.964-6.392-.47-2.172.122-4.465 1.757-6.816 1.435-2.065 3.242-3.243 5.373-3.5 2.393-.282 5.082.67 7.172 2.537.285.257.688.332 1.053.194.362-.14.619-.474.673-.873.015-.111.404-2.742 2.55-5.612 1.174-1.57 4.07-3.193 6.887-3.193 2.819 0 5.714 1.625 6.885 3.196 2.158 2.883 2.55 5.584 2.552 5.61.053.398.31.731.673.873.358.137.763.065 1.053-.195 1.847-1.651 4.162-2.585 6.336-2.585m3.517 19.148c-.508 0-.978-.283-1.228-.737-.374-.688-.136-1.567.533-1.958.04-.023 3.985-2.35 4.801-6.176.442-2.07-.133-4.266-1.704-6.53-1.377-1.979-3.102-3.104-5.126-3.35-2.303-.26-4.88.65-6.89 2.448-.388.347-.933.45-1.421.261-.483-.187-.826-.628-.896-1.154-.004-.025-.394-2.653-2.485-5.447-1.119-1.5-3.893-3.052-6.6-3.052-2.704 0-5.479 1.551-6.6 3.05-2.095 2.799-2.471 5.343-2.485 5.45-.071.525-.414.968-.896 1.153-.49.186-1.033.086-1.42-.261-2.014-1.8-4.59-2.711-6.892-2.448-2.024.246-3.747 1.371-5.122 3.35-1.577 2.267-2.15 4.47-1.704 6.544.79 3.657 4.386 5.915 4.794 6.161.674.388.915 1.266.538 1.958-.247.455-.719.738-1.228.738-.241 0-.48-.065-.69-.189-.048-.026-5.054-2.927-6.156-8.047-.628-2.904.098-5.876 2.158-8.837 1.823-2.629 4.272-4.199 7.08-4.541 2.371-.292 5.034.37 7.328 1.823.411-1.175 1.162-2.866 2.464-4.607 1.81-2.422 5.524-4.179 8.83-4.179 3.308 0 7.022 1.759 8.832 4.182 1.303 1.74 2.052 3.429 2.463 4.604 2.325-1.473 4.912-2.122 7.33-1.823 2.807.343 5.255 1.913 7.08 4.54 2.058 2.962 2.785 5.934 2.158 8.84-1.103 5.118-6.11 8.019-6.159 8.047-.208.122-.447.187-.687.187"></path>
  </g>
</svg>
