<svg xmlns="http://www.w3.org/2000/svg" width="30" height="30" viewBox="0 0 30 30">
    <g fill="none" fill-rule="evenodd" stroke="#000" stroke-width=".68" transform="translate(0 1)">
        <rect width="24.177" height="24.948" x=".34" y="3.712" rx="1.36"></rect>
        <path fill="#F2F2F2" fill-rule="nonzero" d="M23.428.344a3630.358 3630.358 0 0 1-6.75 6.586L14.31 9.234c-.872.85-1.748 1.699-2.613 2.555a1.242 1.242 0 0 0-.318.56v.002c-.209.933-.533 2.57-.972 4.912-.057.268-.1.58.067.744.13.126.317.202.518.202.05 0 .11-.006.175-.017h.003l.874-.18c1.393-.284 2.793-.576 4.189-.857.262-.055.457-.157.642-.337C20.79 13 24.706 9.185 28.622 5.375c.23-.224.345-.461.377-.8a.278.278 0 0 0-.005-.079c-.028-.11-.048-.211-.069-.291l-.001-.007-.001-.006a3.935 3.935 0 0 0-.213-.73C28.013 1.91 26.884.83 25.306.208c-.275-.109-.594-.152-.903-.19l-.082-.01a1.06 1.06 0 0 0-.241-.002c-.23.026-.437.124-.652.338z"></path>
    </g>
</svg>
