<svg xmlns="http://www.w3.org/2000/svg" width="26" height="30" viewBox="0 0 26 30">
    <g fill="none" fill-rule="evenodd" stroke="#000" transform="translate(1)">
        <path fill="#000" fill-rule="nonzero" stroke-width=".1" d="M11.991.238c-.143 0-.287.001-.418.007h-.006C5.591.448.655 5.038.085 10.918a11.834 11.834 0 0 0 .156 3.376l.004.013.002.014s.013.108.077.356l.001.008.002.005c.181.807.454 1.593.8 2.323l.007.015c1.25 2.93 4.004 7.484 10.036 12.436l.001.002c.236.191.53.296.833.296.303 0 .599-.106.835-.298 6.024-4.948 8.78-9.507 10.024-12.413l.007-.014c.351-.748.623-1.54.805-2.341l.002-.006v-.004c.035-.14.057-.245.073-.348l.002-.012.001-.009c.146-.735.218-1.492.218-2.248C23.958 5.544 18.592.237 11.99.237zm-.402.586c6.45-.22 11.786 4.912 11.786 11.255 0 .69-.075 1.381-.203 2.078-.001.108-.007.08-.011.1l-.013.072a11.533 11.533 0 0 1-.824 2.486l-.002.004c-1.248 2.911-3.972 7.366-9.863 12.202l-.006.004-.005.005a.762.762 0 0 1-.452.156.705.705 0 0 1-.452-.156l-.007-.005-.006-.004c-5.89-4.84-8.617-9.292-9.87-12.222l-.002-.005A11.1 11.1 0 0 1 .89 14.56c-.038-.169-.062-.291-.064-.297l-.011-.05v-.052c0 .072-.003-.025-.004-.015a11.326 11.326 0 0 1-.146-3.167C1.21 5.39 5.905 1.02 11.589.825V.824z"></path>
        <ellipse cx="12.343" cy="11.591" stroke-width=".765" rx="4.114" ry="4.091"></ellipse>
    </g>
</svg>