<svg xmlns="http://www.w3.org/2000/svg" width="31" height="31" viewBox="0 0 31 31">
  <path style="fill:#000000;fill-rule:nonzero" id="path2"
    d="m 0,14.496 c 0,3.142 1.033,6.224 2.926,8.732 l 0.193,0.257 -0.121,0.309 c -0.442,1.109 -1.103,2.008 -1.961,2.641 -0.2477316,0.193049 -0.36249302,0.511269 -0.295,0.818 0.062,0.319 0.27,0.537 0.563,0.584 0.4497866,0.0715 0.904567,0.106945 1.36,0.106 1.45,0 2.75,-0.349 3.896,-1.036 L 6.78,26.775 6.996,26.907 C 9.2579904,28.278097 11.85291,29.002059 14.498,29 22.532,29 29,22.464 29,14.505 29,6.545 22.539,0 14.505,0 6.47,0 0,6.537 0,14.496 Z M 14.5,0.641 c 7.584,0 13.826,6.163 13.826,13.824 0,7.306 -5.72,13.266 -12.825,13.8 l -1,0.027 c -2.671696,0.0016 -5.286066,-0.77468 -7.524,-2.234 -0.04173,-0.0277 -0.090922,-0.04201 -0.141,-0.041 -0.053553,0.0014 -0.1055977,0.01803 -0.15,0.048 L 6.693,26.058 C 5.468,26.9 4.006,27.297 2.436,27.231 L 1.292,27.183 2.144,26.308 c 0.724,-0.745 1.274,-1.686 1.652,-2.843 0.033777,-0.112992 0.012281,-0.235297 -0.058,-0.33 -1.9931872,-2.448732 -3.07597919,-5.512637 -3.064,-8.67 0,-7.66 6.242,-13.823 13.827,-13.823 h -0.002 z">
  </path>
  <path style="stroke-width:0.56013459;fill:#000000" id="path4"
    d="m 21.458571,16.894787 -2.979916,-1.37177 c -0.425703,-0.189326 -0.851405,-0.04705 -1.134833,0.283988 l -1.134833,1.466432 c -0.851404,-0.33104 -3.216293,-1.371769 -4.587502,-3.925423 l 1.04073,-1.229495 c 0.236377,-0.283988 0.283988,-0.66208 0.141714,-0.993119 L 11.526824,8.0984327 C 11.38511,7.7673932 11.101122,7.5310165 10.723031,7.5310165 L 9.8245758,7.4839652 c -0.3786516,0 -0.803793,0.094663 -1.0877817,0.378651 -0.4257022,0.3786509 -1.2294954,1.182444 -1.4664321,2.2702258 -0.3310395,1.560535 0.1893253,3.405057 1.5134833,5.20253 0.8037931,1.134833 3.2633437,4.493399 7.9931207,5.817557 0.472754,0.141714 0.946067,0.189326 1.371769,0.189326 0.803793,0 1.560535,-0.236377 2.223174,-0.615028 0.756742,-0.472754 1.277108,-1.277106 1.466433,-2.128511 l 0.141714,-0.662079 c 0.09298,-0.426823 -0.143395,-0.852526 -0.521485,-1.04185 z m -0.615029,1.466432 c -0.141713,0.615028 -0.520364,1.182444 -1.040729,1.513484 -0.803793,0.520364 -1.749861,0.615027 -2.79059,0.331039 C 12.613485,18.976247 10.296209,15.807005 9.5394671,14.766835 8.4046344,13.2063 7.9313206,11.598154 8.2153089,10.321047 8.4046344,9.4696422 9.0191024,8.8546145 9.397753,8.5235749 9.492416,8.4289119 9.63413,8.3818609 9.7764037,8.3818609 l 0.9460673,0.094663 1.277107,2.9799151 -1.134833,1.277108 c -0.189325,0.236376 -0.236377,0.615028 -0.09466,0.898455 1.560535,3.026968 4.398737,4.209412 5.249581,4.4934 0.33104,0.09466 0.66208,0 0.898456,-0.283988 l 1.134833,-1.513484 2.979916,1.37177 z">
  </path>
</svg>
