<?xml version="1.0" encoding="iso-8859-1"?>
<!-- Generator: Adobe Illustrator 16.0.0, SVG Export Plug-In . SVG Version: 6.00 Build 0)  -->
<!DOCTYPE svg PUBLIC "-//W3C//DTD SVG 1.1//EN" "http://www.w3.org/Graphics/SVG/1.1/DTD/svg11.dtd">
<svg width="363" height="363" viewBox="0 0 363 363" fill="none" xmlns="http://www.w3.org/2000/svg">
	<g clip-path="url(#clip0_2_2)">
		<path d="M322.221 88.215H288.217C291.011 85.361 293.395 82.074 295.279 78.423C300.231 68.823 301.148 57.869 297.862 47.58C292.502 30.795 277.018 19.949 258.419 19.949C254.831 19.949 251.212 20.366 247.664 21.188C230.192 25.238 205.545 38.66 189.461 53.691C189.92 49.295 190.969 42.841 193.36 36.404C198.463 22.674 206.909 16 219.184 16C223.602 16 227.184 12.418 227.184 8C227.184 3.582 223.602 0 219.184 0C202.36 0 189.044 8.65 181.1 24.521C173.157 8.649 159.841 0 143.017 0C138.599 0 135.017 3.582 135.017 8C135.017 12.418 138.599 16 143.017 16C167.809 16 172.17 45.135 172.936 55.609C157.228 40.175 131.717 26.004 112.895 21.227C109.215 20.293 105.448 19.82 101.7 19.82C83.294 19.82 67.922 30.716 62.536 47.58C59.25 57.869 60.167 68.823 65.119 78.423C67.003 82.074 69.387 85.36 72.18 88.215H39.98C35.562 88.215 31.98 91.797 31.98 96.215V159.795C31.98 164.213 35.562 167.795 39.98 167.795H60.611V354.201C60.611 358.619 64.193 362.201 68.611 362.201H293.591C298.009 362.201 301.591 358.619 301.591 354.201V167.795H322.222C326.64 167.795 330.222 164.213 330.222 159.795V96.215C330.221 91.797 326.639 88.215 322.221 88.215ZM251.275 36.776C253.64 36.228 256.044 35.95 258.418 35.95C270.097 35.95 279.369 42.272 282.619 52.449C284.605 58.667 284.053 65.286 281.058 71.088C278.064 76.89 272.992 81.179 266.773 83.165C259.169 85.594 239.723 88.215 221.561 88.215C221.56 88.215 221.557 88.215 221.556 88.215C197.579 88.215 189.878 83.815 189.089 82.319C188.846 81.56 189.138 79.662 190.758 76.812C199.035 62.255 230.142 41.675 251.275 36.776ZM77.778 52.449C81.004 42.348 90.393 35.822 101.7 35.822C104.122 35.822 106.565 36.13 108.96 36.738C131.147 42.368 161.84 62.679 169.778 76.985C171.292 79.712 171.56 81.53 171.326 82.274C170.518 83.816 162.816 88.215 138.842 88.215C120.677 88.215 101.227 85.594 93.623 83.165C87.404 81.179 82.332 76.89 79.339 71.088C76.346 65.286 75.791 58.667 77.778 52.449ZM47.979 104.215H173.1V151.795H68.609H47.979V104.215ZM76.609 167.795H173.099V346.201H76.609V167.795ZM285.59 346.201H189.1V167.795H285.59V346.201ZM314.221 151.795H293.59H189.1V104.215H314.221V151.795Z" fill="#197C83" />
	</g>
	<defs>
		<clipPath id="clip0_2_2">
			<rect width="362.201" height="362.201" fill="white" />
		</clipPath>
	</defs>
</svg>