<svg xmlns="http://www.w3.org/2000/svg" width="50" height="50" viewBox="0 0 50 50" style="
    fill: #B24C24;
">
  <g id="icon-diamond" transform="translate(0.371 0.023)" >
    <rect id="Rettangolo_17" data-name="Rettangolo 17" width="50" height="50" transform="translate(-0.371 -0.023)" fill="rgba(255,255,255,0)"></rect>
    <path id="Tracciato_12" data-name="Tracciato 12" d="M2070.2,347l.027-.053a.357.357,0,0,0-.037-.379c-2.275-2.918-3.922-5.043-5.124-6.594a47.759,47.759,0,0,0-3.247-4.053l-.03,0-.035,0h-.013l-13.458-1.813a18.569,18.569,0,0,0-2.471-.167,22.2,22.2,0,0,0-3.412.293c-.345.051-.644.1-.9.119a.356.356,0,0,0,.1.7h.016c.246-.023.54-.066.88-.116a21.688,21.688,0,0,1,3.319-.286,17.839,17.839,0,0,1,2.371.16l9.241,1.245,2.143.289-2.119.432-7.818,1.593-3.764.767-.073.015-.073-.015-11.582-2.36-2.119-.432,2.144-.289,4-.539a.356.356,0,0,0-.047-.709.351.351,0,0,0-.048,0l-8.217,1.107h-.017l-.014,0-.015,0h-.009l-.01,0-.014,0-.007,0h0l0,0-.014.005-.016.007-.011.005-.006,0-.007,0a10.338,10.338,0,0,0-1.218,1.507c-1.078,1.4-3.084,4-7.09,9.1a.357.357,0,0,0-.036.378l.031.062c.123.251.188.337,3.56,4.8,2.183,2.888,5.836,7.721,11.815,15.658a.356.356,0,0,0,.568-.429L2023.361,348.5l-.688-.912,1.09.343,11.3,3.56.169.053.063.166,8.7,22.952.906,2.391-1.54-2.041-3.982-5.278a.356.356,0,0,0-.568.429l3.131,4.15c1.152,1.526,1.443,1.912,1.484,1.964a3.046,3.046,0,0,0,1.727.963c.047,0,.248.009.617.009.387,0,.628-.006.685-.011a3.031,3.031,0,0,0,1.739-.988l14.083-18.666a.356.356,0,0,0-.07-.5.356.356,0,0,0-.5.07l-13.474,17.858-1.541,2.042.907-2.392,1.4-3.682,7.306-19.27.063-.166.169-.053,11.3-3.56,1.09-.343-.688.912-4.5,5.966a.356.356,0,0,0,.07.5.356.356,0,0,0,.5-.07c1.578-2.094,2.721-3.606,3.556-4.711A32.247,32.247,0,0,0,2070.2,347Zm-24.4-6.951.275.314,8.7,9.93.532.607H2036.29l.531-.607,8.7-9.93Zm-11.6,10.423-11.485-3.618-.5-.158.324-.415,6.845-8.778.4-.515.229.612,4.641,12.4.263.7Zm1.215-.471-4.731-12.638-.232-.618.647.132,7.78,1.585,5.634,1.148.617.126-.415.474-8.682,9.9-.4.46Zm19.98,2.106-9.172,24.191-.09.236h-.664l-.09-.236-9.172-24.191-.188-.5h19.563Zm.793-2.106-.215.573-.4-.46-8.682-9.9-.415-.473.617-.126,5.314-1.083,8.1-1.651.647-.132-.231.618Zm12.7-3.147-11.485,3.618-.715.225.263-.7,4.64-12.4.229-.612.4.515,6.845,8.778.324.415Z" transform="translate(-2020.956 -330.848)"></path>
  </g>
</svg>
