<svg width="97" height="32" viewBox="0 0 97 32" fill="none" xmlns="http://www.w3.org/2000/svg">
<rect width="97" height="32" rx="5" fill="black"/>
<path d="M21.6548 16.3578C21.6548 19.8755 23.3956 21.6675 26.8772 21.6675C30.3253 21.6675 32.0995 19.8755 32.0995 16.3578C32.0995 12.8401 30.3588 11.0481 26.8772 11.0481C23.3956 11.0481 21.6548 12.8401 21.6548 16.3578ZM24.199 16.3578C24.199 14.0348 24.9355 13.1056 26.8772 13.1056C28.8189 13.1056 29.5554 14.0016 29.5554 16.3578C29.5554 18.6808 28.8189 19.61 26.8772 19.61C24.9355 19.61 24.199 18.7139 24.199 16.3578Z" fill="white"/>
<path d="M53.2222 16.3578C53.2222 19.8755 54.9964 21.6675 58.4446 21.6675C61.8927 21.6675 63.6669 19.8755 63.6669 16.3578C63.6669 12.8401 61.9261 11.0481 58.4446 11.0481C54.9964 11.0481 53.2222 12.8401 53.2222 16.3578ZM55.7664 16.3578C55.7664 14.0348 56.5029 13.1056 58.4111 13.1056C60.3528 13.1056 61.0892 14.0016 61.0892 16.3578C61.0892 18.6808 60.3528 19.61 58.4111 19.61C56.5029 19.61 55.7664 18.7139 55.7664 16.3578Z" fill="white"/>
<path d="M82.3481 8.85906V18.4829C82.3481 20.4408 83.5198 21.4696 85.7962 21.4696H88.0057C88.5748 21.4696 88.8091 20.9718 88.8091 20.5072C88.8091 20.0095 88.5413 19.5117 88.0057 19.5117H86.7336C85.5619 19.5117 84.9593 19.4452 84.9593 18.0847V13.4387H87.8383C88.4074 13.4387 88.6417 12.9409 88.6417 12.4431C88.6417 11.9785 88.3739 11.4807 87.8383 11.4807H84.9593V8.85906C84.9593 8.19535 84.4906 7.79712 83.7206 7.79712C83.0846 7.79712 82.3481 8.0626 82.3481 8.85906Z" fill="white"/>
<path d="M34.0405 8.85906V18.4829C34.0405 20.4408 35.2457 21.4696 37.4887 21.4696H39.6981C40.2672 21.4696 40.5015 20.9718 40.5015 20.5072C40.5015 20.0095 40.2338 19.5117 39.6981 19.5117H38.426C37.2543 19.5117 36.6518 19.4452 36.6518 18.0847V13.4387H39.5307C40.0999 13.4387 40.3342 12.9409 40.3342 12.4431C40.3342 11.9785 40.0664 11.4807 39.5307 11.4807H36.6518V8.85906C36.6518 8.19535 36.183 7.79712 35.3796 7.79712C34.7435 7.79712 34.0405 8.0626 34.0405 8.85906Z" fill="white"/>
<path d="M74.7149 11.2805C71.7355 11.2805 70.4634 12.442 70.4634 15.1964V20.4066C70.4634 21.0703 70.932 21.4353 71.769 21.4353C72.5724 21.4353 73.0745 21.0371 73.0745 20.4066V15.3623C73.0745 13.9022 73.3424 13.4376 74.9492 13.4376H75.6857C77.2926 13.4376 77.5604 13.9022 77.5604 15.3623V20.4066C77.5604 21.0703 78.0291 21.4353 78.8661 21.4353C79.6695 21.4353 80.1716 21.0371 80.1716 20.4066V15.1964C80.1716 12.442 78.8995 11.2805 75.92 11.2805H74.7149Z" fill="white"/>
<path d="M65.6099 12.3766V20.3411C65.6099 21.1708 66.2794 21.4695 66.9155 21.4695C67.5515 21.4695 68.2211 21.1708 68.2211 20.3411V12.3766C68.2211 11.547 67.5515 11.2483 66.9155 11.2483C66.2794 11.2483 65.6099 11.547 65.6099 12.3766Z" fill="white"/>
<path d="M65.4419 8.46017C65.4419 9.25662 66.1114 9.92033 66.9148 9.92033C67.7183 9.92033 68.3878 9.25662 68.3878 8.46017C68.3878 7.66371 67.7183 7 66.9148 7C66.1114 7 65.4419 7.66371 65.4419 8.46017Z" fill="white"/>
<path d="M43.4821 11.5782C42.4779 11.8105 41.9087 12.441 41.9087 13.5361V24.5869C41.9087 25.3834 42.5783 25.6488 43.2143 25.6488C43.8504 25.6488 44.5199 25.3834 44.5199 24.5869V21.3679C45.1225 21.5006 45.6916 21.5671 46.3946 21.5671C47.968 21.5671 48.8049 21.3016 49.7088 20.7706C51.0479 19.9741 51.8179 18.5139 51.8179 16.5228C51.8179 13.0715 50.0435 11.3127 46.5285 11.3127C45.5577 11.2795 44.386 11.3791 43.4821 11.5782ZM44.5199 19.3436V13.5361C45.0555 13.4366 45.725 13.3702 46.3611 13.3702C48.4032 13.3702 49.2401 14.1335 49.2401 16.2573C49.2401 18.6799 48.5371 19.5095 46.3276 19.5095C45.6916 19.5095 44.9551 19.4763 44.5199 19.3436Z" fill="white"/>
<path d="M17.1348 8.55877V13.2379H11.5777V8.55877C11.5777 7.89506 11.109 7.49683 10.3391 7.49683C9.73649 7.49683 9 7.76231 9 8.55877V20.406C9 21.0697 9.46867 21.468 10.2721 21.468C10.9082 21.468 11.6112 21.2025 11.6112 20.406V15.561H17.1683V20.3728C17.1683 21.0366 17.637 21.4348 18.4404 21.4348C19.043 21.4348 19.7795 21.1693 19.7795 20.3728V8.55877C19.7795 7.89506 19.3108 7.49683 18.5074 7.49683C17.8378 7.49683 17.1348 7.76231 17.1348 8.55877Z" fill="white"/>
</svg>
