<svg xmlns="http://www.w3.org/2000/svg" xmlns:xlink="http://www.w3.org/1999/xlink" width="80" height="81" viewBox="0 0 80 81">
    <defs>
        <path id="a" d="M0 .066h80v80H0z"></path>
    </defs>
    <g fill="none" fill-rule="evenodd">
        <path fill="#C8C7C7" d="M53.884 17.305h.897l.194-.798h-.905l.28-1.322h-1.255l-.283 1.322h-.81l-.2.798h.827l-.515 2.337a2.054 2.054 0 0 0-.062.42c-.012.71.613.888 1.2.888.263 0 .535-.028.791-.046l.21-.925c-.154.019-.302.024-.449.024-.184 0-.42-.005-.42-.318 0-.043.01-.119.022-.205l.478-2.175zM57.899 20.873h1.257l.564-2.565c.041-.142.128-.576.128-.742 0-.765-.46-1.178-1.335-1.178-.822 0-1.319.372-1.516.628h-.018l.467-2.175h-1.258l-1.322 6.032h1.262l.516-2.326c.13-.602.518-1.208 1.285-1.208.29 0 .602.172.602.446 0 .119-.037.403-.08.523l-.552 2.565zM57.24 59.673h.269c.109 0 .275.03.275.14 0 .131-.142.15-.305.15h-.239v-.29zm-.217.859h.217v-.43h.203l.34.43h.24l-.372-.444c.196 0 .347-.095.347-.27 0-.198-.166-.286-.48-.286h-.495v1zM32.699 60.442c.954 0 1.105.617 1.105 1.202h-2.73c.244-.624.705-1.202 1.625-1.202zm2.596 2.188c.057-.27.087-.577.087-.884 0-1.63-1.116-2.481-2.774-2.481-2.03 0-3.281 1.693-3.281 3.503 0 1.608 1.058 2.472 2.647 2.472 1.713 0 2.568-.686 3.083-1.957H33.42c-.24.371-.562.789-1.217.789-.885 0-1.308-.445-1.308-1.116 0-.083 0-.181.006-.326h4.394zM40.071 65.084h1.641l.736-3.31c.037-.208.173-.751.173-.98 0-.986-.615-1.53-1.745-1.53-.842 0-1.553.323-2.08.943h-.025l.178-.78h-1.565l-1.236 5.657h1.63l.667-3.013c.175-.789.69-1.58 1.674-1.58.376 0 .79.252.79.59 0 .152-.066.527-.104.692l-.734 3.31zM25.896 60.318c.623 0 .911.275.92.75h1.528c.019-1.447-1.145-1.806-2.448-1.806-1.149 0-2.634.474-2.634 1.798 0 .89.463 1.208 1.284 1.447l1.268.384c.344.104.582.241.582.628 0 .516-.543.685-1.04.685-.564 0-1.172-.25-1.172-.77v-.188h-1.52v.229c0 1.318 1.368 1.765 2.525 1.765 1.368 0 2.84-.525 2.84-1.933 0-.947-.687-1.345-1.567-1.621l-.818-.249c-.551-.155-.748-.327-.748-.574 0-.402.422-.545 1-.545M53.722 60.442c.949 0 1.111.617 1.111 1.202h-2.73c.238-.624.699-1.202 1.619-1.202zm2.594 2.188c.051-.27.09-.577.09-.884 0-1.63-1.118-2.481-2.778-2.481-2.028 0-3.287 1.693-3.287 3.503 0 1.608 1.062 2.472 2.654 2.472 1.723 0 2.572-.686 3.09-1.957h-1.643c-.237.371-.56.789-1.216.789-.885 0-1.322-.445-1.322-1.116 0-.083 0-.181.028-.326h4.384zM46.91 60.318c.64 0 .92.275.933.75h1.518c.03-1.447-1.134-1.806-2.452-1.806-1.139 0-2.622.474-2.622 1.798 0 .89.465 1.208 1.288 1.447l1.255.384c.359.104.583.241.583.628 0 .516-.533.685-1.035.685-.563 0-1.173-.25-1.173-.77v-.188h-1.524v.229c0 1.318 1.368 1.765 2.536 1.765 1.37 0 2.833-.525 2.833-1.933 0-.947-.694-1.345-1.565-1.621l-.823-.249c-.548-.155-.738-.327-.738-.574 0-.402.422-.545.985-.545"></path>
        <path fill="#C8C7C7" d="M57.709 59.831c0 .286-.204.473-.454.473-.283 0-.464-.206-.464-.473 0-.28.2-.462.464-.462.25 0 .454.181.454.462m-1.053 0c0 .33.25.573.599.573a.561.561 0 0 0 .577-.573.567.567 0 0 0-.577-.57c-.323 0-.6.235-.6.57"></path>
        <g transform="translate(0 .055)">
            <mask id="b" fill="#fff">
                <use xlink:href="#a"></use>
            </mask>
            <path fill="#C8C7C7" d="M44.858 25.37c6.955 1.08 11.336 8.22 9.81 15.97-1.544 7.732-8.413 13.131-15.367 12.066-6.953-1.077-11.349-8.222-9.809-15.966 1.539-7.738 8.414-13.138 15.366-12.07m35.067 13.978c-.366 20.308-17.211 36.66-37.942 36.66-20.96 0-37.95-16.714-37.95-37.334 0-20.62 16.99-37.335 37.95-37.335.929 0 1.85.034 2.76.099 3.197.488 6.83 1.322 6.927 2.6 0 0 .934.376-6.513 5.782l-.134.078c-.523.318-7.325 4.93-9.832 7.082a53.793 53.793 0 0 0-7.053 7.195c-2.036 2.522-3.583 5.181-4.806 7.89-2.594 5.77-1.441 11.656-1.257 12.42 2.153 8.993 12.86 13.963 23.919 11.087 11.062-2.876 18.273-12.491 16.122-21.465-2.157-9.011-12.864-13.964-23.92-11.1-1.462.39-2.857.9-4.18 1.504.49-.603 12.306-13.694 28.307-14.646 4.36-.247-.294-3.345-2.59-4.627-.331-.187-.242-.206-2.266-1.182a.987.987 0 0 0-.232-.074A39.797 39.797 0 0 0 39.967.066C17.894.066 0 17.96 0 40.033S17.894 80 39.967 80s39.967-17.894 39.967-39.967c0-.229-.005-.457-.009-.685" mask="url(#b)"></path>
        </g>
    </g>
</svg>