<svg id="Layer_1" data-name="Layer 1" xmlns="http://www.w3.org/2000/svg" viewBox="0 0 176.25 41.39"><defs><style>.cls-1{fill:#fff;}</style></defs><path class="cls-1" d="M33.6,20.83c0-5.16,1.63-7.25,5.88-7.25s5.93,2,5.93,7.25-1.63,7.26-5.93,7.26-5.88-2-5.88-7.26m-5.62,0c0,7.84,3.88,11.81,11.54,11.81S51,28.67,51,20.83,47.17,9,39.53,9,28,13,28,20.84"/><path class="cls-1" d="M103.3,20.83c0-5.16,1.63-7.25,5.87-7.25s5.92,2,5.92,7.25-1.63,7.26-5.92,7.26-5.87-2-5.87-7.26m-5.64,0c0,7.84,3.9,11.81,11.56,11.81s11.5-4,11.5-11.81S116.86,9,109.22,9,97.66,13,97.66,20.83"/><path class="cls-1" d="M162,4.12V25.56c0,4.36,2.62,6.68,7.6,6.68h4.84c1.25,0,1.8-1.11,1.8-2.18s-.55-2.18-1.8-2.18h-2.81c-2.57,0-3.92-.16-3.92-3.2V14.3h6.33c1.25,0,1.8-1.12,1.8-2.19s-.55-2.18-1.8-2.18h-6.33V4.12c0-1.48-1.05-2.37-2.76-2.37-1.38,0-3,.63-3,2.37"/><path class="cls-1" d="M55.3,4.12V25.56c0,4.36,2.64,6.68,7.63,6.68h4.85c1.23,0,1.79-1.11,1.79-2.18s-.56-2.18-1.79-2.18H65c-2.57,0-3.91-.16-3.91-3.2V14.3h6.33c1.24,0,1.8-1.12,1.8-2.19s-.56-2.18-1.8-2.18H61V4.12c0-1.48-1-2.37-2.77-2.37-1.37,0-3,.63-3,2.37"/><path class="cls-1" d="M145.15,9.48c-6.58,0-9.38,2.61-9.38,8.74v11.6c0,1.46,1.07,2.32,2.86,2.32s2.87-.86,2.87-2.31V18.63c0-3.26.57-4.3,4.13-4.3h1.63c3.56,0,4.15,1,4.15,4.3V29.82c0,1.46,1.06,2.32,2.84,2.32s2.87-.86,2.87-2.31V18.21c0-6.13-2.81-8.74-9.39-8.74h-2.61"/><path class="cls-1" d="M125,12V29.71c0,1.82,1.5,2.45,2.9,2.45s2.88-.66,2.88-2.45V12c0-1.83-1.48-2.45-2.9-2.45S125,10.16,125,12"/><path class="cls-1" d="M124.63,3.26A3.27,3.27,0,1,0,127.9,0a3.26,3.26,0,0,0-3.27,3.26"/><path class="cls-1" d="M78.43,27.49V14.55a20.25,20.25,0,0,1,4-.37c4.52,0,6.34,1.69,6.34,6.46,0,5.36-1.52,7.21-6.43,7.21a19.21,19.21,0,0,1-3.94-.38M76.17,10.15a4,4,0,0,0-3.45,4.32V39c0,1.73,1.46,2.36,2.85,2.36s2.86-.63,2.86-2.36V31.91a18.61,18.61,0,0,0,4.14.44,12.88,12.88,0,0,0,7.34-1.78c2.94-1.76,4.69-5.06,4.69-9.47,0-7.68-3.93-11.59-11.71-11.59a33.31,33.31,0,0,0-6.68.64"/><path class="cls-1" d="M18,3.43V13.84H5.73V3.43C5.73,2,4.69,1.09,3,1.09,1.6,1.09,0,1.7,0,3.43V29.8c0,1.47,1,2.36,2.79,2.36,1.37,0,2.94-.62,2.94-2.36V19.07H18V29.8c0,1.47,1.05,2.36,2.79,2.36,1.35,0,2.94-.62,2.94-2.36V3.43c0-1.47-1.05-2.34-2.79-2.34C19.59,1.09,18,1.7,18,3.43"/></svg>
