<svg width="469" height="145" viewBox="0 0 469 145" fill="none" xmlns="http://www.w3.org/2000/svg">
<path d="M444.987 144.965H24.9185C11.6985 144.965 0.982544 134.247 0.982544 121.027V24.9194C0.982544 11.6994 11.6985 0.983366 24.9185 0.983366H444.987C458.207 0.983366 468.924 11.6994 468.924 24.9194V121.027C468.924 134.247 458.207 144.965 444.987 144.965Z" fill="#1D1D1B"/>
<path d="M112.458 82.3763C112.458 70.7829 116.174 66.0909 125.676 66.0909C135.364 66.0909 139.004 70.6189 139.004 82.3763C139.004 93.9723 135.273 98.6643 125.676 98.6643C116.034 98.6643 112.458 94.1563 112.458 82.3763ZM99.8397 82.3763C99.8397 99.9616 108.55 108.89 125.777 108.89C142.944 108.89 151.63 99.9616 151.63 82.3763C151.63 64.7176 142.944 55.7923 125.777 55.7923C108.55 55.7923 99.8397 64.7176 99.8397 82.3763Z" fill="white"/>
<path d="M269.046 82.3763C269.046 70.7829 272.741 66.0909 282.233 66.0909C291.942 66.0909 295.542 70.6189 295.542 82.3763C295.542 93.9723 291.811 98.6643 282.233 98.6643C272.609 98.6643 269.046 94.1563 269.046 82.3763ZM256.382 82.3763C256.382 99.9616 265.138 108.89 282.345 108.89C299.491 108.89 308.178 99.9616 308.178 82.3763C308.178 64.7176 299.491 55.7923 282.345 55.7923C265.138 55.7923 256.382 64.7176 256.382 82.3763Z" fill="white"/>
<path d="M400.924 44.8161V92.9828C400.924 102.796 406.813 107.993 417.985 107.993H428.876C431.678 107.993 432.928 105.5 432.928 103.101C432.928 100.689 431.678 98.2015 428.876 98.2015H422.549C416.776 98.2015 413.76 97.8428 413.76 90.9961V67.6895H427.981C430.786 67.6895 432.038 65.1841 432.038 62.7601C432.038 60.3695 430.786 57.8681 427.981 57.8681L413.76 57.8908V44.8161C413.76 41.4948 411.4 39.4935 407.546 39.4935C404.46 39.4935 400.924 40.8961 400.924 44.8161Z" fill="white"/>
<path d="M161.207 44.8161V92.9828C161.207 102.796 167.121 107.993 178.337 107.993H189.233C192.006 107.993 193.251 105.5 193.251 103.101C193.251 100.689 192.006 98.2015 189.233 98.2015H182.869C177.089 98.2015 174.083 97.8428 174.083 90.9961V67.6895H188.293C191.095 67.6895 192.346 65.1841 192.346 62.7601C192.346 60.3695 191.095 57.8681 188.293 57.8681H174.083V44.8161C174.083 41.4948 171.758 39.4935 167.851 39.4935C164.781 39.4935 161.207 40.8961 161.207 44.8161Z" fill="white"/>
<path d="M363.044 56.8608C348.278 56.8608 341.974 62.7221 341.974 76.4808V102.563C341.974 105.837 344.37 107.769 348.416 107.769C352.428 107.769 354.849 105.837 354.849 102.589V77.3968C354.849 70.0408 356.126 67.7448 364.121 67.7448H367.856C375.842 67.7448 377.166 70.0408 377.166 77.3968V102.563C377.113 105.837 379.556 107.769 383.568 107.769C387.598 107.769 390 105.837 390 102.589V76.4808C390 62.7221 383.696 56.8608 368.921 56.8608H363.044Z" fill="white"/>
<path d="M317.76 62.4103V102.318C317.76 106.408 321.124 107.885 324.267 107.885C327.414 107.885 330.731 106.408 330.731 102.318V62.4103C330.731 58.3076 327.414 56.8263 324.227 56.8263C321.124 56.8263 317.76 58.3076 317.76 62.4103Z" fill="white"/>
<path d="M316.954 42.8956C316.954 46.9636 320.249 50.2383 324.226 50.2383C328.284 50.2383 331.53 46.9636 331.53 42.8956C331.53 38.8383 328.284 35.5249 324.226 35.5249C320.249 35.5249 316.954 38.8383 316.954 42.8956Z" fill="white"/>
<path d="M213.165 97.3229V68.2976C215.798 67.7323 219.079 67.4629 222.23 67.4629C232.403 67.4629 236.491 71.2589 236.491 81.9723C236.491 94.0109 233.066 98.1776 222.022 98.1776C219.013 98.1776 215.451 97.8856 213.165 97.3229ZM208.087 58.3683C203.105 59.4803 200.331 62.6056 200.331 68.0843V123.315C200.331 127.22 203.621 128.631 206.743 128.631C209.855 128.631 213.165 127.22 213.165 123.315V107.263C216.211 107.93 218.918 108.239 222.477 108.239C230.327 108.239 234.41 106.902 238.882 104.242C245.481 100.296 249.394 92.8816 249.394 82.9816C249.394 65.7203 240.577 56.9363 223.097 56.9363C218.365 56.9363 212.522 57.3669 208.087 58.3683" fill="white"/>
<path d="M77.4237 43.2913V66.6767H49.8424V43.2913C49.8424 39.982 47.5237 38.0273 43.6184 38.0273C40.5717 38.0273 36.9771 39.4007 36.9771 43.2913V102.511C36.9771 105.814 39.3251 107.81 43.2371 107.81C46.3211 107.81 49.8424 106.422 49.8424 102.511V78.4127H77.4237V102.511C77.4237 105.814 79.7717 107.81 83.6744 107.81C86.7184 107.81 90.2957 106.422 90.2957 102.511V43.2913C90.2957 39.982 87.9357 38.0273 84.021 38.0273C80.989 38.0273 77.4237 39.4007 77.4237 43.2913Z" fill="white"/>
</svg>
