<svg width="35" height="25" viewBox="0 0 35 25" fill="none" xmlns="http://www.w3.org/2000/svg">
<path fill-rule="evenodd" clip-rule="evenodd" d="M17.3463 0H17.3311C17.3311 0 10.0524 0 5.19974 0.359381C4.54722 0.367782 3.90314 0.505445 3.30605 0.764129C2.70897 1.02281 2.17117 1.3972 1.72484 1.86486C0.685364 2.94358 0.347079 5.39302 0.347079 5.39302C0.130964 7.30355 0.015118 9.22375 0 11.146L0 13.8425C0.015118 15.7647 0.130964 17.6849 0.347079 19.5955C0.347079 19.5955 0.685364 22.0449 1.72484 23.1236C3.04398 24.5393 4.77703 24.4943 5.54857 24.6429C8.32286 24.9159 17.3387 25 17.3387 25C17.3387 25 24.6256 24.9885 29.4783 24.6291C30.1307 24.6207 30.7747 24.4831 31.3717 24.2244C31.9687 23.9657 32.5064 23.5913 32.9526 23.1236C33.9926 22.0449 34.3315 19.5955 34.3315 19.5955C34.5467 17.6851 34.6622 15.765 34.6774 13.8425V11.146C34.6624 9.22378 34.5469 7.3036 34.3315 5.39302C34.3315 5.39302 33.9926 2.94358 32.9526 1.86486C32.5064 1.39716 31.9687 1.02275 31.3717 0.764058C30.7747 0.505369 30.1307 0.367727 29.4783 0.359381C24.6256 0 17.3463 0 17.3463 0ZM13.7184 7.41626L22.9324 12.3215L13.7184 17.4271V7.41626Z" fill="white"/>
</svg>
