<svg width="24" height="23" viewBox="0 0 24 23" fill="none" xmlns="http://www.w3.org/2000/svg">
<path d="M22.7368 5.66803V2.78803C22.7368 1.39856 21.6 0.261719 20.2105 0.261719H2.52632C1.12421 0.261719 0 1.39856 0 2.78803V20.4722C0 21.8617 1.12421 22.9986 2.52632 22.9986H20.2105C21.6 22.9986 22.7368 21.8617 22.7368 20.4722V17.5922C23.4821 17.1501 24 16.3543 24 15.4196V7.84067C24 6.90593 23.4821 6.11014 22.7368 5.66803ZM21.4737 7.84067V15.4196H12.6316V7.84067H21.4737ZM2.52632 20.4722V2.78803H20.2105V5.31435H12.6316C11.2421 5.31435 10.1053 6.45119 10.1053 7.84067V15.4196C10.1053 16.8091 11.2421 17.9459 12.6316 17.9459H20.2105V20.4722H2.52632Z" fill="#EDAC09"/>
</svg>
