<svg width="26" height="26" viewBox="0 0 26 26" fill="none" xmlns="http://www.w3.org/2000/svg">
<path fill-rule="evenodd" clip-rule="evenodd" d="M16.516 8.31285L11.5968 14.7726L9.47388 12.0608C9.03188 11.4939 8.21288 11.3952 7.64868 11.8385C7.08318 12.2805 6.98308 13.0982 7.42638 13.6623L10.5867 17.7015C10.8337 18.0161 11.2107 18.1994 11.6111 18.1994H11.6202C12.0219 18.198 12.4015 18.0082 12.6446 17.6871L18.5843 9.88715C19.0198 9.31515 18.9093 8.50135 18.3373 8.06585C17.764 7.63035 16.9502 7.74215 16.516 8.31285ZM13 23.4C7.2657 23.4 2.6 18.7343 2.6 13C2.6 7.2657 7.2657 2.6 13 2.6C18.7343 2.6 23.4 7.2657 23.4 13C23.4 18.7343 18.7343 23.4 13 23.4ZM13 0C5.8201 0 0 5.8214 0 13C0 20.1786 5.8201 26 13 26C20.1799 26 26 20.1786 26 13C26 5.8214 20.1799 0 13 0Z" fill="#EDAC09"/>
</svg>
